<svg width="16" height="16" viewBox="0 0 16 16" fill="none" xmlns="http://www.w3.org/2000/svg">
<path d="M13.3333 4.66667H2.66665C1.93027 4.66667 1.33331 5.26363 1.33331 6.00001V12.6667C1.33331 13.4031 1.93027 14 2.66665 14H13.3333C14.0697 14 14.6666 13.4031 14.6666 12.6667V6.00001C14.6666 5.26363 14.0697 4.66667 13.3333 4.66667Z" stroke="#4D4D4D" stroke-linecap="round" stroke-linejoin="round"/>
<path d="M10.6666 14V3.33333C10.6666 2.97971 10.5262 2.64057 10.2761 2.39052C10.0261 2.14048 9.68694 2 9.33331 2H6.66665C6.31302 2 5.97389 2.14048 5.72384 2.39052C5.47379 2.64057 5.33331 2.97971 5.33331 3.33333V14" stroke="#4D4D4D" stroke-linecap="round" stroke-linejoin="round"/>
</svg>
