<?xml version="1.0" standalone="no"?>
<!DOCTYPE svg PUBLIC "-//W3C//DTD SVG 1.1//EN" "http://www.w3.org/Graphics/SVG/1.1/DTD/svg11.dtd" >
<svg>
<metadata>
Created by FontForge 20090622 at Tue Sep 29 02:50:51 2015
 By deploy user
&#194;&#169; 1990, 1991, 1992, 1994, 1997, 1998, 2000, 2002, 2004 Adobe Systems Incorporated. All rights reserved.
</metadata>
<defs>
<font id="MinionPro-SemiboldIt" horiz-adv-x="400" >
  <font-face 
    font-family="Minion Pro SmBd"
    font-weight="600"
    font-style="italic"
    font-stretch="normal"
    units-per-em="1000"
    panose-1="2 4 6 3 6 2 1 9 2 3"
    ascent="727"
    descent="-273"
    x-height="452"
    cap-height="649"
    bbox="-216 -360 1684 1021"
    underline-thickness="50"
    underline-position="-50"
    slope="-12"
    unicode-range="U+0020-U+FB06"
  />
<missing-glyph horiz-adv-x="500" 
d="M0 0v699h500v-699h-500zM250 394l170 255h-340zM280 349l170 -254v509zM80 50h340l-170 255zM50 604v-509l170 254z" />
    <glyph glyph-name="T_h" unicode="Th" horiz-adv-x="1057" 
d="M1015 116l14 -27q-45 -47 -90.5 -74t-71.5 -27q-48 0 -25 103l52 224q14 56 -8 56q-27 0 -83 -55t-92 -115q-21 -87 -39 -193q-32 -3 -101 -20l-7 8q65 290 123 605q-88 8 -175 8h-49l-97 -480q-13 -62 -1 -77t79 -21l-7 -31h-299l7 31q60 5 76 20t30 78l105 480h-58
q-59 0 -84.5 -6.5t-40.5 -23.5q-29 -32 -55 -91h-35q29 91 50 186h25q7 -16 16 -20.5t30 -4.5h411q49 0 64.5 3.5t18.5 15.5l3 14q87 29 96 29q10 0 11.5 -7.5t-3.5 -27.5l-83 -400h2q74 97 164 150q43 26 76 26q62 0 34 -122l-48 -215q-9 -37 2 -39q19 0 63 40z" />
    <glyph glyph-name="Tcaron_h" unicode="&#x164;h" horiz-adv-x="1057" 
d="M1015 116l14 -27q-45 -47 -90.5 -74t-71.5 -27q-48 0 -25 103l52 224q14 56 -8 56q-27 0 -83 -55t-92 -115q-21 -87 -39 -193q-32 -3 -101 -20l-7 8q65 290 123 605q-88 8 -175 8h-49l-97 -480q-13 -62 -1 -77t79 -21l-7 -31h-299l7 31q60 5 76 20t30 78l105 480h-58
q-59 0 -84.5 -6.5t-40.5 -23.5q-29 -32 -55 -91h-35q29 91 50 186h25q7 -16 16 -20.5t30 -4.5h411q49 0 64.5 3.5t18.5 15.5l3 14q87 29 96 29q10 0 11.5 -7.5t-3.5 -27.5l-83 -400h2q74 97 164 150q43 26 76 26q62 0 34 -122l-48 -215q-9 -37 2 -39q19 0 63 40zM562 821
l17 -25q-78 -54 -144 -112h-30q-46 56 -108 112l20 25q62 -24 114 -56q68 34 131 56z" />
    <glyph glyph-name="Tcommaaccent_h" unicode="&#x162;h" horiz-adv-x="1057" 
d="M1015 116l14 -27q-45 -47 -90 -74t-72 -27q-49 0 -25 103l52 224q14 56 -8 56q-27 0 -83.5 -55.5t-92.5 -114.5q-12 -49 -39 -192q-45 -5 -101 -21l-7 8q65 290 123 605q-88 8 -175 8h-49l-97 -480q-13 -62 -1 -77t79 -21l-7 -31h-299l7 31q60 5 76.5 20t30.5 78l104 480
h-58q-59 0 -84.5 -6.5t-40.5 -23.5q-29 -32 -55 -91h-35q34 106 50 186h25q7 -16 16 -20.5t30 -4.5h411q49 0 64.5 3.5t19.5 15.5l3 14q87 29 96 29q10 0 11.5 -7.5t-3.5 -27.5l-83 -400h2q74 97 164 150q43 26 76 26q62 0 34 -122l-48 -215q-8 -38 3 -39q18 0 62 40z
M304 -31q27 0 47 -20.5t21 -53.5q0 -48 -38.5 -80.5t-95.5 -45.5l-10 30q37 16 55.5 30t18.5 35q0 29 -39 40q-12 3 -12 22q0 18 14.5 30.5t38.5 12.5z" />
    <glyph glyph-name="f_b" unicode="fb" horiz-adv-x="781" 
d="M350 435l-20 -37l-98 -9q-39 -221 -53 -285q-26 -121 -58 -185.5t-83 -110.5q-60 -56 -111 -56q-23 0 -43 13.5t-19 31.5q0 27 32 53q12 9 20 1q35 -31 69 -31q23 0 35 21q23 40 53 224l52 325h-81l-4 10l32 35h62q28 130 99 196q32 31 76.5 53t80.5 22q50 0 80 -25
q58 25 81 25q15 0 7 -34q-2 -8 -78 -352h2q54 64 109 98t94 34q37 0 58 -32t21 -86q0 -82 -41 -162.5t-108 -126.5q-85 -57 -164 -57q-63 0 -94 46q-25 38 -6 131l92 446q-37 49 -87 49q-40 0 -67 -46t-49 -179h109zM621 381q-56 0 -150 -129q-9 -27 -18 -83
q-23 -131 53 -131q26 0 46 15q37 25 69 102t32 160q0 31 -9 48.5t-23 17.5z" />
    <glyph glyph-name="f_f_b" unicode="ffb" horiz-adv-x="1050" 
d="M619 435l-21 -37l-96 -8q-26 -163 -42 -247q-25 -126 -61.5 -196.5t-96.5 -117.5q-68 -54 -135 -54q-69 0 -112 49q-26 -27 -62.5 -49.5t-66.5 -22.5q-22 0 -41 11.5t-19 28.5q2 26 25 47q18 18 29 10q40 -27 64 -27t37 22q26 41 55 226l24.5 162t24.5 158h-83l-4 10
l31 35h65q25 108 92 170q34 33 83.5 56.5t95.5 23.5q72 0 105 -46q33 30 74.5 48.5t76.5 18.5q50 0 79 -25q58 25 82 25q14 0 6 -34l-78 -354h2q58 66 111.5 100t91.5 34q37 0 58 -31.5t21 -85.5q0 -82 -41.5 -163.5t-108.5 -127.5q-83 -56 -162 -56q-64 0 -95 46
q-25 38 -6 131l92 443q-36 55 -87 55q-20 -1 -34.5 -10t-29.5 -33t-28 -69.5t-24 -115.5h109zM890 379q-24 0 -62.5 -30.5t-86.5 -98.5q-8 -20 -18 -82q-23 -131 51 -131q24 0 46 15q37 25 69.5 102t32.5 161q0 64 -32 64zM240 435h164q19 94 57 148q-33 56 -100 56
q-45 0 -73.5 -44t-47.5 -160zM395 390h-164q-28 -172 -49 -280q-32 -152 -82 -230q18 -21 47.5 -36t59.5 -15q63 0 88 60q29 56 54 200z" />
    <glyph glyph-name="f_f_h" unicode="ffh" horiz-adv-x="1081" 
d="M1041 117l13 -28q-44 -47 -89.5 -74t-72.5 -27q-48 0 -25 103l52 224q14 56 -7 56q-28 0 -83 -54.5t-93 -116.5q-22 -89 -39 -192q-36 -3 -101 -20l-7 8q51 232 125 614q-40 54 -88 54q-41 -2 -68 -49t-48 -180h109l-20 -36l-96 -8q-1 -3 -17 -97.5t-27 -151.5
q-25 -125 -61 -195.5t-94 -117.5q-66 -54 -136 -54t-114 50q-25 -26 -62 -49.5t-68 -23.5q-22 0 -41 11.5t-19 28.5q1 11 9 26t17 22q16 18 29 9q41 -27 65 -27q23 0 37 22q24 38 54 229q32 213 51 318h-84l-4 10l31 34h65q24 105 92 170q34 34 83 57t98 23q70 0 106 -42
q31 28 72 45.5t76 17.5q50 0 82 -25q58 25 79 25q14 0 8 -32l-84 -400h2q81 104 166 152q43 26 75 26q62 0 34 -122l-48 -215q-6 -31 1 -40q7 0 27 13t38 29zM240 435h163q19 93 61 152q-39 53 -99 53q-48 0 -77 -44t-48 -161zM395 391h-164q-35 -204 -51 -281
q-30 -150 -80 -230q18 -21 49 -36t62 -15q60 0 85 60q29 60 52 200z" />
    <glyph glyph-name="f_f_j" unicode="ffj" horiz-adv-x="797" 
d="M70 435h64q25 104 91 167q34 33 83.5 56.5t97.5 23.5q68 0 105 -41q70 65 155 65q58 0 85.5 -25t27.5 -50q0 -37 -48 -53q-38 -15 -44 11q-18 76 -59 76q-81 0 -117 -230h79q84 0 160 16q29 -4 14 -74l-58 -299q-35 -168 -133 -246q-72 -57 -113 -57q-18 0 -32 9.5
t-14 25.5q0 29 32 56q11 8 21 2q31 -24 56 -24q16 0 27.5 17.5t23.5 65.5q13 57 77 399q8 43 0.5 54t-47.5 11h-101q-24 -145 -45 -254q-25 -125 -59.5 -192.5t-93.5 -114.5q-70 -55 -136 -55q-68 0 -115 50q-24 -27 -60.5 -50t-67.5 -23q-23 0 -41 11t-18 28q2 29 25 48
q17 17 29 10q39 -28 65 -28q21 0 34 22q23 36 55 232l51 316h-83l-3 9zM240 435h164q17 90 58 148q-36 54 -98 54q-47 0 -75.5 -44t-48.5 -158zM396 391h-165q-31 -190 -49 -281q-31 -159 -83 -230q19 -21 50 -36t62 -15q60 0 84 57q26 46 51 193q34 201 50 312z" />
    <glyph glyph-name="f_f_k" unicode="ffk" horiz-adv-x="1035" 
d="M736 248h2q39 49 81 89q53 54 93.5 84.5t74.5 30.5q21 0 34.5 -10.5t13.5 -25.5q0 -26 -23 -49q-10 -10 -18 -7q-20 10 -46 10q-27 0 -56.5 -18.5t-50.5 -43.5q20 -71 58 -151q23 -51 34.5 -70.5t22.5 -19.5q20 0 54 40l19 -24q-65 -95 -126 -95q-42 0 -72 70
q-30 65 -67 175q-31 -34 -41 -50q-20 -99 -32 -175q-49 -6 -99 -20l-7 6q60 273 128 615q-33 54 -86 54q-27 -1 -45.5 -16.5t-37.5 -67t-34 -144.5h109l-21 -37l-96 -8q-22 -137 -44 -247q-24 -126 -60 -196t-95 -117q-69 -55 -137 -55q-69 0 -112 49q-24 -26 -61.5 -49
t-68.5 -23q-22 0 -41 11.5t-19 27.5q2 25 27 48q17 17 28 9q42 -28 65 -28q24 0 37 22q24 38 54 231q32 209 50 317h-83l-4 10l31 35h64q26 106 93 170q34 34 84 57t98 23q67 0 105 -42q30 27 72 45t76 18q51 0 81 -25q58 25 80 25q14 0 8 -28zM240 435h163q20 96 60 153
q-36 52 -97 52q-49 0 -77.5 -44t-48.5 -161zM395 390h-164q-33 -194 -51 -280q-30 -153 -80 -230q18 -21 48 -36t60 -15q63 0 87 57q29 58 53 201z" />
    <glyph glyph-name="f_f_t" unicode="fft" horiz-adv-x="852" 
d="M892 435l-28 -41l-97 -4l-53 -259q-11 -59 6 -59q11 0 38.5 17.5t46.5 36.5l15 -25q-31 -40 -84.5 -76.5t-91.5 -36.5q-60 0 -31 139l55 263h-165q-33 -189 -46 -255q-24 -122 -59.5 -190t-93.5 -115q-67 -55 -136 -55t-113 49q-26 -27 -62.5 -49.5t-66.5 -22.5
q-22 0 -41 11.5t-19 28.5q2 28 25 49q17 17 29 9q37 -28 64 -28q24 0 38 22q26 47 54 229l49 317h-83l-4 10l31 35h65q25 102 92 167q34 33 83.5 56.5t96.5 23.5q70 0 103 -43q70 67 146 67q32 0 52.5 -16t19.5 -35q-1 -16 -11.5 -31t-22.5 -22q-13 -9 -25 3q-45 50 -71 50
q-52 0 -86 -220h167l18 76l101 69l11 -10l-31 -135h115zM240 435h163q21 97 57 148q-35 54 -95 54q-49 0 -77 -44t-48 -158zM395 390h-164q-31 -192 -48 -280q-30 -149 -82 -230q17 -21 47 -36t62 -15q59 0 84 59q29 52 54 198z" />
    <glyph glyph-name="f_h" unicode="fh" horiz-adv-x="810" 
d="M770 117l15 -28q-45 -47 -90.5 -74t-72.5 -27q-48 0 -25 103l51 223q14 57 -7 57q-27 0 -82 -55t-94 -117q-16 -66 -39 -191q-33 -3 -101 -20l-6 8q48 217 125 616q-34 49 -89 49q-41 -1 -67 -46.5t-48 -179.5h108l-20 -37l-96 -9q-32 -188 -54 -288
q-27 -119 -59.5 -183.5t-83.5 -109.5q-59 -56 -111 -56q-23 0 -43 13.5t-19 31.5q0 27 33 54q10 9 20 1q37 -33 69 -33q23 0 35 21q23 32 54 225l51 325h-80l-4 10l32 35h61q15 65 37 112.5t62 84.5q33 31 78.5 53t81.5 22q50 0 80 -25q58 25 81 25q12 0 6 -32l-83 -400h2
q79 101 165 152q44 25 75 25q63 0 35 -122l-47 -215q-8 -32 1 -39q7 0 26.5 12.5t36.5 28.5z" />
    <glyph glyph-name="f_j" unicode="fj" horiz-adv-x="526" 
d="M73 435h59q26 130 109 205q77 66 158 66q57 0 83 -23.5t26 -47.5q0 -17 -11.5 -32.5t-33.5 -21.5q-41 -15 -47 12q-14 73 -58 73q-79 0 -118 -231h76q92 0 161 16q16 -1 19.5 -20.5t-4.5 -59.5l-58 -292q-35 -169 -134 -246q-71 -57 -110 -57q-17 0 -33 10.5t-16 26.5
q0 13 10.5 29t23.5 26q10 8 20 2q33 -24 58 -24q16 0 27 17t22 65q14 62 78 398q8 44 0.5 54t-46.5 10h-103q-41 -218 -55 -281q-29 -125 -61 -188.5t-84 -110.5q-61 -58 -113 -58q-25 0 -44.5 13t-18.5 31q0 28 33 53q11 8 20 1q35 -31 68 -31q24 0 37 23q23 27 57 230
l53 318h-77l-4 10z" />
    <glyph glyph-name="f_k" unicode="fk" horiz-adv-x="765" 
d="M467 249l2 -1q38 49 81 90l59 56t53 38.5t56 19.5q21 0 34.5 -10.5t13.5 -25.5q0 -24 -23 -49q-10 -10 -18 -7q-20 10 -46 10q-27 0 -56.5 -19t-50.5 -44q20 -68 58 -150q23 -50 34.5 -69.5t22.5 -19.5q19 0 55 40l18 -25q-65 -95 -126 -95q-42 0 -72 70q-40 91 -67 175
q-29 -30 -40 -50q-15 -72 -33 -175q-48 -6 -98 -20l-8 6q76 344 129 614q-34 53 -86 53q-27 0 -46 -16t-38 -67t-34 -143h109l-21 -36l-96 -9q-40 -222 -54 -286q-26 -121 -58.5 -185.5t-84.5 -110.5q-60 -56 -111 -56q-24 0 -43.5 13.5t-19.5 31.5q0 30 33 54q11 8 20 1
q35 -31 68 -31q24 0 36 21q23 36 54 223l27 165l26 159h-81l-4 10l32 36h62q27 128 99 196q34 32 78 53.5t83 21.5q48 0 78 -25q58 25 79 25q16 0 8 -29z" />
    <glyph glyph-name="f_t" unicode="ft" horiz-adv-x="585" 
d="M624 435l-28 -40l-97 -5l-52 -259q-12 -59 5 -59q11 0 37.5 17.5t46.5 36.5l15 -25q-30 -39 -83.5 -76t-91.5 -37q-59 0 -30 139l54 263h-167q-34 -194 -53 -280q-27 -124 -60 -190t-84 -112q-60 -56 -112 -56q-25 0 -44.5 13t-18.5 31q0 29 33 54q11 8 20 1
q35 -31 68 -31q22 0 38 23q23 33 55 229l51 318h-78l-4 10l32 35h59q25 126 98 195q81 76 153 76q32 0 52 -16.5t19 -35.5q-1 -16 -11.5 -31t-22.5 -22q-13 -9 -24 2q-45 50 -71 50q-51 2 -87 -218h169l18 77l101 69l11 -10l-31 -136h115z" />
    <glyph glyph-name="longs_b" unicode="&#x17f;b" horiz-adv-x="752" 
d="M453 318h2q57 66 110 100t92 34q37 0 58 -31.5t21 -85.5q0 -82 -41.5 -163.5t-108.5 -126.5q-82 -57 -161 -57q-63 0 -94 46q-24 37 -8 126l93 450q-13 22 -35.5 35.5t-44.5 13.5q-19 0 -33 -9t-30 -38t-31 -89.5t-30 -155.5q-32 -193 -50 -277q-24 -114 -57 -176
t-86 -107q-61 -55 -111 -55q-24 0 -44 14t-20 32q0 28 33 54q12 9 21 2q36 -34 69 -34q24 0 36 21q22 29 53 224q40 255 45 283q19 103 46.5 166.5t71.5 110.5q31 34 74 57.5t78 23.5q45 0 76 -23q65 23 76 23q16 0 9 -30zM592 380q-57 0 -148 -128q-10 -31 -19 -84
q-23 -131 52 -131q22 0 45 15q37 25 69 101.5t32 159.5q0 67 -31 67z" />
    <glyph glyph-name="longs_h" unicode="&#x17f;h" horiz-adv-x="782" 
d="M743 116l14 -27q-45 -47 -90.5 -74t-72.5 -27q-48 0 -25 103l52 224q12 56 -7 56q-28 0 -82 -53.5t-92 -115.5q-24 -98 -40 -194q-36 -3 -101 -20l-7 8q71 318 126 614q-31 50 -80 50q-19 0 -33.5 -9.5t-30.5 -38.5t-31.5 -90t-30.5 -155q-29 -179 -49 -277
q-24 -113 -57 -174t-85 -108q-63 -56 -114 -56q-24 0 -44 14t-19 32q0 29 33 54q13 9 21 1q37 -33 70 -33q21 0 36 20q21 30 52 225q9 52 23 145.5t22 135.5q19 102 46.5 166.5t71.5 111.5q29 33 75 57.5t82 24.5q42 0 73 -23q63 23 77 23q12 0 8 -28l-84 -402h2
q79 102 164 150q43 26 75 26q62 0 34 -122l-47 -215q-8 -37 2 -40q6 0 26 12.5t37 28.5z" />
    <glyph glyph-name="longs_i" unicode="&#x17f;i" horiz-adv-x="524" 
d="M370 706q54 0 77 -23t23 -48q0 -38 -45 -54q-39 -14 -46 14q-6 32 -20 49t-35 16q-22 0 -39 -17.5t-37 -82.5t-38 -182q-31 -202 -50 -286q-26 -115 -58.5 -176.5t-84.5 -107.5q-62 -56 -113 -56q-24 0 -44 14.5t-19 32.5q0 25 33 50q11 9 21 2q35 -31 70 -31q23 0 36 21
q24 35 53 222q39 247 44 275q35 196 118 287q73 81 154 81zM483 118l15 -24q-40 -45 -89.5 -75.5t-75.5 -30.5q-50 0 -24 104l56 236q6 28 -1 34q-14 0 -63 -38l-14 26q49 45 97.5 73.5t73.5 28.5q18 0 23 -24t-6 -68l-61 -248q-9 -36 2 -36q18 0 67 42z" />
    <glyph glyph-name="longs_k" unicode="&#x17f;k" horiz-adv-x="740" 
d="M439 249l2 -1q37 46 82 89q38 38 58 56.5t52.5 38.5t57.5 20q21 0 34.5 -10.5t13.5 -25.5q0 -24 -23 -49q-10 -10 -18 -7q-20 10 -45 10q-27 0 -57.5 -18.5t-50.5 -42.5q21 -73 58 -152q23 -51 35 -71t22 -20q17 0 54 40l19 -23q-65 -95 -126 -95q-42 0 -72 69
q-33 73 -67 177q-26 -29 -41 -52q-9 -44 -32 -174q-49 -6 -99 -20l-7 6l131 618q-32 48 -82 48q-26 1 -44.5 -18t-40 -87t-41.5 -193q-22 -141 -50 -273q-25 -112 -56.5 -173.5t-84.5 -107.5q-62 -56 -114 -56q-24 0 -43.5 14t-19.5 32q0 28 33 54q13 9 21 1q37 -33 69 -33
q24 0 36 21q22 28 53 224q38 241 44 275q20 106 47.5 172t72.5 112q33 36 75.5 59t76.5 23q44 0 77 -23q65 23 77 23q14 0 8 -27z" />
    <glyph glyph-name="longs_l" unicode="&#x17f;l" horiz-adv-x="521" 
d="M489 119l16 -26q-42 -47 -90.5 -76t-76.5 -29q-48 0 -21 127l100 493q-27 52 -78 52q-25 0 -43 -17t-39 -81t-39 -182q-26 -171 -52 -289q-25 -113 -58 -174.5t-85 -107.5q-63 -57 -113 -57q-24 0 -43.5 14t-19.5 32q0 28 34 54q13 9 21 1q38 -34 70 -34q22 0 35 21
q23 31 52 224q37 237 44 275q19 109 46.5 174t73.5 112q33 35 75.5 58t77.5 23q41 0 71 -24q68 24 77 24q14 0 8 -30l-116 -561q-7 -41 4 -41q22 0 69 45z" />
    <glyph glyph-name="longs_longs" unicode="&#x17f;&#x17f;" horiz-adv-x="511" 
d="M626 707q28 0 47.5 -16t18.5 -33q-2 -28 -29 -48q-19 -13 -33 1q-38 40 -68 40q-15 0 -26 -15t-26 -73t-31 -164q-25 -173 -45 -278q-22 -113 -58.5 -180t-95.5 -113q-66 -52 -133 -52t-112 46q-24 -27 -59.5 -48.5t-66.5 -21.5q-23 0 -41.5 12t-18.5 29q0 11 8.5 25.5
t16.5 21.5q17 17 27 10q41 -29 63 -29q23 0 38 20q26 37 55 235q30 203 37 242q19 109 50.5 178.5t85.5 118.5q29 26 71.5 47t80.5 21q72 0 102 -43q76 67 142 67zM190 -170q60 0 82 56q28 43 54 217l17.5 114t20.5 127q26 163 76 237q-36 56 -98 56q-46 0 -78 -61.5
t-59 -234.5q-27 -177 -42 -245q-30 -140 -80 -214q13 -19 45 -35.5t62 -16.5z" />
    <glyph glyph-name="longs_longs_i" unicode="&#x17f;&#x17f;i" horiz-adv-x="788" 
d="M630 706q53 0 78.5 -23.5t25.5 -47.5q0 -39 -45 -54q-39 -14 -46 14q-14 67 -55 67q-22 0 -38.5 -20t-35.5 -84.5t-37 -179.5q-27 -176 -43 -255q-22 -113 -59 -180.5t-96 -114.5q-67 -53 -130 -53q-69 0 -113 47q-25 -27 -59.5 -48.5t-65.5 -21.5q-23 0 -41.5 12
t-18.5 30q0 25 24 47q17 17 27 10q36 -29 63 -29q24 0 37 20q25 35 56 233q34 223 38 243q19 108 51 179t85 119q28 26 69.5 46t78.5 20q72 0 106 -44q74 68 144 68zM186 -171q61 0 84 56q33 52 60 229q27 185 34 223q28 167 77 242q-37 59 -93 59q-31 0 -53.5 -21.5
t-45.5 -90.5t-43 -193q-22 -140 -43 -241q-28 -135 -79 -210q15 -21 44.5 -37t57.5 -16zM749 119l16 -25q-41 -45 -90.5 -75.5t-75.5 -30.5q-50 0 -24 104l56 235q8 34 0 34q-15 0 -64 -38l-14 27q49 46 97 74t73 28q41 0 19 -86l-62 -254q-8 -36 2 -36q17 0 67 43z" />
    <glyph glyph-name="longs_longs_l" unicode="&#x17f;&#x17f;l" horiz-adv-x="785" 
d="M749 119l16 -26q-42 -47 -90.5 -76t-75.5 -29q-49 0 -22 127l100 492q-30 55 -82 55q-25 -1 -43 -18.5t-37.5 -79t-36.5 -171.5q-31 -205 -45 -274q-21 -111 -57.5 -179t-95.5 -114q-64 -51 -131 -51q-70 0 -114 48q-23 -27 -58 -49t-66 -22q-24 0 -42.5 12t-18.5 30
q0 25 24 47q19 15 28 9q37 -28 62 -28q26 0 38 20q26 35 55 234q24 162 38 246q19 110 50 179t85 118q27 25 69.5 44t79.5 19q73 0 107 -44q31 29 70.5 48.5t72.5 19.5q45 0 76 -25q53 25 79 25q14 0 8 -29l-116 -562q-9 -43 2 -43q7 0 29.5 14.5t41.5 32.5zM346 638
q-31 0 -53 -20t-45.5 -90t-43.5 -196q-25 -156 -39 -225q-33 -156 -81 -226q15 -21 44 -37t59 -16q60 0 85 60q31 50 55 213q29 200 35 233q29 170 79 246q-38 58 -95 58z" />
    <glyph glyph-name="f_f" unicode="ff" horiz-adv-x="556" 
d="M69 435h65q25 108 87 168q35 33 86 56t98 23q72 0 104 -41q78 65 140 65q29 0 48.5 -15.5t18.5 -31.5q-2 -30 -29 -49q-18 -13 -32 1q-39 39 -67 39q-16 0 -26 -12t-24 -61t-28 -142h116l-21 -36l-102 -8q-45 -255 -45 -256q-23 -122 -58 -188.5t-96 -115.5
q-32 -26 -69.5 -41t-67.5 -15q-71 0 -116 46q-24 -25 -60.5 -47t-66.5 -22q-23 0 -42 12t-18 29q0 10 9 24.5t17 22.5q17 17 29 10q38 -29 65 -29q22 0 36 22q22 36 55 231l51 317h-83l-4 10zM239 435h164q19 97 58 150q-37 53 -100 53q-50 0 -76 -43.5t-46 -159.5zM395 391
h-163q-42 -240 -50 -279q-30 -151 -83 -232q16 -20 47.5 -34.5t62.5 -14.5q63 0 86 51q28 49 54 211z" />
    <glyph glyph-name="f_f_i" unicode="ffi" horiz-adv-x="812" 
d="M774 121l15 -26q-39 -46 -89.5 -76.5t-76.5 -30.5q-51 0 -26 109l52 226q10 47 2 57.5t-49 10.5h-99l-17 -96q-16 -96 -28 -158q-24 -124 -60 -192.5t-96 -116.5q-67 -53 -134 -53q-68 0 -112 49q-25 -26 -62 -49t-68 -23q-23 0 -42 11.5t-18 28.5q0 26 25 49q18 16 29 8
q39 -28 63 -28t37 21q24 40 54 232l32 196t20 121h-84l-3 9l30 35h65q25 104 91 167q34 33 83.5 56.5t96.5 23.5q68 0 105 -41q31 29 73 47t82 18q58 0 85 -24.5t27 -49.5q0 -36 -47 -53q-38 -15 -44 11q-19 76 -61 76q-79 0 -114 -231h78q94 0 159 17q35 0 15 -79l-61 -255
q-9 -41 3 -41q8 0 29.5 13.5t39.5 30.5zM240 435h164q19 94 57 148q-38 55 -99 55q-46 0 -74 -44t-48 -159zM396 391h-165q-39 -220 -51 -281q-28 -150 -78 -230q17 -21 47.5 -36t62.5 -15q60 0 84 57q28 52 51 193z" />
    <glyph glyph-name="f_f_l" unicode="ffl" horiz-adv-x="819" 
d="M621 435l-21 -36l-97 -9q-3 -17 -17.5 -105.5t-26.5 -151.5q-24 -122 -60 -190t-96 -115q-66 -53 -131 -53q-70 0 -115 51q-25 -27 -63 -50.5t-70 -23.5q-23 0 -42 11.5t-19 28.5q0 25 25 46q15 17 28 9q40 -29 66 -29q25 0 39 23q24 37 54 233l18.5 115.5l18 112
l14.5 89.5h-83l-4 10l30 34h65q25 105 91 170q32 31 82 54t99 23q63 0 105 -42q30 27 75.5 46.5t85.5 18.5q48 0 76 -24q59 24 74 24q16 0 6 -44q-56 -252 -110 -546q-8 -41 4 -41q7 0 28 13.5t38 29.5l16 -24q-40 -47 -89 -76t-75 -29q-49 0 -26 119l103 507q-11 18 -33 33
t-51 15q-28 0 -49.5 -19.5t-35.5 -56t-22 -71t-15 -80.5h110zM239 435h167q18 93 56 147q-17 26 -44.5 41t-56.5 15q-44 0 -73 -43.5t-49 -159.5zM398 391h-166l-20.5 -119.5t-29.5 -162.5q-30 -152 -79 -226q18 -22 50 -37.5t63 -15.5q57 0 82 54q27 46 51 196z" />
    <glyph glyph-name="longs_t" unicode="&#x17f;t" horiz-adv-x="555" 
d="M369 706q34 0 55 -18.5t20 -38.5q-2 -34 -36 -51q-16 -9 -27 5q-34 47 -71 47q-18 0 -31 -16t-31 -78t-36 -176q-34 -213 -51 -290q-25 -114 -57.5 -175t-84.5 -108q-61 -55 -110 -55q-24 0 -44.5 13.5t-20.5 31.5q0 28 33 52q12 9 21 2q33 -31 70 -31q22 0 35 21
q24 35 53 224l42 261q35 201 119 297q28 33 69.5 58t82.5 25zM595 435l-28 -40l-97 -5l-52 -259q-12 -59 5 -59q11 0 38.5 17.5t45.5 36.5l16 -25q-31 -40 -84.5 -76.5t-91.5 -36.5q-59 0 -30 139l54 263h-70l-5 10l27 35h58l15 63l101 65l12 -9l-28 -119h114z" />
    <glyph glyph-name="f_i" unicode="fi" horiz-adv-x="546" 
d="M506 122l16 -24q-37 -48 -88 -79t-80 -31q-51 0 -26 107l54 228q10 47 2.5 57.5t-47.5 10.5h-104q-35 -199 -55 -282q-28 -123 -61 -188t-84 -111q-61 -58 -112 -58q-25 0 -44.5 13t-19.5 31q0 27 33 54q12 9 22 1q34 -30 68 -30q21 0 36 22q24 28 58 228l51 320h-77
l-4 10l31 34h59q28 134 108 204q80 67 160 67q56 0 81.5 -23t25.5 -48q0 -17 -12.5 -32.5t-32.5 -21.5q-40 -15 -46 12q-16 72 -58 72q-77 0 -118 -230h78q93 0 161 16q32 -1 14 -79l-60 -248q-10 -47 3 -48q18 0 68 46z" />
    <glyph glyph-name="f_l" unicode="fl" horiz-adv-x="548" 
d="M350 435l-21 -37l-97 -9l-15.5 -87t-19 -104.5t-20.5 -100.5q-26 -117 -58.5 -179t-85.5 -109q-61 -57 -112 -57q-25 0 -45 13.5t-19 31.5q0 13 10 28.5t23 24.5q12 8 20 1q34 -32 70 -32q22 0 37 22q25 35 58 232l50 317h-80l-4 10l32 35h60q21 119 97 192q35 33 84 56
t88 23q50 0 76 -24q57 24 73 24q15 0 6 -40q-83 -397 -110 -541q-8 -39 2 -51q8 0 30 14.5t38 30.5l16 -26q-37 -47 -86.5 -76t-78.5 -29q-48 0 -23 128l101 499q-10 17 -33.5 31.5t-50.5 14.5q-26 0 -46.5 -18t-35 -52t-24 -70.5t-17.5 -85.5h111z" />
    <glyph glyph-name=".notdef" horiz-adv-x="500" 
d="M0 0v699h500v-699h-500zM250 394l170 255h-340zM280 349l170 -254v509zM80 50h340l-170 255zM50 604v-509l170 254z" />
    <glyph glyph-name=".null" horiz-adv-x="0" 
 />
    <glyph glyph-name="nonmarkingreturn" horiz-adv-x="333" 
 />
    <glyph glyph-name="space" unicode=" " horiz-adv-x="223" 
 />
    <glyph glyph-name="exclam" unicode="!" horiz-adv-x="268" 
d="M291 625q-4 -18 -22 -76l-108 -338q-5 -7 -21 -7t-18 7q3 57 10.5 169l11.5 169q2 50 6 80q6 35 77 35h1q37 0 51.5 -10.5t11.5 -28.5zM182 65q0 -34 -22.5 -55.5t-51.5 -21.5h-1q-28 0 -45.5 19t-17.5 48q0 35 21 57.5t54 22.5q28 0 45.5 -19.5t17.5 -50.5z" />
    <glyph glyph-name="quotedbl" unicode="&#x22;" horiz-adv-x="374" 
d="M251 708l11 -9q-7 -30 -38.5 -109t-56.5 -126l-38 -16q25 165 25 231zM424 708l12 -9q-7 -28 -39 -107.5t-57 -127.5l-37 -16q25 175 25 231z" />
    <glyph glyph-name="numbersign" unicode="#" horiz-adv-x="489" 
d="M495 463l-15 -73h-91l-38 -126h80l-14 -73h-88l-51 -171h-47l51 171h-103l-51 -171h-48l51 171h-93l15 73h100l38 126h-89l15 73h95l45 149h49l-46 -149h103l45 149h47l-45 -149h85zM342 390h-103l-38 -126h103z" />
    <glyph glyph-name="dollar" unicode="$" horiz-adv-x="489" 
d="M466 448l-30 -3q-12 117 -94 134l-41 -210l20 -13q62 -36 95 -73t33 -94q0 -82 -65 -130t-153 -52l-15 -82h-39l16 82q-57 5 -97 22.5t-57 34.5q-1 7 -1.5 28.5t-1 56t-1.5 58.5l30 3q5 -34 18 -66.5t44 -63.5t73 -37l44 231l-17 11q-124 66 -124 158q0 78 59 124.5
t148 48.5l15 75h40l-15 -74q51 -5 119 -37q-2 -54 -3 -132zM265 388l38 194q-49 -1 -77.5 -30.5t-28.5 -69.5q0 -53 68 -94zM279 257l-40 -215q51 4 79 35t28 78q0 59 -67 102z" />
    <glyph glyph-name="percent" unicode="%" horiz-adv-x="788" 
d="M684 623l-510 -658l-30 28l509 656zM400 494q0 -84 -53.5 -151.5t-133.5 -67.5q-59 0 -90 40t-31 97q0 85 53 154t132 69q61 0 92 -40.5t31 -100.5zM316 526q0 76 -42 76q-44 0 -71 -73t-27 -135q0 -86 43 -86q25 0 44.5 26t30.5 63t16.5 71t5.5 58zM744 207
q0 -84 -53.5 -151.5t-133.5 -67.5q-59 0 -90 40t-31 98q0 85 53 153.5t132 68.5q61 0 92 -40.5t31 -100.5zM660 239q0 76 -42 76q-44 0 -71 -72.5t-27 -136.5q0 -85 43 -85q24 0 44 26t31 63.5t16.5 71.5t5.5 57z" />
    <glyph glyph-name="ampersand" unicode="&#x26;" horiz-adv-x="767" 
d="M723 420h33q4 -31 4 -65q0 -123 -57 -123q-19 0 -47 20q-5 4 -25 18.5t-30 20.5q-35 -122 -102 -198q-93 -105 -220 -105q-92 0 -152.5 61t-60.5 166q0 115 83 201q28 30 64.5 50.5t63.5 20.5q32 0 49 -20.5t18 -54.5q0 -10 -1 -19l1 -2q110 106 110 193q0 19 -7 42
q-5 15 10.5 31.5t35.5 16.5t32.5 -16.5t12.5 -44.5q0 -86 -121 -204q-110 -109 -250 -197q12 -62 57 -97.5t102 -35.5q85 0 147 62t96 171q-54 38 -83 38q-15 0 -24 -9.5t-9 -23.5q0 -22 11 -40q11 -20 11 -23q0 -10 -15 -19t-27 -9q-18 0 -31 16.5t-13 38.5q0 48 61 96
q48 38 82 38q44 0 144 -72q21 -15 28 -15q16 0 19 92zM233 435q-25 0 -49.5 -46.5t-24.5 -114.5q0 -16 1 -24q61 38 103 77q8 18 8 41q1 29 -10.5 48t-27.5 19z" />
    <glyph glyph-name="quotesingle" unicode="'" horiz-adv-x="201" 
d="M250 708l12 -9q-7 -29 -39 -107.5t-57 -127.5l-38 -16q9 59 17 135.5t8 95.5z" />
    <glyph glyph-name="parenleft" unicode="(" horiz-adv-x="357" 
d="M387 710l19 -26q-111 -78 -175 -222t-64 -304q0 -200 79 -306l-27 -21q-68 57 -103 151t-35 195q0 179 85.5 323.5t220.5 209.5z" />
    <glyph glyph-name="parenright" unicode=")" horiz-adv-x="342" 
d="M147 689l27 21q71 -58 106 -157t30 -209q-4 -170 -88 -310t-216 -203l-19 26q109 77 171.5 215.5t65.5 291.5q4 91 -14.5 179.5t-62.5 145.5z" />
    <glyph glyph-name="asterisk" unicode="*" horiz-adv-x="414" 
d="M452 506v-29l-136 -22l32 -142l-27 -10l-68 134l-128 -72l-16 26l107 92l-103 110l18 24l122 -85l66 132l27 -8l-31 -141z" />
    <glyph glyph-name="plus" unicode="+" horiz-adv-x="603" 
d="M556 225h-206v-225h-68v225h-207v59h207v202h68v-202h206v-59z" />
    <glyph glyph-name="comma" unicode="," horiz-adv-x="253" 
d="M6 -120l-13 32q97 39 98 99q0 45 -47 59q-12 3 -12 18q0 25 17.5 41.5t40.5 16.5q37 0 60 -31t22 -72q-1 -63 -49 -104.5t-117 -58.5z" />
    <glyph glyph-name="hyphen" unicode="-" horiz-adv-x="337" 
d="M303 260l-18 -65h-241l17 65h242z" />
    <glyph glyph-name="period" unicode="." horiz-adv-x="253" 
d="M100 -12q-26 0 -43 18t-17 46q0 32 20 53.5t51 21.5q26 0 43 -18.5t17 -46.5q0 -34 -21 -54t-50 -20z" />
    <glyph glyph-name="slash" unicode="/" horiz-adv-x="320" 
d="M371 664l-313 -709h-62l313 709h62z" />
    <glyph glyph-name="zero" unicode="0" horiz-adv-x="489" 
d="M330 635q62 0 100.5 -39t50.5 -95t7 -125q-4 -64 -22 -129.5t-50.5 -124.5t-85 -96.5t-115.5 -37.5q-64 0 -104 39t-52.5 97t-7.5 132q3 60 22 124t52 122t87 95.5t118 37.5zM321 598q-34 0 -63 -38.5t-48 -97.5t-30 -120t-15 -116q-18 -201 55 -201q33 0 61.5 40.5
t47 102.5t30 123t15.5 115q8 81 -3.5 136.5t-49.5 55.5z" />
    <glyph glyph-name="one" unicode="1" horiz-adv-x="489" 
d="M391 635l-98 -508q-13 -60 -0.5 -75t80.5 -21l-8 -31h-295l7 31q63 6 78.5 20.5t27.5 75.5l70 354q9 47 0.5 58.5t-50.5 13.5l-32 1l8 29q117 16 212 52z" />
    <glyph glyph-name="two" unicode="2" horiz-adv-x="489" 
d="M104 493l66 85q62 57 141 57q74 0 119.5 -43.5t45.5 -117.5q0 -84 -83 -168q-32 -32 -142 -123l-104 -89h165q44 0 62 10t46 51l29 -12q-20 -46 -56 -143h-390l4 24q123 104 190 167q77 76 121 138.5t44 121.5q0 48 -24.5 76t-73.5 28q-66 0 -136 -85z" />
    <glyph glyph-name="three" unicode="3" horiz-adv-x="489" 
d="M122 512l52 66q57 57 139 57q60 0 101.5 -33.5t41.5 -90.5q0 -52 -45 -87q-33 -27 -82 -51l-1 -3q53 -14 87 -50.5t34 -91.5q0 -102 -112 -178q-95 -62 -182 -62q-66 0 -104 34q-25 23 -24 45q4 27 33 45q13 9 24 -2q68 -68 133 -68q52 0 83.5 39t31.5 109q0 58 -32 90.5
t-80 32.5q-28 0 -52 -6l-6 31q183 52 183 146q0 38 -21.5 58.5t-58.5 20.5q-58 0 -120 -74z" />
    <glyph glyph-name="four" unicode="4" horiz-adv-x="489" 
d="M478 227l-10 -51h-89l-11 -60q-10 -52 0.5 -66t66.5 -19l-8 -31h-276l7 31q60 5 75.5 18.5t26.5 66.5l12 60h-253l7 35q234 279 378 418h62l-78 -402h90zM343 512h-3q-103 -112 -240 -285h182z" />
    <glyph glyph-name="five" unicode="5" horiz-adv-x="489" 
d="M482 623l-38 -93h-239l-51 -163q84 25 110 25q77 0 127.5 -44.5t50.5 -115.5q0 -116 -130 -194q-80 -50 -158 -50q-72 0 -111 37q-25 21 -22 43q1 11 11.5 25t21.5 20q12 8 24 -2q19 -19 30.5 -29t42.5 -25t62 -15q55 0 85 38t30 103q0 71 -37.5 108.5t-104.5 37.5
q-40 0 -82 -13l-7 9l83 298h302z" />
    <glyph glyph-name="six" unicode="6" horiz-adv-x="489" 
d="M509 641l7 -35q-58 -11 -111 -34q-154 -67 -216 -212l1 -2l56 26q38 16 59 16q72 0 117 -47t45 -127q0 -97 -69 -167.5t-168 -70.5q-87 0 -138 59t-51 153q0 138 86.5 250t241.5 160q50 16 140 31zM247 339q-33 0 -71 -21q-22 -55 -22 -134q0 -64 24.5 -111.5t69.5 -47.5
q50 0 78 54.5t28 122.5q0 62 -26.5 99.5t-80.5 37.5z" />
    <glyph glyph-name="seven" unicode="7" horiz-adv-x="489" 
d="M540 623l7 -12l-380 -612l-100 -11l-6 14q239 285 387 527h-212q-46 0 -64 -11.5t-43 -57.5l-31 11q23 60 48 152h394z" />
    <glyph glyph-name="eight" unicode="8" horiz-adv-x="489" 
d="M318 635q66 0 113.5 -38.5t47.5 -105.5q0 -53 -48 -92q-45 -33 -84 -57q55 -41 82.5 -77t27.5 -87q0 -80 -70 -135t-163 -55q-81 0 -136 42t-55 116q0 60 56 103q35 27 106 69q-81 64 -81 139t60 126.5t144 51.5zM301 597q-37 0 -62 -28.5t-25 -69.5q0 -25 8.5 -46
t26.5 -38.5t30 -26.5t35 -24q70 48 70 132q0 43 -22.5 72t-60.5 29zM242 26q45 0 74.5 33t29.5 85q0 45 -28.5 78t-90.5 74q-88 -58 -88 -150q0 -50 27.5 -85t75.5 -35z" />
    <glyph glyph-name="nine" unicode="9" horiz-adv-x="489" 
d="M312 635q88 0 136 -60.5t48 -156.5q0 -135 -81.5 -245.5t-214.5 -159.5q-80 -28 -152 -30l-5 32q102 21 188 92t124 176l-61 -29q-30 -15 -54 -15q-67 0 -113.5 45t-46.5 122q0 92 69 160.5t163 68.5zM299 597q-45 0 -75 -50t-30 -113q0 -60 27.5 -96.5t79.5 -36.5
q32 0 64 20q19 51 19 130q0 23 -3.5 45.5t-12 46.5t-26.5 39t-43 15z" />
    <glyph glyph-name="colon" unicode=":" horiz-adv-x="251" 
d="M141 281q-26 0 -42.5 18.5t-16.5 45.5q0 32 19.5 53.5t50.5 21.5q26 0 43 -18.5t17 -46.5q0 -33 -21 -53.5t-50 -20.5zM98 -12q-26 0 -42.5 18t-16.5 46q0 32 19.5 53.5t50.5 21.5q26 0 43 -18.5t17 -46.5q0 -34 -21 -54t-50 -20z" />
    <glyph glyph-name="semicolon" unicode=";" horiz-adv-x="253" 
d="M137 281q-26 0 -42.5 18.5t-16.5 45.5q0 32 19.5 53.5t50.5 21.5q26 0 43 -18.5t17 -46.5q0 -33 -21.5 -53.5t-49.5 -20.5zM6 -120l-13 32q45 18 71 43.5t26 54.5q0 47 -47 61q-12 3 -12 17q1 26 18.5 42.5t40.5 16.5q36 0 58.5 -30t22.5 -71q0 -63 -48 -105.5
t-117 -60.5z" />
    <glyph glyph-name="less" unicode="&#x3c;" horiz-adv-x="597" 
d="M522 0l-453 223v61l454 222v-65l-386 -187v-2l385 -187v-65z" />
    <glyph glyph-name="equal" unicode="=" horiz-adv-x="603" 
d="M557 316h-484v59h484v-59zM557 133h-484v59h484v-59z" />
    <glyph glyph-name="greater" unicode="&#x3e;" horiz-adv-x="597" 
d="M556 223l-453 -223v65l385 187v2l-385 187v65l453 -222v-61z" />
    <glyph glyph-name="question" unicode="?" horiz-adv-x="368" 
d="M210 216l-24 -20q-35 17 -64.5 50.5t-29.5 70.5q0 41 31 71t84 60q6 3 20 11l20 11.5l18.5 10.5t19 11.5l16 11t14 11.5l10 11t7.5 11.5t2 10.5q0 15 -11.5 25.5t-32.5 10.5q-32 0 -60.5 -13t-46.5 -26.5t-24 -13.5q-14 0 -28 18.5t-14 39.5q0 19 28 40q49 35 97 35h1
q57 0 101 -47t44 -107q0 -76 -72 -120q-9 -6 -25 -15.5l-23.5 -14l-20 -12.5t-19 -12.5t-15 -11t-12.5 -11.5l-8.5 -11t-6 -12t-1.5 -12q0 -29 25 -62zM139 -12q-28 0 -45.5 19t-17.5 48q0 35 21 57.5t53 22.5q28 0 46 -19.5t18 -49.5q0 -35 -22.5 -56.5t-52.5 -21.5z" />
    <glyph glyph-name="at" unicode="@" horiz-adv-x="749" 
d="M542 -23l11 -31q-90 -50 -196 -50q-128 0 -216 80t-88 220q0 87 34 160t89.5 120.5t125 74t142.5 26.5q131 0 205 -74.5t74 -182.5q-1 -106 -72 -178.5t-178 -72.5q-37 0 -46 17.5t-1 53.5l10 45l-2 1q-29 -40 -78.5 -78.5t-82.5 -38.5q-22 0 -37 24.5t-14 63.5
q0 48 21 98.5t62 88.5q32 30 77.5 50.5t92.5 21.5q11 0 53 -9q20 -4 35 -4q-26 -91 -54 -223q-7 -36 -4.5 -51t16.5 -14q55 1 103 54t48 149q0 101 -66.5 158.5t-168.5 57.5q-137 0 -223.5 -91.5t-86.5 -233.5q0 -49 14 -94t43.5 -84t82.5 -62.5t124 -23.5q85 0 151 32z
M428 375q-31 0 -59 -30q-22 -24 -39.5 -70.5t-17.5 -94.5q0 -43 20 -43q15 0 47.5 30t67.5 86q18 48 33 111q-18 11 -52 11z" />
    <glyph glyph-name="A" unicode="A" horiz-adv-x="669" 
d="M627 31l-8 -31h-259l9 31q46 5 56.5 17.5t5.5 48.5q-5 29 -19 125h-198l-60 -122q-19 -37 -9.5 -49.5t65.5 -19.5l-8 -31h-221l8 31q47 8 66.5 24.5t58.5 83.5l293 513l44 11l22 -137q11 -71 34 -204t32 -191q10 -62 23.5 -78t64.5 -22zM405 270l-35 236h-3l-57 -103.5
l-71 -132.5h166z" />
    <glyph glyph-name="B" unicode="B" horiz-adv-x="606" 
d="M127 649h251q203 0 203 -138q0 -123 -168 -155v-2q67 -13 109 -51.5t42 -102.5q0 -108 -114 -164q-75 -36 -217 -36h-229l7 31q55 4 71 19.5t28 75.5l77 399q12 58 0.5 73t-69.5 20zM267 369h35q78 0 119 37.5t41 101.5q0 53 -29 78t-73 25q-28 0 -41 -10q-11 -8 -18 -46
zM259 330l-39 -202q-10 -53 7 -71.5t57 -18.5q63 0 108.5 45t45.5 121q0 66 -41 96t-104 30h-34z" />
    <glyph glyph-name="C" unicode="C" horiz-adv-x="645" 
d="M589 185l30 -15q-33 -87 -80 -160q-100 -25 -175 -25q-134 0 -217 75t-83 211q0 177 123 285t303 108q79 0 173 -29q-3 -83 -9 -163l-33 -4q-10 87 -47 121.5t-105 34.5q-115 0 -195 -103t-80 -247q0 -113 48.5 -181t131.5 -68q60 0 109.5 39t105.5 121z" />
    <glyph glyph-name="D" unicode="D" horiz-adv-x="724" 
d="M125 649h254q161 0 248 -68t87 -207q0 -95 -42.5 -174t-122.5 -128q-118 -72 -314 -72h-231l8 31q55 5 71 21t27 72l76 398q11 59 0 74.5t-69 21.5zM303 549l-77 -412q-13 -66 10 -82q19 -14 59 -14q130 0 210.5 99t80.5 243q0 102 -53.5 165t-153.5 63q-42 0 -56 -11
q-12 -10 -20 -51z" />
    <glyph glyph-name="E" unicode="E" horiz-adv-x="566" 
d="M125 649h449q-1 -6 -7.5 -65t-10.5 -91l-33 -2q-3 70 -18 91q-9 16 -27 22t-63 6h-60q-27 0 -34.5 -6.5t-12.5 -35.5l-41 -206h77q44 0 63 5.5t28 18t25 49.5h34l-40 -200h-34q2 58 -9.5 70t-74.5 12h-78l-32 -172q-13 -70 2 -88q17 -18 91 -18q86 0 122 33q36 34 71 97
l32 -12q-34 -94 -62 -157h-481l7 31q59 5 74 19t27 74l77 401q11 58 0 73t-70 20z" />
    <glyph glyph-name="F" unicode="F" horiz-adv-x="539" 
d="M126 649h453q-1 -5 -7.5 -64.5t-10.5 -90.5l-33 -3q-5 70 -17 90q-9 16 -28 22.5t-68 6.5h-63q-25 0 -33 -7.5t-13 -33.5l-41 -219h92q62 0 79 11t39 62h32l-39 -200h-33q0 57 -13 69.5t-76 12.5h-91l-33 -179q-11 -60 2 -75t80 -20l-8 -31h-289l8 31q53 5 68.5 20.5
t26.5 74.5l76 396q11 61 1 76t-68 20z" />
    <glyph glyph-name="G" unicode="G" horiz-adv-x="692" 
d="M663 473l-33 -3q-10 154 -156 154q-117 0 -198 -102t-81 -247q0 -114 51.5 -182t141.5 -68q37 0 59 14t30 53l17 89q10 55 -3.5 67.5t-87.5 20.5l8 31h277l-8 -31q-41 -6 -52 -19.5t-21 -68.5l-15 -81q-9 -46 -6 -76q-144 -39 -214 -39q-141 0 -224.5 75.5t-83.5 211.5
q0 174 122 283t311 109q91 0 178 -28q-7 -73 -12 -163z" />
    <glyph glyph-name="H" unicode="H" horiz-adv-x="755" 
d="M804 649l-7 -31q-56 -5 -71 -19.5t-26 -74.5l-77 -398q-11 -60 0 -75t71 -20l-7 -31h-285l7 31q59 5 74.5 20t26.5 75l37 194h-288l-36 -194q-11 -60 0.5 -75t70.5 -20l-8 -31h-279l7 31q55 5 69.5 20t26.5 75l77 398q12 59 0 74t-74 20l8 31h279l-8 -31
q-53 -5 -67.5 -20t-25.5 -74l-30 -156h287l30 156q12 59 1 74t-69 20l8 31h278z" />
    <glyph glyph-name="I" unicode="I" horiz-adv-x="355" 
d="M403 649l-7 -31q-56 -5 -70.5 -19.5t-25.5 -72.5l-77 -402q-12 -59 -0.5 -73.5t71.5 -19.5l-7 -31h-281l7 31q55 4 70 19t27 74l78 402q11 58 -0.5 72.5t-72.5 19.5l8 31h280z" />
    <glyph glyph-name="J" unicode="J" horiz-adv-x="344" 
d="M401 649l-7 -31q-54 -7 -67.5 -20.5t-24.5 -73.5l-72 -390q-17 -94 -49 -151t-91 -91q-55 -34 -108 -37l-7 34q82 21 111 113q16 50 35 146l70 376q11 59 -0.5 73.5t-71.5 20.5l7 31h275z" />
    <glyph glyph-name="K" unicode="K" horiz-adv-x="668" 
d="M737 649l-7 -30q-50 -6 -77 -17.5t-73 -49.5q-77 -62 -202 -173q78 -144 162 -274q28 -43 47 -56t60 -18l-8 -31h-173q-71 117 -164 289q-22 38 -47 28l-35 -189q-11 -61 -0.5 -76.5t68.5 -20.5l-7 -31h-271l8 31q52 5 66.5 20.5t25.5 76.5l76 394q12 60 1 75.5t-69 20.5
l7 31h271l-7 -31q-54 -5 -68 -19.5t-26 -76.5l-34 -171q43 13 76 42q111 92 188 175q14 16 18 25t-3 14t-26 8l-24 3l8 31h239z" />
    <glyph glyph-name="L" unicode="L" horiz-adv-x="541" 
d="M493 175l33 -12q-55 -144 -64 -163h-461l7 31q59 4 74.5 19t26.5 74l79 405q11 56 0 70t-71 19l7 31h281l-7 -31q-58 -5 -72.5 -19t-25.5 -70l-77 -400q-9 -55 6 -72q16 -17 82 -17q78 0 110 31q39 39 72 104z" />
    <glyph glyph-name="M" unicode="M" horiz-adv-x="882" 
d="M909 649l-8 -31q-60 -6 -73.5 -18.5t-21.5 -69.5q-22 -144 -52 -392q-9 -70 1.5 -86t69.5 -21l-7 -31h-273l8 31q51 5 64.5 21t24.5 86l63 402h-4l-310 -534h-28q0 2 -93 528h-3l-70 -253q-37 -130 -45 -185q-5 -34 9 -47.5t64 -17.5l-7 -31h-229l8 31q41 4 60.5 17.5
t32.5 47.5q27 71 63 191l66 218q21 69 10 88t-78 25l10 31h188l96 -455l280 455h184z" />
    <glyph glyph-name="N" unicode="N" horiz-adv-x="704" 
d="M770 649l-7 -31q-43 -2 -60 -15.5t-27 -46.5q-19 -63 -40 -172l-75 -393h-44l-289 516h-2l-48 -246q-20 -104 -24 -165q-1 -35 16.5 -48t70.5 -17l-8 -31h-237l8 31q39 2 58 15.5t29 46.5q21 68 41 169l46 218q17 74 -2 107q-15 27 -81 31l7 31h169l276 -478h3l40 211
q21 116 25 171q2 36 -16 49t-72 16l8 31h235z" />
    <glyph glyph-name="O" unicode="O" horiz-adv-x="718" 
d="M433 664q123 0 198 -79.5t75 -207.5q0 -165 -104.5 -278.5t-264.5 -113.5q-122 0 -197.5 77t-75.5 205q0 162 105.5 279.5t263.5 117.5zM427 624q-65 0 -119.5 -55.5t-85 -141.5t-30.5 -179q0 -101 37.5 -162.5t113.5 -61.5q69 0 124.5 58.5t83 143.5t27.5 172
q0 103 -36.5 164.5t-114.5 61.5z" />
    <glyph glyph-name="P" unicode="P" horiz-adv-x="580" 
d="M128 649h242q226 0 226 -171q0 -96 -70 -154t-173 -66q-23 0 -33 1l-70 19l-30 -151q-12 -61 1 -75.5t80 -20.5l-6 -31h-290l7 31q55 5 70 19.5t28 76.5l77 393q12 62 1.5 77t-67.5 21zM302 553l-44 -239q26 -12 63 -12q63 0 109 52.5t46 132.5q0 60 -30 92.5t-82 32.5
q-22 0 -40 -8q-14 -8 -22 -51z" />
    <glyph glyph-name="Q" unicode="Q" horiz-adv-x="718" 
d="M677 -135l-7 -24q-75 -8 -136 10q-86 28 -220 128l-12 9q-108 10 -173 86t-65 194q0 161 106 278.5t265 117.5q122 0 196.5 -79.5t74.5 -208.5q0 -131 -71.5 -234t-191.5 -139l12 -8q119 -85 222 -130zM304 29l78 20q8 -6 26 -18q71 27 120.5 137.5t49.5 227.5
q0 104 -37 166.5t-115 62.5q-65 0 -120 -56.5t-84.5 -141.5t-29.5 -175q0 -86 29.5 -147t82.5 -76z" />
    <glyph glyph-name="R" unicode="R" horiz-adv-x="621" 
d="M607 21l-9 -29h-14q-85 1 -121 22.5t-63 74.5q-28 55 -62 147q-10 27 -22 37t-35 10h-31l-29 -155q-11 -61 0 -76.5t68 -20.5l-7 -31h-276l7 31q55 5 70.5 20.5t27.5 76.5l76 398q11 61 1 74t-68 18l8 31h239q103 0 152 -31q64 -42 64 -125q0 -69 -44 -116.5t-111 -69.5
q28 -76 56 -134q42 -82 62 -109q24 -32 61 -43zM257 320h33q62 0 101 24q34 22 53 60t19 83q0 61 -28 93t-74 32q-30 0 -41 -11q-9 -7 -17 -42z" />
    <glyph glyph-name="S" unicode="S" horiz-adv-x="482" 
d="M37 202l31 3q5 -29 15.5 -58t28.5 -58.5t48.5 -47.5t67.5 -18q52 0 82.5 33t30.5 84q0 66 -84 133l-30 22q-53 42 -84.5 84.5t-31.5 98.5q0 84 59.5 135t152.5 51q58 0 107 -18q10 -3 24.5 -9t17.5 -7q-3 -30 -5 -149l-32 -3q-20 149 -121 149q-47 0 -74.5 -32.5
t-27.5 -75.5q0 -37 21 -65t64 -59l31 -22q60 -44 91 -87.5t31 -103.5q0 -89 -67.5 -143t-166.5 -54q-56 0 -105.5 19t-72.5 42q0 118 -1 156z" />
    <glyph glyph-name="T" unicode="T" horiz-adv-x="615" 
d="M643 674h26q-9 -42 -26 -183l-34 -3q0 70 -14 95q-10 16 -30 21.5t-67 5.5h-54l-91 -485q-11 -59 1.5 -74.5t80.5 -19.5l-7 -31h-303l7 31q62 4 78.5 20t28.5 74l93 485h-45q-55 0 -77.5 -6.5t-38.5 -24.5q-20 -24 -51 -90h-34q31 95 49 185h25q6 -16 15 -20.5t31 -4.5
h386q18 0 27 5t24 20z" />
    <glyph glyph-name="U" unicode="U" horiz-adv-x="707" 
d="M781 649l-7 -31q-44 -2 -62 -15t-28 -46q-17 -49 -39 -167l-18 -91q-34 -172 -113 -246q-71 -68 -177 -68q-103 0 -163 54q-77 72 -45 242l46 241q11 60 0 75.5t-69 20.5l8 31h275l-7 -31q-53 -5 -68 -20t-26 -76l-46 -242q-22 -119 14 -176t112 -57q85 0 137 65t77 198
l15 80q23 120 24 169q2 32 -17.5 44t-72.5 15l8 31h242z" />
    <glyph glyph-name="V" unicode="V" horiz-adv-x="678" 
d="M754 649l-8 -31q-46 -5 -66 -20.5t-58 -77.5q-104 -168 -303 -530h-40q-34 204 -97 538q-10 56 -25 70.5t-61 19.5l8 31h256l-9 -31l-22 -3q-29 -5 -36 -14t-3 -38l72 -413h1q161 282 212 391q20 43 14.5 57t-41.5 17l-23 3l8 31h221z" />
    <glyph glyph-name="W" unicode="W" horiz-adv-x="951" 
d="M1013 649l-8 -31q-48 -7 -64.5 -21t-47.5 -77q-86 -169 -253 -531h-42l-79 465h-2l-226 -465h-41l-63 534q-7 60 -19.5 75t-61.5 20l7 31h252l-7 -31l-24 -4q-28 -5 -35 -16t-3 -52l38 -377h2l223 471h39l80 -474h2q107 231 163 368q20 49 14 62.5t-48 18.5l-21 3l8 31
h217z" />
    <glyph glyph-name="X" unicode="X" horiz-adv-x="642" 
d="M683 649l-8 -31q-48 -5 -69 -15.5t-56 -47.5q-49 -51 -158 -185l108 -248q25 -57 43 -71t72 -20l-7 -31h-279l8 31l26 4q27 4 32.5 14t-3.5 35q-32 83 -80 195q-97 -123 -141 -191q-18 -26 -14.5 -36.5t33.5 -16.5l21 -4l-8 -31h-230l8 31q44 4 66.5 15.5t52.5 41.5
q75 79 193 230l-95 224q-19 46 -36 58.5t-66 17.5l8 31h254l-7 -31l-24 -5q-21 -4 -26 -11t1 -23q20 -54 72 -170q71 85 122 161q15 22 10.5 30.5t-28.5 12.5l-26 5l7 31h224z" />
    <glyph glyph-name="Y" unicode="Y" horiz-adv-x="626" 
d="M700 649l-8 -32q-48 -5 -68.5 -18t-60.5 -63q-45 -56 -152 -215q-20 -27 -26 -59l-27 -132q-13 -62 0 -78t79 -21l-8 -31h-298l8 31q59 5 76 20.5t30 78.5l26 123q7 34 -5 66l-78 219q-18 50 -32.5 62.5t-60.5 17.5l9 31h251l-8 -31l-29 -6q-23 -4 -27.5 -13t3.5 -33
q35 -108 79 -228q94 135 146 223q16 27 11 37t-35 15l-25 4l9 32h221z" />
    <glyph glyph-name="Z" unicode="Z" horiz-adv-x="600" 
d="M621 649l8 -15l-465 -589q44 -6 136 -6q135 0 175 33q36 31 77 111l33 -14q-34 -111 -61 -169h-515l-8 18l471 592h-132q-69 0 -95.5 -7.5t-42.5 -26.5q-29 -33 -53 -95l-34 4q27 104 42 189h24q9 -16 18 -20.5t31 -4.5h391z" />
    <glyph glyph-name="bracketleft" unicode="[" horiz-adv-x="357" 
d="M395 704l-8 -33q-30 -3 -42.5 -4.5t-28 -6.5t-20 -9t-11 -16t-9 -24l-7.5 -36l-116 -608q-12 -62 0 -75t88 -21l-8 -33h-183l166 866h179z" />
    <glyph glyph-name="backslash" unicode="\" horiz-adv-x="376" 
d="M331 -45h-61l-165 709h60z" />
    <glyph glyph-name="bracketright" unicode="]" horiz-adv-x="357" 
d="M340 704l-166 -866h-179l8 33q74 8 89.5 20t28.5 76l116 608q5 25 7 36.5t-1 24t-6 16.5t-18 8.5t-27 6t-43 4.5l8 33h183z" />
    <glyph glyph-name="asciicircum" unicode="^" horiz-adv-x="562" 
d="M513 213h-71l-153 338l-152 -338h-67l193 410h57z" />
    <glyph glyph-name="underscore" unicode="_" horiz-adv-x="500" 
d="M500 -125h-500v50h500v-50z" />
    <glyph glyph-name="grave" unicode="`" 
d="M325 500l-34 -10q-75 129 -98 165l4 13q9 4 43 9.5t49 4.5q4 -23 17 -86t19 -96z" />
    <glyph glyph-name="a" unicode="a" horiz-adv-x="509" 
d="M477 127l15 -26q-44 -53 -91.5 -83t-74.5 -30q-44 0 -24 99l14 68h-3q-45 -64 -109 -118q-58 -49 -102 -49q-28 0 -47 31t-19 88q0 73 31 144t83 116q39 35 95 60t109 25q24 0 63 -7q30 -6 51 -6l5 -4q-42 -171 -67 -317q-8 -41 2 -41q7 0 28.5 15.5t40.5 34.5zM173 69
q25 0 81 62.5t74 102.5q23 83 35 157q-24 13 -60 13q-32 0 -54 -16q-46 -33 -73 -109.5t-27 -150.5q0 -59 24 -59z" />
    <glyph glyph-name="b" unicode="b" horiz-adv-x="498" 
d="M97 642l4 29q40 4 79 13t62 15.5t29 6.5q15 0 7 -32q-16 -65 -83 -360h2q56 67 111 102.5t94 35.5q35 0 56.5 -32.5t21.5 -85.5q0 -82 -42 -163t-109 -127q-82 -56 -163 -56q-62 0 -93 46q-25 38 -7 127q8 41 90 428q7 34 1.5 42.5t-33.5 9.5zM220 36q22 0 45 15
q37 25 70 103.5t33 161.5q0 65 -30 65q-24 0 -67.5 -36t-84.5 -95q-9 -26 -18 -82q-13 -72 4 -102t48 -30z" />
    <glyph glyph-name="c" unicode="c" horiz-adv-x="392" 
d="M347 128l17 -27q-48 -54 -103 -83.5t-103 -29.5q-56 0 -87 38.5t-31 110.5q0 65 28 130.5t79 110.5q34 30 81.5 52t86.5 22q35 0 59.5 -16t24.5 -39q2 -33 -39 -56q-15 -11 -27 4q-36 56 -78 56q-35 0 -62 -53q-40 -77 -40 -184q0 -104 66 -104q31 0 67.5 22t60.5 46z
" />
    <glyph glyph-name="d" unicode="d" horiz-adv-x="525" 
d="M490 122l15 -26q-42 -51 -89 -79.5t-74 -28.5q-44 0 -25 95l15 72h-2q-51 -67 -122 -123q-55 -44 -97 -44q-32 0 -53 32.5t-21 91.5q0 72 31 144t84 117q36 31 91.5 55t88.5 24q30 0 57 -8l29 147q6 33 -1 41t-42 9h-22l4 30q41 4 80.5 13t63 15.5t29.5 6.5q15 0 7 -32
q-64 -278 -116 -560q-8 -38 3 -38q20 0 66 46zM179 69q31 0 84.5 57.5t80.5 108.5l31 143q-28 28 -75 28q-30 0 -52 -15q-44 -32 -71 -112t-27 -146q0 -64 29 -64z" />
    <glyph glyph-name="e" unicode="e" horiz-adv-x="412" 
d="M366 135l18 -27q-115 -120 -226 -120q-50 0 -84.5 34t-34.5 114q0 73 31 142.5t87 112.5q33 26 75.5 43.5t78.5 17.5q47 0 72.5 -24t25.5 -60q0 -111 -259 -179q-1 -11 -1 -28q0 -44 17 -72.5t55 -28.5q31 0 70.5 20t74.5 55zM270 408q-18 0 -34 -11q-24 -15 -48.5 -58.5
t-33.5 -113.5q86 25 122 56.5t36 72.5q0 26 -13 40t-29 14z" />
    <glyph glyph-name="f" unicode="f" horiz-adv-x="286" 
d="M74 435h61q29 129 89 190q38 38 81 59.5t74 21.5q32 0 50.5 -15.5t17.5 -33.5q-1 -15 -11.5 -29.5t-21.5 -21.5q-14 -10 -26 2q-40 46 -66 46q-15 1 -26 -13t-25 -64t-29 -142h115l-21 -37l-103 -9q-36 -207 -54 -287q-27 -120 -60 -184t-85 -110q-60 -56 -111 -56
q-24 0 -44.5 14t-20.5 32q0 27 33 52q12 9 20 1q14 -12 36 -21.5t37 -9.5q24 0 36 23q22 38 53 223l27.5 169t25.5 155h-81l-3 10z" />
    <glyph glyph-name="g" unicode="g" horiz-adv-x="438" 
d="M492 448l10 -21q-44 -46 -80 -54q-2 0 -20 -2q7 -25 7 -49q0 -83 -71 -144q-47 -39 -143 -61q-14 -11 -14 -23q0 -18 69 -53q77 -37 110 -69t33 -67q0 -41 -41.5 -77.5t-99.5 -56t-112 -19.5q-77 0 -131 32.5t-53 78.5q1 33 41.5 65.5t120.5 71.5q-37 23 -35 50
q0 29 71 67q-97 20 -97 121q0 47 22.5 90.5t63.5 73.5q68 50 139 50q53 0 92 -28q83 1 118 24zM210 158q38 0 68.5 48.5t30.5 124.5q0 38 -13 61t-38 23q-38 0 -67 -57q-30 -58 -30 -124q0 -35 13 -55.5t36 -20.5zM187 -202q50 0 80 19.5t30 47.5q0 34 -63 71q-40 23 -86 45
q-37 -20 -60.5 -46t-23.5 -52q0 -35 37.5 -60t85.5 -25z" />
    <glyph glyph-name="h" unicode="h" horiz-adv-x="526" 
d="M483 116l15 -27q-46 -48 -90 -74.5t-72 -26.5q-49 0 -25 107l51 218q14 60 -9 60q-27 0 -83 -53.5t-93 -114.5q-11 -44 -40 -196q-47 -6 -100 -21l-7 8q70 320 121 590q7 35 -0.5 43.5t-39.5 10.5l-24 1l7 30q41 3 79.5 12t61.5 16t28 7q16 0 8 -35l-83 -393h2
q81 102 162 148q46 26 77 26q66 0 33 -141l-44 -196q-8 -39 3 -39q7 0 26.5 12t35.5 28z" />
    <glyph glyph-name="i" unicode="i" horiz-adv-x="287" 
d="M228 648q24 0 37 -15.5t13 -38.5q0 -28 -19.5 -49t-47.5 -21q-24 0 -37.5 14.5t-13.5 39.5q0 26 18.5 48t49.5 22zM245 119l16 -24q-40 -46 -90 -76.5t-76 -30.5q-50 0 -24 105l55 235q8 34 0 34q-15 0 -63 -37l-14 25q49 46 97.5 74.5t74.5 28.5q39 0 16 -92l-61 -248
q-8 -37 3 -37q18 0 66 43z" />
    <glyph glyph-name="j" unicode="j" horiz-adv-x="280" 
d="M223 653q24 0 37.5 -15.5t13.5 -38.5q0 -29 -18.5 -49.5t-47.5 -20.5q-24 0 -38.5 15t-14.5 40t18.5 47t49.5 22zM61 320l-14 26q46 45 97 75.5t79 30.5q21 0 24 -27t-9 -85q-17 -93 -57 -288q-35 -169 -133 -245q-72 -57 -111 -57q-18 0 -32.5 10.5t-14.5 26.5
q0 27 31 54q10 8 20 2q37 -25 59 -25q16 0 26.5 16.5t21.5 62.5q20 88 81 415q10 50 0 50q-7 0 -29 -14t-39 -28z" />
    <glyph glyph-name="k" unicode="k" horiz-adv-x="481" 
d="M455 107l18 -24q-65 -95 -128 -95q-38 0 -70 70q-35 79 -66 174q-33 -37 -40 -49q-22 -106 -34 -175q-47 -5 -100 -20l-7 6q74 323 130 597q6 31 0 39.5t-36 9.5l-28 1l7 30q39 4 78 13t62.5 15.5t29.5 6.5q14 0 7 -30l-96 -427h2q35 41 81 87q37 36 59.5 56t54.5 40
t55 20q21 0 34.5 -10.5t13.5 -25.5q0 -26 -23 -49q-12 -10 -19 -7q-18 10 -46 10q-53 0 -108 -63q18 -63 59 -150q37 -90 56 -90q18 0 54 40z" />
    <glyph glyph-name="l" unicode="l" horiz-adv-x="265" 
d="M231 119l15 -26q-42 -47 -90.5 -76t-75.5 -29q-48 0 -21 127l95 466q8 38 2 47.5t-38 11.5l-28 2l5 28q39 3 78.5 12.5t63 16.5t28.5 7q15 0 8 -35l-115 -560q-10 -38 3 -38q7 0 29 14t41 32z" />
    <glyph glyph-name="m" unicode="m" horiz-adv-x="796" 
d="M750 118l15 -27q-43 -48 -89 -75.5t-71 -27.5q-50 0 -26 101l53 225q14 59 -6 59q-26 0 -85.5 -63.5t-87.5 -115.5q-24 -100 -40 -186q-45 -4 -102 -20l-7 8l71 292q9 46 8 65.5t-13 19.5q-27 0 -87 -65t-86 -115q-15 -48 -43 -185q-52 -5 -100 -20l-7 9q32 119 80 331
q8 37 -2 38q-17 0 -65 -43l-13 27q47 47 90.5 74.5t70.5 27.5q43 0 15 -119l-15 -64h2q83 112 165 160q38 23 67 23q64 0 32 -149l-7 -31h2q84 112 166 159q36 21 65 21q64 0 30 -149l-46 -197q-8 -31 3 -31q7 0 26.5 13.5t36.5 29.5z" />
    <glyph glyph-name="n" unicode="n" horiz-adv-x="543" 
d="M498 119l15 -28q-49 -51 -91.5 -77t-68.5 -26q-50 0 -24 106l49 213q16 63 -6 65q-26 0 -85 -62.5t-91 -118.5q-27 -106 -41 -182q-55 -6 -99 -20l-7 8q48 191 77 330q9 39 -1 39q-6 0 -27 -13.5t-37 -28.5l-13 28q46 47 89.5 73.5t69.5 26.5q43 0 16 -121l-15 -63h2
q71 96 159 156q44 28 77 28q18 0 28 -9.5t14.5 -43t-12.5 -97.5l-44 -190q-8 -35 3 -35q19 0 63 42z" />
    <glyph glyph-name="o" unicode="o" horiz-adv-x="484" 
d="M186 -12q-76 0 -110 46.5t-34 114.5q0 92 43.5 163t106.5 104q64 36 123 36q69 0 106 -42.5t37 -115.5q0 -68 -27.5 -133.5t-79.5 -108.5q-74 -64 -165 -64zM224 31q13 0 28 5q35 14 64 88.5t29 171.5q0 57 -18.5 85.5t-48.5 28.5q-16 0 -29 -6q-31 -15 -62.5 -83.5
t-31.5 -175.5q0 -54 19.5 -84t49.5 -30z" />
    <glyph glyph-name="p" unicode="p" horiz-adv-x="503" 
d="M261 518l-18 -78q45 12 91 12q147 0 147 -146q0 -48 -21.5 -102.5t-62.5 -99.5q-37 -41 -89 -72.5t-103 -43.5q-28 0 -54 9l-25 -128q-7 -39 1 -50.5t45 -16.5l23 -2l-5 -31l-258 -12l7 30q45 9 60 23.5t25 59.5l104 499q-38 -12 -78 -34l-9 30q43 28 97 48l11 44
q40 42 101 68zM233 396l-66 -330q9 -12 24.5 -22.5t29.5 -9.5q47 0 97 86t50 178q0 104 -88 104q-19 0 -47 -6z" />
    <glyph glyph-name="q" unicode="q" horiz-adv-x="501" 
d="M439 -201l-5 -30l-252 -12l6 30l16 4q33 8 45.5 22t21.5 59l56 276h-2q-46 -59 -105 -106q-65 -54 -112 -54q-32 0 -52.5 33.5t-20.5 86.5q0 73 32 143.5t85 116.5q29 26 74 47.5t79 28.5q29 8 60 8t100 -15l16 -4q-21 -81 -46 -219l-59 -335q-7 -47 -0.5 -59.5
t36.5 -16.5zM308 404q-38 0 -64 -22q-43 -36 -69 -107.5t-26 -138.5t30 -67q28 0 77.5 49t77.5 96q20 82 36 175q-26 15 -62 15z" />
    <glyph glyph-name="r" unicode="r" horiz-adv-x="381" 
d="M207 290h4q86 162 145 162q29 0 46 -26q17 -25 -3 -55q-14 -24 -32 -38q-14 -9 -24 -1q-18 19 -38 19q-18 0 -43 -35q-45 -63 -62 -115q-21 -85 -39 -192q-53 -7 -98 -20l-8 8q41 172 69 322q8 45 -2 45q-7 0 -28 -13t-36 -27l-15 26q42 44 86.5 73t69.5 29q42 0 18 -116
z" />
    <glyph glyph-name="s" unicode="s" horiz-adv-x="348" 
d="M118 -12q-41 0 -76 23t-36 54q0 33 33 52q19 11 31 -2q54 -70 108 -70q23 0 38 12.5t15 32.5q0 17 -13 34t-49 44q-24 18 -35 27t-28.5 26.5t-25 35.5t-7.5 39q0 59 59 106q62 50 119 50q37 0 62 -19t25 -44q2 -28 -31 -50q-17 -11 -26 4q-41 53 -86 53q-19 0 -31.5 -12
t-12.5 -31q0 -35 69 -82q47 -33 69.5 -61t22.5 -63q0 -61 -64 -110t-130 -49z" />
    <glyph glyph-name="t" unicode="t" horiz-adv-x="316" 
d="M355 435l-28 -40l-95 -5l-54 -260q-13 -59 5 -59q11 0 38.5 17.5t46.5 36.5l15 -24q-30 -40 -83.5 -76.5t-92.5 -36.5q-60 0 -30 139l56 263h-72l-5 10l27 35h60l22 93l102 69l11 -9l-35 -153h112z" />
    <glyph glyph-name="u" unicode="u" horiz-adv-x="541" 
d="M502 123l15 -27q-45 -52 -89.5 -80t-72.5 -28q-47 0 -23 103q10 41 15 72h-1q-78 -102 -156 -151q-36 -24 -73 -24q-69 0 -37 139l46 199q8 35 0 41q-9 0 -64 -43l-12 28q46 44 91.5 72t71.5 28q21 0 25.5 -21t-7.5 -76l-51 -220q-14 -64 10 -64q33 0 88.5 61.5
t81.5 109.5q22 92 41 183l95 27h13q-48 -191 -75 -333q-8 -42 2 -42q6 0 27 14t39 32z" />
    <glyph glyph-name="v" unicode="v" horiz-adv-x="460" 
d="M247 108h2q130 164 129 233q0 26 -12 47q-4 13 0 23q6 18 20.5 29.5t34.5 11.5t34 -17.5t15 -44.5q0 -49 -64 -135q-120 -163 -212 -267h-36q-9 185 -26 315q-8 63 -18 63q-14 0 -56 -47l-18 25q34 46 72.5 77t65.5 31q24 0 36.5 -28.5t17.5 -89.5q1 -18 7 -104.5
t8 -121.5z" />
    <glyph glyph-name="w" unicode="w" horiz-adv-x="676" 
d="M479 112h2q117 157 117 226q0 28 -12 50q-7 14 1 29q15 35 49 35q21 0 35.5 -17.5t14.5 -45.5q0 -39 -40 -103q-60 -95 -214 -298h-37q-17 148 -35 285h-2q-140 -231 -175 -285h-34q-6 189 -17 321q-4 56 -15 56q-14 0 -56 -45l-17 23q35 47 74.5 78t67.5 31
q22 0 32.5 -26t13.5 -86q3 -77 3 -200h2l52 89.5l64 111t53 96.5h32l21.5 -170z" />
    <glyph glyph-name="x" unicode="x" horiz-adv-x="482" 
d="M84 313l-20 24q79 115 136 115q21 0 35 -23t32 -79l16 -50q60 86 94.5 119t67.5 33q22 0 34.5 -15t11.5 -36t-16 -36.5t-31 -15.5q-8 0 -18 10q-9 12 -23 12q-17 0 -48 -34q-26 -29 -59 -74l37 -118q21 -73 42 -73q20 0 69 58l19 -23q-75 -119 -143 -119q-45 0 -73 95
l-26 84q-63 -102 -99 -140.5t-73 -38.5q-21 0 -36 15t-14 39q1 23 15.5 39t31.5 16q8 0 18 -10q9 -10 23 -10q35 0 122 131l-29 95q-20 64 -36 64q-17 0 -60 -54z" />
    <glyph glyph-name="y" unicode="y" horiz-adv-x="459" 
d="M262 89h2q118 176 118 249q-1 19 -14 51q-5 17 3 32q17 31 50 31q19 0 33 -17t15 -46q0 -45 -38 -110q-60 -101 -169 -255q-110 -157 -185 -242l-122 -30l-8 25q147 97 226 201q1 58 -10 160.5t-24 173.5q-9 51 -21 51q-14 0 -55 -54l-20 26q31 50 68.5 83.5t66.5 33.5
q25 0 40 -30t23 -98q13 -107 21 -235z" />
    <glyph glyph-name="z" unicode="z" horiz-adv-x="416" 
d="M430 466l22 -22l-68 -79q-51 -54 -254 -254q32 3 79 -15q56 -20 81 -20q44 0 101 83l26 -20q-41 -89 -76.5 -124.5t-72.5 -35.5q-32 0 -130 48q-48 23 -72 5q-15 -11 -29 -34q-7 -9 -14 -9q-9 5 -12.5 16.5t7.5 37t42 57.5l269 262q-28 -7 -65 -4q-63 5 -81 5
q-36 1 -57 -17t-47 -60l-28 16q24 54 47 90q39 59 78 59q34 0 95 -12q58 -11 92 -11q29 0 67 38z" />
    <glyph glyph-name="braceleft" unicode="{" horiz-adv-x="357" 
d="M395 710l-4 -32q-45 -6 -65 -28.5t-28 -60.5q-6 -31 -10 -92q-3 -74 -10 -112q-18 -94 -107 -112v-4q67 -15 67 -85q0 -21 -5 -42t-16 -54.5l-14 -42.5q-26 -86 -26 -118q0 -55 63 -63l-9 -32q-131 0 -132 96q-1 35 30 151q26 81 26 115q2 56 -72 60l8 33q30 2 50 11
t30 24t13.5 25t7.5 27q4 18 10 89q7 75 17 123q24 124 176 124z" />
    <glyph glyph-name="bar" unicode="|" horiz-adv-x="261" 
d="M189 -249h-76v1000h76v-1000z" />
    <glyph glyph-name="braceright" unicode="}" horiz-adv-x="357" 
d="M310 287l-8 -33q-30 -2 -50 -10.5t-30 -23.5t-13.5 -25t-6.5 -27q-5 -27 -11 -89q-6 -73 -16 -123q-24 -124 -177 -124l4 32q77 10 93 87q7 41 11 94q3 72 10 110q8 43 35.5 74t71.5 40v4q-36 8 -53 35t-12 66q1 17 6 37t14 48t12 38q23 73 25 104q6 68 -62 78l9 31
q36 0 64.5 -8t49.5 -34t18 -69q-1 -35 -30 -136q-24 -82 -25 -102q-9 -68 71 -74z" />
    <glyph glyph-name="asciitilde" unicode="~" horiz-adv-x="572" 
d="M498 316l44 -26q-38 -115 -131 -115q-50 0 -124 45q-52 34 -88 34q-57 0 -91 -84l-41 31q48 111 137 111q51 0 112 -38q63 -40 100 -40q27 0 46.5 19.5t35.5 62.5z" />
    <glyph glyph-name="uni00A0" unicode="&#xa0;" horiz-adv-x="223" 
 />
    <glyph glyph-name="exclamdown" unicode="&#xa1;" horiz-adv-x="265" 
d="M237 386q0 -34 -21 -56t-53 -22q-28 0 -46 19.5t-18 49.5q0 35 22 56.5t52 21.5h1q28 0 45.5 -19.5t17.5 -49.5zM159 230l-11.5 -169.5t-10.5 -168.5q-2 -53 -6 -80q-4 -18 -20.5 -26.5t-56.5 -8.5h-1q-37 0 -51.5 10.5t-11.5 27.5q4 22 22 76l108 338q5 8 20.5 7
t18.5 -6z" />
    <glyph glyph-name="cent" unicode="&#xa2;" horiz-adv-x="489" 
d="M387 617l-15 -78q59 0 96 -27q17 -12 17 -30q0 -19 -14 -33.5t-26 -14.5q-9 0 -19 12q-34 41 -64 47l-62 -328h12q66 0 124 50l17 -26q-71 -81 -166 -93l-19 -96h-39l18 96q-76 6 -125 54.5t-49 130.5q0 100 75 172.5t183 83.5l16 80h40zM262 172l61 326q-66 -3 -104 -58
t-38 -136q0 -53 22 -87.5t59 -44.5z" />
    <glyph glyph-name="sterling" unicode="&#xa3;" horiz-adv-x="489" 
d="M395 293h-151q-16 -110 -130 -179q46 1 109 -25q88 -38 123 -38q46 0 51 33q2 14 -3 37q-3 12 6 24q25 27 43 27q25 0 18 -49q-5 -29 -31 -61.5t-58 -53.5q-52 -35 -103 -35q-10 0 -20.5 1.5t-22 5.5t-19.5 7.5t-21 10.5l-19 10t-19.5 11.5t-17.5 10.5q-40 22 -60 22
q-23 0 -45 -40q-6 -15 -16 -15q-13 2 -18.5 13.5t4.5 32.5q6 12 70 78q62 63 65 172h-92l8 40h84q2 51 6 78q15 111 108 179q61 45 117 45q63 0 90 -39q13 -20 -1 -40q-11 -16 -26 -25q-17 -10 -31 3q-4 3 -14.5 13t-15.5 14t-14.5 10.5t-18.5 9t-19 2.5q-51 0 -62 -75
q-5 -41 -3 -175h157z" />
    <glyph glyph-name="currency" unicode="&#xa4;" horiz-adv-x="489" 
d="M484 135l-45 -45l-66 75q-47 -38 -110 -38q-65 0 -110 38l-66 -75l-44 45l71 67q-44 48 -44 123t44 123l-71 67l44 45l66 -75q48 38 110 38h1q62 0 109 -38l66 75l45 -45l-70 -67q43 -51 43 -123t-43 -123zM263 461q-51 0 -84.5 -38.5t-33.5 -97.5q0 -60 33.5 -98
t85.5 -38q51 0 84.5 38t33.5 98q0 59 -33.5 97.5t-85.5 38.5z" />
    <glyph glyph-name="yen" unicode="&#xa5;" horiz-adv-x="489" 
d="M564 623l-6 -30q-38 -4 -54.5 -15.5t-47.5 -53.5q-38 -50 -130 -192h121l-9 -38h-129l-15 -78h131l-8 -39h-131l-11 -54q-11 -58 0.5 -72.5t71.5 -19.5l-7 -31h-275l8 31q53 4 68.5 18.5t27.5 72.5l11 55h-134l8 39h133l14 78h-133l9 38h122q-11 59 -47 198
q-10 36 -23.5 47t-51.5 16l6 30h227l-7 -30l-26 -5q-16 -2 -21.5 -9t-1.5 -24l42 -202q75 115 113 187q14 26 10.5 36.5t-26.5 13.5l-24 3l6 30h189z" />
    <glyph glyph-name="brokenbar" unicode="&#xa6;" horiz-adv-x="261" 
d="M189 325h-76v350h76v-350zM189 -175h-76v350h76v-350z" />
    <glyph glyph-name="section" unicode="&#xa7;" horiz-adv-x="489" 
d="M449 222v-2q0 -118 -137 -238q-82 -70 -166 -85q-50 0 -78 27q-16 15 -16 32q1 10 12 23.5t22 19.5q12 7 21 -2q47 -37 91 -37q30 0 50.5 15.5t20.5 39.5q1 38 -50 94q-42 42 -87 96q-59 68 -59 143q0 107 118 209q83 73 169 88q51 0 79 -28q11 -12 9 -27
q-1 -11 -10.5 -23.5t-19.5 -17.5q-9 -5 -17 2q-43 39 -90 39q-29 0 -45.5 -17t-16.5 -37q0 -29 28 -60q39 -42 83 -84q89 -86 89 -170zM191 511l-3 1q-48 -51 -48 -118v-1q0 -63 54 -122l49 -52q53 -58 70 -93q19 -31 13 -82l3 -1q50 53 50 124q0 66 -58 129l-96 108
q-44 48 -34 107z" />
    <glyph glyph-name="dieresis" unicode="&#xa8;" 
d="M187 639q23 0 35.5 -14.5t12.5 -36.5q0 -27 -17.5 -47t-45.5 -20q-22 0 -35.5 14t-13.5 38t17.5 45t46.5 21zM375 639q23 0 35.5 -14.5t12.5 -36.5q0 -27 -17.5 -47t-45.5 -20q-22 0 -35.5 14t-13.5 38t17.5 45t46.5 21z" />
    <glyph glyph-name="copyright" unicode="&#xa9;" horiz-adv-x="697" 
d="M376 629q131 0 218.5 -88.5t87.5 -217.5q0 -127 -88 -215.5t-219 -88.5q-132 0 -218.5 88.5t-86.5 215.5q0 129 87 217.5t219 88.5zM376 592q-110 0 -182.5 -77t-72.5 -191t72.5 -191t183.5 -77q110 0 182.5 77.5t72.5 190.5q0 114 -72.5 191t-183.5 77zM504 262l25 -6
q-25 -86 -25 -87q-58 -20 -108 -20q-93 0 -142.5 51t-49.5 120q0 82 57.5 130.5t139.5 48.5q60 0 106 -18q3 -40 11 -89l-24 -6q-16 41 -38 61.5t-60 20.5q-49 0 -78.5 -39.5t-29.5 -100.5q0 -64 32.5 -105t79.5 -41q67 0 104 80z" />
    <glyph glyph-name="ordfeminine" unicode="&#xaa;" horiz-adv-x="354" 
d="M362 354l10 -20q-27 -27 -59 -45t-51 -18q-31 0 -19 53l11 49h-2q-32 -39 -69 -69q-46 -33 -72 -33q-19 0 -32 17.5t-13 55.5q0 42 19 86t50 72q25 22 64 38t78 16h1q11 0 36 -5q14 -2 46 -4q-28 -121 -39 -187q-5 -29 2 -29q11 0 39 23zM239 520q-13 0 -28 -9
q-21 -12 -41 -50q-23 -49 -23 -100q0 -31 15 -31q16 0 46 30q28 28 49 68q12 25 24 83q-13 9 -42 9z" />
    <glyph glyph-name="guillemotleft" unicode="&#xab;" horiz-adv-x="459" 
d="M253 391l-103 -167l65 -167l-30 -16q-85 125 -132 183q79 76 173 184zM424 391l-102 -167l64 -167l-30 -16q-81 122 -132 183q75 72 174 184z" />
    <glyph glyph-name="logicalnot" unicode="&#xac;" horiz-adv-x="603" 
d="M548 100h-68v213h-414v59h482v-272z" />
    <glyph glyph-name="uni00AD" unicode="&#xad;" horiz-adv-x="337" 
d="M303 260l-18 -65h-241l17 65h242z" />
    <glyph glyph-name="registered" unicode="&#xae;" horiz-adv-x="312" 
d="M203 660q55 0 93 -38.5t38 -91.5t-38 -91.5t-94 -38.5q-55 0 -92.5 37.5t-37.5 92.5q0 53 38 91.5t93 38.5zM202 637q-44 0 -72.5 -31t-28.5 -76q0 -46 29 -76.5t73 -30.5t73.5 30.5t29.5 76.5q0 45 -29.5 76t-74.5 31zM277 472l-3 -12q-35 0 -49 21q-13 19 -20 31
q-5 7 -13 7h-4v-23q0 -14 3 -16.5t16 -3.5v-15h-68v15q14 1 16.5 3.5t2.5 16.5v70q0 13 -2.5 15.5t-15.5 3.5v15h69q49 0 49 -36q0 -23 -28 -35q13 -24 34 -46q4 -7 13 -11zM188 573v-37h9q12 0 17 4q12 8 12 21q0 24 -25 24q-13 0 -13 -12z" />
    <glyph glyph-name="macron" unicode="&#xaf;" 
d="M383 602l-15 -63h-232l15 63h232z" />
    <glyph glyph-name="degree" unicode="&#xb0;" horiz-adv-x="358" 
d="M244 664q56 0 93 -34t37 -94q0 -61 -43 -100t-104 -39q-57 0 -94.5 34.5t-37.5 91.5q0 61 43.5 101t105.5 40zM240 621q-35 0 -59 -27.5t-24 -71.5q0 -35 20.5 -58.5t53.5 -23.5q37 0 60 27.5t23 66.5q0 38 -20 62.5t-54 24.5z" />
    <glyph glyph-name="plusminus" unicode="&#xb1;" horiz-adv-x="603" 
d="M544 307h-207v-198h-68v198h-208v59h208v184h68v-184h207v-59zM544 0h-483v59h483v-59z" />
    <glyph glyph-name="twosuperior" unicode="&#xb2;" horiz-adv-x="336" 
d="M315 498l23 -10q-25 -55 -39 -91h-251l5 23q3 2 45.5 34.5t68.5 54.5q88 76 88 132q0 25 -14.5 39.5t-41.5 14.5q-37 0 -82 -51l-19 20l42 51q40 40 100 40q43 0 73 -26.5t30 -71.5q0 -15 -3.5 -29t-14 -27.5l-17 -22.5t-24.5 -23.5l-24 -19.5t-28.5 -20.5l-25.5 -17.5
l-47 -35v-2h87q26 0 38 6.5t31 31.5z" />
    <glyph glyph-name="threesuperior" unicode="&#xb3;" horiz-adv-x="336" 
d="M261 608v-2q31 -7 52.5 -26.5t21.5 -50.5q0 -69 -88 -112q-54 -27 -99 -27q-48 0 -74 24q-13 13 -8 29q9 20 24 29q12 8 23 -3q42 -39 74 -39q25 0 42 19.5t17 50.5q0 35 -18.5 51.5t-47.5 16.5q-17 0 -35 -6l-5 26q46 10 75 31t29 48q0 38 -42 38q-35 0 -72 -45l-19 18
l37 42q35 35 89 35h1q38 0 66 -19t28 -54q0 -45 -71 -74z" />
    <glyph glyph-name="acute" unicode="&#xb4;" 
d="M401 661l-166 -171l-28 19q45 77 88 163q13 3 50 5t52 0z" />
    <glyph glyph-name="mu" unicode="&#xb5;" horiz-adv-x="525" 
d="M482 122l15 -26q-45 -52 -89.5 -80t-72.5 -28q-47 0 -24 102q2 7 15 71h-2q-74 -104 -122 -143q-38 -30 -69 -30q-33 0 -45 49h-2q-22 -66 -14 -149q6 -64 33 -100l1 -7q-7 -11 -26.5 -22t-40.5 -11q-19 0 -30 18.5t-10 54.5q2 40 36 194l92 414l102 23l6 -5
q-57 -240 -68 -294q-18 -83 16 -83q29 0 80 61.5t77 110.5l41 183l95 27h13q-41 -160 -75 -334q-8 -42 2 -42q6 0 27 14.5t39 31.5z" />
    <glyph glyph-name="paragraph" unicode="&#xb6;" horiz-adv-x="493" 
d="M534 540l-35 -27l-80 -10l-91 -472q-24 -120 -98 -185q-27 -25 -58.5 -39t-47.5 -14q-39 0 -64 25q-18 16 -8 35q8 18 26 30q11 8 21 -1q33 -25 70 -25q16 0 27.5 5t25 20.5t25.5 49.5t22 87l25 130l-65 -27q-9 -4 -20 -4q-54 0 -96 53.5t-42 127.5q0 109 81.5 182
t191.5 73h187z" />
    <glyph glyph-name="periodcentered" unicode="&#xb7;" horiz-adv-x="253" 
d="M130 159q-27 0 -44 18t-17 47q0 33 21 55t52 22q27 0 44 -19t17 -48q0 -34 -21.5 -54.5t-51.5 -20.5z" />
    <glyph glyph-name="cedilla" unicode="&#xb8;" 
d="M214 3l-22 -27q-10 -11 -9 -20t12 -23q30 -38 29 -67q-2 -31 -38.5 -58.5t-92.5 -43.5l-13 30q68 31 69 57q1 15 -18 39q-15 18 -15.5 32t14.5 33l39 48h45z" />
    <glyph glyph-name="onesuperior" unicode="&#xb9;" horiz-adv-x="336" 
d="M298 422l-6 -26h-205l6 26q38 4 49.5 13.5t18.5 44.5l33 165q6 35 1.5 42.5t-30.5 10.5l-22 2l6 24q75 10 150 31l-53 -275q-7 -35 2 -44.5t50 -13.5z" />
    <glyph glyph-name="ordmasculine" unicode="&#xba;" horiz-adv-x="332" 
d="M243 555h2q48 0 76.5 -28.5t28.5 -79.5q0 -89 -68 -140q-47 -36 -103 -36q-51 0 -78.5 29.5t-28.5 76.5q-1 52 25 94t66 63t80 21zM227 523q-9 0 -20 -6q-20 -10 -37.5 -45.5t-17.5 -95.5q0 -35 12.5 -53.5t32.5 -18.5q9 0 22 6q19 8 36.5 52t16.5 98q-2 63 -45 63z" />
    <glyph glyph-name="guillemotright" unicode="&#xbb;" horiz-adv-x="460" 
d="M89 392l30 15q87 -129 132 -183q-75 -72 -174 -184l-26 17l103 167zM260 392l31 15q88 -130 131 -183q-75 -72 -174 -184l-26 17l103 167z" />
    <glyph glyph-name="onequarter" unicode="&#xbc;" horiz-adv-x="806" 
d="M677 623l-520 -658l-29 27l519 658zM287 303l-6 -26h-206l6 26q38 4 49.5 13.5t18.5 44.5l33 166q6 35 1.5 42.5t-30.5 10.5l-22 2l6 24q68 8 150 29l-53 -274q-7 -35 2.5 -44t50.5 -14zM686 134l-8 -39h-55l-5 -24q-4 -26 3.5 -33.5t41.5 -12.5l-5 -25h-189l6 25
q38 5 48.5 11.5t14.5 33.5l5 25h-158l5 26q121 133 228 237h55l-43 -224h56zM581 279h-2q-112 -124 -129 -145h101z" />
    <glyph glyph-name="onehalf" unicode="&#xbd;" horiz-adv-x="766" 
d="M666 623l-521 -658l-29 28l519 657zM279 303l-6 -26h-206l7 26q38 4 49 13.5t18 44.5l33 166q6 35 1.5 42.5t-30.5 9.5l-22 2l6 25q66 7 151 29l-54 -274q-7 -35 2.5 -44t50.5 -14zM678 101l24 -10q-31 -70 -39 -91h-252l5 23q3 2 45.5 34.5t68.5 54.5q88 78 88 132
q0 25 -14.5 39.5t-41.5 14.5q-38 0 -82 -50l-19 19l42 50q39 41 101 41q43 0 73 -26.5t30 -72.5q0 -17 -7 -34t-14.5 -29t-25.5 -28t-27 -23t-33 -24l-30 -21l-47 -35v-2h86q26 0 38.5 7t30.5 31z" />
    <glyph glyph-name="threequarters" unicode="&#xbe;" horiz-adv-x="766" 
d="M691 623l-521 -658l-29 27l520 658zM147 541l-20 17l37 42q35 35 89 35h1q38 0 66 -19t28 -53q0 -44 -71 -74v-2q31 -7 52.5 -26.5t21.5 -50.5q0 -69 -87 -112q-54 -27 -100 -27q-49 0 -73 24q-14 13 -9 29q9 20 24 29q11 7 23 -3q42 -39 74 -39q25 0 42 19t17 50
q0 35 -19 52t-48 17q-16 0 -34 -6l-5 26q104 25 104 78q0 38 -42 38q-35 0 -71 -44zM693 134l-8 -39h-55l-5 -24q-4 -26 3.5 -33.5t41.5 -12.5l-6 -25h-188l6 25q37 4 48 11t15 34l5 25h-159l6 26q131 144 228 237h55l-43 -224h56zM588 279h-2q-112 -124 -129 -145h101z" />
    <glyph glyph-name="questiondown" unicode="&#xbf;" horiz-adv-x="369" 
d="M243 455q28 0 45.5 -19.5t17.5 -48.5q0 -34 -21 -56.5t-53 -22.5q-28 0 -46 19.5t-18 49.5q0 35 22 56.5t53 21.5zM172 224l23 20q35 -16 65.5 -50t30.5 -72q0 -40 -30.5 -70t-84.5 -60q-88 -49 -108 -68q-18 -17 -18 -32q0 -16 12 -26t33 -10q32 0 60 13t45.5 26
t23.5 13q13 0 27.5 -18t14.5 -39q0 -22 -29 -41q-51 -34 -97 -34h-1q-57 0 -101 47t-44 106q0 76 72 120q9 6 24 15l23 13.5t20.5 12.5t19 13l15 11.5t13 12l9 11.5t6.5 12.5t2 12.5q0 27 -26 61z" />
    <glyph glyph-name="Agrave" unicode="&#xc0;" horiz-adv-x="669" 
d="M627 31l-8 -31h-259l9 31q46 5 56.5 17.5t5.5 48.5q-5 29 -19 125h-198l-60 -122q-19 -37 -9.5 -49.5t65.5 -19.5l-8 -31h-221l8 31q47 8 66.5 24.5t58.5 83.5l293 513l44 11l22 -137q11 -71 34 -204t32 -191q10 -62 23.5 -78t64.5 -22zM405 270l-35 236h-3l-57 -103.5
l-71 -132.5h166zM489 712l-15 -29l-203 60l-3 11q4 16 20.5 40t28.5 30z" />
    <glyph glyph-name="Aacute" unicode="&#xc1;" horiz-adv-x="669" 
d="M627 31l-8 -31h-259l9 31q46 5 56.5 17.5t5.5 48.5q-5 29 -19 125h-198l-60 -122q-19 -37 -9.5 -49.5t65.5 -19.5l-8 -31h-221l8 31q47 8 66.5 24.5t58.5 83.5l293 513l44 11l22 -137q11 -71 34 -204t32 -191q10 -62 23.5 -78t64.5 -22zM405 270l-35 236h-3l-57 -103.5
l-71 -132.5h166zM590 753l-4 -10l-202 -60l-15 29l172 111q12 -3 29 -27.5t20 -42.5z" />
    <glyph glyph-name="Acircumflex" unicode="&#xc2;" horiz-adv-x="669" 
d="M627 31l-8 -31h-259l9 31q46 5 56.5 17.5t5.5 48.5q-5 29 -19 125h-198l-60 -122q-19 -37 -9.5 -49.5t65.5 -19.5l-8 -31h-221l8 31q47 8 66.5 24.5t58.5 83.5l293 513l44 11l22 -137q11 -71 34 -204t32 -191q10 -62 23.5 -78t64.5 -22zM405 270l-35 236h-3l-57 -103.5
l-71 -132.5h166zM574 709l-20 -26q-64 25 -116 56q-69 -35 -132 -56l-15 27q72 46 143 110h31q44 -52 109 -111z" />
    <glyph glyph-name="Atilde" unicode="&#xc3;" horiz-adv-x="669" 
d="M627 31l-8 -31h-259l9 31q46 5 56.5 17.5t5.5 48.5q-5 29 -19 125h-198l-60 -122q-19 -37 -9.5 -49.5t65.5 -19.5l-8 -31h-221l8 31q47 8 66.5 24.5t58.5 83.5l293 513l44 11l22 -137q11 -71 34 -204t32 -191q10 -62 23.5 -78t64.5 -22zM405 270l-35 236h-3l-57 -103.5
l-71 -132.5h166zM549 799l28 -18q-31 -90 -84 -90q-25 0 -73 24q-30 13 -47 13q-27 0 -49 -45l-29 21q32 88 86 88q23 0 65 -19q37 -16 54 -16q24 0 49 42z" />
    <glyph glyph-name="Adieresis" unicode="&#xc4;" horiz-adv-x="669" 
d="M627 31l-8 -31h-259l9 31q46 5 56.5 17.5t5.5 48.5q-5 29 -19 125h-198l-60 -122q-19 -37 -9.5 -49.5t65.5 -19.5l-8 -31h-221l8 31q47 8 66.5 24.5t58.5 83.5l293 513l44 11l22 -137q11 -71 34 -204t32 -191q10 -62 23.5 -78t64.5 -22zM405 270l-35 236h-3l-57 -103.5
l-71 -132.5h166zM343 810q23 0 35.5 -14.5t12.5 -36.5q0 -27 -17.5 -47t-44.5 -20q-22 0 -36 14t-14 38t17.5 45t46.5 21zM545 810q23 0 35.5 -14.5t12.5 -36.5q0 -27 -17.5 -47t-44.5 -20q-22 0 -36 14t-14 38t17.5 45t46.5 21z" />
    <glyph glyph-name="Aring" unicode="&#xc5;" horiz-adv-x="669" 
d="M627 31l-8 -31h-260l9 31q47 5 57.5 17.5t4.5 48.5q-3 21 -10 65t-9 60h-197q-35 -68 -60 -122q-19 -37 -9.5 -49.5t65.5 -19.5l-8 -31h-221l8 31q47 8 66.5 24.5t58.5 83.5l292 513l45 11l21 -137l33 -191.5t34 -203.5q10 -62 23.5 -78t64.5 -22zM404 270l-35 236h-2
l-57 -103.5l-71 -132.5h165zM532 777q-1 -40 -31.5 -65.5t-69.5 -25.5q-37 0 -61 23.5t-23 60.5q1 42 31 67.5t69 25.5q36 0 61 -23.5t24 -62.5zM482 779q1 20 -9.5 33.5t-28.5 13.5q-21 0 -34 -15t-14 -39q0 -47 39 -47q20 0 33 15t14 39z" />
    <glyph glyph-name="AE" unicode="&#xc6;" horiz-adv-x="860" 
d="M848 495l-33 -3q-5 66 -19 89q-10 17 -30 23t-67 6h-56q-25 0 -32 -6.5t-12 -31.5l-44 -235h79q63 0 80 11.5t38 64.5h34l-39 -201h-33q0 57 -12.5 68.5t-76.5 11.5h-79l-28 -152q-11 -64 6 -83q18 -18 91 -18q48 0 74.5 6.5t46.5 25.5q28 26 67 98l32 -13
q-45 -128 -59 -156h-480l6 32q56 5 73 19.5t29 73.5l32 167h-172q-104 -157 -124 -193q-19 -34 -14.5 -46t37.5 -16l29 -5l-8 -32h-235l7 32q49 6 69.5 18.5t54.5 59.5l316 452q20 29 15.5 37.5t-41.5 12.5l-53 5l9 32h539q-1 -6 -7 -64.5t-10 -89.5zM293 337h152l53 270
q-16 0 -33 -15z" />
    <glyph glyph-name="Ccedilla" unicode="&#xc7;" horiz-adv-x="646" 
d="M309 -48l29 35q-123 6 -198 80t-75 202q0 176 122.5 285.5t306.5 109.5q79 0 170 -28q-3 -81 -9 -164l-33 -3q-10 87 -47.5 121t-103.5 34q-116 0 -196 -103t-80 -246q0 -115 46.5 -182t128.5 -67q64 0 113.5 39t105.5 122l31 -14q-36 -96 -79 -162q-96 -23 -160 -24
l-12 -14q-10 -12 -9 -20.5t13 -23.5q30 -39 29 -69q-1 -31 -37.5 -59t-94.5 -45l-12 29q70 30 71 59q1 16 -19 40q-16 20 -16.5 34t15.5 34z" />
    <glyph glyph-name="Egrave" unicode="&#xc8;" horiz-adv-x="566" 
d="M124 649h450q-1 -6 -7.5 -65t-10.5 -91l-33 -2q-3 70 -18 91q-9 16 -27 22t-63 6h-60q-27 0 -34.5 -6.5t-12.5 -35.5l-40 -206h77q44 0 63 5.5t28 18t25 49.5h33l-39 -200h-34q2 58 -9.5 70t-74.5 12h-78l-32 -172q-13 -71 3 -88q15 -18 90 -18q88 0 122 33q34 32 70 97
l32 -12q-40 -111 -62 -157h-480l7 31q59 5 74 19t27 74l77 401q11 58 0 73t-70 20zM449 714l-15 -29l-204 60l-3 11q4 15 20.5 39.5t28.5 30.5z" />
    <glyph glyph-name="Eacute" unicode="&#xc9;" horiz-adv-x="566" 
d="M124 649h450q-1 -6 -7.5 -65t-10.5 -91l-33 -2q-3 70 -18 91q-9 16 -27 22t-63 6h-60q-27 0 -34.5 -6.5t-12.5 -35.5l-40 -206h77q44 0 63 5.5t28 18t25 49.5h33l-39 -200h-34q2 58 -9.5 70t-74.5 12h-78l-32 -172q-13 -71 3 -88q15 -18 90 -18q88 0 122 33q34 32 70 97
l32 -12q-40 -111 -62 -157h-480l7 31q59 5 74 19t27 74l77 401q11 58 0 73t-70 20zM536 754l-4 -10l-203 -60l-15 29l173 111q12 -3 29 -27.5t20 -42.5z" />
    <glyph glyph-name="Ecircumflex" unicode="&#xca;" horiz-adv-x="566" 
d="M124 649h450q-1 -6 -7.5 -65t-10.5 -91l-33 -2q-3 70 -18 91q-9 16 -27 22t-63 6h-60q-27 0 -34.5 -6.5t-12.5 -35.5l-40 -206h77q44 0 63 5.5t28 18t25 49.5h33l-39 -200h-34q2 58 -9.5 70t-74.5 12h-78l-32 -172q-13 -71 3 -88q15 -18 90 -18q88 0 122 33q34 32 70 97
l32 -12q-40 -111 -62 -157h-480l7 31q59 5 74 19t27 74l77 401q11 58 0 73t-70 20zM523 710l-21 -26q-67 27 -116 56q-69 -35 -132 -56l-15 26q68 45 143 111h30q55 -63 111 -111z" />
    <glyph glyph-name="Edieresis" unicode="&#xcb;" horiz-adv-x="566" 
d="M124 649h450q-1 -6 -7.5 -65t-10.5 -91l-33 -2q-3 68 -18 91q-9 16 -27.5 22t-62.5 6h-60q-27 0 -34.5 -6.5t-13.5 -35.5l-40 -206h77q62 0 78.5 11t37.5 62h34l-40 -200h-33q1 58 -10.5 70t-73.5 12h-78l-33 -172q-13 -71 3 -88q15 -18 90 -18q87 0 123 33q34 32 70 97
l32 -12q-34 -94 -62 -157h-480l7 31q58 5 73.5 19t26.5 74l78 401q11 58 0 73t-70 20zM297 809q23 0 35.5 -14.5t12.5 -36.5q0 -27 -17.5 -47t-45.5 -20q-22 0 -35.5 14t-14.5 38q0 24 18 45t47 21zM498 809q23 0 35.5 -14.5t12.5 -36.5q0 -27 -17.5 -47t-45.5 -20
q-22 0 -36 14t-14 38t17.5 45t47.5 21z" />
    <glyph glyph-name="Igrave" unicode="&#xcc;" horiz-adv-x="355" 
d="M403 649l-7 -31q-56 -5 -70.5 -19.5t-25.5 -72.5l-77 -402q-12 -59 -0.5 -73.5t71.5 -19.5l-7 -31h-281l7 31q55 4 70 19t27 74l78 402q11 58 -0.5 72.5t-72.5 19.5l8 31h280zM345 712l-15 -29l-203 60l-3 11q4 16 20.5 40t28.5 30z" />
    <glyph glyph-name="Iacute" unicode="&#xcd;" horiz-adv-x="355" 
d="M403 649l-7 -31q-56 -5 -70.5 -19.5t-25.5 -72.5l-77 -402q-12 -59 -0.5 -73.5t71.5 -19.5l-7 -31h-281l7 31q55 4 70 19t27 74l78 402q11 58 -0.5 72.5t-72.5 19.5l8 31h280zM423 753l-4 -10l-202 -60l-15 29l172 111q12 -3 29 -27.5t20 -42.5z" />
    <glyph glyph-name="Icircumflex" unicode="&#xce;" horiz-adv-x="355" 
d="M403 649l-7 -31q-56 -5 -70.5 -19.5t-25.5 -72.5l-77 -402q-12 -59 -0.5 -73.5t71.5 -19.5l-7 -31h-281l7 31q55 4 70 19t27 74l78 402q11 58 -0.5 72.5t-72.5 19.5l8 31h280zM411 710l-20 -26q-64 25 -116 56q-69 -35 -132 -56l-15 27q72 46 143 110h31q44 -52 109 -111
z" />
    <glyph glyph-name="Idieresis" unicode="&#xcf;" horiz-adv-x="355" 
d="M403 649l-7 -31q-56 -5 -70.5 -19.5t-25.5 -72.5l-77 -402q-12 -59 -0.5 -73.5t71.5 -19.5l-7 -31h-281l7 31q55 4 70 19t27 74l78 402q11 58 -0.5 72.5t-72.5 19.5l8 31h280zM187 810q23 0 35.5 -14.5t12.5 -36.5q0 -27 -17.5 -47t-44.5 -20q-22 0 -36 14t-14 38
t17.5 45t46.5 21zM388 810q23 0 35.5 -14.5t12.5 -36.5q0 -27 -17.5 -47t-44.5 -20q-22 0 -36 14t-14 38t17.5 45t46.5 21z" />
    <glyph glyph-name="Eth" unicode="&#xd0;" horiz-adv-x="731" 
d="M131 649h259q155 0 242 -67t87 -204q0 -96 -42.5 -176t-123.5 -130q-118 -72 -316 -72h-228l9 31q56 5 71.5 20t26.5 71l38 196h-103l11 45h100l32 163q11 59 0 73t-71 19zM265 318l-34 -186q-12 -64 13 -79q19 -13 59 -13q87 0 154.5 49.5t101 127.5t33.5 169
q0 109 -52 167t-148 58q-43 0 -59 -9q-15 -8 -23 -48l-36 -191h146l-10 -45h-145z" />
    <glyph glyph-name="Ntilde" unicode="&#xd1;" horiz-adv-x="704" 
d="M770 649l-7 -31q-44 -2 -60.5 -15.5t-26.5 -47.5q-18 -59 -40 -171l-75 -393h-44l-289 516h-2l-48 -246q-20 -102 -24 -164q-2 -35 16 -48.5t71 -16.5l-8 -32h-237l8 32q39 2 58 15t29 46q21 68 41 169l46 218q17 74 -2 107q-15 27 -81 31l7 31h169l276 -478h3l40 212
q21 115 25 170q2 36 -16 49t-72 16l8 31h235zM562 794l29 -18q-32 -90 -85 -90q-21 0 -73 23q-30 13 -46 13q-27 0 -50 -45l-28 23q32 87 86 87q24 0 64 -20q41 -16 55 -16q24 0 48 43z" />
    <glyph glyph-name="Ograve" unicode="&#xd2;" horiz-adv-x="718" 
d="M433 664q123 0 198 -79.5t75 -207.5q0 -165 -104.5 -278.5t-264.5 -113.5q-122 0 -197.5 77t-75.5 205q0 162 105.5 279.5t263.5 117.5zM427 624q-65 0 -119.5 -55.5t-85 -141.5t-30.5 -179q0 -101 37.5 -162.5t113.5 -61.5q69 0 124.5 58.5t83 143.5t27.5 172
q0 103 -36.5 164.5t-114.5 61.5zM527 721l-15 -29l-203 60l-3 11q4 16 20.5 40t28.5 30z" />
    <glyph glyph-name="Oacute" unicode="&#xd3;" horiz-adv-x="718" 
d="M433 664q123 0 198 -79.5t75 -207.5q0 -165 -104.5 -278.5t-264.5 -113.5q-122 0 -197.5 77t-75.5 205q0 162 105.5 279.5t263.5 117.5zM427 624q-65 0 -119.5 -55.5t-85 -141.5t-30.5 -179q0 -101 37.5 -162.5t113.5 -61.5q69 0 124.5 58.5t83 143.5t27.5 172
q0 103 -36.5 164.5t-114.5 61.5zM583 762l-4 -10l-202 -60l-15 29l172 111q12 -3 29 -27.5t20 -42.5z" />
    <glyph glyph-name="Ocircumflex" unicode="&#xd4;" horiz-adv-x="718" 
d="M433 664q123 0 198 -79.5t75 -207.5q0 -165 -104.5 -278.5t-264.5 -113.5q-122 0 -197.5 77t-75.5 205q0 162 105.5 279.5t263.5 117.5zM427 624q-65 0 -119.5 -55.5t-85 -141.5t-30.5 -179q0 -101 37.5 -162.5t113.5 -61.5q69 0 124.5 58.5t83 143.5t27.5 172
q0 103 -36.5 164.5t-114.5 61.5zM584 717l-20 -26q-64 25 -116 56q-69 -35 -132 -56l-15 27q72 46 143 110h31q44 -52 109 -111z" />
    <glyph glyph-name="Otilde" unicode="&#xd5;" horiz-adv-x="718" 
d="M433 664q123 0 198 -79.5t75 -207.5q0 -165 -104.5 -278.5t-264.5 -113.5q-122 0 -197.5 77t-75.5 205q0 162 105.5 279.5t263.5 117.5zM427 624q-65 0 -119.5 -55.5t-85 -141.5t-30.5 -179q0 -101 37.5 -162.5t113.5 -61.5q69 0 124.5 58.5t83 143.5t27.5 172
q0 103 -36.5 164.5t-114.5 61.5zM556 808l29 -17q-31 -90 -85 -90q-21 0 -73 23q-30 13 -46 13q-27 0 -49 -45l-29 22q33 89 86 87q23 0 65 -19q39 -16 54 -16q24 0 48 42z" />
    <glyph glyph-name="Odieresis" unicode="&#xd6;" horiz-adv-x="718" 
d="M433 664q123 0 198 -79.5t75 -207.5q0 -165 -104.5 -278.5t-264.5 -113.5q-122 0 -197.5 77t-75.5 205q0 162 105.5 279.5t263.5 117.5zM427 624q-65 0 -119.5 -55.5t-85 -141.5t-30.5 -179q0 -101 37.5 -162.5t113.5 -61.5q69 0 124.5 58.5t83 143.5t27.5 172
q0 103 -36.5 164.5t-114.5 61.5zM358 819q23 0 35.5 -14.5t12.5 -36.5q0 -27 -17.5 -47t-44.5 -20q-23 0 -36.5 14t-13.5 38t17.5 45t46.5 21zM560 819q23 0 35.5 -14.5t12.5 -36.5q0 -27 -17.5 -47t-44.5 -20q-22 0 -36 14t-14 38t17.5 45t46.5 21z" />
    <glyph glyph-name="multiply" unicode="&#xd7;" horiz-adv-x="603" 
d="M536 56l-45 -46l-186 191l-186 -191l-44 46l185 190l-185 189l44 46l186 -189l186 191l45 -45l-186 -192z" />
    <glyph glyph-name="Oslash" unicode="&#xd8;" horiz-adv-x="717" 
d="M640 695l32 -26l-54 -71q88 -81 88 -221q0 -166 -104.5 -279t-265.5 -113q-90 0 -153 42l-55 -72l-29 28l52 68q-87 78 -87 219q0 160 106 277t265 117q88 0 150 -41zM213 129l326 433q-32 63 -112 63q-67 0 -123 -55t-85.5 -139t-29.5 -175q0 -77 24 -127zM559 522
l-325 -432q34 -65 111 -65q69 0 124.5 57t83.5 140t28 171q0 79 -22 129z" />
    <glyph glyph-name="Ugrave" unicode="&#xd9;" horiz-adv-x="707" 
d="M781 649l-7 -31q-44 -2 -62 -15t-28 -46q-17 -49 -39 -167l-18 -91q-34 -172 -113 -246q-71 -68 -177 -68q-103 0 -163 54q-77 72 -45 242l46 241q11 60 0 75.5t-69 20.5l8 31h275l-7 -31q-53 -5 -68 -20t-26 -76l-46 -242q-22 -119 14 -176t112 -57q85 0 137 65t77 198
l15 80q23 120 24 169q2 32 -17.5 44t-72.5 15l8 31h242zM531 712l-15 -29l-203 60l-3 11q4 16 20.5 40t28.5 30z" />
    <glyph glyph-name="Uacute" unicode="&#xda;" horiz-adv-x="707" 
d="M781 649l-7 -31q-44 -2 -62 -15t-28 -46q-17 -49 -39 -167l-18 -91q-34 -172 -113 -246q-71 -68 -177 -68q-103 0 -163 54q-77 72 -45 242l46 241q11 60 0 75.5t-69 20.5l8 31h275l-7 -31q-53 -5 -68 -20t-26 -76l-46 -242q-22 -119 14 -176t112 -57q85 0 137 65t77 198
l15 80q23 120 24 169q2 32 -17.5 44t-72.5 15l8 31h242zM609 753l-4 -10l-202 -60l-15 29l172 111q12 -3 29 -27.5t20 -42.5z" />
    <glyph glyph-name="Ucircumflex" unicode="&#xdb;" horiz-adv-x="707" 
d="M781 649l-7 -31q-44 -2 -62 -15t-28 -46q-17 -49 -39 -167l-18 -91q-34 -172 -113 -246q-71 -68 -177 -68q-103 0 -163 54q-77 72 -45 242l46 241q11 60 0 75.5t-69 20.5l8 31h275l-7 -31q-53 -5 -68 -20t-26 -76l-46 -242q-22 -119 14 -176t112 -57q85 0 137 65t77 198
l15 80q23 120 24 169q2 32 -17.5 44t-72.5 15l8 31h242zM601 711l-20 -26q-64 25 -116 56q-69 -35 -132 -56l-15 27q72 46 143 110h31q44 -52 109 -111z" />
    <glyph glyph-name="Udieresis" unicode="&#xdc;" horiz-adv-x="707" 
d="M781 649l-7 -31q-44 -2 -62 -15t-28 -46q-17 -49 -39 -167l-18 -91q-34 -172 -113 -246q-71 -68 -177 -68q-103 0 -163 54q-77 72 -45 242l46 241q11 60 0 75.5t-69 20.5l8 31h275l-7 -31q-53 -5 -68 -20t-26 -76l-46 -242q-22 -119 14 -176t112 -57q85 0 137 65t77 198
l15 80q23 120 24 169q2 32 -17.5 44t-72.5 15l8 31h242zM370 810q23 0 35.5 -14.5t12.5 -36.5q0 -27 -17.5 -47t-44.5 -20q-22 0 -36 14t-14 38t17.5 45t46.5 21zM572 810q23 0 35.5 -14.5t12.5 -36.5q0 -27 -17.5 -47t-44.5 -20q-22 0 -36 14t-14 38t17.5 45t46.5 21z" />
    <glyph glyph-name="Yacute" unicode="&#xdd;" horiz-adv-x="626" 
d="M700 649l-9 -32q-48 -5 -68.5 -18t-60.5 -63q-45 -56 -152 -215q-20 -27 -26 -59l-27 -132q-13 -62 0 -78t79 -21l-8 -31h-298l8 31q60 4 76.5 20t30.5 79l25 123q7 34 -5 66l-76 219q-19 50 -33.5 62.5t-59.5 17.5l8 31h252l-9 -31l-29 -6q-23 -4 -27.5 -13.5t3.5 -32.5
q35 -108 79 -228q94 135 146 223q16 27 11 37t-35 15l-25 4l9 32h221zM564 752l-4 -10l-202 -60l-15 29l172 111q12 -3 29 -27.5t20 -42.5z" />
    <glyph glyph-name="Thorn" unicode="&#xde;" horiz-adv-x="569" 
d="M293 503h68q205 0 205 -159q0 -88 -69 -141.5t-168 -56.5q-14 -1 -36 3l-65 16l-10 -50q-11 -52 2.5 -66t80.5 -18l-7 -31h-288l7 31q55 5 70 18t25 66l80 416q11 53 0.5 67.5t-66.5 19.5l8 31h268l-8 -31q-56 -5 -69.5 -21.5t-27.5 -93.5zM277 420l-41 -218
q34 -12 66 -12q58 0 100 44.5t42 116.5q0 55 -28.5 85t-85.5 30q-27 0 -38 -8q-8 -4 -15 -38z" />
    <glyph glyph-name="germandbls" unicode="&#xdf;" horiz-adv-x="532" 
d="M75 435h58q26 138 118 214q74 61 154 61q65 0 101 -35t36 -91q0 -37 -16 -57q-109 -78 -109 -142q0 -30 35 -89q44 -73 44 -123q0 -73 -70.5 -129t-132.5 -56q-33 0 -59.5 16.5t-26.5 39.5q0 24 25 43q14 10 26 -1q50 -41 90 -41q26 0 43.5 17.5t17.5 43.5q0 36 -39 103
l-12 20l-12.5 21t-10.5 19t-9.5 21.5t-5 20t-2.5 22.5q0 64 122 167q11 24 11 58q0 51 -21.5 81t-55.5 30q-78 1 -115 -145q-10 -40 -28 -145l-39 -234q-43 -240 -145 -335q-64 -61 -114 -61q-23 0 -41.5 13t-18.5 31q0 24 28 48q14 13 25 4q33 -26 64 -26q24 0 37 23
q21 37 49 219q9 64 25.5 171t23.5 157h-76l-5 12z" />
    <glyph glyph-name="agrave" unicode="&#xe0;" horiz-adv-x="509" 
d="M477 127l15 -26q-44 -53 -91.5 -83t-74.5 -30q-44 0 -24 99l14 68h-3q-45 -64 -109 -118q-58 -49 -102 -49q-28 0 -47 31t-19 88q0 73 31 144t83 116q39 35 95 60t109 25q24 0 63 -7q30 -6 51 -6l5 -4q-42 -171 -67 -317q-8 -41 2 -41q7 0 28.5 15.5t40.5 34.5zM173 69
q25 0 81 62.5t74 102.5q23 83 35 157q-24 13 -60 13q-32 0 -54 -16q-46 -33 -73 -109.5t-27 -150.5q0 -59 24 -59zM375 500l-34 -11l-98 166l4 13q10 4 44 9t48 4l17.5 -86t18.5 -95z" />
    <glyph glyph-name="aacute" unicode="&#xe1;" horiz-adv-x="509" 
d="M477 127l15 -26q-44 -53 -91.5 -83t-74.5 -30q-44 0 -24 99l14 68h-3q-45 -64 -109 -118q-58 -49 -102 -49q-28 0 -47 31t-19 88q0 73 31 144t83 116q39 35 95 60t109 25q24 0 63 -7q30 -6 51 -6l5 -4q-42 -171 -67 -317q-8 -41 2 -41q7 0 28.5 15.5t40.5 34.5zM173 69
q25 0 81 62.5t74 102.5q23 83 35 157q-24 13 -60 13q-32 0 -54 -16q-46 -33 -73 -109.5t-27 -150.5q0 -59 24 -59zM475 661l-166 -171l-28 18q46 81 88 164q13 3 50 5t52 0z" />
    <glyph glyph-name="acircumflex" unicode="&#xe2;" horiz-adv-x="509" 
d="M477 127l15 -26q-44 -53 -91.5 -83t-74.5 -30q-44 0 -24 99l14 68h-3q-45 -64 -109 -118q-58 -49 -102 -49q-28 0 -47 31t-19 88q0 73 31 144t83 116q39 35 95 60t109 25q24 0 63 -7q30 -6 51 -6l5 -4q-42 -171 -67 -317q-8 -41 2 -41q7 0 28.5 15.5t40.5 34.5zM173 69
q25 0 81 62.5t74 102.5q23 83 35 157q-24 13 -60 13q-32 0 -54 -16q-46 -33 -73 -109.5t-27 -150.5q0 -59 24 -59zM436 511l-28 -22q-29 29 -74 89q-74 -63 -110 -89l-24 24q93 105 133 161h30q23 -66 73 -163z" />
    <glyph glyph-name="atilde" unicode="&#xe3;" horiz-adv-x="509" 
d="M477 127l15 -26q-44 -53 -91.5 -83t-74.5 -30q-44 0 -24 99l14 68h-3q-45 -64 -109 -118q-58 -49 -102 -49q-28 0 -47 31t-19 88q0 73 31 144t83 116q39 35 95 60t109 25q24 0 63 -7q30 -6 51 -6l5 -4q-42 -171 -67 -317q-8 -41 2 -41q7 0 28.5 15.5t40.5 34.5zM173 69
q25 0 81 62.5t74 102.5q23 83 35 157q-24 13 -60 13q-32 0 -54 -16q-46 -33 -73 -109.5t-27 -150.5q0 -59 24 -59zM434 627l30 -14q-32 -96 -87 -96q-18 0 -68 22q-28 14 -46 14q-24 0 -48 -45l-28 20q16 46 39.5 69t47.5 23q19 0 61 -19q38 -18 53 -18q22 0 46 44z" />
    <glyph glyph-name="adieresis" unicode="&#xe4;" horiz-adv-x="509" 
d="M477 127l15 -26q-44 -53 -91.5 -83t-74.5 -30q-44 0 -24 99l14 68h-3q-45 -64 -109 -118q-58 -49 -102 -49q-28 0 -47 31t-19 88q0 73 31 144t83 116q39 35 95 60t109 25q24 0 63 -7q30 -6 51 -6l5 -4q-42 -171 -67 -317q-8 -41 2 -41q7 0 28.5 15.5t40.5 34.5zM173 69
q25 0 81 62.5t74 102.5q23 83 35 157q-24 13 -60 13q-32 0 -54 -16q-46 -33 -73 -109.5t-27 -150.5q0 -59 24 -59zM250 639q23 0 35.5 -14.5t12.5 -36.5q0 -28 -17.5 -47.5t-44.5 -19.5q-22 0 -36 14t-14 38t17.5 45t46.5 21zM438 639q23 0 35.5 -14.5t12.5 -36.5
q0 -28 -17.5 -47.5t-44.5 -19.5q-22 0 -36 14t-14 38t17.5 45t46.5 21z" />
    <glyph glyph-name="aring" unicode="&#xe5;" horiz-adv-x="509" 
d="M477 127l15 -26q-44 -53 -91.5 -83t-74.5 -30q-44 0 -24 99l14 68h-3q-45 -64 -109 -118q-58 -49 -102 -49q-28 0 -47 31t-19 88q0 73 31 144t83 116q39 35 95 60t109 25q24 0 63 -7q30 -6 51 -6l5 -4q-42 -171 -67 -317q-8 -41 2 -41q7 0 28.5 15.5t40.5 34.5zM173 69
q25 0 81 62.5t74 102.5q23 83 35 157q-24 13 -60 13q-32 0 -54 -16q-46 -33 -73 -109.5t-27 -150.5q0 -59 24 -59zM342 669q36 0 61.5 -24t24.5 -64t-32 -66t-71 -26q-38 0 -62.5 23.5t-23.5 61.5q1 42 31.5 68.5t71.5 26.5zM338 631q-19 0 -33 -16t-15 -39q-1 -21 10 -35
t29 -14q20 0 33.5 15.5t15.5 39.5q1 21 -10 35t-30 14z" />
    <glyph glyph-name="ae" unicode="&#xe6;" horiz-adv-x="679" 
d="M634 136l18 -27q-112 -121 -230 -121q-46 0 -79.5 31.5t-34.5 104.5q0 12 1 23l-2 1q-42 -59 -101 -108q-64 -52 -109 -52q-26 0 -45 28t-19 86q0 75 30.5 148.5t79.5 117.5q37 34 94.5 59.5t106.5 25.5q20 0 52 -9q26 0 43 4l4 -5l-13 -53l2 -2q33 31 74 48t77 17
q44 0 69 -23.5t25 -59.5q0 -113 -264 -182q-1 -5 -1 -29q0 -99 75 -99q71 0 147 76zM299 407q-32 0 -52 -14q-36 -24 -66 -97q-35 -84 -35 -172q0 -54 23 -54q30 0 74 50q55 62 77 113q9 21 22 79t15 79q-24 16 -58 16zM537 406q-22 0 -43 -16q-59 -43 -77 -165
q87 26 124 58.5t37 74.5q0 23 -11.5 35.5t-29.5 12.5z" />
    <glyph glyph-name="ccedilla" unicode="&#xe7;" horiz-adv-x="391" 
d="M345 127l17 -25q-69 -80 -151 -104l-21 -25q-9 -12 -8.5 -20.5t12.5 -23.5q31 -39 30 -69q-1 -31 -37.5 -59t-94.5 -45l-12 29q70 31 71 59q1 17 -20 40q-16 19 -16.5 32.5t15.5 33.5l31 38v1q-59 -4 -91 35t-32 110q0 66 28.5 133.5t79.5 111.5q35 31 83.5 52t88.5 21
q33 0 58.5 -16t25.5 -38q0 -27 -34 -52q-22 -17 -35 2q-37 53 -75 53t-64 -50q-43 -82 -43 -188q0 -104 66 -104q54 0 128 68z" />
    <glyph glyph-name="egrave" unicode="&#xe8;" horiz-adv-x="412" 
d="M366 135l18 -27q-115 -120 -226 -120q-50 0 -84.5 34t-34.5 114q0 73 31 142.5t87 112.5q33 26 75.5 43.5t78.5 17.5q47 0 72.5 -24t25.5 -60q0 -111 -259 -179q-1 -11 -1 -28q0 -44 17 -72.5t55 -28.5q31 0 70.5 20t74.5 55zM270 408q-18 0 -34 -11q-24 -15 -48.5 -58.5
t-33.5 -113.5q86 25 122 56.5t36 72.5q0 26 -13 40t-29 14zM323 500l-34 -10q-75 129 -98 165l4 13q9 4 43 9.5t49 4.5q4 -23 17 -86t19 -96z" />
    <glyph glyph-name="eacute" unicode="&#xe9;" horiz-adv-x="412" 
d="M366 135l18 -27q-115 -120 -226 -120q-50 0 -84.5 34t-34.5 114q0 73 31 142.5t87 112.5q33 26 75.5 43.5t78.5 17.5q47 0 72.5 -24t25.5 -60q0 -111 -259 -179q-1 -11 -1 -28q0 -44 17 -72.5t55 -28.5q31 0 70.5 20t74.5 55zM270 408q-18 0 -34 -11q-24 -15 -48.5 -58.5
t-33.5 -113.5q86 25 122 56.5t36 72.5q0 26 -13 40t-29 14zM430 661l-166 -171l-28 19q45 77 88 163q13 3 50 5t52 0z" />
    <glyph glyph-name="ecircumflex" unicode="&#xea;" horiz-adv-x="412" 
d="M366 135l18 -27q-115 -120 -226 -120q-50 0 -84.5 34t-34.5 114q0 73 31 142.5t87 112.5q33 26 75.5 43.5t78.5 17.5q47 0 72.5 -24t25.5 -60q0 -111 -259 -179q-1 -11 -1 -28q0 -44 17 -72.5t55 -28.5q31 0 70.5 20t74.5 55zM270 408q-18 0 -34 -11q-24 -15 -48.5 -58.5
t-33.5 -113.5q86 25 122 56.5t36 72.5q0 26 -13 40t-29 14zM391 511l-28 -22q-29 29 -74 89q-74 -63 -110 -89l-24 24q93 105 133 161h30q23 -66 73 -163z" />
    <glyph glyph-name="edieresis" unicode="&#xeb;" horiz-adv-x="412" 
d="M365 135l18 -27q-114 -120 -225 -120q-50 0 -84.5 34t-34.5 114q0 72 31 142t86 113q80 61 155 61q47 0 72.5 -24t25.5 -60q0 -110 -259 -179q-1 -11 -1 -28q0 -44 17 -72.5t54 -28.5q31 0 70.5 20t74.5 55zM269 408q-18 0 -34 -11q-24 -15 -48.5 -58.5t-33.5 -113.5
q159 46 159 129q0 26 -13.5 40t-29.5 14zM204 639q23 0 35 -14.5t12 -36.5q0 -28 -17 -47.5t-45 -19.5q-22 0 -35.5 14t-13.5 38t17.5 45t46.5 21zM392 639q23 0 35.5 -14.5t12.5 -36.5q0 -28 -17.5 -47.5t-44.5 -19.5q-22 0 -36 14t-14 38t17.5 45t46.5 21z" />
    <glyph glyph-name="igrave" unicode="&#xec;" horiz-adv-x="289" 
d="M246 118l16 -24q-41 -45 -90.5 -75.5t-75.5 -30.5q-50 0 -24 104l56 235q6 29 0 35q-17 0 -64 -38l-14 26q49 45 97.5 73.5t74.5 28.5q18 0 22.5 -24t-6.5 -68l-61 -247q-8 -37 3 -37q15 0 66 42zM241 499l-34 -10l-98 166l4 13q12 4 45 9.5t48 3.5q5 -29 17.5 -91.5
t17.5 -90.5z" />
    <glyph glyph-name="iacute" unicode="&#xed;" horiz-adv-x="289" 
d="M246 118l16 -24q-41 -45 -90.5 -75.5t-75.5 -30.5q-50 0 -24 104l56 235q6 29 0 35q-17 0 -64 -38l-14 26q49 45 97.5 73.5t74.5 28.5q18 0 22.5 -24t-6.5 -68l-61 -247q-8 -37 3 -37q15 0 66 42zM356 660l-166 -171l-28 19q50 88 88 163q12 4 50 6t52 0z" />
    <glyph glyph-name="icircumflex" unicode="&#xee;" horiz-adv-x="289" 
d="M246 118l16 -24q-41 -45 -90.5 -75.5t-75.5 -30.5q-50 0 -24 104l56 235q6 29 0 35q-17 0 -64 -38l-14 26q49 45 97.5 73.5t74.5 28.5q18 0 22.5 -24t-6.5 -68l-61 -247q-8 -37 3 -37q15 0 66 42zM311 510l-28 -22q-24 24 -75 89q-67 -59 -109 -89l-24 24q93 105 133 161
h30q25 -69 73 -163z" />
    <glyph glyph-name="idieresis" unicode="&#xef;" horiz-adv-x="289" 
d="M246 118l16 -24q-41 -45 -90.5 -75.5t-74.5 -30.5q-51 0 -25 104l56 235q6 29 0 35q-17 0 -64 -38l-14 26q49 45 97.5 73.5t74.5 28.5q18 0 22.5 -24t-6.5 -68l-61 -247q-8 -37 3 -37q15 0 66 42zM132 639q23 0 35.5 -14.5t12.5 -36.5q0 -28 -17.5 -47.5t-44.5 -19.5
q-22 0 -36 14t-14 37q0 25 17.5 46t46.5 21zM321 639q23 0 35.5 -14.5t12.5 -36.5q0 -28 -17.5 -47.5t-45.5 -19.5q-22 0 -36 14t-14 37q0 24 18 45.5t47 21.5z" />
    <glyph glyph-name="eth" unicode="&#xf0;" horiz-adv-x="480" 
d="M486 643l-111 -58q40 -51 62.5 -116.5t22.5 -129.5q0 -88 -28.5 -162.5t-80.5 -121.5q-75 -67 -165 -67q-73 0 -107 47.5t-34 114.5q0 93 42.5 163t103.5 102q65 36 120 36q13 0 37 -6q-2 45 -38 106l-140 -71l-15 34l131 67q-20 28 -57.5 56.5t-66.5 38.5q6 20 16 30
q36 -6 85 -32.5t83 -59.5l123 63zM223 31q14 0 27 5q36 15 69 96.5t32 202.5q0 41 -16 57q-21 19 -49 19q-20 0 -40 -11q-29 -14 -58.5 -79.5t-29.5 -168.5q0 -55 17.5 -88t47.5 -33z" />
    <glyph glyph-name="ntilde" unicode="&#xf1;" horiz-adv-x="543" 
d="M498 119l15 -28q-49 -51 -91.5 -77t-68.5 -26q-50 0 -24 106l49 213q16 63 -6 65q-26 0 -85 -62.5t-91 -118.5q-27 -106 -41 -182q-55 -6 -99 -20l-7 8q48 191 77 330q9 39 -1 39q-6 0 -27 -13.5t-37 -28.5l-13 28q46 47 89.5 73.5t69.5 26.5q43 0 16 -121l-15 -63h2
q71 96 159 156q44 28 77 28q18 0 28 -9.5t14.5 -43t-12.5 -97.5l-44 -190q-8 -35 3 -35q19 0 63 42zM439 628l29 -15q-32 -97 -86 -97q-16 0 -68 23q-28 14 -46 14q-26 0 -48 -45l-28 20q16 46 39 69t47 23q22 0 61 -19q38 -18 54 -18q21 0 46 45z" />
    <glyph glyph-name="ograve" unicode="&#xf2;" horiz-adv-x="484" 
d="M186 -12q-76 0 -110 46.5t-34 114.5q0 92 43.5 163t106.5 104q64 36 123 36q69 0 106 -42.5t37 -115.5q0 -68 -27.5 -133.5t-79.5 -108.5q-74 -64 -165 -64zM224 31q13 0 28 5q35 14 64 88.5t29 171.5q0 57 -18.5 85.5t-48.5 28.5q-16 0 -29 -6q-31 -15 -62.5 -83.5
t-31.5 -175.5q0 -54 19.5 -84t49.5 -30zM347 500l-34 -10q-75 129 -98 165l4 13q9 4 43 9.5t49 4.5q4 -23 17 -86t19 -96z" />
    <glyph glyph-name="oacute" unicode="&#xf3;" horiz-adv-x="484" 
d="M186 -12q-76 0 -110 46.5t-34 114.5q0 92 43.5 163t106.5 104q64 36 123 36q69 0 106 -42.5t37 -115.5q0 -68 -27.5 -133.5t-79.5 -108.5q-74 -64 -165 -64zM224 31q13 0 28 5q35 14 64 88.5t29 171.5q0 57 -18.5 85.5t-48.5 28.5q-16 0 -29 -6q-31 -15 -62.5 -83.5
t-31.5 -175.5q0 -54 19.5 -84t49.5 -30zM443 661l-166 -171l-28 19q45 77 88 163q13 3 50 5t52 0z" />
    <glyph glyph-name="ocircumflex" unicode="&#xf4;" horiz-adv-x="484" 
d="M186 -12q-76 0 -110 46.5t-34 114.5q0 92 43.5 163t106.5 104q64 36 123 36q69 0 106 -42.5t37 -115.5q0 -68 -27.5 -133.5t-79.5 -108.5q-74 -64 -165 -64zM224 31q13 0 28 5q35 14 64 88.5t29 171.5q0 57 -18.5 85.5t-48.5 28.5q-16 0 -29 -6q-31 -15 -62.5 -83.5
t-31.5 -175.5q0 -54 19.5 -84t49.5 -30zM419 511l-28 -22q-29 29 -74 89q-74 -63 -110 -89l-24 24q93 105 133 161h30q23 -66 73 -163z" />
    <glyph glyph-name="otilde" unicode="&#xf5;" horiz-adv-x="484" 
d="M186 -12q-76 0 -110 46.5t-34 114.5q0 92 43.5 163t106.5 104q64 36 123 36q69 0 106 -42.5t37 -115.5q0 -68 -27.5 -133.5t-79.5 -108.5q-74 -64 -165 -64zM224 31q13 0 28 5q35 14 64 88.5t29 171.5q0 57 -18.5 85.5t-48.5 28.5q-16 0 -29 -6q-31 -15 -62.5 -83.5
t-31.5 -175.5q0 -54 19.5 -84t49.5 -30zM418 628l30 -15q-33 -97 -87 -97q-16 0 -68 23q-26 13 -46 13q-25 0 -49 -44l-28 20q16 46 39.5 69t47.5 23q19 0 61 -19q40 -17 54 -17q23 0 46 44z" />
    <glyph glyph-name="odieresis" unicode="&#xf6;" horiz-adv-x="484" 
d="M186 -12q-76 0 -110 46.5t-34 114.5q0 92 43.5 163t106.5 104q65 36 124 36q68 0 105 -42.5t37 -115.5q0 -68 -27.5 -133.5t-78.5 -108.5q-76 -64 -166 -64zM225 31q12 0 27 5q35 14 64 88.5t29 171.5q0 57 -18.5 85.5t-47.5 28.5q-17 0 -30 -6q-31 -15 -62.5 -83.5
t-31.5 -175.5q0 -54 19.5 -84t50.5 -30zM229 639q23 0 35.5 -14.5t12.5 -36.5q0 -28 -17.5 -47.5t-44.5 -19.5q-22 0 -36 14t-14 38t17.5 45t46.5 21zM417 639q23 0 35.5 -14.5t12.5 -36.5q0 -28 -17.5 -47.5t-44.5 -19.5q-22 0 -36 14t-14 38t17.5 45t46.5 21z" />
    <glyph glyph-name="divide" unicode="&#xf7;" horiz-adv-x="603" 
d="M313 351q-21 0 -37.5 17t-16.5 39t17 39.5t38 17.5q24 0 40.5 -17t16.5 -40t-17 -39.5t-41 -16.5zM555 225h-484v59h484v-59zM314 158q21 0 38 -16.5t17 -39.5q0 -22 -17.5 -39.5t-38.5 -17.5q-24 0 -40 17t-16 40q0 24 16.5 40t40.5 16z" />
    <glyph glyph-name="oslash" unicode="&#xf8;" horiz-adv-x="485" 
d="M428 485l25 -20l-36 -50q42 -41 42 -127q0 -64 -27.5 -128t-76.5 -106q-32 -28 -78.5 -47t-89.5 -19q-47 0 -76 19l-40 -52l-23 23l36 48q-41 44 -41 126q0 91 41.5 160.5t103.5 103.5q69 37 128 37q44 0 74 -18zM154 116l185 250q-17 45 -56 45q-19 0 -32 -6
q-34 -15 -68.5 -78t-34.5 -166q0 -24 6 -45zM351 326l-186 -249q19 -45 56 -45q18 0 29 5q37 14 71 86.5t33 168.5q0 19 -3 34z" />
    <glyph glyph-name="ugrave" unicode="&#xf9;" horiz-adv-x="541" 
d="M502 123l15 -27q-45 -52 -89.5 -80t-72.5 -28q-47 0 -23 103q10 41 15 72h-1q-78 -102 -156 -151q-36 -24 -73 -24q-69 0 -37 139l47 199q7 36 -1 41q-9 0 -64 -43l-12 28q46 45 92 72.5t72 27.5q20 0 24.5 -21t-7.5 -76q-12 -56 -51 -220q-14 -64 10 -64q33 0 88.5 61.5
t81.5 109.5q22 92 41 183l95 27h13q-48 -191 -75 -333q-8 -42 2 -42q6 0 27 14t39 32zM365 499l-34 -10l-99 166l4 13q12 4 45.5 9.5t48.5 3.5q5 -29 17.5 -91.5t17.5 -90.5z" />
    <glyph glyph-name="uacute" unicode="&#xfa;" horiz-adv-x="541" 
d="M502 123l15 -27q-45 -52 -89.5 -80t-72.5 -28q-47 0 -23 103q10 41 15 72h-1q-78 -102 -156 -151q-36 -24 -73 -24q-69 0 -37 139l47 199q7 36 -1 41q-9 0 -64 -43l-12 28q46 45 92 72.5t72 27.5q20 0 24.5 -21t-7.5 -76q-12 -56 -51 -220q-14 -64 10 -64q33 0 88.5 61.5
t81.5 109.5q22 92 41 183l95 27h13q-48 -191 -75 -333q-8 -42 2 -42q6 0 27 14t39 32zM481 660l-166 -171l-28 19q48 81 89 163q12 4 49.5 6t51.5 0z" />
    <glyph glyph-name="ucircumflex" unicode="&#xfb;" horiz-adv-x="541" 
d="M502 123l15 -27q-45 -52 -89.5 -80t-72.5 -28q-47 0 -23 103q10 41 15 72h-1q-78 -102 -156 -151q-36 -24 -73 -24q-69 0 -37 139l47 199q7 36 -1 41q-9 0 -64 -43l-12 28q46 45 92 72.5t72 27.5q20 0 24.5 -21t-7.5 -76q-12 -56 -51 -220q-14 -64 10 -64q33 0 88.5 61.5
t81.5 109.5q22 92 41 183l95 27h13q-48 -191 -75 -333q-8 -42 2 -42q6 0 27 14t39 32zM447 510l-28 -22q-29 29 -74 89q-62 -55 -110 -89l-24 24q93 105 133 161h30q29 -79 73 -163z" />
    <glyph glyph-name="udieresis" unicode="&#xfc;" horiz-adv-x="541" 
d="M503 123l15 -27q-46 -52 -90.5 -80t-72.5 -28q-47 0 -23 103q10 41 15 72h-1q-78 -102 -156 -151q-36 -24 -73 -24q-69 0 -37 139l47 199q7 36 -1 41q-9 0 -64 -43l-12 28q46 44 91.5 72t71.5 28q22 0 26.5 -21t-8.5 -76l-51 -220q-14 -64 10 -64q33 0 88.5 61.5
t81.5 109.5q22 92 41 183l96 27h13q-48 -188 -76 -333q-8 -42 3 -42q6 0 27 14t39 32zM258 639q22 0 34.5 -15t12.5 -36q0 -28 -17.5 -47.5t-45.5 -19.5q-22 0 -36 14t-14 38q0 25 17.5 45.5t48.5 20.5zM446 639q22 0 34.5 -15t12.5 -36q0 -28 -17.5 -47.5t-45.5 -19.5
q-22 0 -35.5 14t-13.5 38t17.5 45t47.5 21z" />
    <glyph glyph-name="yacute" unicode="&#xfd;" horiz-adv-x="459" 
d="M262 89h2q118 176 118 249q-1 19 -14 51q-5 17 3 32q17 31 50 31q19 0 33 -17t15 -46q0 -45 -38 -110q-60 -101 -169 -255q-110 -157 -185 -242l-122 -30l-8 25q147 97 226 201q1 58 -10 160.5t-24 173.5q-9 51 -21 51q-16 0 -55 -54l-20 26q31 50 68.5 83.5t66.5 33.5
q25 0 40 -30t23 -99q13 -105 21 -234zM452 660l-167 -171l-28 19q58 101 89 163q12 4 49.5 6t52.5 0z" />
    <glyph glyph-name="thorn" unicode="&#xfe;" horiz-adv-x="503" 
d="M199 313h2q59 71 114 105t94 34q33 0 54.5 -31t21.5 -88q0 -85 -40.5 -165t-107.5 -126q-37 -26 -80 -40t-60 -14q-28 0 -59 12q-14 -80 -22 -122q-8 -45 1.5 -60t50.5 -19l22 -2l-2 -31l-265 -12l3 32q47 8 62 23.5t27 72.5l135 686q8 50 1 61t-47 13h-19l5 30
q37 4 77.5 13.5t67 17t32.5 7.5q15 0 8 -31zM340 378q-24 0 -65 -33.5t-85 -98.5q-16 -73 -37 -182q29 -29 67 -29q32 0 53 15q37 24 68 102.5t31 161.5q0 64 -32 64z" />
    <glyph glyph-name="ydieresis" unicode="&#xff;" horiz-adv-x="459" 
d="M262 89h2q118 176 118 249q-1 19 -14 51q-5 17 3 32q17 31 50 31q19 0 33 -17t15 -46q0 -45 -38 -110q-60 -101 -169 -255q-110 -157 -185 -242l-122 -30l-8 25q147 97 226 201q1 58 -10 160.5t-24 173.5q-9 51 -21 51q-14 0 -55 -54l-20 26q31 50 68.5 83.5t66.5 33.5
q25 0 40 -30t23 -98q13 -107 21 -235zM220 639q23 0 35.5 -14.5t12.5 -36.5q0 -28 -17.5 -47.5t-44.5 -19.5q-22 0 -36 14t-14 38t17.5 45t46.5 21zM409 639q23 0 35.5 -14.5t12.5 -36.5q0 -28 -17.5 -47.5t-44.5 -19.5q-22 0 -36 14t-14 38t17.5 45t46.5 21z" />
    <glyph glyph-name="Amacron" unicode="&#x100;" horiz-adv-x="669" 
d="M627 31l-8 -31h-259l9 31q46 5 56.5 17.5t5.5 48.5q-5 29 -19 125h-198l-60 -122q-19 -37 -9.5 -49.5t65.5 -19.5l-8 -31h-221l8 31q47 8 66.5 24.5t58.5 83.5l293 513l44 11l22 -137q11 -71 34 -204t32 -191q10 -62 23.5 -78t64.5 -22zM405 270l-35 236h-3l-57 -103.5
l-71 -132.5h166zM562 774l-16 -62h-233l17 62h232z" />
    <glyph glyph-name="amacron" unicode="&#x101;" horiz-adv-x="509" 
d="M477 127l15 -26q-44 -53 -91.5 -83t-74.5 -30q-44 0 -24 99l14 68h-3q-45 -64 -109 -118q-58 -49 -102 -49q-28 0 -47 31t-19 88q0 73 31 144t83 116q39 35 95 60t109 25q24 0 63 -7q30 -6 51 -6l5 -4q-42 -171 -67 -317q-8 -41 2 -41q7 0 28.5 15.5t40.5 34.5zM173 69
q25 0 81 62.5t74 102.5q23 83 35 157q-24 13 -60 13q-32 0 -54 -16q-46 -33 -73 -109.5t-27 -150.5q0 -59 24 -59zM455 601l-15 -63h-232l15 63h232z" />
    <glyph glyph-name="Abreve" unicode="&#x102;" horiz-adv-x="669" 
d="M627 31l-8 -31h-259l9 31q46 5 56.5 17.5t5.5 48.5q-5 29 -19 125h-198l-60 -122q-19 -37 -9.5 -49.5t65.5 -19.5l-8 -31h-221l8 31q47 8 66.5 24.5t58.5 83.5l293 513l44 11l22 -137q11 -71 34 -204t32 -191q10 -62 23.5 -78t64.5 -22zM405 270l-35 236h-3l-57 -103.5
l-71 -132.5h166zM535 816h34q-24 -127 -139 -127q-55 0 -81.5 33t-20.5 94h34q9 -58 77 -58q64 0 96 58z" />
    <glyph glyph-name="abreve" unicode="&#x103;" horiz-adv-x="509" 
d="M477 127l15 -26q-44 -53 -91.5 -83t-74.5 -30q-44 0 -24 99l14 68h-3q-45 -64 -109 -118q-58 -49 -102 -49q-28 0 -47 31t-19 88q0 73 31 144t83 116q39 35 95 60t109 25q24 0 63 -7q30 -6 51 -6l5 -4q-42 -171 -67 -317q-8 -41 2 -41q7 0 28.5 15.5t40.5 34.5zM173 69
q25 0 81 62.5t74 102.5q23 83 35 157q-24 13 -60 13q-32 0 -54 -16q-46 -33 -73 -109.5t-27 -150.5q0 -59 24 -59zM424 643h33q-22 -138 -137 -138q-50 0 -77.5 32.5t-15.5 105.5h34q0 -33 18 -51t51 -18q67 0 94 69z" />
    <glyph glyph-name="Aogonek" unicode="&#x104;" horiz-adv-x="669" 
d="M626 31l-8 -31h-174q-41 -33 -63 -71.5t-22 -71.5q0 -17 12 -27.5t29 -10.5q20 0 47 11l7 -30l-59 -32q-22 -11 -43 -11q-32 0 -53 19.5t-21 52.5q0 82 143 201q15 12 12 37q-2 23 -22 154h-197q-40 -77 -60 -121q-19 -37 -9.5 -49.5t65.5 -19.5l-8 -31h-221l8 31
q46 8 66 24.5t59 83.5l292 513l44 11l21 -137q5 -32 29.5 -175.5t36.5 -219.5q11 -62 24.5 -78t64.5 -22zM239 270h165l-35 236h-3l-59 -108t-68 -128z" />
    <glyph glyph-name="aogonek" unicode="&#x105;" horiz-adv-x="508" 
d="M313 155q-47 -66 -110 -118q-58 -49 -101 -49q-28 0 -47 31t-19 88q0 73 31 144t83 117q39 34 95 59t108 25h1q26 0 63 -8q29 -6 50 -6l5 -4q-38 -155 -67 -316q-8 -40 2 -40q7 0 29 15.5t40 33.5l15 -26q-68 -81 -144 -107q-38 -30 -63 -70.5t-25 -67.5q0 -17 11 -26.5
t27 -9.5q18 0 43 9l7 -30l-56 -29q-20 -11 -41 -11q-32 0 -52.5 18t-20.5 49q0 73 128 172q-21 13 -5 89zM303 404q-31 0 -53 -16q-46 -33 -73.5 -109t-27.5 -150q0 -58 24 -58q25 0 80 61.5t75 102.5q27 106 35 155q-24 14 -60 14z" />
    <glyph glyph-name="Cacute" unicode="&#x106;" horiz-adv-x="645" 
d="M589 185l30 -15q-33 -87 -80 -160q-100 -25 -175 -25q-134 0 -217 75t-83 211q0 177 123 285t303 108q86 0 173 -30q-3 -81 -9 -162l-33 -3q-10 87 -47 121.5t-105 34.5q-115 0 -195 -103.5t-80 -246.5q0 -114 48.5 -182t131.5 -68q60 0 109.5 39t105.5 121zM609 768
l-4 -11l-202 -59l-15 28l171 112q13 -3 30 -27.5t20 -42.5z" />
    <glyph glyph-name="cacute" unicode="&#x107;" horiz-adv-x="392" 
d="M347 128l17 -27q-48 -54 -103 -83.5t-103 -29.5q-56 0 -87 38.5t-31 110.5q0 65 28 130.5t79 110.5q34 30 81.5 52t86.5 22q35 0 59.5 -16t24.5 -39q2 -33 -39 -56q-15 -11 -27 4q-36 56 -78 56q-35 0 -62 -53q-40 -77 -40 -184q0 -104 66 -104q31 0 67.5 22t60.5 46z
M437 661l-166 -171l-28 19q45 77 88 163q13 3 50 5t52 0z" />
    <glyph glyph-name="Ccircumflex" unicode="&#x108;" horiz-adv-x="645" 
d="M589 185l30 -15q-33 -87 -80 -160q-100 -25 -175 -25q-134 0 -217 75t-83 211q0 177 123 285t303 108q86 0 173 -30q-3 -81 -9 -162l-33 -3q-10 87 -47 121.5t-105 34.5q-115 0 -195 -103.5t-80 -246.5q0 -114 48.5 -182t131.5 -68q60 0 109.5 39t105.5 121zM603 722
l-20 -27q-72 30 -116 57q-66 -33 -132 -57l-15 27q65 43 143 110h30q50 -57 110 -110z" />
    <glyph glyph-name="ccircumflex" unicode="&#x109;" horiz-adv-x="392" 
d="M347 128l17 -27q-48 -54 -103 -83.5t-103 -29.5q-56 0 -87 38.5t-31 110.5q0 65 28 130.5t79 110.5q34 30 81.5 52t86.5 22q35 0 59.5 -16t24.5 -39q2 -33 -39 -56q-15 -11 -27 4q-36 56 -78 56q-35 0 -62 -53q-40 -77 -40 -184q0 -104 66 -104q31 0 67.5 22t60.5 46z
M402 511l-28 -22q-29 29 -74 89q-74 -63 -110 -89l-24 24q93 105 133 161h30q23 -66 73 -163z" />
    <glyph glyph-name="Cdotaccent" unicode="&#x10a;" horiz-adv-x="645" 
d="M588 185l31 -15q-37 -90 -81 -160q-97 -25 -174 -25q-134 0 -217 75t-83 211q0 177 123 285t303 108q75 0 173 -29q-3 -83 -9 -163l-33 -3q-10 87 -47 121.5t-105 33.5q-115 0 -195 -103t-80 -247q0 -113 48.5 -181t131.5 -68q60 0 109.5 39.5t104.5 120.5zM478 834
q24 0 37.5 -16t13.5 -39q0 -28 -19 -49t-47 -21q-23 0 -37.5 15t-14.5 40t18 47.5t49 22.5z" />
    <glyph glyph-name="cdotaccent" unicode="&#x10b;" horiz-adv-x="392" 
d="M347 128l17 -27q-48 -54 -103 -83.5t-103 -29.5q-56 0 -87 38.5t-31 110.5q0 65 28 130.5t79 110.5q34 30 81.5 52t86.5 22q35 0 59.5 -16t24.5 -39q2 -33 -39 -56q-15 -11 -27 4q-36 56 -78 56q-35 0 -62 -53q-40 -77 -40 -184q0 -104 66 -104q31 0 67.5 22t60.5 46z
M306 644q24 0 37.5 -16t13.5 -38q0 -29 -19 -50t-47 -21q-23 0 -37.5 15t-14.5 40t18 47.5t49 22.5z" />
    <glyph glyph-name="Ccaron" unicode="&#x10c;" horiz-adv-x="645" 
d="M589 185l30 -15q-33 -87 -80 -160q-100 -25 -175 -25q-134 0 -217 75t-83 211q0 177 123 285t303 108q86 0 173 -30q-3 -81 -9 -162l-33 -3q-10 87 -47 121.5t-105 34.5q-115 0 -195 -103.5t-80 -246.5q0 -114 48.5 -182t131.5 -68q60 0 109.5 39t105.5 121zM598 839
l16 -25q-80 -55 -143 -112h-31q-57 66 -108 112l20 25q63 -27 114 -56q87 41 132 56z" />
    <glyph glyph-name="ccaron" unicode="&#x10d;" horiz-adv-x="392" 
d="M347 128l17 -27q-48 -54 -103 -83.5t-103 -29.5q-56 0 -87 38.5t-31 110.5q0 65 28 130.5t79 110.5q34 30 81.5 52t86.5 22q35 0 59.5 -16t24.5 -39q2 -33 -39 -56q-15 -11 -27 4q-36 56 -78 56q-35 0 -62 -53q-40 -77 -40 -184q0 -104 66 -104q31 0 67.5 22t60.5 46z
M403 677l25 -23q-83 -91 -133 -162h-30q-22 63 -73 164l29 21q31 -33 73 -90q71 63 109 90z" />
    <glyph glyph-name="Dcaron" unicode="&#x10e;" horiz-adv-x="724" 
d="M125 649h254q161 0 248 -68t87 -207q0 -95 -42.5 -174t-122.5 -128q-118 -72 -314 -72h-231l8 31q55 5 71 21t27 72l76 398q11 59 0 74.5t-69 21.5zM303 549l-77 -412q-13 -66 10 -82q19 -14 59 -14q130 0 210.5 99t80.5 243q0 102 -53.5 165t-153.5 63q-42 0 -56 -11
q-12 -10 -20 -51zM557 825l17 -26q-69 -47 -143 -111h-31q-58 68 -108 111l20 26q65 -27 114 -57q75 37 131 57z" />
    <glyph glyph-name="dcaron" unicode="&#x10f;" horiz-adv-x="525" 
d="M490 122l15 -26q-42 -51 -89 -79.5t-74 -28.5q-44 0 -25 95l15 72h-2q-51 -67 -122 -123q-55 -44 -97 -44q-32 0 -53 32.5t-21 91.5q0 72 31 144t84 117q36 31 91.5 55t88.5 24q30 0 57 -8l29 147q6 33 -1 41t-42 9h-22l4 30q41 4 80.5 13t63 15.5t29.5 6.5q15 0 7 -32
q-64 -278 -116 -560q-8 -38 3 -38q20 0 66 46zM179 69q31 0 84.5 57.5t80.5 108.5l31 143q-28 28 -75 28q-30 0 -52 -15q-44 -32 -71 -112t-27 -146q0 -64 29 -64zM631 709q25 0 40.5 -20.5t15.5 -50.5q0 -49 -33 -82t-83 -46l-12 29q63 31 63 68q0 27 -28 39q-11 4 -11 22
q0 17 14 29t34 12z" />
    <glyph glyph-name="Dcroat" unicode="&#x110;" horiz-adv-x="731" 
d="M131 649h259q155 0 242 -67t87 -204q0 -96 -42.5 -176t-123.5 -130q-118 -72 -316 -72h-228l9 31q56 5 71.5 20t26.5 71l38 196h-103l11 45h100l32 163q11 59 0 73t-71 19zM265 318l-34 -186q-12 -64 13 -79q19 -13 59 -13q87 0 154.5 49.5t101 127.5t33.5 169
q0 109 -52 167t-148 58q-43 0 -59 -9q-15 -8 -23 -48l-36 -191h146l-10 -45h-145z" />
    <glyph glyph-name="dcroat" unicode="&#x111;" horiz-adv-x="525" 
d="M595 566l-9 -40h-81q-45 -207 -82 -412q-8 -38 4 -38q8 0 27.5 14t37.5 32l15 -26q-42 -50 -88 -79t-73 -29q-48 0 -28 93l15 75h-2q-51 -69 -120 -123q-57 -45 -101 -45q-32 0 -53 33t-21 91q0 72 31 144t83 117q37 31 92.5 55t91.5 24q29 0 55 -8l17 82h-135l9 40h134
l4 22q7 35 -0.5 44t-42.5 10h-20l3 28q41 4 80.5 13t63 16t29.5 7q15 0 7 -33l-24 -107h81zM300 406q-32 0 -54 -16q-44 -32 -70.5 -111.5t-26.5 -145.5t28 -66q31 0 87 59t82 109l30 143q-28 28 -76 28z" />
    <glyph glyph-name="Emacron" unicode="&#x112;" horiz-adv-x="566" 
d="M124 649h450q-1 -6 -7.5 -65t-10.5 -91l-33 -2q-3 70 -18 91q-9 16 -27 22t-63 6h-60q-27 0 -34.5 -6.5t-12.5 -35.5l-40 -206h77q44 0 63 5.5t28 18t25 49.5h33l-39 -200h-34q2 58 -9.5 70t-74.5 12h-78l-32 -172q-13 -71 3 -88q15 -18 90 -18q88 0 122 33q34 32 70 97
l32 -12q-40 -111 -62 -157h-480l7 31q59 5 74 19t27 74l77 401q11 58 0 73t-70 20zM511 776l-15 -62h-235l17 62h233z" />
    <glyph glyph-name="emacron" unicode="&#x113;" horiz-adv-x="412" 
d="M366 135l18 -27q-115 -120 -226 -120q-50 0 -84.5 34t-34.5 114q0 73 31 142.5t87 112.5q33 26 75.5 43.5t78.5 17.5q47 0 72.5 -24t25.5 -60q0 -111 -259 -179q-1 -11 -1 -28q0 -44 17 -72.5t55 -28.5q31 0 70.5 20t74.5 55zM270 408q-18 0 -34 -11q-24 -15 -48.5 -58.5
t-33.5 -113.5q86 25 122 56.5t36 72.5q0 26 -13 40t-29 14zM408 602l-15 -63h-232l15 63h232z" />
    <glyph glyph-name="Ebreve" unicode="&#x114;" horiz-adv-x="566" 
d="M124 649h450q-1 -6 -7.5 -65t-10.5 -91l-33 -2q-3 70 -18 91q-9 16 -27 22t-63 6h-60q-27 0 -34.5 -6.5t-12.5 -35.5l-41 -206h77q62 0 78.5 11t37.5 62h34l-40 -200h-33q1 58 -10.5 70t-74.5 12h-78l-32 -172q-13 -71 3 -88q15 -18 90 -18q87 0 123 33q34 32 70 97
l32 -12q-34 -94 -62 -157h-481l7 31q59 5 74 19t27 74l77 401q11 58 0 73t-70 20zM485 819h35q-11 -62 -47 -95t-93 -33q-55 0 -81.5 33t-20.5 95h34q9 -59 77 -59q65 0 96 59z" />
    <glyph glyph-name="ebreve" unicode="&#x115;" horiz-adv-x="412" 
d="M366 135l18 -27q-115 -120 -226 -120q-50 0 -84.5 34t-34.5 114q0 73 31 142.5t87 112.5q33 26 75.5 43.5t78.5 17.5q47 0 72.5 -24t25.5 -60q0 -111 -259 -179q-1 -11 -1 -28q0 -44 17 -72.5t55 -28.5q31 0 70.5 20t74.5 55zM270 408q-18 0 -34 -11q-24 -15 -48.5 -58.5
t-33.5 -113.5q86 25 122 56.5t36 72.5q0 26 -13 40t-29 14zM380 643h33q-22 -138 -138 -138q-50 0 -77.5 32.5t-14.5 105.5h33q0 -33 18 -51t51 -18q68 0 95 69z" />
    <glyph glyph-name="Edotaccent" unicode="&#x116;" horiz-adv-x="566" 
d="M124 649h450q-1 -6 -7.5 -65t-10.5 -91l-33 -2q-3 70 -18 91q-9 16 -27 22t-63 6h-60q-27 0 -34.5 -6.5t-12.5 -35.5l-41 -206h78q44 0 62.5 5.5t27.5 18t25 49.5h34l-40 -200h-34q2 58 -9.5 70t-73.5 12h-78l-33 -172q-13 -71 3 -88q15 -18 90 -18q88 0 122 33
q36 34 71 97l32 -12q-34 -94 -62 -157h-480l6 31q59 5 74.5 19t26.5 74l78 401q11 59 0 73.5t-71 19.5zM397 822q24 0 37.5 -15.5t13.5 -38.5q0 -29 -19 -50t-47 -21q-23 0 -37.5 15t-15.5 40q0 26 18.5 48t49.5 22z" />
    <glyph glyph-name="edotaccent" unicode="&#x117;" horiz-adv-x="412" 
d="M365 135l18 -27q-114 -120 -225 -120q-50 0 -84.5 34t-34.5 114q0 73 31 142.5t87 112.5q33 26 75 43.5t78 17.5q47 0 72.5 -24t25.5 -60q0 -111 -258 -179q-1 -11 -1 -28q0 -44 17 -72.5t55 -28.5q67 0 144 75zM269 408q-18 0 -34 -11q-23 -15 -47.5 -58.5t-33.5 -113.5
q85 25 121 56.5t36 72.5q0 26 -13 40t-29 14zM315 644q24 0 37 -16t13 -38q0 -29 -18.5 -50t-46.5 -21q-24 0 -38.5 15t-14.5 40t18.5 47.5t49.5 22.5z" />
    <glyph glyph-name="Eogonek" unicode="&#x118;" horiz-adv-x="566" 
d="M125 649h449q-1 -5 -7.5 -65t-10.5 -91l-33 -3q-3 70 -19 92q-9 16 -28 22t-64 6h-58q-26 0 -34 -7t-13 -35l-39 -206h77q44 0 62.5 5.5t27.5 18t25 49.5h34l-40 -200h-34q2 58 -9.5 70t-73.5 12h-78l-32 -172q-14 -69 2 -88q17 -18 91 -18q83 0 120 34q39 37 72 96
l32 -12q-34 -94 -62 -157h-52q-46 -34 -78 -77t-32 -71q0 -34 39 -34q23 0 44 10l7 -30l-58 -31q-22 -10 -40 -10q-33 0 -55 18.5t-22 49.5q0 43 42.5 91.5t100.5 83.5h-376l7 31q58 5 73.5 19t26.5 74l78 401q11 58 0 73t-70 20z" />
    <glyph glyph-name="eogonek" unicode="&#x119;" horiz-adv-x="412" 
d="M365 136l19 -26q-62 -66 -112 -90q-109 -92 -109 -162q0 -18 12 -27.5t29 -9.5q21 0 43 11l7 -30l-58 -31q-20 -11 -42 -11q-32 0 -52.5 18.5t-20.5 49.5q0 40 33 83.5t84 80.5v1q-159 -21 -159 143q0 72 31.5 142t86.5 113q33 26 76 43.5t79 17.5q46 0 71.5 -24.5
t25.5 -60.5q0 -111 -260 -179q-1 -12 -1 -27q0 -100 73 -100q30 0 69 20.5t75 54.5zM270 407q-18 0 -34 -11q-24 -15 -49 -58t-34 -113q159 46 159 129q0 26 -13 39.5t-29 13.5z" />
    <glyph glyph-name="Ecaron" unicode="&#x11a;" horiz-adv-x="566" 
d="M124 649h450q-1 -6 -7.5 -65t-10.5 -91l-33 -2q-3 70 -18 91q-9 16 -27 22t-63 6h-60q-27 0 -34.5 -6.5t-12.5 -35.5l-40 -206h77q44 0 63 5.5t28 18t25 49.5h33l-39 -200h-34q2 58 -9.5 70t-74.5 12h-78l-32 -172q-13 -71 3 -88q15 -18 90 -18q88 0 122 33q34 32 70 97
l32 -12q-40 -111 -62 -157h-480l7 31q59 5 74 19t27 74l77 401q11 58 0 73t-70 20zM520 821l16 -26q-67 -45 -144 -111h-30q-55 62 -108 111l20 26q65 -27 114 -57q66 33 132 57z" />
    <glyph glyph-name="ecaron" unicode="&#x11b;" horiz-adv-x="412" 
d="M366 135l18 -27q-115 -120 -226 -120q-50 0 -84.5 34t-34.5 114q0 73 31 142.5t87 112.5q33 26 75.5 43.5t78.5 17.5q47 0 72.5 -24t25.5 -60q0 -111 -259 -179q-1 -11 -1 -28q0 -44 17 -72.5t55 -28.5q31 0 70.5 20t74.5 55zM270 408q-18 0 -34 -11q-24 -15 -48.5 -58.5
t-33.5 -113.5q86 25 122 56.5t36 72.5q0 26 -13 40t-29 14zM403 677l25 -23q-83 -91 -133 -162h-30q-22 63 -73 164l29 21q31 -33 73 -90q71 63 109 90z" />
    <glyph glyph-name="Gcircumflex" unicode="&#x11c;" horiz-adv-x="692" 
d="M663 473l-33 -3q-10 154 -156 154q-117 0 -198 -102t-81 -247q0 -114 51.5 -182t141.5 -68q37 0 59 14t30 53l17 89q10 55 -3.5 67.5t-87.5 20.5l8 31h277l-8 -31q-41 -6 -52 -19.5t-21 -68.5l-15 -81q-9 -46 -6 -76q-144 -39 -214 -39q-141 0 -224.5 75.5t-83.5 211.5
q0 174 122 283t311 109q97 0 178 -29q-7 -75 -12 -162zM611 720l-20 -26q-65 26 -115 56q-66 -33 -132 -56l-16 26q68 44 144 111l30 -1q47 -55 109 -110z" />
    <glyph glyph-name="gcircumflex" unicode="&#x11d;" horiz-adv-x="438" 
d="M492 448l10 -21q-44 -46 -80 -54q-2 0 -20 -2q7 -25 7 -49q0 -83 -71 -144q-47 -39 -143 -61q-14 -11 -14 -23q0 -18 69 -53q77 -37 110 -69t33 -67q0 -41 -41.5 -77.5t-99.5 -56t-112 -19.5q-77 0 -131 32.5t-53 78.5q1 33 41.5 65.5t120.5 71.5q-37 23 -35 50
q0 29 71 67q-97 20 -97 121q0 47 22.5 90.5t63.5 73.5q68 50 139 50q53 0 92 -28q79 1 118 24zM210 158q38 0 68.5 48.5t30.5 124.5q0 38 -13 61t-38 23q-38 0 -67 -57q-30 -58 -30 -124q0 -35 13 -55.5t36 -20.5zM187 -202q50 0 80 19.5t30 47.5q0 34 -63 71q-40 23 -86 45
q-37 -20 -60.5 -46t-23.5 -52q0 -35 37.5 -60t85.5 -25zM386 511l-28 -22q-29 29 -74 89q-74 -63 -110 -89l-24 24q93 105 133 161h30q23 -66 73 -163z" />
    <glyph glyph-name="Gbreve" unicode="&#x11e;" horiz-adv-x="692" 
d="M663 473l-33 -3q-10 154 -156 154q-117 0 -198 -102t-81 -247q0 -114 51.5 -182t141.5 -68q37 0 59 14t30 53l17 89q10 55 -3.5 67.5t-87.5 20.5l8 31h277l-8 -31q-41 -6 -52 -19.5t-21 -68.5l-15 -81q-9 -46 -6 -76q-144 -39 -214 -39q-141 0 -224.5 75.5t-83.5 211.5
q0 174 122 283t311 109q97 0 178 -29q-7 -75 -12 -162zM576 828h35q-23 -128 -139 -128q-55 0 -81.5 33t-20.5 95h34q9 -59 77 -59q65 0 95 59z" />
    <glyph glyph-name="gbreve" unicode="&#x11f;" horiz-adv-x="438" 
d="M492 448l10 -21q-44 -46 -80 -54q-2 0 -20 -2q7 -25 7 -49q0 -83 -71 -144q-47 -39 -143 -61q-12 -9 -14 -23q0 -18 69 -53q77 -37 110 -69t33 -67q0 -41 -41.5 -77.5t-99.5 -56t-112 -19.5q-77 0 -131 32.5t-53 78.5q1 33 41.5 65.5t120.5 71.5q-37 23 -35 50
q0 29 71 67q-97 20 -97 121q0 47 22.5 90.5t63.5 73.5q68 50 139 50q53 0 92 -28q83 1 118 24zM210 158q38 0 68.5 48.5t30.5 124.5q0 38 -13 61t-38 23q-38 0 -67 -57q-30 -58 -30 -124q0 -35 13 -55.5t36 -20.5zM188 -202q49 0 79 19.5t30 47.5q0 34 -63 71q-41 24 -86 45
q-37 -20 -60.5 -46t-23.5 -52q0 -35 37.5 -60t86.5 -25zM377 643h32q-22 -138 -137 -138q-50 0 -77.5 32.5t-14.5 105.5h33q0 -33 18 -51t51 -18q68 0 95 69z" />
    <glyph glyph-name="Gdotaccent" unicode="&#x120;" horiz-adv-x="692" 
d="M663 473l-33 -3q-10 154 -156 154q-117 0 -198 -102t-81 -247q0 -114 51.5 -182t141.5 -68q37 0 59 14t30 53l17 89q10 55 -3.5 67.5t-87.5 20.5l8 31h277l-8 -31q-41 -6 -52 -19.5t-21 -68.5l-15 -81q-9 -46 -6 -76q-144 -39 -214 -39q-141 0 -224.5 75.5t-83.5 211.5
q0 174 122 283t311 109q97 0 178 -29q-7 -75 -12 -162zM482 832q24 0 37.5 -15.5t13.5 -38.5q0 -28 -18.5 -49t-46.5 -21q-24 0 -38.5 15t-14.5 40t18 47t49 22z" />
    <glyph glyph-name="gdotaccent" unicode="&#x121;" horiz-adv-x="438" 
d="M493 448l9 -21q-44 -46 -80 -54q-2 0 -20 -2q7 -25 7 -49q0 -83 -71 -144q-47 -39 -143 -61q-14 -10 -15 -23q0 -18 70 -53q77 -37 110 -69t33 -67q0 -41 -41.5 -77.5t-99.5 -56t-112 -19.5q-77 0 -131 32.5t-53 78.5q1 33 41.5 65.5t120.5 71.5q-37 23 -35 50
q0 29 71 67q-97 20 -97 121q0 47 22.5 90.5t63.5 73.5q68 50 140 50q52 0 91 -28q82 1 119 24zM210 158q38 0 68.5 48.5t30.5 124.5q0 38 -13 61t-38 23q-38 0 -67 -57q-30 -58 -30 -124q0 -35 13 -55.5t36 -20.5zM187 -202q50 0 80 19.5t30 47.5q0 34 -63 71q-40 23 -86 45
q-37 -20 -60.5 -46t-23.5 -52q0 -35 37.5 -60t85.5 -25zM294 644q24 0 37.5 -16t13.5 -38q0 -29 -19 -50t-47 -21q-24 0 -38.5 15t-14.5 40t18.5 47.5t49.5 22.5z" />
    <glyph glyph-name="Gcommaaccent" unicode="&#x122;" horiz-adv-x="692" 
d="M663 473l-33 -3q-10 154 -156 154q-117 0 -198 -102t-81 -247q0 -114 51.5 -182t141.5 -68q37 0 59 14t30 53l17 89q10 55 -3.5 67.5t-87.5 20.5l8 31h277l-8 -31q-41 -6 -52 -19.5t-21 -68.5l-15 -81q-9 -46 -6 -76q-144 -39 -214 -39q-141 0 -224.5 75.5t-83.5 211.5
q0 174 122 283t311 109q97 0 178 -29q-7 -75 -12 -162zM366 -43q27 0 47 -20t20 -54q1 -48 -37.5 -80.5t-96.5 -45.5l-9 30q36 15 54.5 30t18.5 35q0 31 -39 40q-12 3 -12 22q0 18 15 30.5t39 12.5z" />
    <glyph glyph-name="gcommaaccent" unicode="&#x123;" horiz-adv-x="438" 
d="M492 448l10 -21q-44 -46 -80 -54q-2 0 -20 -2q7 -25 7 -49q0 -83 -71 -144q-47 -39 -143 -61q-14 -10 -15 -23q0 -18 70 -53q77 -37 110 -69t33 -67q0 -41 -41.5 -77.5t-99.5 -56t-112 -19.5q-77 0 -131 32.5t-53 78.5q1 33 41.5 65.5t120.5 71.5q-37 23 -35 50
q0 29 71 67q-97 20 -97 121q0 47 22.5 90.5t63.5 73.5q68 50 139 50q53 0 92 -28q83 1 118 24zM210 158q38 0 68.5 48.5t30.5 124.5q0 38 -13 61t-38 23q-38 0 -67 -57q-30 -58 -30 -124q0 -35 13 -55.5t36 -20.5zM187 -202q50 0 80 19.5t30 47.5q0 34 -64 71q-38 22 -85 45
q-37 -20 -60.5 -46t-23.5 -52q0 -35 37.5 -60t85.5 -25zM288 520q-27 0 -46.5 20t-19.5 53q0 49 38.5 81t94.5 46l9 -29q-72 -30 -72 -66q0 -29 38 -40q12 -3 12 -21t-15.5 -31t-38.5 -13z" />
    <glyph glyph-name="Hcircumflex" unicode="&#x124;" horiz-adv-x="755" 
d="M804 649l-7 -31q-56 -5 -71 -19.5t-26 -74.5l-77 -398q-11 -60 0 -75t71 -20l-7 -31h-285l7 31q59 5 74.5 20t26.5 75l37 194h-288l-36 -194q-11 -60 0.5 -75t70.5 -20l-8 -31h-279l7 31q55 5 69.5 20t26.5 75l77 398q12 59 0 74t-74 20l8 31h279l-8 -31
q-53 -5 -67.5 -20t-25.5 -74l-30 -156h287l30 156q12 59 1 74t-69 20l8 31h278zM612 710l-20 -26q-64 25 -116 56q-69 -35 -132 -56l-15 27q72 46 143 110h31q44 -52 109 -111z" />
    <glyph glyph-name="hcircumflex" unicode="&#x125;" horiz-adv-x="526" 
d="M483 116l15 -27q-46 -48 -90 -74.5t-72 -26.5q-49 0 -25 107l51 218q14 60 -9 60q-27 0 -83 -53.5t-93 -114.5q-11 -44 -40 -196q-47 -6 -100 -21l-7 8q70 320 121 590q7 35 -0.5 43.5t-39.5 10.5l-24 1l7 30q41 3 79.5 12t61.5 16t28 7q16 0 8 -35l-83 -393h2
q81 102 162 148q46 26 77 26q66 0 33 -141l-44 -196q-8 -39 3 -39q7 0 26.5 12t35.5 28zM364 749l-20 -26q-64 25 -116 56q-69 -35 -132 -56l-15 27q72 46 143 110h31q44 -52 109 -111z" />
    <glyph glyph-name="Hbar" unicode="&#x126;" horiz-adv-x="755" 
d="M786 509l-11 -40h-86l-66 -344q-12 -58 -1 -73.5t71 -20.5l-7 -31h-284l7 31q59 5 74.5 20t26.5 74l36 190h-287l-36 -190q-11 -59 0.5 -74t70.5 -20l-8 -31h-279l7 31q55 5 69.5 19.5t26.5 74.5l67 344h-94l12 40h90l4 20q10 56 -2.5 70t-73.5 19l8 31h279l-8 -32
q-52 -5 -67 -19t-25 -69l-4 -20h287l4 20q10 55 -1 69.5t-68 19.5l8 31h278l-8 -32q-55 -4 -69.5 -17.5t-25.5 -69.5l-4 -21h89zM576 469h-287l-21 -107h287z" />
    <glyph glyph-name="hbar" unicode="&#x127;" horiz-adv-x="526" 
d="M480 116l15 -27q-42 -45 -87.5 -73t-75.5 -28q-48 0 -24 103l52 224q13 56 -9 56q-28 0 -82.5 -54t-91.5 -115q-21 -82 -39 -193q-47 -6 -102 -21l-6 8l110 525h-82l11 38h79q13 60 11 72.5t-21 14.5l-31 4l6 27q31 3 66 11t57 13.5t27 5.5q15 0 7 -38l-24 -110h141
l-11 -38h-138l-51 -246l2 -1q78 101 166 152q43 26 75 26q62 0 35 -122l-49 -215q-6 -33 1 -40q7 0 27 12.5t36 28.5z" />
    <glyph glyph-name="Itilde" unicode="&#x128;" horiz-adv-x="355" 
d="M403 649l-8 -31q-55 -5 -69.5 -19t-25.5 -73l-78 -402q-11 -59 0 -74t72 -19l-7 -31h-282l8 31q54 4 69.5 19t26.5 74l78 402q11 58 0 72.5t-73 19.5l8 31h281zM387 800l29 -19q-32 -89 -85 -89q-21 0 -73 23q-30 13 -46 13q-28 0 -50 -45l-29 22q32 88 87 88
q22 0 64 -19q37 -16 54 -16q24 0 49 42z" />
    <glyph glyph-name="itilde" unicode="&#x129;" horiz-adv-x="289" 
d="M246 118l16 -24q-41 -45 -90.5 -75.5t-75.5 -30.5q-50 0 -24 104l56 235q6 29 0 35q-17 0 -64 -38l-14 26q49 45 97.5 73.5t74.5 28.5q18 0 22.5 -24t-6.5 -68l-61 -247q-8 -37 3 -37q15 0 66 42zM318 628l30 -15q-34 -97 -87 -97q-16 0 -68 23q-26 13 -46 13
q-25 0 -48 -44l-28 19q16 46 39.5 69.5t46.5 23.5q19 0 61 -19q38 -18 54 -18q23 0 46 45z" />
    <glyph glyph-name="Imacron" unicode="&#x12a;" horiz-adv-x="355" 
d="M403 649l-7 -31q-56 -5 -70.5 -19.5t-25.5 -72.5l-77 -402q-12 -59 -0.5 -73.5t71.5 -19.5l-7 -31h-281l7 31q55 4 70 19t27 74l78 402q11 58 -0.5 72.5t-72.5 19.5l8 31h280zM406 775l-16 -62h-233l17 62h232z" />
    <glyph glyph-name="imacron" unicode="&#x12b;" horiz-adv-x="289" 
d="M246 118l16 -24q-41 -45 -90.5 -75.5t-75.5 -30.5q-50 0 -24 104l56 235q6 29 0 35q-17 0 -64 -38l-14 26q49 45 97.5 73.5t74.5 28.5q18 0 22.5 -24t-6.5 -68l-61 -247q-8 -37 3 -37q15 0 66 42zM333 601l-16 -63h-232l16 63h232z" />
    <glyph glyph-name="Ibreve" unicode="&#x12c;" horiz-adv-x="355" 
d="M403 649l-7 -31q-56 -5 -70.5 -19.5t-25.5 -72.5l-77 -402q-12 -59 -0.5 -73.5t71.5 -19.5l-7 -31h-281l7 31q55 4 70 19t27 74l78 402q11 58 -0.5 72.5t-72.5 19.5l8 31h280zM376 816h34q-24 -127 -139 -127q-55 0 -81.5 33t-20.5 94h34q9 -58 77 -58q64 0 96 58z" />
    <glyph glyph-name="ibreve" unicode="&#x12d;" horiz-adv-x="289" 
d="M246 118l16 -24q-41 -45 -90.5 -75.5t-75.5 -30.5q-50 0 -24 104l56 235q6 29 0 35q-17 0 -64 -38l-14 26q49 45 97.5 73.5t74.5 28.5q17 0 21.5 -24t-5.5 -68l-61 -247q-8 -37 3 -37q15 0 66 42zM302 643h33q-22 -138 -137 -138q-50 0 -77.5 32.5t-15.5 105.5h33
q2 -69 70 -69q67 0 94 69z" />
    <glyph glyph-name="Iogonek" unicode="&#x12e;" horiz-adv-x="355" 
d="M402 649l-7 -31q-55 -5 -69.5 -19t-25.5 -72l-78 -403q-12 -60 -0.5 -74t72.5 -19l-8 -31h-119q-53 -85 -53 -137q0 -21 13 -32t32 -11q21 0 43 8l8 -30l-59 -31q-20 -10 -42 -10q-34 0 -54 19.5t-20 52.5q0 69 92 171h-121l7 31q54 4 69 19t27 74l78 403q11 58 0 72
t-73 19l8 31h280z" />
    <glyph glyph-name="iogonek" unicode="&#x12f;" horiz-adv-x="287" 
d="M229 662q24 0 37.5 -16t13.5 -38q0 -29 -18.5 -50t-46.5 -21q-24 0 -38.5 15t-14.5 40t18 47.5t49 22.5zM245 118l16 -24q-34 -39 -81 -70q-88 -90 -88 -160q0 -20 11 -31t28 -11q19 0 46 11l8 -30l-59 -32q-24 -11 -41 -11q-33 0 -52.5 19t-19.5 50q0 39 30.5 86
t66.5 79v1q-33 -10 -43 15t3 82l57 235q7 29 -1 35q-14 0 -63 -38l-14 26q49 45 97 73.5t73 28.5q41 0 18 -92l-60 -248q-9 -36 2 -36q17 0 66 42z" />
    <glyph glyph-name="Idotaccent" unicode="&#x130;" horiz-adv-x="355" 
d="M403 649l-7 -31q-56 -5 -70.5 -19.5t-25.5 -72.5l-77 -402q-12 -59 -0.5 -73.5t71.5 -19.5l-7 -31h-281l7 31q55 4 70 19t27 74l78 402q11 58 -0.5 72.5t-72.5 19.5l8 31h280zM291 823q24 0 37.5 -16t13.5 -39q0 -28 -18.5 -49t-46.5 -21q-24 0 -38.5 15t-14.5 40
t18 47.5t49 22.5z" />
    <glyph glyph-name="dotlessi" unicode="&#x131;" horiz-adv-x="289" 
d="M246 118l16 -24q-41 -45 -90.5 -75.5t-75.5 -30.5q-50 0 -24 104l56 235q6 29 -1 35q-16 0 -63 -38l-14 26q49 45 97.5 73.5t74.5 28.5q17 0 21.5 -24t-5.5 -68l-60 -247q-10 -37 2 -37q17 0 66 42z" />
    <glyph glyph-name="IJ" unicode="&#x132;" horiz-adv-x="699" 
d="M403 649l-7 -31q-56 -5 -70.5 -19.5t-25.5 -72.5l-77 -402q-12 -59 -0.5 -73.5t71.5 -19.5l-7 -31h-281l7 31q55 4 70 19t27 74l78 402q11 58 -0.5 72.5t-72.5 19.5l8 31h280zM756 649l-7 -31q-54 -7 -67.5 -20.5t-24.5 -73.5l-72 -390q-17 -94 -49 -151t-91 -91
q-55 -34 -108 -37l-7 34q82 21 111 113q16 50 35 146l70 376q11 59 -0.5 73.5t-71.5 20.5l7 31h275z" />
    <glyph glyph-name="ij" unicode="&#x133;" horiz-adv-x="563" 
d="M228 648q24 0 37 -15.5t13 -38.5q0 -28 -19.5 -49t-47.5 -21q-24 0 -37.5 14.5t-13.5 39.5q0 26 18.5 48t49.5 22zM245 118l16 -24q-40 -45 -90 -75.5t-76 -30.5q-50 0 -24 104l55 235q8 35 0 35q-16 0 -63 -38l-14 26q49 45 97.5 73.5t74.5 28.5q39 0 16 -92l-61 -247
q-8 -37 3 -37q17 0 66 42zM502 653q24 0 37.5 -15.5t13.5 -38.5q0 -29 -18.5 -49.5t-47.5 -20.5q-23 0 -37.5 15t-14.5 40t18 47t49 22zM341 320l-14 26q46 45 97 75.5t78 30.5q21 0 24 -27t-9 -85q-13 -73 -56 -288q-35 -169 -133 -245q-72 -57 -111 -57q-18 0 -33 10.5
t-15 26.5q0 28 32 54q11 8 21 2q35 -25 57 -25q16 0 27 16.5t22 62.5q24 108 81 415q10 50 0 50q-7 0 -29 -14t-39 -28z" />
    <glyph glyph-name="Jcircumflex" unicode="&#x134;" horiz-adv-x="344" 
d="M401 649l-7 -31q-54 -7 -67.5 -20.5t-24.5 -73.5l-72 -390q-17 -94 -49 -151t-91 -91q-55 -34 -108 -37l-7 34q82 21 111 113q16 50 35 146l70 376q11 59 -0.5 73.5t-71.5 20.5l7 31h275zM411 710l-20 -26q-64 25 -116 56q-69 -35 -132 -56l-15 27q72 46 143 110h31
q44 -52 109 -111z" />
    <glyph glyph-name="jcircumflex" unicode="&#x135;" horiz-adv-x="281" 
d="M317 526l-26 -22q-33 34 -74 89q-74 -64 -107 -89l-24 24q87 98 131 159h29q21 -61 71 -161zM62 321l-13 25q45 44 96.5 75t78.5 31q20 0 23 -27t-8 -85q-5 -27 -56 -283q-35 -169 -133 -246q-70 -56 -111 -56q-18 0 -32.5 10t-14.5 26q0 13 10 29t21 25q10 9 21 2
q30 -22 58 -22q16 0 26.5 16.5t21.5 63.5q17 72 81 408q8 46 0 49q-7 0 -30 -13.5t-39 -27.5z" />
    <glyph glyph-name="Kcommaaccent" unicode="&#x136;" horiz-adv-x="668" 
d="M737 649l-7 -30q-50 -6 -77 -17.5t-73 -49.5q-77 -62 -202 -173q78 -144 162 -274q28 -43 47 -56t60 -18l-8 -31h-173q-71 117 -164 289q-22 38 -47 28l-35 -189q-11 -61 -0.5 -76.5t68.5 -20.5l-7 -31h-271l8 31q52 5 66.5 20.5t25.5 76.5l76 394q12 60 1 75.5t-69 20.5
l7 31h271l-7 -31q-54 -5 -68 -19.5t-26 -76.5l-34 -171q43 13 76 42q111 92 188 175q14 16 18 25t-3 14t-26 8l-24 3l8 31h239zM350 -21q28 0 48 -20.5t20 -53.5q0 -49 -38 -81t-96 -45l-10 30q37 15 55.5 29.5t18.5 35.5q0 29 -39 40q-12 3 -12 22q0 18 15 30.5t38 12.5z
" />
    <glyph glyph-name="kcommaaccent" unicode="&#x137;" horiz-adv-x="481" 
d="M455 107l18 -24q-35 -51 -69 -73t-59 -22q-40 0 -70 70q-35 79 -66 174q-33 -37 -40 -49q-22 -106 -34 -175q-47 -5 -100 -20l-7 6q74 323 130 597q6 31 0 39.5t-36 9.5l-28 1l7 30q39 4 78 13t62.5 15.5t29.5 6.5q14 0 7 -30l-96 -427h2q35 41 81 87q37 36 59.5 56
t54.5 40t55 20q21 0 34.5 -10.5t13.5 -25.5q0 -26 -23 -49q-12 -10 -19 -7q-18 10 -46 10q-53 0 -108 -63q18 -63 59 -150q37 -90 56 -90q18 0 54 40zM211 -30q28 0 48 -20t20 -54q1 -48 -37.5 -80.5t-96.5 -45.5l-10 30q74 30 74 65q0 29 -39 40q-12 3 -12 22q0 18 15 30.5
t38 12.5z" />
    <glyph glyph-name="kgreenlandic" unicode="&#x138;" horiz-adv-x="521" 
d="M199 223l2 -1l114 119q107 111 155 111q22 0 36 -10.5t14 -25.5q0 -25 -24 -51q-12 -10 -19 -7q-18 10 -44 10q-49 0 -126 -86q33 -82 77 -164q16 -31 26.5 -41t21.5 -10q21 0 58 40l17 -24q-67 -95 -131 -95q-37 0 -72 63q-23 44 -72 160q-3 -2 -43 -46
q-18 -72 -34 -156q-55 -6 -99 -20l-7 8q53 220 77 330q8 40 -1 40q-7 0 -28 -13.5t-36 -29.5l-15 28q45 45 90.5 72.5t71.5 27.5q42 0 17 -109z" />
    <glyph glyph-name="Lacute" unicode="&#x139;" horiz-adv-x="541" 
d="M493 175l33 -12q-55 -144 -64 -163h-461l7 31q59 4 74.5 19t26.5 74l79 405q11 56 0 70t-71 19l7 31h281l-7 -31q-58 -5 -72.5 -19t-25.5 -70l-77 -400q-9 -55 6 -72q16 -17 82 -17q78 0 110 31q39 39 72 104zM444 753l-4 -10l-202 -60l-15 29l172 111q12 -3 29 -27.5
t20 -42.5z" />
    <glyph glyph-name="lacute" unicode="&#x13a;" horiz-adv-x="265" 
d="M230 119l16 -26q-43 -47 -91 -76t-75 -29q-48 0 -21 127l95 466q8 37 1.5 47.5t-37.5 11.5l-28 2l5 28q39 3 78 12.5t63 16.5t29 7q15 0 8 -35l-116 -560q-8 -38 3 -38q7 0 29.5 14t40.5 32zM374 803l-4 -10l-202 -60l-15 29l172 111q12 -3 29 -27.5t20 -42.5z" />
    <glyph glyph-name="Lcommaaccent" unicode="&#x13b;" horiz-adv-x="541" 
d="M493 175l33 -12q-55 -144 -64 -163h-461l7 31q59 4 74.5 19t26.5 74l79 405q11 56 0 70t-71 19l7 31h281l-7 -31q-58 -5 -72.5 -19t-25.5 -70l-77 -400q-9 -55 6 -72q16 -17 82 -17q78 0 110 31q39 39 72 104zM274 -35q28 0 48 -20.5t20 -54.5q0 -48 -38 -80t-96 -45
l-10 30q37 15 55.5 29.5t18.5 35.5q0 29 -39 40q-12 3 -12 22q0 18 15 30.5t38 12.5z" />
    <glyph glyph-name="lcommaaccent" unicode="&#x13c;" horiz-adv-x="265" 
d="M230 119l16 -26q-43 -47 -91 -76t-75 -29q-48 0 -21 127l95 466q8 37 1.5 47.5t-37.5 11.5l-28 2l5 28q39 3 78 12.5t63 16.5t29 7q15 0 8 -35l-116 -560q-8 -38 3 -38q7 0 29.5 14t40.5 32zM95 -36q28 0 48 -20.5t20 -54.5q0 -48 -38 -80t-96 -45l-10 30
q37 15 55.5 29.5t18.5 35.5q0 29 -38 40q-12 3 -12 22q0 18 14.5 30.5t37.5 12.5z" />
    <glyph glyph-name="Lcaron" unicode="&#x13d;" horiz-adv-x="541" 
d="M493 175l33 -12q-51 -135 -64 -163h-461l7 31q59 4 74.5 19t26.5 74l78 405q11 55 0 69.5t-70 19.5l7 31h281l-7 -31q-58 -5 -72.5 -18.5t-25.5 -70.5l-77 -400q-10 -53 6 -72q16 -17 82 -17q76 0 110 31q36 36 72 104zM495 655q26 0 41.5 -20.5t15.5 -50.5
q0 -49 -33 -82t-83 -45l-12 28q63 31 63 67q0 27 -28 39q-11 4 -11 22q0 17 14 29.5t33 12.5z" />
    <glyph glyph-name="lcaron" unicode="&#x13e;" horiz-adv-x="265" 
d="M230 119l16 -26q-43 -47 -91 -76t-75 -29q-48 0 -21 127l95 466q8 37 1.5 47.5t-37.5 11.5l-28 2l5 28q39 3 78.5 12.5t63 16.5t28.5 7q15 0 8 -35l-116 -560q-8 -38 3 -38q7 0 29.5 14t40.5 32zM366 708q26 0 41.5 -20.5t15.5 -50.5q0 -49 -33 -82t-83 -46l-12 29
q63 32 63 67q0 27 -28 39q-11 4 -11 22q0 17 14 29.5t33 12.5z" />
    <glyph glyph-name="Ldot" unicode="&#x13f;" horiz-adv-x="541" 
d="M493 175l33 -12q-55 -144 -64 -163h-461l7 31q59 4 74.5 19t26.5 74l79 405q11 56 0 70t-71 19l7 31h281l-7 -31q-58 -5 -72.5 -19t-25.5 -70l-77 -400q-9 -55 6 -72q16 -17 82 -17q78 0 110 31q39 39 72 104zM418 410q24 0 37.5 -16t13.5 -39q0 -28 -18.5 -49t-46.5 -21
q-24 0 -38.5 15t-14.5 40t18 47.5t49 22.5z" />
    <glyph glyph-name="ldot" unicode="&#x140;" horiz-adv-x="309" 
d="M230 119l16 -26q-42 -47 -91 -76t-76 -29q-48 0 -21 127l95 466q9 38 2.5 47.5t-38.5 11.5l-28 2l5 28q40 3 79.5 12.5t63 16.5t28.5 7q15 0 8 -35l-116 -560q-9 -38 3 -38q8 0 30 14t40 32zM320 425q24 0 37.5 -16t13.5 -39q0 -28 -18.5 -49t-46.5 -21q-23 0 -37.5 15
t-14.5 40q0 26 18 48t48 22z" />
    <glyph glyph-name="Lslash" unicode="&#x141;" horiz-adv-x="556" 
d="M508 176l33 -13q-48 -132 -64 -163h-461l7 31q59 5 74.5 19.5t26.5 74.5l27 139l-106 -67l11 54l106 68l41 210q11 56 -0.5 69.5t-70.5 18.5l7 32h280l-7 -32q-57 -4 -71.5 -17.5t-25.5 -70.5l-27 -136l139 90l-13 -56l-137 -88l-39 -208q-10 -57 6 -74q16 -18 81 -18
q81 0 112 31t71 106z" />
    <glyph glyph-name="lslash" unicode="&#x142;" horiz-adv-x="287" 
d="M333 493l-11 -53l-94 -68l-51 -253q-9 -45 4 -45q7 0 29 14t39 31l16 -26q-44 -48 -90 -76.5t-73 -28.5q-50 0 -24 123l40 190l-82 -61l13 55l80 60l46 228q7 35 -0.5 45.5t-42.5 12.5l-23 1l7 29q48 4 106 19t63 15q15 0 9 -30l-54 -250z" />
    <glyph glyph-name="Nacute" unicode="&#x143;" horiz-adv-x="704" 
d="M770 649l-7 -31q-44 -2 -60.5 -15.5t-26.5 -47.5q-18 -59 -40 -171l-75 -393h-44l-289 516h-2l-48 -246q-20 -102 -24 -164q-2 -35 16 -48.5t71 -16.5l-8 -32h-237l8 32q39 2 58 15t29 46q21 68 41 169l46 218q17 74 -2 107q-15 27 -81 31l7 31h169l276 -478h3l40 212
q21 115 25 170q2 36 -16 49t-72 16l8 31h235zM597 752l-4 -10l-202 -60l-15 29l172 111q12 -3 29 -27.5t20 -42.5z" />
    <glyph glyph-name="nacute" unicode="&#x144;" horiz-adv-x="543" 
d="M498 119l15 -28q-49 -51 -91.5 -77t-68.5 -26q-50 0 -24 106l49 213q16 63 -6 65q-26 0 -85 -62.5t-91 -118.5q-27 -106 -41 -182q-55 -6 -99 -20l-7 8q48 191 77 330q9 39 -1 39q-6 0 -27 -13.5t-37 -28.5l-13 28q46 47 89.5 73.5t69.5 26.5q43 0 16 -121l-15 -63h2
q71 96 159 156q44 28 77 28q18 0 28 -9.5t14.5 -43t-12.5 -97.5l-44 -190q-8 -35 3 -35q19 0 63 42zM481 660l-166 -171l-28 19q58 101 89 163q12 4 49.5 6t51.5 0z" />
    <glyph glyph-name="Ncommaaccent" unicode="&#x145;" horiz-adv-x="704" 
d="M770 649l-7 -31q-44 -2 -60.5 -15.5t-26.5 -47.5q-18 -59 -40 -171l-75 -393h-44l-289 516h-2l-48 -246q-20 -102 -24 -164q-2 -35 16 -48.5t71 -16.5l-8 -32h-237l8 32q39 2 58 15t29 46q21 68 41 169l46 218q17 74 -2 107q-15 27 -81 31l7 31h169l277 -478h2l40 212
q21 115 25 170q2 36 -15.5 49t-71.5 16l7 31h235zM345 -14q28 0 48 -20.5t20 -54.5q0 -48 -38 -80t-96 -45l-10 29q38 16 56 30.5t18 35.5q0 29 -39 40q-12 3 -12 21q0 19 14.5 31.5t38.5 12.5z" />
    <glyph glyph-name="ncommaaccent" unicode="&#x146;" horiz-adv-x="543" 
d="M497 119l16 -28q-49 -51 -91.5 -77t-69.5 -26q-48 0 -24 106l50 212q6 26 7 41t-2.5 19.5t-10.5 5.5q-26 0 -85 -62.5t-91 -118.5q-28 -116 -41 -182q-50 -6 -99 -21l-7 9q48 191 77 330q9 39 -1 39q-6 0 -27 -13.5t-37 -28.5l-13 28q46 47 89.5 73.5t69.5 26.5
q43 0 16 -121l-15 -63h2q71 96 159 156q44 28 77 28q18 0 28 -9.5t14.5 -43t-12.5 -97.5l-44 -190q-8 -35 3 -35q7 0 26 12.5t36 29.5zM242 -44q28 0 48 -20.5t20 -54.5q0 -48 -38 -80t-96 -45l-10 30q37 15 55.5 29.5t18.5 35.5q0 29 -39 40q-12 3 -12 22q0 18 14.5 30.5
t38.5 12.5z" />
    <glyph glyph-name="Ncaron" unicode="&#x147;" horiz-adv-x="704" 
d="M770 649l-7 -31q-44 -2 -60.5 -15.5t-26.5 -47.5q-18 -59 -40 -171l-75 -393h-44l-289 516h-2l-48 -246q-20 -102 -24 -164q-2 -35 16 -48.5t71 -16.5l-8 -32h-237l8 32q39 2 58 15t29 46q21 68 41 169l46 218q17 74 -2 107q-15 27 -81 31l7 31h169l276 -478h3l40 212
q21 115 25 170q2 36 -16 49t-72 16l8 31h235zM579 806l17 -26q-69 -47 -143 -111h-31q-53 62 -108 111l21 26q66 -29 113 -57q65 32 131 57z" />
    <glyph glyph-name="ncaron" unicode="&#x148;" horiz-adv-x="543" 
d="M498 119l15 -28q-49 -51 -91.5 -77t-68.5 -26q-50 0 -24 106l49 213q16 63 -6 65q-26 0 -85 -62.5t-91 -118.5q-27 -106 -41 -182q-55 -6 -99 -20l-7 8q48 191 77 330q9 39 -1 39q-6 0 -27 -13.5t-37 -28.5l-13 28q46 47 89.5 73.5t69.5 26.5q43 0 16 -121l-15 -63h2
q71 96 159 156q44 28 77 28q18 0 28 -9.5t14.5 -43t-12.5 -97.5l-44 -190q-8 -35 3 -35q19 0 63 42zM442 677l24 -23q-85 -95 -132 -162h-30q-23 63 -73 164l28 21q32 -32 74 -90q71 63 109 90z" />
    <glyph glyph-name="napostrophe" unicode="&#x149;" horiz-adv-x="547" 
d="M76 488l-10 30q84 33 85 84q1 34 -47 49q-14 2 -12 17q0 22 16.5 35t38.5 13q37 0 61 -26.5t23 -66.5q-1 -55 -47 -88.5t-108 -46.5zM495 119l16 -28q-48 -51 -91 -77t-70 -26q-48 0 -25 99l54 230q14 55 -5 55q-26 0 -86.5 -65t-92.5 -123q-17 -66 -40 -175
q-54 -7 -98 -20l-8 8q46 183 78 330q9 39 -1 39q-7 0 -28 -13.5t-36 -28.5l-14 28q47 47 90.5 73.5t69.5 26.5q43 0 16 -121l-15 -65h2q70 98 161 158q44 28 79 28q58 0 27 -132l-48 -208q-8 -35 4 -35q7 0 25.5 12.5t35.5 29.5z" />
    <glyph glyph-name="Eng" unicode="&#x14a;" horiz-adv-x="704" 
d="M770 649l-7 -31q-42 -2 -60 -15.5t-27 -46.5q-18 -57 -39 -172l-64 -334q-27 -137 -68 -198q-44 -63 -101 -63q-21 0 -35.5 11t-14.5 26q0 17 13 36.5t23 19.5q7 0 20 -7t25 -7q24 0 45.5 35t32.5 95l-284 507h-2l-46 -244q-16 -84 -24 -165q-2 -36 15.5 -48.5
t70.5 -16.5l-7 -31h-238l8 31q38 2 57 15t29 46q17 52 41 169l46 219q15 75 -2 107q-8 15 -25.5 21.5t-56.5 9.5l7 31h170l275 -477h3l39 211q19 107 24 171q3 35 -15.5 48t-71.5 16l8 31h236z" />
    <glyph glyph-name="eng" unicode="&#x14b;" horiz-adv-x="526" 
d="M61 325l-14 27q44 44 89 72t72 28q45 0 15 -122l-16 -68h2q78 102 168 163q42 27 77 27q51 0 29 -109q-21 -113 -46 -231q-21 -106 -51.5 -163t-83.5 -99q-70 -56 -117 -56q-17 0 -30 9t-13 25q0 13 10 29.5t21 26.5q10 8 20 2q31 -21 56 -21q20 0 34.5 24t29.5 97
l68 338q10 48 -6 48q-25 0 -87.5 -65.5t-92.5 -120.5q-21 -78 -40 -177q-55 -6 -99 -20l-7 8q53 220 77 330q8 40 -1 40q-7 0 -27.5 -13.5t-36.5 -28.5z" />
    <glyph glyph-name="Omacron" unicode="&#x14c;" horiz-adv-x="718" 
d="M433 664q123 0 198 -79.5t75 -207.5q0 -165 -104.5 -278.5t-264.5 -113.5q-122 0 -197.5 77t-75.5 205q0 162 105.5 279.5t263.5 117.5zM427 624q-65 0 -119.5 -55.5t-85 -141.5t-30.5 -179q0 -101 37.5 -162.5t113.5 -61.5q69 0 124.5 58.5t83 143.5t27.5 172
q0 103 -36.5 164.5t-114.5 61.5zM574 776l-16 -62h-233l17 62h232z" />
    <glyph glyph-name="omacron" unicode="&#x14d;" horiz-adv-x="484" 
d="M186 -12q-76 0 -110 46.5t-34 114.5q0 92 43.5 163t106.5 104q64 36 123 36q69 0 106 -42.5t37 -115.5q0 -68 -27.5 -133.5t-79.5 -108.5q-74 -64 -165 -64zM224 31q13 0 28 5q35 14 64 88.5t29 171.5q0 57 -18.5 85.5t-48.5 28.5q-16 0 -29 -6q-31 -15 -62.5 -83.5
t-31.5 -175.5q0 -54 19.5 -84t49.5 -30zM422 602l-15 -63h-232l15 63h232z" />
    <glyph glyph-name="Obreve" unicode="&#x14e;" horiz-adv-x="718" 
d="M434 664q122 0 197 -80t75 -207q0 -165 -104.5 -278.5t-264.5 -113.5q-122 0 -197.5 77t-75.5 205q0 105 47 196t132.5 146t190.5 55zM427 624q-65 0 -119.5 -55.5t-85 -141.5t-30.5 -179q0 -101 37.5 -162.5t114.5 -61.5q68 0 123.5 58.5t83 143.5t27.5 172
q0 103 -36.5 164.5t-114.5 61.5zM545 826h35q-23 -128 -140 -128q-55 0 -81 33t-21 95h35q9 -59 76 -59q64 0 96 59z" />
    <glyph glyph-name="obreve" unicode="&#x14f;" horiz-adv-x="484" 
d="M186 -12q-76 0 -110 46.5t-34 114.5q0 92 43.5 163t106.5 104q64 36 123 36q69 0 106 -42.5t37 -115.5q0 -68 -27.5 -133.5t-79.5 -108.5q-74 -64 -165 -64zM224 31q13 0 28 5q35 14 64 88.5t29 171.5q0 57 -18.5 85.5t-48.5 28.5q-16 0 -29 -6q-31 -15 -62.5 -83.5
t-31.5 -175.5q0 -54 19.5 -84t49.5 -30zM396 643h33q-22 -138 -138 -138q-50 0 -77.5 32.5t-14.5 105.5h33q0 -33 18 -51t51 -18q68 0 95 69z" />
    <glyph glyph-name="Ohungarumlaut" unicode="&#x150;" horiz-adv-x="718" 
d="M433 664q123 0 198 -79.5t75 -207.5q0 -165 -104.5 -278.5t-264.5 -113.5q-122 0 -197.5 77t-75.5 205q0 162 105.5 279.5t263.5 117.5zM427 624q-65 0 -119.5 -55.5t-85 -141.5t-30.5 -179q0 -101 37.5 -162.5t113.5 -61.5q69 0 124.5 58.5t83 143.5t27.5 172
q0 103 -36.5 164.5t-114.5 61.5zM482 815v-16l-108 -105l-28 15q17 37 52 125q13 4 44.5 -3t39.5 -16zM627 815v-16l-109 -105l-27 15q32 75 51 125q13 4 44.5 -3t40.5 -16z" />
    <glyph glyph-name="ohungarumlaut" unicode="&#x151;" horiz-adv-x="484" 
d="M186 -12q-76 0 -110 46.5t-34 114.5q0 92 43.5 163t106.5 104q64 36 123 36q69 0 106 -42.5t37 -115.5q0 -68 -27.5 -133.5t-79.5 -108.5q-74 -64 -165 -64zM224 31q13 0 28 5q35 14 64 88.5t29 171.5q0 57 -18.5 85.5t-48.5 28.5q-16 0 -29 -6q-31 -15 -62.5 -83.5
t-31.5 -175.5q0 -54 19.5 -84t49.5 -30zM347 656l-126 -167l-29 16q12 29 37 95l25 65q11 4 43.5 5t45.5 -2zM497 656l-127 -167l-27 16l22 57.5l25.5 67t13.5 35.5q11 4 43.5 5t45.5 -2z" />
    <glyph glyph-name="OE" unicode="&#x152;" horiz-adv-x="961" 
d="M874 0h-307q-40 0 -96 -6q-45 -5 -85 -5q-73 0 -130.5 18t-92.5 47t-57.5 68t-31 76.5t-8.5 77.5q0 174 121.5 279t312.5 105q40 0 100.5 -5.5t83.5 -5.5h281q-1 -7 -7 -64.5t-10 -88.5l-33 -3q-2 62 -19 89q-9 16 -28.5 22t-68.5 6h-53q-27 0 -34.5 -6.5t-12.5 -34.5
l-41 -209h75q62 0 80 12t39 64h33l-39 -199h-32q-1 55 -13.5 67.5t-74.5 12.5h-76l-33 -172q-13 -71 3 -89q16 -17 88 -17q90 0 124 34q35 32 71 96l32 -12q-47 -125 -61 -157zM500 111l81 427q12 54 -15 67q-29 16 -84 16q-56 0 -107 -22.5t-92 -64.5t-65.5 -108.5
t-24.5 -148.5q0 -45 11 -87.5t34 -80.5t65.5 -60t99.5 -21q30 0 59 13q27 13 38 70z" />
    <glyph glyph-name="oe" unicode="&#x153;" horiz-adv-x="696" 
d="M694 366q-1 -110 -264 -180q-2 -12 -2 -25q0 -101 76 -101q67 0 147 76l17 -27q-108 -121 -220 -121q-79 0 -102 79h-1q-33 -36 -77 -57.5t-87 -21.5q-73 0 -106 48t-33 114q1 92 42.5 162.5t102.5 104.5q67 35 118 35q86 0 117 -81l1 1q39 35 87 57.5t89 22.5
q45 0 70 -24t25 -62zM594 356q0 24 -12 37t-27 13h-1q-19 0 -36 -12q-25 -14 -49.5 -57t-34.5 -114q86 27 122.5 58.5t37.5 74.5zM343 305q0 107 -63 107h-1q-16 0 -29 -7q-33 -14 -63.5 -79t-31.5 -175q0 -52 17.5 -85t47.5 -33q14 0 29 6q33 16 63.5 90t30.5 176z" />
    <glyph glyph-name="Racute" unicode="&#x154;" horiz-adv-x="621" 
d="M607 21l-9 -29h-14q-85 2 -121 23.5t-63 73.5q-28 55 -62 147q-10 27 -22 37t-35 10h-31l-29 -155q-11 -61 0 -76.5t68 -20.5l-7 -31h-276l7 31q55 5 70.5 20.5t27.5 76.5l76 398q11 61 1 74t-68 18l8 31h239q103 0 152 -31q64 -42 64 -125q0 -69 -44 -116.5t-111 -69.5
q28 -76 56 -134q42 -82 62 -109q24 -32 61 -43zM257 320h33q62 0 101 24q34 22 53 60t19 83q0 61 -28 93t-74 32q-30 0 -41 -11q-9 -7 -17 -42zM539 752l-4 -10l-202 -60l-15 29l171 111q13 -3 30 -27.5t20 -42.5z" />
    <glyph glyph-name="racute" unicode="&#x155;" horiz-adv-x="381" 
d="M207 290h4q86 162 145 162q29 0 46 -26q17 -25 -3 -55q-16 -25 -32 -38q-13 -9 -24 -1q-19 19 -38 19q-18 0 -43 -35q-45 -63 -62 -115q-21 -85 -39 -192q-53 -7 -98 -20l-8 8q41 172 69 322q8 45 -2 45q-7 0 -28 -13t-36 -27l-15 26q42 44 86.5 73t69.5 29q42 0 18 -116
zM418 660l-167 -171l-27 19q50 88 88 163q12 4 50 6t52 0z" />
    <glyph glyph-name="Rcommaaccent" unicode="&#x156;" horiz-adv-x="621" 
d="M607 21l-9 -29h-14q-85 2 -121 23.5t-63 73.5q-25 48 -63 147q-10 27 -22 37t-35 10h-31l-28 -155q-11 -62 -0.5 -77t67.5 -20l-7 -31h-276l7 31q55 5 70.5 20.5t27.5 76.5l77 398q11 61 1 74t-69 18l8 31h240q103 0 152 -31q64 -42 64 -125q0 -69 -44 -116.5t-112 -69.5
q44 -107 57 -134q42 -82 62 -109q24 -32 61 -43zM257 320h33q62 0 101 24q34 22 53 60t19 83q0 61 -28 93t-74 32q-30 0 -41 -11q-9 -7 -17 -42zM347 -21q27 0 47 -20t21 -54q0 -48 -38.5 -80t-96.5 -45l-9 29q36 15 54.5 30t18.5 36q0 29 -39 40q-12 4 -12 21q0 18 15 30.5
t39 12.5z" />
    <glyph glyph-name="rcommaaccent" unicode="&#x157;" horiz-adv-x="381" 
d="M207 290h3q86 162 146 162q29 0 46 -26q17 -25 -3 -55q-16 -25 -32 -38q-13 -9 -24 -1q-19 19 -38 19q-18 0 -43 -35q-45 -63 -62 -115q-21 -85 -39 -192q-53 -7 -98 -20l-8 8q41 172 69 322q8 45 -2 45q-7 0 -28 -13t-36 -27l-15 26q42 44 86.5 73t69.5 29q42 0 18 -116
zM94 -37q28 0 48 -20t20 -54q1 -48 -37.5 -80.5t-96.5 -45.5l-10 30q74 30 74 65q0 31 -39 40q-12 3 -12 22q0 18 15 30.5t38 12.5z" />
    <glyph glyph-name="Rcaron" unicode="&#x158;" horiz-adv-x="621" 
d="M607 21l-9 -29h-14q-85 2 -121 23.5t-63 73.5q-28 55 -62 147q-10 27 -22 37t-35 10h-31l-29 -155q-11 -61 0 -76.5t68 -20.5l-7 -31h-276l7 31q55 5 70.5 20.5t27.5 76.5l76 398q11 61 1 74t-68 18l8 31h239q103 0 152 -31q64 -42 64 -125q0 -69 -44 -116.5t-111 -69.5
q28 -76 56 -134q42 -82 62 -109q24 -32 61 -43zM257 320h33q62 0 101 24q34 22 53 60t19 83q0 61 -28 93t-74 32q-30 0 -41 -11q-9 -7 -17 -42zM502 821l16 -26q-67 -46 -143 -111h-30q-55 62 -108 111l20 26q65 -27 114 -57q69 34 131 57z" />
    <glyph glyph-name="rcaron" unicode="&#x159;" horiz-adv-x="381" 
d="M207 290h4q86 162 145 162q29 0 46 -26q17 -25 -3 -55q-16 -25 -32 -38q-13 -9 -24 -1q-19 19 -38 19q-18 0 -43 -35q-45 -63 -62 -115q-21 -85 -39 -192q-53 -7 -98 -20l-8 8q41 172 69 322q8 45 -2 45q-7 0 -28 -13t-36 -27l-15 26q42 44 86.5 73t69.5 29q42 0 18 -116
zM376 677l25 -23q-83 -91 -133 -162h-30q-24 66 -73 164l28 21q35 -37 74 -90q73 64 109 90z" />
    <glyph glyph-name="Sacute" unicode="&#x15a;" horiz-adv-x="482" 
d="M37 202l31 3q5 -29 15.5 -58t28.5 -58.5t48.5 -47.5t67.5 -18q52 0 82.5 33t30.5 84q0 66 -84 133l-30 22q-53 42 -84.5 84.5t-31.5 98.5q0 84 59.5 135t152.5 51q58 0 107 -18l42 -17q-3 -29 -5 -147l-32 -3q-4 29 -11 52t-20 46.5t-36 36.5t-54 13q-47 0 -74.5 -32.5
t-27.5 -75.5q0 -37 21 -65t64 -59l31 -22q60 -44 91 -87.5t31 -103.5q0 -89 -67.5 -143t-166.5 -54q-56 0 -105.5 19t-72.5 42q0 118 -1 156zM487 768l-4 -10l-202 -60l-15 29l172 111q12 -3 29 -27.5t20 -42.5z" />
    <glyph glyph-name="sacute" unicode="&#x15b;" horiz-adv-x="348" 
d="M118 -12q-41 0 -76 23t-36 54q0 33 33 52q19 11 31 -2q54 -70 108 -70q23 0 38 12.5t15 32.5q0 17 -13 34t-49 44q-24 18 -35 27t-28.5 26.5t-25 35.5t-7.5 39q0 59 59 106q62 50 119 50q37 0 62 -19t25 -44q2 -28 -31 -50q-17 -11 -26 4q-41 53 -86 53q-19 0 -31.5 -12
t-12.5 -31q0 -35 69 -82q47 -33 69.5 -61t22.5 -63q0 -61 -64 -110t-130 -49zM399 661l-166 -171l-28 19q45 77 88 163q13 3 50 5t52 0z" />
    <glyph glyph-name="Scircumflex" unicode="&#x15c;" horiz-adv-x="482" 
d="M37 202l31 3q5 -29 15.5 -58t28.5 -58.5t48.5 -47.5t67.5 -18q52 0 82.5 33t30.5 84q0 66 -84 133l-30 22q-53 42 -84.5 84.5t-31.5 98.5q0 84 59.5 135t152.5 51q58 0 107 -18l42 -17q-3 -29 -5 -147l-32 -3q-4 29 -11 52t-20 46.5t-36 36.5t-54 13q-47 0 -74.5 -32.5
t-27.5 -75.5q0 -37 21 -65t64 -59l31 -22q60 -44 91 -87.5t31 -103.5q0 -89 -67.5 -143t-166.5 -54q-56 0 -105.5 19t-72.5 42q0 118 -1 156zM467 720l-20 -26q-68 27 -116 56q-69 -35 -132 -56l-15 26q68 45 143 111h30q54 -61 110 -111z" />
    <glyph glyph-name="scircumflex" unicode="&#x15d;" horiz-adv-x="348" 
d="M118 -12q-41 0 -76 23t-36 54q0 33 33 52q19 11 31 -2q54 -70 108 -70q23 0 38 12.5t15 32.5q0 17 -13 34t-49 44q-24 18 -35 27t-28.5 26.5t-25 35.5t-7.5 39q0 59 59 106q62 50 119 50q37 0 62 -19t25 -44q2 -28 -31 -50q-17 -11 -26 4q-41 53 -86 53q-19 0 -31.5 -12
t-12.5 -31q0 -35 69 -82q47 -33 69.5 -61t22.5 -63q0 -61 -64 -110t-130 -49zM352 511l-28 -22q-29 29 -74 89q-74 -63 -110 -89l-24 24q93 105 133 161h30q23 -66 73 -163z" />
    <glyph glyph-name="Scedilla" unicode="&#x15e;" horiz-adv-x="482" 
d="M36 202l31 4q6 -41 22.5 -79.5t53.5 -71t86 -32.5q52 0 82 33t30 84q0 68 -84 133l-30 22q-54 42 -85.5 84.5t-31.5 97.5q0 84 60 135.5t154 51.5q57 0 105 -17q9 -3 22.5 -9t18.5 -8q-2 -25 -4 -149l-32 -3q-20 148 -122 148q-47 0 -73.5 -32t-26.5 -75q0 -63 85 -124
l31 -22q60 -43 91.5 -87t31.5 -103q0 -82 -57.5 -134.5t-145.5 -61.5l-9 -11q-10 -12 -9 -20t12 -22q28 -37 28 -65q-1 -31 -36 -58t-90 -43l-12 29q67 29 67 57q0 14 -18 37q-15 18 -15.5 31.5t14.5 33.5l25 30q-50 2 -96 19t-71 41q0 79 -2 156z" />
    <glyph glyph-name="scedilla" unicode="&#x15f;" horiz-adv-x="346" 
d="M251 452q36 0 61.5 -19.5t25.5 -42.5q0 -30 -31 -51q-17 -10 -26 3q-40 54 -85 54q-20 0 -32 -12t-12 -31q0 -35 69 -82q47 -33 68.5 -60.5t21.5 -62.5q0 -51 -43 -93.5t-101 -59.5l-15 -17q-10 -11 -9 -19.5t12 -22.5q28 -37 27 -66q-1 -31 -36.5 -57.5t-89.5 -42.5
l-12 29q66 30 67 56q1 16 -17 38q-15 18 -15.5 31.5t14.5 32.5l26 31v1q-41 -1 -76.5 22t-36.5 55q-1 14 8.5 28.5t23.5 22.5q21 11 31 -3q53 -68 109 -68q23 0 37.5 12.5t14.5 32.5q0 32 -62 78q-25 19 -34.5 27t-27.5 25.5t-25 35t-7 38.5q0 60 58 107q61 50 119 50z" />
    <glyph glyph-name="Scaron" unicode="&#x160;" horiz-adv-x="482" 
d="M37 202l31 3q5 -29 15.5 -58t28.5 -58.5t48.5 -47.5t67.5 -18q52 0 82.5 33t30.5 84q0 66 -84 133l-30 22q-53 42 -84.5 84.5t-31.5 98.5q0 84 59.5 135t152.5 51q58 0 107 -18l42 -17q-3 -29 -5 -147l-32 -3q-4 29 -11 52t-20 46.5t-36 36.5t-54 13q-47 0 -74.5 -32.5
t-27.5 -75.5q0 -37 21 -65t64 -59l31 -22q60 -44 91 -87.5t31 -103.5q0 -89 -67.5 -143t-166.5 -54q-56 0 -105.5 19t-72.5 42q0 118 -1 156zM461 838l16 -26q-67 -46 -143 -111h-30q-62 70 -109 111l21 26q69 -30 114 -57q65 32 131 57z" />
    <glyph glyph-name="scaron" unicode="&#x161;" horiz-adv-x="348" 
d="M118 -12q-41 0 -76 23t-36 54q0 33 33 52q19 11 31 -2q54 -70 108 -70q23 0 38 12.5t15 32.5q0 17 -13 34t-49 44q-24 18 -35 27t-28.5 26.5t-25 35.5t-7.5 39q0 59 59 106q62 50 119 50q37 0 62 -19t25 -44q2 -28 -31 -50q-17 -11 -26 4q-41 53 -86 53q-19 0 -31.5 -12
t-12.5 -31q0 -35 69 -82q47 -33 69.5 -61t22.5 -63q0 -61 -64 -110t-130 -49zM357 677l25 -23q-83 -91 -133 -162h-30q-23 63 -73 164l29 21q31 -33 73 -90q71 63 109 90z" />
    <glyph glyph-name="Tcommaaccent" unicode="&#x162;" horiz-adv-x="615" 
d="M643 674h26q-9 -42 -26 -183l-34 -3q0 70 -14 95q-10 16 -30 21.5t-67 5.5h-54l-91 -485q-11 -59 1.5 -74.5t80.5 -19.5l-7 -31h-303l7 31q62 4 78.5 20t28.5 74l93 485h-45q-55 0 -77.5 -6.5t-38.5 -24.5q-20 -24 -51 -90h-34q31 95 49 185h25q6 -16 15 -20.5t31 -4.5
h386q18 0 27 5t24 20zM271 -40q28 0 48 -20.5t20 -54.5q0 -48 -38 -80t-96 -45l-10 30q37 15 55.5 29.5t18.5 35.5q0 29 -39 40q-12 3 -12 22q0 18 15 30.5t38 12.5z" />
    <glyph glyph-name="tcommaaccent" unicode="&#x163;" horiz-adv-x="316" 
d="M355 435l-28 -40l-95 -5l-54 -260q-13 -59 5 -59q11 0 38.5 17.5t46.5 36.5l15 -24q-30 -40 -83.5 -76.5t-92.5 -36.5q-60 0 -30 138l56 264h-72l-5 9l27 36h60l22 93l102 69l11 -8l-35 -154h112zM126 -39q27 0 47 -20t20 -54q1 -48 -37.5 -80.5t-96.5 -44.5l-9 29
q36 15 54.5 30t18.5 35q0 30 -39 41q-12 2 -12 21q0 18 15 30.5t39 12.5z" />
    <glyph glyph-name="Tcaron" unicode="&#x164;" horiz-adv-x="615" 
d="M643 674h26q-9 -42 -26 -183l-34 -3q0 70 -14 95q-10 16 -30 21.5t-67 5.5h-54l-91 -485q-11 -59 1.5 -74.5t80.5 -19.5l-7 -31h-303l7 31q62 4 78.5 20t28.5 74l93 485h-45q-55 0 -77.5 -6.5t-38.5 -24.5q-20 -24 -51 -90h-34q31 95 49 185h25q6 -16 15 -20.5t31 -4.5
h386q18 0 27 5t24 20zM540 821l17 -26q-69 -47 -143 -111h-31q-58 68 -108 111l20 26q65 -27 114 -57q75 37 131 57z" />
    <glyph glyph-name="tcaron" unicode="&#x165;" horiz-adv-x="316" 
d="M355 435l-28 -40l-95 -5l-54 -260q-13 -59 5 -59q11 0 38.5 17.5t46.5 36.5l16 -24q-31 -40 -84.5 -76.5t-92.5 -36.5q-60 0 -30 138l56 264h-72l-5 9l27 36h60l22 92l102 70l11 -9l-35 -153h112zM386 694q25 0 40.5 -20.5t15.5 -50.5q0 -50 -33 -83t-83 -45l-12 28
q63 31 63 67q0 27 -28 39q-10 5 -10 22t14 30t33 13z" />
    <glyph glyph-name="Tbar" unicode="&#x166;" horiz-adv-x="606" 
d="M642 674h24q-9 -42 -26 -183l-34 -2q0 68 -17 96q-9 16 -30 20.5t-69 4.5h-47l-49 -259h141l-11 -42h-138l-35 -185q-11 -58 2 -73.5t81 -19.5l-7 -31h-303l7 31q62 4 78.5 19.5t27.5 73.5l36 185h-128l11 42h125l50 259h-34q-57 0 -82.5 -7t-40.5 -24q-29 -33 -54 -90
l-34 1q31 97 49 184h23q7 -16 16 -20.5t30 -4.5h387q18 0 27 5t24 20z" />
    <glyph glyph-name="tbar" unicode="&#x167;" horiz-adv-x="327" 
d="M359 435l-27 -40l-96 -5l-26 -124h95l-14 -41h-90l-19 -94q-12 -59 5 -59q11 0 38.5 17.5t46.5 36.5l15 -25q-31 -40 -84.5 -76.5t-91.5 -36.5q-59 0 -30 139l20 98h-74l14 41h69l27 124h-72l-4 10l27 35h59l22 93l102 69l12 -9l-37 -153h113z" />
    <glyph glyph-name="Utilde" unicode="&#x168;" horiz-adv-x="707" 
d="M781 649l-7 -31q-44 -2 -62 -15t-28 -46q-17 -49 -39 -167l-18 -91q-34 -172 -113 -246q-71 -68 -177 -68q-103 0 -163 54q-77 72 -45 242l46 241q11 60 0 75.5t-69 20.5l8 31h275l-7 -31q-53 -5 -68 -20t-26 -76l-46 -242q-22 -119 14 -176t112 -57q85 0 137 65t77 198
l15 80q23 120 24 169q2 32 -17.5 44t-72.5 15l8 31h242zM590 799l28 -18q-30 -90 -84 -90q-23 0 -73 24q-30 13 -46 13q-28 0 -50 -45l-29 21q32 88 87 88q22 0 64 -19q37 -16 54 -16q25 0 49 42z" />
    <glyph glyph-name="utilde" unicode="&#x169;" horiz-adv-x="541" 
d="M502 123l15 -27q-45 -52 -89.5 -80t-72.5 -28q-47 0 -23 103q10 41 15 72h-1q-78 -102 -156 -151q-36 -24 -73 -24q-69 0 -37 139l47 199q7 36 -1 41q-9 0 -64 -43l-12 28q46 45 92 72.5t72 27.5q20 0 24.5 -21t-7.5 -76q-12 -56 -51 -220q-14 -64 10 -64q33 0 88.5 61.5
t81.5 109.5q22 92 41 183l95 27h13q-48 -191 -75 -333q-8 -42 2 -42q6 0 27 14t39 32zM450 628l30 -15q-32 -97 -86 -97q-16 0 -68 23q-26 13 -46 13q-25 0 -49 -44l-28 19q17 46 40 69.5t47 23.5q19 0 61 -19q38 -18 54 -18q22 0 45 45z" />
    <glyph glyph-name="Umacron" unicode="&#x16a;" horiz-adv-x="707" 
d="M781 649l-7 -31q-44 -2 -62 -15t-28 -46q-17 -49 -39 -167l-18 -91q-34 -172 -113 -246q-71 -68 -177 -68q-103 0 -163 54q-77 72 -45 242l46 241q11 60 0 75.5t-69 20.5l8 31h275l-7 -31q-53 -5 -68 -20t-26 -76l-46 -242q-22 -119 14 -176t112 -57q85 0 137 65t77 198
l15 80q23 120 24 169q2 32 -17.5 44t-72.5 15l8 31h242zM600 775l-16 -62h-233l17 62h232z" />
    <glyph glyph-name="umacron" unicode="&#x16b;" horiz-adv-x="541" 
d="M502 123l15 -27q-45 -52 -89.5 -80t-72.5 -28q-47 0 -23 103q10 41 15 72h-1q-78 -102 -156 -151q-36 -24 -73 -24q-69 0 -37 139l47 199q7 36 -1 41q-9 0 -64 -43l-12 28q46 45 92 72.5t72 27.5q20 0 24.5 -21t-7.5 -76q-12 -56 -51 -220q-14 -64 10 -64q33 0 88.5 61.5
t81.5 109.5q22 92 41 183l95 27h13q-48 -191 -75 -333q-8 -42 2 -42q6 0 27 14t39 32zM454 601l-15 -63h-232l15 63h232z" />
    <glyph glyph-name="Ubreve" unicode="&#x16c;" horiz-adv-x="707" 
d="M781 649l-7 -31q-44 -2 -62 -15t-28 -46q-17 -49 -39 -167l-18 -91q-34 -172 -113 -246q-71 -68 -177 -68q-103 0 -163 54q-77 72 -45 242l46 241q11 60 0 75.5t-69 20.5l8 31h275l-7 -31q-53 -5 -68 -20t-26 -76l-46 -242q-22 -119 14 -176t112 -57q85 0 137 65t77 198
l15 80q23 120 24 169q2 32 -17.5 44t-72.5 15l8 31h242zM562 806h34q-24 -127 -139 -127q-55 0 -81.5 33t-20.5 94h34q9 -58 77 -58q64 0 96 58z" />
    <glyph glyph-name="ubreve" unicode="&#x16d;" horiz-adv-x="541" 
d="M502 123l15 -27q-45 -52 -89.5 -80t-72.5 -28q-47 0 -23 103q10 41 15 72h-1q-76 -100 -156 -151q-36 -24 -73 -24q-69 0 -37 139l47 199q7 36 -1 41q-9 0 -64 -43l-12 28q46 44 91.5 72t71.5 28q21 0 25.5 -21t-7.5 -76l-51 -220q-14 -64 10 -64q33 0 88.5 61.5
t81.5 109.5q22 92 41 183l95 27h13q-48 -191 -75 -333q-8 -42 2 -42q6 0 27 14t39 32zM428 643h32q-22 -138 -137 -138q-50 0 -77.5 32.5t-15.5 105.5h34q0 -33 18 -51t52 -18q67 0 94 69z" />
    <glyph glyph-name="Uring" unicode="&#x16e;" horiz-adv-x="707" 
d="M781 649l-7 -31q-44 -2 -62 -15t-28 -46q-17 -49 -39 -167l-18 -91q-34 -172 -113 -246q-71 -68 -177 -68q-103 0 -163 54q-77 72 -45 242l46 241q11 60 0 75.5t-69 20.5l8 31h275l-7 -31q-53 -5 -68 -20t-26 -76l-46 -242q-22 -119 14 -176t112 -57q85 0 137 65t77 198
l15 80q23 120 24 169q2 32 -17.5 44t-72.5 15l8 31h242zM566 762q-1 -40 -31.5 -65t-69.5 -25q-37 0 -60.5 23t-22.5 60q1 42 30.5 68t69.5 26q36 0 60.5 -24t23.5 -63zM516 764q1 20 -9 34t-28 14q-21 0 -34 -15.5t-14 -39.5q-1 -21 9.5 -34t29.5 -13t32 15t14 39z" />
    <glyph glyph-name="uring" unicode="&#x16f;" horiz-adv-x="541" 
d="M502 123l15 -27q-45 -52 -89.5 -80t-72.5 -28q-47 0 -23 103q10 41 15 72h-1q-78 -102 -156 -151q-36 -24 -73 -24q-69 0 -37 139l47 199q7 36 -1 41q-9 0 -64 -43l-12 28q46 45 92 72.5t72 27.5q21 0 25.5 -21t-7.5 -76l-52 -220q-14 -64 10 -64q33 0 88.5 61.5
t81.5 109.5q22 92 41 183l95 27h13q-48 -191 -75 -333q-8 -42 2 -42q6 0 27 14t39 32zM353 669q37 0 62 -24.5t24 -64.5t-32 -65.5t-72 -25.5q-37 0 -61.5 23.5t-23.5 61.5q1 42 31.5 68.5t71.5 26.5zM349 631q-19 0 -33.5 -16t-15.5 -39q0 -22 10.5 -35.5t29.5 -13.5
q20 0 34 16t15 39q1 21 -10 35t-30 14z" />
    <glyph glyph-name="Uhungarumlaut" unicode="&#x170;" horiz-adv-x="707" 
d="M781 649l-7 -31q-44 -2 -62 -15t-28 -46q-17 -49 -39 -167l-18 -91q-34 -172 -113 -246q-71 -68 -177 -68q-103 0 -163 54q-77 72 -45 242l46 241q11 60 0 75.5t-69 20.5l8 31h275l-7 -31q-53 -5 -68 -20t-26 -76l-46 -242q-22 -119 14 -176t112 -57q85 0 137 65t77 198
l15 80q23 120 24 169q2 32 -17.5 44t-72.5 15l8 31h242zM495 805v-16l-108 -105l-28 15q17 37 52 125q13 4 44.5 -3t39.5 -16zM640 805v-16l-109 -105l-27 15q32 75 51 125q13 4 44.5 -3t40.5 -16z" />
    <glyph glyph-name="uhungarumlaut" unicode="&#x171;" horiz-adv-x="541" 
d="M502 123l15 -27q-45 -52 -89.5 -80t-72.5 -28q-47 0 -23 103q10 41 15 72h-1q-78 -102 -156 -151q-36 -24 -73 -24q-69 0 -37 139l47 199q7 36 -1 41q-9 0 -64 -43l-12 28q46 45 92 72.5t72 27.5q20 0 24.5 -21t-7.5 -76q-12 -56 -51 -220q-14 -64 10 -64q33 0 88.5 61.5
t81.5 109.5q22 92 41 183l95 27h13q-48 -191 -75 -333q-8 -42 2 -42q6 0 27 14t39 32zM380 656l-127 -167l-29 17q49 120 62 159q11 4 44.5 5t45.5 -1zM530 656l-127 -167l-28 17q36 89 61 159q12 4 44.5 5t45.5 -1z" />
    <glyph glyph-name="Uogonek" unicode="&#x172;" horiz-adv-x="707" 
d="M781 649l-7 -31q-44 -2 -62 -14.5t-29 -45.5q-17 -56 -38 -168l-18 -91q-35 -173 -114 -246q-49 -46 -115 -60q-89 -74 -89 -138q0 -16 12 -26.5t29 -10.5q20 0 47 11l7 -30l-59 -31q-22 -12 -47 -12q-32 0 -53 19t-21 50q0 77 115 160v1q-104 -2 -165 53q-78 71 -45 242
l46 241q11 60 0 75.5t-69 20.5l8 31h275l-7 -31q-53 -5 -68 -20t-26 -76l-46 -242q-22 -119 13.5 -176t112.5 -57q85 0 137 65t77 198l15 80q20 109 24 169q1 32 -18 44t-72 15l8 31h242z" />
    <glyph glyph-name="uogonek" unicode="&#x173;" horiz-adv-x="540" 
d="M502 123l15 -27q-69 -80 -128 -98q-44 -33 -68.5 -71.5t-24.5 -70.5q0 -34 39 -34q16 0 41 9l7 -30l-54 -29q-22 -11 -43 -11q-31 0 -51.5 18.5t-20.5 49.5q0 77 125 171q-23 19 -7 90l15 72h-2q-74 -99 -154 -150q-36 -24 -74 -24q-69 0 -37 139l47 199q9 40 -3 40
q-9 0 -62 -42l-12 28q46 44 91.5 72t71.5 28q21 0 25.5 -21t-7.5 -76l-51 -221q-14 -63 10 -63q33 0 88.5 61.5t82.5 109.5l40 183l95 27h13q-43 -170 -75 -333q-8 -43 2 -43q7 0 28 14.5t38 32.5z" />
    <glyph glyph-name="Wcircumflex" unicode="&#x174;" horiz-adv-x="951" 
d="M1013 649l-8 -31q-48 -7 -64.5 -21t-47.5 -77q-86 -169 -253 -531h-42l-79 465h-2l-226 -465h-41l-63 534q-7 60 -19.5 75t-61.5 20l7 31h252l-7 -31l-24 -4q-28 -5 -35 -16t-3 -52l38 -377h2l223 471h39l80 -474h2q107 231 163 368q20 49 14 62.5t-48 18.5l-21 3l8 31
h217zM721 709l-20 -26q-64 25 -116 56q-69 -35 -132 -56l-15 27q72 46 143 110h31q44 -52 109 -111z" />
    <glyph glyph-name="wcircumflex" unicode="&#x175;" horiz-adv-x="676" 
d="M479 112h2q117 157 117 226q0 28 -12 50q-7 14 1 29q15 35 49 35q21 0 35.5 -17.5t14.5 -45.5q0 -39 -40 -103q-60 -95 -214 -298h-37q-17 148 -35 285h-2q-140 -231 -175 -285h-34q-6 189 -17 321q-4 56 -15 56q-14 0 -56 -45l-17 23q35 47 74.5 78t67.5 31
q22 0 32.5 -26t13.5 -86q3 -77 3 -201h2q13 24 75 131l94 166h32l21.5 -169zM536 510l-28 -21q-29 29 -74 89q-80 -68 -110 -89l-24 23q93 105 133 162h30q25 -69 73 -164z" />
    <glyph glyph-name="Ycircumflex" unicode="&#x176;" horiz-adv-x="626" 
d="M700 649l-9 -32q-48 -5 -68.5 -18t-60.5 -63q-45 -56 -152 -215q-20 -27 -26 -59l-27 -132q-13 -62 0 -78t79 -21l-8 -31h-298l8 31q60 4 76.5 20t30.5 79l25 123q7 34 -5 66l-76 219q-19 50 -33.5 62.5t-59.5 17.5l8 31h252l-9 -31l-29 -6q-23 -4 -27.5 -13.5t3.5 -32.5
q35 -108 79 -228q94 135 146 223q16 27 11 37t-35 15l-25 4l9 32h221zM555 710l-20 -26q-65 26 -115 56q-66 -33 -132 -56l-16 26q70 46 143 111h31q44 -52 109 -111z" />
    <glyph glyph-name="ycircumflex" unicode="&#x177;" horiz-adv-x="459" 
d="M262 89h2q118 176 118 249q-1 19 -14 51q-5 17 3 32q17 31 50 31q19 0 33 -17t15 -46q0 -45 -38 -110q-60 -101 -169 -255q-110 -157 -185 -242l-122 -30l-8 25q147 97 226 201q1 58 -10 160.5t-24 173.5q-9 51 -21 51q-16 0 -55 -54l-20 26q31 50 68.5 83.5t66.5 33.5
q25 0 40 -30t23 -99q13 -105 21 -234zM411 510l-27 -22q-33 33 -75 89q-74 -63 -110 -89l-24 24q93 105 133 161h30q25 -69 73 -163z" />
    <glyph glyph-name="Ydieresis" unicode="&#x178;" horiz-adv-x="626" 
d="M701 649l-9 -32q-48 -5 -69 -18.5t-60 -62.5q-40 -50 -153 -215q-20 -27 -26 -59l-27 -132q-13 -62 0.5 -78t79.5 -21l-8 -31h-299l8 31q60 5 77 20.5t30 78.5l26 123q6 32 -5 66l-77 219q-19 50 -33.5 62.5t-59.5 17.5l8 31h252l-9 -31l-29 -6q-23 -4 -27.5 -13.5
t3.5 -32.5q28 -86 80 -228q94 135 146 223q16 27 11 37t-35 15l-25 4l9 32h221zM325 812q23 0 35.5 -14.5t12.5 -36.5q0 -27 -17.5 -47t-44.5 -20q-22 0 -36 14t-14 38t17.5 45t46.5 21zM527 812q23 0 35.5 -14.5t12.5 -36.5q0 -27 -17.5 -47t-45.5 -20q-22 0 -35.5 14
t-14.5 38q0 24 18 45t47 21z" />
    <glyph glyph-name="Zacute" unicode="&#x179;" horiz-adv-x="600" 
d="M621 649l8 -16l-465 -588q44 -6 136 -6q135 0 175 33q36 31 77 111l33 -14q-34 -111 -61 -169h-515l-8 18l471 592h-132q-69 0 -95.5 -7.5t-42.5 -26.5q-29 -33 -53 -95l-34 4q26 101 42 189h24q8 -17 17.5 -21t31.5 -4h391zM558 752l-4 -10l-202 -60l-15 29l172 111
q12 -3 29 -27.5t20 -42.5z" />
    <glyph glyph-name="zacute" unicode="&#x17a;" horiz-adv-x="416" 
d="M430 466l22 -22l-68 -79q-51 -54 -254 -254q32 3 79 -15q56 -20 81 -20q44 0 101 83l26 -20q-41 -89 -76.5 -124.5t-72.5 -35.5q-32 0 -130 48q-48 23 -72 5q-15 -11 -29 -34q-7 -9 -14 -9q-9 5 -12.5 16.5t7.5 37t42 57.5l269 262q-28 -7 -65 -4q-63 5 -81 5
q-36 1 -57 -17t-47 -60l-28 16q24 54 47 90q39 59 78 59q34 0 95 -12q58 -11 92 -11q29 0 67 38zM420 661l-166 -171l-28 19q50 88 88 163q13 3 49.5 5.5t52.5 -0.5z" />
    <glyph glyph-name="Zdotaccent" unicode="&#x17b;" horiz-adv-x="600" 
d="M621 649l8 -16l-465 -588q44 -6 136 -6q135 0 174 33q36 31 78 111l33 -14q-42 -126 -62 -169h-514l-8 18l470 592h-131q-69 0 -95.5 -7.5t-42.5 -26.5q-29 -33 -53 -95l-34 4q26 101 42 189h24q8 -17 17.5 -21t31.5 -4h391zM394 822q24 0 37.5 -16t13.5 -39
q0 -28 -19 -49t-47 -21q-23 0 -37.5 15t-15.5 40q0 25 18.5 47.5t49.5 22.5z" />
    <glyph glyph-name="zdotaccent" unicode="&#x17c;" horiz-adv-x="416" 
d="M431 466l21 -22q-35 -44 -68 -79q-63 -67 -253 -254q32 3 79 -15q56 -20 81 -20q44 0 101 83l26 -20q-42 -89 -77.5 -124.5t-71.5 -35.5q-32 0 -130 48q-48 23 -72 5q-13 -9 -30 -34q-6 -9 -13 -9q-9 5 -12.5 16.5t7 37t41.5 57.5l121 116t149 146q-29 -7 -66 -4
q-60 5 -80 5q-36 1 -57.5 -17.5t-46.5 -59.5l-28 16q26 60 47 90q38 59 78 59q34 0 94 -12q59 -11 93 -11q29 0 67 38zM296 645q24 0 37.5 -16t13.5 -39q0 -29 -18.5 -49.5t-47.5 -20.5q-24 0 -38.5 15t-14.5 40t18.5 47.5t49.5 22.5z" />
    <glyph glyph-name="Zcaron" unicode="&#x17d;" horiz-adv-x="600" 
d="M621 649l8 -16l-465 -588q44 -6 136 -6q135 0 175 33q36 31 77 111l33 -14q-34 -111 -61 -169h-515l-8 18l471 592h-132q-69 0 -95.5 -7.5t-42.5 -26.5q-29 -33 -53 -95l-34 4q26 101 42 189h24q8 -17 17.5 -21t31.5 -4h391zM526 825l16 -26q-67 -46 -143 -111h-30
q-61 69 -108 111l20 26q65 -27 114 -57q69 34 131 57z" />
    <glyph glyph-name="zcaron" unicode="&#x17e;" horiz-adv-x="416" 
d="M430 466l22 -22l-68 -79q-51 -54 -254 -254q32 3 79 -15q56 -20 81 -20q44 0 101 83l26 -20q-41 -89 -76.5 -124.5t-72.5 -35.5q-32 0 -130 48q-48 23 -72 5q-15 -11 -29 -34q-7 -9 -14 -9q-9 5 -12.5 16.5t7.5 37t42 57.5l269 262q-28 -7 -65 -4q-63 5 -81 5
q-36 1 -57 -17t-47 -60l-28 16q24 54 47 90q39 59 78 59q34 0 95 -12q58 -11 92 -11q29 0 67 38zM387 678l25 -23q-96 -111 -133 -163h-30q-24 70 -73 165l29 21q21 -23 74 -90q77 68 108 90z" />
    <glyph glyph-name="longs" unicode="&#x17f;" horiz-adv-x="245" 
d="M359 706q28 0 47 -16t18 -35q-2 -33 -32 -52q-14 -10 -26 2q-43 43 -70 43q-15 0 -26 -15t-26 -72t-32 -163q-33 -217 -53 -305q-26 -116 -58.5 -178t-85.5 -108q-59 -55 -110 -55q-24 0 -44 13.5t-20 31.5q0 28 33 53q13 9 21 1q33 -31 70 -31q22 0 34 21q25 36 55 225
q26 174 41 264q34 198 116 293q30 34 71 58.5t77 24.5z" />
    <glyph glyph-name="florin" unicode="&#x192;" horiz-adv-x="489" 
d="M194 375l10 41q27 111 110 177q73 59 136 59q22 0 42.5 -14.5t20.5 -33.5q0 -12 -8 -25t-19 -20q-14 -10 -26 1q-37 39 -66 39q-22 0 -35 -25q-18 -34 -49 -199h115l-12 -41h-112l-35 -162q-15 -68 -34 -117.5t-42 -80t-41 -46.5t-43 -32q-52 -34 -91 -34
q-23 0 -42.5 14.5t-18.5 31.5q0 26 31 47q11 9 20 0q42 -37 64 -37q20 0 32 30q17 43 38 153l45 233h-93l13 41h90z" />
    <glyph glyph-name="Ohorn" unicode="&#x1a0;" horiz-adv-x="718" 
d="M337 -15q-122 0 -197.5 77t-75.5 205q0 162 105.5 279.5t263.5 117.5q35 0 73 -8q59 -14 98 -14q35 0 55.5 11t20.5 24q0 18 -29 23q-22 3 -22 24q0 22 18.5 37t41.5 15q24 0 38 -14t14 -39q0 -49 -35 -80t-98 -38q44 -37 71 -95.5t27 -132.5q0 -165 -104.5 -278.5
t-264.5 -113.5zM343 24q69 0 124.5 58.5t83 143.5t27.5 172q0 103 -36.5 164.5t-114.5 61.5q-65 0 -119.5 -55.5t-85 -141.5t-30.5 -179q0 -101 37.5 -162.5t113.5 -61.5z" />
    <glyph glyph-name="ohorn" unicode="&#x1a1;" horiz-adv-x="484" 
d="M224 31q13 0 28 5q35 14 64 88.5t29 171.5q0 57 -18.5 85.5t-48.5 28.5q-16 0 -29 -6q-31 -15 -62.5 -83.5t-31.5 -175.5q0 -54 19.5 -84t49.5 -30zM186 -12q-76 0 -110 46.5t-34 114.5q0 92 43.5 163t106.5 104q64 36 123 36q24 0 52 -7q22 -6 42 -6q27 0 44 9.5
t17 22.5q0 9 -6 14t-23 8q-22 3 -22 25t16 36t38 14q23 0 36.5 -15.5t13.5 -42.5q0 -80 -99 -105q34 -40 34 -111q0 -68 -27.5 -133.5t-79.5 -108.5q-74 -64 -165 -64z" />
    <glyph glyph-name="Uhorn" unicode="&#x1af;" horiz-adv-x="707" 
d="M531 618l8 31h108q122 0 122 32q0 17 -29 21q-21 5 -21 25q0 22 18 37t41 15q24 0 37.5 -14.5t13.5 -39.5q0 -73 -81 -103q-31 -12 -43 -23.5t-21 -41.5q-17 -49 -39 -167l-18 -91q-34 -172 -113 -246q-71 -68 -177 -68q-103 0 -163 54q-77 72 -45 242l46 241
q11 60 0 75.5t-69 20.5l8 31h275l-7 -31q-53 -5 -68 -20t-26 -76l-46 -242q-22 -119 14 -176t112 -57q85 0 137 65t77 198l15 80q23 120 24 169q2 32 -17.5 44t-72.5 15z" />
    <glyph glyph-name="uhorn" unicode="&#x1b0;" horiz-adv-x="541" 
d="M502 123l15 -27q-45 -52 -89.5 -80t-72.5 -28q-47 0 -23 103q10 41 15 72h-1q-76 -100 -156 -151q-36 -24 -73 -24q-69 0 -37 139l47 199q7 36 -1 41q-9 0 -64 -43l-12 28q46 44 91.5 72t71.5 28q21 0 25.5 -21t-7.5 -76l-51 -220q-14 -64 10 -64q33 0 88.5 61.5
t81.5 109.5q22 92 42 188l37 6q107 18 107 46q0 10 -5.5 14.5t-23.5 7.5q-22 6 -22 26q0 22 16 36t38 14q23 0 37 -15.5t14 -42.5q0 -74 -101 -109q-42 -170 -65 -294q-8 -42 2 -42q6 0 27 14t39 32z" />
    <glyph glyph-name="Aringacute" unicode="&#x1fa;" horiz-adv-x="669" 
d="M627 31l-8 -31h-259l9 31q46 5 56.5 17.5t5.5 48.5q-5 29 -19 125h-198l-60 -122q-19 -37 -9.5 -49.5t65.5 -19.5l-8 -31h-221l8 31q47 8 66.5 24.5t58.5 83.5l293 513l44 11l22 -137q11 -71 34 -204t32 -191q10 -62 23.5 -78t64.5 -22zM405 270l-35 236h-3l-57 -103.5
l-71 -132.5h166zM531 771q-1 -40 -31.5 -65t-69.5 -25q-37 0 -60.5 23t-22.5 61q1 41 30.5 67t69.5 26q36 0 60.5 -24t23.5 -63zM481 773q1 20 -9 34t-28 14q-21 0 -34 -15.5t-14 -39.5q-1 -21 9.5 -34t29.5 -13t32 15.5t14 38.5zM606 951l-4 -10l-202 -60l-15 29l172 111
q12 -3 29 -27.5t20 -42.5z" />
    <glyph glyph-name="aringacute" unicode="&#x1fb;" horiz-adv-x="509" 
d="M477 127l15 -26q-44 -53 -91.5 -83t-74.5 -30q-44 0 -24 99l14 68h-3q-45 -64 -109 -118q-58 -49 -102 -49q-28 0 -47 31t-19 88q0 73 31 144t83 116q39 35 95 60t109 25q24 0 63 -7q30 -6 51 -6l5 -4q-42 -171 -67 -317q-8 -41 2 -41q7 0 28.5 15.5t40.5 34.5zM173 69
q25 0 81 62.5t74 102.5q23 83 35 157q-24 13 -60 13q-32 0 -54 -16q-46 -33 -73 -109.5t-27 -150.5q0 -59 24 -59zM356 670q36 0 61 -24.5t24 -64.5q-1 -41 -32 -66.5t-71 -25.5q-38 0 -62.5 24t-23.5 62q1 42 32 68.5t72 26.5zM351 632q-19 0 -33 -16t-15 -39
q-1 -22 10 -36t29 -14q20 0 34 16t15 39q1 22 -10 36t-30 14zM522 863l-166 -171l-28 19q50 88 88 163q13 3 50 5t52 0z" />
    <glyph glyph-name="AEacute" unicode="&#x1fc;" horiz-adv-x="860" 
d="M848 495l-33 -3q-5 66 -19 89q-10 17 -30 23t-67 6h-56q-25 0 -32 -6.5t-12 -31.5l-44 -235h79q63 0 80 11.5t38 64.5h34l-39 -201h-33q0 57 -12.5 68.5t-76.5 11.5h-79l-28 -152q-11 -64 6 -83q18 -18 91 -18q48 0 74.5 6.5t46.5 25.5q28 26 67 98l32 -13
q-45 -128 -59 -156h-480l6 32q56 5 73 19.5t29 73.5l32 167h-172q-109 -166 -124 -193q-19 -34 -14.5 -46t37.5 -16l29 -5l-8 -32h-235l7 32q49 6 69.5 18.5t54.5 59.5l316 452q20 29 15.5 37.5t-41.5 12.5l-53 5l9 32h539q-1 -6 -7 -64.5t-10 -89.5zM293 337h152l53 271
q-16 -2 -33 -16zM762 752l-4 -10l-202 -60l-15 29l172 111q12 -3 29 -27.5t20 -42.5z" />
    <glyph glyph-name="aeacute" unicode="&#x1fd;" horiz-adv-x="679" 
d="M634 136l18 -27q-112 -121 -230 -121q-46 0 -79.5 31.5t-34.5 104.5q0 12 1 23l-2 1q-42 -59 -101 -108q-64 -52 -109 -52q-26 0 -45 28t-19 86q0 75 30.5 148.5t79.5 117.5q37 34 94.5 59.5t106.5 25.5q20 0 52 -9q5 0 14 0.5t16 1t13 1.5l4 -5l-13 -52l2 -2
q33 31 74 48t77 17q44 0 69 -23.5t25 -59.5q0 -113 -264 -182q-1 -5 -1 -29q0 -99 75 -99q71 0 147 76zM299 407q-32 0 -52 -14q-36 -24 -66 -97q-35 -84 -35 -172q0 -54 23 -54q30 0 74 50q55 62 77 113q9 21 22 79t15 79q-24 16 -58 16zM537 406q-22 0 -43 -16
q-59 -43 -77 -165q87 26 124 58.5t37 74.5q0 23 -11.5 35.5t-29.5 12.5zM576 661l-166 -171l-28 19q50 88 88 163q12 4 50 6t52 0z" />
    <glyph glyph-name="Oslashacute" unicode="&#x1fe;" horiz-adv-x="717" 
d="M640 695l32 -26l-54 -71q88 -81 88 -221q0 -166 -104.5 -279t-265.5 -113q-90 0 -153 42l-55 -72l-29 28l52 68q-87 78 -87 219q0 160 106 277t265 117q88 0 150 -41zM213 129l326 433q-32 63 -112 63q-67 0 -123 -55t-85.5 -139t-29.5 -175q0 -77 24 -127zM559 522
l-325 -432q34 -65 111 -65q69 0 124.5 57t83.5 140t28 171q0 79 -22 129zM590 761l-4 -10l-202 -60l-16 28l172 112q13 -3 30 -27.5t20 -42.5z" />
    <glyph glyph-name="oslashacute" unicode="&#x1ff;" horiz-adv-x="485" 
d="M428 485l25 -20l-36 -50q42 -41 42 -127q0 -64 -27.5 -128t-76.5 -106q-32 -28 -78.5 -47t-89.5 -19q-47 0 -76 19l-40 -52l-23 23l36 48q-41 44 -41 126q0 91 41.5 160.5t103.5 103.5q69 37 128 37q44 0 74 -18zM154 116l185 250q-17 45 -56 45q-19 0 -32 -6
q-34 -15 -68.5 -78t-34.5 -166q0 -24 6 -45zM351 326l-186 -249q19 -45 56 -45q18 0 29 5q37 14 71 86.5t33 168.5q0 19 -3 34zM441 660l-167 -170l-27 18q37 65 88 163q12 4 49.5 6t52.5 0z" />
    <glyph glyph-name="Scommaaccent" unicode="&#x218;" horiz-adv-x="482" 
d="M36 202l32 3q5 -29 15.5 -58t28.5 -58.5t48.5 -47.5t67.5 -18q52 0 82.5 33t30.5 84q0 66 -84 133l-30 22q-53 42 -84.5 84.5t-31.5 98.5q0 84 59.5 135t152.5 51q58 0 107 -18q10 -3 24.5 -9t17.5 -7q-3 -30 -5 -149l-32 -3q-20 149 -121 149q-47 0 -74.5 -32.5
t-27.5 -75.5q0 -37 21 -65t64 -59l31 -22q60 -44 91 -87.5t31 -103.5q0 -89 -67.5 -143t-165.5 -54q-57 0 -106.5 19t-72.5 42q0 79 -2 156zM217 -50q28 0 48 -20.5t20 -54.5q0 -48 -38 -80t-96 -45l-10 30q37 15 55.5 29.5t18.5 35.5q0 29 -39 40q-12 4 -12 22t15 30.5
t38 12.5z" />
    <glyph glyph-name="scommaaccent" unicode="&#x219;" horiz-adv-x="348" 
d="M118 -12q-41 0 -76 23t-35 54q-1 15 8.5 29.5t23.5 22.5q20 12 32 -2q24 -32 53 -51t54 -19q23 0 38 12.5t15 32.5q0 17 -13 34t-49 44q-26 19 -35 27t-27.5 26t-26 36t-7.5 39q0 57 59 106q62 50 119 50q37 0 62 -19t25 -44q2 -28 -31 -50q-17 -11 -26 4q-41 53 -86 53
q-19 0 -31.5 -12t-12.5 -31q1 -36 69 -82q47 -33 69.5 -61t22.5 -63q0 -61 -64 -110t-130 -49zM127 -42q28 0 48 -20.5t20 -54.5q0 -48 -38 -80t-96 -45l-10 30q37 15 55.5 29.5t18.5 35.5q0 29 -39 40q-12 3 -12 22q0 18 15 30.5t38 12.5z" />
    <glyph glyph-name="uni021A" unicode="&#x21a;" horiz-adv-x="615" 
d="M643 674h26q-9 -42 -26 -183l-34 -3q0 70 -14 95q-10 16 -30 21.5t-67 5.5h-54l-91 -485q-11 -59 1.5 -74.5t80.5 -19.5l-7 -31h-303l7 31q62 4 78.5 20t28.5 74l93 485h-45q-55 0 -77.5 -6.5t-38.5 -24.5q-20 -24 -51 -90h-34q31 95 49 185h25q6 -16 15 -20.5t31 -4.5
h386q18 0 27 5t24 20zM271 -40q28 0 48 -20.5t20 -54.5q0 -48 -38 -80t-96 -45l-10 30q37 15 55.5 29.5t18.5 35.5q0 29 -39 40q-12 3 -12 22q0 18 15 30.5t38 12.5z" />
    <glyph glyph-name="uni021B" unicode="&#x21b;" horiz-adv-x="316" 
d="M355 435l-28 -40l-95 -5l-54 -260q-13 -59 5 -59q11 0 38.5 17.5t46.5 36.5l15 -24q-30 -40 -83.5 -76.5t-92.5 -36.5q-60 0 -30 138l56 264h-72l-5 9l27 36h60l22 93l102 69l11 -8l-35 -154h112zM126 -39q27 0 47 -20t20 -54q1 -48 -37.5 -80.5t-96.5 -44.5l-9 29
q36 15 54.5 30t18.5 35q0 30 -39 41q-12 2 -12 21q0 18 15 30.5t39 12.5z" />
    <glyph glyph-name="uni021C" unicode="&#x21c;" horiz-adv-x="515" 
d="M141 262l-10 34q243 82 243 224q0 48 -25.5 75.5t-66.5 27.5q-47 0 -82.5 -36.5t-70.5 -112.5l-31 11q19 57 39 141q13 3 52 15t69 17.5t62 5.5q81 0 127.5 -35t46.5 -93q0 -57 -43 -101.5t-121 -84.5v-2q70 -15 113 -58.5t43 -107.5q0 -119 -124.5 -202.5t-312.5 -104.5
l-60 51l12 23q63 -18 110 -18q103 0 176 62t73 157q0 62 -36 97t-88 35q-38 0 -95 -20z" />
    <glyph glyph-name="uni021D" unicode="&#x21d;" horiz-adv-x="383" 
d="M60 107l-6 30q180 71 180 173q0 32 -17.5 50.5t-47.5 18.5q-44 0 -112 -55l-17 25q101 103 189 103q52 0 84 -29.5t32 -75.5q0 -81 -121 -154v-2q53 -11 84 -45t31 -83q0 -104 -106.5 -189t-247.5 -103l-47 40l12 21q36 -8 63 -8q87 0 149 54.5t62 141.5q0 48 -24.5 75.5
t-61.5 27.5q-31 0 -78 -16z" />
    <glyph glyph-name="uni0232" unicode="&#x232;" horiz-adv-x="626" 
d="M700 649l-8 -32q-48 -5 -68.5 -18t-60.5 -63q-45 -56 -152 -215q-20 -27 -26 -59l-27 -132q-13 -62 0 -78t79 -21l-8 -31h-298l8 31q59 5 76 20.5t30 78.5l26 123q7 34 -5 66l-78 219q-18 50 -32.5 62.5t-60.5 17.5l9 31h251l-8 -31l-29 -6q-23 -4 -27.5 -13t3.5 -33
q35 -108 79 -228q94 135 146 223q16 27 11 37t-35 15l-25 4l9 32h221zM560 775l-16 -62h-233l17 62h232z" />
    <glyph glyph-name="uni0233" unicode="&#x233;" horiz-adv-x="459" 
d="M262 89h2q118 176 118 249q-1 19 -14 51q-5 17 3 32q17 31 50 31q19 0 33 -17t15 -46q0 -45 -38 -110q-60 -101 -169 -255q-110 -157 -185 -242l-122 -30l-8 25q147 97 226 201q1 58 -10 160.5t-24 173.5q-9 51 -21 51q-14 0 -55 -54l-20 26q31 50 68.5 83.5t66.5 33.5
q25 0 40 -30t23 -98q13 -107 21 -235zM412 602l-15 -63h-232l15 63h232z" />
    <glyph glyph-name="uni0237" unicode="&#x237;" horiz-adv-x="280" 
d="M61 320l-14 26q46 45 97 75.5t79 30.5q21 0 24 -27t-9 -85q-17 -93 -57 -288q-35 -169 -133 -245q-72 -57 -111 -57q-18 0 -32.5 10.5t-14.5 26.5q0 27 31 54q10 8 20 2q37 -25 59 -25q16 0 26.5 16.5t21.5 62.5q20 88 81 415q10 50 0 50q-7 0 -29 -14t-39 -28z" />
    <glyph glyph-name="circumflex" unicode="&#x2c6;" 
d="M379 511l-28 -22q-29 29 -74 89q-74 -63 -110 -89l-24 24q93 105 133 161h30q23 -66 73 -163z" />
    <glyph glyph-name="caron" unicode="&#x2c7;" 
d="M380 677l25 -23q-83 -91 -133 -162h-30q-23 63 -73 164l29 21q31 -33 73 -90q71 63 109 90z" />
    <glyph glyph-name="uni02C9" unicode="&#x2c9;" 
d="M383 602l-15 -63h-232l15 63h232z" />
    <glyph glyph-name="breve" unicode="&#x2d8;" 
d="M357 643h33q-22 -138 -138 -138q-50 0 -77.5 32.5t-14.5 105.5h33q0 -33 18 -51t51 -18q68 0 95 69z" />
    <glyph glyph-name="dotaccent" unicode="&#x2d9;" 
d="M283 644q24 0 37.5 -16t13.5 -38q0 -29 -19 -50t-47 -21q-23 0 -37.5 15t-14.5 40t18 47.5t49 22.5z" />
    <glyph glyph-name="ring" unicode="&#x2da;" 
d="M283 670q36 0 61 -24.5t24 -64.5q-1 -41 -32 -66.5t-71 -25.5q-38 0 -62.5 24t-23.5 62q1 42 32 68.5t72 26.5zM278 632q-19 0 -33 -16t-15 -39q-1 -22 10 -36t29 -14q20 0 34 16t15 39q1 22 -10 36t-30 14z" />
    <glyph glyph-name="ogonek" unicode="&#x2db;" 
d="M266 -152l7 -30l-54 -28q-22 -10 -40 -10q-31 0 -52 18.5t-21 48.5q0 70 132 155h45q-96 -80 -96 -129q0 -33 38 -33q19 0 41 8z" />
    <glyph glyph-name="tilde" unicode="&#x2dc;" 
d="M371 627l30 -14q-33 -97 -87 -97q-16 0 -68 23q-26 13 -46 13q-24 0 -48 -44l-28 19q16 46 39.5 69.5t46.5 23.5q19 0 61 -19q38 -18 54 -18q23 0 46 44z" />
    <glyph glyph-name="hungarumlaut" unicode="&#x2dd;" 
d="M264 656l-126 -167l-29 16q12 29 37 95l25 65q11 4 43.5 5t45.5 -2zM414 656l-127 -167l-27 16l22 57.5l25.5 67t13.5 35.5q11 4 43.5 5t45.5 -2z" />
    <glyph glyph-name="uni0374" unicode="&#x374;" horiz-adv-x="253" 
d="M289 640v-21l-141 -227l-26 12q39 117 76 252q12 4 48 -2t43 -14z" />
    <glyph glyph-name="uni0375" unicode="&#x375;" horiz-adv-x="253" 
d="M164 130v-19l-140 -236l-29 14q49 150 78 257q12 4 47.5 -2t43.5 -14z" />
    <glyph glyph-name="uni037E" unicode="&#x37e;" horiz-adv-x="253" 
d="M147 259q-29 0 -47.5 20t-18.5 51q0 36 22 60t56 24q30 0 48.5 -20.5t18.5 -52.5q0 -37 -23.5 -59.5t-55.5 -22.5zM163 130v-22q-57 -99 -143 -233l-24 15q48 149 75 255q12 4 48 -2.5t44 -12.5z" />
    <glyph glyph-name="tonos" unicode="&#x384;" horiz-adv-x="399" 
d="M341 656l-112 -171l-32 14q26 92 44 174q14 3 51 2t46 -4z" />
    <glyph glyph-name="dieresistonos" unicode="&#x385;" 
d="M381 508q-20 0 -33 13.5t-13 35.5q0 23 16.5 42.5t43.5 19.5q21 0 33 -14t12 -35q0 -26 -16.5 -44t-42.5 -18zM348 661l-103 -176l-31 10q8 32 18.5 92.5t14.5 79.5q13 4 48.5 5.5t48.5 -0.5zM138 508q-21 0 -34 13.5t-13 35.5q0 23 16.5 42.5t43.5 19.5q21 0 33 -14
t12 -35q0 -26 -16.5 -44t-41.5 -18z" />
    <glyph glyph-name="Alphatonos" unicode="&#x386;" horiz-adv-x="669" 
d="M627 31l-8 -31h-259l9 31q46 5 56.5 17.5t5.5 48.5q-5 29 -19 125h-198l-60 -122q-19 -37 -9.5 -49.5t65.5 -19.5l-8 -31h-221l8 31q47 8 66.5 24.5t58.5 83.5l293 513l44 11l22 -137q11 -71 34 -204t32 -191q10 -62 23.5 -78t64.5 -22zM405 270l-35 236h-3l-57 -103.5
l-71 -132.5h166zM291 685l-112 -171l-32 14q26 92 44 174q14 3 51 2t46 -4z" />
    <glyph glyph-name="anoteleia" unicode="&#x387;" horiz-adv-x="253" 
d="M136 200q-28 0 -47 20.5t-19 51.5q0 37 22.5 61t56.5 24q30 0 49 -21t19 -53q0 -37 -24 -60t-57 -23z" />
    <glyph glyph-name="Epsilontonos" unicode="&#x388;" horiz-adv-x="566" 
d="M124 649h450q-1 -6 -7.5 -65t-10.5 -91l-33 -2q-3 70 -18 91q-9 16 -27 22t-63 6h-60q-27 0 -34.5 -6.5t-12.5 -35.5l-40 -206h77q44 0 63 5.5t28 18t25 49.5h33l-39 -200h-34q2 58 -9.5 70t-74.5 12h-78l-32 -172q-13 -71 3 -88q15 -18 90 -18q88 0 122 33q34 32 70 97
l32 -12q-40 -111 -62 -157h-480l7 31q59 5 74 19t27 74l77 401q11 58 0 73t-70 20zM83 685l-112 -170l-32 13q28 100 44 174q14 3 51 2t46 -4z" />
    <glyph glyph-name="Etatonos" unicode="&#x389;" horiz-adv-x="755" 
d="M804 649l-7 -31q-56 -5 -71 -19.5t-26 -74.5l-77 -398q-11 -60 0 -75t71 -20l-7 -31h-285l7 31q59 5 74.5 20t26.5 75l37 194h-288l-36 -194q-11 -60 0.5 -75t70.5 -20l-8 -31h-279l7 31q55 5 69.5 20t26.5 75l77 398q12 59 0 74t-74 20l8 31h279l-8 -31
q-53 -5 -67.5 -20t-25.5 -74l-30 -156h287l30 156q12 59 1 74t-69 20l8 31h278zM86 685l-112 -171l-32 14q26 92 44 174q14 3 51 2t46 -4z" />
    <glyph glyph-name="Iotatonos" unicode="&#x38a;" horiz-adv-x="355" 
d="M403 649l-7 -31q-56 -5 -70.5 -19.5t-25.5 -72.5l-77 -402q-12 -59 -0.5 -73.5t71.5 -19.5l-7 -31h-281l7 31q55 4 70 19t27 74l78 402q11 58 -0.5 72.5t-72.5 19.5l8 31h280zM89 685l-112 -171l-32 14q26 92 44 174q14 3 51 2t46 -4z" />
    <glyph glyph-name="Omicrontonos" unicode="&#x38c;" horiz-adv-x="718" 
d="M433 664q123 0 198 -79.5t75 -207.5q0 -165 -104.5 -278.5t-264.5 -113.5q-122 0 -197.5 77t-75.5 205q0 162 105.5 279.5t263.5 117.5zM427 624q-65 0 -119.5 -55.5t-85 -141.5t-30.5 -179q0 -101 37.5 -162.5t113.5 -61.5q69 0 124.5 58.5t83 143.5t27.5 172
q0 103 -36.5 164.5t-114.5 61.5zM152 676l-112 -171l-32 14q26 92 44 174q14 3 51 2t46 -4z" />
    <glyph glyph-name="Upsilontonos" unicode="&#x38e;" horiz-adv-x="671" 
d="M749 628l-10 -29q-16 2 -27 2q-82 0 -165 -101q-114 -139 -150 -327l-8 -42q-12 -64 0 -79t77 -20l-6 -32h-298l6 32q61 5 78.5 20.5t30.5 78.5l9 45q32 160 9 272q-32 144 -142 144q-31 0 -57 -6l-6 29q74 49 143 49q96 0 138 -111q36 -85 17 -251h4q46 157 132 254
q87 108 162 108q35 0 63 -36zM77 685l-111 -170l-32 13q33 124 44 174q13 3 50.5 2t46.5 -4z" />
    <glyph glyph-name="Omegatonos" unicode="&#x38f;" horiz-adv-x="742" 
d="M674 148l31 -1l-45 -147h-262l-7 19q0 1 17.5 18.5t24 24.5t25 28.5t28.5 35l27 38t27 43.5t22.5 45.5t19 50.5t11.5 52t5 56q0 101 -39.5 157.5t-113.5 56.5q-69 0 -121 -50.5t-76 -123.5t-24 -154q0 -150 61 -278l-10 -19h-241v147h29q9 -38 22 -48.5t46 -10.5h87
q-31 36 -51 63.5t-41.5 81t-21.5 106.5q0 136 100 230.5t247 94.5q120 0 193 -72t73 -193q0 -41 -12.5 -79.5t-28 -65t-44.5 -57t-44.5 -44t-48 -38t-35.5 -27.5h89q29 0 42.5 10t38.5 50zM146 676l-112 -171l-32 14q26 92 44 174q14 3 51 2t46 -4z" />
    <glyph glyph-name="iotadieresistonos" unicode="&#x390;" horiz-adv-x="267" 
d="M225 119l16 -25q-41 -46 -89 -76t-75 -30q-51 0 -27 109l73 330l104 25l3 -8q-49 -198 -75 -330q-8 -39 2 -39q19 0 68 44zM315 508q-20 0 -33 13.5t-13 35.5q0 23 16.5 42t43.5 19q21 0 33 -14t12 -35q0 -25 -16.5 -43t-42.5 -18zM282 660l-101 -175l-32 9
q7 33 17.5 93.5t14.5 78.5q13 4 48.5 5.5t48.5 -0.5zM73 508q-21 0 -34 13.5t-13 35.5q0 23 16.5 42.5t43.5 19.5q21 0 33 -14t12 -35q0 -26 -16.5 -44t-41.5 -18z" />
    <glyph glyph-name="Alpha" unicode="&#x391;" horiz-adv-x="669" 
d="M627 31l-8 -31h-259l9 31q46 5 56.5 17.5t5.5 48.5q-5 29 -19 125h-198l-60 -122q-19 -37 -9.5 -49.5t65.5 -19.5l-8 -31h-221l8 31q47 8 66.5 24.5t58.5 83.5l293 513l44 11l22 -137q11 -71 34 -204t32 -191q10 -62 23.5 -78t64.5 -22zM405 270l-35 236h-3l-57 -103.5
l-71 -132.5h166z" />
    <glyph glyph-name="Beta" unicode="&#x392;" horiz-adv-x="606" 
d="M126 649h252q203 0 203 -138q0 -123 -168 -155v-2q68 -13 109.5 -51.5t41.5 -102.5q0 -108 -114 -164q-73 -36 -216 -36h-230l8 31q54 4 70 19.5t28 75.5l78 399q11 58 -0.5 73t-69.5 20zM266 369h35q78 0 119.5 38t41.5 101q0 53 -29 78t-73 25q-30 0 -41 -10
q-11 -8 -18 -46zM259 330l-39 -202q-10 -53 7 -71.5t58 -18.5q63 0 108 45t45 121q0 66 -41 96t-104 30h-34z" />
    <glyph glyph-name="Gamma" unicode="&#x393;" horiz-adv-x="528" 
d="M127 649h446l-7.5 -69t-10.5 -92l-34 -2q-5 70 -21 95q-16 27 -85 27h-60q-26 0 -33.5 -6.5t-12.5 -32.5l-85 -443q-11 -60 2.5 -75t81.5 -20l-8 -31h-292l8 31q53 5 68.5 20.5t26.5 74.5l79 397q11 60 -0.5 75t-69.5 20z" />
    <glyph glyph-name="uni0394" unicode="&#x394;" horiz-adv-x="637" 
d="M563 27l-6 -27h-548l7 27l379 628l35 9zM442 52l-85 464l-263 -464h348z" />
    <glyph glyph-name="Epsilon" unicode="&#x395;" horiz-adv-x="566" 
d="M124 649h450q-1 -6 -7.5 -65t-10.5 -91l-33 -2q-3 70 -18 91q-9 16 -27 22t-63 6h-60q-27 0 -34.5 -6.5t-12.5 -35.5l-40 -206h77q44 0 63 5.5t28 18t25 49.5h33l-39 -200h-34q2 58 -9.5 70t-74.5 12h-78l-32 -172q-13 -71 3 -88q15 -18 90 -18q88 0 122 33q34 32 70 97
l32 -12q-40 -111 -62 -157h-480l7 31q59 5 74 19t27 74l77 401q11 58 0 73t-70 20z" />
    <glyph glyph-name="Zeta" unicode="&#x396;" horiz-adv-x="600" 
d="M621 649l8 -16l-465 -588q44 -6 136 -6q135 0 175 33q36 31 77 111l33 -14q-34 -111 -61 -169h-515l-8 18l471 592h-132q-69 0 -95.5 -7.5t-42.5 -26.5q-29 -33 -53 -95l-34 4q26 101 42 189h24q8 -17 17.5 -21t31.5 -4h391z" />
    <glyph glyph-name="Eta" unicode="&#x397;" horiz-adv-x="755" 
d="M804 649l-7 -31q-56 -5 -71 -19.5t-26 -74.5l-77 -398q-11 -60 0 -75t71 -20l-7 -31h-285l7 31q59 5 74.5 20t26.5 75l37 194h-288l-36 -194q-11 -60 0.5 -75t70.5 -20l-8 -31h-279l7 31q55 5 69.5 20t26.5 75l77 398q12 59 0 74t-74 20l8 31h279l-8 -31
q-53 -5 -67.5 -20t-25.5 -74l-30 -156h287l30 156q12 59 1 74t-69 20l8 31h278z" />
    <glyph glyph-name="Theta" unicode="&#x398;" horiz-adv-x="718" 
d="M434 664q123 0 198 -79.5t75 -206.5q0 -165 -105 -279t-265 -114q-122 0 -197 77.5t-75 205.5q0 162 105.5 279t263.5 117zM428 625q-65 0 -120 -55.5t-85 -141.5t-30 -179q0 -102 37.5 -163.5t114.5 -61.5q68 0 123 58.5t83 143.5t28 174q0 103 -36.5 164t-114.5 61z
M522 435l-37 -198h-31q2 36 -6.5 46t-38.5 10h-62q-31 0 -41.5 -9t-24.5 -47h-29l39 198h29q-1 -38 5 -46.5t35 -8.5h68q30 0 40.5 9t23.5 46h30z" />
    <glyph glyph-name="Iota" unicode="&#x399;" horiz-adv-x="355" 
d="M403 649l-7 -31q-56 -5 -70.5 -19.5t-25.5 -72.5l-77 -402q-12 -59 -0.5 -73.5t71.5 -19.5l-7 -31h-281l7 31q55 4 70 19t27 74l78 402q11 58 -0.5 72.5t-72.5 19.5l8 31h280z" />
    <glyph glyph-name="Kappa" unicode="&#x39a;" horiz-adv-x="668" 
d="M737 649l-7 -30q-50 -6 -77 -17.5t-73 -49.5q-77 -62 -202 -173q78 -144 162 -274q28 -43 47 -56t60 -18l-8 -31h-173q-71 117 -164 289q-22 38 -47 28l-35 -189q-11 -61 -0.5 -76.5t68.5 -20.5l-7 -31h-271l8 31q52 5 66.5 20.5t25.5 76.5l76 394q12 60 1 75.5t-69 20.5
l7 31h271l-7 -31q-54 -5 -68 -19.5t-26 -76.5l-34 -171q43 13 76 42q111 92 188 175q14 16 18 25t-3 14t-26 8l-24 3l8 31h239z" />
    <glyph glyph-name="Lambda" unicode="&#x39b;" horiz-adv-x="670" 
d="M625 31l-8 -31h-262l9 31q49 5 59 16.5t5 47.5l-63 407h-3l-68 -130.5l-78.5 -151l-59.5 -118.5q-19 -36 -9 -50t66 -21l-7 -31h-224l7 31q44 7 66 25t60 84l288 512l42 11l91 -532q11 -62 25.5 -78t63.5 -22z" />
    <glyph glyph-name="Mu" unicode="&#x39c;" horiz-adv-x="882" 
d="M909 649l-8 -31q-60 -6 -73.5 -18.5t-21.5 -69.5q-22 -144 -52 -392q-9 -70 1.5 -86t69.5 -21l-7 -31h-273l8 31q51 5 64.5 21t24.5 86l63 402h-4l-310 -534h-28q0 2 -93 528h-3l-70 -253q-37 -130 -45 -185q-5 -34 9 -47.5t64 -17.5l-7 -31h-229l8 31q41 4 60.5 17.5
t32.5 47.5q27 71 63 191l66 218q21 69 10 88t-78 25l10 31h188l96 -455l280 455h184z" />
    <glyph glyph-name="Nu" unicode="&#x39d;" horiz-adv-x="704" 
d="M770 649l-7 -31q-44 -2 -60.5 -15.5t-26.5 -47.5q-18 -59 -40 -171l-75 -393h-44l-289 516h-2l-48 -246q-20 -102 -24 -164q-2 -35 16 -48.5t71 -16.5l-8 -32h-237l8 32q39 2 58 15t29 46q21 68 41 169l46 218q17 74 -2 107q-15 27 -81 31l7 31h169l276 -478h3l40 212
q21 115 25 170q2 36 -16 49t-72 16l8 31h235z" />
    <glyph glyph-name="Xi" unicode="&#x39e;" horiz-adv-x="595" 
d="M608 649l-23 -157h-30q-3 46 -14 60t-50 14h-239q-38 0 -53.5 -14t-36.5 -60h-31l37 157h440zM517 439l-42 -202h-30q0 39 -9.5 49t-46.5 10h-140q-36 0 -48.5 -10.5t-28.5 -50.5h-31l42 204h30q-2 -37 6 -47.5t44 -11.5h143q38 0 51.5 10.5t29.5 48.5h30zM552 178
l-44 -178h-489l25 178h30q5 -32 8 -44t12 -25.5t24.5 -17t43.5 -3.5h236q37 0 59 10.5t31.5 24t33.5 55.5h30z" />
    <glyph glyph-name="Omicron" unicode="&#x39f;" horiz-adv-x="718" 
d="M433 664q123 0 198 -79.5t75 -207.5q0 -165 -104.5 -278.5t-264.5 -113.5q-122 0 -197.5 77t-75.5 205q0 162 105.5 279.5t263.5 117.5zM427 624q-65 0 -119.5 -55.5t-85 -141.5t-30.5 -179q0 -101 37.5 -162.5t113.5 -61.5q69 0 124.5 58.5t83 143.5t27.5 172
q0 103 -36.5 164.5t-114.5 61.5z" />
    <glyph glyph-name="Pi" unicode="&#x3a0;" horiz-adv-x="730" 
d="M774 649l-7 -31q-54 -5 -69 -21t-27 -80l-74 -385q-12 -63 0 -79.5t71 -21.5l-7 -31h-277l6 31q52 5 67 21.5t27 79.5l86 443q4 21 -0.5 26.5t-25.5 5.5h-196q-21 0 -27 -5.5t-11 -29.5l-85 -440q-12 -63 -1.5 -79.5t65.5 -21.5l-6 -31h-273l6 31q54 5 69.5 21.5
t27.5 79.5l75 385q12 63 0.5 79.5t-73.5 21.5l7 31h652z" />
    <glyph glyph-name="Rho" unicode="&#x3a1;" horiz-adv-x="580" 
d="M128 649h242q226 0 226 -171q0 -96 -70 -154t-173 -66q-23 0 -33 1l-70 19l-30 -151q-12 -61 1 -75.5t80 -20.5l-6 -31h-290l7 31q55 5 70 19.5t28 76.5l77 393q12 62 1.5 77t-67.5 21zM302 553l-44 -239q26 -12 63 -12q63 0 109 52.5t46 132.5q0 60 -30 92.5t-82 32.5
q-22 0 -40 -8q-14 -8 -22 -51z" />
    <glyph glyph-name="Sigma" unicode="&#x3a3;" horiz-adv-x="589" 
d="M119 649h460q-1 -8 -3.5 -32l-6.5 -64.5t-7 -64.5l-31 -2q-6 49 -18 83q-7 22 -29 31t-70 9h-163l145 -253l-265 -268h263q49 0 71.5 18t63.5 83l30 -9l-69 -180h-494l5 24l290 289l-176 312z" />
    <glyph glyph-name="Tau" unicode="&#x3a4;" horiz-adv-x="615" 
d="M643 674h26q-9 -42 -26 -183l-34 -3q0 70 -14 95q-10 16 -30 21.5t-67 5.5h-54l-91 -485q-11 -59 1.5 -74.5t80.5 -19.5l-7 -31h-303l7 31q62 4 78.5 20t28.5 74l93 485h-45q-55 0 -77.5 -6.5t-38.5 -24.5q-20 -24 -51 -90h-34q31 95 49 185h25q6 -16 15 -20.5t31 -4.5
h386q18 0 27 5t24 20z" />
    <glyph glyph-name="Upsilon" unicode="&#x3a5;" horiz-adv-x="671" 
d="M749 628l-10 -29q-16 2 -27 2q-82 0 -165 -101q-114 -139 -150 -327l-8 -42q-12 -64 0 -79t77 -20l-6 -32h-298l6 32q61 5 78.5 20.5t30.5 78.5l9 45q32 160 9 272q-32 144 -142 144q-31 0 -57 -6l-6 29q74 49 143 49q96 0 138 -111q36 -85 17 -251h4q46 157 132 254
q87 108 162 108q35 0 63 -36z" />
    <glyph glyph-name="Phi" unicode="&#x3a6;" horiz-adv-x="749" 
d="M585 656l-7 -30q-44 -4 -57 -13.5t-18 -39.5q40 -5 77 -18.5t74.5 -39t60 -70t22.5 -101.5q0 -64 -28 -114.5t-75.5 -80.5t-104.5 -45.5t-120 -17.5q-7 -35 3 -43.5t59 -12.5l-6 -30h-250l6 30q48 4 60.5 13t19.5 47q-41 4 -79.5 17.5t-74.5 38t-58 67.5t-22 99
q0 123 97 192t232 73q6 27 -4.5 36t-55.5 13l6 30h243zM308 124l82 420q-94 -7 -150.5 -74t-57.5 -165q-1 -75 35.5 -122t90.5 -59zM497 539l-81 -420q91 5 148.5 70.5t57.5 170.5q0 83 -37 125.5t-88 53.5z" />
    <glyph glyph-name="Chi" unicode="&#x3a7;" horiz-adv-x="642" 
d="M683 649l-8 -31q-48 -5 -69 -15.5t-56 -47.5q-49 -51 -158 -185l108 -248q25 -57 43 -71t72 -20l-7 -31h-279l8 31l26 4q27 4 32.5 14t-3.5 35q-32 83 -80 195q-97 -123 -141 -191q-18 -26 -14.5 -36.5t33.5 -16.5l21 -4l-8 -31h-230l8 31q44 4 66.5 15.5t52.5 41.5
q75 79 193 230l-95 224q-19 46 -36 58.5t-66 17.5l8 31h254l-7 -31l-24 -5q-21 -4 -26 -11t1 -23q20 -54 72 -170q71 85 122 161q15 22 10.5 30.5t-28.5 12.5l-26 5l7 31h224z" />
    <glyph glyph-name="Psi" unicode="&#x3a8;" horiz-adv-x="737" 
d="M803 658l4 -29q-28 -13 -41 -35t-31 -73l-23 -63q-19 -56 -42.5 -86.5t-60.5 -56.5q-64 -43 -164 -47l-26 -137q-11 -61 -0.5 -78t63.5 -22l-6 -31h-275l6 31q54 5 70.5 22t28.5 78l27 137q-97 5 -142 47q-26 25 -37 57t-10 87l1 60q1 22 0.5 39.5t-4 31t-12.5 23
t-25 16.5l13 29q98 -8 125 -51q17 -26 13 -96l-2 -54q-4 -82 14 -114t74 -38l41 218q11 58 2 74t-57 21l6 31h256l-6 -31q-48 -5 -63 -21t-26 -74l-41 -218q62 5 91.5 37t59.5 121l23 63q19 57 47 82q44 42 129 50z" />
    <glyph glyph-name="uni03A9" unicode="&#x3a9;" horiz-adv-x="742" 
d="M674 148l31 -1l-45 -147h-262l-7 19q0 1 17.5 18.5t24 24.5t25 28.5t28.5 35l27 38t27 43.5t22.5 45.5t19 50.5t11.5 52t5 56q0 101 -39.5 157.5t-113.5 56.5q-69 0 -121 -50.5t-76 -123.5t-24 -154q0 -150 61 -278l-10 -19h-241v147h29q9 -38 22 -48.5t46 -10.5h87
q-31 36 -51 63.5t-41.5 81t-21.5 106.5q0 136 100 230.5t247 94.5q120 0 193 -72t73 -193q0 -41 -12.5 -79.5t-28 -65t-44.5 -57t-44.5 -44t-48 -38t-35.5 -27.5h89q29 0 42.5 10t38.5 50z" />
    <glyph glyph-name="Iotadieresis" unicode="&#x3aa;" horiz-adv-x="355" 
d="M403 649l-7 -31q-56 -5 -70.5 -19.5t-25.5 -72.5l-77 -402q-12 -59 -0.5 -73.5t71.5 -19.5l-7 -31h-281l7 31q55 4 70 19t27 74l78 402q11 58 -0.5 72.5t-72.5 19.5l8 31h280zM191 810q23 0 35.5 -14.5t12.5 -36.5q0 -27 -17.5 -47t-44.5 -20q-22 0 -36 14t-14 38
t17.5 45t46.5 21zM393 810q23 0 35.5 -14.5t12.5 -36.5q0 -27 -17.5 -47t-44.5 -20q-22 0 -36 14t-14 38t17.5 45t46.5 21z" />
    <glyph glyph-name="Upsilondieresis" unicode="&#x3ab;" horiz-adv-x="671" 
d="M749 628l-11 -29q-16 2 -27 2q-81 0 -164 -101q-114 -139 -150 -327l-8 -42q-12 -64 0 -79t77 -20l-6 -32h-298l6 32q61 5 78.5 20.5t30.5 78.5l9 45q32 160 9 272q-32 144 -142 144q-31 0 -57 -6l-6 29q74 49 143 49q96 0 138 -111q36 -85 17 -251h4q46 157 132 254
q87 108 162 108q35 0 63 -36zM365 808q23 0 35.5 -14.5t12.5 -36.5q0 -28 -17.5 -47.5t-45.5 -19.5q-22 0 -35.5 14t-14.5 37q0 24 18 45.5t47 21.5zM566 808q23 0 35.5 -14.5t12.5 -36.5q0 -28 -17.5 -47.5t-44.5 -19.5q-22 0 -36 14t-14 37q0 25 17.5 46t46.5 21z" />
    <glyph glyph-name="alphatonos" unicode="&#x3ac;" horiz-adv-x="540" 
d="M504 129l24 -22q-64 -119 -137 -119q-28 0 -44.5 31.5t-23.5 110.5h-2q-92 -142 -181 -142q-44 0 -72.5 44.5t-28.5 118.5q0 116 78.5 208.5t167.5 92.5q47 0 72.5 -33.5t39.5 -110.5h2q33 54 66 130l63 14l9 -11q-40 -69 -129 -195q12 -99 20 -133t21 -34q17 0 55 50z
M251 407q-38 0 -70 -73.5t-32 -158.5q0 -52 13 -80.5t33 -28.5q24 0 57 31.5t64 88.5q-15 221 -65 221zM392 656l-112 -171l-31 14q25 94 44 174q13 3 50 2t46 -5z" />
    <glyph glyph-name="epsilontonos" unicode="&#x3ad;" horiz-adv-x="407" 
d="M158 236v2q-72 19 -72 84q0 61 55.5 95.5t127.5 34.5q62 0 95 -22.5t33 -51.5q0 -17 -18 -32t-32 -15q-9 0 -14 15q-18 70 -72 70q-33 0 -53.5 -23t-20.5 -55q0 -33 22.5 -51.5t60.5 -18.5q28 0 49 3l4 -8l-33 -48q-28 2 -48 2q-43 0 -69.5 -21.5t-26.5 -57.5
q0 -35 24 -57.5t61 -22.5q73 0 137 61l20 -25q-79 -106 -204 -106q-71 0 -114 34.5t-43 90.5q0 89 131 123zM368 656l-112 -171l-32 13q26 89 44 175q14 3 51 2t46 -4z" />
    <glyph glyph-name="etatonos" unicode="&#x3ae;" horiz-adv-x="520" 
d="M207 265h2q76 100 165 159q40 28 79 28q55 0 22 -137q-53 -234 -88 -419q-19 -104 -12 -129l-8 -16q-27 1 -57.5 25t-36.5 44q-4 23 45 233l59 256q15 62 -4 62q-24 0 -84 -61.5t-94 -120.5q-23 -89 -40 -180q-55 -6 -99 -20l-7 8q53 220 77 330q8 40 -1 40q-8 0 -28 -13
t-36 -30l-15 28q44 45 89.5 72.5t71.5 27.5q45 0 15 -122zM429 655l-112 -170l-32 13q27 94 44 175q14 3 51 1.5t46 -4.5z" />
    <glyph glyph-name="iotatonos" unicode="&#x3af;" horiz-adv-x="267" 
d="M225 119l15 -25q-40 -46 -88 -76t-75 -30q-51 0 -26 109l72 330l103 25l3 -8q-44 -177 -74 -330q-8 -39 2 -39q19 0 68 44zM293 656l-112 -171l-32 14q26 92 44 174q14 3 51 2t46 -4z" />
    <glyph glyph-name="upsilondieresistonos" unicode="&#x3b0;" horiz-adv-x="488" 
d="M62 320l-19 27q34 47 77 76t80 29q67 0 32 -131q-15 -54 -39 -153q-14 -60 1 -87t45 -27q65 0 104.5 77.5t40.5 190.5q0 66 -19 113l1 5q14 12 31 12q29 0 46.5 -33t17.5 -80q0 -84 -40 -166t-103.5 -133.5t-129.5 -51.5q-54 0 -87 42t-14 127l45 173q12 44 0 45
q-20 0 -70 -55zM420 508q-20 0 -33 13.5t-13 35.5q0 23 16 42.5t43 19.5q22 0 34 -14t12 -35q0 -26 -16.5 -44t-42.5 -18zM387 661l-101 -176l-32 10q7 33 17.5 94t14.5 78q14 3 48.5 5t48.5 0zM177 508q-20 0 -33 13.5t-13 35.5q0 23 16.5 42t43.5 19q21 0 33 -14t12 -35
q0 -25 -16.5 -43t-42.5 -18z" />
    <glyph glyph-name="alpha" unicode="&#x3b1;" horiz-adv-x="540" 
d="M504 129l24 -22q-64 -119 -137 -119q-28 0 -44.5 31.5t-23.5 110.5h-2q-92 -142 -181 -142q-44 0 -72.5 44.5t-28.5 118.5q0 116 78.5 208.5t167.5 92.5q47 0 72.5 -33.5t39.5 -110.5h2q33 54 66 130l63 14l9 -11q-40 -69 -129 -195q12 -99 20 -133t21 -34q17 0 55 50z
M251 407q-38 0 -70 -73.5t-32 -158.5q0 -52 13 -80.5t33 -28.5q24 0 57 31.5t64 88.5q-15 221 -65 221z" />
    <glyph glyph-name="beta" unicode="&#x3b2;" horiz-adv-x="524" 
d="M-16 -252l-5 18q18 17 44 157l77 415q23 122 51 187t77 111q71 70 153 70q56 0 90 -35t34 -90q0 -42 -23 -78t-47.5 -55.5t-68.5 -48.5q126 -52 126 -166q0 -61 -40.5 -113t-100.5 -89q-76 -46 -126 -46q-25 0 -44 20t-23 45l10 21q46 -25 94 -25q125 0 125 144
q0 65 -37 104t-100 49l27 58q44 5 64 20q64 51 67 136q0 50 -19 76t-51 26q-28 0 -49 -18.5t-36.5 -60.5t-26 -89t-24.5 -126q-21 -117 -71 -419q-24 -145 -30 -157q-19 -19 -54.5 -29.5t-62.5 -11.5z" />
    <glyph glyph-name="gamma" unicode="&#x3b3;" horiz-adv-x="484" 
d="M275 69h2q47 61 88.5 139.5t41.5 128.5q0 33 -16 54q-6 8 -5 20q0 16 14.5 28.5t31.5 12.5q21 0 36 -22.5t14 -58.5q0 -17 -5 -36.5t-11 -36t-19 -40.5t-21 -37.5t-27 -40.5l-26 -36.5l-28.5 -38.5t-25.5 -34l-33 -47l-23 -32.5t-10 -14.5q-23 -132 -41 -182
q-18 -13 -55.5 -26.5t-66.5 -16.5l-14 18q23 62 114 212q12 66 3 171t-35 177q-12 31 -23 31q-19 0 -64 -59l-26 24q80 126 147 126q55 0 76 -130q20 -124 7 -253z" />
    <glyph glyph-name="delta" unicode="&#x3b4;" horiz-adv-x="481" 
d="M492 515l-13 -19q-97 150 -198 150q-34 0 -34 -24q0 -19 89 -135q60 -77 86.5 -129t26.5 -110q0 -61 -26.5 -116.5t-77.5 -93.5q-66 -50 -136 -50q-81 0 -124.5 50.5t-43.5 129.5q0 72 36 129.5t89 92.5q36 23 80 46q-63 93 -63 144q0 55 43 90.5t95 35.5q73 0 120 -60.5
t51 -130.5zM232 29q35 0 61.5 30.5t38.5 73t12 86.5q0 37 -14 76.5t-27 60.5t-36 54q-26 -16 -53 -54q-60 -87 -60 -194q0 -60 22.5 -96.5t55.5 -36.5z" />
    <glyph glyph-name="epsilon" unicode="&#x3b5;" horiz-adv-x="407" 
d="M158 236v2q-72 19 -72 84q0 61 55.5 95.5t127.5 34.5q62 0 95 -22.5t33 -51.5q0 -17 -18 -32t-32 -15q-9 0 -14 15q-18 70 -72 70q-33 0 -53.5 -23t-20.5 -55q0 -33 22.5 -51.5t60.5 -18.5q28 0 49 3l4 -8l-33 -48q-28 2 -48 2q-43 0 -69.5 -21.5t-26.5 -57.5
q0 -35 24 -57.5t61 -22.5q73 0 137 61l20 -25q-79 -106 -204 -106q-71 0 -114 34.5t-43 90.5q0 89 131 123z" />
    <glyph glyph-name="zeta" unicode="&#x3b6;" horiz-adv-x="390" 
d="M246 740l23 -12q-17 -20 -18 -43q-2 -21 13 -39.5t43 -22.5q83 71 131 71q11 0 16 -5.5t4 -13.5q-2 -41 -42 -66t-93 -29q-68 -57 -120.5 -163t-52.5 -200q0 -49 17.5 -74t57.5 -41q10 -4 46 -17q71 -24 71 -88q1 -84 -108 -170l-28 20q48 65 47 100q0 20 -13 32.5
t-45 22.5q-7 3 -17.5 6t-18.5 6l-16 6q-49 19 -73.5 55t-24.5 102q0 111 65.5 219.5t158.5 185.5q-48 5 -76 29.5t-26 52.5q1 23 23.5 43.5t55.5 32.5z" />
    <glyph glyph-name="eta" unicode="&#x3b7;" horiz-adv-x="520" 
d="M207 265h2q76 100 165 159q40 28 79 28q55 0 22 -138q-52 -230 -88 -418q-19 -104 -12 -129l-8 -16q-27 1 -57.5 25t-36.5 44q-4 23 45 233l59 256q15 62 -4 62q-24 0 -84 -61.5t-94 -120.5q-23 -89 -40 -180q-55 -6 -99 -20l-7 8q53 220 77 330q8 40 -1 40q-8 0 -28 -13
t-36 -30l-15 28q44 45 89.5 72.5t71.5 27.5q45 0 15 -122z" />
    <glyph glyph-name="theta" unicode="&#x3b8;" horiz-adv-x="489" 
d="M355 706q75 0 109 -60t34 -154q0 -81 -19.5 -167.5t-54.5 -162.5t-93 -125t-127 -49q-148 0 -148 222q0 79 20.5 164.5t57.5 160t95 123t126 48.5zM185 387h197q13 95 13 148q0 134 -57 134q-47 0 -88.5 -82.5t-64.5 -199.5zM373 336h-198q-14 -88 -14 -167
q0 -143 58 -143q49 0 91 91t63 219z" />
    <glyph glyph-name="iota" unicode="&#x3b9;" horiz-adv-x="267" 
d="M225 119l15 -25q-40 -46 -88 -76t-75 -30q-51 0 -26 109l72 330l103 25l3 -8q-44 -177 -74 -330q-8 -39 2 -39q19 0 68 44z" />
    <glyph glyph-name="kappa" unicode="&#x3ba;" horiz-adv-x="496" 
d="M63 324l-13 26q48 45 94.5 73.5t70.5 28.5q37 0 17 -87l-34 -153q64 78 120 137q51 57 79 80t57 23q20 0 33 -13.5t13 -32.5q0 -25 -26 -45q-11 -8 -19 -1q-16 10 -33 10q-46 0 -115 -85q34 -100 68 -175q19 -40 34 -40q18 0 56 49l21 -25q-70 -106 -133 -106
q-22 0 -39.5 16.5t-33.5 60.5l-49 137q-13 -12 -42 -45q-6 -24 -34 -154q-49 -4 -100 -15l-3 8q23 89 76 332q6 27 -1 34q-13 0 -64 -38z" />
    <glyph glyph-name="lambda" unicode="&#x3bb;" horiz-adv-x="488" 
d="M443 121l21 -23q-38 -57 -76.5 -83.5t-69.5 -26.5q-28 0 -41.5 31t-18.5 96q-17 189 -20 230q-72 -166 -167 -336q-35 -12 -80 -21l-8 19q153 196 248 416q-5 83 -11 121q-8 58 -23.5 79t-40.5 21q-17 0 -36 -8l-7 27q53 43 105 43t75 -50.5t33 -185.5q19 -226 35 -353
q7 -47 20 -47q21 0 62 51z" />
    <glyph glyph-name="uni03BC" unicode="&#x3bc;" horiz-adv-x="525" 
d="M482 122l15 -26q-45 -52 -89.5 -80t-72.5 -28q-47 0 -24 102q2 7 15 71h-2q-74 -104 -122 -143q-38 -30 -69 -30q-33 0 -45 49h-2q-22 -66 -14 -149q6 -64 33 -100l1 -7q-7 -11 -26.5 -22t-40.5 -11q-19 0 -30 18.5t-10 54.5q2 40 36 194l92 414l102 23l6 -5
q-57 -240 -68 -294q-18 -83 16 -83q29 0 80 61.5t77 110.5l41 183l95 27h13q-41 -160 -75 -334q-8 -42 2 -42q6 0 27 14.5t39 31.5z" />
    <glyph glyph-name="nu" unicode="&#x3bd;" horiz-adv-x="463" 
d="M262 114h3q121 144 122 220q0 34 -18 54q-5 6 -3 17q2 17 16.5 31.5t34.5 14.5q22 0 36 -19t14 -49q0 -36 -29.5 -90t-56.5 -89l-77 -97q-71 -88 -99 -119h-31q-16 233 -33 330q-7 43 -18 43q-14 0 -55 -51l-21 22q78 119 136 119q43 0 57 -106q15 -107 22 -231z" />
    <glyph glyph-name="xi" unicode="&#x3be;" horiz-adv-x="424" 
d="M268 -177l-28 20q48 60 47 97q0 23 -16.5 37t-56.5 23q-36 9 -57 16q-61 19 -90.5 52.5t-29.5 89.5q0 116 152 199q-24 11 -41 35.5t-17 55.5q0 82 107 151q-37 5 -61.5 24t-23.5 44q0 22 20.5 41.5t48.5 29.5l22 -9q-13 -22 -13 -43q0 -18 14 -32t39 -17q35 23 77.5 38
t72.5 15q15 0 20 -5.5t3 -16.5q-3 -16 -17.5 -33t-31.5 -27q-54 -18 -119 -15q-26 -15 -47.5 -45.5t-21.5 -66.5q0 -60 48 -75q56 14 91 14q14 0 19.5 -4t3.5 -14q-5 -24 -26 -48.5t-39 -24.5q-51 0 -89 13q-37 -21 -63.5 -60.5t-26.5 -82.5q0 -39 22 -61.5t66 -35.5
l25 -6.5t26 -7.5q98 -27 99 -98q1 -79 -108 -167z" />
    <glyph glyph-name="omicron" unicode="&#x3bf;" horiz-adv-x="484" 
d="M186 -12q-76 0 -110 46.5t-34 114.5q0 92 43.5 163t106.5 104q64 36 123 36q69 0 106 -42.5t37 -115.5q0 -68 -27.5 -133.5t-79.5 -108.5q-74 -64 -165 -64zM224 31q13 0 28 5q35 14 64 88.5t29 171.5q0 57 -18.5 85.5t-48.5 28.5q-16 0 -29 -6q-31 -15 -62.5 -83.5
t-31.5 -175.5q0 -54 19.5 -84t49.5 -30z" />
    <glyph glyph-name="pi" unicode="&#x3c0;" horiz-adv-x="556" 
d="M556 463l31 -10q-19 -61 -42 -88q-18 -8 -72 -5q-22 -87 -47 -219q-13 -70 4 -70q11 0 32 13.5t39 31.5l17 -26q-31 -43 -73.5 -72.5t-82.5 -29.5q-66 0 -42 115q22 104 62 259q-95 3 -127 3q-60 -274 -113 -354q-35 -23 -82 -23l-6 20q41 42 86.5 152.5t63.5 205.5
q-84 2 -135 -61l-22 25q13 20 25 34.5t36 34t59.5 30t79.5 10.5q19 0 112.5 -2.5t140.5 -1.5q23 0 33.5 4.5t22.5 23.5z" />
    <glyph glyph-name="rho" unicode="&#x3c1;" horiz-adv-x="488" 
d="M-20 -248l-4 24q14 14 29 80.5t54 297.5q17 100 45 155t86 97q64 46 130 46t105 -48.5t39 -120.5q-1 -146 -152 -246q-66 -49 -114 -49q-29 0 -59 35l-15 -103q-12 -73 -20.5 -101t-21.5 -37q-16 -14 -47 -22t-55 -8zM225 45q64 0 98 60t34 142q0 72 -24.5 112.5
t-64.5 40.5q-38 0 -58 -38t-35 -119q-19 -104 -28 -170q35 -28 78 -28z" />
    <glyph glyph-name="uni03C2" unicode="&#x3c2;" horiz-adv-x="409" 
d="M252 -158l-23 19q40 50 39 82q0 20 -13.5 33.5t-46.5 23.5q-25 8 -52 15q-56 16 -84.5 52.5t-28.5 103.5q0 69 35 130t94 100q79 51 142 51q40 0 64 -16t24 -44q0 -16 -12.5 -32.5t-30.5 -20.5q-14 -3 -26 13q-32 45 -79 45q-52 0 -84 -52.5t-32 -122.5q0 -87 68 -111
q2 -1 53 -17q95 -26 95 -95q1 -88 -102 -157z" />
    <glyph glyph-name="sigma" unicode="&#x3c3;" horiz-adv-x="496" 
d="M339 448q18 -1 66 -4t70 -2q34 0 52 21l19 -11q-24 -83 -74 -83q-31 0 -99 11l-1 -3q36 -30 50 -63.5t14 -79.5q1 -97 -70 -171.5t-171 -74.5q-73 0 -113.5 46t-40.5 127q0 123 84.5 206t213.5 81zM289 385q-62 0 -101 -78.5t-39 -168.5q0 -50 16 -80.5t48 -30.5
q31 0 57 28t41 69.5t23 82t8 70.5q0 60 -15 84q-13 24 -38 24z" />
    <glyph glyph-name="tau" unicode="&#x3c4;" horiz-adv-x="452" 
d="M461 464l29 -6q-26 -72 -41 -92q-12 -5 -65 -5l-67 3q-30 -123 -50 -230q-13 -63 7 -63q11 0 31.5 13.5t38.5 32.5l17 -26q-28 -41 -73 -72t-87 -31q-64 0 -41 110l67 270q-57 4 -94 -9t-69 -53l-24 23q12 20 23 34t34 35t56.5 32t74.5 10q19 0 79 -2.5t99 -2.5
q20 -1 31 4t24 25z" />
    <glyph glyph-name="upsilon" unicode="&#x3c5;" horiz-adv-x="488" 
d="M62 320l-19 27q34 47 77 76t80 29q67 0 32 -131q-15 -54 -39 -153q-14 -60 1 -87t45 -27q65 0 104.5 77.5t40.5 190.5q0 66 -19 113l1 5q14 12 31 12q29 0 46.5 -33t17.5 -80q0 -84 -40 -166t-103.5 -133.5t-129.5 -51.5q-54 0 -87 42t-14 127l45 173q12 44 0 45
q-20 0 -70 -55z" />
    <glyph glyph-name="phi" unicode="&#x3c6;" horiz-adv-x="598" 
d="M293 462l12 -32q-69 -35 -107 -96t-38 -145q0 -56 22 -93.5t55 -48.5q28 142 52 243q20 78 63.5 120t90.5 42q54 0 91 -47t37 -129q0 -111 -77 -189t-175 -92l-36 -202q-8 -16 -36.5 -27.5t-60.5 -14.5l-10 10q12 45 51 229q-86 10 -133 63t-47 133q0 193 246 276z
M422 408q-14 0 -23 -17t-18 -65q-44 -227 -54 -286q70 7 115 79t45 161q0 59 -21.5 93.5t-43.5 34.5z" />
    <glyph glyph-name="chi" unicode="&#x3c7;" horiz-adv-x="454" 
d="M484 452l9 -14q-30 -35 -103.5 -133t-112.5 -157q12 -88 43 -257q10 -56 22 -56q24 0 72 59l23 -24q-76 -118 -147 -118q-47 0 -66 100q-15 79 -31 194l-107.5 -165t-91.5 -147h-13q-34 44 7 105q20 30 96.5 137l97.5 138q-15 108 -34 210q-8 43 -19 43q-13 0 -60 -56
l-23 22q80 119 139 119q37 0 55 -84q4 -20 26 -159l140 216z" />
    <glyph glyph-name="psi" unicode="&#x3c8;" horiz-adv-x="607" 
d="M638 452l9 -30q-25 -17 -37.5 -36.5t-28.5 -59.5q-46 -122 -66 -169q-39 -96 -110 -138q-32 -19 -73 -28l-42 -211l-31 -29q-25 9 -19 68l31 168q-161 9 -154 186q1 23 5.5 71t5.5 70q4 57 -22 57q-18 0 -47 -23l-10 30q64 74 125 74q71 0 58 -123q-2 -14 -12 -120
q-7 -75 7.5 -113.5t52.5 -52.5l83 449l69 25l8 -3l-98 -477q75 10 111 117q9 28 27 89l22 75q16 61 37 80q39 37 99 54z" />
    <glyph glyph-name="omega" unicode="&#x3c9;" horiz-adv-x="647" 
d="M489 427l3 12q18 13 43 13q31 0 56.5 -42.5t25.5 -114.5q-1 -75 -35.5 -145t-88.5 -113q-62 -49 -114 -49q-36 0 -59 25.5t-28 71.5q-29 -43 -67 -70t-75 -27q-46 0 -75.5 42.5t-29.5 117.5q-1 103 59 184.5t156 125.5l16 -27q-55 -45 -88 -116.5t-33 -155.5
q0 -46 14.5 -70.5t36.5 -24.5q57 0 85 116q17 68 28 152l101 14l7 -7q-32 -103 -41 -184q-6 -48 7 -73.5t37 -25.5q51 0 81 59.5t31 150.5q1 109 -53 161z" />
    <glyph glyph-name="iotadieresis" unicode="&#x3ca;" horiz-adv-x="267" 
d="M225 119l16 -25q-41 -46 -89 -76t-75 -30q-51 0 -26 109l72 330l103 25l4 -8q-40 -154 -75 -330q-8 -39 2 -39q19 0 68 44zM132 639q23 0 35.5 -14.5t12.5 -36.5q0 -28 -17.5 -47.5t-44.5 -19.5q-22 0 -36 14t-14 37q0 25 17.5 46t46.5 21zM320 639q23 0 35.5 -14.5
t12.5 -36.5q0 -28 -17.5 -47.5t-44.5 -19.5q-22 0 -36 14t-14 37q0 25 17.5 46t46.5 21z" />
    <glyph glyph-name="upsilondieresis" unicode="&#x3cb;" horiz-adv-x="488" 
d="M62 320l-19 27q34 47 77 76t80 29q67 0 32 -131q-15 -54 -39 -153q-14 -60 1 -87t45 -27q65 0 104.5 77.5t40.5 190.5q0 66 -19 113l1 5q14 12 31 12q29 0 46.5 -33t17.5 -80q0 -84 -40 -166t-103.5 -133.5t-129.5 -51.5q-54 0 -87 42t-14 127l45 173q12 44 0 45
q-20 0 -70 -55zM228 639q22 0 34.5 -15t12.5 -36q0 -28 -17.5 -47.5t-44.5 -19.5q-22 0 -36 14t-14 38t18 45t47 21zM416 639q22 0 34.5 -15t12.5 -36q0 -28 -17.5 -47.5t-44.5 -19.5q-22 0 -36 14t-14 38t18 45t47 21z" />
    <glyph glyph-name="omicrontonos" unicode="&#x3cc;" horiz-adv-x="484" 
d="M186 -12q-76 0 -110 46.5t-34 114.5q0 92 43.5 163t106.5 104q64 36 123 36q69 0 106 -42.5t37 -115.5q0 -68 -27.5 -133.5t-79.5 -108.5q-74 -64 -165 -64zM224 31q13 0 28 5q35 14 64 88.5t29 171.5q0 57 -18.5 85.5t-48.5 28.5q-16 0 -29 -6q-31 -15 -62.5 -83.5
t-31.5 -175.5q0 -54 19.5 -84t49.5 -30zM398 656l-112 -171l-32 14q26 92 44 174q14 3 51 2t46 -4z" />
    <glyph glyph-name="upsilontonos" unicode="&#x3cd;" horiz-adv-x="488" 
d="M62 320l-19 27q34 47 77 76t80 29q67 0 32 -131q-15 -54 -39 -153q-14 -60 1 -87t45 -27q65 0 104.5 77.5t40.5 190.5q0 66 -19 113l1 5q14 12 31 12q29 0 46.5 -33t17.5 -80q0 -84 -40 -166t-103.5 -133.5t-129.5 -51.5q-54 0 -87 42t-14 127l45 173q12 44 0 45
q-20 0 -70 -55zM416 655l-112 -170l-32 13q27 94 44 175q14 3 51 1.5t46 -4.5z" />
    <glyph glyph-name="omegatonos" unicode="&#x3ce;" horiz-adv-x="647" 
d="M489 427l3 12q18 13 43 13q31 0 56.5 -42.5t25.5 -114.5q-1 -75 -35.5 -145t-88.5 -113q-62 -49 -114 -49q-36 0 -59 25.5t-28 71.5q-29 -43 -67 -70t-75 -27q-46 0 -75.5 42.5t-29.5 117.5q-1 103 59 184.5t156 125.5l16 -27q-55 -45 -88 -116.5t-33 -155.5
q0 -46 14.5 -70.5t36.5 -24.5q57 0 85 116q17 68 28 152l101 14l7 -7q-32 -103 -41 -184q-6 -48 7 -73.5t37 -25.5q51 0 81 59.5t31 150.5q1 109 -53 161zM493 655l-111 -170l-32 13q27 94 44 175q14 3 51 1.5t46 -4.5z" />
    <glyph glyph-name="uni03D0" unicode="&#x3d0;" horiz-adv-x="488" 
d="M508 604q0 -27 -11 -51t-23.5 -39.5t-40.5 -35.5t-43 -28.5l-49 -27.5q121 -24 121 -166q0 -107 -76.5 -187.5t-172.5 -80.5q-81 0 -121.5 58t-40.5 160q0 119 51.5 237t139.5 192q85 70 166 70q46 0 73 -26t27 -75zM417 595q0 31 -13.5 48.5t-37.5 17.5
q-32 0 -61.5 -26.5t-51.5 -71t-38 -90.5t-28 -95q16 10 51.5 28l52.5 27q126 68 126 162zM350 251q0 126 -78 126q-18 0 -45.5 -12.5t-50.5 -34.5q-18 -72 -18 -142q0 -162 70 -162q52 0 87 76t35 149z" />
    <glyph glyph-name="uni03D1" unicode="&#x3d1;" horiz-adv-x="505" 
d="M34 223l-6 27q53 43 108 43q83 0 69 -142q-10 -105 53 -105q32 0 57.5 28.5t42 75.5t27 100.5t14.5 112.5q-57 -36 -112 -36q-83 0 -130.5 48.5t-47.5 120.5q0 90 64.5 150t142.5 60t130.5 -65t53.5 -203q0 -118 -39 -222t-118 -172q-66 -56 -133 -56q-54 0 -86.5 37
t-22.5 125q9 80 -27 80q-22 0 -40 -7zM275 660h-2q-39 0 -58 -31t-19 -77q0 -69 38 -117t107 -48q36 0 59 13q1 14 1 31q0 106 -40 167.5t-86 61.5z" />
    <glyph glyph-name="uni03D5" unicode="&#x3d5;" horiz-adv-x="581" 
d="M434 662l-34 -152q-9 -40 0 -44q151 -65 151 -217q0 -109 -78.5 -180.5t-180.5 -77.5q-8 -30 -52 -237l-6 -3q-21 7 -32 37t1 85q10 56 23 117q-83 15 -131.5 72t-48.5 138q0 96 62 160t165 99l13 -31q-63 -32 -96.5 -83t-33.5 -134q0 -59 24.5 -101t58.5 -55
q29 152 123 580l55 36zM472 238q0 61 -30 105t-63 57q-37 -156 -76 -358q76 -1 122.5 53.5t46.5 142.5z" />
    <glyph glyph-name="uni03D6" unicode="&#x3d6;" horiz-adv-x="649" 
d="M222 493l-10 30q89 58 187 58q118 0 179.5 -70.5t61.5 -180.5q0 -94 -36 -169t-95 -123q-59 -50 -115 -50q-38 0 -64 26.5t-31 73.5q-29 -43 -68.5 -71.5t-74.5 -28.5q-47 0 -77.5 42.5t-30.5 116.5q0 104 59 186t155 126l16 -28q-55 -44 -87 -115.5t-32 -156.5
q0 -45 15.5 -68.5t36.5 -23.5q27 0 51 29t38 84q16 61 28 154l101 12l6 -5q-31 -102 -41 -186q-6 -47 8.5 -71.5t40.5 -24.5q52 0 86.5 64.5t34.5 158.5q0 113 -54 176.5t-156 63.5q-74 0 -132 -29z" />
    <glyph glyph-name="uni03DA" unicode="&#x3da;" horiz-adv-x="417" 
d="M407 460l26 -11q-21 -74 -57 -82q-23 -9 -57 4q-41 16 -73 15q-51 -1 -81.5 -46t-30.5 -111q0 -89 77 -117q26 -10 51 -16q98 -27 98 -102q0 -61 -49.5 -108.5t-93.5 -47.5q-18 0 -29.5 11t-10.5 26q1 20 23 40q9 7 16 2q20 -9 42 -9q17 0 28 10t11 26q0 32 -73 52
l-65 20q-58 17 -88 54t-30 103q0 70 35.5 130.5t96.5 99.5q76 49 135 49q27 0 64 -7q21 -6 35 15z" />
    <glyph glyph-name="uni03DD" unicode="&#x3dd;" horiz-adv-x="443" 
d="M471 449l-51 -73q-51 11 -168 11h-26l-52 -253q116 2 192 10l3 -14l-45 -50q-43 7 -160 9l-21 -100q-24 -113 -63 -166t-116 -76l-5 8q44 57 80 230l92 450h167q120 0 161 24z" />
    <glyph glyph-name="uni03DE" unicode="&#x3de;" horiz-adv-x="484" 
d="M117 -210l-14 9q4 14 29 112l17 81q-57 11 -82 55t-25 103q0 93 42.5 163t106.5 104q64 35 122 35h1q69 0 105 -42.5t36 -118.5q0 -67 -27.5 -132t-79.5 -108q-46 -38 -98 -52l-14 -66q-11 -49 -25 -73q-26 -44 -94 -70zM278 409q-16 0 -30 -7q-32 -14 -62.5 -80.5
t-30.5 -174.5q0 -55 18.5 -84.5t48.5 -29.5q16 0 29 5q36 15 64 88t27 170q0 56 -17.5 84.5t-46.5 28.5z" />
    <glyph glyph-name="uni03E0" unicode="&#x3e0;" horiz-adv-x="742" 
d="M131 638l45 19q30 10 62 10q113 0 201.5 -38t140.5 -102t78.5 -139.5t26.5 -157.5q0 -227 -155 -396l-23 19q90 160 90 357q0 37 -4 60q-146 -79 -242 -180q-42 -45 -40 -92l-1 -8q-9 -4 -21 -4t-23 7.5t-17 22t-5 33t14 42.5t37 48q17 17 36 34t42 33l40 28t44.5 28.5
l41 24.5l44 25l39.5 22q-15 54 -37.5 93.5t-39.5 54.5q-68 -52 -186 -114t-153 -73q-26 -8 -52 2t-35 25l2 12q245 78 391 183q-47 47 -121.5 74t-160.5 27q-24 0 -53 -4z" />
    <glyph glyph-name="uni03F0" unicode="&#x3f0;" horiz-adv-x="543" 
d="M500 115l19 -26q-28 -44 -66.5 -72.5t-72.5 -28.5q-37 0 -51.5 33t-4.5 85q10 50 59 156l-3 4q-206 -200 -299 -278h-19q-28 8 -39.5 33.5t-4.5 48.5q43 23 78 47q50 60 62 130q10 61 2 93.5t-29 32.5q-19 0 -62 -38l-19 26q82 92 143 92q33 0 48 -29.5t5 -78.5
q-17 -78 -73 -175l3 -1q165 152 226 218q2 3 10.5 12t11.5 12.5t10 11t10.5 10.5l9.5 8t10.5 7.5t8.5 4.5q19 1 35 -11t21 -36q7 -18 -3 -30q-8 -7 -38 -30t-38 -30q-27 -38 -37 -90q-10 -50 -9 -84t10 -52t22 -18q29 0 64 43z" />
    <glyph glyph-name="uni0401" unicode="&#x401;" horiz-adv-x="566" 
d="M124 649h450q-1 -6 -7.5 -65t-10.5 -91l-33 -2q-3 70 -18 91q-9 16 -27 22t-63 6h-60q-27 0 -34.5 -6.5t-12.5 -35.5l-41 -206h78q61 0 77.5 11t37.5 62h34l-39 -200h-34q1 58 -10.5 70t-73.5 12h-78l-33 -172q-13 -71 3 -88q17 -18 90 -18q87 0 123 33q34 32 70 97
l32 -12q-34 -94 -62 -157h-480l7 31q58 5 73.5 19t26.5 74l78 401q11 58 0 73t-70 20zM297 809q23 0 35.5 -14.5t12.5 -36.5q0 -27 -17.5 -47t-45.5 -20q-22 0 -35.5 14t-14.5 38q0 24 18 45t47 21zM498 809q23 0 35.5 -14.5t12.5 -36.5q0 -27 -17.5 -47t-45.5 -20
q-22 0 -36 14t-14 38t17.5 45t47.5 21z" />
    <glyph glyph-name="uni0402" unicode="&#x402;" horiz-adv-x="722" 
d="M651 674h20q-10 -62 -25 -183l-34 -3q-1 66 -16 94q-8 17 -27.5 22.5t-67.5 5.5h-63l-48 -248q74 28 121 28q72 0 121 -52t49 -143q0 -74 -29.5 -137t-78 -106t-97.5 -70.5t-102 -45.5l-14 32q36 18 69.5 45.5t64 66t49 91.5t18.5 112q0 72 -30.5 112.5t-82.5 40.5
q-38 0 -65 -11l-35 -187q-12 -69 0.5 -85.5t80.5 -20.5l-7 -32h-307l7 32q64 4 81 20.5t31 85.5l92 472h-42q-84 0 -114 -35q-22 -27 -51 -88l-33 1q28 96 47 186h20q7 -16 17 -20.5t34 -4.5h391q20 0 30.5 5t25.5 20z" />
    <glyph glyph-name="uni0403" unicode="&#x403;" horiz-adv-x="516" 
d="M127 649h441q0 -4 -8 -66t-11 -91l-33 -3q-5 73 -17 94q-15 27 -82 27h-63q-27 0 -33.5 -5.5t-12.5 -32.5l-85 -440q-13 -65 -0.5 -80.5t78.5 -20.5l-6 -31h-284l6 31q52 5 66.5 20t27.5 81l74 385q7 36 8.5 53t-6.5 28.5t-22 14t-45 5.5zM523 752l-4 -10l-202 -60
l-15 29l172 111q12 -3 29 -27.5t20 -42.5z" />
    <glyph glyph-name="uni0404" unicode="&#x404;" horiz-adv-x="644" 
d="M523 308l-328 9q-2 -24 -2 -39q0 -112 44 -182t130 -71q56 0 96 23.5t77 77.5q27 37 45 37q17 0 24 -16t0 -37q-14 -42 -78 -81q-71 -44 -176 -44q-133 0 -212 76.5t-79 211.5q0 120 58 210.5t149.5 135.5t200.5 45q80 0 183 -36q-3 -82 -9 -161l-32 -4q-8 90 -45.5 126
t-108.5 36q-99 0 -168 -70.5t-92 -194.5l340 9z" />
    <glyph glyph-name="uni0405" unicode="&#x405;" horiz-adv-x="482" 
d="M37 202l31 3q5 -29 15.5 -58t28.5 -58.5t48.5 -47.5t67.5 -18q52 0 82.5 33t30.5 84q0 66 -84 133l-30 22q-53 42 -84.5 84.5t-31.5 98.5q0 84 59.5 135t152.5 51q58 0 107 -18l42 -17q-3 -29 -5 -147l-32 -3q-4 29 -11 52t-20 46.5t-36 36.5t-54 13q-47 0 -74.5 -32.5
t-27.5 -75.5q0 -37 21 -65t64 -59l31 -22q60 -44 91 -87.5t31 -103.5q0 -89 -67.5 -143t-166.5 -54q-56 0 -105.5 19t-72.5 42q0 118 -1 156z" />
    <glyph glyph-name="uni0406" unicode="&#x406;" horiz-adv-x="355" 
d="M403 649l-7 -31q-56 -5 -70.5 -19.5t-25.5 -72.5l-77 -402q-12 -59 -0.5 -73.5t71.5 -19.5l-7 -31h-281l7 31q55 4 70 19t27 74l78 402q11 58 -0.5 72.5t-72.5 19.5l8 31h280z" />
    <glyph glyph-name="uni0407" unicode="&#x407;" horiz-adv-x="355" 
d="M403 649l-7 -31q-56 -5 -70.5 -19.5t-25.5 -72.5l-77 -402q-12 -59 -0.5 -73.5t71.5 -19.5l-7 -31h-281l7 31q55 4 70 19t27 74l78 402q11 58 -0.5 72.5t-72.5 19.5l8 31h280zM190 810q23 0 35.5 -14.5t12.5 -36.5q0 -27 -17.5 -47t-44.5 -20q-22 0 -36 14t-14 38
t17.5 45t46.5 21zM391 810q23 0 35.5 -14.5t12.5 -36.5q0 -27 -17.5 -47t-44.5 -20q-22 0 -36 14t-14 38t17.5 45t46.5 21z" />
    <glyph glyph-name="uni0408" unicode="&#x408;" horiz-adv-x="344" 
d="M401 649l-7 -31q-54 -7 -67.5 -20.5t-24.5 -73.5l-72 -390q-17 -94 -49 -151t-91 -91q-55 -34 -108 -37l-7 34q82 21 111 113q16 50 35 146l70 376q11 59 -0.5 73.5t-71.5 20.5l7 31h275z" />
    <glyph glyph-name="uni0409" unicode="&#x409;" horiz-adv-x="886" 
d="M580 521l-27 -139q37 5 78 5q105 0 162.5 -42t57.5 -127q0 -124 -118 -182q-71 -36 -200 -36h-242l7 31q54 4 70 21.5t29 85.5l83 429q5 27 0.5 34t-26.5 7h-112q-21 0 -27.5 -6.5t-10.5 -30.5q-33 -175 -83 -320.5t-110 -219.5q-41 -48 -76 -48q-37 0 -57 11l1 18
q67 40 118 114q44 61 85.5 173t68.5 250q8 41 -6 53t-77 16l6 31h515l-6 -32q-60 -4 -75.5 -19t-27.5 -77zM545 344l-38 -206q-11 -55 3.5 -76.5t54.5 -21.5q72 0 116.5 51.5t44.5 125.5q0 130 -129 130h-1q-9 0 -51 -3z" />
    <glyph glyph-name="uni040A" unicode="&#x40a;" horiz-adv-x="967" 
d="M636 374h84q102 0 158 -40.5t57 -123.5q0 -118 -119 -174q-76 -36 -201 -36h-237l7 31q53 4 67 20t28 87l36 192h-248l-37 -192q-14 -70 -4 -86t66 -21l-6 -31h-275l6 31q56 5 71 20.5t28 86.5l72 374q14 69 4 85.5t-69 20.5l6 31h273l-6 -31q-54 -4 -67.5 -20t-27.5 -86
l-26 -138h249l26 137q13 71 5 86.5t-61 20.5l6 31h269l-6 -31q-59 -4 -73.5 -20.5t-28.5 -88.5zM627 331l-37 -197q-10 -57 2 -76t53 -19q74 1 119.5 47t45.5 120q0 63 -34.5 94t-96.5 31h-52z" />
    <glyph glyph-name="uni040B" unicode="&#x40b;" horiz-adv-x="763" 
d="M705 32l-6 -32h-248l6 32q40 4 52.5 18.5t22.5 68.5l19 98q24 125 -82 125q-44 0 -88 -21l-34 -184q-13 -67 -3 -84t66 -21l-7 -32h-286l7 32q63 4 80 20.5t30 84.5l90 473h-38q-62 0 -85.5 -7.5t-38.5 -29.5q-24 -31 -44 -77l-33 1q33 118 47 177h20q7 -16 17 -20.5
t31 -4.5h392q33 0 57 25h24q-14 -84 -25 -175l-34 -3q0 57 -12 83q-7 19 -26 25t-67 6h-73l-47 -251q88 36 142 36q76 0 112 -45t21 -129l-19 -102q-11 -55 -2 -69t62 -18z" />
    </font>
</defs>
</svg>
