<svg width="53" height="30" viewBox="0 0 53 30" fill="none" xmlns="http://www.w3.org/2000/svg">
<path d="M8.65625 13.6133H13.1094V16.2148H8.65625V21.2891H5.89062V16.2148H1.41406V13.6133H5.89062V8.86719H8.65625V13.6133Z" fill="#FBFBFB"/>
<path d="M38 0C29.72 0 23 6.72 23 15C23 23.28 29.72 30 38 30C46.28 30 53 23.28 53 15C53 6.72 46.28 0 38 0ZM38 27C31.385 27 26 21.615 26 15C26 8.385 31.385 3 38 3C44.615 3 50 8.385 50 15C50 21.615 44.615 27 38 27Z" fill="#FBFBFB"/>
<path d="M37.2946 15.3245C37.2946 14.775 37.3627 14.3371 37.4991 14.0107C37.6354 13.6843 37.9039 13.327 38.3047 12.9387C38.7095 12.5462 38.9657 12.2673 39.0731 12.1021C39.2383 11.8501 39.321 11.5774 39.321 11.2841C39.321 10.8957 39.2239 10.6004 39.0297 10.3979C38.8397 10.1914 38.5588 10.0881 38.1869 10.0881C37.8316 10.0881 37.5445 10.1893 37.3256 10.3917C37.1107 10.59 37.0033 10.8606 37.0033 11.2035H35.4975C35.5057 10.4723 35.7536 9.8939 36.2411 9.46838C36.7327 9.04286 37.3813 8.8301 38.1869 8.8301C39.0173 8.8301 39.6639 9.0408 40.1266 9.46219C40.5934 9.88358 40.8268 10.4723 40.8268 11.2283C40.8268 11.9017 40.5128 12.5648 39.8849 13.2175L39.1227 13.9673C38.85 14.2772 38.7095 14.7296 38.7013 15.3245H37.2946ZM37.1892 17.2517C37.1892 17.008 37.2657 16.8117 37.4185 16.663C37.5714 16.5101 37.7779 16.4337 38.0382 16.4337C38.3026 16.4337 38.5112 16.5122 38.6641 16.6692C38.817 16.8221 38.8934 17.0162 38.8934 17.2517C38.8934 17.4789 38.819 17.669 38.6703 17.8218C38.5216 17.9747 38.3109 18.0511 38.0382 18.0511C37.7655 18.0511 37.5549 17.9747 37.4061 17.8218C37.2615 17.669 37.1892 17.4789 37.1892 17.2517Z" fill="#FBFBFB"/>
<path d="M43.2306 18.0357C43.2306 17.4862 43.2988 17.0483 43.4351 16.722C43.5714 16.3956 43.84 16.0382 44.2407 15.6499C44.6456 15.2574 44.9017 14.9786 45.0091 14.8133C45.1744 14.5613 45.257 14.2886 45.257 13.9953C45.257 13.607 45.1599 13.3116 44.9658 13.1092C44.7757 12.9026 44.4948 12.7993 44.123 12.7993C43.7677 12.7993 43.4806 12.9005 43.2616 13.103C43.0468 13.3013 42.9394 13.5719 42.9394 13.9148H41.4335C41.4418 13.1835 41.6897 12.6051 42.1771 12.1796C42.6688 11.7541 43.3174 11.5413 44.123 11.5413C44.9534 11.5413 45.5999 11.752 46.0626 12.1734C46.5294 12.5948 46.7629 13.1835 46.7629 13.9395C46.7629 14.6129 46.4489 15.276 45.8209 15.9288L45.0587 16.6786C44.786 16.9884 44.6456 17.4408 44.6373 18.0357H43.2306ZM43.1253 19.9629C43.1253 19.7192 43.2017 19.523 43.3546 19.3742C43.5074 19.2214 43.714 19.145 43.9742 19.145C44.2386 19.145 44.4473 19.2235 44.6001 19.3804C44.753 19.5333 44.8294 19.7275 44.8294 19.9629C44.8294 20.1902 44.7551 20.3802 44.6063 20.5331C44.4576 20.6859 44.2469 20.7624 43.9742 20.7624C43.7016 20.7624 43.4909 20.6859 43.3422 20.5331C43.1976 20.3802 43.1253 20.1902 43.1253 19.9629Z" fill="#FBFBFB"/>
<path d="M31.3585 18.0357C31.3585 17.4862 31.4267 17.0483 31.563 16.722C31.6994 16.3956 31.9679 16.0382 32.3686 15.6499C32.7735 15.2574 33.0296 14.9786 33.1371 14.8133C33.3023 14.5613 33.3849 14.2886 33.3849 13.9953C33.3849 13.607 33.2879 13.3116 33.0937 13.1092C32.9036 12.9026 32.6227 12.7993 32.2509 12.7993C31.8956 12.7993 31.6085 12.9005 31.3895 13.103C31.1747 13.3013 31.0673 13.5719 31.0673 13.9148H29.5614C29.5697 13.1835 29.8176 12.6051 30.3051 12.1796C30.7967 11.7541 31.4453 11.5413 32.2509 11.5413C33.0813 11.5413 33.7278 11.752 34.1905 12.1734C34.6574 12.5948 34.8908 13.1835 34.8908 13.9395C34.8908 14.6129 34.5768 15.276 33.9489 15.9288L33.1866 16.6786C32.914 16.9884 32.7735 17.4408 32.7652 18.0357H31.3585ZM31.2532 19.9629C31.2532 19.7192 31.3296 19.523 31.4825 19.3742C31.6353 19.2214 31.8419 19.145 32.1022 19.145C32.3666 19.145 32.5752 19.2235 32.7281 19.3804C32.8809 19.5333 32.9574 19.7275 32.9574 19.9629C32.9574 20.1902 32.883 20.3802 32.7343 20.5331C32.5855 20.6859 32.3748 20.7624 32.1022 20.7624C31.8295 20.7624 31.6188 20.6859 31.4701 20.5331C31.3255 20.3802 31.2532 20.1902 31.2532 19.9629Z" fill="#FBFBFB"/>
</svg>
