<svg width="53" height="30" viewBox="0 0 53 30" fill="none" xmlns="http://www.w3.org/2000/svg">
<path d="M38 0C29.72 0 23 6.72 23 15C23 23.28 29.72 30 38 30C46.28 30 53 23.28 53 15C53 6.72 46.28 0 38 0ZM38 27C31.385 27 26 21.615 26 15C26 8.385 31.385 3 38 3C44.615 3 50 8.385 50 15C50 21.615 44.615 27 38 27Z" fill="#FBFBFB"/>
<path d="M8.65625 13.6133H13.1094V16.2148H8.65625V21.2891H5.89062V16.2148H1.41406V13.6133H5.89062V8.86719H8.65625V13.6133Z" fill="#FBFBFB"/>
<path d="M36.4297 17.9844C36.4297 16.9453 36.5586 16.1172 36.8164 15.5C37.0742 14.8828 37.582 14.207 38.3398 13.4727C39.1055 12.7305 39.5898 12.2031 39.793 11.8906C40.1055 11.4141 40.2617 10.8984 40.2617 10.3438C40.2617 9.60938 40.0781 9.05078 39.7109 8.66797C39.3516 8.27734 38.8203 8.08203 38.1172 8.08203C37.4453 8.08203 36.9023 8.27344 36.4883 8.65625C36.082 9.03125 35.8789 9.54297 35.8789 10.1914H33.0312C33.0469 8.80859 33.5156 7.71484 34.4375 6.91016C35.3672 6.10547 36.5938 5.70312 38.1172 5.70312C39.6875 5.70312 40.9102 6.10156 41.7852 6.89844C42.668 7.69531 43.1094 8.80859 43.1094 10.2383C43.1094 11.5117 42.5156 12.7656 41.3281 14L39.8867 15.418C39.3711 16.0039 39.1055 16.8594 39.0898 17.9844H36.4297ZM36.2305 21.6289C36.2305 21.168 36.375 20.7969 36.6641 20.5156C36.9531 20.2266 37.3438 20.082 37.8359 20.082C38.3359 20.082 38.7305 20.2305 39.0195 20.5273C39.3086 20.8164 39.4531 21.1836 39.4531 21.6289C39.4531 22.0586 39.3125 22.418 39.0312 22.707C38.75 22.9961 38.3516 23.1406 37.8359 23.1406C37.3203 23.1406 36.9219 22.9961 36.6406 22.707C36.3672 22.418 36.2305 22.0586 36.2305 21.6289Z" fill="#FBFBFB"/>
</svg>
