<svg width="51" height="30" viewBox="0 0 51 30" fill="none" xmlns="http://www.w3.org/2000/svg">
<path d="M36 0C27.72 0 21 6.72 21 15C21 23.28 27.72 30 36 30C44.28 30 51 23.28 51 15C51 6.72 44.28 0 36 0ZM36 27C29.385 27 24 21.615 24 15C24 8.385 29.385 3 36 3C42.615 3 48 8.385 48 15C48 21.615 42.615 27 36 27Z" fill="#FBFBFB"/>
<path d="M39.2727 13.1429C40.6309 13.1429 41.7191 11.9943 41.7191 10.5714C41.7191 9.14857 40.6309 8 39.2727 8C37.9145 8 36.8182 9.14857 36.8182 10.5714C36.8182 11.9943 37.9145 13.1429 39.2727 13.1429ZM32.7273 13.1429C34.0855 13.1429 35.1736 11.9943 35.1736 10.5714C35.1736 9.14857 34.0855 8 32.7273 8C31.3691 8 30.2727 9.14857 30.2727 10.5714C30.2727 11.9943 31.3691 13.1429 32.7273 13.1429ZM32.7273 14.8571C30.8209 14.8571 27 15.86 27 17.8571V20H38.4545V17.8571C38.4545 15.86 34.6336 14.8571 32.7273 14.8571ZM39.2727 14.8571C39.0355 14.8571 38.7655 14.8743 38.4791 14.9C39.4282 15.62 40.0909 16.5886 40.0909 17.8571V20H45V17.8571C45 15.86 41.1791 14.8571 39.2727 14.8571Z" fill="#FBFBFB"/>
<path d="M2 20H12V10H9V14.77L2.02 8L0 10.03L6.85 17H2V20Z" fill="#FBFBFB"/>
</svg>
