<svg width="310" height="230" viewBox="0 0 310 230" fill="none" xmlns="http://www.w3.org/2000/svg">
<g clip-path="url(#clip0)">
<path d="M120.055 220.585C180.992 220.585 230.391 171.205 230.391 110.292C230.391 49.3796 180.992 0 120.055 0C59.118 0 9.71875 49.3796 9.71875 110.292C9.71875 171.205 59.118 220.585 120.055 220.585Z" fill="#F2F2F2"/>
<path d="M59.8345 40.8275L57.5498 59.2953C60.3541 64.7814 63.3244 71.0182 66.1572 77.7456L71.5375 49.8981L71.8094 50.1461C67.8758 46.1675 63.7379 42.9289 59.5582 40.605L59.8345 40.8275Z" fill="#447ACC"/>
<path d="M57.056 58.3334L59.2694 40.4442C54.5675 37.8788 49.8177 36.4771 45.2503 36.5023C45.0126 36.5036 44.7779 36.5118 44.5435 36.5208C45.4608 37.9224 50.7901 46.1854 57.056 58.3334Z" fill="#447ACC"/>
<path d="M93.6214 87.1474L93.8677 87.4796C93.0501 84.9942 92.1489 82.5594 91.1641 80.1753L77.2889 111.246L77.1704 111.099C77.5215 112.627 77.845 114.141 78.1409 115.641L93.6214 87.1474Z" fill="#6C63FF"/>
<path d="M84.226 66.5003L84.4882 66.7962C81.0136 60.8687 76.849 55.3735 72.0813 50.4253L66.5981 78.8034C69.2244 85.1209 71.4875 91.2876 73.3875 97.3036L84.226 66.5003Z" fill="#447ACC"/>
<path d="M22.7563 65.0464C22.3915 69.9261 22.5208 74.8302 23.1423 79.6839L71.5343 93.2671C69.7811 88.082 67.8943 83.1756 66.0169 78.6767L22.8147 65.4552L22.7563 65.0464Z" fill="#447ACC"/>
<path d="M24.0168 85.3084L23.9509 84.899L73.0508 97.9358C72.6519 96.6539 72.2435 95.3865 71.8256 94.1336L23.255 80.5003L23.1919 80.0908C23.4097 81.8014 23.6847 83.5406 24.0168 85.3084Z" fill="#447ACC"/>
<path d="M90.7196 79.4011L90.9738 79.7171C89.1729 75.4037 87.0828 71.2167 84.7179 67.1846L73.7329 98.4045C74.9771 102.423 76.0528 106.359 76.9601 110.213L90.7196 79.4011Z" fill="#447ACC"/>
<path d="M80.387 132.936C80.8881 141.85 80.239 150.085 78.4395 157.549C82.2538 152.091 97.1083 129.317 97.1049 105.702L80.387 132.936Z" fill="#6C63FF"/>
<path d="M30.1709 104.218C32.1958 108.226 34.4871 112.094 37.0294 115.796L36.9832 115.345L79.7642 132.122C79.437 127.136 78.811 122.175 77.8894 117.264L30.1709 104.218Z" fill="#447ACC"/>
<path d="M56.6217 58.5666C49.839 45.425 44.172 36.8808 44.0904 36.7584L44.247 36.5332C37.3149 36.8957 31.8214 40.6196 28.0957 46.7389L56.6217 58.5666Z" fill="#447ACC"/>
<path d="M78.3628 116.802C78.451 117.268 78.5419 117.735 78.6249 118.197C79.4277 122.632 79.9884 127.107 80.3045 131.602L96.8638 104.626L97.0971 104.958C97.0619 100.801 96.4997 96.6644 95.4242 92.6482C94.9945 91.072 94.5291 89.5124 94.028 87.9692L78.3628 116.802Z" fill="#6C63FF"/>
<path d="M65.6404 77.7801C62.8351 71.1311 59.8977 64.9688 57.1252 59.547L27.9448 47.4477L27.908 47.0469C25.1505 51.7098 23.3985 57.7204 22.79 64.6664L65.6404 77.7801Z" fill="#447ACC"/>
<path d="M79.8122 132.915L37.3442 116.26C52.5823 138.461 75.9765 157.509 77.4713 158.715C79.6891 150.475 80.2996 141.724 79.8122 132.915Z" fill="#447ACC"/>
<path d="M77.7123 116.43L77.7272 116.403C76.5738 110.458 75.1009 104.579 73.3149 98.793L24.0942 85.7241C24.5549 88.1171 25.1219 90.5532 25.7952 93.0324C26.7885 96.5703 28.1026 100.01 29.7211 103.31L77.7123 116.43Z" fill="#447ACC"/>
<path d="M142.806 118.68L129.262 131.447C127.922 137.46 126.23 144.158 124.119 151.145L146.032 133.128L146.083 133.492C145.592 127.92 144.471 122.787 142.735 118.333L142.806 118.68Z" fill="#447ACC"/>
<path d="M129.496 130.392L142.615 118.025C140.631 113.052 137.867 108.944 134.333 106.051C134.149 105.901 133.963 105.757 133.777 105.615C133.589 107.279 132.421 117.041 129.496 130.392Z" fill="#447ACC"/>
<path d="M139.273 175.897L139.251 176.31C140.207 173.874 141.066 171.425 141.829 168.96L111.317 184.045L111.32 183.856C110.615 185.257 109.898 186.629 109.169 187.972L139.273 175.897Z" fill="#447ACC"/>
<path d="M145.211 154.004L145.224 154.399C146.33 147.619 146.629 140.731 146.114 133.88L123.784 152.241C121.776 158.781 119.584 164.974 117.208 170.818L145.211 154.004Z" fill="#447ACC"/>
<path d="M98.7954 113.694C95.4008 117.22 92.3713 121.079 89.7529 125.214L118.357 166.528C120.315 161.417 121.993 156.435 123.417 151.773L98.5795 114.046L98.7954 113.694Z" fill="#447ACC"/>
<path d="M86.8374 130.103L87.0478 129.746L116.546 171.091C117.056 169.849 117.551 168.613 118.028 167.381L89.3186 125.914L89.5312 125.559C88.6075 127.015 87.7096 128.53 86.8374 130.103Z" fill="#447ACC"/>
<path d="M141.981 168.08L141.975 168.486C143.34 164.015 144.402 159.458 145.153 154.845L116.772 171.886C115.166 175.775 113.483 179.492 111.723 183.039L141.981 168.08Z" fill="#447ACC"/>
<path d="M99.8632 202.725C94.5611 209.91 88.8067 215.839 82.6587 220.44C89.079 218.668 115.051 210.598 130.116 192.408L99.8632 202.725Z" fill="#447ACC"/>
<path d="M79.5114 148.591C78.5135 152.969 77.8102 157.409 77.4062 161.881L77.658 161.504L99.9026 201.701C102.832 197.653 105.516 193.432 107.94 189.062L79.5114 148.591Z" fill="#447ACC"/>
<path d="M129.012 130.294C132.174 115.848 133.261 105.655 133.276 105.508L133.54 105.435C127.97 101.294 121.363 100.66 114.589 102.998L129.012 130.294Z" fill="#447ACC"/>
<path d="M108.599 189.008C108.37 189.423 108.142 189.841 107.911 190.25C105.699 194.177 103.276 197.981 100.651 201.645L130.617 191.426L130.585 191.83C133.211 188.606 135.417 185.062 137.151 181.283C137.826 179.795 138.463 178.297 139.061 176.789L108.599 189.008Z" fill="#447ACC"/>
<path d="M123.699 150.842C125.781 143.933 127.45 137.314 128.775 131.37L114.02 103.447L114.248 103.115C109.149 104.948 103.964 108.461 99.0635 113.423L123.699 150.842Z" fill="#447ACC"/>
<path d="M99.4346 202.342L77.3529 162.439C74.9232 189.253 80.7877 218.838 81.169 220.721C88.1349 215.788 94.1893 209.437 99.4346 202.342Z" fill="#447ACC"/>
<path d="M108.335 188.306L108.364 188.295C111.269 182.981 113.885 177.514 116.202 171.919L86.6316 130.472C85.4596 132.609 84.3419 134.847 83.2785 137.185C81.7861 140.544 80.6033 144.031 79.7446 147.604L108.335 188.306Z" fill="#447ACC"/>
<path d="M29.6445 119.316L33.1824 137.585C37.5458 141.936 42.2992 146.95 47.0734 152.472L43.5793 124.326L43.9146 124.478C38.9433 121.91 34.0066 120.108 29.313 119.189L29.6445 119.316Z" fill="#447ACC"/>
<path d="M32.4152 136.823L28.9885 119.126C23.7236 118.139 18.7729 118.274 14.437 119.709C14.2114 119.784 13.9907 119.864 13.7705 119.945C15.0764 120.994 22.6997 127.206 32.4152 136.823Z" fill="#447ACC"/>
<path d="M76.1 152.929L76.437 153.168C74.8909 151.057 73.2809 149.02 71.6071 147.057L68.0191 180.893L67.8608 180.79C68.6674 182.135 69.4432 183.475 70.1882 184.81L76.1 152.929Z" fill="#447ACC"/>
<path d="M60.78 136.195L61.1209 136.395C55.9836 131.832 50.3236 127.892 44.2593 124.66L47.8198 153.342C52.2709 158.539 56.3301 163.704 59.9973 168.839L60.78 136.195Z" fill="#447ACC"/>
<path d="M1.87109 153.805C3.03304 158.559 4.67246 163.183 6.76437 167.607L56.9869 165.573C53.7162 161.184 50.4046 157.1 47.228 153.402L2.05305 154.176L1.87109 153.805Z" fill="#447ACC"/>
<path d="M9.33491 172.686L9.14562 172.317L59.8723 169.544C59.0966 168.449 58.3163 167.37 57.5315 166.307L7.12368 168.348L6.93701 167.979C7.6731 169.538 8.4724 171.107 9.33491 172.686Z" fill="#447ACC"/>
<path d="M70.9446 146.458L71.2841 146.68C68.2376 143.134 64.9552 139.798 61.4593 136.694L60.666 169.779C63.0919 173.217 65.3321 176.628 67.3865 180.012L70.9446 146.458Z" fill="#447ACC"/>
<path d="M77.6719 200.564C80.905 208.887 82.834 216.919 83.4304 224.573C85.3703 218.204 92.4552 191.955 85.1498 169.498L77.6719 200.564Z" fill="#447ACC"/>
<path d="M21.0352 188.767C24.2003 191.954 27.5754 194.924 31.1378 197.659L30.9547 197.245L76.8286 199.983C74.9757 195.342 72.846 190.816 70.451 186.431L21.0352 188.767Z" fill="#447ACC"/>
<path d="M32.074 137.179C21.5599 126.777 13.5283 120.402 13.4129 120.311L13.4922 120.048C7.01159 122.535 2.93862 127.774 1.2876 134.745L32.074 137.179Z" fill="#447ACC"/>
<path d="M70.7588 185.845C70.9867 186.261 71.2176 186.677 71.4395 187.091C73.5742 191.061 75.4912 195.143 77.1819 199.321L84.5889 168.55L84.9134 168.793C83.5942 164.85 81.7806 161.09 79.5159 157.603C78.6199 156.237 77.695 154.897 76.7412 153.584L70.7588 185.845Z" fill="#447ACC"/>
<path d="M46.5924 152.665C41.8685 147.208 37.1695 142.256 32.8562 137.956L1.36336 135.465L1.20445 135.095C0.0238101 140.382 0.216251 146.639 1.7854 153.433L46.5924 152.665Z" fill="#447ACC"/>
<path d="M77.1192 200.721L31.5811 198.004C52.938 214.41 81.0763 225.296 82.8711 225.982C82.4323 217.46 80.3067 208.948 77.1192 200.721Z" fill="#447ACC"/>
<path d="M70.0244 185.692L70.0301 185.662C67.0949 180.365 63.8764 175.229 60.3886 170.278L9.53711 173.057C10.7152 175.19 12.0077 177.332 13.4146 179.482C15.4533 182.539 17.7668 185.405 20.3262 188.043L70.0244 185.692Z" fill="#447ACC"/>
<path d="M34.6113 230C34.6113 230 105.926 201.754 192.042 230H34.6113Z" fill="#2F2E41"/>
<path d="M86.4601 208.329C86.5152 209.085 86.6086 209.838 86.7399 210.584C86.7399 210.584 92.8768 214.756 93.3678 210.094C93.6869 207.056 92.9652 205.684 92.4202 205.098L92.4116 205.088C92.0842 204.742 91.8996 204.285 91.8949 203.809V198.315L86.4945 200.033L86.7399 204.695C86.3766 205.665 86.3717 207.112 86.4601 208.329Z" fill="#FFB9B9"/>
<path opacity="0.05" d="M86.46 208.329C86.5151 209.085 86.6085 209.838 86.7398 210.584C86.7398 210.584 92.8767 214.755 93.3676 210.093C93.6868 207.055 92.965 205.684 92.4201 205.097C92.207 204.937 91.954 204.837 91.6884 204.809C91.4227 204.781 91.1546 204.827 90.9129 204.94C89.931 204.504 88.8509 205.232 87.9574 206.175C87.3519 206.813 86.8469 207.539 86.46 208.329Z" fill="black"/>
<path d="M90.9129 205.431C90.9129 205.431 93.6131 203.959 94.1041 210.584C94.5951 217.21 94.8405 216.473 94.8405 216.473C94.8405 216.473 97.2953 222.362 92.1403 221.626C86.9853 220.89 84.5306 220.399 84.776 217.455C84.924 215.68 85.3395 213.103 85.6462 211.336C85.9385 209.585 86.7423 207.96 87.9564 206.665C88.8521 205.722 89.931 204.995 90.9129 205.431Z" fill="#2F2E41"/>
<path d="M119.751 213.854L122.565 215.21C122.565 215.21 131.357 216.559 128.569 211.555C127.762 210.06 127.146 208.469 126.735 206.82C126.147 204.524 125.821 202.169 125.761 199.799L118.323 200.837C120.749 204.065 120.442 209.303 120.066 212.046C119.914 213.152 119.751 213.854 119.751 213.854Z" fill="#FFB9B9"/>
<path opacity="0.05" d="M119.751 213.854L122.566 215.21C122.566 215.21 131.358 216.56 128.569 211.555C127.762 210.06 127.146 208.469 126.735 206.82C125.027 207.149 123.728 209.606 123.728 209.606C122.35 214.386 121.111 213.192 120.067 212.046C119.915 213.152 119.751 213.854 119.751 213.854Z" fill="black"/>
<path d="M123.89 210.07C123.89 210.07 126.082 205.926 128.514 207.676C130.945 209.426 129.739 211.926 137.615 214.375C145.491 216.824 140.286 222.02 135.467 221.623C130.648 221.226 120.373 219.355 120.373 219.355C120.373 219.355 117.702 211.71 118.942 211.537C120.182 211.364 121.892 217.005 123.89 210.07Z" fill="#2F2E41"/>
<path opacity="0.3" d="M135.143 220.696C138.272 220.954 141.562 218.854 141.33 216.679C142.825 219.135 139.041 221.917 135.467 221.623C130.648 221.226 120.374 219.355 120.374 219.355C120.374 219.355 120.248 218.995 120.064 218.43C120.363 218.485 130.396 220.305 135.143 220.696Z" fill="white"/>
<path opacity="0.3" d="M84.7888 217.313C85.0718 219.521 87.5212 219.985 92.1403 220.645C94.4893 220.98 95.2561 219.939 95.3971 218.707C95.5507 220.285 95.1024 222.049 92.1403 221.626C86.9853 220.89 84.5306 220.399 84.776 217.455C84.7799 217.409 84.7846 217.36 84.7888 217.313Z" fill="white"/>
<path d="M73.5605 121.537L72.7457 133.755C72.7457 133.755 72.0938 146.136 77.1459 147.114C82.1981 148.091 77.1459 131.312 77.1459 131.312V120.234L73.5605 121.537Z" fill="#FBBEBE"/>
<path d="M77.7977 77.0635L77.1458 78.5297C77.1458 78.5297 77.3088 88.7928 77.1458 89.6073C76.9829 90.4218 74.8642 96.7752 74.8642 97.4268C74.8642 98.0785 73.2345 116.976 72.9086 118.116C72.5826 119.256 71.1159 122.84 72.4197 123.329C73.7234 123.818 76.168 121.863 77.1458 123.329C78.1237 124.795 78.9385 123.329 78.9385 122.84C78.9385 122.352 79.2645 113.066 81.2201 110.459C83.1758 107.853 84.9685 101.988 85.2944 100.848C85.6204 99.7075 86.1093 83.2539 86.2722 82.9281C86.4352 82.6023 85.6204 78.2038 85.6204 78.2038L77.7977 77.0635Z" fill="#3F3D56"/>
<path d="M87.0872 94.3315C87.0872 94.3315 85.1316 101.988 83.8278 103.454C82.524 104.92 76.0052 115.835 77.9608 130.334C79.9164 144.833 83.3389 163.73 83.3389 163.73C83.3389 163.73 83.8278 170.409 83.1759 172.201C82.524 173.993 86.1094 202.502 86.1094 202.502C86.1094 202.502 91.1615 206.411 93.9321 201.524C93.9321 201.524 93.2802 190.935 93.9321 189.958C94.5839 188.98 93.9321 171.386 93.9321 171.386C93.9321 171.386 94.421 127.565 97.0285 129.357C99.6361 131.148 107.622 161.612 107.622 161.612C107.622 161.612 111.044 173.341 110.881 174.319C110.718 175.296 113.815 187.514 113.815 187.514C113.815 187.514 116.748 204.457 117.889 204.782C119.03 205.108 126.037 205.271 126.689 203.479L124.734 188.166C124.734 188.166 122.778 170.735 121.8 168.291C120.822 165.848 119.193 131.149 114.466 120.885C114.466 120.885 112.674 104.432 111.37 101.988C111.37 101.988 110.605 98.6311 111.549 95.4972C111.549 95.4971 88.8799 95.6348 87.0872 94.3315Z" fill="#2F2E41"/>
<path d="M96.7839 63.7865C104.344 63.7865 110.473 56.0189 110.473 46.437C110.473 36.8551 104.344 29.0874 96.7839 29.0874C89.2233 29.0874 83.0942 36.8551 83.0942 46.437C83.0942 56.0189 89.2233 63.7865 96.7839 63.7865Z" fill="#2F2E41"/>
<path d="M124.896 66.8L122.778 71.3613L97.6802 78.6922C97.6802 78.6922 80.2422 83.7423 78.4495 75.5969C76.6568 67.4515 85.2943 66.637 85.2943 66.637C85.2943 66.637 88.5537 64.3563 92.628 62.0756C93.9905 61.3116 94.4419 60.0751 94.4386 58.767C94.4353 58.378 94.3987 57.9899 94.3294 57.6071C94.2508 57.1646 94.1419 56.7281 94.0035 56.3006C93.6585 55.2454 93.1972 54.2319 92.628 53.2787C92.628 53.2787 103.384 49.0431 103.221 51.3238C103.152 52.1453 103.241 52.9725 103.482 53.7609C103.705 54.4512 104.005 55.1142 104.377 55.7369C104.559 56.0513 104.763 56.3772 104.989 56.7225C105.283 57.1705 105.617 57.6478 105.992 58.1659C108.11 61.0982 115.118 61.0982 115.118 61.0982C120.659 60.4466 124.896 66.8 124.896 66.8Z" fill="#FBBEBE"/>
<path d="M150.809 92.8652C150.809 92.8652 162.543 101.499 164.825 101.336C167.106 101.173 180.47 100.359 177.374 103.454C174.277 106.549 160.261 104.595 160.261 104.595L147.387 96.4492L150.809 92.8652Z" fill="#FBBEBE"/>
<path opacity="0.1" d="M103.482 53.7609C102.296 55.0258 100.78 55.9341 99.1052 56.3829C97.4302 56.8317 95.663 56.8032 94.0034 56.3006C93.6584 55.2454 93.1971 54.2319 92.6279 53.2787C92.6279 53.2787 103.384 49.0431 103.221 51.3238C103.152 52.1453 103.241 52.9725 103.482 53.7609Z" fill="black"/>
<path d="M96.7025 55.5597C101.833 55.5597 105.992 51.4023 105.992 46.274C105.992 41.1456 101.833 36.9883 96.7025 36.9883C91.5721 36.9883 87.4131 41.1456 87.4131 46.274C87.4131 51.4023 91.5721 55.5597 96.7025 55.5597Z" fill="#FBBEBE"/>
<path d="M85.1314 73.3166C85.1314 73.3166 125.548 64.1938 125.711 65.4971C125.874 66.8003 127.504 69.4068 127.504 69.4068L118.052 80.1587C118.052 80.1587 119.193 85.3717 116.911 86.5121C114.629 87.6524 114.303 96.2865 112.185 96.4494C110.066 96.6123 85.2944 96.2865 85.1314 94.9832C84.9684 93.68 85.7833 92.8654 85.1314 92.5396C84.4795 92.2138 83.5017 92.2138 84.3165 90.5847C85.1314 88.9557 85.1314 82.1136 85.1314 82.1136L77.4717 78.5296C77.4717 78.5296 76.4213 75.4941 78.3318 74.9755C80.2422 74.457 85.1314 73.3166 85.1314 73.3166Z" fill="#3F3D56"/>
<path d="M126.037 69.0811H127.504C127.504 69.0811 131.904 72.0134 133.045 74.6199C134.186 77.2264 138.26 80.6474 139.238 81.6249C140.216 82.6023 153.58 91.888 153.417 93.1913C153.254 94.4945 149.505 95.7978 149.342 97.2639C149.179 98.7301 150.972 99.3817 149.831 99.3817C148.691 99.3817 141.683 95.3091 139.075 93.8429C136.468 92.3767 131.09 88.1412 130.438 87.0008C129.786 85.8605 125.386 83.9056 124.897 83.091C124.408 82.2765 116.748 78.5297 116.748 78.5297L126.037 69.0811Z" fill="#3F3D56"/>
<path d="M83.0945 41.1423C85.9747 41.1423 88.3096 38.8084 88.3096 35.9293C88.3096 33.0503 85.9747 30.7163 83.0945 30.7163C80.2143 30.7163 77.8794 33.0503 77.8794 35.9293C77.8794 38.8084 80.2143 41.1423 83.0945 41.1423Z" fill="#2F2E41"/>
<path d="M106.073 34.3001C108.954 34.3001 111.289 31.9661 111.289 29.087C111.289 26.208 108.954 23.874 106.073 23.874C103.193 23.874 100.858 26.208 100.858 29.087C100.858 31.9661 103.193 34.3001 106.073 34.3001Z" fill="#2F2E41"/>
<path d="M98.0064 46.1925C103.362 46.1925 107.703 43.5303 107.703 40.2464C107.703 36.9625 103.362 34.3003 98.0064 34.3003C92.651 34.3003 88.3096 36.9625 88.3096 40.2464C88.3096 43.5303 92.651 46.1925 98.0064 46.1925Z" fill="#2F2E41"/>
<path d="M104.377 55.7373C99.9081 57.4951 96.3765 57.7036 94.3296 57.6075C94.3989 57.9903 94.4354 58.3783 94.4388 58.7674C94.6767 58.7771 94.9326 58.782 95.2047 58.782C97.4652 58.782 100.842 58.3894 104.99 56.7229L104.377 55.7373Z" fill="#2F2E41"/>
<path d="M302.233 104.24H175.032C171.05 104.24 167.822 107.466 167.822 111.447V181.77C167.822 185.75 171.05 188.977 175.032 188.977H302.233C306.215 188.977 309.443 185.75 309.443 181.77V111.447C309.443 107.466 306.215 104.24 302.233 104.24Z" fill="#3F3D56"/>
<path opacity="0.3" d="M294.101 163.673H183.092V167.708H294.101V163.673Z" fill="#447ACC"/>
<path opacity="0.3" d="M294.174 153.081H183.165V157.116H294.174V153.081Z" fill="#447ACC"/>
<path opacity="0.3" d="M294.174 138.622H274.327V142.657H294.174V138.622Z" fill="#447ACC"/>
<path opacity="0.3" d="M294.174 127.862H221.513V131.897H294.174V127.862Z" fill="#447ACC"/>
<path opacity="0.3" d="M238.669 174.434H183.092V178.469H238.669V174.434Z" fill="#447ACC"/>
<path d="M207.665 114.748H186.584C184.696 114.748 183.165 116.278 183.165 118.166V139.239C183.165 141.127 184.696 142.657 186.584 142.657H207.665C209.554 142.657 211.085 141.127 211.085 139.239V118.166C211.085 116.278 209.554 114.748 207.665 114.748Z" fill="#447ACC"/>
</g>
<defs>
<clipPath id="clip0">
<rect width="309" height="230" fill="white" transform="translate(0.443359)"/>
</clipPath>
</defs>
</svg>
