<svg width="365" height="239" viewBox="0 0 365 239" fill="none" xmlns="http://www.w3.org/2000/svg">
<g clip-path="url(#clip0)">
<path d="M256.534 190.553C277.133 190.553 293.832 173.895 293.832 153.347C293.832 132.798 277.133 116.14 256.534 116.14C235.934 116.14 219.235 132.798 219.235 153.347C219.235 173.895 235.934 190.553 256.534 190.553Z" fill="url(#paint0_linear)"/>
<path d="M256.533 188.782C276.152 188.782 292.056 172.917 292.056 153.347C292.056 133.776 276.152 117.912 256.533 117.912C236.915 117.912 221.011 133.776 221.011 153.347C221.011 172.917 236.915 188.782 256.533 188.782Z" fill="#F5F5F5"/>
<g opacity="0.5">
<path opacity="0.5" d="M257.528 131.21C251.922 131.021 246.452 132.956 242.217 136.625C237.982 140.294 235.295 145.426 234.697 150.99H228.303C227.96 150.99 227.631 151.126 227.389 151.368C227.146 151.609 227.01 151.937 227.01 152.28V154.406C227.01 154.748 227.146 155.077 227.389 155.319C227.631 155.561 227.96 155.698 228.303 155.699H234.697C235.15 159.923 236.811 163.928 239.482 167.236C242.153 170.544 245.722 173.016 249.762 174.358C253.802 175.699 258.144 175.853 262.27 174.801C266.396 173.75 270.131 171.537 273.031 168.426C275.931 165.315 277.873 161.439 278.625 157.258C279.378 153.077 278.909 148.768 277.275 144.845C275.641 140.923 272.911 137.552 269.409 135.134C265.908 132.716 261.784 131.354 257.528 131.21Z" fill="url(#paint1_linear)"/>
</g>
<path d="M257.24 132.539C251.97 132.36 246.828 134.179 242.847 137.628C238.866 141.077 236.341 145.902 235.781 151.132H229.593C229.319 151.132 229.056 151.24 228.862 151.434C228.668 151.627 228.559 151.889 228.559 152.163V154.526C228.559 154.662 228.585 154.797 228.637 154.922C228.688 155.048 228.765 155.162 228.861 155.258C228.957 155.354 229.071 155.43 229.196 155.482C229.322 155.534 229.457 155.561 229.593 155.561H235.781C236.209 159.531 237.772 163.293 240.284 166.401C242.796 169.509 246.151 171.831 249.949 173.09C253.747 174.349 257.828 174.492 261.705 173.502C265.583 172.512 269.093 170.431 271.817 167.507C274.542 164.582 276.366 160.938 277.073 157.008C277.779 153.079 277.338 149.029 275.801 145.343C274.265 141.656 271.698 138.488 268.407 136.216C265.116 133.944 261.24 132.664 257.24 132.528V132.539Z" fill="white"/>
<path d="M256.533 167.963C264.626 167.963 271.187 161.419 271.187 153.346C271.187 145.274 264.626 138.729 256.533 138.729C248.441 138.729 241.88 145.274 241.88 153.346C241.88 161.419 248.441 167.963 256.533 167.963Z" fill="#795548"/>
<path opacity="0.2" d="M264.082 146.26C264.082 146.26 268.263 152.737 267.066 157.776C267.066 157.776 271.844 149.856 264.082 146.26Z" fill="white"/>
<path opacity="0.2" d="M265.858 162.648C266.594 162.648 267.19 162.053 267.19 161.32C267.19 160.586 266.594 159.991 265.858 159.991C265.122 159.991 264.526 160.586 264.526 161.32C264.526 162.053 265.122 162.648 265.858 162.648Z" fill="white"/>
<path d="M74.4628 17.9756L0.571777 34.6543L24.7746 141.352L98.6656 124.674L74.4628 17.9756Z" fill="url(#paint2_linear)"/>
<path d="M150.942 0.714413L77.0513 17.3931L101.254 124.091L175.145 107.412L150.942 0.714413Z" fill="url(#paint3_linear)"/>
<path d="M73.9536 19.4443L1.89893 35.7085L25.5757 140.087L97.6305 123.823L73.9536 19.4443Z" fill="#447ACC"/>
<path d="M149.941 2.29149L77.8862 18.5557L101.563 122.934L173.618 106.67L149.941 2.29149Z" fill="#F5F5F5"/>
<path d="M60.5861 34.3393L17.3193 44.1055L18.9508 51.2977L62.2176 41.5315L60.5861 34.3393Z" fill="#F5F5F5"/>
<path d="M71.7385 50.0981L14.0518 63.1191L14.4594 64.9163L72.1462 51.8953L71.7385 50.0981Z" fill="#F5F5F5"/>
<path d="M72.6897 54.2925L15.0029 67.3135L15.4106 69.1107L73.0973 56.0896L72.6897 54.2925Z" fill="#F5F5F5"/>
<path d="M73.6438 58.4868L15.957 71.5078L16.3647 73.305L74.0514 60.284L73.6438 58.4868Z" fill="#F5F5F5"/>
<path d="M44.5479 69.4659L16.9067 75.7051L17.3144 77.5023L44.9555 71.2631L44.5479 69.4659Z" fill="#F5F5F5"/>
<path d="M49.7086 72.7162L17.8613 79.9048L18.269 81.702L50.1162 74.5134L49.7086 72.7162Z" fill="#F5F5F5"/>
<path d="M76.4978 71.08L18.811 84.1011L19.2187 85.8983L76.9054 72.8772L76.4978 71.08Z" fill="#F5F5F5"/>
<path d="M77.4519 75.2749L19.7651 88.2959L20.1728 90.0931L77.8595 77.0721L77.4519 75.2749Z" fill="#F5F5F5"/>
<path d="M74.1979 80.4196L20.7173 92.4912L21.125 94.2884L74.6056 82.2168L74.1979 80.4196Z" fill="#F5F5F5"/>
<path d="M79.3537 83.6665L21.667 96.6875L22.0747 98.4847L79.7614 85.4637L79.3537 83.6665Z" fill="#F5F5F5"/>
<path d="M52.6638 94.1024L22.6182 100.884L23.0258 102.681L53.0714 95.8996L52.6638 94.1024Z" fill="#F5F5F5"/>
<path opacity="0.3" d="M133.673 80.8583L101.826 88.0469L102.234 89.8441L134.081 82.6555L133.673 80.8583Z" fill="#447ACC"/>
<path opacity="0.3" d="M160.463 79.2226L102.776 92.2437L103.184 94.0408L160.87 81.0198L160.463 79.2226Z" fill="#447ACC"/>
<path opacity="0.3" d="M161.417 83.4165L103.73 96.4375L104.138 98.2347L161.825 85.2137L161.417 83.4165Z" fill="#447ACC"/>
<path opacity="0.3" d="M158.163 88.5617L104.682 100.633L105.09 102.43L158.57 90.3589L158.163 88.5617Z" fill="#447ACC"/>
<path opacity="0.3" d="M163.319 91.8085L105.632 104.83L106.04 106.627L163.727 93.6057L163.319 91.8085Z" fill="#447ACC"/>
<path opacity="0.3" d="M136.629 102.245L106.583 109.026L106.991 110.824L137.037 104.042L136.629 102.245Z" fill="#447ACC"/>
<path d="M80.7329 95.3273L45.8818 103.194L51.3211 127.173L86.1722 119.306L80.7329 95.3273Z" fill="#F5F5F5"/>
<path opacity="0.3" d="M121.992 15.4381L87.1411 23.3047L92.5803 47.2834L127.431 39.4168L121.992 15.4381Z" fill="#447ACC"/>
<path opacity="0.3" d="M156.103 40.5055L121.251 48.3721L126.691 72.3508L161.542 64.4842L156.103 40.5055Z" fill="#447ACC"/>
<path d="M173.386 26.5301L108.808 41.1066C106.237 41.6871 104.624 44.2374 105.206 46.8028L127.301 144.211C127.883 146.776 130.44 148.385 133.011 147.805L197.589 133.228C200.161 132.648 201.774 130.097 201.192 127.532L179.097 30.1241C178.515 27.5587 175.958 25.9496 173.386 26.5301Z" fill="url(#paint4_linear)"/>
<path d="M172.388 28.1077L109.647 42.2697C107.075 42.8502 105.462 45.4005 106.044 47.9658L127.613 143.055C128.195 145.62 130.752 147.229 133.324 146.649L196.065 132.487C198.637 131.906 200.25 129.356 199.668 126.79L178.099 31.7017C177.517 29.1363 174.96 27.5272 172.388 28.1077Z" fill="#447ACC"/>
<g opacity="0.5">
<path opacity="0.5" d="M79.9148 192.803H78.8491V198.827H79.9148V192.803Z" fill="#47E6B1"/>
<path opacity="0.5" d="M82.4019 196.347V195.284H76.363V196.347H82.4019Z" fill="#47E6B1"/>
</g>
<g opacity="0.5">
<path opacity="0.5" d="M259.731 12.3149H258.665V18.3389H259.731V12.3149Z" fill="#47E6B1"/>
<path opacity="0.5" d="M262.217 15.8585V14.7954H256.178V15.8585H262.217Z" fill="#47E6B1"/>
</g>
<g opacity="0.5">
<path opacity="0.5" d="M227.76 89.209H226.695V95.2329H227.76V89.209Z" fill="#47E6B1"/>
<path opacity="0.5" d="M230.247 92.7525V91.6895H224.208V92.7525H230.247Z" fill="#47E6B1"/>
</g>
<g opacity="0.5">
<path opacity="0.5" d="M319.266 103.029H318.2V109.053H319.266V103.029Z" fill="#47E6B1"/>
<path opacity="0.5" d="M321.749 106.576V105.513H315.71V106.576H321.749Z" fill="#47E6B1"/>
</g>
<path opacity="0.5" d="M140.904 192.201C140.61 192.073 140.374 191.843 140.24 191.553C140.106 191.263 140.083 190.934 140.176 190.628C140.194 190.582 140.203 190.532 140.204 190.483C140.213 190.342 140.176 190.203 140.1 190.085C140.023 189.967 139.91 189.877 139.778 189.829C139.646 189.78 139.501 189.776 139.366 189.815C139.231 189.855 139.112 189.938 139.028 190.05C139.001 190.091 138.977 190.133 138.957 190.178C138.826 190.468 138.594 190.7 138.303 190.831C138.013 190.961 137.684 190.981 137.38 190.887C137.333 190.872 137.284 190.862 137.234 190.858C137.094 190.849 136.954 190.886 136.836 190.962C136.718 191.039 136.628 191.151 136.579 191.283C136.53 191.415 136.525 191.559 136.565 191.694C136.605 191.829 136.688 191.947 136.801 192.031C136.841 192.061 136.884 192.085 136.929 192.105C137.223 192.233 137.46 192.463 137.594 192.754C137.728 193.044 137.751 193.373 137.657 193.679C137.642 193.725 137.633 193.772 137.629 193.821C137.619 193.961 137.655 194.101 137.731 194.219C137.808 194.338 137.92 194.428 138.053 194.478C138.185 194.527 138.33 194.532 138.466 194.492C138.601 194.452 138.72 194.369 138.804 194.256C138.833 194.215 138.857 194.171 138.875 194.125C139.007 193.835 139.24 193.603 139.531 193.472C139.822 193.341 140.151 193.322 140.456 193.417C140.502 193.431 140.55 193.441 140.598 193.445C140.739 193.454 140.879 193.417 140.997 193.341C141.115 193.264 141.205 193.152 141.254 193.02C141.302 192.888 141.307 192.744 141.267 192.609C141.227 192.474 141.144 192.356 141.032 192.272C140.992 192.243 140.949 192.219 140.904 192.201Z" fill="#4D8AF0"/>
<path opacity="0.5" d="M192.838 236.371C192.547 236.24 192.315 236.008 192.184 235.718C192.053 235.428 192.033 235.101 192.127 234.797C192.142 234.75 192.152 234.701 192.156 234.652C192.165 234.512 192.128 234.372 192.051 234.255C191.974 234.137 191.862 234.047 191.729 233.998C191.597 233.95 191.453 233.945 191.318 233.985C191.183 234.025 191.064 234.107 190.98 234.22C190.951 234.259 190.928 234.302 190.909 234.347C190.782 234.641 190.551 234.878 190.26 235.012C189.969 235.146 189.638 235.168 189.332 235.074C189.284 235.059 189.235 235.05 189.186 235.045C189.045 235.036 188.906 235.073 188.787 235.149C188.669 235.226 188.579 235.339 188.531 235.47C188.482 235.602 188.477 235.746 188.517 235.881C188.557 236.016 188.64 236.134 188.753 236.218C188.792 236.248 188.835 236.273 188.88 236.293C189.171 236.424 189.403 236.656 189.534 236.945C189.665 237.235 189.685 237.562 189.591 237.866C189.576 237.913 189.566 237.962 189.562 238.011C189.553 238.151 189.59 238.291 189.667 238.409C189.744 238.526 189.856 238.616 189.989 238.665C190.121 238.714 190.265 238.718 190.4 238.678C190.535 238.638 190.654 238.556 190.738 238.444C190.767 238.403 190.791 238.359 190.809 238.312C190.94 238.022 191.172 237.79 191.463 237.66C191.754 237.529 192.082 237.509 192.386 237.604C192.434 237.618 192.483 237.628 192.532 237.632C192.673 237.641 192.812 237.605 192.931 237.528C193.049 237.451 193.139 237.339 193.187 237.207C193.236 237.075 193.241 236.931 193.201 236.796C193.161 236.662 193.078 236.543 192.966 236.459C192.927 236.424 192.884 236.394 192.838 236.371Z" fill="#4D8AF0"/>
<path opacity="0.5" d="M270.632 83.6455C270.342 83.5146 270.109 83.2825 269.979 82.9928C269.848 82.7031 269.828 82.3757 269.922 82.0722C269.936 82.0249 269.946 81.9762 269.95 81.9269C269.959 81.7866 269.922 81.6472 269.846 81.5294C269.769 81.4116 269.656 81.3217 269.524 81.2731C269.392 81.2245 269.247 81.2198 269.112 81.2597C268.977 81.2997 268.859 81.382 268.774 81.4946C268.746 81.5343 268.722 81.5771 268.703 81.6221C268.576 81.9159 268.345 82.1526 268.054 82.2867C267.763 82.4208 267.432 82.4428 267.126 82.3485C267.079 82.3341 267.03 82.3246 266.98 82.3202C266.84 82.3112 266.7 82.3477 266.582 82.4243C266.464 82.5009 266.374 82.6135 266.325 82.7454C266.276 82.8772 266.272 83.0212 266.312 83.156C266.352 83.2907 266.434 83.409 266.547 83.4931C266.586 83.5233 266.629 83.5483 266.675 83.5675C266.965 83.6984 267.197 83.9305 267.328 84.2202C267.459 84.5099 267.479 84.8373 267.385 85.1408C267.37 85.188 267.361 85.2368 267.357 85.2861C267.348 85.4263 267.384 85.5658 267.461 85.6836C267.538 85.8014 267.651 85.8912 267.783 85.9398C267.915 85.9884 268.06 85.9931 268.195 85.9532C268.33 85.9133 268.448 85.831 268.533 85.7184C268.562 85.6779 268.586 85.6339 268.604 85.5873C268.734 85.2973 268.967 85.065 269.257 84.9344C269.548 84.8039 269.877 84.784 270.181 84.8786C270.228 84.8931 270.277 84.9026 270.327 84.907C270.467 84.916 270.607 84.8795 270.725 84.8029C270.843 84.7263 270.933 84.6136 270.982 84.4818C271.031 84.3499 271.035 84.2059 270.995 84.0712C270.955 83.9364 270.873 83.8182 270.76 83.7341C270.722 83.6989 270.678 83.6691 270.632 83.6455Z" fill="#4D8AF0"/>
<path opacity="0.5" d="M324.627 140.696C324.336 140.565 324.104 140.333 323.973 140.043C323.842 139.753 323.822 139.426 323.916 139.122C323.931 139.075 323.941 139.027 323.945 138.977C323.954 138.837 323.917 138.698 323.84 138.58C323.764 138.462 323.651 138.372 323.518 138.323C323.386 138.275 323.242 138.27 323.107 138.31C322.972 138.35 322.853 138.432 322.769 138.545C322.74 138.585 322.717 138.627 322.698 138.672C322.571 138.966 322.34 139.203 322.049 139.337C321.758 139.471 321.427 139.493 321.121 139.399C321.073 139.384 321.024 139.375 320.975 139.371C320.834 139.361 320.695 139.398 320.577 139.475C320.458 139.551 320.368 139.664 320.32 139.796C320.271 139.928 320.266 140.072 320.306 140.206C320.346 140.341 320.429 140.459 320.542 140.543C320.581 140.574 320.624 140.599 320.669 140.618C320.96 140.749 321.192 140.981 321.323 141.27C321.454 141.56 321.474 141.888 321.38 142.191C321.365 142.238 321.355 142.287 321.352 142.336C321.342 142.477 321.379 142.616 321.456 142.734C321.533 142.852 321.646 142.942 321.778 142.99C321.91 143.039 322.054 143.043 322.189 143.004C322.324 142.964 322.443 142.881 322.527 142.769C322.557 142.728 322.58 142.684 322.598 142.638C322.729 142.348 322.962 142.115 323.252 141.985C323.543 141.854 323.871 141.834 324.176 141.929C324.223 141.943 324.272 141.953 324.321 141.957C324.462 141.966 324.602 141.93 324.72 141.853C324.838 141.777 324.928 141.664 324.977 141.532C325.025 141.4 325.03 141.256 324.99 141.121C324.95 140.987 324.867 140.868 324.755 140.784C324.716 140.749 324.673 140.719 324.627 140.696Z" fill="#4D8AF0"/>
<path opacity="0.5" d="M51.1416 175.44C52.3187 175.44 53.273 174.488 53.273 173.314C53.273 172.139 52.3187 171.188 51.1416 171.188C49.9645 171.188 49.0103 172.139 49.0103 173.314C49.0103 174.488 49.9645 175.44 51.1416 175.44Z" fill="#F55F44"/>
<path opacity="0.5" d="M186.554 20.8191C187.731 20.8191 188.685 19.8672 188.685 18.693C188.685 17.5188 187.731 16.5669 186.554 16.5669C185.377 16.5669 184.422 17.5188 184.422 18.693C184.422 19.8672 185.377 20.8191 186.554 20.8191Z" fill="#4D8AF0"/>
<path opacity="0.5" d="M177.673 176.379C178.85 176.379 179.805 175.427 179.805 174.253C179.805 173.079 178.85 172.127 177.673 172.127C176.496 172.127 175.542 173.079 175.542 174.253C175.542 175.427 176.496 176.379 177.673 176.379Z" fill="#47E6B1"/>
<path opacity="0.5" d="M300.582 229.532C301.759 229.532 302.713 228.58 302.713 227.406C302.713 226.232 301.759 225.28 300.582 225.28C299.404 225.28 298.45 226.232 298.45 227.406C298.45 228.58 299.404 229.532 300.582 229.532Z" fill="#F55F44"/>
<g opacity="0.5">
<path opacity="0.5" d="M279.079 101.769L308.12 4.65377C308.29 4.0873 308.678 3.61119 309.199 3.33012C309.721 3.04905 310.332 2.98608 310.9 3.15506L362.955 18.6448C363.523 18.8138 364 19.2009 364.282 19.7209C364.563 20.241 364.627 20.8513 364.457 21.4178L335.416 118.533C335.247 119.099 334.859 119.574 334.339 119.855C333.818 120.136 333.207 120.198 332.64 120.03L280.579 104.538C280.013 104.368 279.537 103.982 279.256 103.463C278.974 102.944 278.911 102.335 279.079 101.769Z" fill="url(#paint5_linear)"/>
</g>
<path d="M359.329 18.9877L313.803 5.44072C311.239 4.67767 308.54 6.13275 307.775 8.69075L281.033 98.1186C280.268 100.677 281.726 103.369 284.291 104.132L329.816 117.679C332.381 118.442 335.079 116.987 335.844 114.429L362.587 25.001C363.352 22.443 361.893 19.7508 359.329 18.9877Z" fill="white"/>
<path d="M349.584 18.8099C349.118 19.8141 348.305 20.6174 347.294 21.0729C346.283 21.5283 345.142 21.6055 344.078 21.2903L325.148 15.6526C324.085 15.3338 323.172 14.6448 322.575 13.7109C321.977 12.7771 321.736 11.6604 321.895 10.5641L311.877 7.58402C311.325 7.42095 310.731 7.48263 310.224 7.75556C309.718 8.02849 309.34 8.49046 309.174 9.0404L282.365 98.631C282.284 98.9037 282.257 99.1897 282.287 99.4727C282.316 99.7556 282.401 100.03 282.537 100.28C282.673 100.53 282.857 100.751 283.079 100.93C283.3 101.109 283.555 101.243 283.828 101.324L331.727 115.583C332.279 115.747 332.873 115.686 333.379 115.413C333.886 115.14 334.262 114.677 334.427 114.127L361.225 24.5362C361.307 24.2637 361.334 23.9778 361.305 23.6949C361.276 23.412 361.191 23.1375 361.056 22.8874C360.92 22.6372 360.736 22.4162 360.515 22.237C360.293 22.0578 360.039 21.9239 359.765 21.8431L349.584 18.8099Z" fill="#E0E0E0"/>
<path d="M340.714 17.3694L329.221 14.1057C329.009 14.0457 328.789 14.168 328.729 14.3788C328.669 14.5896 328.791 14.8091 329.003 14.8691L340.496 18.1328C340.707 18.1929 340.927 18.0706 340.987 17.8598C341.048 17.649 340.925 17.4294 340.714 17.3694Z" fill="#DBDBDB"/>
<path d="M343.61 19.0153C343.875 19.0153 344.089 18.8012 344.089 18.537C344.089 18.2728 343.875 18.0586 343.61 18.0586C343.345 18.0586 343.13 18.2728 343.13 18.537C343.13 18.8012 343.345 19.0153 343.61 19.0153Z" fill="#DBDBDB"/>
<path d="M325.255 29.4436L310.186 25.3032L306.601 38.2851L321.67 42.4255L325.255 29.4436Z" fill="white"/>
<path opacity="0.3" d="M320.062 48.2332L304.993 44.0928L301.409 57.0746L316.477 61.215L320.062 48.2332Z" fill="#447ACC"/>
<path d="M314.877 67.0208L299.808 62.8804L296.223 75.8623L311.292 80.0027L314.877 67.0208Z" fill="white"/>
<path opacity="0.3" d="M309.684 85.8108L294.616 81.6704L291.031 94.6523L306.1 98.7927L309.684 85.8108Z" fill="#3AD29F"/>
<path d="M348.034 39.0086L328.171 33.5508L327.794 34.9173L347.657 40.3751L348.034 39.0086Z" fill="white"/>
<path d="M346.902 43.1072L327.039 37.6494L326.661 39.0159L346.525 44.4737L346.902 43.1072Z" fill="white"/>
<path d="M342.94 57.4602L323.076 52.0024L322.699 53.369L342.562 58.8268L342.94 57.4602Z" fill="white"/>
<path d="M341.808 61.556L321.945 56.0981L321.567 57.4647L341.431 62.9225L341.808 61.556Z" fill="white"/>
<path d="M337.846 75.9085L317.982 70.4507L317.605 71.8172L337.468 77.275L337.846 75.9085Z" fill="white"/>
<path d="M336.713 80.0076L316.85 74.5498L316.472 75.9163L336.336 81.3741L336.713 80.0076Z" fill="white"/>
<path d="M332.752 94.3538L312.888 88.896L312.511 90.2625L332.374 95.7203L332.752 94.3538Z" fill="white"/>
<path d="M331.619 98.4563L311.756 92.9985L311.379 94.365L331.242 99.8229L331.619 98.4563Z" fill="white"/>
</g>
<defs>
<linearGradient id="paint0_linear" x1="256.534" y1="190.553" x2="256.534" y2="116.14" gradientUnits="userSpaceOnUse">
<stop stop-color="#808080" stop-opacity="0.25"/>
<stop offset="0.54" stop-color="#808080" stop-opacity="0.12"/>
<stop offset="1" stop-color="#808080" stop-opacity="0.1"/>
</linearGradient>
<linearGradient id="paint1_linear" x1="41705" y1="27037" x2="41705" y2="21500.2" gradientUnits="userSpaceOnUse">
<stop stop-color="#808080" stop-opacity="0.25"/>
<stop offset="0.54" stop-color="#808080" stop-opacity="0.12"/>
<stop offset="1" stop-color="#808080" stop-opacity="0.1"/>
</linearGradient>
<linearGradient id="paint2_linear" x1="28156.5" y1="44389.2" x2="20719.3" y2="11440.5" gradientUnits="userSpaceOnUse">
<stop stop-color="#808080" stop-opacity="0.25"/>
<stop offset="0.54" stop-color="#808080" stop-opacity="0.12"/>
<stop offset="1" stop-color="#808080" stop-opacity="0.1"/>
</linearGradient>
<linearGradient id="paint3_linear" x1="44537.2" y1="40674.1" x2="37100" y2="7725.35" gradientUnits="userSpaceOnUse">
<stop stop-color="#808080" stop-opacity="0.25"/>
<stop offset="0.54" stop-color="#808080" stop-opacity="0.12"/>
<stop offset="1" stop-color="#808080" stop-opacity="0.1"/>
</linearGradient>
<linearGradient id="paint4_linear" x1="50985.9" y1="48777.6" x2="43548.7" y2="15828.8" gradientUnits="userSpaceOnUse">
<stop stop-color="#808080" stop-opacity="0.25"/>
<stop offset="0.54" stop-color="#808080" stop-opacity="0.12"/>
<stop offset="1" stop-color="#808080" stop-opacity="0.1"/>
</linearGradient>
<linearGradient id="paint5_linear" x1="87119.6" y1="50914" x2="97453.3" y2="32840.8" gradientUnits="userSpaceOnUse">
<stop stop-color="#808080" stop-opacity="0.25"/>
<stop offset="0.54" stop-color="#808080" stop-opacity="0.12"/>
<stop offset="1" stop-color="#808080" stop-opacity="0.1"/>
</linearGradient>
<clipPath id="clip0">
<rect width="364" height="238" fill="white" transform="translate(0.575195 0.706055)"/>
</clipPath>
</defs>
</svg>
