<svg width="338" height="241" viewBox="0 0 338 241" fill="none" xmlns="http://www.w3.org/2000/svg">
<g clip-path="url(#clip0)">
<path opacity="0.1" d="M287.566 3.03809H225.87C221.313 28.3954 221.313 54.3658 225.87 79.7231C243.935 76.5433 264.928 77.0998 287.566 79.7231C282.973 53.601 282.763 28.0115 287.566 3.03809Z" fill="black"/>
<path d="M17.2767 236.321C18.4655 234.131 17.1182 231.448 15.5768 229.492C14.0354 227.537 12.1651 225.518 12.2047 223.017C12.2642 219.44 16.0483 217.33 19.0717 215.434C21.3167 214.028 23.3865 212.359 25.2373 210.461C26.0118 209.73 26.6528 208.87 27.1314 207.917C27.7575 206.518 27.7416 204.928 27.702 203.394C27.5673 198.29 27.315 193.192 26.9452 188.099" stroke="#3F3D56" stroke-width="4" stroke-miterlimit="10"/>
<path d="M32.6905 187.801C32.6484 186.867 32.3721 185.958 31.8873 185.159C31.4025 184.36 30.7248 183.697 29.9168 183.23L28.6725 185.698L28.7122 182.709C27.585 182.374 26.3806 182.406 25.2728 182.801C24.165 183.196 23.2111 183.935 22.5488 184.909C21.8865 185.884 21.55 187.044 21.5878 188.223C21.6257 189.402 22.0361 190.538 22.7596 191.468C23.4831 192.398 24.4825 193.073 25.6134 193.396C26.7442 193.719 27.9482 193.673 29.0514 193.265C30.1547 192.857 31.1001 192.108 31.7514 191.126C32.4026 190.144 32.7259 188.979 32.6747 187.801H32.6905Z" fill="#57B894"/>
<path d="M22.7841 225.557C22.2008 226.691 21.2465 227.59 20.0813 228.102C18.9161 228.615 17.6108 228.71 16.384 228.371C15.1572 228.033 14.0837 227.282 13.3432 226.245C12.6026 225.207 12.2402 223.945 12.3167 222.671C12.3931 221.397 12.9037 220.189 13.7629 219.247C14.6221 218.306 15.7777 217.69 17.0361 217.502C18.2944 217.314 19.579 217.565 20.6745 218.214C21.7701 218.863 22.61 219.869 23.0535 221.066L19.5785 223.9L23.4022 223.013C23.4008 223.898 23.1889 224.771 22.7841 225.557Z" fill="#57B894"/>
<path d="M20.0306 214.726C18.6454 214.83 17.2718 214.408 16.1814 213.545C15.0909 212.682 14.3629 211.44 14.1414 210.064C13.9198 208.689 14.2207 207.28 14.9847 206.116C15.7486 204.953 16.92 204.119 18.2673 203.779L18.2356 206.081L19.4957 203.581C20.227 203.543 20.9585 203.65 21.6481 203.897C22.3377 204.144 22.9717 204.526 23.5135 205.02C24.0554 205.514 24.4944 206.111 24.8052 206.776C25.116 207.441 25.2925 208.161 25.3245 208.895C25.3571 209.539 25.2766 210.183 25.0868 210.799C24.751 211.897 24.0848 212.864 23.1795 213.567C22.2743 214.27 21.1744 214.675 20.0306 214.726Z" fill="#57B894"/>
<path d="M33.5305 205.715C32.6769 205.746 31.8275 205.58 31.0486 205.228C30.2698 204.876 29.5824 204.348 29.0402 203.686C28.498 203.024 28.1155 202.245 27.9226 201.411C27.7297 200.576 27.7316 199.708 27.9281 198.874C28.1246 198.04 28.5104 197.263 29.0555 196.603C29.6006 195.943 30.2903 195.419 31.0706 195.07C31.851 194.722 32.7011 194.559 33.5546 194.594C34.4081 194.629 35.242 194.862 35.9912 195.273L35.0085 197.976L37.0294 196.028C38.1124 197.023 38.7579 198.408 38.8244 199.88C38.851 200.395 38.8043 200.912 38.6857 201.414C38.409 202.596 37.7561 203.654 36.826 204.43C35.8958 205.206 34.739 205.657 33.5305 205.715Z" fill="#57B894"/>
<path opacity="0.1" d="M31.9454 189.283C30.6616 189.426 29.4134 189.828 28.1256 189.907C26.8378 189.987 25.4232 189.677 24.6069 188.675C24.1711 188.131 23.9492 187.447 23.5806 186.859C23.2287 186.309 22.7469 185.854 22.1779 185.535C21.8424 186.239 21.658 187.005 21.6368 187.785C21.6156 188.564 21.758 189.34 22.0548 190.061C22.3516 190.782 22.7961 191.432 23.3596 191.969C23.9231 192.507 24.5928 192.919 25.3255 193.18C26.0582 193.441 26.8374 193.545 27.6126 193.485C28.3877 193.424 29.1416 193.201 29.8252 192.829C30.5088 192.458 31.1069 191.946 31.5807 191.328C32.0545 190.709 32.3934 189.998 32.5755 189.24C32.3655 189.248 32.1555 189.263 31.9454 189.283Z" fill="black"/>
<path opacity="0.1" d="M33.5307 205.715C32.5716 205.764 31.6163 205.562 30.7582 205.13C29.9002 204.697 29.1688 204.048 28.6356 203.247C28.1025 202.446 27.7858 201.519 27.7166 200.559C27.6474 199.598 27.828 198.635 28.2408 197.766C28.6823 198.065 29.0617 198.447 29.3582 198.89C29.7545 199.491 29.9962 200.182 30.4598 200.735C31.3276 201.756 32.8056 202.09 34.1489 202.027C35.4922 201.963 36.7879 201.585 38.1114 201.462C38.2976 201.462 38.4839 201.434 38.6741 201.426C38.3956 202.604 37.7436 203.658 36.816 204.432C35.8884 205.205 34.7355 205.656 33.5307 205.715Z" fill="black"/>
<path opacity="0.1" d="M20.0301 214.726C19.0799 214.774 18.1333 214.577 17.2813 214.152C16.4292 213.727 15.7004 213.09 15.1648 212.301C14.6292 211.513 14.3048 210.599 14.2228 209.648C14.1408 208.697 14.304 207.741 14.6966 206.872C15.158 207.174 15.5608 207.558 15.8854 208.005C16.3173 208.617 16.5867 209.321 17.0741 209.885C18.0132 210.934 19.5903 211.304 21.0089 211.268C22.4274 211.232 23.7152 210.899 25.0823 210.795C24.7474 211.893 24.0821 212.86 23.1776 213.564C22.2731 214.268 21.1737 214.674 20.0301 214.726Z" fill="black"/>
<path opacity="0.1" d="M22.7845 225.557C22.1829 226.906 21.0717 227.96 19.6955 228.487C18.3192 229.014 16.7907 228.971 15.446 228.367C14.1014 227.764 13.0508 226.649 12.5254 225.269C12 223.888 12.0429 222.355 12.6445 221.006C13.1034 221.306 13.5148 221.673 13.865 222.095C14.396 222.743 14.7446 223.474 15.3549 224.082C16.4921 225.203 18.3267 225.672 19.9632 225.708C20.9058 225.712 21.8478 225.661 22.7845 225.557Z" fill="black"/>
<path d="M8.8877 235.371C8.8877 235.371 13.2781 233.646 14.6016 232.7C15.9251 231.754 21.3378 230.625 21.6786 232.143C22.0194 233.662 28.2761 239.695 23.323 239.719C18.3699 239.743 11.8081 240.534 10.4846 239.719C9.16111 238.904 8.8877 235.371 8.8877 235.371Z" fill="#656380"/>
<path opacity="0.2" d="M23.4102 239.191C18.4531 239.23 11.8952 239.986 10.5757 239.191C9.56925 238.578 9.16904 236.373 9.03431 235.355H8.8877C8.8877 235.355 9.16507 238.904 10.4727 239.727C11.7803 240.55 18.3541 239.759 23.3111 239.727C24.7416 239.727 25.233 239.207 25.2052 238.447C25.019 238.896 24.4761 239.183 23.4102 239.191Z" fill="black"/>
<path d="M323.842 234.568C321.964 231.078 324.096 226.801 326.544 223.689C328.993 220.577 331.985 217.33 331.921 213.355C331.83 207.651 325.799 204.288 320.977 201.264C317.403 199.021 314.105 196.362 311.154 193.342C309.965 192.149 308.828 190.834 308.135 189.288C307.136 187.058 307.164 184.518 307.227 182.081C307.436 173.944 307.832 165.817 308.416 157.7" stroke="#3F3D56" stroke-width="4" stroke-miterlimit="10"/>
<path d="M299.27 157.271C299.338 155.782 299.779 154.334 300.552 153.062C301.325 151.789 302.405 150.732 303.692 149.989L305.674 153.924L305.614 149.154C307.417 148.62 309.342 148.673 311.112 149.308C312.881 149.942 314.404 151.124 315.461 152.684C316.517 154.243 317.052 156.099 316.988 157.983C316.924 159.867 316.264 161.682 315.105 163.166C313.945 164.65 312.346 165.726 310.537 166.238C308.728 166.75 306.804 166.672 305.042 166.016C303.28 165.359 301.772 164.158 300.735 162.585C299.698 161.012 299.187 159.15 299.274 157.267L299.27 157.271Z" fill="#57B894"/>
<path d="M315.073 217.445C316.003 219.258 317.526 220.696 319.387 221.516C321.248 222.337 323.334 222.491 325.294 221.952C327.255 221.413 328.971 220.214 330.155 218.557C331.339 216.899 331.919 214.883 331.797 212.848C331.675 210.812 330.859 208.881 329.486 207.377C328.113 205.874 326.266 204.889 324.256 204.589C322.245 204.289 320.193 204.692 318.443 205.73C316.693 206.768 315.352 208.378 314.645 210.29L320.193 214.809L314.103 213.39C314.099 214.8 314.432 216.19 315.073 217.445Z" fill="#57B894"/>
<path d="M319.452 200.182C321.626 200.283 323.761 199.578 325.45 198.201C327.139 196.825 328.264 194.873 328.611 192.718C328.958 190.563 328.503 188.356 327.332 186.516C326.161 184.676 324.356 183.332 322.262 182.741L322.309 186.406L320.304 182.431H320.28C319.113 182.368 317.944 182.537 316.842 182.929C315.739 183.321 314.725 183.927 313.858 184.714C312.99 185.501 312.287 186.452 311.787 187.512C311.288 188.573 311.003 189.722 310.948 190.894C310.894 192.066 311.071 193.237 311.469 194.34C311.868 195.443 312.48 196.455 313.27 197.32C314.061 198.184 315.014 198.883 316.075 199.377C317.136 199.87 318.284 200.148 319.452 200.194V200.182Z" fill="#57B894"/>
<path d="M297.935 185.842C299.306 185.906 300.673 185.65 301.929 185.094C303.184 184.539 304.294 183.698 305.171 182.639C306.047 181.58 306.666 180.331 306.98 178.99C307.293 177.65 307.292 176.255 306.976 174.915C306.661 173.576 306.04 172.328 305.161 171.27C304.283 170.212 303.172 169.373 301.916 168.82C300.659 168.266 299.292 168.012 297.921 168.079C296.55 168.145 295.214 168.53 294.016 169.203L295.601 173.508L292.38 170.408C291.091 171.593 290.181 173.135 289.763 174.838C289.346 176.541 289.44 178.331 290.034 179.981C290.628 181.63 291.695 183.067 293.101 184.11C294.507 185.153 296.189 185.755 297.935 185.842Z" fill="#57B894"/>
<path opacity="0.1" d="M300.46 159.64C302.508 159.866 304.497 160.506 306.55 160.634C308.602 160.761 310.857 160.268 312.153 158.646C312.854 157.784 313.203 156.695 313.793 155.753C314.355 154.879 315.121 154.155 316.024 153.646C316.595 154.773 316.92 156.009 316.977 157.272C317.034 158.535 316.822 159.795 316.355 160.97C315.888 162.144 315.176 163.204 314.268 164.081C313.36 164.958 312.276 165.63 311.089 166.053C309.901 166.476 308.637 166.64 307.381 166.535C306.126 166.429 304.907 166.056 303.806 165.44C302.705 164.825 301.748 163.981 300.998 162.965C300.248 161.949 299.723 160.784 299.457 159.549C299.794 159.58 300.127 159.608 300.46 159.64Z" fill="black"/>
<path opacity="0.1" d="M297.935 185.841C299.467 185.915 300.993 185.588 302.362 184.894C303.731 184.2 304.897 183.161 305.746 181.88C306.596 180.599 307.1 179.118 307.208 177.583C307.317 176.048 307.027 174.511 306.367 173.122C305.662 173.598 305.057 174.207 304.584 174.915C303.954 175.869 303.57 176.974 302.829 177.852C301.45 179.478 299.088 180.01 296.948 179.915C294.809 179.82 292.748 179.207 290.608 179.009C290.311 178.985 290.014 178.965 289.713 178.957C290.147 180.847 291.186 182.543 292.67 183.786C294.155 185.028 296.004 185.75 297.935 185.841Z" fill="black"/>
<path opacity="0.1" d="M319.452 200.183C320.965 200.253 322.47 199.935 323.825 199.256C325.179 198.578 326.338 197.563 327.191 196.308C328.044 195.053 328.562 193.6 328.696 192.087C328.829 190.574 328.575 189.052 327.956 187.666C327.225 188.147 326.589 188.761 326.082 189.475C325.392 190.448 324.964 191.569 324.156 192.471C322.662 194.141 320.15 194.729 317.883 194.673C315.688 194.626 313.576 194.085 311.393 193.918C311.929 195.668 312.992 197.209 314.434 198.33C315.877 199.451 317.629 200.098 319.452 200.183Z" fill="black"/>
<path opacity="0.1" d="M315.073 217.445C316.109 219.471 317.879 221.021 320.021 221.777C322.162 222.532 324.51 222.435 326.582 221.505C328.654 220.575 330.291 218.883 331.156 216.778C332.021 214.673 332.049 212.315 331.232 210.191C330.501 210.671 329.846 211.258 329.287 211.932C328.443 212.961 327.888 214.13 326.909 215.088C325.098 216.873 322.174 217.608 319.571 217.675C318.068 217.687 316.567 217.61 315.073 217.445Z" fill="black"/>
<path d="M337.207 232.14C337.207 232.14 330.214 230.335 328.094 228.829C325.974 227.322 317.332 225.526 316.809 227.938C316.285 230.351 306.296 239.95 314.193 240.014C322.09 240.077 332.544 240.371 334.648 239.083C336.752 237.796 337.207 232.14 337.207 232.14Z" fill="#656380"/>
<path opacity="0.2" d="M314.067 239.175C321.964 239.238 332.417 239.528 334.521 238.245C336.106 237.263 336.76 233.753 336.974 232.131H337.208C337.208 232.131 336.764 237.791 334.66 239.075C332.556 240.359 322.103 240.069 314.206 240.005C311.927 240.005 311.139 239.175 311.182 237.97C311.499 238.706 312.367 239.159 314.067 239.175Z" fill="black"/>
<path opacity="0.1" d="M96.443 4.96582H34.7471C39.5536 29.9392 39.3396 55.5287 34.7471 81.6509C57.3847 79.0275 78.382 78.4711 96.443 81.6509C101 56.2935 101 30.3232 96.443 4.96582Z" fill="black"/>
<path d="M156.526 38.1272C150.503 38.5565 144.853 42.7777 144.441 48.2509C144.215 51.228 145.455 54.2648 144.952 57.2021C144.29 61.0894 140.74 63.9592 137.027 65.9108C133.314 67.8624 129.209 69.3331 126.122 72.02C123.035 74.707 121.228 79.1746 123.408 82.6763C124.244 84.0198 125.563 85.0612 126.633 86.2536C129.542 89.5249 130.524 94.0998 129.153 97.9831C127.905 101.501 124.862 104.601 125.191 108.337C125.508 111.915 128.991 114.816 132.763 115.949C136.535 117.082 140.569 116.816 144.472 116.533C148.978 116.211 154.03 115.623 156.649 112.348C159.462 108.83 158.206 103.762 159.704 99.6048C162.692 91.3214 175.051 89.3062 179.988 81.8933C182.365 78.316 182.726 73.908 182.69 69.663C182.587 56.2203 175.399 36.7877 156.526 38.1272Z" fill="#3F3D56"/>
<path d="M155.527 67.1193C155.527 67.1193 157.509 73.4789 150.772 77.0562C144.036 80.6335 156.32 89.3779 156.32 89.3779L165.83 92.9552L176.528 88.1855L174.547 71.889C174.547 71.889 165.433 75.0688 165.433 63.542L155.527 67.1193Z" fill="#A0616A"/>
<path opacity="0.1" d="M155.527 67.1193C155.527 67.1193 157.509 73.4789 150.772 77.0562C144.036 80.6335 156.32 89.3779 156.32 89.3779L165.83 92.9552L176.528 88.1855L174.547 71.889C174.547 71.889 165.433 75.0688 165.433 63.542L155.527 67.1193Z" fill="black"/>
<path d="M170.189 210.21C170.189 210.21 168.208 223.725 169.396 225.315C170.585 226.904 176.133 226.109 176.133 226.109C176.133 226.109 177.321 212.595 177.718 211.005C178.114 209.416 170.189 210.21 170.189 210.21Z" fill="#A0616A"/>
<path d="M176.334 223.852C176.334 223.852 170.585 222.93 170.585 224.52C170.585 224.52 168.207 225.712 168.207 224.52C168.207 223.327 166.028 237.04 167.613 239.028C169.198 241.015 175.252 238.837 176.727 239.823C177.915 240.617 186.831 240.419 187.227 238.431C187.623 236.444 187.623 234.854 184.057 232.867C180.491 230.879 176.334 223.852 176.334 223.852Z" fill="#3F3D56"/>
<path opacity="0.1" d="M176.334 223.852C176.334 223.852 170.585 222.93 170.585 224.52C170.585 224.52 168.207 225.712 168.207 224.52C168.207 223.327 166.028 237.04 167.613 239.028C169.198 241.015 175.252 238.837 176.727 239.823C177.915 240.617 186.831 240.419 187.227 238.431C187.623 236.444 187.623 234.854 184.057 232.867C180.491 230.879 176.334 223.852 176.334 223.852Z" fill="black"/>
<path d="M156.32 209.018C156.32 209.018 159.094 220.943 157.905 226.507L166.227 224.122C166.227 224.122 161.075 210.211 161.472 209.018C161.868 207.826 156.32 209.018 156.32 209.018Z" fill="#A0616A"/>
<path d="M159.49 224.122C159.49 224.122 164.641 221.34 166.226 224.122C167.811 226.905 172.566 238.034 169.792 239.226C167.019 240.419 158.301 240.021 157.905 235.649C157.509 231.277 157.112 224.917 157.112 224.917C157.112 224.917 159.094 225.712 159.49 224.122Z" fill="#3F3D56"/>
<path d="M145.226 122.368C145.226 122.368 137.697 137.87 147.207 162.513C147.207 162.513 151.962 176.822 149.584 185.169C147.207 193.516 154.736 212.993 154.736 212.993L163.849 211.403C163.849 211.403 160.283 185.169 161.472 182.387C162.661 179.605 161.868 149.794 161.868 149.794C161.868 149.794 172.567 170.065 170.982 186.362C169.397 202.658 169.001 211.8 169.001 211.8L179.303 211.403C180.077 205.919 181.135 200.48 182.473 195.106C184.454 187.554 185.643 151.781 180.492 141.05L179.303 127.933L145.226 122.368Z" fill="#3F3D56"/>
<path d="M157.905 70.6926C163.158 70.6926 167.415 66.4217 167.415 61.1532C167.415 55.8847 163.158 51.6138 157.905 51.6138C152.653 51.6138 148.396 55.8847 148.396 61.1532C148.396 66.4217 152.653 70.6926 157.905 70.6926Z" fill="#A0616A"/>
<path d="M158.467 61.2987C164.545 60.5177 169.134 57.2369 168.716 53.9708C168.299 50.7047 163.034 48.6901 156.956 49.4711C150.878 50.2521 146.289 53.533 146.706 56.7991C147.124 60.0652 152.389 62.0798 158.467 61.2987Z" fill="#3F3D56"/>
<path opacity="0.1" d="M168.679 53.8037C168.156 56.7093 163.924 59.4161 158.463 60.1156C152.496 60.8828 147.313 58.951 146.734 55.7911C146.67 56.1265 146.66 56.4699 146.703 56.8086C147.099 60.0719 152.385 62.0871 158.463 61.3081C164.542 60.529 169.13 57.2459 168.71 53.9786C168.702 53.919 168.69 53.8792 168.679 53.8037Z" fill="black"/>
<path d="M144.734 78.6225C143.458 78.0938 141.992 78.9126 141.136 79.9977C140.28 81.0828 139.789 82.4223 138.945 83.5154C137.994 84.7396 136.651 85.5823 135.398 86.5004C133.763 87.7024 132.254 89.0674 130.893 90.5746C130.172 91.3695 129.471 92.236 128.516 92.7686C126.998 93.6232 125.08 93.4722 123.479 92.7686C121.878 92.0651 120.535 90.9283 119.224 89.7836C115.325 86.3732 111.478 82.8847 107.685 79.3181C104.986 76.7901 101.099 75.5182 97.4299 75.1128C96.5344 75.0134 95.524 75.0094 94.8583 75.6176C94.4195 76.0585 94.173 76.656 94.1728 77.279C94.0896 79.3499 95.8449 81.0749 97.739 81.9136C99.6331 82.7522 101.733 83.0066 103.639 83.8016C105.45 84.5656 107.036 85.7805 108.248 87.3312C109.579 89.0324 111.192 90.4235 112.46 92.1684C113.038 92.9634 113.549 93.8021 114.104 94.6129C115.45 96.4976 116.917 98.2927 118.495 99.9868C120.329 102.034 122.572 104.252 125.306 104.045C126.447 103.962 127.501 103.449 128.528 102.944C131.733 101.354 134.967 99.7642 137.776 97.5582C139.42 96.2664 140.906 94.7759 142.63 93.5835C144.278 92.4507 146.161 91.5961 147.496 90.0976C148.255 89.23 148.797 88.1932 149.077 87.0733C149.357 85.9535 149.366 84.7828 149.105 83.6585C148.812 82.5383 148.265 81.501 147.507 80.6275C146.749 79.754 145.8 79.0679 144.734 78.6225Z" fill="#A0616A"/>
<path d="M180.983 74.6474C182.259 74.1187 183.725 74.9375 184.581 76.0226C185.437 77.1078 185.928 78.4473 186.772 79.5403C187.723 80.7645 189.066 81.6072 190.319 82.5254C191.954 83.7273 193.463 85.0923 194.824 86.5995C195.545 87.3944 196.247 88.2609 197.201 88.7936C198.719 89.6481 200.637 89.4971 202.238 88.7936C203.839 88.09 205.182 86.9532 206.494 85.8085C210.403 82.3849 214.255 78.8964 218.048 75.343C220.747 72.815 224.634 71.5431 228.303 71.1377C229.199 71.0383 230.209 71.0343 230.875 71.6425C231.313 72.0834 231.56 72.6809 231.56 73.3039C231.643 75.3748 229.888 77.0998 227.994 77.9385C226.1 78.7772 224 79.0315 222.094 79.8265C220.283 80.5906 218.697 81.8054 217.485 83.3561C216.154 85.0573 214.541 86.4484 213.273 88.1934C212.695 88.9883 212.184 89.827 211.629 90.6378C210.278 92.523 208.806 94.3181 207.223 96.0117C205.388 98.0587 203.145 100.277 200.411 100.07C199.27 99.9865 198.216 99.4737 197.19 98.9689C193.984 97.379 190.751 95.7891 187.941 93.5832C186.297 92.2914 184.811 90.8008 183.087 89.6084C181.439 88.4756 179.557 87.621 178.221 86.1225C177.462 85.2549 176.92 84.2182 176.64 83.0983C176.36 81.9784 176.351 80.8077 176.612 79.6834C176.905 78.5632 177.452 77.5259 178.21 76.6524C178.968 75.779 179.917 75.0928 180.983 74.6474Z" fill="#A0616A"/>
<path d="M165.037 86.5959C162.862 85.1541 160.614 83.8274 158.301 82.6212C155.131 81.0312 151.565 75.8641 151.565 75.8641C151.565 75.8641 140.47 77.8514 140.47 80.6338C140.47 83.4161 145.225 93.353 146.81 94.148C148.395 94.9429 150.772 94.9429 150.376 96.5328C149.98 98.1227 151.565 101.303 151.565 101.303C151.565 101.303 154.735 106.072 152.753 107.265C150.772 108.457 142.055 122.766 143.243 124.754C144.432 126.741 155.527 128.728 161.075 133.498C166.622 138.268 182.076 133.101 182.076 131.908C182.076 130.716 180.491 128.331 180.491 128.331C180.491 128.331 180.095 108.457 182.076 102.097C184.057 95.7379 182.472 86.5959 181.68 85.4035C181.68 85.4035 186.435 77.0565 184.453 74.6716C182.472 72.2868 172.962 71.0943 172.17 71.4918L171.421 75.8203C170.894 78.8429 169.973 81.7829 168.683 84.5648C168.286 85.4273 167.942 86.1984 167.811 86.588C167.415 87.7883 165.037 86.5959 165.037 86.5959Z" fill="#447ACC"/>
<path d="M223.493 76.9331C241.558 73.7533 262.551 74.3098 285.189 76.9331C280.596 50.811 280.386 25.2215 285.189 0.248047H223.493C218.936 25.6054 218.936 51.5758 223.493 76.9331Z" fill="#F2F2F2"/>
<path d="M271.629 13.146H233.589V18.3132H271.629V13.146Z" fill="#447ACC"/>
<path d="M271.629 23.8779H233.589V29.0451H271.629V23.8779Z" fill="#447ACC"/>
<path d="M99.2164 78.4712C81.1554 75.2914 60.1582 75.8478 37.5205 78.4712C42.113 52.3491 42.327 26.7596 37.5205 1.78613H99.2164C103.773 27.1435 103.773 53.1138 99.2164 78.4712Z" fill="#F2F2F2"/>
<path d="M88.9578 15.9282H50.918V21.0954H88.9578V15.9282Z" fill="#447ACC"/>
<path d="M299.167 239.421H38.832V240.216H299.167V239.421Z" fill="#3F3D56"/>
<path d="M338 239.421H306.3V240.216H338V239.421Z" fill="#3F3D56"/>
<path d="M31.6999 239.421H0V240.216H31.6999V239.421Z" fill="#3F3D56"/>
<path d="M88.8191 129.769C88.7769 128.835 88.5007 127.926 88.0159 127.127C87.5311 126.329 86.8534 125.665 86.0453 125.198L84.8011 127.667L84.8368 124.678C84.2434 124.501 83.6245 124.425 83.0061 124.455C81.9116 124.51 80.8577 124.888 79.9774 125.542C79.097 126.197 78.4297 127.099 78.0595 128.133C77.6893 129.168 77.6329 130.289 77.8974 131.356C78.1618 132.423 78.7353 133.387 79.5455 134.127C80.3557 134.867 81.3662 135.35 82.4497 135.515C83.5331 135.679 84.6409 135.519 85.6334 135.052C86.6258 134.586 87.4583 133.836 88.026 132.896C88.5937 131.955 88.871 130.868 88.823 129.769H88.8191Z" fill="#F2F2F2"/>
<path opacity="0.03" d="M88.0705 131.252C86.7866 131.395 85.5384 131.797 84.2506 131.876C82.9628 131.956 81.5482 131.646 80.7319 130.644C80.2961 130.099 80.0742 129.416 79.7056 128.827C79.3537 128.277 78.8719 127.823 78.3029 127.504C77.9674 128.207 77.783 128.974 77.7618 129.754C77.7406 130.533 77.883 131.309 78.1798 132.029C78.4766 132.75 78.9212 133.401 79.4846 133.938C80.0481 134.475 80.7178 134.888 81.4505 135.149C82.1832 135.41 82.9624 135.514 83.7376 135.453C84.5127 135.393 85.2666 135.169 85.9502 134.798C86.6338 134.426 87.2319 133.915 87.7057 133.296C88.1795 132.678 88.5184 131.967 88.7005 131.208C88.4905 131.216 88.2805 131.232 88.0705 131.252Z" fill="black"/>
<path d="M224.538 183.727C223.68 183.359 222.743 183.214 221.814 183.306C220.885 183.397 219.995 183.723 219.224 184.251L220.897 186.453L218.23 185.114C217.813 185.572 217.477 186.098 217.235 186.668C216.806 187.68 216.685 188.796 216.888 189.876C217.09 190.957 217.607 191.953 218.374 192.739C219.14 193.525 220.122 194.065 221.194 194.292C222.266 194.519 223.382 194.423 224.399 194.014C225.417 193.606 226.291 192.905 226.912 191.999C227.532 191.093 227.872 190.022 227.886 188.923C227.901 187.824 227.591 186.745 226.995 185.822C226.399 184.899 225.544 184.174 224.538 183.739V183.727Z" fill="#F2F2F2"/>
<path opacity="0.03" d="M225.545 185.047C225.109 186.267 224.927 187.567 224.435 188.767C223.944 189.967 223.048 191.104 221.792 191.402C221.115 191.561 220.405 191.462 219.716 191.537C219.069 191.615 218.451 191.851 217.917 192.225C218.497 192.996 219.269 193.6 220.156 193.978C221.406 194.567 222.83 194.668 224.149 194.26C225.469 193.852 226.59 192.965 227.292 191.773C227.995 190.58 228.229 189.167 227.948 187.811C227.667 186.455 226.892 185.252 225.775 184.438C225.691 184.649 225.616 184.852 225.545 185.047Z" fill="black"/>
<path d="M204.844 11.0794C204.03 10.6225 203.114 10.3789 202.181 10.3713C201.248 10.3636 200.328 10.5922 199.507 11.0357L200.945 13.4007L198.429 11.8108C197.554 12.5976 196.951 13.6429 196.706 14.7957C196.462 15.9486 196.589 17.1496 197.068 18.2256C197.548 19.3016 198.356 20.197 199.376 20.7827C200.395 21.3684 201.574 21.6143 202.742 21.4847C203.91 21.3552 205.007 20.857 205.874 20.062C206.742 19.2669 207.335 18.2161 207.569 17.061C207.803 15.9059 207.665 14.7062 207.175 13.6347C206.686 12.5632 205.869 11.6754 204.844 11.0993V11.0794Z" fill="#F2F2F2"/>
<path opacity="0.03" d="M205.709 12.5018C205.154 13.6664 204.833 14.9423 204.223 16.0791C203.613 17.2158 202.606 18.2612 201.326 18.4281C200.637 18.5156 199.94 18.3447 199.246 18.3487C198.594 18.358 197.954 18.5287 197.384 18.8455C197.881 19.677 198.587 20.3625 199.432 20.8329C200.612 21.5263 202.006 21.758 203.346 21.4835C204.686 21.209 205.878 20.4477 206.692 19.3458C207.507 18.2438 207.887 16.8789 207.76 15.513C207.632 14.1471 207.006 12.8766 206.002 11.9453C205.899 12.1441 205.8 12.311 205.709 12.5018Z" fill="black"/>
</g>
<defs>
<clipPath id="clip0">
<rect width="338" height="240" fill="white" transform="translate(0 0.255859)"/>
</clipPath>
</defs>
</svg>
