<svg width="366" height="201" viewBox="0 0 366 201" fill="none" xmlns="http://www.w3.org/2000/svg">
<g clip-path="url(#clip0)">
<path d="M207.588 24.5384L204.758 26.3325L206.477 23.2076C205.992 22.8149 205.389 22.596 204.764 22.5857H204.721C204.524 22.5885 204.327 22.5739 204.133 22.5422L203.172 23.1641L203.586 22.4147C202.906 22.178 202.318 21.733 201.906 21.143L200.19 22.2313L201.275 20.2599C200.818 19.6706 200.236 19.1902 199.571 18.8536C198.906 18.5169 198.174 18.3324 197.429 18.3135C195.641 18.3135 194.052 19.3769 193.025 21.0311C192.72 21.5238 192.29 21.9271 191.779 22.2001C191.268 22.4731 190.694 22.6062 190.115 22.5857H190.018C188.047 22.5857 186.449 24.8214 186.449 27.5607C186.449 30.3 188.047 32.5512 190.018 32.5512C190.452 32.5497 190.879 32.443 191.262 32.2403C191.933 31.9143 192.667 31.738 193.413 31.7235C194.158 31.709 194.898 31.8567 195.581 32.1563C196.159 32.4136 196.785 32.5465 197.418 32.5465C198.05 32.5465 198.676 32.4136 199.254 32.1563C199.932 31.8627 200.665 31.7182 201.404 31.7327C202.143 31.7472 202.87 31.9203 203.536 32.2403C203.919 32.4431 204.346 32.5498 204.78 32.5512C206.751 32.5512 208.349 30.3187 208.349 27.5607C208.352 26.5054 208.09 25.4662 207.588 24.5384Z" fill="#F2F2F2"/>
<path opacity="0.03" d="M202.255 31.8425C201.225 31.6481 200.161 31.7639 199.198 32.1752C198.62 32.4324 197.994 32.5654 197.362 32.5654C196.729 32.5654 196.103 32.4324 195.525 32.1752C194.842 31.8755 194.101 31.7278 193.355 31.7423C192.609 31.7568 191.875 31.9331 191.203 32.2591C190.82 32.4627 190.393 32.5694 189.959 32.5701C188.205 32.5701 186.75 30.8071 186.445 28.4813C186.794 28.2287 187.092 27.9121 187.322 27.5485C188.349 25.8943 189.941 24.834 191.726 24.834C193.51 24.834 195.081 25.8818 196.107 27.5174C196.413 28.0121 196.842 28.4192 197.352 28.6993C197.862 28.9793 198.436 29.1227 199.018 29.1156H199.064C200.46 29.0938 201.658 30.2132 202.255 31.8425Z" fill="black"/>
<path d="M312.381 12.4119L309.551 14.206L311.271 11.0811C310.785 10.6885 310.182 10.4696 309.558 10.4593H309.514C309.317 10.462 309.121 10.4475 308.926 10.4157L307.966 11.0376L308.379 10.2883C307.7 10.0515 307.112 9.6065 306.7 9.01652L304.983 10.1048L306.069 8.13347C305.612 7.54414 305.03 7.06376 304.365 6.72712C303.699 6.39047 302.967 6.20598 302.222 6.18701C300.434 6.18701 298.845 7.25041 297.819 8.90459C297.514 9.39729 297.084 9.80059 296.573 10.0736C296.062 10.3466 295.487 10.4797 294.908 10.4593H294.812C292.84 10.4593 291.242 12.6949 291.242 15.4342C291.242 18.1736 292.84 20.4248 294.812 20.4248C295.246 20.4232 295.672 20.3165 296.056 20.1138C296.727 19.7879 297.46 19.6115 298.206 19.597C298.952 19.5825 299.692 19.7302 300.375 20.0299C300.953 20.2871 301.579 20.4201 302.211 20.4201C302.844 20.4201 303.469 20.2871 304.047 20.0299C304.725 19.7362 305.459 19.5918 306.198 19.6062C306.936 19.6207 307.663 19.7938 308.329 20.1138C308.713 20.3167 309.14 20.4234 309.573 20.4248C311.545 20.4248 313.143 18.1922 313.143 15.4342C313.146 14.3789 312.884 13.3398 312.381 12.4119Z" fill="#F2F2F2"/>
<path opacity="0.03" d="M307.048 19.716C306.019 19.5216 304.955 19.6374 303.991 20.0487C303.413 20.306 302.788 20.4389 302.155 20.4389C301.523 20.4389 300.897 20.306 300.319 20.0487C299.635 19.749 298.895 19.6013 298.149 19.6158C297.402 19.6303 296.668 19.8066 295.997 20.1327C295.614 20.3362 295.187 20.443 294.753 20.4436C292.999 20.4436 291.544 18.6806 291.239 16.3548C291.588 16.1022 291.885 15.7857 292.116 15.422C293.142 13.7678 294.734 12.7075 296.519 12.7075C298.304 12.7075 299.874 13.7554 300.901 15.3909C301.207 15.8856 301.636 16.2928 302.146 16.5728C302.656 16.8529 303.229 16.9963 303.811 16.9891H303.858C305.254 16.9673 306.451 18.0867 307.048 19.716Z" fill="black"/>
<path d="M242.499 41.7642L247.058 44.6621L244.296 39.6405C245.079 39.0173 246.048 38.6727 247.048 38.6611H247.12C247.432 38.6657 247.744 38.6428 248.053 38.5926L249.592 39.569L248.924 38.3688C250.014 37.9854 250.957 37.2698 251.62 36.3228L254.378 38.0703L252.655 34.9018C254.269 32.9678 256.443 31.7925 258.834 31.7925C261.704 31.7925 264.257 33.4964 265.908 36.1456C266.395 36.9394 267.082 37.5907 267.901 38.0335C268.72 38.4763 269.642 38.6949 270.573 38.6673H270.728C273.894 38.6673 276.459 42.2555 276.459 46.6832C276.459 51.1109 273.894 54.7022 270.728 54.7022C270.031 54.6995 269.345 54.5277 268.729 54.2016C267.651 53.6781 266.472 53.395 265.274 53.3719C264.077 53.3488 262.888 53.5863 261.791 54.0679C260.862 54.4833 259.855 54.6981 258.837 54.6981C257.819 54.6981 256.812 54.4833 255.883 54.0679C254.794 53.5962 253.616 53.3639 252.429 53.387C251.242 53.4101 250.074 53.6879 249.004 54.2016C248.394 54.5191 247.717 54.6865 247.03 54.6898C243.861 54.6898 241.296 51.1016 241.296 46.6708C241.279 44.9602 241.693 43.2728 242.499 41.7642Z" fill="#F2F2F2"/>
<path opacity="0.03" d="M251.066 53.5087C252.721 53.197 254.43 53.3831 255.979 54.0435C256.909 54.4589 257.915 54.6737 258.933 54.6737C259.951 54.6737 260.958 54.4589 261.887 54.0435C262.985 53.5618 264.174 53.3243 265.372 53.3474C266.571 53.3705 267.75 53.6536 268.828 54.1772C269.443 54.5033 270.128 54.6751 270.824 54.6778C273.639 54.6778 275.977 51.8452 276.465 48.1078C275.904 47.6968 275.427 47.1817 275.06 46.5904C273.409 43.935 270.856 42.2373 267.985 42.2373C265.115 42.2373 262.596 43.9226 260.945 46.5531C260.454 47.3456 259.767 47.998 258.949 48.4473C258.132 48.8967 257.213 49.1278 256.281 49.1183H256.209C253.952 49.0965 252.011 50.8938 251.066 53.5087Z" fill="black"/>
<path d="M200.864 200.531C292.066 200.531 366 197.608 366 194.001C366 190.395 292.066 187.472 200.864 187.472C109.661 187.472 35.7273 190.395 35.7273 194.001C35.7273 197.608 109.661 200.531 200.864 200.531Z" fill="#3F3D56"/>
<path d="M307.133 8.98145H92.0501C88.9919 8.98145 86.5128 12.627 86.5128 17.124V182.672C86.5128 187.169 88.9919 190.814 92.0501 190.814H307.133C310.191 190.814 312.67 187.169 312.67 182.672V17.124C312.67 12.627 310.191 8.98145 307.133 8.98145Z" fill="#F2F2F2"/>
<path d="M312.67 15.3308V18.9314H86.5128V15.3308C86.5128 13.6468 87.0962 12.0318 88.1346 10.8411C89.1731 9.65039 90.5815 8.98145 92.0501 8.98145H307.133C308.602 8.98145 310.01 9.65039 311.048 10.8411C312.087 12.0318 312.67 13.6468 312.67 15.3308Z" fill="#3F3D56"/>
<path d="M94.6896 15.9773C95.7201 15.9773 96.5554 15.1421 96.5554 14.1117C96.5554 13.0814 95.7201 12.2461 94.6896 12.2461C93.6592 12.2461 92.8239 13.0814 92.8239 14.1117C92.8239 15.1421 93.6592 15.9773 94.6896 15.9773Z" fill="#447ACC"/>
<path d="M99.354 15.9773C100.384 15.9773 101.22 15.1421 101.22 14.1117C101.22 13.0814 100.384 12.2461 99.354 12.2461C98.3236 12.2461 97.4883 13.0814 97.4883 14.1117C97.4883 15.1421 98.3236 15.9773 99.354 15.9773Z" fill="#447ACC"/>
<path d="M104.018 15.9773C105.049 15.9773 105.884 15.1421 105.884 14.1117C105.884 13.0814 105.049 12.2461 104.018 12.2461C102.988 12.2461 102.153 13.0814 102.153 14.1117C102.153 15.1421 102.988 15.9773 104.018 15.9773Z" fill="#447ACC"/>
<path d="M154.612 75.457H130.538C128.942 75.457 127.649 76.7503 127.649 78.3456V96.8214C127.649 98.4167 128.942 99.71 130.538 99.71H154.612C156.208 99.71 157.501 98.4167 157.501 96.8214V78.3456C157.501 76.7503 156.208 75.457 154.612 75.457Z" fill="#447ACC"/>
<path d="M189.44 75.457H165.365C163.77 75.457 162.477 76.7503 162.477 78.3456V96.8214C162.477 98.4167 163.77 99.71 165.365 99.71H189.44C191.035 99.71 192.329 98.4167 192.329 96.8214V78.3456C192.329 76.7503 191.035 75.457 189.44 75.457Z" fill="white"/>
<path d="M224.268 75.457H200.193C198.598 75.457 197.304 76.7503 197.304 78.3456V96.8214C197.304 98.4167 198.598 99.71 200.193 99.71H224.268C225.863 99.71 227.156 98.4167 227.156 96.8214V78.3456C227.156 76.7503 225.863 75.457 224.268 75.457Z" fill="white"/>
<path d="M259.095 75.457H235.021C233.425 75.457 232.132 76.7503 232.132 78.3456V96.8214C232.132 98.4167 233.425 99.71 235.021 99.71H259.095C260.691 99.71 261.984 98.4167 261.984 96.8214V78.3456C261.984 76.7503 260.691 75.457 259.095 75.457Z" fill="#447ACC"/>
<path d="M154.612 116.19H130.538C128.942 116.19 127.649 117.483 127.649 119.079V137.554C127.649 139.15 128.942 140.443 130.538 140.443H154.612C156.208 140.443 157.501 139.15 157.501 137.554V119.079C157.501 117.483 156.208 116.19 154.612 116.19Z" fill="white"/>
<path d="M189.44 116.19H165.365C163.77 116.19 162.477 117.483 162.477 119.079V137.554C162.477 139.15 163.77 140.443 165.365 140.443H189.44C191.035 140.443 192.329 139.15 192.329 137.554V119.079C192.329 117.483 191.035 116.19 189.44 116.19Z" fill="#447ACC"/>
<path d="M224.268 116.19H200.193C198.598 116.19 197.304 117.483 197.304 119.079V137.554C197.304 139.15 198.598 140.443 200.193 140.443H224.268C225.863 140.443 227.156 139.15 227.156 137.554V119.079C227.156 117.483 225.863 116.19 224.268 116.19Z" fill="white"/>
<path d="M259.095 116.19H235.021C233.425 116.19 232.132 117.483 232.132 119.079V137.554C232.132 139.15 233.425 140.443 235.021 140.443H259.095C260.691 140.443 261.984 139.15 261.984 137.554V119.079C261.984 117.483 260.691 116.19 259.095 116.19Z" fill="white"/>
<path d="M154.612 156.922H130.538C128.942 156.922 127.649 158.216 127.649 159.811V178.287C127.649 179.882 128.942 181.175 130.538 181.175H154.612C156.208 181.175 157.501 179.882 157.501 178.287V159.811C157.501 158.216 156.208 156.922 154.612 156.922Z" fill="white"/>
<path d="M189.44 156.922H165.365C163.77 156.922 162.477 158.216 162.477 159.811V178.287C162.477 179.882 163.77 181.175 165.365 181.175H189.44C191.035 181.175 192.329 179.882 192.329 178.287V159.811C192.329 158.216 191.035 156.922 189.44 156.922Z" fill="white"/>
<path opacity="0.3" d="M224.268 156.922H200.193C198.598 156.922 197.304 158.216 197.304 159.811V178.287C197.304 179.882 198.598 181.175 200.193 181.175H224.268C225.863 181.175 227.156 179.882 227.156 178.287V159.811C227.156 158.216 225.863 156.922 224.268 156.922Z" fill="#447ACC"/>
<path d="M259.095 156.922H235.021C233.425 156.922 232.132 158.216 232.132 159.811V178.287C232.132 179.882 233.425 181.175 235.021 181.175H259.095C260.691 181.175 261.984 179.882 261.984 178.287V159.811C261.984 158.216 260.691 156.922 259.095 156.922Z" fill="white"/>
<path d="M164.411 70.9924L162.837 69.4098C162.76 69.3315 162.668 69.2693 162.566 69.2269C162.464 69.1844 162.355 69.1626 162.245 69.1626C162.135 69.1626 162.026 69.1844 161.924 69.2269C161.822 69.2693 161.73 69.3315 161.653 69.4098L151.776 79.2011L147.6 74.9911C147.523 74.9134 147.432 74.8518 147.331 74.8097C147.23 74.7676 147.122 74.746 147.013 74.746C146.903 74.746 146.795 74.7676 146.694 74.8097C146.593 74.8518 146.502 74.9134 146.425 74.9911L144.836 76.5613C144.68 76.7196 144.592 76.9329 144.592 77.1552C144.592 77.3775 144.68 77.5908 144.836 77.7491L151.176 84.1388C151.335 84.2949 151.548 84.3824 151.77 84.3824C151.993 84.3824 152.206 84.2949 152.364 84.1388L164.411 72.1802C164.49 72.1027 164.552 72.0102 164.595 71.9083C164.638 71.8063 164.66 71.6969 164.66 71.5863C164.66 71.4758 164.638 71.3663 164.595 71.2644C164.552 71.1624 164.49 71.07 164.411 70.9924Z" fill="#3ACC6C"/>
<path d="M270.137 70.9924L268.564 69.4098C268.486 69.3315 268.394 69.2693 268.292 69.2269C268.191 69.1844 268.082 69.1626 267.971 69.1626C267.861 69.1626 267.752 69.1844 267.65 69.2269C267.549 69.2693 267.456 69.3315 267.379 69.4098L257.503 79.2011L253.327 74.9911C253.25 74.9134 253.158 74.8518 253.057 74.8097C252.957 74.7676 252.848 74.746 252.739 74.746C252.63 74.746 252.521 74.7676 252.421 74.8097C252.32 74.8518 252.228 74.9134 252.151 74.9911L250.562 76.5613C250.406 76.7196 250.319 76.9329 250.319 77.1552C250.319 77.3775 250.406 77.5908 250.562 77.7491L256.903 84.1388C257.061 84.2949 257.274 84.3824 257.497 84.3824C257.719 84.3824 257.932 84.2949 258.091 84.1388L270.137 72.1802C270.216 72.1027 270.279 72.0102 270.321 71.9083C270.364 71.8063 270.386 71.6969 270.386 71.5863C270.386 71.4758 270.364 71.3663 270.321 71.2644C270.279 71.1624 270.216 71.07 270.137 70.9924Z" fill="#3ACC6C"/>
<path d="M154.612 33.4814H130.538C128.942 33.4814 127.649 34.7747 127.649 36.37V54.8458C127.649 56.4412 128.942 57.7344 130.538 57.7344H154.612C156.208 57.7344 157.501 56.4412 157.501 54.8458V36.37C157.501 34.7747 156.208 33.4814 154.612 33.4814Z" fill="#447ACC"/>
<path d="M189.44 33.4814H165.365C163.77 33.4814 162.477 34.7747 162.477 36.37V54.8458C162.477 56.4412 163.77 57.7344 165.365 57.7344H189.44C191.035 57.7344 192.329 56.4412 192.329 54.8458V36.37C192.329 34.7747 191.035 33.4814 189.44 33.4814Z" fill="white"/>
<path d="M224.268 33.4814H200.193C198.598 33.4814 197.304 34.7747 197.304 36.37V54.8458C197.304 56.4412 198.598 57.7344 200.193 57.7344H224.268C225.863 57.7344 227.156 56.4412 227.156 54.8458V36.37C227.156 34.7747 225.863 33.4814 224.268 33.4814Z" fill="white"/>
<path d="M259.095 33.4814H235.021C233.425 33.4814 232.132 34.7747 232.132 36.37V54.8458C232.132 56.4412 233.425 57.7344 235.021 57.7344H259.095C260.691 57.7344 261.984 56.4412 261.984 54.8458V36.37C261.984 34.7747 260.691 33.4814 259.095 33.4814Z" fill="#447ACC"/>
<path d="M164.411 29.0169L162.837 27.4342C162.76 27.3559 162.668 27.2937 162.566 27.2513C162.464 27.2089 162.355 27.187 162.245 27.187C162.135 27.187 162.026 27.2089 161.924 27.2513C161.822 27.2937 161.73 27.3559 161.653 27.4342L151.776 37.2256L147.6 33.0155C147.523 32.9378 147.432 32.8762 147.331 32.8341C147.23 32.7921 147.122 32.7704 147.013 32.7704C146.903 32.7704 146.795 32.7921 146.694 32.8341C146.593 32.8762 146.502 32.9378 146.425 33.0155L144.836 34.5857C144.68 34.744 144.592 34.9573 144.592 35.1796C144.592 35.4019 144.68 35.6152 144.836 35.7735L151.176 42.1632C151.335 42.3193 151.548 42.4068 151.77 42.4068C151.993 42.4068 152.206 42.3193 152.364 42.1632L164.411 30.2046C164.49 30.1271 164.552 30.0346 164.595 29.9327C164.638 29.8307 164.66 29.7213 164.66 29.6107C164.66 29.5002 164.638 29.3908 164.595 29.2888C164.552 29.1868 164.49 29.0944 164.411 29.0169Z" fill="#3ACC6C"/>
<path d="M270.137 29.0169L268.564 27.4342C268.486 27.3559 268.394 27.2937 268.292 27.2513C268.191 27.2089 268.082 27.187 267.971 27.187C267.861 27.187 267.752 27.2089 267.65 27.2513C267.549 27.2937 267.456 27.3559 267.379 27.4342L257.503 37.2256L253.327 33.0155C253.25 32.9378 253.158 32.8762 253.057 32.8341C252.957 32.7921 252.848 32.7704 252.739 32.7704C252.63 32.7704 252.521 32.7921 252.421 32.8341C252.32 32.8762 252.228 32.9378 252.151 33.0155L250.562 34.5857C250.406 34.744 250.319 34.9573 250.319 35.1796C250.319 35.4019 250.406 35.6152 250.562 35.7735L256.903 42.1632C257.061 42.3193 257.274 42.4068 257.497 42.4068C257.719 42.4068 257.932 42.3193 258.091 42.1632L270.137 30.2046C270.216 30.1271 270.279 30.0346 270.321 29.9327C270.364 29.8307 270.386 29.7213 270.386 29.6107C270.386 29.5002 270.364 29.3908 270.321 29.2888C270.279 29.1868 270.216 29.0944 270.137 29.0169Z" fill="#3ACC6C"/>
<path d="M199.238 111.414L197.665 109.831C197.587 109.753 197.495 109.691 197.393 109.648C197.292 109.606 197.183 109.584 197.073 109.584C196.962 109.584 196.853 109.606 196.752 109.648C196.65 109.691 196.558 109.753 196.48 109.831L186.604 119.623L182.428 115.412C182.351 115.335 182.259 115.273 182.159 115.231C182.058 115.189 181.949 115.167 181.84 115.167C181.731 115.167 181.623 115.189 181.522 115.231C181.421 115.273 181.329 115.335 181.252 115.412L179.663 116.983C179.507 117.141 179.42 117.354 179.42 117.577C179.42 117.799 179.507 118.012 179.663 118.17L186.004 124.56C186.162 124.716 186.376 124.804 186.598 124.804C186.82 124.804 187.033 124.716 187.192 124.56L199.238 112.602C199.317 112.524 199.38 112.432 199.422 112.33C199.465 112.228 199.487 112.118 199.487 112.008C199.487 111.897 199.465 111.788 199.422 111.686C199.38 111.584 199.317 111.491 199.238 111.414Z" fill="#3ACC6C"/>
<path d="M233.755 153.701L232.181 152.118C232.104 152.04 232.012 151.978 231.91 151.935C231.808 151.893 231.699 151.871 231.589 151.871C231.479 151.871 231.37 151.893 231.268 151.935C231.166 151.978 231.074 152.04 230.997 152.118L221.121 161.91L216.944 157.7C216.867 157.622 216.776 157.56 216.675 157.518C216.574 157.476 216.466 157.454 216.357 157.454C216.247 157.454 216.139 157.476 216.038 157.518C215.937 157.56 215.846 157.622 215.769 157.7L214.18 159.254C214.024 159.413 213.936 159.626 213.936 159.848C213.936 160.07 214.024 160.284 214.18 160.442L220.52 166.832C220.679 166.988 220.892 167.075 221.114 167.075C221.337 167.075 221.55 166.988 221.708 166.832L233.755 154.873C233.909 154.717 233.996 154.507 233.996 154.287C233.996 154.068 233.909 153.857 233.755 153.701Z" fill="#3ACC6C"/>
<path d="M314.816 192.811C313.883 191.098 314.94 188.996 316.15 187.469C317.36 185.942 318.827 184.36 318.796 182.404C318.75 179.605 315.78 177.951 313.407 176.468C311.646 175.368 310.021 174.063 308.569 172.578C307.96 172.008 307.457 171.334 307.082 170.588C306.591 169.494 306.604 168.25 306.635 167.053C306.74 163.06 306.938 159.071 307.229 155.085" stroke="#3F3D56" stroke-width="4" stroke-miterlimit="10"/>
<path d="M302.72 154.867C302.753 154.136 302.969 153.425 303.35 152.8C303.73 152.175 304.262 151.656 304.896 151.291L305.873 153.225L305.842 150.884C306.309 150.747 306.795 150.688 307.281 150.71C308.14 150.752 308.968 151.047 309.659 151.559C310.35 152.071 310.875 152.776 311.166 153.585C311.457 154.394 311.501 155.272 311.294 156.107C311.087 156.941 310.637 157.696 310.001 158.275C309.366 158.854 308.573 159.233 307.722 159.362C306.872 159.491 306.002 159.365 305.223 159C304.444 158.636 303.791 158.049 303.345 157.313C302.9 156.577 302.682 155.726 302.72 154.867Z" fill="#57B894"/>
<path d="M310.494 184.403C310.951 185.29 311.7 185.993 312.615 186.394C313.529 186.795 314.553 186.869 315.516 186.605C316.479 186.34 317.321 185.753 317.903 184.941C318.484 184.129 318.768 183.142 318.708 182.146C318.648 181.149 318.247 180.204 317.573 179.467C316.899 178.731 315.992 178.249 315.004 178.102C314.017 177.955 313.009 178.151 312.149 178.659C311.289 179.166 310.63 179.954 310.282 180.89L313.009 183.107L310.009 182.413C310.01 183.106 310.176 183.788 310.494 184.403Z" fill="#57B894"/>
<path d="M312.67 175.93C313.743 175.985 314.798 175.642 315.633 174.967C316.469 174.291 317.024 173.331 317.194 172.27C317.364 171.21 317.136 170.124 316.553 169.222C315.971 168.319 315.075 167.664 314.039 167.382L314.063 169.179L313.075 167.223C312.502 167.195 311.93 167.281 311.39 167.475C310.85 167.668 310.355 167.967 309.931 168.353C309.507 168.739 309.163 169.205 308.92 169.724C308.677 170.243 308.538 170.805 308.513 171.378C308.487 171.881 308.55 172.385 308.699 172.867C308.965 173.725 309.489 174.479 310.2 175.028C310.91 175.576 311.773 175.891 312.67 175.93Z" fill="#57B894"/>
<path d="M302.06 168.881C302.73 168.906 303.397 168.775 304.008 168.5C304.619 168.225 305.159 167.812 305.584 167.294C306.01 166.776 306.31 166.167 306.461 165.514C306.613 164.861 306.611 164.182 306.457 163.529C306.303 162.877 306 162.269 305.572 161.753C305.144 161.237 304.603 160.827 303.991 160.554C303.378 160.281 302.711 160.154 302.041 160.181C301.372 160.209 300.717 160.391 300.129 160.713L300.901 162.827L299.315 161.304C298.465 162.082 297.958 163.165 297.906 164.316C297.885 164.721 297.922 165.126 298.015 165.52C298.23 166.445 298.742 167.274 299.473 167.88C300.203 168.487 301.112 168.839 302.06 168.881Z" fill="#57B894"/>
<path opacity="0.1" d="M303.304 156.03C304.312 156.139 305.291 156.453 306.302 156.515C307.313 156.577 308.423 156.338 309.063 155.551C309.405 155.128 309.579 154.593 309.869 154.13C310.145 153.7 310.523 153.344 310.969 153.095C311.233 153.645 311.377 154.245 311.394 154.855C311.411 155.464 311.299 156.071 311.066 156.635C310.833 157.199 310.484 157.708 310.042 158.128C309.6 158.548 309.074 158.871 308.499 159.075C307.924 159.28 307.313 159.361 306.705 159.313C306.096 159.266 305.505 159.091 304.968 158.801C304.432 158.51 303.962 158.11 303.59 157.626C303.219 157.142 302.953 156.586 302.81 155.993C302.976 155.999 303.14 156.011 303.304 156.03Z" fill="black"/>
<path opacity="0.1" d="M302.06 168.881C302.813 168.919 303.563 168.761 304.236 168.423C304.91 168.084 305.483 167.577 305.902 166.95C306.32 166.323 306.569 165.599 306.623 164.847C306.677 164.095 306.536 163.343 306.212 162.662C305.865 162.895 305.568 163.193 305.335 163.539C305.024 164.008 304.834 164.553 304.47 164.982C303.789 165.781 302.629 166.042 301.575 165.995C300.521 165.949 299.504 165.647 298.466 165.551C298.32 165.551 298.173 165.529 298.024 165.526C298.24 166.448 298.751 167.274 299.48 167.88C300.208 168.485 301.114 168.837 302.06 168.881Z" fill="black"/>
<path opacity="0.1" d="M312.67 175.93C313.416 175.968 314.159 175.813 314.828 175.481C315.496 175.149 316.068 174.65 316.488 174.033C316.909 173.416 317.163 172.702 317.228 171.958C317.292 171.214 317.164 170.466 316.856 169.786C316.494 170.023 316.178 170.323 315.923 170.672C315.584 171.151 315.373 171.701 314.99 172.143C314.253 172.964 313.016 173.253 311.902 173.228C310.789 173.203 309.778 172.939 308.706 172.855C308.968 173.714 309.491 174.471 310.2 175.021C310.91 175.572 311.773 175.889 312.67 175.93Z" fill="black"/>
<path opacity="0.1" d="M310.494 184.403C310.966 185.458 311.838 186.283 312.918 186.695C313.998 187.107 315.197 187.073 316.253 186.601C317.308 186.129 318.132 185.257 318.545 184.177C318.957 183.097 318.923 181.898 318.451 180.843C318.09 181.077 317.767 181.366 317.493 181.698C317.077 182.202 316.803 182.777 316.324 183.253C315.432 184.129 313.992 184.496 312.708 184.524C311.968 184.528 311.229 184.487 310.494 184.403Z" fill="black"/>
<path d="M321.399 190.836C321.399 190.836 317.954 190.731 316.915 189.991C315.876 189.251 311.629 188.371 311.361 189.555C311.094 190.74 306.184 195.463 310.071 195.482C313.958 195.5 319.107 194.86 320.146 194.238C321.184 193.616 321.399 190.836 321.399 190.836Z" fill="#656380"/>
<path opacity="0.2" d="M310.002 195.071C313.892 195.102 319.039 194.465 320.074 193.827C320.864 193.345 321.178 191.623 321.284 190.827H321.399C321.399 190.827 321.181 193.606 320.155 194.247C319.129 194.887 313.97 195.516 310.08 195.491C308.957 195.491 308.572 195.083 308.594 194.493C308.74 194.841 309.166 195.055 310.002 195.071Z" fill="black"/>
<path d="M85.6766 191.281C84.3115 188.756 85.8601 185.659 87.6388 183.405C89.4175 181.151 91.588 178.809 91.5444 175.942C91.476 171.816 87.0977 169.382 83.5963 167.193C81.0003 165.57 78.6058 163.645 76.4629 161.459C75.5714 160.615 74.8347 159.622 74.2862 158.524C73.5616 156.91 73.5834 155.075 73.63 153.306C73.7793 147.419 74.0695 141.537 74.5007 135.661" stroke="#3F3D56" stroke-width="4" stroke-miterlimit="10"/>
<path d="M67.8337 135.334C67.8816 134.254 68.201 133.204 68.7625 132.28C69.3239 131.356 70.1093 130.588 71.0459 130.048L72.4888 132.9L72.4453 129.448C73.7542 129.063 75.1518 129.103 76.4363 129.564C77.7207 130.024 78.8256 130.881 79.5914 132.01C80.3571 133.14 80.7441 134.483 80.6965 135.847C80.6489 137.21 80.1692 138.524 79.3266 139.597C78.484 140.67 77.3221 141.448 76.0086 141.818C74.6952 142.188 73.2981 142.131 72.0192 141.655C70.7403 141.179 69.6457 140.309 68.8934 139.171C68.1411 138.033 67.77 136.685 67.8337 135.322V135.334Z" fill="#57B894"/>
<path d="M79.3113 178.887C79.9865 180.199 81.0925 181.24 82.4438 181.834C83.7952 182.427 85.3096 182.539 86.7332 182.148C88.1568 181.758 89.4029 180.89 90.2625 179.691C91.1222 178.491 91.5431 177.032 91.4546 175.559C91.3662 174.085 90.7738 172.687 89.7768 171.599C88.7798 170.51 87.4388 169.798 85.9788 169.581C84.5188 169.364 83.0285 169.655 81.7579 170.406C80.4873 171.158 79.5137 172.323 79.0003 173.707L83.0179 176.975L78.5898 175.952C78.5928 176.974 78.8402 177.98 79.3113 178.887Z" fill="#57B894"/>
<path d="M82.4893 166.394C84.0669 166.465 85.6158 165.954 86.8411 164.958C88.0664 163.961 88.8826 162.549 89.1345 160.99C89.3864 159.431 89.0564 157.834 88.2072 156.503C87.3581 155.171 86.049 154.199 84.5292 153.77L84.5634 156.419L83.105 153.536H83.0894C82.2374 153.483 81.3833 153.6 80.5769 153.881C79.7705 154.161 79.0278 154.598 78.3922 155.168C77.7567 155.738 77.2408 156.429 76.8747 157.2C76.5086 157.971 76.2995 158.807 76.2597 159.66C76.2199 160.513 76.3501 161.365 76.6428 162.167C76.9355 162.969 77.3848 163.705 77.9645 164.331C78.5443 164.958 79.2429 165.463 80.0197 165.817C80.7965 166.171 81.636 166.367 82.4893 166.394Z" fill="#57B894"/>
<path d="M66.8666 155.999C68.5715 156.078 70.2378 155.476 71.4995 154.327C72.7612 153.178 73.5152 151.575 73.5958 149.871C73.6446 148.818 73.4309 147.77 72.9739 146.82C72.5976 146.022 72.0608 145.309 71.3969 144.727C70.7329 144.144 69.9562 143.705 69.115 143.437C68.2738 143.168 67.3863 143.075 66.5078 143.165C65.6293 143.254 64.7786 143.524 64.0089 143.957L65.1439 147.066L62.8055 144.821C61.8693 145.68 61.2082 146.796 60.9055 148.03C60.6027 149.264 60.6717 150.559 61.104 151.754C61.5362 152.948 62.3122 153.988 63.3344 154.743C64.3565 155.497 65.579 155.932 66.848 155.993L66.8666 155.999Z" fill="#57B894"/>
<path opacity="0.1" d="M68.7013 137.047C70.1846 137.212 71.6305 137.669 73.12 137.766C74.6095 137.862 76.2483 137.501 77.1905 136.341C77.6974 135.72 77.9524 134.93 78.3815 134.249C78.7881 133.615 79.3445 133.091 80.0016 132.722C80.416 133.538 80.6517 134.433 80.693 135.347C80.7342 136.261 80.5801 137.173 80.2409 138.023C79.9016 138.873 79.3851 139.641 78.7257 140.275C78.0662 140.91 77.2791 141.396 76.4168 141.702C75.5545 142.009 74.6367 142.127 73.7248 142.051C72.813 141.974 71.9278 141.704 71.1285 141.259C70.3292 140.813 69.6341 140.203 69.0896 139.467C68.545 138.732 68.1635 137.889 67.9706 136.994C68.2131 137.004 68.4588 137.022 68.7013 137.047Z" fill="black"/>
<path opacity="0.1" d="M66.8666 155.999C68.5715 156.078 70.2378 155.476 71.4995 154.327C72.7612 153.178 73.5152 151.575 73.5958 149.871C73.6446 148.818 73.4309 147.77 72.9739 146.82C72.4635 147.164 72.0243 147.603 71.6803 148.114C71.2232 148.807 70.9433 149.606 70.4054 150.241C69.4041 151.419 67.6907 151.795 66.139 151.733C64.5873 151.671 63.0854 151.223 61.5399 151.08C61.3253 151.061 61.1077 151.046 60.89 151.04C61.2098 152.405 61.9666 153.628 63.0455 154.523C64.1243 155.418 65.4661 155.936 66.8666 155.999Z" fill="black"/>
<path opacity="0.1" d="M82.4893 166.394C83.5877 166.445 84.681 166.215 85.6649 165.724C86.6489 165.233 87.4905 164.498 88.1096 163.589C88.7287 162.681 89.1045 161.628 89.2011 160.533C89.2978 159.438 89.1121 158.336 88.6618 157.333C88.1327 157.683 87.6721 158.126 87.3029 158.642C86.8023 159.348 86.4913 160.159 85.9036 160.819C84.8184 162.028 82.993 162.454 81.348 162.417C79.7559 162.38 78.2198 161.991 76.637 161.87C77.0293 163.134 77.8016 164.246 78.8487 165.056C79.8959 165.865 81.1671 166.332 82.4893 166.394Z" fill="black"/>
<path opacity="0.1" d="M79.3113 178.887C80.0651 180.35 81.351 181.469 82.9045 182.014C84.458 182.558 86.1611 182.487 87.6636 181.814C89.1661 181.142 90.3538 179.919 90.9825 178.398C91.6112 176.876 91.6331 175.172 91.0438 173.635C90.5143 173.979 90.0376 174.398 89.6289 174.879C89.007 175.625 88.6152 176.471 87.9062 177.167C86.5908 178.458 84.467 178.99 82.5763 179.033C81.4861 179.049 80.3958 179 79.3113 178.887Z" fill="black"/>
<path d="M95.3817 188.374C95.3817 188.374 90.3037 188.218 88.7707 187.13C87.2376 186.042 80.9593 184.739 80.58 186.486C80.2006 188.234 72.9459 195.192 78.68 195.227C84.4141 195.261 92.0047 194.334 93.5315 193.401C95.0583 192.469 95.3817 188.374 95.3817 188.374Z" fill="#656380"/>
<path opacity="0.2" d="M78.5898 194.614C84.3239 194.661 91.9145 193.721 93.4413 192.792C94.6043 192.083 95.0707 189.539 95.2231 188.367H95.3941C95.3941 188.367 95.0831 192.462 93.5439 193.392C92.0046 194.322 84.4266 195.257 78.6925 195.217C77.0381 195.217 76.466 194.614 76.4971 193.743C76.7241 194.275 77.346 194.605 78.5898 194.614Z" fill="black"/>
<path d="M267.817 175.778C267.765 175.908 267.732 176.045 267.718 176.185C267.224 179.44 264.378 181.844 263.34 184.969C262.674 187 262.805 189.209 263.707 191.147C263.869 191.419 263.966 191.724 263.99 192.04C263.99 192.35 263.741 192.689 263.427 192.661C262.674 192.612 262.08 192.04 261.452 191.635C260.667 191.151 259.984 190.517 259.443 189.77C259.175 189.394 258.985 188.969 258.883 188.519C258.781 188.069 258.769 187.603 258.849 187.149C259.223 185.451 260.519 183.937 260.923 182.245L261.984 177.858C262.128 177.031 262.424 176.237 262.855 175.516C263.021 175.231 263.28 175.012 263.588 174.895C263.769 174.85 263.956 174.836 264.142 174.851C265.37 174.904 266.648 175.364 267.817 175.778Z" fill="#FFC1C7"/>
<path d="M263.461 190.631C263.573 190.606 263.69 190.615 263.797 190.656C263.939 190.753 264.048 190.892 264.108 191.054C264.443 191.676 264.952 192.187 265.572 192.524C265.823 192.636 266.063 192.771 266.288 192.929C266.399 193.009 266.489 193.116 266.55 193.24C266.61 193.363 266.638 193.5 266.633 193.638C266.583 194.045 266.138 194.26 265.746 194.381C264.905 194.627 264.024 194.704 263.153 194.608C262.827 194.589 262.509 194.5 262.22 194.347C261.937 194.151 261.694 193.904 261.502 193.619C260.821 192.677 260.05 191.804 259.201 191.01C258.769 190.67 258.365 190.294 257.994 189.888C257.81 189.683 257.67 189.443 257.583 189.182C257.495 188.921 257.463 188.645 257.487 188.37C257.609 187.562 258.374 187.033 258.856 186.371C259.63 187.366 260.41 188.377 260.883 189.546C261.039 190.016 261.232 190.472 261.461 190.911C261.682 191.275 261.999 191.694 262.394 191.458C262.789 191.222 262.886 190.73 263.461 190.631Z" fill="#FF6584"/>
<path d="M272.808 151.92C273.041 152.504 273.135 153.134 273.085 153.761L273.057 158.403C273.075 159.306 273.027 160.209 272.914 161.105C272.668 162.719 272.006 164.245 271.717 165.853C271.443 167.361 271.496 168.928 271.051 170.396C270.361 172.669 268.533 174.469 267.889 176.757C267.865 176.896 267.801 177.025 267.706 177.127C267.63 177.188 267.54 177.226 267.444 177.239C266.929 177.287 266.411 177.19 265.949 176.96L262.606 175.647C262.376 175.747 262.217 175.483 262.23 175.228C262.269 174.978 262.385 174.746 262.562 174.565C262.969 174.046 263.329 173.491 263.638 172.908C264.571 171.04 265.101 168.996 265.193 166.91C265.278 164.835 265.216 162.757 265.009 160.691C264.895 159.195 264.781 157.7 264.667 156.208C264.615 155.496 264.574 154.725 264.978 154.131C265.383 153.537 266.07 153.291 266.732 153.086C268.709 152.478 270.747 152.087 272.808 151.92Z" fill="#3C354C"/>
<path opacity="0.1" d="M272.808 151.92C273.041 152.504 273.135 153.134 273.085 153.761L273.057 158.403C273.075 159.306 273.027 160.209 272.914 161.105C272.668 162.719 272.006 164.245 271.717 165.853C271.443 167.361 271.496 168.928 271.051 170.396C270.361 172.669 268.533 174.469 267.889 176.757C267.865 176.896 267.801 177.025 267.706 177.127C267.63 177.188 267.54 177.226 267.444 177.239C266.929 177.287 266.411 177.19 265.949 176.96L262.606 175.647C262.376 175.747 262.217 175.483 262.23 175.228C262.269 174.978 262.385 174.746 262.562 174.565C262.969 174.046 263.329 173.491 263.638 172.908C264.571 171.04 265.101 168.996 265.193 166.91C265.278 164.835 265.216 162.757 265.009 160.691C264.895 159.195 264.781 157.7 264.667 156.208C264.615 155.496 264.574 154.725 264.978 154.131C265.383 153.537 266.07 153.291 266.732 153.086C268.709 152.478 270.747 152.087 272.808 151.92Z" fill="black"/>
<path d="M280.128 158.953C279.668 159.62 279.293 160.342 279.012 161.102C278.841 161.674 278.716 162.258 278.636 162.849C278.2 165.595 277.762 168.365 277.93 171.139C277.659 171.203 277.376 171.202 277.106 171.135C276.835 171.067 276.585 170.937 276.375 170.753C275.956 170.383 275.611 169.936 275.358 169.438C275.042 168.9 274.763 168.341 274.522 167.765C273.988 166.473 273.718 165.087 273.729 163.689C273.72 163.575 273.739 163.461 273.785 163.356C273.828 163.282 273.884 163.216 273.95 163.16C275.775 161.431 276.826 159.059 277.83 156.755C278.19 156.002 278.47 155.213 278.664 154.401C278.829 153.58 278.841 152.672 279.36 152.016C279.827 151.432 280.604 151.186 281.332 151.083C281.861 150.99 282.404 151.012 282.924 151.149C283.49 151.323 284.83 151.985 284.908 152.654C284.986 153.322 283.791 154.177 283.403 154.622C282.209 155.985 281.115 157.433 280.128 158.953Z" fill="#FFC1C7"/>
<path d="M279.018 171.114C279.416 171.782 279.973 172.528 279.69 173.25C279.407 173.971 278.371 174.133 277.75 173.688C277.571 173.552 277.408 173.395 277.264 173.222C275.547 171.305 273.987 169.252 272.6 167.084C272.084 166.279 271.58 165.42 271.493 164.469C271.477 164.363 271.492 164.255 271.537 164.158C271.597 164.069 271.681 163.998 271.779 163.953C272.628 163.472 273.532 163.096 274.472 162.833C274.449 163.898 274.725 164.949 275.268 165.865C275.665 166.529 276.008 167.224 276.294 167.942C276.506 168.465 276.723 168.505 277.268 168.511C277.706 168.511 278.02 168.458 278.232 168.903C278.567 169.599 278.592 170.399 279.018 171.114Z" fill="#FF6584"/>
<path d="M267.363 144.062C271.362 144.124 275.355 144.404 279.345 144.684L281.938 144.868C282.702 144.89 283.461 145.003 284.199 145.203C284.902 145.458 285.573 145.79 286.201 146.195C286.417 146.304 286.607 146.457 286.761 146.643C286.881 146.832 286.961 147.044 286.997 147.265C287.144 147.729 287.194 148.218 287.144 148.701C287.067 149.047 286.938 149.38 286.761 149.687L284.945 153.275C284.364 153.086 283.913 152.706 283.344 152.482C282.659 152.251 281.945 152.115 281.223 152.078L279.332 151.892C279.27 151.778 279.251 151.645 279.279 151.518C277.619 152.097 275.965 152.635 274.304 153.213C271.257 154.273 268.203 155.337 265.268 156.68C264.832 156.879 264.335 157.087 263.89 156.919C263.73 156.851 263.583 156.754 263.458 156.633C262.731 155.942 262.26 155.024 262.121 154.031C261.983 153.045 261.997 152.043 262.164 151.061C262.444 149.037 263.057 146.92 264.605 145.586C265.423 144.861 266.281 144.034 267.363 144.062Z" fill="#3C354C"/>
<path opacity="0.1" d="M283.272 147.557C282.378 147.991 281.519 148.494 280.704 149.062C280.581 149.142 280.468 149.235 280.365 149.339C280.289 149.425 280.22 149.517 280.156 149.612C279.755 150.133 279.457 150.727 279.279 151.36" stroke="black" stroke-miterlimit="10"/>
<path d="M242.113 142.71C241.554 143.179 241.224 143.857 240.829 144.473C239.881 145.965 238.519 147.165 237.583 148.667C237.182 149.314 236.849 150.029 236.277 150.533C235.593 151.155 234.647 151.369 233.733 151.441C232.909 151.5 232.038 151.459 231.311 151.854C230.689 152.196 230.253 152.815 229.855 153.409V153.427C229.773 153.552 229.731 153.699 229.738 153.849C229.745 153.998 229.799 154.141 229.892 154.258C229.986 154.374 230.114 154.458 230.259 154.496C230.403 154.535 230.556 154.526 230.695 154.472C231.364 154.213 232.054 154.013 232.757 153.872C233.377 153.777 233.991 153.638 234.591 153.455C235.169 153.225 235.719 152.932 236.233 152.582C236.685 152.312 237.116 152.01 237.524 151.677C238.024 151.251 238.457 150.744 238.929 150.293C239.622 149.723 240.349 149.195 241.106 148.714C243.096 147.32 244.757 145.506 245.969 143.4C246.115 143.193 246.192 142.947 246.19 142.694C246.146 142.462 246.038 142.247 245.879 142.072C245.329 141.372 244.828 140.8 244.063 141.45C243.46 141.951 242.704 142.196 242.113 142.71Z" fill="#FFC1C7"/>
<path d="M257.758 127.558C257.764 127.757 257.834 127.948 257.957 128.105C258.162 128.313 258.501 128.27 258.793 128.251C259.193 128.211 259.596 128.259 259.975 128.39C260.354 128.522 260.7 128.734 260.989 129.013C261.521 129.569 261.729 130.356 261.853 131.118C261.994 131.751 261.974 132.409 261.797 133.033C261.502 133.755 260.933 134.329 260.215 134.631C259.503 134.929 258.75 135.114 257.982 135.179C257.344 135.291 256.692 135.291 256.054 135.179C255.298 135.005 254.642 134.557 253.961 134.181C253.485 133.954 253.024 133.694 252.584 133.403C252.139 133.107 251.819 132.658 251.685 132.141C251.646 132.01 251.646 131.871 251.687 131.741C251.727 131.611 251.806 131.495 251.912 131.41C252.022 131.359 252.14 131.323 252.26 131.304C252.513 131.24 252.745 131.11 252.931 130.927C253.118 130.744 253.252 130.515 253.321 130.263C253.529 129.457 253.028 128.646 252.978 127.816C252.954 127.575 253.005 127.333 253.125 127.122C253.305 126.893 253.548 126.72 253.824 126.625L255.379 125.928C255.848 125.67 256.338 125.453 256.844 125.279C257.338 125.151 257.372 125.493 257.466 125.9C257.581 126.457 257.683 127.007 257.758 127.558Z" fill="#FFC1C7"/>
<path opacity="0.1" d="M257.758 127.558C257.764 127.757 257.834 127.948 257.957 128.105C258.162 128.313 258.501 128.27 258.793 128.251C259.193 128.211 259.596 128.259 259.975 128.39C260.354 128.522 260.7 128.734 260.989 129.013C261.521 129.569 261.729 130.356 261.853 131.118C261.994 131.751 261.974 132.409 261.797 133.033C261.502 133.755 260.933 134.329 260.215 134.631C259.503 134.929 258.75 135.114 257.982 135.179C257.344 135.291 256.692 135.291 256.054 135.179C255.298 135.005 254.642 134.557 253.961 134.181C253.485 133.954 253.024 133.694 252.584 133.403C252.139 133.107 251.819 132.658 251.685 132.141C251.646 132.01 251.646 131.871 251.687 131.741C251.727 131.611 251.806 131.495 251.912 131.41C252.022 131.359 252.14 131.323 252.26 131.304C252.513 131.24 252.745 131.11 252.931 130.927C253.118 130.744 253.252 130.515 253.321 130.263C253.529 129.457 253.028 128.646 252.978 127.816C252.954 127.575 253.005 127.333 253.125 127.122C253.305 126.893 253.548 126.72 253.824 126.625L255.379 125.928C255.848 125.67 256.338 125.453 256.844 125.279C257.338 125.151 257.372 125.493 257.466 125.9C257.581 126.457 257.683 127.007 257.758 127.558Z" fill="black"/>
<path d="M253.712 128.857C255.854 128.857 257.59 127.121 257.59 124.98C257.59 122.838 255.854 121.103 253.712 121.103C251.571 121.103 249.835 122.838 249.835 124.98C249.835 127.121 251.571 128.857 253.712 128.857Z" fill="#FFC1C7"/>
<path d="M258.218 128.515C258.794 128.255 259.41 128.1 260.04 128.055C260.355 128.036 260.671 128.086 260.964 128.202C261.257 128.318 261.522 128.497 261.738 128.727C262.102 129.153 262.223 129.728 262.512 130.204C263.085 131.137 264.201 131.563 265.093 132.2C265.304 132.338 265.485 132.515 265.628 132.722C265.939 133.195 265.855 133.801 265.849 134.361C265.879 135.746 266.273 137.099 266.99 138.285C267.708 139.466 268.53 140.581 269.447 141.615C269.663 141.852 269.843 142.119 269.982 142.408C270.199 142.93 270.137 143.562 270.461 144.025C269.683 143.928 268.893 144.035 268.169 144.336C267.046 144.799 266.993 146.441 266.465 147.535C265.488 149.56 264.133 151.372 262.842 153.213C262.503 153.652 262.215 154.129 261.984 154.634C261.754 154.146 261.912 153.564 261.884 153.026C261.822 151.823 261.126 150.744 260.93 149.556C260.863 148.962 260.829 148.364 260.827 147.765C260.774 146.859 260.578 145.967 260.246 145.122C259.861 144.221 259.399 143.354 258.865 142.532C258.615 142.045 258.259 141.62 257.823 141.289C257.307 140.953 256.595 140.856 256.268 140.334C256.189 140.152 256.085 139.983 255.957 139.83C255.849 139.749 255.727 139.687 255.597 139.647C254.961 139.348 254.346 139.007 253.756 138.627C253.134 138.288 252.428 138.036 251.741 138.189C250.467 139.667 249.023 140.99 247.44 142.131C246.949 142.492 246.42 142.862 246.178 143.422C245.404 143.051 244.709 142.532 244.135 141.895C244.044 141.806 243.97 141.7 243.917 141.584C243.758 141.13 244.228 140.723 244.601 140.437C245.998 139.384 247.069 137.958 247.692 136.323C248.093 135.269 248.358 134.056 249.272 133.394C249.562 133.228 249.835 133.035 250.09 132.819C250.315 132.507 250.522 132.183 250.712 131.849C250.91 131.592 251.179 131.4 251.486 131.296C251.793 131.192 252.124 131.181 252.437 131.264C252.792 131.403 253.136 131.568 253.467 131.758C254.328 132.147 255.317 132.069 256.265 131.964L259.907 131.594C259.966 131.39 259.973 131.175 259.927 130.968C259.88 130.761 259.781 130.57 259.639 130.412C259.49 130.271 259.328 130.143 259.157 130.03C258.68 129.647 258.349 129.113 258.218 128.515Z" fill="#FF6584"/>
<path d="M255.765 118.279C256.205 118.443 256.607 118.698 256.943 119.027C257.279 119.356 257.541 119.751 257.714 120.189C257.824 120.562 257.961 120.927 258.125 121.28C258.415 121.694 258.755 122.072 259.135 122.406C259.484 122.776 259.782 123.258 259.701 123.758C259.67 123.945 259.589 124.119 259.565 124.302C259.456 125.108 260.37 125.661 260.65 126.423C261.014 127.424 260.221 128.618 260.706 129.563C260.889 129.918 261.222 130.185 261.43 130.496C261.639 130.807 261.66 131.367 261.309 131.556C260.762 131.852 260.127 130.987 259.546 131.214C259.397 131.273 259.282 131.401 259.135 131.466C258.728 131.65 258.252 131.289 258.119 130.863C258.034 130.425 258.042 129.973 258.144 129.538C258.193 129.321 258.196 129.095 258.154 128.876C258.111 128.657 258.023 128.45 257.895 128.267C257.658 127.996 257.273 127.89 257.027 127.645C256.579 127.191 256.663 126.46 256.716 125.826C256.813 124.545 256.582 123.142 255.665 122.241C255.645 122.215 255.621 122.194 255.592 122.178C255.564 122.163 255.533 122.153 255.5 122.151C255.434 122.163 255.375 122.199 255.336 122.253C254.918 122.691 254.45 123.078 253.942 123.407C253.799 123.517 253.625 123.58 253.445 123.587C253.268 123.587 253.09 123.407 253.134 123.236C252.694 123.44 252.298 123.729 251.971 124.088C251.9 123.919 251.868 123.736 251.878 123.553C251.707 123.893 251.498 124.212 251.256 124.504C251.008 124.77 250.78 125.053 250.572 125.35C250.469 125.5 250.4 125.67 250.37 125.849C250.34 126.027 250.349 126.211 250.397 126.386C250.746 127.384 252.521 127.154 252.907 128.139C252.991 128.36 252.988 128.603 253.075 128.82C253.246 129.243 253.697 129.442 254.07 129.722C254.443 130.002 254.766 130.477 254.543 130.872C254.347 131.211 253.89 131.249 253.51 131.336C253.186 131.416 252.881 131.561 252.614 131.762C252.347 131.963 252.123 132.215 251.955 132.505C251.867 132.717 251.729 132.906 251.554 133.055C251.397 133.136 251.224 133.178 251.047 133.18C250.519 133.223 249.912 133.235 249.549 132.869C249.06 132.356 249.29 131.423 248.793 130.919C248.678 130.807 248.535 130.726 248.426 130.608C248.313 130.462 248.23 130.294 248.182 130.115C248.135 129.936 248.124 129.75 248.149 129.566C248.199 128.531 248.581 127.517 248.522 126.482C248.431 125.797 248.299 125.118 248.127 124.448C247.975 123.667 247.996 122.862 248.187 122.089C248.378 121.316 248.736 120.594 249.234 119.974C250.08 118.982 251.184 118.593 252.434 118.419C253.548 118.255 254.623 117.866 255.765 118.279Z" fill="#3C354C"/>
</g>
<defs>
<clipPath id="clip0">
<rect width="366" height="200" fill="white" transform="translate(0 0.53125)"/>
</clipPath>
</defs>
</svg>
