<svg width="230" height="161" viewBox="0 0 230 161" fill="none" xmlns="http://www.w3.org/2000/svg">
<g clip-path="url(#clip0)">
<path d="M97.2113 150.542C150.624 150.542 193.923 148.354 193.923 145.654C193.923 142.955 150.624 140.766 97.2113 140.766C43.7991 140.766 0.5 142.955 0.5 145.654C0.5 148.354 43.7991 150.542 97.2113 150.542Z" fill="#3F3D56"/>
<path d="M191.656 155.884C212.557 155.884 229.5 155.028 229.5 153.972C229.5 152.915 212.557 152.059 191.656 152.059C170.756 152.059 153.813 152.915 153.813 153.972C153.813 155.028 170.756 155.884 191.656 155.884Z" fill="#3F3D56"/>
<path d="M84.6826 160.743C105.583 160.743 122.526 159.887 122.526 158.831C122.526 157.774 105.583 156.918 84.6826 156.918C63.7821 156.918 46.839 157.774 46.839 158.831C46.839 159.887 63.7821 160.743 84.6826 160.743Z" fill="#3F3D56"/>
<path d="M177.573 101.358L180.969 98.9983L188.006 89.941C188.207 89.6827 188.297 89.3553 188.256 89.0308C188.215 88.7063 188.047 88.4112 187.789 88.2105C187.531 88.0099 187.203 87.92 186.879 87.9608C186.554 88.0015 186.259 88.1695 186.058 88.4278L179.021 97.4851L177.573 101.358Z" fill="#2F2E41"/>
<path d="M207.883 15.2559C207.883 15.2559 203.612 11.4279 197.869 18.6423C192.126 25.8568 183.144 29.3904 181.082 32.1878C181.082 32.1878 189.623 28.6542 192.568 27.1819C195.513 25.7095 195.366 26.004 195.366 26.004C195.366 26.004 191.39 28.8014 190.654 31.5989C189.918 34.3963 190.507 36.752 189.181 39.5495C187.856 42.3469 214.509 41.4635 214.509 41.4635C214.509 41.4635 217.16 36.8993 216.423 32.1878C215.687 27.4763 216.129 15.8449 207.883 15.2559Z" fill="#2F2E41"/>
<path d="M199.489 26.5928C199.489 26.5928 200.52 33.8072 196.102 35.4268C191.685 37.0464 193.304 39.2549 193.304 39.2549L199.931 42.494L206.999 40.2855L209.355 36.7519C209.355 36.7519 205.527 35.8685 206.557 33.2183C207.588 30.5681 207.883 29.6847 207.883 29.6847L199.489 26.5928Z" fill="#FFB9B9"/>
<path opacity="0.1" d="M199.489 26.5928C199.489 26.5928 200.52 33.8072 196.102 35.4268C191.685 37.0464 193.304 39.2549 193.304 39.2549L199.931 42.494L206.999 40.2855L209.355 36.7519C209.355 36.7519 205.527 35.8685 206.557 33.2183C207.588 30.5681 207.883 29.6847 207.883 29.6847L199.489 26.5928Z" fill="black"/>
<path d="M218.043 47.2056C218.043 47.2056 217.012 60.7511 217.307 61.34C217.601 61.9289 217.307 82.3944 217.307 82.3944C217.307 82.3944 219.368 93.437 216.718 94.0259C214.067 94.6148 214.656 81.6583 214.656 81.6583L212.006 64.5791L212.3 47.6473L218.043 47.2056Z" fill="#FFB9B9"/>
<path opacity="0.1" d="M218.043 47.2056C218.043 47.2056 217.012 60.7511 217.307 61.34C217.601 61.9289 217.307 82.3944 217.307 82.3944C217.307 82.3944 219.368 93.437 216.718 94.0259C214.067 94.6148 214.656 81.6583 214.656 81.6583L212.006 64.5791L212.3 47.6473L218.043 47.2056Z" fill="black"/>
<path d="M189.329 87.9893C189.329 87.9893 184.469 106.393 184.616 115.375C184.764 124.356 186.678 136.871 186.678 136.871C186.678 136.871 186.973 142.318 186.531 142.907C186.089 143.496 188.74 145.999 188.74 145.999L191.537 144.38L192.568 143.202V142.171C192.568 142.171 190.948 137.165 192.274 133.19C193.599 129.215 194.335 119.203 193.01 116.111L202.14 89.0199L189.329 87.9893Z" fill="#FFB9B9"/>
<path d="M189.034 143.643C189.034 143.643 187.267 141.435 186.089 142.171C184.911 142.907 182.997 147.913 182.997 147.913C182.997 147.913 176.37 154.244 181.082 154.539C185.794 154.833 187.856 153.213 188.445 152.036C189.034 150.858 194.482 147.766 194.482 147.766C194.482 147.766 193.893 142.171 193.01 142.024C192.126 141.876 190.801 144.232 190.801 144.232L189.034 143.643Z" fill="#2F2E41"/>
<path d="M205.379 89.1675V107.424C205.396 109.64 205.544 111.852 205.821 114.05C206.263 117.289 203.318 141.435 203.318 141.435L203.612 145.705L207.294 145.411L207.735 141.73L213.037 125.534C213.037 125.534 214.804 115.67 213.92 111.989C213.037 108.308 218.485 84.7505 218.485 84.7505L205.379 89.1675Z" fill="#FFB9B9"/>
<path d="M202.434 144.674L203.525 144.437C203.525 144.437 204.349 142.613 205.379 143.055C206.105 143.389 206.792 143.801 207.429 144.283L207.883 145.116C207.883 145.116 208.913 147.325 210.239 148.797C211.564 150.269 213.037 153.508 210.828 153.803C208.619 154.097 205.674 154.245 204.79 153.508C203.907 152.772 204.496 151.594 203.612 151.3C202.729 151.005 201.992 150.122 202.14 149.828C202.287 149.533 202.434 144.674 202.434 144.674Z" fill="#2F2E41"/>
<path d="M205.379 32.1877C209.283 32.1877 212.448 29.0236 212.448 25.1204C212.448 21.2173 209.283 18.0532 205.379 18.0532C201.476 18.0532 198.311 21.2173 198.311 25.1204C198.311 29.0236 201.476 32.1877 205.379 32.1877Z" fill="#FFB9B9"/>
<path d="M193.01 36.6048L194.955 35.9258C194.955 35.9258 194.188 37.1937 198.311 37.9299C202.434 38.666 206.704 38.9267 208.619 36.5142C208.619 36.5142 209.355 36.1631 210.386 37.1937C211.417 38.2243 212.006 37.9299 212.006 37.9299L211.27 41.758L209.797 48.8252L207.883 54.1256L202.434 52.9477L196.544 48.6779L194.335 42.9358V37.6354L193.01 36.6048Z" fill="#447ACC"/>
<path d="M210.975 38.6661L212.448 37.6354C212.448 37.6354 217.454 38.5188 217.749 40.8746L213.92 48.2362C214.701 50.2846 214.648 52.5574 213.773 54.5673C212.3 57.9537 212.448 58.6898 212.448 58.6898L211.417 63.1068L192.715 64.5792C192.715 64.5792 191.979 62.8124 191.685 62.5179C191.39 62.2234 191.39 61.1928 191.685 61.1928C191.979 61.1928 191.685 60.7511 191.39 60.3094C191.096 59.8677 190.948 59.7205 191.39 59.1315C191.832 58.5426 190.654 53.2422 190.654 53.2422V47.5001L185.647 40.8746C185.647 40.8746 187.414 38.2243 188.298 37.9299C189.181 37.6354 193.384 36.4741 193.384 36.4741L194.335 37.8742L195.661 48.5307L197.575 55.009L205.635 53.6397L208.766 48.3835L210.828 42.1996L210.975 38.6661Z" fill="#447ACC"/>
<path d="M216.571 39.9912L217.749 40.8746C217.749 40.8746 218.779 49.1197 218.485 49.7086C218.19 50.2976 213.037 50.8865 212.889 50.592C212.742 50.2976 216.571 39.9912 216.571 39.9912Z" fill="#447ACC"/>
<path d="M184.616 48.9722C184.616 48.9722 185.647 62.5177 185.353 63.1066C185.058 63.6955 185.353 84.161 185.353 84.161C185.353 84.161 183.291 95.2035 185.942 95.7925C188.592 96.3814 188.003 83.4248 188.003 83.4248L190.654 66.3457L190.359 49.4139L184.616 48.9722Z" fill="#FFB9B9"/>
<path d="M192.274 35.8687L193.746 45.5861C193.746 45.5861 192.421 60.015 192.715 62.9597L193.01 63.8431C193.01 63.8431 192.421 63.5486 192.274 64.1376C192.126 64.7265 192.274 66.6406 192.274 66.6406C192.274 66.6406 191.39 67.524 191.096 72.3827C190.801 77.2414 187.267 88.8728 188.592 89.3145C189.918 89.7563 197.869 91.9648 202.14 91.5231C206.41 91.0814 221.725 85.9282 221.577 84.6031C221.43 83.278 214.067 64.5793 214.067 64.5793C214.067 64.5793 212.742 62.3708 212.742 62.0763C212.742 61.7818 214.509 60.604 214.067 59.4261C213.626 58.2482 211.269 45.8806 211.269 45.8806L212.889 37.0466L210.68 36.4577L209.061 44.9972C209.061 44.9972 202.729 48.0891 196.102 45.2917L194.63 35.2798L192.274 35.8687Z" fill="#2F2E41"/>
<path d="M186.825 40.4326L185.647 40.8743C185.647 40.8743 183.438 50.15 184.027 50.15C184.616 50.15 191.685 51.0334 191.685 50.739C191.685 50.4445 190.359 43.2301 190.359 43.2301L186.825 40.4326Z" fill="#447ACC"/>
<path d="M199.784 18.9369C199.784 18.9369 210.68 26.4458 213.626 23.0594C216.571 19.673 208.472 16.7284 208.472 16.7284L201.698 15.9922L199.784 18.9369Z" fill="#2F2E41"/>
<path d="M30.175 0.743164V144.408H153.668V0.743164H30.175ZM36.7641 132.507C36.3437 132.507 35.9328 132.382 35.5832 132.149C35.2337 131.915 34.9613 131.584 34.8004 131.195C34.6395 130.807 34.5974 130.38 34.6794 129.967C34.7615 129.555 34.9639 129.176 35.2612 128.879C35.5584 128.582 35.9371 128.38 36.3495 128.298C36.7618 128.216 37.1891 128.258 37.5775 128.418C37.9659 128.579 38.2979 128.852 38.5314 129.201C38.765 129.551 38.8896 129.962 38.8896 130.382C38.8896 130.946 38.6657 131.486 38.2671 131.885C37.8685 132.283 37.3278 132.507 36.7641 132.507ZM36.7641 122.094C36.3437 122.094 35.9328 121.969 35.5832 121.735C35.2337 121.502 34.9613 121.17 34.8004 120.782C34.6395 120.393 34.5974 119.966 34.6794 119.554C34.7615 119.141 34.9639 118.763 35.2612 118.466C35.5584 118.168 35.9371 117.966 36.3495 117.884C36.7618 117.802 37.1891 117.844 37.5775 118.005C37.9659 118.166 38.2979 118.438 38.5314 118.788C38.765 119.137 38.8896 119.548 38.8896 119.968C38.8896 120.532 38.6657 121.073 38.2671 121.471C37.8685 121.87 37.3278 122.094 36.7641 122.094ZM36.7641 111.892C36.3437 111.892 35.9328 111.768 35.5832 111.534C35.2337 111.301 34.9613 110.969 34.8004 110.581C34.6395 110.192 34.5974 109.765 34.6794 109.353C34.7615 108.94 34.9639 108.562 35.2612 108.264C35.5584 107.967 35.9371 107.765 36.3495 107.683C36.7618 107.601 37.1891 107.643 37.5775 107.804C37.9659 107.965 38.2979 108.237 38.5314 108.587C38.765 108.936 38.8896 109.347 38.8896 109.767C38.8896 110.331 38.6657 110.871 38.2671 111.27C37.8685 111.669 37.3278 111.892 36.7641 111.892ZM36.7641 101.479C36.3437 101.479 35.9328 101.354 35.5832 101.121C35.2337 100.887 34.9613 100.555 34.8004 100.167C34.6395 99.7786 34.5974 99.3513 34.6794 98.939C34.7615 98.5267 34.9639 98.1481 35.2612 97.8509C35.5584 97.5536 35.9371 97.3512 36.3495 97.2692C36.7618 97.1872 37.1891 97.2293 37.5775 97.3902C37.9659 97.551 38.2979 97.8234 38.5314 98.1729C38.765 98.5224 38.8896 98.9333 38.8896 99.3536C38.8896 99.9173 38.6657 100.458 38.2671 100.856C37.8685 101.255 37.3278 101.479 36.7641 101.479ZM36.7641 91.0652C36.3437 91.0652 35.9328 90.9406 35.5832 90.7071C35.2337 90.4735 34.9613 90.1416 34.8004 89.7533C34.6395 89.365 34.5974 88.9377 34.6794 88.5254C34.7615 88.1131 34.9639 87.7345 35.2612 87.4372C35.5584 87.14 35.9371 86.9376 36.3495 86.8556C36.7618 86.7736 37.1891 86.8157 37.5775 86.9766C37.9659 87.1374 38.2979 87.4098 38.5314 87.7593C38.765 88.1088 38.8896 88.5197 38.8896 88.94C38.8896 89.5037 38.6657 90.0442 38.2671 90.4428C37.8685 90.8413 37.3278 91.0652 36.7641 91.0652ZM36.7641 80.8642C36.3437 80.8642 35.9328 80.7395 35.5832 80.506C35.2337 80.2725 34.9613 79.9406 34.8004 79.5522C34.6395 79.1639 34.5974 78.7366 34.6794 78.3243C34.7615 77.9121 34.9639 77.5334 35.2612 77.2362C35.5584 76.9389 35.9371 76.7365 36.3495 76.6545C36.7618 76.5725 37.1891 76.6146 37.5775 76.7755C37.9659 76.9363 38.2979 77.2087 38.5314 77.5582C38.765 77.9077 38.8896 78.3186 38.8896 78.7389C38.8896 79.3026 38.6657 79.8431 38.2671 80.2417C37.8685 80.6403 37.3278 80.8642 36.7641 80.8642ZM36.7641 70.4506C36.3437 70.4506 35.9328 70.3259 35.5832 70.0924C35.2337 69.8589 34.9613 69.5269 34.8004 69.1386C34.6395 68.7503 34.5974 68.323 34.6794 67.9107C34.7615 67.4985 34.9639 67.1198 35.2612 66.8226C35.5584 66.5253 35.9371 66.3229 36.3495 66.2409C36.7618 66.1589 37.1891 66.201 37.5775 66.3619C37.9659 66.5227 38.2979 66.7951 38.5314 67.1446C38.765 67.4941 38.8896 67.905 38.8896 68.3253C38.8896 68.889 38.6657 69.4295 38.2671 69.8281C37.8685 70.2266 37.3278 70.4506 36.7641 70.4506ZM36.7641 60.0369C36.3437 60.0369 35.9328 59.9123 35.5832 59.6788C35.2337 59.4453 34.9613 59.1133 34.8004 58.725C34.6395 58.3367 34.5974 57.9094 34.6794 57.4971C34.7615 57.0849 34.9639 56.7062 35.2612 56.409C35.5584 56.1117 35.9371 55.9093 36.3495 55.8273C36.7618 55.7453 37.1891 55.7874 37.5775 55.9483C37.9659 56.1091 38.2979 56.3815 38.5314 56.731C38.765 57.0805 38.8896 57.4914 38.8896 57.9117C38.8896 58.4754 38.6657 59.0159 38.2671 59.4145C37.8685 59.813 37.3278 60.0369 36.7641 60.0369ZM36.7641 49.8359C36.3437 49.8359 35.9328 49.7112 35.5832 49.4777C35.2337 49.2442 34.9613 48.9123 34.8004 48.5239C34.6395 48.1356 34.5974 47.7083 34.6794 47.296C34.7615 46.8838 34.9639 46.5051 35.2612 46.2079C35.5584 45.9107 35.9371 45.7083 36.3495 45.6263C36.7618 45.5442 37.1891 45.5863 37.5775 45.7472C37.9659 45.908 38.2979 46.1804 38.5314 46.5299C38.765 46.8794 38.8896 47.2903 38.8896 47.7106C38.8896 48.2743 38.6657 48.8148 38.2671 49.2134C37.8685 49.612 37.3278 49.8359 36.7641 49.8359ZM36.7641 39.4223C36.3437 39.4223 35.9328 39.2976 35.5832 39.0641C35.2337 38.8306 34.9613 38.4987 34.8004 38.1103C34.6395 37.722 34.5974 37.2947 34.6794 36.8824C34.7615 36.4702 34.9639 36.0915 35.2612 35.7943C35.5584 35.4971 35.9371 35.2946 36.3495 35.2126C36.7618 35.1306 37.1891 35.1727 37.5775 35.3336C37.9659 35.4944 38.2979 35.7668 38.5314 36.1163C38.765 36.4658 38.8896 36.8767 38.8896 37.297C38.8896 37.8607 38.6657 38.4012 38.2671 38.7998C37.8685 39.1984 37.3278 39.4223 36.7641 39.4223ZM36.7641 29.0087C36.3437 29.0087 35.9328 28.884 35.5832 28.6505C35.2337 28.417 34.9613 28.0851 34.8004 27.6967C34.6395 27.3084 34.5974 26.8811 34.6794 26.4688C34.7615 26.0566 34.9639 25.6779 35.2612 25.3807C35.5584 25.0835 35.9371 24.881 36.3495 24.799C36.7618 24.717 37.1891 24.7591 37.5775 24.92C37.9659 25.0808 38.2979 25.3532 38.5314 25.7027C38.765 26.0522 38.8896 26.4631 38.8896 26.8834C38.8896 27.4471 38.6657 27.9876 38.2671 28.3862C37.8685 28.7848 37.3278 29.0087 36.7641 29.0087ZM36.7641 19.0201C36.3437 19.0201 35.9328 18.8955 35.5832 18.6619C35.2337 18.4284 34.9613 18.0965 34.8004 17.7082C34.6395 17.3198 34.5974 16.8925 34.6794 16.4803C34.7615 16.068 34.9639 15.6893 35.2612 15.3921C35.5584 15.0949 35.9371 14.8925 36.3495 14.8105C36.7618 14.7285 37.1891 14.7706 37.5775 14.9314C37.9659 15.0923 38.2979 15.3647 38.5314 15.7142C38.765 16.0637 38.8896 16.4745 38.8896 16.8949C38.8896 17.4585 38.6657 17.9991 38.2671 18.3976C37.8685 18.7962 37.3278 19.0201 36.7641 19.0201Z" fill="#F2F2F2"/>
<path opacity="0.3" d="M153.668 11.6536V11.2286H44.7893V0.743164H44.3642V11.2286H30.1751V11.6536H44.3642V21.5704H30.1751V21.9954H44.3642V31.9121H30.1751V32.3372H44.3642V42.2537H30.1751V42.6787H44.3642V52.5953H30.1751V53.0203H44.3642V62.937H30.1751V63.3621H44.3642V73.2786H30.1751V73.7036H44.3642V83.6204H30.1751V84.0454H44.3642V93.9619H30.1751V94.387H44.3642V104.303H30.1751V104.729H44.3642V114.645H30.1751V115.07H44.3642V124.987H30.1751V125.412H44.3642V135.328H30.1751V135.753H44.3642V144.408H44.7893V135.753H153.668V135.328H44.7893V125.412H153.668V124.987H44.7893V115.07H153.668V114.645H44.7893V104.729H153.668V104.303H44.7893V94.387H153.668V93.9619H44.7893V84.0454H153.668V83.6204H44.7893V73.7036H153.668V73.2786H44.7893V63.3621H153.668V62.937H44.7893V53.0203H153.668V52.5953H44.7893V42.6787H153.668V42.2537H44.7893V32.3372H153.668V31.9121H44.7893V21.9954H153.668V21.5704H44.7893V11.6536H153.668Z" fill="#3F3D56"/>
<path d="M59.7951 25.4493C57.761 27.3615 55.727 27.3615 53.693 25.4493C52.8679 24.6575 52.2133 23.7056 51.7694 22.6518C51.3254 21.598 51.1015 20.4646 51.1114 19.3212V0.743164H62.3767V19.3212C62.3866 20.4646 62.1627 21.598 61.7187 22.6518C61.2748 23.7056 60.6202 24.6575 59.7951 25.4493Z" fill="#447ACC"/>
<path d="M122.784 91.4326C122.784 108.823 112.446 114.895 99.6903 114.895C99.3948 114.895 99.0994 114.891 98.806 114.884C98.2151 114.872 97.6285 114.844 97.0504 114.804C85.5385 113.99 76.5964 107.606 76.5964 91.4326C76.5964 74.6986 97.9835 53.5802 99.5946 52.0139C99.5946 52.0136 99.5946 52.0134 99.5948 52.0131C99.5949 52.0128 99.595 52.0126 99.5952 52.0124C99.5954 52.0122 99.5956 52.0121 99.5959 52.0119C99.5962 52.0118 99.5965 52.0118 99.5967 52.0118C99.6584 51.9502 99.6903 51.9204 99.6903 51.9204C99.6903 51.9204 122.784 74.044 122.784 91.4326Z" fill="#447ACC"/>
<path d="M98.8485 112.235L107.295 100.436L98.8273 113.531L98.806 114.885C98.2152 114.872 97.6285 114.845 97.0504 114.804L97.9601 97.4071L97.9537 97.2711L97.9686 97.2477L98.0557 95.6028L89.5664 82.4752L98.0812 94.3701L98.1025 94.7187L98.789 81.5742L91.5219 68.0088L98.8783 79.2683L99.5946 52.0144L99.5967 51.9209V52.0123L99.4777 73.5025L106.713 64.9825L99.4479 75.3536L99.2566 87.1231L106.014 75.8276L99.229 88.8552L99.1227 95.3987L108.928 79.6763L99.0845 97.6812L98.8485 112.235Z" fill="#3F3D56"/>
</g>
<defs>
<clipPath id="clip0">
<rect width="229" height="160" fill="white" transform="translate(0.5 0.743164)"/>
</clipPath>
</defs>
</svg>
