<svg width="145" height="145" viewBox="0 0 145 145" fill="none" xmlns="http://www.w3.org/2000/svg">
<rect x="1.90332" y="1.20215" width="142" height="142" fill="#3468B8" stroke="#2F5EAF" stroke-width="2"/>
<mask id="mask0" mask-type="alpha" maskUnits="userSpaceOnUse" x="2" y="2" width="141" height="141">
<rect x="2.90332" y="2.20215" width="140" height="140" fill="#3468B8"/>
</mask>
<g mask="url(#mask0)">
<path d="M72.108 60.0212L91.8885 40.509L88.9533 51.6082L88.9533 75.4558L54.4792 143.048L-1.69612 145.485L-6.21148 115.451L55.5327 53.6091L59.9086 51.6082L66.2568 56.8472L72.108 60.0212Z" fill="#204E94"/>
<path d="M49.3935 142.181H87.3766C87.3766 142.181 84.0946 140.768 84.2329 138.076C84.8877 125.32 85.2522 109.648 85.2522 99.2118C85.2522 89.8404 88.0899 85.6946 89.5153 83.5361C91.0696 81.1825 98.3079 73.6777 99.4625 59.9115C99.7842 52.2995 99.3688 47.585 99.4625 36.9974C97.2111 37.373 90.2413 38.5234 89.0001 46.5433C87.7589 54.5632 88.5262 54.7668 86.6482 62.513C84.7703 70.2593 79.5825 73.7665 71.3084 76.5642C67.2083 77.9506 56.3492 79.7032 52.1783 80.9605C46.2508 82.7472 42.5948 86.2004 36.4932 94.5047C32.5551 99.8645 29.0906 105.392 28.1004 109.07C25.7612 117.758 37.6311 127.601 44.2795 137.55C53.8251 125.903 39.2739 119.286 40.6109 111.228C40.7183 110.581 41.2381 108.461 42.2849 107.025C45.2281 102.988 49.4976 96.4297 52.1867 96.1263C55.4279 96.9099 55.2647 110.677 52.7209 138.547C52.6124 139.736 51.4905 141.317 49.3935 142.181Z" fill="white"/>
<path d="M70.8317 51.9825C66.4351 48.9989 55.4988 51.9824 54.6188 54.7143C54.091 56.3528 54.1951 58.0037 54.4658 59.7074C55.8432 69.311 59.4971 73.0223 62.2347 73.491C64.2273 73.8322 68.579 74.0739 70.8635 70.9589C74.0556 66.6062 72.9791 59.6695 72.4473 55.0679C71.9786 53.3812 71.3592 52.3404 70.8317 51.9825Z" fill="white"/>
</g>
<path d="M102.27 10.3644C102.635 9.79968 104.639 9.28701 106.83 8.72663C107.476 8.56124 108.139 8.3917 108.781 8.21544C109.827 7.92803 110.878 9.07754 110.388 10.0461C109.156 12.4856 107.323 16.0787 105.454 19.7404C102.505 25.5208 99.4679 31.4722 98.5719 33.3271C98.4182 33.6452 98.1394 33.884 97.8023 33.9897C95.8148 34.613 92.9708 35.8158 90.9142 36.9226C90.2593 37.2751 89.4511 36.9822 89.2636 36.2625C88.0757 31.7027 85.1853 18.5708 84.7671 15.3495C84.7163 14.9586 84.9208 14.6134 85.2651 14.4211C86.9516 13.4794 91.9454 10.7638 91.8059 11.7083C91.6381 12.8442 93.1138 24.243 93.7525 25.9783C93.9514 26.5189 94.433 26.6714 94.6915 26.1566C95.0749 25.3931 96.1333 23.1476 97.3445 20.5776C99.3826 16.2532 101.854 11.0102 102.27 10.3644Z" fill="white"/>
<path d="M102.27 10.3644C102.635 9.79968 104.639 9.28701 106.83 8.72663C107.476 8.56124 108.139 8.3917 108.781 8.21544C109.827 7.92803 110.878 9.07754 110.388 10.0461C109.156 12.4856 107.323 16.0787 105.454 19.7404C102.505 25.5208 99.4679 31.4722 98.5719 33.3271C98.4182 33.6452 98.1394 33.884 97.8023 33.9897C95.8148 34.613 92.9708 35.8158 90.9142 36.9226C90.2593 37.2751 89.4511 36.9822 89.2636 36.2625C88.0757 31.7027 85.1853 18.5708 84.7671 15.3495C84.7163 14.9586 84.9208 14.6134 85.2651 14.4211C86.9516 13.4794 91.9454 10.7638 91.8059 11.7083C91.6381 12.8442 93.1138 24.243 93.7525 25.9783C93.9514 26.5189 94.433 26.6714 94.6915 26.1566C95.0749 25.3931 96.1333 23.1476 97.3445 20.5776C99.3826 16.2532 101.854 11.0102 102.27 10.3644Z" stroke="white"/>
<path d="M102.27 10.3644C102.635 9.79968 104.639 9.28701 106.83 8.72663C107.476 8.56124 108.139 8.3917 108.781 8.21544C109.827 7.92803 110.878 9.07754 110.388 10.0461C109.156 12.4856 107.323 16.0787 105.454 19.7404C102.505 25.5208 99.4679 31.4722 98.5719 33.3271C98.4182 33.6452 98.1394 33.884 97.8023 33.9897C95.8148 34.613 92.9708 35.8158 90.9142 36.9226C90.2593 37.2751 89.4511 36.9822 89.2636 36.2625C88.0757 31.7027 85.1853 18.5708 84.7671 15.3495C84.7163 14.9586 84.9208 14.6134 85.2651 14.4211C86.9516 13.4794 91.9454 10.7638 91.8059 11.7083C91.6381 12.8442 93.1138 24.243 93.7525 25.9783C93.9514 26.5189 94.433 26.6714 94.6915 26.1566C95.0749 25.3931 96.1333 23.1476 97.3445 20.5776C99.3826 16.2532 101.854 11.0102 102.27 10.3644Z" fill="white"/>
<path d="M102.27 10.3644C102.635 9.79968 104.639 9.28701 106.83 8.72663C107.476 8.56124 108.139 8.3917 108.781 8.21544C109.827 7.92803 110.878 9.07754 110.388 10.0461C109.156 12.4856 107.323 16.0787 105.454 19.7404C102.505 25.5208 99.4679 31.4722 98.5719 33.3271C98.4182 33.6452 98.1394 33.884 97.8023 33.9897C95.8148 34.613 92.9708 35.8158 90.9142 36.9226C90.2593 37.2751 89.4511 36.9822 89.2636 36.2625C88.0757 31.7027 85.1853 18.5708 84.7671 15.3495C84.7163 14.9586 84.9208 14.6134 85.2651 14.4211C86.9516 13.4794 91.9454 10.7638 91.8059 11.7083C91.6381 12.8442 93.1138 24.243 93.7525 25.9783C93.9514 26.5189 94.433 26.6714 94.6915 26.1566C95.0749 25.3931 96.1333 23.1476 97.3445 20.5776C99.3826 16.2532 101.854 11.0102 102.27 10.3644Z" stroke="white"/>
</svg>
