<svg width="258" height="180" viewBox="0 0 258 180" fill="none" xmlns="http://www.w3.org/2000/svg">
<g clip-path="url(#clip0)">
<path opacity="0.1" d="M145.932 25.2763C129.395 25.2985 113.477 20.5872 98.2514 15.3535C83.0259 10.1197 67.9176 4.25892 51.6876 1.77543C41.2497 0.179066 29.3803 0.325807 21.2211 6.12209C13.3672 11.6983 11.0929 20.9274 9.99552 29.454C9.1703 35.8683 8.78977 42.6007 11.8805 48.4681C14.0265 52.5413 17.699 55.8985 20.2875 59.7805C29.3228 73.2852 23.8892 90.5362 15.1083 104.354C10.9911 110.838 6.16812 117.052 3.05531 123.906C-0.057496 130.761 -1.33403 138.534 1.84072 145.3C4.98671 152.005 12.0928 156.872 19.7189 160.196C35.2055 166.959 53.2363 168.409 70.7826 168.967C109.623 170.206 148.539 167.68 187.35 165.154C201.713 164.22 216.14 163.28 230.206 160.574C238.016 159.073 246.058 156.845 251.595 151.963C258.624 145.764 260.062 135.644 254.947 128.369C246.37 116.167 223.753 113.866 217.602 100.664C214.211 93.3954 217.135 85.06 221.443 78.0543C230.682 63.0222 246.584 49.5575 246.852 32.7445C247.036 21.1987 238.766 9.93514 226.414 4.91703C213.467 -0.338975 195.815 1.01282 186.744 10.8089C177.417 20.9007 160.534 25.2607 145.932 25.2763Z" fill="#4285F4"/>
<path d="M219.584 144.393C219.584 144.393 216.865 142.59 214.171 143.873C214.171 143.873 215 145.478 218.412 145.327L219.584 144.393Z" fill="#4285F4"/>
<path d="M219.93 144.489C219.93 144.489 220.757 147.655 218.682 149.809C218.682 149.809 217.434 148.504 218.682 145.307L219.93 144.489Z" fill="#4285F4"/>
<path d="M223.31 141.449C223.31 141.449 223.109 138.757 217.058 139.651C217.058 139.651 217.029 141.387 219.153 142.21C221.277 143.032 222.25 142.339 223.31 141.449Z" fill="#4285F4"/>
<path d="M223.691 141.431C223.691 141.431 226.248 142.256 223.967 147.959C223.967 147.959 222.279 147.581 221.976 145.311C221.673 143.041 222.571 142.258 223.691 141.431Z" fill="#4285F4"/>
<path d="M227.106 137.612C227.106 137.612 227.454 133.181 221.27 133.634C221.27 133.634 220.828 137.636 226.016 138.677L227.106 137.612Z" fill="#4285F4"/>
<path d="M231.193 132.609C231.193 132.609 230.345 127.587 224.164 129.083C224.164 129.083 224.142 133.425 230.184 133.805L231.193 132.609Z" fill="#4285F4"/>
<path d="M234.179 127.438C234.179 127.438 232.759 122.546 226.635 124.009C226.635 124.009 228.093 128.409 233.772 128.34L234.179 127.438Z" fill="#4285F4"/>
<path d="M237.016 122.386C237.016 122.386 235.628 117.31 229.715 118.829C229.715 118.829 231.688 123.651 236.624 123.244L237.016 122.386Z" fill="#4285F4"/>
<path d="M238.843 117.588C238.843 117.588 237.777 111.38 232.263 112.754C232.263 112.754 233.865 118.402 238.438 118.493L238.843 117.588Z" fill="#4285F4"/>
<path d="M240.558 111.792C240.558 111.792 239.277 105.535 233.699 107.345C233.699 107.345 235.885 113.259 240.162 112.648L240.558 111.792Z" fill="#4285F4"/>
<path d="M241.611 106.398C241.611 106.398 239.578 100.139 235.266 100.308C235.266 100.308 237.343 106.918 241.25 107.645L241.611 106.398Z" fill="#4285F4"/>
<path d="M242.292 101.133C242.292 101.133 240.08 93.6003 236.571 94.1806C236.571 94.1806 238.102 99.9391 242.168 102.307L242.292 101.133Z" fill="#4285F4"/>
<path d="M242.677 94.852C242.677 94.852 240.602 88.5755 237.146 88.3242C237.146 88.3242 238.558 94.5007 242.609 96.4839L242.677 94.852Z" fill="#4285F4"/>
<path d="M243.095 88.9914C243.095 88.9914 240.509 82.7082 238.228 82.5659C238.228 82.5659 239.352 88.7535 242.874 90.023L243.095 88.9914Z" fill="#4285F4"/>
<path d="M243.381 83.5396C243.381 83.5396 241.79 76.7161 239.505 76.1492C239.505 76.1492 239.817 81.732 243.151 84.051L243.381 83.5396Z" fill="#4285F4"/>
<path d="M244.243 76.3983C244.243 76.3983 242.571 70.9577 240.719 70.1284C240.719 70.1284 241.084 76.5428 243.816 77.7278L244.243 76.3983Z" fill="#4285F4"/>
<path d="M244.958 71.7292L245.294 62.1377C245.294 62.1377 241.832 69.368 244.708 73.4123L244.958 71.7292Z" fill="#4285F4"/>
<path d="M247.631 62.1888C247.631 62.1888 250.124 55.1853 250.728 54.7939C250.728 54.7939 245.839 59.3385 246.316 65.1837L247.631 62.1888Z" fill="#4285F4"/>
<path d="M227.275 137.578C227.275 137.578 231.66 137.002 231.529 143.23C231.529 143.23 227.567 143.879 226.272 138.728L227.275 137.578Z" fill="#4285F4"/>
<path d="M231.401 132.44C231.401 132.44 236.467 132.425 236.047 138.799C236.047 138.799 231.792 139.564 230.39 133.645L231.401 132.44Z" fill="#4285F4"/>
<path d="M234.228 127.849C234.228 127.849 238.828 125.681 241.77 131.277C241.77 131.277 237.522 133.083 233.821 128.754L234.228 127.849Z" fill="#4285F4"/>
<path d="M237.117 122.433C237.117 122.433 241.828 120.127 244.593 125.592C244.593 125.592 239.686 127.291 236.728 123.298L237.117 122.433Z" fill="#4285F4"/>
<path d="M238.783 117.724C238.783 117.724 243.316 113.372 246.934 117.773C246.934 117.773 242.303 121.354 238.575 118.693L238.783 117.724Z" fill="#4285F4"/>
<path d="M240.301 111.643C240.301 111.643 244.861 107.196 248.449 111.847C248.449 111.847 243.332 115.5 240.137 112.577L240.301 111.643Z" fill="#4285F4"/>
<path d="M241.153 106.22C241.153 106.22 244.666 100.662 248.803 101.902C248.803 101.902 245.157 107.787 241.193 107.525L241.153 106.22Z" fill="#4285F4"/>
<path d="M242.188 101.097C242.188 101.097 245.728 94.0983 249.078 95.3167C249.078 95.3167 246.524 100.697 242.097 102.278L242.188 101.097Z" fill="#4285F4"/>
<path d="M242.434 94.4874C242.434 94.4874 246.073 88.9779 249.482 89.6516C249.482 89.6516 246.507 95.2389 242.08 96.0815L242.434 94.4874Z" fill="#4285F4"/>
<path d="M242.717 88.8689C242.717 88.8689 245.538 82.6858 247.83 82.6436C247.83 82.6436 246.476 88.7822 242.907 89.9184L242.717 88.8689Z" fill="#4285F4"/>
<path d="M243.27 83.4064C243.27 83.4064 246.405 77.1454 248.761 77.1321C248.761 77.1321 247.157 82.4859 243.374 83.9556L243.27 83.4064Z" fill="#4285F4"/>
<path d="M243.741 76.7896C243.741 76.7896 246.086 71.6092 248.029 71.0222C248.029 71.0222 246.856 77.3365 244 78.1636L243.741 76.7896Z" fill="#4285F4"/>
<path d="M245.237 71.5402L250.478 63.5161C250.478 63.5161 249.135 71.4313 244.471 73.0765L245.237 71.5402Z" fill="#4285F4"/>
<path d="M248.834 62.8359C248.834 62.8359 254.925 58.6115 255.146 57.929C255.146 57.929 252.049 63.8453 246.297 64.8903L248.834 62.8359Z" fill="#4285F4"/>
<path d="M249.199 60.9349C249.199 60.9349 256.192 54.1781 257.978 54.1848C257.978 54.1848 252.21 54.4494 249.031 60.5747L249.199 60.9349Z" fill="#4285F4"/>
<path d="M243.81 77.7922L244.064 77.8256C245.378 67.4892 247.294 61.3727 249.458 60.6235L249.374 60.3789C247.08 61.1793 245.151 67.2024 243.81 77.7922Z" fill="#444053"/>
<path d="M241.876 102.512L242.261 102.543C242.343 101.578 242.405 100.591 242.447 99.6058C242.814 91.0503 243.383 83.193 244.131 77.3033L243.909 77.0254C243.159 82.9284 242.429 91.0214 242.062 99.5902C242.02 100.568 241.958 101.551 241.876 102.512Z" fill="#444053"/>
<path d="M212.407 149.324C212.474 149.295 219.25 146.254 226.283 139.001C230.404 134.754 233.828 129.876 236.427 124.549C239.679 117.895 241.662 109.717 242.325 101.773L241.925 101.962C240.432 119.794 232.354 131.978 225.932 138.614C218.967 145.803 212.266 148.813 212.2 148.842L212.407 149.324Z" fill="#444053"/>
<path d="M229.954 19.8562H17.3715C16.8692 19.8562 16.3876 20.0567 16.0324 20.4136C15.6772 20.7705 15.4777 21.2546 15.4777 21.7594V27.3044H231.848V21.7594C231.848 21.2546 231.648 20.7705 231.293 20.4136C230.938 20.0567 230.456 19.8562 229.954 19.8562Z" fill="#3F3D56"/>
<path d="M15.4777 27.3044V152.088C15.4777 153.106 15.88 154.082 16.5962 154.801C17.3123 155.521 18.2835 155.925 19.2963 155.925H228.029C229.042 155.925 230.013 155.521 230.729 154.801C231.445 154.082 231.848 153.106 231.848 152.088V27.3044H15.4777Z" fill="white"/>
<path opacity="0.8" d="M18.9047 24.4139C19.3934 24.4139 19.7896 24.0158 19.7896 23.5246C19.7896 23.0334 19.3934 22.6353 18.9047 22.6353C18.4159 22.6353 18.0197 23.0334 18.0197 23.5246C18.0197 24.0158 18.4159 24.4139 18.9047 24.4139Z" fill="#FA5959"/>
<path opacity="0.8" d="M21.3383 24.4139C21.827 24.4139 22.2232 24.0158 22.2232 23.5246C22.2232 23.0334 21.827 22.6353 21.3383 22.6353C20.8496 22.6353 20.4534 23.0334 20.4534 23.5246C20.4534 24.0158 20.8496 24.4139 21.3383 24.4139Z" fill="#FED253"/>
<path opacity="0.8" d="M23.7719 24.4139C24.2607 24.4139 24.6569 24.0158 24.6569 23.5246C24.6569 23.0334 24.2607 22.6353 23.7719 22.6353C23.2832 22.6353 22.887 23.0334 22.887 23.5246C22.887 24.0158 23.2832 24.4139 23.7719 24.4139Z" fill="#8CCF4D"/>
<path opacity="0.05" d="M209.483 48.1106H35.5904V124.954H209.483V48.1106Z" fill="black"/>
<path d="M208.155 48.6931H36.9178V123.842H208.155V48.6931Z" fill="#3F3D56"/>
<path d="M83.5988 68.0339C80.2296 68.0339 76.936 69.038 74.1346 70.9191C71.3331 72.8003 69.1497 75.474 67.8603 78.6023C66.571 81.7305 66.2336 85.1727 66.8909 88.4937C67.5482 91.8146 69.1707 94.865 71.5531 97.2593C73.9355 99.6535 76.9709 101.284 80.2754 101.945C83.58 102.605 87.0052 102.266 90.118 100.97C93.2307 99.6746 95.8913 97.4803 97.7631 94.665C99.635 91.8497 100.634 88.5397 100.634 85.1537C100.634 82.9055 100.193 80.6793 99.3374 78.6023C98.4813 76.5252 97.2265 74.6379 95.6446 73.0482C94.0627 71.4585 92.1848 70.1975 90.118 69.3371C88.0511 68.4768 85.8359 68.0339 83.5988 68.0339ZM86.6541 85.5651V93.6714H80.6321V85.5651C79.7987 84.9311 79.1845 84.0501 78.8762 83.0465C78.5679 82.0429 78.581 80.9673 78.9137 79.9715C79.2464 78.9758 79.882 78.1102 80.7305 77.497C81.5791 76.8838 82.5979 76.5539 83.6431 76.5539C84.6883 76.5539 85.7071 76.8838 86.5557 77.497C87.4042 78.1102 88.0397 78.9758 88.3725 79.9715C88.7052 80.9673 88.7183 82.0429 88.41 83.0465C88.1017 84.0501 87.4875 84.9311 86.6541 85.5651Z" fill="#447ACC"/>
<path opacity="0.05" d="M83.5988 68.0339C80.2296 68.0339 76.936 69.038 74.1346 70.9191C71.3331 72.8003 69.1497 75.474 67.8603 78.6023C66.571 81.7305 66.2336 85.1727 66.8909 88.4937C67.5482 91.8146 69.1707 94.865 71.5531 97.2593C73.9355 99.6535 76.9709 101.284 80.2754 101.945C83.58 102.605 87.0052 102.266 90.118 100.97C93.2307 99.6746 95.8913 97.4803 97.7631 94.665C99.635 91.8497 100.634 88.5397 100.634 85.1537C100.634 82.9055 100.193 80.6793 99.3374 78.6023C98.4813 76.5252 97.2265 74.6379 95.6446 73.0482C94.0627 71.4585 92.1848 70.1975 90.118 69.3371C88.0511 68.4768 85.8359 68.0339 83.5988 68.0339ZM86.6541 85.5651V93.6714H80.6321V85.5651C79.7987 84.9311 79.1845 84.0501 78.8762 83.0465C78.5679 82.0429 78.581 80.9673 78.9137 79.9715C79.2464 78.9758 79.882 78.1102 80.7305 77.497C81.5791 76.8838 82.5979 76.5539 83.6431 76.5539C84.6883 76.5539 85.7071 76.8838 86.5557 77.497C87.4042 78.1102 88.0397 78.9758 88.3725 79.9715C88.7052 80.9673 88.7183 82.0429 88.41 83.0465C88.1017 84.0501 87.4875 84.9311 86.6541 85.5651Z" fill="black"/>
<path d="M83.5988 63.1426C79.2669 63.1426 75.0323 64.4335 71.4305 66.8521C67.8286 69.2708 65.0213 72.7084 63.3636 76.7305C61.7058 80.7525 61.2721 85.1782 62.1172 89.448C62.9623 93.7177 65.0483 97.6397 68.1114 100.718C71.1746 103.796 75.0772 105.893 79.3259 106.742C83.5745 107.591 87.9784 107.155 91.9805 105.489C95.9827 103.824 99.4034 101.002 101.81 97.3826C104.217 93.7628 105.501 89.5072 105.501 85.1538C105.501 79.3161 103.194 73.7174 99.0862 69.5895C94.9787 65.4616 89.4077 63.1426 83.5988 63.1426ZM87.5258 85.6829V96.1038H79.7825V85.6829C78.7106 84.8678 77.9206 83.7348 77.5239 82.4441C77.1273 81.1533 77.1441 79.77 77.5719 78.4894C77.9997 77.2087 78.817 76.0955 79.9083 75.3068C80.9997 74.5181 82.3099 74.0938 83.6541 74.0938C84.9984 74.0938 86.3086 74.5181 87.3999 75.3068C88.4913 76.0955 89.3085 77.2087 89.7364 78.4894C90.1642 79.77 90.181 81.1533 89.7843 82.4441C89.3877 83.7348 88.5977 84.8678 87.5258 85.6829Z" fill="#447ACC"/>
<path d="M185.368 82.2656H114.572V89.825H185.368V82.2656Z" fill="white"/>
<path d="M185.368 96.0505H170.103V103.61H185.368V96.0505Z" fill="#4285F4"/>
<path d="M121.541 85.9318H120.26L121.399 84.789C121.42 84.7679 121.431 84.7396 121.431 84.7101C121.431 84.6806 121.42 84.6523 121.399 84.6312C121.389 84.6208 121.377 84.6125 121.363 84.6068C121.35 84.6012 121.335 84.5983 121.321 84.5983C121.306 84.5983 121.292 84.6012 121.278 84.6068C121.265 84.6125 121.253 84.6208 121.242 84.6312L120.103 85.7762V84.4867C120.103 84.4572 120.091 84.4289 120.071 84.4081C120.05 84.3872 120.022 84.3755 119.992 84.3755C119.963 84.3761 119.935 84.3879 119.915 84.4087C119.894 84.4294 119.882 84.4574 119.882 84.4867V85.7762L118.745 84.6245C118.734 84.6141 118.722 84.6058 118.709 84.6002C118.695 84.5945 118.681 84.5916 118.666 84.5916C118.651 84.5916 118.637 84.5945 118.623 84.6002C118.61 84.6058 118.598 84.6141 118.587 84.6245C118.567 84.6457 118.556 84.674 118.556 84.7034C118.556 84.7329 118.567 84.7612 118.587 84.7824L119.727 85.9252H118.444C118.415 85.9257 118.387 85.9376 118.366 85.9584C118.345 85.9791 118.334 86.007 118.333 86.0363C118.333 86.0658 118.345 86.0941 118.365 86.1149C118.386 86.1358 118.414 86.1475 118.444 86.1475H119.727L118.587 87.2925C118.567 87.3137 118.556 87.342 118.556 87.3715C118.556 87.4009 118.567 87.4292 118.587 87.4504C118.609 87.4704 118.637 87.4815 118.666 87.4815C118.695 87.4815 118.723 87.4704 118.745 87.4504L119.882 86.3054V87.5927C119.882 87.6222 119.893 87.6504 119.914 87.6713C119.935 87.6921 119.963 87.7038 119.992 87.7038C120.022 87.7038 120.05 87.6921 120.071 87.6713C120.091 87.6504 120.103 87.6222 120.103 87.5927V86.3054L121.242 87.4504C121.264 87.4704 121.292 87.4815 121.321 87.4815C121.35 87.4815 121.378 87.4704 121.399 87.4504C121.42 87.4292 121.431 87.4009 121.431 87.3715C121.431 87.342 121.42 87.3137 121.399 87.2925L120.26 86.1475H121.541C121.57 86.1475 121.598 86.1358 121.619 86.1149C121.64 86.0941 121.652 86.0658 121.652 86.0363C121.65 86.008 121.638 85.9814 121.617 85.962C121.596 85.9426 121.569 85.9318 121.541 85.9318Z" fill="#4285F4"/>
<path d="M126.187 85.9318H124.906L126.045 84.789C126.066 84.7679 126.077 84.7396 126.077 84.7101C126.077 84.6806 126.066 84.6523 126.045 84.6312C126.035 84.6208 126.023 84.6125 126.009 84.6068C125.996 84.6012 125.981 84.5983 125.967 84.5983C125.952 84.5983 125.938 84.6012 125.924 84.6068C125.911 84.6125 125.899 84.6208 125.888 84.6312L124.749 85.7762V84.4867C124.749 84.4572 124.737 84.4289 124.717 84.4081C124.696 84.3872 124.668 84.3755 124.638 84.3755C124.609 84.3761 124.581 84.3879 124.561 84.4087C124.54 84.4294 124.528 84.4574 124.528 84.4867V85.7762L123.391 84.6245C123.38 84.6141 123.368 84.6058 123.355 84.6002C123.341 84.5945 123.327 84.5916 123.312 84.5916C123.297 84.5916 123.283 84.5945 123.269 84.6002C123.256 84.6058 123.244 84.6141 123.233 84.6245C123.213 84.6457 123.202 84.674 123.202 84.7034C123.202 84.7329 123.213 84.7612 123.233 84.7824L124.373 85.9252H123.09C123.061 85.9257 123.033 85.9376 123.012 85.9584C122.991 85.9791 122.98 86.007 122.979 86.0363C122.979 86.0658 122.991 86.0941 123.011 86.1149C123.032 86.1358 123.06 86.1475 123.09 86.1475H124.373L123.233 87.2925C123.213 87.3137 123.202 87.342 123.202 87.3715C123.202 87.4009 123.213 87.4292 123.233 87.4504C123.255 87.4704 123.283 87.4815 123.312 87.4815C123.341 87.4815 123.369 87.4704 123.391 87.4504L124.528 86.3054V87.5927C124.528 87.6222 124.539 87.6504 124.56 87.6713C124.581 87.6921 124.609 87.7038 124.638 87.7038C124.668 87.7038 124.696 87.6921 124.717 87.6713C124.737 87.6504 124.749 87.6222 124.749 87.5927V86.3054L125.888 87.4504C125.91 87.4704 125.938 87.4815 125.967 87.4815C125.996 87.4815 126.024 87.4704 126.045 87.4504C126.066 87.4292 126.077 87.4009 126.077 87.3715C126.077 87.342 126.066 87.3137 126.045 87.2925L124.906 86.1475H126.187C126.216 86.1475 126.244 86.1358 126.265 86.1149C126.286 86.0941 126.298 86.0658 126.298 86.0363C126.296 86.008 126.284 85.9814 126.263 85.962C126.242 85.9426 126.215 85.9318 126.187 85.9318Z" fill="#4285F4"/>
<path d="M130.833 85.9318H129.552L130.691 84.789C130.712 84.7679 130.723 84.7396 130.723 84.7101C130.723 84.6806 130.712 84.6523 130.691 84.6312C130.681 84.6208 130.669 84.6125 130.655 84.6068C130.642 84.6012 130.627 84.5983 130.613 84.5983C130.598 84.5983 130.584 84.6012 130.57 84.6068C130.557 84.6125 130.545 84.6208 130.534 84.6312L129.395 85.7762V84.4867C129.395 84.4572 129.383 84.4289 129.363 84.4081C129.342 84.3872 129.314 84.3755 129.284 84.3755C129.255 84.3761 129.227 84.3879 129.207 84.4087C129.186 84.4294 129.174 84.4574 129.174 84.4867V85.7762L128.037 84.6245C128.026 84.6141 128.014 84.6058 128.001 84.6002C127.987 84.5945 127.973 84.5916 127.958 84.5916C127.943 84.5916 127.929 84.5945 127.915 84.6002C127.902 84.6058 127.89 84.6141 127.879 84.6245C127.859 84.6457 127.848 84.674 127.848 84.7034C127.848 84.7329 127.859 84.7612 127.879 84.7824L129.019 85.9252H127.736C127.706 85.9257 127.679 85.9376 127.658 85.9584C127.637 85.9791 127.626 86.007 127.625 86.0363C127.625 86.0658 127.637 86.0941 127.657 86.1149C127.678 86.1358 127.706 86.1475 127.736 86.1475H129.019L127.879 87.2925C127.859 87.3137 127.848 87.342 127.848 87.3715C127.848 87.4009 127.859 87.4292 127.879 87.4504C127.901 87.4704 127.929 87.4815 127.958 87.4815C127.987 87.4815 128.015 87.4704 128.037 87.4504L129.174 86.3054V87.5927C129.174 87.6222 129.185 87.6504 129.206 87.6713C129.227 87.6921 129.255 87.7038 129.284 87.7038C129.314 87.7038 129.342 87.6921 129.363 87.6713C129.383 87.6504 129.395 87.6222 129.395 87.5927V86.3054L130.534 87.4504C130.556 87.4704 130.584 87.4815 130.613 87.4815C130.642 87.4815 130.67 87.4704 130.691 87.4504C130.712 87.4292 130.723 87.4009 130.723 87.3715C130.723 87.342 130.712 87.3137 130.691 87.2925L129.552 86.1475H130.833C130.862 86.1475 130.89 86.1358 130.911 86.1149C130.932 86.0941 130.944 86.0658 130.944 86.0363C130.942 86.008 130.929 85.9814 130.909 85.962C130.888 85.9426 130.861 85.9318 130.833 85.9318Z" fill="#4285F4"/>
<path d="M135.479 85.9318H134.198L135.337 84.789C135.358 84.7679 135.369 84.7396 135.369 84.7101C135.369 84.6806 135.358 84.6523 135.337 84.6312C135.327 84.6208 135.315 84.6125 135.301 84.6068C135.288 84.6012 135.273 84.5983 135.259 84.5983C135.244 84.5983 135.23 84.6012 135.216 84.6068C135.203 84.6125 135.191 84.6208 135.18 84.6312L134.041 85.7762V84.4867C134.041 84.4572 134.029 84.4289 134.008 84.4081C133.988 84.3872 133.96 84.3755 133.93 84.3755C133.901 84.3761 133.873 84.3879 133.853 84.4087C133.832 84.4294 133.82 84.4574 133.82 84.4867V85.7762L132.682 84.6245C132.672 84.6141 132.66 84.6058 132.646 84.6002C132.633 84.5945 132.619 84.5916 132.604 84.5916C132.589 84.5916 132.575 84.5945 132.561 84.6002C132.548 84.6058 132.536 84.6141 132.525 84.6245C132.505 84.6457 132.494 84.674 132.494 84.7034C132.494 84.7329 132.505 84.7612 132.525 84.7824L133.665 85.9252H132.382C132.352 85.9257 132.325 85.9376 132.304 85.9584C132.283 85.9791 132.272 86.007 132.271 86.0363C132.271 86.0658 132.283 86.0941 132.303 86.1149C132.324 86.1358 132.352 86.1475 132.382 86.1475H133.665L132.525 87.2925C132.505 87.3137 132.494 87.342 132.494 87.3715C132.494 87.4009 132.505 87.4292 132.525 87.4504C132.547 87.4704 132.575 87.4815 132.604 87.4815C132.633 87.4815 132.661 87.4704 132.682 87.4504L133.82 86.3054V87.5927C133.82 87.6222 133.831 87.6504 133.852 87.6713C133.873 87.6921 133.901 87.7038 133.93 87.7038C133.96 87.7038 133.988 87.6921 134.008 87.6713C134.029 87.6504 134.041 87.6222 134.041 87.5927V86.3054L135.18 87.4504C135.202 87.4704 135.23 87.4815 135.259 87.4815C135.288 87.4815 135.316 87.4704 135.337 87.4504C135.358 87.4292 135.369 87.4009 135.369 87.3715C135.369 87.342 135.358 87.3137 135.337 87.2925L134.198 86.1475H135.479C135.508 86.1475 135.536 86.1358 135.557 86.1149C135.578 86.0941 135.59 86.0658 135.59 86.0363C135.588 86.008 135.575 85.9814 135.555 85.962C135.534 85.9426 135.507 85.9318 135.479 85.9318Z" fill="#4285F4"/>
<path d="M140.125 85.9318H138.844L139.983 84.789C140.004 84.7679 140.015 84.7396 140.015 84.7101C140.015 84.6806 140.004 84.6523 139.983 84.6312C139.973 84.6208 139.961 84.6125 139.947 84.6068C139.934 84.6012 139.919 84.5983 139.905 84.5983C139.89 84.5983 139.876 84.6012 139.862 84.6068C139.849 84.6125 139.837 84.6208 139.826 84.6312L138.687 85.7762V84.4867C138.687 84.4572 138.675 84.4289 138.654 84.4081C138.634 84.3872 138.606 84.3755 138.576 84.3755C138.547 84.3761 138.519 84.3879 138.499 84.4087C138.478 84.4294 138.466 84.4574 138.466 84.4867V85.7762L137.328 84.6245C137.318 84.6141 137.306 84.6058 137.292 84.6002C137.279 84.5945 137.265 84.5916 137.25 84.5916C137.235 84.5916 137.221 84.5945 137.207 84.6002C137.194 84.6058 137.182 84.6141 137.171 84.6245C137.151 84.6457 137.14 84.674 137.14 84.7034C137.14 84.7329 137.151 84.7612 137.171 84.7824L138.311 85.9252H137.028C136.998 85.9257 136.971 85.9376 136.95 85.9584C136.929 85.9791 136.918 86.007 136.917 86.0363C136.917 86.0658 136.929 86.0941 136.949 86.1149C136.97 86.1358 136.998 86.1475 137.028 86.1475H138.311L137.171 87.2925C137.151 87.3137 137.14 87.342 137.14 87.3715C137.14 87.4009 137.151 87.4292 137.171 87.4504C137.193 87.4704 137.221 87.4815 137.25 87.4815C137.279 87.4815 137.307 87.4704 137.328 87.4504L138.466 86.3054V87.5927C138.466 87.6222 138.477 87.6504 138.498 87.6713C138.519 87.6921 138.547 87.7038 138.576 87.7038C138.606 87.7038 138.634 87.6921 138.654 87.6713C138.675 87.6504 138.687 87.6222 138.687 87.5927V86.3054L139.826 87.4504C139.848 87.4704 139.876 87.4815 139.905 87.4815C139.934 87.4815 139.962 87.4704 139.983 87.4504C140.004 87.4292 140.015 87.4009 140.015 87.3715C140.015 87.342 140.004 87.3137 139.983 87.2925L138.844 86.1475H140.125C140.154 86.1475 140.182 86.1358 140.203 86.1149C140.224 86.0941 140.236 86.0658 140.236 86.0363C140.234 86.008 140.221 85.9814 140.201 85.962C140.18 85.9426 140.153 85.9318 140.125 85.9318Z" fill="#4285F4"/>
<path d="M144.771 85.9318H143.49L144.629 84.789C144.65 84.7679 144.661 84.7396 144.661 84.7101C144.661 84.6806 144.65 84.6523 144.629 84.6312C144.619 84.6208 144.607 84.6125 144.593 84.6068C144.58 84.6012 144.565 84.5983 144.551 84.5983C144.536 84.5983 144.522 84.6012 144.508 84.6068C144.495 84.6125 144.482 84.6208 144.472 84.6312L143.333 85.7762V84.4867C143.333 84.4572 143.321 84.4289 143.3 84.4081C143.28 84.3872 143.252 84.3755 143.222 84.3755C143.193 84.3761 143.165 84.3879 143.145 84.4087C143.124 84.4294 143.112 84.4574 143.112 84.4867V85.7762L141.974 84.6245C141.964 84.6141 141.952 84.6058 141.938 84.6002C141.925 84.5945 141.91 84.5916 141.896 84.5916C141.881 84.5916 141.867 84.5945 141.853 84.6002C141.84 84.6058 141.828 84.6141 141.817 84.6245C141.797 84.6457 141.786 84.674 141.786 84.7034C141.786 84.7329 141.797 84.7612 141.817 84.7824L142.957 85.9252H141.674C141.644 85.9257 141.617 85.9376 141.596 85.9584C141.575 85.9791 141.563 86.007 141.563 86.0363C141.563 86.0658 141.575 86.0941 141.595 86.1149C141.616 86.1358 141.644 86.1475 141.674 86.1475H142.957L141.817 87.2925C141.797 87.3137 141.786 87.342 141.786 87.3715C141.786 87.4009 141.797 87.4292 141.817 87.4504C141.839 87.4704 141.867 87.4815 141.896 87.4815C141.925 87.4815 141.953 87.4704 141.974 87.4504L143.112 86.3054V87.5927C143.112 87.6222 143.123 87.6504 143.144 87.6713C143.165 87.6921 143.193 87.7038 143.222 87.7038C143.252 87.7038 143.28 87.6921 143.3 87.6713C143.321 87.6504 143.333 87.6222 143.333 87.5927V86.3054L144.472 87.4504C144.493 87.4704 144.522 87.4815 144.551 87.4815C144.58 87.4815 144.608 87.4704 144.629 87.4504C144.65 87.4292 144.661 87.4009 144.661 87.3715C144.661 87.342 144.65 87.3137 144.629 87.2925L143.49 86.1475H144.771C144.8 86.1475 144.828 86.1358 144.849 86.1149C144.87 86.0941 144.881 86.0658 144.881 86.0363C144.88 86.008 144.867 85.9814 144.847 85.962C144.826 85.9426 144.799 85.9318 144.771 85.9318Z" fill="#4285F4"/>
<path d="M149.417 85.9318H148.136L149.275 84.789C149.296 84.7679 149.307 84.7396 149.307 84.7101C149.307 84.6806 149.296 84.6523 149.275 84.6312C149.265 84.6208 149.253 84.6125 149.239 84.6068C149.226 84.6012 149.211 84.5983 149.197 84.5983C149.182 84.5983 149.168 84.6012 149.154 84.6068C149.141 84.6125 149.128 84.6208 149.118 84.6312L147.979 85.7762V84.4867C147.979 84.4572 147.967 84.4289 147.946 84.4081C147.926 84.3872 147.898 84.3755 147.868 84.3755C147.839 84.3761 147.811 84.3879 147.791 84.4087C147.77 84.4294 147.758 84.4574 147.758 84.4867V85.7762L146.62 84.6245C146.61 84.6141 146.598 84.6058 146.584 84.6002C146.571 84.5945 146.556 84.5916 146.542 84.5916C146.527 84.5916 146.513 84.5945 146.499 84.6002C146.486 84.6058 146.474 84.6141 146.463 84.6245C146.443 84.6457 146.432 84.674 146.432 84.7034C146.432 84.7329 146.443 84.7612 146.463 84.7824L147.603 85.9252H146.32C146.29 85.9257 146.263 85.9376 146.242 85.9584C146.221 85.9791 146.209 86.007 146.209 86.0363C146.209 86.0658 146.221 86.0941 146.241 86.1149C146.262 86.1358 146.29 86.1475 146.32 86.1475H147.603L146.463 87.2925C146.443 87.3137 146.432 87.342 146.432 87.3715C146.432 87.4009 146.443 87.4292 146.463 87.4504C146.485 87.4704 146.513 87.4815 146.542 87.4815C146.571 87.4815 146.599 87.4704 146.62 87.4504L147.758 86.3054V87.5927C147.758 87.6222 147.769 87.6504 147.79 87.6713C147.811 87.6921 147.839 87.7038 147.868 87.7038C147.898 87.7038 147.926 87.6921 147.946 87.6713C147.967 87.6504 147.979 87.6222 147.979 87.5927V86.3054L149.118 87.4504C149.139 87.4704 149.168 87.4815 149.197 87.4815C149.226 87.4815 149.254 87.4704 149.275 87.4504C149.296 87.4292 149.307 87.4009 149.307 87.3715C149.307 87.342 149.296 87.3137 149.275 87.2925L148.136 86.1475H149.417C149.446 86.1475 149.474 86.1358 149.495 86.1149C149.516 86.0941 149.527 86.0658 149.527 86.0363C149.526 86.008 149.513 85.9814 149.493 85.962C149.472 85.9426 149.445 85.9318 149.417 85.9318Z" fill="#4285F4"/>
<path d="M154.063 85.9318H152.782L153.921 84.789C153.942 84.7679 153.953 84.7396 153.953 84.7101C153.953 84.6806 153.942 84.6523 153.921 84.6312C153.911 84.6208 153.899 84.6125 153.885 84.6068C153.872 84.6012 153.857 84.5983 153.843 84.5983C153.828 84.5983 153.814 84.6012 153.8 84.6068C153.787 84.6125 153.774 84.6208 153.764 84.6312L152.625 85.7762V84.4867C152.625 84.4572 152.613 84.4289 152.592 84.4081C152.572 84.3872 152.544 84.3755 152.514 84.3755C152.485 84.3761 152.457 84.3879 152.437 84.4087C152.416 84.4294 152.404 84.4574 152.404 84.4867V85.7762L151.266 84.6245C151.256 84.6141 151.244 84.6058 151.23 84.6002C151.217 84.5945 151.202 84.5916 151.188 84.5916C151.173 84.5916 151.159 84.5945 151.145 84.6002C151.132 84.6058 151.12 84.6141 151.109 84.6245C151.089 84.6457 151.077 84.674 151.077 84.7034C151.077 84.7329 151.089 84.7612 151.109 84.7824L152.249 85.9252H150.966C150.936 85.9257 150.909 85.9376 150.888 85.9584C150.867 85.9791 150.855 86.007 150.855 86.0363C150.855 86.0658 150.867 86.0941 150.887 86.1149C150.908 86.1358 150.936 86.1475 150.966 86.1475H152.249L151.109 87.2925C151.089 87.3137 151.077 87.342 151.077 87.3715C151.077 87.4009 151.089 87.4292 151.109 87.4504C151.131 87.4704 151.159 87.4815 151.188 87.4815C151.217 87.4815 151.245 87.4704 151.266 87.4504L152.404 86.3054V87.5927C152.404 87.6222 152.415 87.6504 152.436 87.6713C152.457 87.6921 152.485 87.7038 152.514 87.7038C152.544 87.7038 152.572 87.6921 152.592 87.6713C152.613 87.6504 152.625 87.6222 152.625 87.5927V86.3054L153.764 87.4504C153.785 87.4704 153.814 87.4815 153.843 87.4815C153.872 87.4815 153.9 87.4704 153.921 87.4504C153.942 87.4292 153.953 87.4009 153.953 87.3715C153.953 87.342 153.942 87.3137 153.921 87.2925L152.782 86.1475H154.063C154.092 86.1475 154.12 86.1358 154.141 86.1149C154.162 86.0941 154.173 86.0658 154.173 86.0363C154.172 86.008 154.159 85.9814 154.139 85.962C154.118 85.9426 154.091 85.9318 154.063 85.9318Z" fill="#4285F4"/>
<path d="M158.709 85.9318H157.428L158.567 84.789C158.588 84.7679 158.599 84.7396 158.599 84.7101C158.599 84.6806 158.588 84.6523 158.567 84.6312C158.557 84.6208 158.545 84.6125 158.531 84.6068C158.518 84.6012 158.503 84.5983 158.489 84.5983C158.474 84.5983 158.46 84.6012 158.446 84.6068C158.433 84.6125 158.42 84.6208 158.41 84.6312L157.271 85.7762V84.4867C157.271 84.4572 157.259 84.4289 157.238 84.4081C157.218 84.3872 157.19 84.3755 157.16 84.3755C157.131 84.3761 157.103 84.3879 157.083 84.4087C157.062 84.4294 157.05 84.4574 157.05 84.4867V85.7762L155.912 84.6245C155.902 84.6141 155.89 84.6058 155.876 84.6002C155.863 84.5945 155.848 84.5916 155.834 84.5916C155.819 84.5916 155.805 84.5945 155.791 84.6002C155.778 84.6058 155.766 84.6141 155.755 84.6245C155.735 84.6457 155.723 84.674 155.723 84.7034C155.723 84.7329 155.735 84.7612 155.755 84.7824L156.895 85.9252H155.612C155.582 85.9257 155.555 85.9376 155.534 85.9584C155.513 85.9791 155.501 86.007 155.501 86.0363C155.501 86.0658 155.513 86.0941 155.533 86.1149C155.554 86.1358 155.582 86.1475 155.612 86.1475H156.895L155.755 87.2925C155.735 87.3137 155.723 87.342 155.723 87.3715C155.723 87.4009 155.735 87.4292 155.755 87.4504C155.777 87.4704 155.805 87.4815 155.834 87.4815C155.863 87.4815 155.891 87.4704 155.912 87.4504L157.05 86.3054V87.5927C157.05 87.6222 157.061 87.6504 157.082 87.6713C157.103 87.6921 157.131 87.7038 157.16 87.7038C157.19 87.7038 157.218 87.6921 157.238 87.6713C157.259 87.6504 157.271 87.6222 157.271 87.5927V86.3054L158.41 87.4504C158.431 87.4704 158.46 87.4815 158.489 87.4815C158.518 87.4815 158.546 87.4704 158.567 87.4504C158.588 87.4292 158.599 87.4009 158.599 87.3715C158.599 87.342 158.588 87.3137 158.567 87.2925L157.428 86.1475H158.709C158.738 86.1475 158.766 86.1358 158.787 86.1149C158.808 86.0941 158.819 86.0658 158.819 86.0363C158.818 86.008 158.805 85.9814 158.785 85.962C158.764 85.9426 158.737 85.9318 158.709 85.9318Z" fill="#4285F4"/>
<path d="M163.355 85.9318H162.074L163.213 84.789C163.234 84.7679 163.245 84.7396 163.245 84.7101C163.245 84.6806 163.234 84.6523 163.213 84.6312C163.203 84.6208 163.191 84.6125 163.177 84.6068C163.164 84.6012 163.149 84.5983 163.135 84.5983C163.12 84.5983 163.106 84.6012 163.092 84.6068C163.079 84.6125 163.066 84.6208 163.056 84.6312L161.917 85.7762V84.4867C161.917 84.4572 161.905 84.4289 161.884 84.4081C161.864 84.3872 161.835 84.3755 161.806 84.3755C161.777 84.3761 161.749 84.3879 161.729 84.4087C161.708 84.4294 161.696 84.4574 161.696 84.4867V85.7762L160.558 84.6245C160.548 84.6141 160.536 84.6058 160.522 84.6002C160.509 84.5945 160.494 84.5916 160.48 84.5916C160.465 84.5916 160.451 84.5945 160.437 84.6002C160.424 84.6058 160.412 84.6141 160.401 84.6245C160.381 84.6457 160.369 84.674 160.369 84.7034C160.369 84.7329 160.381 84.7612 160.401 84.7824L161.541 85.9252H160.257C160.228 85.9257 160.2 85.9376 160.18 85.9584C160.159 85.9791 160.147 86.007 160.147 86.0363C160.147 86.0658 160.158 86.0941 160.179 86.1149C160.2 86.1358 160.228 86.1475 160.257 86.1475H161.541L160.401 87.2925C160.381 87.3137 160.369 87.342 160.369 87.3715C160.369 87.4009 160.381 87.4292 160.401 87.4504C160.423 87.4704 160.451 87.4815 160.48 87.4815C160.509 87.4815 160.537 87.4704 160.558 87.4504L161.696 86.3054V87.5927C161.696 87.6222 161.707 87.6504 161.728 87.6713C161.749 87.6921 161.777 87.7038 161.806 87.7038C161.835 87.7038 161.864 87.6921 161.884 87.6713C161.905 87.6504 161.917 87.6222 161.917 87.5927V86.3054L163.056 87.4504C163.077 87.4704 163.105 87.4815 163.135 87.4815C163.164 87.4815 163.192 87.4704 163.213 87.4504C163.234 87.4292 163.245 87.4009 163.245 87.3715C163.245 87.342 163.234 87.3137 163.213 87.2925L162.074 86.1475H163.355C163.384 86.1475 163.412 86.1358 163.433 86.1149C163.454 86.0941 163.465 86.0658 163.465 86.0363C163.464 86.008 163.451 85.9814 163.431 85.962C163.41 85.9426 163.383 85.9318 163.355 85.9318Z" fill="#4285F4"/>
<path d="M168.001 85.9318H166.72L167.859 84.789C167.88 84.7679 167.891 84.7396 167.891 84.7101C167.891 84.6806 167.88 84.6523 167.859 84.6312C167.849 84.6208 167.837 84.6125 167.823 84.6068C167.81 84.6012 167.795 84.5983 167.781 84.5983C167.766 84.5983 167.752 84.6012 167.738 84.6068C167.725 84.6125 167.712 84.6208 167.702 84.6312L166.563 85.7762V84.4867C166.563 84.4572 166.551 84.4289 166.53 84.4081C166.51 84.3872 166.481 84.3755 166.452 84.3755C166.423 84.3761 166.395 84.3879 166.375 84.4087C166.354 84.4294 166.342 84.4574 166.342 84.4867V85.7762L165.204 84.6245C165.194 84.6141 165.182 84.6058 165.168 84.6002C165.155 84.5945 165.14 84.5916 165.126 84.5916C165.111 84.5916 165.097 84.5945 165.083 84.6002C165.07 84.6058 165.058 84.6141 165.047 84.6245C165.027 84.6457 165.015 84.674 165.015 84.7034C165.015 84.7329 165.027 84.7612 165.047 84.7824L166.187 85.9252H164.903C164.874 85.9257 164.846 85.9376 164.826 85.9584C164.805 85.9791 164.793 86.007 164.793 86.0363C164.793 86.0658 164.804 86.0941 164.825 86.1149C164.846 86.1358 164.874 86.1475 164.903 86.1475H166.187L165.047 87.2925C165.027 87.3137 165.015 87.342 165.015 87.3715C165.015 87.4009 165.027 87.4292 165.047 87.4504C165.069 87.4704 165.097 87.4815 165.126 87.4815C165.155 87.4815 165.183 87.4704 165.204 87.4504L166.342 86.3054V87.5927C166.342 87.6222 166.353 87.6504 166.374 87.6713C166.395 87.6921 166.423 87.7038 166.452 87.7038C166.481 87.7038 166.51 87.6921 166.53 87.6713C166.551 87.6504 166.563 87.6222 166.563 87.5927V86.3054L167.702 87.4504C167.723 87.4704 167.751 87.4815 167.781 87.4815C167.81 87.4815 167.838 87.4704 167.859 87.4504C167.88 87.4292 167.891 87.4009 167.891 87.3715C167.891 87.342 167.88 87.3137 167.859 87.2925L166.72 86.1475H168.001C168.03 86.1475 168.058 86.1358 168.079 86.1149C168.1 86.0941 168.111 86.0658 168.111 86.0363C168.11 86.008 168.097 85.9814 168.077 85.962C168.056 85.9426 168.029 85.9318 168.001 85.9318Z" fill="#4285F4"/>
<path d="M203.618 112.979C203.611 112.71 203.578 112.443 203.518 112.181C203.319 111.429 202.87 110.52 202.131 110.293C201.368 110.058 200.631 109.746 199.932 109.359C199.799 106.976 200.343 104.537 199.75 102.227C199.529 101.382 199.164 100.573 199.067 99.7078C198.945 98.6317 199.237 97.4844 198.81 96.4928C198.474 95.7102 197.735 95.1588 196.941 94.8698C196.146 94.5807 195.29 94.5029 194.447 94.4251C193.385 94.3384 189.947 93.9293 188.748 94.8831C188.666 94.9476 188.591 95.0223 188.527 95.1054C188.501 95.1421 188.477 95.1808 188.456 95.221L188.445 95.2388C188.421 95.2852 188.401 95.3335 188.386 95.3834C188.369 95.4379 188.356 95.4936 188.348 95.5501C188.348 95.5679 188.348 95.5857 188.348 95.6035C188.348 95.6212 188.348 95.6813 188.348 95.7213V95.7813C188.348 95.8213 188.348 95.8614 188.348 95.9036C188.348 95.9459 188.348 95.9347 188.348 95.9503C188.363 96.1504 188.392 96.3505 188.392 96.5484C188.395 96.6469 188.386 96.7454 188.366 96.8419C188.292 97.1041 188.167 97.349 187.998 97.5622L187.959 97.62C187.934 97.6556 187.91 97.689 187.888 97.7245C187.866 97.7601 187.848 97.7868 187.83 97.8179C187.812 97.849 187.795 97.8691 187.779 97.898C187.758 97.9346 187.739 97.9725 187.722 98.0114C187.722 98.0336 187.697 98.0536 187.689 98.0758C187.661 98.1359 187.639 98.1985 187.622 98.2626C187.57 98.4558 187.566 98.6587 187.609 98.854C187.669 99.1034 187.771 99.3404 187.912 99.5544C187.967 99.6455 188.027 99.7345 188.089 99.8234L188.244 100.035C188.215 100.241 188.199 100.449 188.197 100.657C188.198 101.353 188.355 102.04 188.658 102.667C188.96 103.293 189.401 103.842 189.945 104.272C190.033 105.211 190.023 106.157 189.916 107.094C189.897 107.289 189.872 107.487 189.846 107.683C189.819 107.879 189.799 108.008 189.773 108.17C189.449 108.216 189.119 108.191 188.806 108.096C188.661 108.032 188.514 107.975 188.363 107.925C187.72 107.763 187.063 108.408 186.425 108.212C186.425 108.243 186.408 108.272 186.397 108.301C186.264 108.218 186.111 108.173 185.954 108.17C185.576 108.152 185.268 107.876 184.994 107.616L184.151 106.818C184.096 106.769 184.047 106.714 184.005 106.654C183.96 106.567 183.926 106.475 183.903 106.38C183.762 105.92 183.419 105.553 183.087 105.204C183.024 105.124 182.941 105.064 182.846 105.028C182.809 105.023 182.772 105.023 182.735 105.028C182.713 104.997 182.688 104.967 182.662 104.939C182.605 104.873 182.544 104.811 182.478 104.753C182.076 104.379 182.036 104.059 181.686 103.641C181.382 103.242 181.105 102.822 180.859 102.385C180.83 102.151 180.79 101.911 180.742 101.669C180.63 101.114 180.468 100.571 180.257 100.046L179.815 99.0608L179.764 99.1119C179.443 98.6317 179.1 98.3693 178.793 98.4316C178.277 98.5383 178.023 99.5432 178.105 100.857L178.282 102.191C178.282 102.225 178.297 102.258 178.306 102.291C178.274 102.449 178.258 102.61 178.257 102.772C178.257 102.958 178.43 103.096 178.521 103.263C178.666 103.489 178.743 103.752 178.742 104.021C178.731 104.117 178.702 104.208 178.698 104.301C178.71 104.51 178.782 104.711 178.906 104.879L180.012 106.747L180.233 107.138L180.246 107.156C180.316 107.293 180.418 107.41 180.543 107.498C180.586 107.966 180.71 108.423 180.908 108.848C180.945 108.932 180.987 109.013 181.032 109.093C181.329 109.584 181.679 110.041 182.076 110.455L182.602 111.049C183.122 111.632 183.642 112.216 184.206 112.754C184.408 112.97 184.652 113.142 184.923 113.259C185.056 113.312 185.2 113.33 185.342 113.309C185.483 113.288 185.616 113.23 185.728 113.141C185.728 113.417 185.728 113.693 185.728 113.968C185.811 113.973 185.89 114 185.958 114.047C186.026 114.093 186.081 114.156 186.117 114.231C186.152 114.306 186.168 114.388 186.161 114.471C186.154 114.553 186.125 114.632 186.078 114.7C185.613 115.898 185.144 117.108 184.441 118.182C184.937 118.477 185.398 118.83 185.813 119.233C186.082 119.533 186.321 119.858 186.527 120.205C186.547 120.369 186.563 120.532 186.571 120.694C186.735 123.344 185.715 125.974 184.801 128.5C184.538 129.216 184.251 129.965 184.273 130.71C184.099 130.818 183.934 130.937 183.777 131.068C183.959 131.544 183.888 131.969 183.868 132.478C183.861 132.783 183.799 133.084 183.684 133.367C183.588 133.563 183.482 133.754 183.366 133.939C182.793 134.955 182.667 136.162 182.551 137.322C182.483 138.023 182.753 138.879 182.436 139.506C181.89 140.582 181.405 141.729 181.33 142.925C181.328 143.194 181.293 143.462 181.229 143.724C181.16 143.946 181.038 144.135 180.976 144.353C180.913 144.645 180.898 144.945 180.932 145.242C180.974 146.308 180.817 147.372 180.467 148.379C180.191 149.173 179.886 150.022 180.102 150.838C179.569 151.402 179.239 152.129 179.167 152.904C179.161 153.102 179.137 153.299 179.096 153.493C179.028 153.691 178.939 153.881 178.83 154.06C178.385 154.875 178.176 155.799 178.229 156.728C177.565 157.633 177.233 158.749 177.036 159.858C176.839 160.968 176.753 162.097 176.501 163.193C176.164 164.643 175.556 166.108 175.437 167.593C174.72 168.054 174.41 168.945 174.273 169.788C174.136 170.631 174.114 171.515 173.762 172.294C173.58 172.698 173.319 173.061 173.147 173.474C173.026 173.803 172.937 174.144 172.881 174.49C172.775 175.033 172.682 175.638 172.813 176.158C172.625 176.358 172.406 176.525 172.164 176.654C172.2 176.516 172.229 176.378 172.253 176.238C171.682 176.758 170.647 176.576 170.191 177.201C170.054 177.402 170.001 177.649 170.042 177.889C170.083 178.13 170.216 178.344 170.412 178.488C170.555 178.575 170.709 178.642 170.87 178.686C171.976 179.042 173.114 179.399 174.251 179.21C174.385 179.196 174.515 179.154 174.633 179.088C174.781 178.979 174.903 178.837 174.99 178.675C175.16 178.403 175.33 178.132 175.498 177.861C175.906 177.983 176.32 178.08 176.74 178.152C176.782 178.508 176.813 178.864 176.828 179.219C177.049 179.264 177.346 179.277 177.45 179.07C177.481 178.992 177.494 178.908 177.487 178.824C177.487 178.666 177.51 178.457 177.523 178.243H177.567C178.242 178.271 178.914 178.134 179.525 177.845C179.288 175.875 180.069 173.95 180.746 172.087C181.461 170.126 182.074 168.129 182.691 166.133C183.133 164.728 183.622 163.367 184.056 161.959C184.602 160.181 185.15 158.402 185.7 156.623C185.939 155.841 186.18 155.067 186.454 154.289C187.032 152.714 187.717 151.182 188.505 149.702C188.726 149.282 188.947 148.866 189.129 148.43C189.35 147.899 189.507 147.343 189.684 146.794C190.07 145.667 190.534 144.569 191.074 143.508C191.089 143.479 191.1 143.452 191.116 143.426C191.295 144.162 191.474 144.909 191.593 145.649C191.755 146.557 191.768 147.485 191.631 148.397C191.525 149.017 191.324 149.631 191.348 150.26C191.381 151.13 191.843 151.919 192.071 152.757C192.218 153.384 192.301 154.025 192.319 154.669C192.381 155.67 192.921 156.792 192.54 157.72C191.357 160.657 191.93 163.974 191.255 167.058C190.908 168.641 189.843 170.128 189.928 171.747C189.987 172.895 190.087 174.041 190.228 175.184C190.263 175.545 190.356 175.897 190.505 176.227C190.593 176.4 190.695 176.567 190.808 176.725C190.711 176.763 190.629 176.863 190.558 177.074C190.377 177.63 190.558 178.319 191.049 178.63C191.249 178.738 191.465 178.813 191.689 178.853C191.989 178.938 192.301 178.982 192.613 178.981C192.711 178.976 192.807 178.964 192.903 178.946C193.245 179.09 193.594 179.216 193.95 179.324C193.95 179.415 193.967 179.506 193.978 179.597C193.979 179.645 193.99 179.692 194.009 179.735C194.029 179.779 194.058 179.817 194.093 179.849C194.149 179.874 194.21 179.885 194.27 179.88H195.472C195.472 179.78 195.472 179.677 195.472 179.577C195.609 179.592 195.748 179.577 195.88 179.534C196.011 179.491 196.132 179.421 196.235 179.328C196.341 179.192 196.417 179.034 196.456 178.866C196.784 177.75 197.109 176.633 197.432 175.515C197.819 174.28 197.98 172.984 197.908 171.691C197.481 167.593 198.419 163.482 198.113 159.374C197.93 156.904 198.056 154.421 198.489 151.983C198.589 151.432 198.711 150.872 198.755 150.322C198.852 149.286 198.733 148.239 198.806 147.21C198.83 146.85 198.879 146.492 198.923 146.134C199.226 143.912 199.385 141.673 199.399 139.43C199.392 138.687 199.346 137.945 199.262 137.207C199.492 137.148 199.702 137.025 199.865 136.851C200.062 136.593 200.011 136.231 200.009 135.902C200.009 135.115 200.339 134.372 200.604 133.629C200.945 132.605 201.224 131.561 201.441 130.503C201.669 129.651 201.794 128.774 201.812 127.891C201.812 127.802 201.808 127.713 201.799 127.624C201.882 127.566 201.952 127.49 202.003 127.402C202.06 127.272 202.096 127.133 202.109 126.991C202.188 126.424 202.27 125.854 202.35 125.285C202.409 124.878 202.467 124.471 202.525 124.065L203.228 119.131C203.288 118.702 203.35 118.275 203.41 117.848L203.593 116.572C203.613 116.421 203.635 116.27 203.651 116.127C204.191 115.22 203.675 114.011 203.618 112.979ZM197.748 131.451C197.487 130.828 197.244 130.19 197.306 129.519H197.281C197.34 129.312 197.33 129.092 197.253 128.892C197.184 128.729 197.065 128.591 196.992 128.429C196.913 128.231 196.873 128.02 196.872 127.807C196.817 126.454 196.923 125.1 197.189 123.773C197.217 123.618 197.248 123.46 197.277 123.304C197.37 123.25 197.455 123.184 197.529 123.106C197.646 122.973 197.742 122.823 197.815 122.662C198.065 122.157 198.292 121.643 198.503 121.121C198.571 120.952 198.671 120.756 198.841 120.714C198.806 122.015 198.938 123.342 198.412 124.516C198.312 124.705 198.238 124.907 198.191 125.116C198.142 125.448 198.279 125.783 198.231 126.112C198.206 126.284 198.133 126.441 198.104 126.61C198.083 126.693 198.083 126.781 198.105 126.863C198.128 126.946 198.172 127.021 198.233 127.082C198.262 127.102 198.294 127.119 198.328 127.131C198.315 127.22 198.304 127.311 198.295 127.397C198.277 127.58 198.268 127.751 198.257 127.858C198.206 128.402 198.186 128.948 198.197 129.494C198.197 130.083 198.219 130.672 198.211 131.273C198.219 131.445 198.19 131.617 198.127 131.777C198.083 131.86 198.026 131.935 197.958 132C197.894 131.8 197.823 131.624 197.748 131.451Z" fill="url(#paint0_linear)"/>
<path d="M180.284 105.653C180.959 105.514 181.189 103.844 180.798 101.923C180.406 100.002 179.541 98.5573 178.866 98.6963C178.191 98.8353 177.961 100.505 178.353 102.426C178.744 104.348 179.609 105.792 180.284 105.653Z" fill="#FBBEBE"/>
<path d="M190.593 177.116C190.412 177.668 190.593 178.357 191.085 178.657C191.284 178.764 191.498 178.839 191.72 178.879C192.02 178.965 192.33 179.007 192.642 179.006C193.025 178.988 193.392 178.837 193.775 178.784C193.819 178.773 193.866 178.779 193.905 178.802C193.925 178.822 193.939 178.847 193.947 178.874C193.956 178.901 193.958 178.929 193.954 178.957C193.958 179.176 193.974 179.394 194.003 179.611C194.003 179.659 194.013 179.706 194.033 179.749C194.053 179.792 194.082 179.831 194.118 179.862C194.173 179.888 194.234 179.899 194.295 179.893H195.494C195.521 178.835 195.406 177.777 195.151 176.749C195.134 176.671 195.104 176.596 195.062 176.527C194.961 176.415 194.827 176.338 194.68 176.305C194.387 176.182 194.07 176.127 193.753 176.142C193.366 176.194 193.043 176.445 192.713 176.654C192.383 176.863 191.934 177.047 191.534 176.941C191.133 176.834 190.799 176.498 190.593 177.116Z" fill="#3F3D56"/>
<path d="M172.987 176.14C172.65 176.503 172.237 176.785 171.777 176.967L171.574 177.065C171.546 177.076 171.522 177.095 171.505 177.121C171.501 177.138 171.501 177.156 171.505 177.173C171.509 177.19 171.516 177.207 171.527 177.221C171.697 177.484 171.947 177.684 172.24 177.791C172.533 177.899 172.853 177.907 173.151 177.814C173.283 177.781 173.405 177.717 173.507 177.627C173.676 177.426 173.773 177.174 173.782 176.912C173.849 176.641 173.837 176.356 173.748 176.091C173.441 175.395 173.328 175.711 172.987 176.14Z" fill="#FBBEBE"/>
<path d="M177.585 178.879C177.592 178.963 177.579 179.048 177.547 179.126C177.443 179.331 177.153 179.319 176.928 179.275C176.893 178.521 176.802 177.77 176.656 177.029C176.226 177.009 175.917 177.418 175.687 177.785L175.094 178.73C175.008 178.893 174.887 179.034 174.74 179.144C174.621 179.209 174.491 179.25 174.357 179.266C173.224 179.455 172.08 179.097 170.987 178.741C170.826 178.698 170.672 178.632 170.529 178.546C170.334 178.402 170.202 178.188 170.161 177.948C170.12 177.708 170.173 177.462 170.308 177.261C170.766 176.638 171.795 176.816 172.366 176.3C172.306 176.663 172.208 177.019 172.074 177.361C172.837 177.245 173.35 176.542 173.965 176.073C174.12 175.942 174.306 175.853 174.505 175.815C174.654 175.803 174.804 175.819 174.948 175.862C175.657 176.042 176.32 176.37 176.894 176.825C177.127 177.009 177.49 177.27 177.591 177.554C177.7 177.894 177.585 178.517 177.585 178.879Z" fill="#3F3D56"/>
<path d="M192.804 105.522C195.328 105.522 197.374 103.465 197.374 100.928C197.374 98.3915 195.328 96.335 192.804 96.335C190.279 96.335 188.233 98.3915 188.233 100.928C188.233 103.465 190.279 105.522 192.804 105.522Z" fill="#FBBEBE"/>
<path d="M201.808 128.049C201.79 128.927 201.666 129.8 201.439 130.648C201.222 131.702 200.943 132.741 200.602 133.761C200.339 134.501 200.009 135.244 200.012 136.029C200.012 136.355 200.065 136.718 199.866 136.976C199.688 137.157 199.465 137.285 199.22 137.347C199.097 137.38 198.984 137.441 198.89 137.525C198.795 137.61 198.722 137.716 198.675 137.834C198.468 137.522 198.312 137.178 198.215 136.816C197.818 135.594 197.45 134.366 197.109 133.132C197.078 133.06 197.064 132.983 197.07 132.905C197.075 132.828 197.099 132.753 197.14 132.687C197.196 132.638 197.262 132.601 197.332 132.578C197.559 132.485 197.767 132.351 197.945 132.182C198.029 132.108 198.098 132.018 198.149 131.918C198.213 131.758 198.242 131.587 198.235 131.415C198.235 130.826 198.235 130.239 198.22 129.65C198.21 129.106 198.231 128.562 198.282 128.02C198.282 127.913 198.301 127.742 198.319 127.56C198.352 127.211 198.419 126.806 198.607 126.67C198.888 126.481 199.728 126.735 200.047 126.779C200.596 126.855 201.153 126.944 201.689 127.048C201.766 127.376 201.806 127.712 201.808 128.049Z" fill="#3F3D56"/>
<path d="M183.352 106.071C183.175 106.427 182.751 106.598 182.423 106.823L181.302 107.596C181.227 107.664 181.139 107.716 181.043 107.749C180.948 107.782 180.847 107.795 180.746 107.788C180.655 107.754 180.571 107.702 180.5 107.635C180.429 107.568 180.372 107.488 180.333 107.398C180.333 107.393 180.333 107.387 180.333 107.381L180.1 106.989L178.994 105.126C178.871 104.959 178.8 104.76 178.788 104.553C178.788 104.457 178.822 104.368 178.83 104.272C178.833 104.004 178.756 103.741 178.609 103.516C178.521 103.35 178.344 103.212 178.348 103.025C178.34 102.78 178.382 102.535 178.472 102.307C178.588 102.096 178.755 101.917 178.956 101.787C179.06 101.711 179.167 101.64 179.277 101.564C179.336 101.524 179.401 101.494 179.47 101.475C179.653 101.438 179.835 101.591 180.021 101.598C180.819 102.136 181.127 103.154 181.755 103.888C182.109 104.306 182.144 104.626 182.545 104.999C182.609 105.057 182.671 105.12 182.731 105.184C182.81 105.271 182.877 105.368 182.93 105.473C183.003 105.664 183.443 105.889 183.352 106.071Z" fill="#3F3D56"/>
<path d="M191.197 105.524C191.527 106.225 191.784 106.994 191.689 107.763C191.669 107.972 191.603 108.173 191.496 108.352C191.178 108.844 190.509 108.933 189.928 108.962C189.805 108.951 189.682 108.965 189.565 109.004C189.448 109.042 189.339 109.103 189.246 109.184C189.168 109.297 189.13 109.434 189.138 109.571C189.146 109.709 189.198 109.84 189.288 109.944C189.475 110.145 189.707 110.297 189.965 110.389C190.886 110.796 191.879 111.131 192.879 111.038C193.343 110.994 193.795 110.858 194.257 110.789C194.761 110.734 195.268 110.706 195.775 110.705C196.377 110.682 196.976 110.622 197.576 110.562L199.164 110.404C199.251 110.406 199.335 110.375 199.401 110.318C199.518 110.18 199.368 109.978 199.222 109.873C198.379 109.246 197.306 108.815 196.826 107.872C196.604 107.427 196.536 106.898 196.372 106.418C196.208 105.938 195.947 105.504 195.846 105.015C195.791 104.586 195.767 104.154 195.773 103.721C195.778 103.285 195.62 102.863 195.33 102.538C195.014 102.243 194.556 102.167 194.127 102.149C193.069 102.102 191.943 102.356 191.193 103.105C190.992 103.308 190.819 103.55 190.611 103.732C190.403 103.914 190.12 103.968 190.257 104.208C190.394 104.448 190.664 104.597 190.81 104.808C190.958 105.036 191.088 105.276 191.197 105.524Z" fill="#FBBEBE"/>
<path d="M200.208 111.992C199.929 113.704 199.476 115.382 198.854 117.001C198.542 117.732 198.276 118.482 198.058 119.247C197.888 119.936 197.921 120.674 197.764 121.365C197.569 122.226 197.374 123.089 197.217 123.956C196.954 125.28 196.848 126.631 196.903 127.98C196.904 128.192 196.944 128.403 197.023 128.6C197.096 128.76 197.213 128.898 197.282 129.063C197.333 129.207 197.354 129.361 197.343 129.514C197.332 129.667 197.29 129.816 197.22 129.952C197.106 130.207 196.952 130.441 196.764 130.646C194.702 131.264 192.496 131.062 190.348 131.193C188.368 131.313 186.366 131.722 184.414 131.382C184.193 130.492 184.563 129.561 184.879 128.694C185.797 126.175 186.813 123.551 186.649 120.912C186.632 120.604 186.597 120.297 186.545 119.994C186.224 118.124 186.574 116.187 187.133 114.375C187.481 113.246 187.465 112.043 187.386 110.867C187.346 110.485 187.341 110.1 187.37 109.717C187.402 109.326 187.547 108.953 187.786 108.643C187.786 108.628 187.806 108.612 187.817 108.597C187.828 108.581 187.914 108.583 187.983 108.597C188 108.604 188.019 108.608 188.038 108.608C188.057 108.608 188.076 108.604 188.094 108.597L188.118 108.581C188.127 108.574 188.138 108.571 188.15 108.571C188.161 108.571 188.173 108.574 188.182 108.581C188.233 108.612 188.262 108.719 188.372 108.739C188.536 108.764 188.7 108.779 188.866 108.786C189.064 108.792 189.262 108.82 189.454 108.87H189.481C189.768 108.919 190.064 108.894 190.339 108.797C190.522 108.751 190.699 108.682 190.866 108.592C190.914 108.539 191.22 108.49 191.282 108.452C191.483 108.33 191.439 107.756 191.481 107.521C191.504 107.284 191.56 107.052 191.647 106.831C191.747 106.668 191.886 106.533 192.051 106.436C192.217 106.34 192.403 106.285 192.593 106.278C192.974 106.269 193.355 106.303 193.728 106.38C194.554 106.498 195.399 106.478 196.209 106.669C196.616 106.765 197.06 106.909 197.434 106.722C197.536 106.747 197.551 106.836 197.551 106.945C197.542 107.048 197.521 107.15 197.489 107.249C197.348 107.863 197.828 108.428 198.27 108.872C198.457 109.082 198.678 109.259 198.923 109.395C199.144 109.497 199.366 109.539 199.587 109.651C199.766 109.747 199.918 109.887 200.029 110.058C200.157 110.253 200.243 110.474 200.281 110.704C200.329 111.135 200.304 111.57 200.208 111.992Z" fill="#3F3D56"/>
<path opacity="0.1" d="M200.208 111.992C199.929 113.704 199.476 115.383 198.854 117.001C198.542 117.732 198.276 118.482 198.058 119.247C197.888 119.936 197.921 120.674 197.764 121.366C197.569 122.226 197.374 123.089 197.217 123.956C197.171 123.983 197.122 124.007 197.074 124.029C196.798 124.161 196.507 124.256 196.206 124.309C195.667 124.375 195.121 124.357 194.587 124.256L191.43 123.831C190.169 123.66 188.826 123.453 187.89 122.595C187.37 122.124 187.029 121.501 186.655 120.901C186.638 120.593 186.604 120.287 186.552 119.983C186.231 118.113 186.58 116.176 187.14 114.364C187.487 113.235 187.472 112.032 187.392 110.856C187.353 110.474 187.348 110.089 187.377 109.706C187.409 109.316 187.553 108.942 187.793 108.633C187.857 108.614 187.923 108.599 187.99 108.588C188.034 108.579 188.079 108.573 188.125 108.57H188.189C188.263 108.571 188.337 108.58 188.41 108.597C188.561 108.645 188.708 108.702 188.852 108.768H188.879C189.069 108.831 189.268 108.86 189.467 108.853C189.759 108.853 190.06 108.806 190.352 108.786C190.713 108.729 191.082 108.796 191.401 108.975C191.607 109.141 191.802 109.32 191.985 109.511C192.206 109.686 192.456 109.822 192.722 109.913C194.626 110.644 196.739 110.599 198.611 109.789C198.791 109.686 198.995 109.634 199.202 109.638C199.355 109.668 199.499 109.73 199.627 109.82C199.759 109.898 199.89 109.973 200.025 110.042C200.152 110.238 200.238 110.458 200.277 110.689C200.328 111.124 200.305 111.565 200.208 111.992Z" fill="black"/>
<path d="M202.135 110.52C201.254 110.25 200.408 109.877 199.613 109.408C199.486 109.319 199.341 109.257 199.189 109.226C198.981 109.224 198.777 109.276 198.596 109.377C196.724 110.188 194.612 110.232 192.709 109.502C192.443 109.409 192.194 109.273 191.972 109.099C191.788 108.909 191.593 108.73 191.388 108.564C190.66 108.09 189.653 108.646 188.839 108.341C188.695 108.276 188.547 108.219 188.397 108.17C187.753 108.008 187.098 108.653 186.465 108.457C186.23 109.1 186.056 109.764 185.945 110.44C185.855 111.217 185.807 111.997 185.802 112.779C185.802 113.248 185.779 113.717 185.802 114.186C185.879 114.199 185.954 114.228 186.02 114.271C186.086 114.315 186.143 114.371 186.186 114.438C186.216 114.515 186.227 114.598 186.221 114.681C186.215 114.763 186.191 114.843 186.151 114.916C185.689 116.11 185.22 117.317 184.518 118.386C185.013 118.682 185.471 119.034 185.886 119.436C186.66 120.258 187.04 121.412 187.877 122.173C188.819 123.029 190.162 123.238 191.417 123.407L194.574 123.831C195.108 123.932 195.655 123.951 196.195 123.887C196.495 123.832 196.786 123.737 197.06 123.605C197.24 123.529 197.403 123.421 197.543 123.284C197.659 123.151 197.755 123.001 197.828 122.84C198.078 122.337 198.306 121.824 198.516 121.303C198.589 121.119 198.7 120.903 198.899 120.888C200.071 119.825 201.177 118.735 202.35 117.673C202.821 117.28 203.244 116.832 203.609 116.339C204.191 115.474 203.662 114.249 203.609 113.204C203.602 112.936 203.569 112.67 203.509 112.41C203.319 111.652 202.872 110.745 202.135 110.52Z" fill="#4285F4"/>
<path opacity="0.1" d="M183.352 106.071C183.175 106.427 182.751 106.598 182.423 106.823L181.302 107.596C181.227 107.664 181.139 107.716 181.043 107.749C180.948 107.782 180.847 107.795 180.746 107.788C180.655 107.754 180.571 107.702 180.5 107.635C180.429 107.568 180.372 107.488 180.333 107.398C180.333 107.347 180.333 107.292 180.333 107.238C180.324 107.058 180.348 106.878 180.403 106.707C180.513 106.456 180.683 106.236 180.899 106.067C181.315 105.67 181.811 105.367 182.352 105.177C182.437 105.144 182.529 105.135 182.618 105.151C182.652 105.16 182.685 105.174 182.715 105.193C182.794 105.28 182.861 105.377 182.914 105.482C183.003 105.664 183.443 105.889 183.352 106.071Z" fill="black"/>
<path d="M185.994 108.415C185.618 108.397 185.31 108.123 185.036 107.863L184.198 107.081C184.141 107.033 184.092 106.977 184.052 106.916C184.006 106.83 183.972 106.738 183.95 106.643C183.772 106.193 183.493 105.792 183.136 105.469C183.073 105.389 182.99 105.329 182.894 105.295C182.804 105.279 182.712 105.288 182.627 105.322C182.085 105.511 181.59 105.815 181.173 106.211C180.958 106.38 180.788 106.6 180.678 106.852C180.622 107.023 180.598 107.203 180.607 107.383C180.612 107.97 180.743 108.55 180.992 109.082C181.029 109.164 181.071 109.246 181.116 109.326C181.411 109.816 181.76 110.272 182.156 110.685L182.682 111.276C183.2 111.859 183.717 112.441 184.279 112.977C184.481 113.193 184.725 113.364 184.996 113.479C185.132 113.535 185.281 113.552 185.426 113.529C185.572 113.505 185.707 113.442 185.819 113.346C185.925 113.223 186.005 113.079 186.054 112.924C186.394 112.034 186.717 111.109 186.737 110.151C186.742 109.767 186.726 109.383 186.689 109.002C186.655 108.597 186.37 108.439 185.994 108.415Z" fill="#4285F4"/>
<path d="M199.401 139.541C199.388 141.778 199.23 144.011 198.928 146.227C198.883 146.585 198.835 146.943 198.81 147.301C198.737 148.339 198.857 149.382 198.759 150.414C198.709 150.972 198.593 151.525 198.496 152.07C198.064 154.501 197.937 156.977 198.12 159.44C198.425 163.538 197.489 167.638 197.914 171.724C197.966 172.519 197.922 173.317 197.784 174.101C197.705 174.588 197.59 175.068 197.441 175.538C197.118 176.651 196.793 177.762 196.467 178.873C196.429 179.041 196.353 179.199 196.246 179.335C196.133 179.433 196.001 179.506 195.858 179.548C195.715 179.591 195.564 179.602 195.417 179.582C194.14 179.542 192.939 178.988 191.779 178.448C191.646 178.395 191.523 178.32 191.414 178.226C191.173 177.974 191.193 177.579 191.087 177.247C190.981 176.916 190.693 176.605 190.529 176.265C190.395 175.943 190.313 175.601 190.288 175.253C190.141 174.115 190.04 172.972 189.987 171.825C189.903 170.21 190.965 168.725 191.315 167.155C191.978 164.069 191.417 160.761 192.596 157.833C192.967 156.908 192.428 155.787 192.374 154.791C192.355 154.149 192.272 153.51 192.127 152.884C191.905 152.048 191.439 151.261 191.405 150.394C191.381 149.767 191.582 149.155 191.686 148.537C191.824 147.627 191.812 146.701 191.649 145.796C191.532 145.049 191.352 144.302 191.173 143.572L191.133 143.655C190.594 144.713 190.131 145.809 189.746 146.934C189.569 147.479 189.414 148.035 189.193 148.564C189.012 149.008 188.788 149.415 188.569 149.833C187.784 151.307 187.1 152.834 186.523 154.402C186.248 155.172 186.007 155.959 185.768 156.73L184.129 162.066C183.687 163.469 183.202 164.825 182.768 166.226C182.156 168.227 181.543 170.21 180.83 172.167C180.167 174.023 179.377 175.947 179.614 177.908C179.004 178.196 178.334 178.332 177.66 178.306C176.52 178.204 175.401 177.931 174.341 177.496C173.919 177.338 173.481 177.161 173.195 176.812C172.704 176.209 172.826 175.326 172.974 174.559C173.03 174.214 173.119 173.874 173.24 173.545C173.408 173.136 173.682 172.774 173.855 172.369C174.202 171.593 174.224 170.715 174.361 169.872C174.499 169.03 174.804 168.14 175.521 167.682C175.642 166.202 176.249 164.741 176.583 163.294C176.835 162.197 176.919 161.07 177.118 159.958C177.317 158.847 177.638 157.735 178.306 156.835C178.253 155.906 178.462 154.982 178.908 154.167C179.016 153.988 179.104 153.798 179.171 153.6C179.212 153.407 179.236 153.21 179.242 153.013C179.315 152.24 179.644 151.514 180.175 150.952C179.954 150.14 180.262 149.293 180.538 148.506C180.887 147.502 181.044 146.44 181.003 145.378C180.969 145.081 180.983 144.781 181.045 144.488C181.107 144.266 181.229 144.077 181.299 143.864C181.362 143.602 181.396 143.334 181.399 143.065C181.485 141.863 181.97 140.729 182.505 139.655C182.824 139.028 182.554 138.176 182.62 137.478C182.735 136.318 182.861 135.117 183.434 134.105C183.54 133.914 183.656 133.732 183.751 133.534C183.866 133.251 183.928 132.95 183.934 132.645C183.954 132.135 184.025 131.713 183.844 131.239C185.027 130.25 186.642 129.972 188.182 129.905C189.722 129.839 191.279 129.979 192.786 129.65C193.228 129.55 193.671 129.412 194.138 129.345C195.197 129.189 196.273 129.432 197.319 129.672C197.246 130.339 197.489 130.979 197.762 131.6C198.824 134.112 199.381 136.811 199.401 139.541Z" fill="#33313F"/>
<path opacity="0.1" d="M194.191 140.051L191.649 145.796C191.532 145.049 191.352 144.302 191.173 143.572L191.133 143.655V143.535L192.518 140.473L194.191 140.051Z" fill="black"/>
<path opacity="0.1" d="M201.808 128.049C201.661 128.159 201.486 128.225 201.304 128.238C201.023 128.248 200.743 128.21 200.476 128.125L198.485 127.624C198.423 127.609 198.362 127.587 198.304 127.56C198.337 127.211 198.403 126.806 198.591 126.67C198.872 126.481 199.713 126.735 200.031 126.779C200.58 126.855 201.138 126.944 201.673 127.048C201.756 127.376 201.801 127.711 201.808 128.049Z" fill="black"/>
<path d="M203.492 114.82C203.534 115.005 203.593 115.187 203.629 115.374C203.688 115.832 203.673 116.297 203.582 116.75L203.401 118.022L203.219 119.3L202.518 124.221L202.346 125.439L202.102 127.14C202.091 127.281 202.055 127.42 201.996 127.549C201.924 127.67 201.822 127.771 201.701 127.842C201.581 127.914 201.444 127.955 201.304 127.96C201.023 127.969 200.744 127.931 200.476 127.847L198.485 127.344C198.398 127.329 198.315 127.295 198.242 127.244C198.181 127.185 198.137 127.11 198.114 127.027C198.092 126.945 198.091 126.858 198.113 126.775C198.142 126.606 198.215 126.448 198.239 126.279C198.288 125.95 198.151 125.612 198.2 125.285C198.247 125.077 198.322 124.876 198.421 124.687C199.085 123.213 198.7 121.492 198.925 119.892C199.128 118.632 199.658 117.448 200.461 116.459C200.956 115.834 201.525 115.273 202.155 114.787C202.403 114.593 202.797 114.195 203.109 114.12C203.509 114.035 203.425 114.54 203.492 114.82Z" fill="#4285F4"/>
<path d="M188.423 95.6682C188.277 96.1351 188.505 96.6487 188.401 97.1245C188.288 97.6492 187.797 98.0138 187.658 98.5408C187.436 99.3434 188.113 100.075 188.609 100.742C190.445 103.219 190.204 106.647 189.576 109.669C189.07 112.093 188.371 114.472 187.485 116.783C187.209 117.502 186.903 118.231 186.359 118.769C187.377 118.475 188.459 118.18 189.478 118.464C190.77 118.824 191.885 120.085 193.195 119.798C193.983 119.623 194.536 118.92 195.244 118.531C196.571 117.813 198.171 118.264 199.651 118.495C199.97 118.571 200.304 118.554 200.613 118.446C200.85 118.319 201.051 118.133 201.197 117.906C201.858 117.055 202.253 116.026 202.335 114.949C202.37 114.413 202.291 113.875 202.104 113.372C201.916 112.869 201.625 112.411 201.248 112.03C200.934 111.732 200.558 111.492 200.317 111.141C200.082 110.73 199.957 110.266 199.952 109.793C199.777 107.347 200.37 104.851 199.759 102.485C199.538 101.642 199.177 100.835 199.08 99.9726C198.958 98.8987 199.248 97.7493 198.823 96.7665C198.489 95.9861 197.753 95.4325 196.958 95.1479C196.164 94.8633 195.315 94.7833 194.472 94.7033C193.259 94.601 188.93 94.0785 188.423 95.6682Z" fill="#33313F"/>
<g opacity="0.1">
<path opacity="0.1" d="M189.576 109.669C189.073 112.083 188.377 114.452 187.496 116.754C187.649 116.45 187.777 116.13 187.899 115.812C188.786 113.501 189.485 111.121 189.989 108.697C190.62 105.673 190.861 102.249 189.025 99.7701C188.582 99.1787 188.014 98.5384 188.034 97.8447C187.87 98.0545 187.743 98.2906 187.658 98.5429C187.436 99.3455 188.113 100.077 188.609 100.744C190.445 103.219 190.204 106.647 189.576 109.669Z" fill="black"/>
<path opacity="0.1" d="M188.428 96.8998C188.605 96.6782 188.737 96.4236 188.817 96.1506C188.851 95.8203 188.842 95.4869 188.79 95.1589C188.62 95.2878 188.492 95.4652 188.423 95.6681C188.293 96.0616 188.443 96.4885 188.428 96.8998Z" fill="black"/>
<path opacity="0.1" d="M201.613 116.928C201.467 117.154 201.266 117.339 201.029 117.466C200.72 117.576 200.386 117.593 200.067 117.515C198.587 117.292 196.97 116.834 195.66 117.553C194.95 117.939 194.399 118.642 193.609 118.82C192.301 119.113 191.186 117.853 189.894 117.486C188.978 117.23 188.014 117.441 187.091 117.708C186.908 118.101 186.66 118.46 186.359 118.771C187.377 118.478 188.459 118.182 189.478 118.466C190.77 118.827 191.886 120.087 193.195 119.8C193.983 119.625 194.536 118.922 195.244 118.533C196.571 117.815 198.171 118.266 199.651 118.498C199.97 118.573 200.304 118.556 200.613 118.449C200.85 118.321 201.051 118.135 201.197 117.908C201.598 117.377 201.908 116.782 202.113 116.147C201.965 116.419 201.798 116.68 201.613 116.928Z" fill="black"/>
</g>
</g>
<defs>
<linearGradient id="paint0_linear" x1="170.043" y1="137.069" x2="203.892" y2="137.069" gradientUnits="userSpaceOnUse">
<stop stop-color="#808080" stop-opacity="0.25"/>
<stop offset="0.54" stop-color="#808080" stop-opacity="0.12"/>
<stop offset="1" stop-color="#808080" stop-opacity="0.1"/>
</linearGradient>
<clipPath id="clip0">
<rect width="258" height="179" fill="white" transform="translate(0 0.906494)"/>
</clipPath>
</defs>
</svg>
