<svg width="27" height="26" viewBox="0 0 27 26" fill="none" xmlns="http://www.w3.org/2000/svg">
<path d="M13.1602 0C5.98416 0 0.160156 5.824 0.160156 13C0.160156 20.176 5.98416 26 13.1602 26C20.3362 26 26.1602 20.176 26.1602 13C26.1602 5.824 20.3362 0 13.1602 0ZM13.1602 23.4C7.42716 23.4 2.76016 18.733 2.76016 13C2.76016 7.267 7.42716 2.6 13.1602 2.6C18.8932 2.6 23.5602 7.267 23.5602 13C23.5602 18.733 18.8932 23.4 13.1602 23.4Z" fill="#3D73C3"/>
<path d="M7.75873 18.2161L5.36462 12.2122V9.85155H10.7253L10.0488 6.33846L11.107 5.2046L15.7738 10.2047V18.2161H7.75873Z" fill="#3D73C3"/>
<rect width="2.60229" height="7.80688" transform="matrix(1 0 0 -1 17.075 18.2161)" fill="#3D73C3"/>
</svg>
