<svg width="27" height="26" viewBox="0 0 27 26" fill="none" xmlns="http://www.w3.org/2000/svg">
<path d="M13.1602 0C5.98416 0 0.160156 5.824 0.160156 13C0.160156 20.176 5.98416 26 13.1602 26C20.3362 26 26.1602 20.176 26.1602 13C26.1602 5.824 20.3362 0 13.1602 0ZM13.1602 23.4C7.42716 23.4 2.76016 18.733 2.76016 13C2.76016 7.267 7.42716 2.6 13.1602 2.6C18.8932 2.6 23.5602 7.267 23.5602 13C23.5602 18.733 18.8932 23.4 13.1602 23.4Z" fill="#BA2A44"/>
<path d="M7.81934 7.58362L5.57684 13.5822V15.9408H10.5981L9.96434 19.4508L10.9556 20.5836L15.3268 15.5879V7.58362H7.81934Z" fill="#BA2A44"/>
<rect x="17.4935" y="7.58362" width="2.16667" height="7.58333" fill="#BA2A44"/>
</svg>
