<svg width="20" height="20" viewBox="0 0 20 20" fill="none" xmlns="http://www.w3.org/2000/svg">
<path d="M17.32 10.99L17.31 11.01C17.35 10.68 17.39 10.34 17.39 10C17.39 9.66 17.36 9.34 17.32 9.01L17.33 9.03L19.77 7.11L17.34 2.89L14.47 4.05L14.48 4.06C13.96 3.66 13.39 3.32 12.77 3.06H12.78L12.32 0H7.45L7.01 3.07H7.02C6.4 3.33 5.83 3.67 5.31 4.07L5.32 4.06L2.44 2.89L0 7.11L2.44 9.03L2.45 9.01C2.41 9.34 2.38 9.66 2.38 10C2.38 10.34 2.41 10.68 2.46 11.01L2.45 10.99L0.35 12.64L0.0200002 12.9L2.45 17.1L5.33 15.95L5.31 15.91C5.84 16.32 6.41 16.66 7.04 16.92H7.01L7.46 20H12.31C12.31 20 12.34 19.82 12.37 19.58L12.75 16.93H12.74C13.36 16.67 13.94 16.33 14.47 15.92L14.45 15.96L17.33 17.11L19.76 12.91C19.76 12.91 19.62 12.79 19.43 12.65L17.32 10.99ZM9.88 13.5C7.95 13.5 6.38 11.93 6.38 10C6.38 8.07 7.95 6.5 9.88 6.5C11.81 6.5 13.38 8.07 13.38 10C13.38 11.93 11.81 13.5 9.88 13.5Z" fill="#FBFBFB"/>
</svg>
