<svg width="60" height="61" viewBox="0 0 60 61" fill="none" xmlns="http://www.w3.org/2000/svg">
<g filter="url(#filter0_d)">
<path d="M27 37.7148L36 30.9648L27 24.2148V37.7148ZM30 15.9648C21.72 15.9648 15 22.6848 15 30.9648C15 39.2448 21.72 45.9648 30 45.9648C38.28 45.9648 45 39.2448 45 30.9648C45 22.6848 38.28 15.9648 30 15.9648ZM30 42.9648C23.385 42.9648 18 37.5798 18 30.9648C18 24.3498 23.385 18.9648 30 18.9648C36.615 18.9648 42 24.3498 42 30.9648C42 37.5798 36.615 42.9648 30 42.9648Z" fill="white"/>
</g>
<defs>
<filter id="filter0_d" x="0" y="0.964844" width="60" height="60" filterUnits="userSpaceOnUse" color-interpolation-filters="sRGB">
<feFlood flood-opacity="0" result="BackgroundImageFix"/>
<feColorMatrix in="SourceAlpha" type="matrix" values="0 0 0 0 0 0 0 0 0 0 0 0 0 0 0 0 0 0 127 0"/>
<feOffset/>
<feGaussianBlur stdDeviation="7.5"/>
<feColorMatrix type="matrix" values="0 0 0 0 0.0305677 0 0 0 0 0.941834 0 0 0 0 1 0 0 0 1 0"/>
<feBlend mode="normal" in2="BackgroundImageFix" result="effect1_dropShadow"/>
<feBlend mode="normal" in="SourceGraphic" in2="effect1_dropShadow" result="shape"/>
</filter>
</defs>
</svg>
