<svg width="292" height="177" viewBox="0 0 292 177" fill="none" xmlns="http://www.w3.org/2000/svg">
<g clip-path="url(#clip0)">
<path d="M185.566 176.387C244.072 176.387 291.5 172.132 291.5 166.885C291.5 161.637 244.072 157.383 185.566 157.383C127.061 157.383 79.6326 161.637 79.6326 166.885C79.6326 172.132 127.061 176.387 185.566 176.387Z" fill="#3F3D56"/>
<path opacity="0.3" d="M133.787 78.0249L248.771 78.0249V0.386963L133.787 0.386963V78.0249Z" fill="#3F3D56"/>
<path d="M241.431 7.5H207.385V44.4898H241.431V7.5Z" fill="#F2F2F2"/>
<path d="M153.563 9.73584L186.386 9.73584V7.50019L153.563 7.50019V9.73584Z" fill="#F2F2F2"/>
<path d="M207.385 52.4165H219.005V50.1809H207.385V52.4165Z" fill="#F2F2F2"/>
<path d="M207.792 56.481L241.023 56.481V54.2453L207.792 54.2453V56.481Z" fill="#F2F2F2"/>
<path d="M146.835 17.8652L194.133 17.8652V15.6296L146.835 15.6296V17.8652Z" fill="#F2F2F2"/>
<path d="M146.835 24.166L194.133 24.166V21.9304L146.835 21.9304V24.166Z" fill="#F2F2F2"/>
<path d="M146.835 30.4663L194.133 30.4663V28.2307L146.835 28.2307V30.4663Z" fill="#F2F2F2"/>
<path d="M146.835 36.7666L194.133 36.7666V34.531L146.835 34.531V36.7666Z" fill="#F2F2F2"/>
<path d="M146.835 43.0669L194.133 43.0669V40.8312L146.835 40.8312V43.0669Z" fill="#F2F2F2"/>
<path d="M146.835 49.3677L194.133 49.3677V47.132L146.835 47.132V49.3677Z" fill="#F2F2F2"/>
<path d="M146.835 55.6685L194.133 55.6685V53.4328L146.835 53.4328V55.6685Z" fill="#F2F2F2"/>
<path d="M212.498 28.6217C213.001 28.2643 213.557 27.9863 214.146 27.7975C217.879 26.413 221.79 25.5642 225.762 25.2768C229.216 25.0326 232.959 25.3226 235.657 27.4866C236.077 27.7936 236.42 28.1924 236.661 28.6524C237 29.3825 236.897 30.2312 236.787 31.0284C236.763 31.3377 236.685 31.6403 236.556 31.9229C236.193 32.612 235.3 32.8533 234.523 32.7707C233.747 32.6881 233.018 32.3606 232.253 32.2088C231.779 32.1265 231.3 32.0778 230.819 32.0632L226.016 31.804C223.03 31.6429 220.004 31.4844 217.075 32.0852C216.173 32.2468 215.302 32.5462 214.492 32.9727C213.823 33.3472 213.372 33.8845 212.751 33.1928C211.66 31.9776 211.057 29.7442 212.498 28.6217Z" fill="#2F2E41"/>
<path d="M219.94 30.739C219.94 30.739 226.399 27.8523 228.849 31.1831C231.3 34.5139 227.513 33.1816 227.513 33.1816L223.281 34.5139L218.603 33.6257L219.94 30.739Z" fill="#F2F2F2"/>
<path d="M220.274 28.6293C220.274 28.6293 221.165 32.8483 220.496 33.9586C219.828 35.0689 224.283 36.6232 224.283 36.6232L228.515 34.8468C228.515 34.8468 227.401 27.9632 228.515 26.6309L220.274 28.6293Z" fill="#FFB9B9"/>
<path opacity="0.1" d="M220.274 28.6293C220.274 28.6293 221.165 32.8483 220.496 33.9586C219.828 35.0689 224.283 36.6232 224.283 36.6232L228.515 34.8468C228.515 34.8468 227.401 27.9632 228.515 26.6309L220.274 28.6293Z" fill="black"/>
<path d="M230.52 24.4106C230.518 26.1769 229.814 27.8705 228.561 29.1195C227.308 30.3684 225.609 31.0707 223.837 31.0722C223.439 31.0729 223.042 31.0372 222.65 30.9656C221.4 30.7405 220.239 30.1645 219.306 29.3052C218.372 28.446 217.703 27.3391 217.378 26.1144C217.053 24.8897 217.085 23.598 217.47 22.3907C217.856 21.1835 218.578 20.1108 219.553 19.2986C220.529 18.4863 221.716 17.968 222.976 17.8047C224.236 17.6413 225.517 17.8395 226.668 18.3761C227.819 18.9128 228.793 19.7655 229.475 20.8343C230.157 21.9031 230.52 23.1438 230.52 24.4106Z" fill="#FFB9B9"/>
<path d="M234.555 44.6932H213.244L213.727 42.6018L215.819 33.5149L218.237 31.887L218.239 31.8849L219.374 31.1187L219.939 30.7387C219.939 30.7387 220.273 30.8911 220.659 31.0984C220.771 31.1614 220.885 31.2264 220.999 31.2955C221.001 31.2935 221.001 31.2955 221.001 31.2955C221.186 31.4026 221.362 31.5242 221.527 31.6593C221.558 31.6878 221.584 31.7122 221.611 31.7386C222.035 32.1613 223.272 34.4051 225.319 33.2568C225.423 33.2002 225.523 33.1378 225.619 33.0699C226.152 32.7018 226.661 32.2991 227.142 31.8646C227.572 31.4724 227.851 31.1695 228.08 30.9602C228.182 30.8584 228.299 30.7721 228.426 30.7041C228.522 30.6538 228.629 30.628 228.738 30.6289C229.407 30.6289 230.298 31.9601 230.298 31.9601L230.324 32.0374L230.326 32.0435L233.138 40.4576L234.555 44.6932Z" fill="#F2F2F2"/>
<path d="M213.244 44.6932H219.702C219.717 43.9489 219.678 43.2045 219.586 42.4657C219.388 40.98 218.903 39.5492 218.597 38.0818C218.328 36.7959 218.198 35.485 218.208 34.1714C218.21 33.9905 218.214 33.8076 218.23 33.6247C218.246 33.2059 218.368 32.7977 218.583 32.4378C218.736 32.2041 218.946 32.0049 219.109 31.7813C219.166 31.7081 219.216 31.6299 219.258 31.5476V31.5456C219.278 31.5052 219.297 31.4638 219.313 31.4216C219.349 31.3244 219.37 31.2222 219.374 31.1187C219.411 30.448 218.801 29.8017 218.143 29.5253C217.219 29.1794 216.207 29.1387 215.258 29.4095C214.317 29.6806 213.408 30.0512 212.547 30.5151C212.255 30.6574 211.966 30.8037 211.686 30.9663C211.353 31.1548 211.046 31.3873 210.775 31.6573C210.082 32.3707 209.778 33.3646 209.533 34.3259C209.3 35.0607 209.22 35.8354 209.299 36.6022C209.301 36.6266 209.307 36.653 209.311 36.6774C209.554 37.9436 210.589 38.8947 211.142 40.0613C211.782 41.4149 211.739 42.9921 211.484 44.4676C211.472 44.5428 211.458 44.618 211.444 44.6932H213.244V44.6932Z" fill="#2F2E41"/>
<path d="M239.535 36.5616C238.724 39.2191 238.136 41.939 237.776 44.6933H228.569C228.328 44.0388 228.088 43.3837 227.849 42.7279C227.658 42.2331 227.494 41.7283 227.358 41.2158C227.212 40.62 227.143 40.008 227.152 39.3948C227.152 39.2484 227.158 39.1001 227.17 38.9538C227.171 38.9526 227.172 38.9512 227.172 38.9497C227.172 38.9482 227.171 38.9467 227.17 38.9456C227.226 38.1722 227.406 37.4126 227.702 36.6957C227.838 36.3698 227.995 36.0528 228.171 35.7466C228.599 34.9743 229.117 34.2467 229.578 33.4906C229.865 33.0286 230.115 32.5448 230.326 32.0436C230.326 32.0425 230.326 32.0413 230.327 32.0403C230.327 32.0392 230.327 32.0383 230.328 32.0375C230.603 31.3984 230.747 30.7107 230.75 30.0152C230.736 29.1189 229.215 27.556 230.868 27.7064C233.125 27.9096 235.064 29.2043 236.832 30.6798C237.303 31.0741 237.763 31.4826 238.214 31.885C238.911 32.511 239.647 33.1939 239.857 34.1064C239.891 34.252 239.911 34.4003 239.916 34.5495C239.904 35.2369 239.775 35.9172 239.535 36.5616Z" fill="#2F2E41"/>
<path d="M225.735 34.1105C225.503 33.4862 225.148 32.9148 224.69 32.4303C224.228 32.041 223.681 31.7649 223.093 31.6238C222.331 31.4068 221.543 31.2942 220.751 31.2892C219.808 31.2833 218.714 31.5356 218.313 32.387C217.995 33.0631 218.242 33.8637 218.562 34.5388C218.699 34.8885 218.927 35.1955 219.222 35.4281C219.629 35.7021 220.155 35.6934 220.637 35.7852C221.385 35.9745 222.093 36.2944 222.729 36.7301L224.381 37.7257L227.219 39.4358C227.144 39.3908 227.171 37.4506 227.084 37.1327C226.803 36.1084 226.171 35.0805 225.735 34.1105Z" fill="#FFB9B9"/>
<path d="M230.352 20.9391C230.233 20.5407 229.971 20.1999 229.616 19.9818C229.634 19.5551 229.582 19.1282 229.461 18.7185C229.056 17.5259 228.097 17.5942 227.193 17.0669C226.8 16.8382 226.825 16.636 226.62 16.2602C226.353 15.7676 225.952 15.3598 225.463 15.0831C224.883 14.7145 224.27 14.3349 223.584 14.2883C222.141 14.1902 221.035 15.543 219.656 15.9772C219.048 16.1685 218.395 16.1764 217.784 16.3573C217.173 16.5382 216.564 16.9702 216.473 17.599C216.431 17.8894 216.505 18.1872 216.462 18.4775C216.377 19.0544 215.87 19.4584 215.53 19.9329C214.778 20.9822 214.864 22.4645 215.465 23.6061C215.592 23.8424 215.737 24.0684 215.899 24.2822C215.949 24.8218 216.104 25.3465 216.356 25.8267C216.957 26.9683 217.991 27.8214 219.072 28.5302C218.983 28.1516 218.93 27.7657 218.912 27.3773C218.896 27.2479 218.913 27.1168 218.961 26.9954C219.081 26.7446 219.399 26.678 219.641 26.5406C220.143 26.2562 220.34 25.6268 220.355 25.0513C220.369 24.4758 220.247 23.8993 220.307 23.3268C220.31 23.1952 220.34 23.0655 220.396 22.9461C220.451 22.8267 220.531 22.7203 220.631 22.6337C220.816 22.5283 221.028 22.478 221.241 22.4887C222.27 22.4469 223.345 22.428 224.252 21.9431C224.545 21.7493 224.859 21.5907 225.189 21.4705C225.96 21.27 226.748 21.8088 227.193 22.4683C227.637 23.1277 227.859 23.9124 228.269 24.5936C228.679 25.2749 229.387 25.8823 230.18 25.8016C230.224 25.8017 230.269 25.7924 230.309 25.7743C230.35 25.7563 230.387 25.7298 230.417 25.6967C230.451 25.6354 230.466 25.5654 230.46 25.4956L230.504 22.4746C230.541 21.9578 230.49 21.4385 230.352 20.9391Z" fill="#2F2E41"/>
<path d="M212.728 41.1141C212.873 42.3031 212.96 43.4961 212.991 44.6932H207.385V39.9963C207.413 39.8824 207.444 39.7707 207.48 39.6589C207.831 38.5817 208.567 37.6793 209.205 36.7424C209.236 36.6956 209.268 36.6489 209.299 36.6021C209.57 36.2069 209.804 35.7871 209.996 35.3482C210.088 35.1327 210.235 34.0901 210.39 34.0007C211.054 33.6166 211.594 35.2587 211.686 35.6246C212.012 36.9274 212.296 38.2423 212.51 39.5695C212.593 40.0837 212.666 40.5986 212.728 41.1141Z" fill="#2F2E41"/>
<path d="M241.06 44.6934H228.19C228.08 44.4352 227.972 44.1771 227.857 43.921C227.055 42.1113 226.017 40.4146 224.771 38.8746C224.565 38.671 224.431 38.4064 224.39 38.1205C224.385 38.0018 224.414 37.8843 224.473 37.7811C224.669 37.4173 225.187 37.2039 225.607 37.0312C226.041 36.8569 226.44 36.6063 226.785 36.2914C227.09 36.0175 227.324 35.6736 227.466 35.2894C227.504 35.1767 227.532 35.0612 227.552 34.9439C227.611 35.0211 227.672 35.1004 227.731 35.1776C227.876 35.3687 228.023 35.5577 228.171 35.7467C229.598 37.5738 231.166 39.3745 233.138 40.4578C233.653 40.7439 234.197 40.9749 234.761 41.1468C234.814 41.1704 234.873 41.1826 234.932 41.1826C234.991 41.1826 235.049 41.1704 235.103 41.1468C235.186 41.0787 235.24 40.9811 235.252 40.8745C235.427 40.1428 235.488 39.3888 235.617 38.647C235.853 37.2972 236.306 35.9945 236.96 34.7894C237.325 34.1126 238.512 31.6392 239.264 33.198C239.48 33.6472 239.698 34.0977 239.916 34.5496C240.053 34.8362 240.192 35.1207 240.33 35.4073C240.842 36.3164 241.075 37.3551 241.001 38.3949C241.021 40.4964 241.041 42.5959 241.06 44.6934Z" fill="#2F2E41"/>
<path opacity="0.1" d="M213.244 44.6933H214.359L213.727 42.6019L212.816 39.5879C212.826 40.0982 212.797 40.6085 212.728 41.1142C212.59 42.1595 212.291 43.177 211.839 44.1303C211.751 44.3153 211.658 44.5022 211.582 44.6933H213.244Z" fill="black"/>
<path opacity="0.1" d="M235.959 38.2661C235.802 38.6871 235.945 39.1527 236.066 39.5853C236.417 40.8402 236.58 42.1397 236.552 43.4421C236.557 43.4649 236.556 43.4886 236.55 43.511C236.543 43.5335 236.531 43.554 236.515 43.5707C236.499 43.5874 236.478 43.5998 236.456 43.6067C236.434 43.6136 236.41 43.6149 236.387 43.6104C235.873 43.6418 235.284 43.6451 234.936 43.2673L235.959 38.2661Z" fill="black"/>
<path opacity="0.3" d="M115.483 1.18604H0.5V78.824H115.483V1.18604Z" fill="#3F3D56"/>
<path d="M41.8858 8.29932H7.83936V45.2891H41.8858V8.29932Z" fill="#F2F2F2"/>
<path d="M95.7078 8.29932H62.8845V10.535H95.7078V8.29932Z" fill="#F2F2F2"/>
<path d="M19.8677 50.98H8.24707V53.2156H19.8677V50.98Z" fill="#F2F2F2"/>
<path d="M41.4781 55.0444H8.24707V57.2801H41.4781V55.0444Z" fill="#F2F2F2"/>
<path d="M102.436 16.4287H55.1375V18.6644H102.436V16.4287Z" fill="#F2F2F2"/>
<path d="M102.436 22.7295H55.1375V24.9651H102.436V22.7295Z" fill="#F2F2F2"/>
<path d="M102.436 29.0298H55.1375V31.2654H102.436V29.0298Z" fill="#F2F2F2"/>
<path d="M102.436 35.3301H55.1375V37.5657H102.436V35.3301Z" fill="#F2F2F2"/>
<path d="M102.436 41.6304H55.1375V43.866H102.436V41.6304Z" fill="#F2F2F2"/>
<path d="M102.436 47.9312H55.1375V50.1668H102.436V47.9312Z" fill="#F2F2F2"/>
<path d="M102.436 54.2319H55.1375V56.4676H102.436V54.2319Z" fill="#F2F2F2"/>
<path d="M40.9604 45.4923H36.5343C36.1939 44.5798 35.8915 43.6557 35.6271 42.7201C35.4527 41.6201 34.9497 40.598 34.1837 39.7873C33.9498 39.5274 33.7416 39.2456 33.5619 38.9459C33.1824 38.2079 33.0455 37.3696 33.1705 36.5497C33.1959 36.3215 33.2341 36.0949 33.2846 35.8709C33.4783 35.0031 33.8025 34.1698 34.0736 33.3243C34.1309 33.1526 34.2355 33.0004 34.3753 32.885C34.5152 32.7697 34.6847 32.6958 34.8646 32.6719C35.1564 32.6232 35.4561 32.6577 35.729 32.7715C35.7894 32.796 35.8474 32.8259 35.9024 32.8609C36.3855 33.1515 36.6363 33.745 36.8381 34.2876C37.7616 36.7591 38.6845 39.2305 39.6067 41.7019C39.7861 42.1815 39.9655 42.6625 40.1449 43.1449C40.4099 43.8521 40.6729 44.5594 40.8972 45.2809C40.9196 45.3521 40.94 45.4212 40.9604 45.4923Z" fill="#D0CDE1"/>
<path d="M22.5346 12.9635C21.4342 13.334 20.4372 14.2005 20.2119 15.3365C20.1074 15.863 20.1715 16.4104 20.0835 16.9399C19.8797 18.1681 18.9126 19.106 18.0207 19.9772C17.1288 20.8484 16.2077 21.8608 16.1426 23.1039C16.0713 24.4652 17.0616 25.7405 16.8902 27.0929C16.6912 28.6641 15.0265 29.6822 14.615 31.2118C14.3402 32.2332 14.6769 33.3335 15.2309 34.2353C16.2865 35.9538 18.091 37.1206 20.0126 37.746C21.9342 38.3715 23.9807 38.503 26.002 38.5242C28.4632 38.5499 31.1354 38.3392 32.9846 36.7199C34.0409 35.7866 34.7042 34.4898 34.8416 33.0894C35.0173 31.2137 34.232 29.2755 34.7737 27.4707C35.1146 26.3348 35.9695 25.2974 35.8419 24.1187C35.7172 22.9661 34.7074 22.1491 34.0147 21.218C33.368 20.3487 32.9755 19.322 32.5908 18.3099L31.2748 14.8467C31.016 14.1659 30.7319 13.4499 30.1554 13.0031C29.076 12.1666 27.3404 12.3309 26.0782 12.5034C24.9074 12.6635 23.6607 12.5844 22.5346 12.9635Z" fill="#2F2E41"/>
<path d="M23.5526 24.377C23.5526 24.377 23.6814 28.2296 23.295 28.6149C22.9086 29.0001 24.8408 31.5685 24.8408 31.5685L28.3189 31.4401L30.1223 30.0275L28.5765 27.9728C28.5765 27.9728 27.9324 24.6339 28.4477 23.8634C28.963 23.0929 23.5526 24.377 23.5526 24.377Z" fill="#A0616A"/>
<path opacity="0.1" d="M23.5526 24.377C23.5526 24.377 23.6814 28.2296 23.295 28.6149C22.9086 29.0001 24.8408 31.5685 24.8408 31.5685L28.3189 31.4401L30.1223 30.0275L28.5765 27.9728C28.5765 27.9728 27.9324 24.6339 28.4477 23.8634C28.963 23.0929 23.5526 24.377 23.5526 24.377Z" fill="black"/>
<path d="M25.6782 25.8536C28.2394 25.8536 30.3157 23.7838 30.3157 21.2305C30.3157 18.6773 28.2394 16.6074 25.6782 16.6074C23.117 16.6074 21.0408 18.6773 21.0408 21.2305C21.0408 23.7838 23.117 25.8536 25.6782 25.8536Z" fill="#A0616A"/>
<path d="M28.055 45.4924H31.8144C31.9551 45.2383 32.0876 44.9741 32.2405 44.7343V44.7322C32.4077 44.4422 32.6427 44.1968 32.9255 44.0168C33.1053 43.9347 33.2756 43.8332 33.4332 43.714C33.5839 43.551 33.6906 43.3523 33.743 43.1368C34.002 42.3304 34.1447 41.4915 34.1671 40.6451C34.1732 40.3605 34.1671 40.0719 34.1834 39.7874C34.1914 39.5651 34.2201 39.3439 34.269 39.1269C34.3981 38.6855 34.5852 38.2632 34.8256 37.8708C35.3353 36.9461 35.8463 36.0213 36.3587 35.0966C36.4511 34.8361 36.4865 34.5589 36.4627 34.2836C36.4517 33.9123 36.3373 33.5513 36.1324 33.241C36.0611 33.113 35.9836 32.9849 35.902 32.861C35.5875 32.3607 35.2213 31.8948 34.8093 31.4708C33.9351 30.5568 32.8741 29.8408 31.6982 29.3713C31.5507 29.3218 31.4102 29.2535 31.2803 29.1681C31.1269 29.0389 30.9972 28.8842 30.897 28.7108C30.4892 28.099 29.9918 27.41 29.2558 27.4487C29.136 27.3887 29.0055 27.3532 28.8718 27.3441C28.738 27.335 28.6039 27.3526 28.477 27.3958C28.4383 27.4059 28.4002 27.4181 28.3629 27.4324C28.0816 27.5565 27.8085 27.6984 27.5454 27.8572C26.8683 28.2076 26.101 28.3464 25.3435 28.2555C25.2547 28.2493 25.1677 28.2273 25.0867 28.1905C25.0007 28.1361 24.9213 28.072 24.8502 27.9994C24.6641 27.8476 24.441 27.7476 24.2035 27.7097C23.9661 27.6719 23.7228 27.6975 23.4985 27.784C23.2879 27.8588 23.1018 27.9895 22.9603 28.162C22.8257 28.3307 22.732 28.534 22.5831 28.6925C22.1978 29.103 21.5617 29.1193 20.999 29.1173C19.8304 29.0847 18.6621 29.1918 17.519 29.4364C16.515 29.6584 15.5769 30.1107 14.7789 30.7574L14.7769 30.7594C14.6668 30.8529 14.5649 30.9485 14.4629 31.0501C14.2311 31.2678 14.0465 31.5307 13.9206 31.8224C13.7657 32.2207 13.7861 32.6699 13.6454 33.0744C13.4905 33.5276 13.1459 33.8975 13.0073 34.3527C12.9013 34.6983 12.9156 35.0803 12.7402 35.3933C12.7484 35.3994 12.7545 35.4055 12.7627 35.4116C13.5047 36.062 14.1388 36.9156 14.8829 37.5599C15.3148 37.8879 15.6801 38.2948 15.9594 38.759C16.0131 38.8633 16.0574 38.9721 16.0919 39.0842C16.1756 39.4727 16.2125 39.8698 16.202 40.2671C16.2957 42.1674 17.3294 43.8908 18.4853 45.4029C18.5077 45.4334 18.5302 45.4639 18.5546 45.4924L28.055 45.4924Z" fill="#D0CDE1"/>
<path d="M15.9594 38.759C15.784 39.9724 15.6073 41.185 15.4293 42.397C15.3483 43.0461 15.2271 43.6896 15.0664 44.3238C14.9604 44.716 14.8238 45.1002 14.728 45.4924H9.41919C9.42189 45.2727 9.43892 45.0534 9.47016 44.8359C9.60685 44.0546 9.82904 43.2906 10.1327 42.5576C10.7505 40.8951 11.3675 39.2312 11.9839 37.566C12.2469 36.8567 12.4732 36.1149 12.7627 35.4116C12.8136 35.2816 12.8687 35.1515 12.9278 35.0255C13.2356 34.3507 14.0899 34.6272 14.7219 34.7288C14.8954 34.7503 15.0645 34.7982 15.2234 34.871C15.4155 34.9765 15.5776 35.129 15.6943 35.3141C16.2937 36.1982 16.1632 37.3668 16.0083 38.4237C15.992 38.5355 15.9757 38.6473 15.9594 38.759Z" fill="#D0CDE1"/>
<path d="M32.2407 44.7345C32.2488 44.7629 32.3365 45.0657 32.4812 45.4926H28.0552C30.2488 45.1165 32.2407 44.7324 32.2407 44.7324V44.7345Z" fill="#2F2E41"/>
<path d="M26.0647 21.2305C28.8393 21.2305 31.0886 20.0231 31.0886 18.5337C31.0886 17.0443 28.8393 15.8369 26.0647 15.8369C23.29 15.8369 21.0408 17.0443 21.0408 18.5337C21.0408 20.0231 23.29 21.2305 26.0647 21.2305Z" fill="#2F2E41"/>
<path d="M189.144 29.7671H74.1606V107.405H189.144V29.7671Z" fill="#3F3D56"/>
<path opacity="0.1" d="M172.426 102.121C179.857 102.121 185.882 101.484 185.882 100.698C185.882 99.9124 179.857 99.2754 172.426 99.2754C164.995 99.2754 158.971 99.9124 158.971 100.698C158.971 101.484 164.995 102.121 172.426 102.121Z" fill="black"/>
<path d="M115.546 36.8804H81.5V73.8702H115.546V36.8804Z" fill="#F2F2F2"/>
<path d="M92.4633 53.8637C92.5739 53.8972 92.6927 53.8915 92.7995 53.8475C92.9063 53.8035 92.9945 53.7239 93.0491 53.6224C93.52 52.8827 92.653 51.929 92.8407 51.0732C92.9911 50.3876 93.7726 49.9806 93.9324 49.2971C94.0877 48.6329 93.6093 47.8843 93.9326 47.2834C94.186 46.8126 94.8188 46.6887 95.3483 46.7711C95.8778 46.8536 96.3804 47.0857 96.9153 47.1182C97.6282 47.1615 98.3076 46.8487 99.0047 46.6937C99.7017 46.5387 100.552 46.5994 100.962 47.1823C101.488 47.9307 100.954 48.9729 101.138 49.8685C101.283 50.5798 101.88 51.1687 101.893 51.8944C101.898 52.1524 101.218 51.9446 101.254 52.2001C101.29 52.4555 100.968 52.2306 101.225 52.2002C101.33 52.1746 101.424 52.1164 101.494 52.0339C101.563 51.9515 101.605 51.8491 101.612 51.7416C101.643 51.5288 102.044 51.4579 102.039 51.243C102.028 50.7394 102.942 51.079 103.092 50.598C103.438 49.4769 103.367 48.269 102.892 47.1958C102.648 46.7574 102.452 46.2934 102.31 45.8122C102.175 45.1444 102.387 44.4276 102.165 43.7832C101.867 42.9149 100.88 42.4723 99.9639 42.3824C99.0476 42.2925 98.1165 42.4534 97.2055 42.3208C96.3894 42.202 95.5993 41.8494 94.7762 41.9005C93.7884 41.9618 92.9289 42.5963 92.2442 43.3086C91.5596 44.021 90.9788 44.8403 90.2012 45.4505C89.9631 45.6139 89.7435 45.8024 89.5461 46.0128C89.15 46.4939 89.1098 47.1793 89.22 47.792C89.3302 48.4046 89.5699 48.989 89.6712 49.6032C89.7663 50.1804 89.7369 50.7701 89.7779 51.3535C89.7875 51.9421 89.9662 52.5155 90.2929 53.0058C90.434 53.1968 90.617 53.3532 90.8279 53.463C91.0389 53.5729 91.2721 53.6333 91.51 53.6397C91.6748 53.6435 91.814 53.4959 91.9804 53.5344C92.1883 53.5825 92.2787 53.7793 92.4633 53.8637Z" fill="#2F2E41"/>
<path d="M84.9758 74.0737C85.1247 72.0393 85.2368 70.519 85.2368 70.519L86.1991 67.9907L89.2877 74.0737L84.9758 74.0737Z" fill="#575A89"/>
<path opacity="0.1" d="M84.9758 74.0737C85.1247 72.0393 85.2368 70.519 85.2368 70.519L86.1991 67.9907L89.2877 74.0737L84.9758 74.0737Z" fill="black"/>
<path d="M92.1335 54.0707C92.1335 54.0707 95.0136 61.379 93.3554 62.7711C91.6972 64.1631 102.606 60.422 102.606 60.422L102.345 59.4649C102.345 59.4649 98.7663 58.0729 100.512 54.0707C102.257 50.0686 92.1335 54.0707 92.1335 54.0707Z" fill="#A0616A"/>
<path opacity="0.1" d="M92.1335 54.0707C92.1335 54.0707 95.0136 61.379 93.3554 62.7711C91.6972 64.1631 102.606 60.422 102.606 60.422L102.345 59.4649C102.345 59.4649 98.7663 58.0729 100.512 54.0707C102.257 50.0686 92.1335 54.0707 92.1335 54.0707Z" fill="black"/>
<path d="M96.2353 57.0286C99.6093 57.0286 102.344 54.3019 102.344 50.9384C102.344 47.5748 99.6093 44.8481 96.2353 44.8481C92.8614 44.8481 90.1262 47.5748 90.1262 50.9384C90.1262 54.3019 92.8614 57.0286 96.2353 57.0286Z" fill="#A0616A"/>
<path d="M111.071 64.0757C111.071 64.0757 111.047 64.5595 111.004 65.4049C110.916 67.1264 110.759 70.3518 110.602 74.0731H86.9206C86.3017 73.2469 85.7952 72.3428 85.4139 71.3843C85.3108 71.1064 85.251 70.8144 85.2366 70.5185C85.1061 68.2117 87.1795 64.9924 88.6433 64.6855C90.3007 64.3359 93.4424 61.0312 93.4424 61.0312C93.4524 61.157 93.4944 61.2782 93.5643 61.3834C93.6342 61.4886 93.7297 61.5744 93.842 61.6328V61.6348C94.0953 61.7653 94.3787 61.827 94.6636 61.8137C95.687 61.8137 100.188 59.7427 101.634 59.0659C101.917 58.9338 102.082 58.8545 102.082 58.8545C103.749 59.5717 105.472 60.1542 107.232 60.5963C108.111 60.8147 108.921 61.2469 109.591 61.8541C110.261 62.4613 110.77 63.2246 111.071 64.0757Z" fill="#575A89"/>
<path d="M91.4159 53.2543C91.5265 53.2878 91.6453 53.2821 91.7521 53.2381C91.8589 53.1941 91.9471 53.1145 92.0017 53.013C92.4726 52.2734 91.6056 51.3196 91.7934 50.4638C91.9438 49.7782 92.7253 49.3712 92.8851 48.6877C93.0403 48.0236 92.5619 47.2749 92.8853 46.674C93.1386 46.2032 93.7714 46.0793 94.3009 46.1618C94.8305 46.2442 95.333 46.4763 95.868 46.5088C96.5808 46.5521 97.2603 46.2393 97.9573 46.0843C98.6543 45.9293 99.5045 45.99 99.9145 46.5729C100.441 47.3213 99.9069 48.3635 100.09 49.2591C100.236 49.9704 101.894 50.4696 102.045 49.9886C102.391 48.8675 102.32 47.6597 101.845 46.5865C101.6 46.1481 101.405 45.684 101.262 45.2029C101.128 44.5351 101.339 43.8182 101.118 43.1739C100.82 42.3055 99.8327 41.8629 98.9165 41.773C98.0003 41.6831 97.0692 41.844 96.1582 41.7114C95.342 41.5927 94.552 41.2401 93.7288 41.2912C92.7411 41.3525 91.8816 41.9869 91.1969 42.6992C90.5122 43.4116 89.9314 44.2309 89.1538 44.8412C88.9157 45.0045 88.6961 45.193 88.4987 45.4034C88.1026 45.8845 88.0625 46.57 88.1727 47.1826C88.2828 47.7952 88.5226 48.3796 88.6238 48.9938C88.7189 49.571 88.6896 50.1607 88.7305 50.7442C88.7401 51.3327 88.9188 51.9061 89.2455 52.3964C89.3866 52.5874 89.5696 52.7438 89.7806 52.8536C89.9915 52.9635 90.2248 53.0239 90.4627 53.0303C90.6275 53.0341 90.7667 52.8865 90.933 52.925C91.141 52.9731 91.2314 53.1699 91.4159 53.2543Z" fill="#2F2E41"/>
<path opacity="0.1" d="M114.099 74.0736H107.188C106.662 70.2282 106.227 66.2082 106.227 66.2082L107.624 65.5984L110.462 64.0762C110.462 64.0762 110.67 64.568 111.004 65.4054C111.718 67.1959 113.012 70.5656 114.099 74.0736Z" fill="black"/>
<path d="M114.708 74.0733H106.908C105.752 69.8662 104.613 65.2933 104.613 65.2933L107.581 63.1187L111.071 64.0759C111.071 64.0759 113.114 68.9232 114.708 74.0733Z" fill="#575A89"/>
<path d="M169.368 36.8804H136.545V39.116H169.368V36.8804Z" fill="#447ACC"/>
<path d="M93.5284 79.561H81.9077V81.7967H93.5284V79.561Z" fill="#447ACC"/>
<path d="M115.139 83.626H81.9077V85.8616H115.139V83.626Z" fill="#447ACC"/>
<path d="M176.096 45.0098H128.798V47.2454H176.096V45.0098Z" fill="#F2F2F2"/>
<path d="M176.096 51.3105H128.798V53.5462H176.096V51.3105Z" fill="#F2F2F2"/>
<path d="M176.096 57.6113H128.798V59.847H176.096V57.6113Z" fill="#F2F2F2"/>
<path d="M176.096 63.9116H128.798V66.1473H176.096V63.9116Z" fill="#F2F2F2"/>
<path d="M176.096 70.2119H128.798V72.4476H176.096V70.2119Z" fill="#F2F2F2"/>
<path d="M176.096 76.5122H128.798V78.7479H176.096V76.5122Z" fill="#F2F2F2"/>
<path d="M176.096 82.813H128.798V85.0486H176.096V82.813Z" fill="#F2F2F2"/>
<path d="M185.213 83.1149L172.283 96.0044L166.849 90.5869C166.676 90.4149 166.472 90.2785 166.246 90.1854C166.021 90.0924 165.779 90.0445 165.535 90.0445C165.291 90.0445 165.05 90.0923 164.824 90.1854C164.599 90.2785 164.394 90.4149 164.222 90.5869L164.027 90.2958C163.301 91.019 163.496 92.4826 164.222 93.2059L171.273 100.235C171.538 100.5 171.899 100.649 172.275 100.649C172.65 100.649 173.011 100.5 173.277 100.236L187.838 85.734C188.564 85.011 188.828 83.6854 188.102 82.9621C187.377 82.2391 185.938 82.3919 185.213 83.1149Z" fill="#57B894"/>
<path opacity="0.1" d="M185.213 83.1149L172.283 96.0044L166.849 90.5869C166.676 90.4149 166.472 90.2785 166.246 90.1854C166.021 90.0924 165.779 90.0445 165.535 90.0445C165.291 90.0445 165.05 90.0923 164.824 90.1854C164.599 90.2785 164.394 90.4149 164.222 90.5869L164.027 90.2958C163.301 91.019 163.496 92.4826 164.222 93.2059L171.273 100.235C171.538 100.5 171.899 100.649 172.275 100.649C172.65 100.649 173.011 100.5 173.277 100.236L187.838 85.734C188.564 85.011 188.828 83.6854 188.102 82.9621C187.377 82.2391 185.938 82.3919 185.213 83.1149Z" fill="black"/>
<path d="M185.213 82.5432L172.283 95.4327L166.849 90.0152C166.676 89.8432 166.472 89.7068 166.246 89.6137C166.021 89.5207 165.779 89.4728 165.535 89.4728C165.291 89.4728 165.05 89.5207 164.824 89.6137C164.599 89.7068 164.394 89.8432 164.222 90.0152C164.049 90.1871 163.912 90.3913 163.819 90.616C163.726 90.8407 163.678 91.0815 163.678 91.3247C163.678 91.5679 163.726 91.8087 163.819 92.0334C163.912 92.2581 164.049 92.4622 164.222 92.6342L171.273 99.6633C171.538 99.9282 171.899 100.077 172.275 100.077C172.65 100.077 173.011 99.9286 173.277 99.6638L187.838 85.1623C188.011 84.9904 188.148 84.7863 188.241 84.5616C188.335 84.337 188.383 84.0961 188.383 83.8529C188.383 83.6097 188.335 83.3688 188.242 83.1441C188.148 82.9194 188.012 82.7152 187.839 82.5433C187.491 82.196 187.018 82.001 186.526 82.001C186.033 82.001 185.561 82.196 185.213 82.5432Z" fill="#57B894"/>
<path opacity="0.1" d="M280.335 157.2C280.335 171.733 260.014 167.238 235.134 167.238C210.253 167.238 190.235 171.733 190.235 157.2C190.235 142.666 210.552 139.505 235.433 139.505C260.313 139.505 280.335 142.666 280.335 157.2Z" fill="black"/>
<path d="M280.335 154.485C280.335 169.018 260.014 164.523 235.134 164.523C210.253 164.523 190.235 169.018 190.235 154.485C190.235 139.951 210.552 136.791 235.433 136.791C260.313 136.791 280.335 139.951 280.335 154.485Z" fill="#3F3D56"/>
<path d="M195.389 108.955L194.468 110.02C194.468 110.02 183.273 111.068 183.727 112.88C184.181 114.692 197.207 110.464 197.207 110.464L195.389 108.955Z" fill="#FFC1C7"/>
<path d="M215.684 108.049C215.684 108.049 203.719 112.276 197.207 110.465L200.236 116.504C200.236 116.504 215.684 116.051 218.41 113.333C221.137 110.616 215.684 108.049 215.684 108.049Z" fill="#447ACC"/>
<path opacity="0.1" d="M215.684 108.049C215.684 108.049 203.719 112.276 197.207 110.465L200.236 116.504C200.236 116.504 215.684 116.051 218.41 113.333C221.137 110.616 215.684 108.049 215.684 108.049Z" fill="black"/>
<path d="M207.582 75.6623C212.015 75.6623 215.609 72.0796 215.609 67.66C215.609 63.2405 212.015 59.6577 207.582 59.6577C203.148 59.6577 199.554 63.2405 199.554 67.66C199.554 72.0796 203.148 75.6623 207.582 75.6623Z" fill="#FFC1C7"/>
<path d="M214.426 75.1725C214.702 75.6984 215.053 76.1822 215.466 76.6095C216.566 77.802 217.878 78.7808 219.335 79.4959C214.779 80.419 210.178 81.1012 205.549 81.5396C206.038 79.8241 205.395 77.9892 204.53 76.4279C203.666 74.8666 202.564 73.4114 202.023 71.7116L207.448 71.857C208.433 71.8834 209.42 71.9128 210.405 71.8647C211.14 71.8288 212.366 71.3895 213.052 71.5513C214.504 71.8934 213.792 73.889 214.426 75.1725Z" fill="#FFC1C7"/>
<path d="M232.647 112.729L237.191 118.165C237.191 118.165 244.763 135.83 228.255 137.642C211.746 139.454 199.479 136.283 199.479 136.283C199.479 136.283 192.815 133.112 192.663 135.528C192.512 137.944 191.906 144.738 188.271 151.382L185.09 158.629C185.09 158.629 183.424 160.29 183.879 162.555C184.333 164.819 173.731 165.574 173.883 162.555C173.883 162.555 175.397 159.988 175.397 158.478C175.397 156.968 177.821 153.345 177.821 153.345L182.213 131.602C182.213 131.602 181.91 120.429 192.209 122.543C202.508 124.657 217.199 122.09 217.199 122.09L220.531 110.464L232.647 112.729Z" fill="#2F2E41"/>
<path opacity="0.1" d="M232.647 112.729L237.191 118.165C237.191 118.165 244.763 135.83 228.255 137.642C211.746 139.454 199.479 136.283 199.479 136.283C199.479 136.283 192.815 133.112 192.663 135.528C192.512 137.944 191.906 144.738 188.271 151.382L185.09 158.629C185.09 158.629 183.424 160.29 183.879 162.555C184.333 164.819 173.731 165.574 173.883 162.555C173.883 162.555 175.397 159.988 175.397 158.478C175.397 156.968 177.821 153.345 177.821 153.345L182.213 131.602C182.213 131.602 181.91 120.429 192.209 122.543C202.508 124.657 217.199 122.09 217.199 122.09L220.531 110.464L232.647 112.729Z" fill="black"/>
<path d="M215.609 112.332C215.609 112.332 229.467 107.143 237.191 118.165C237.191 118.165 239.16 135.226 231.284 135.981C223.408 136.736 213.109 136.585 210.686 134.018C208.263 131.452 192.966 124.204 192.966 124.204C192.966 124.204 185.351 120.332 183.858 125.363C182.364 130.395 182.213 131.603 182.213 131.603C182.213 131.603 174.337 137.34 171.157 138.397C171.157 138.397 169.036 141.417 167.825 141.417C166.613 141.417 159.192 143.078 159.949 137.491L172.217 126.318L184.485 114.39C184.485 114.39 187.968 109.257 196.904 111.974C202.834 113.734 208.85 115.195 214.927 116.353L215.609 112.332Z" fill="#2F2E41"/>
<path d="M183.424 162.253C183.424 162.253 186.302 169.5 183.879 170.406C181.455 171.312 176.306 170.708 176.306 170.708C176.306 170.708 170.248 169.953 168.733 170.104C167.219 170.255 161.009 169.047 161.918 166.631C162.826 164.216 167.522 164.819 167.522 164.819L171.762 162.857C171.762 162.857 172.217 161.347 173.277 161.951C174.337 162.555 177.366 164.819 183.424 162.253Z" fill="#CBCEDA"/>
<path d="M167.673 140.812C167.673 140.812 170.854 147.909 165.704 147.305C160.555 146.701 156.617 145.644 155.102 145.493C153.645 145.348 149.526 143.945 150.158 141.151C150.192 140.97 150.206 140.786 150.199 140.602C150.199 140.227 150.71 139.491 154.799 139.605C154.799 139.605 157.829 139.605 159.04 137.491C159.04 137.491 163.584 143.228 167.673 140.812Z" fill="#CBCEDA"/>
<path d="M202.053 80.4182C202.053 80.4182 212.958 73.6238 222.045 80.4182C231.133 87.2126 237.191 118.165 237.191 118.165L216.139 113.484C216.139 113.484 215.23 109.861 214.018 109.257C212.807 108.653 212.655 106.086 212.655 106.086C212.655 106.086 206.142 104.123 206.597 96.5737C207.051 89.0244 202.053 80.4182 202.053 80.4182Z" fill="#447ACC"/>
<path d="M207.657 80.7202H202.053C202.053 80.7202 198.721 84.4949 198.267 94.007L196.449 101.556C196.449 101.556 192.663 110.615 194.935 112.125C197.207 113.635 201.599 113.484 202.508 110.465C203.416 107.445 209.626 89.9304 209.626 89.9304L207.657 80.7202Z" fill="#447ACC"/>
<path d="M206.051 57.2455C207.44 56.6775 208.961 56.505 210.443 56.7472C211.924 56.9894 213.31 57.6368 214.444 58.6174C217.353 61.2051 217.94 65.4266 218.675 69.2433C219.411 73.06 220.89 77.3104 224.498 78.7818C222.872 78.9984 221.221 78.9505 219.61 78.64L225.063 83.5115L215.877 80.5267C212.994 79.59 209.966 78.6414 206.981 79.1705C202.035 80.0469 198.592 84.6818 193.842 86.3101L194.37 83.7422L191.183 83.7179C191.947 83.1547 192.571 82.4253 193.009 81.5852C192.859 81.4033 192.674 81.2534 192.464 81.1441C192.255 81.0349 192.025 80.9687 191.79 80.9493C190.461 72.6886 195.382 64.5227 201.795 59.1258C203.056 58.0642 204.452 57.0446 206.081 56.7791C207.71 56.5135 209.611 57.2397 210.178 58.7853" fill="#2F2E41"/>
<path d="M67.0796 132.953C67.0796 150.332 78.0162 164.395 91.5317 164.395L67.0796 132.953Z" fill="#3F3D56"/>
<path d="M91.5317 164.395C91.5317 146.821 103.736 132.6 118.819 132.6L91.5317 164.395Z" fill="#447ACC"/>
<path d="M75.939 134.528C75.939 151.037 82.913 164.395 91.5316 164.395L75.939 134.528Z" fill="#447ACC"/>
<path d="M91.5317 164.395C91.5317 141.939 105.638 123.768 123.071 123.768L91.5317 164.395Z" fill="#3F3D56"/>
<path d="M86.3877 164.617C86.3877 164.617 89.8554 164.511 90.9005 163.769C91.9456 163.027 96.2347 162.141 96.494 163.331C96.7532 164.521 101.705 169.248 97.7903 169.28C93.8752 169.311 88.6935 168.672 87.6504 168.039C86.6073 167.405 86.3877 164.617 86.3877 164.617Z" fill="#A8A8A8"/>
<path opacity="0.2" d="M97.8601 168.865C93.9451 168.897 88.7633 168.258 87.7203 167.624C86.9259 167.142 86.6094 165.411 86.5035 164.612C86.4301 164.615 86.3877 164.617 86.3877 164.617C86.3877 164.617 86.6073 167.405 87.6504 168.038C88.6935 168.672 93.8752 169.311 97.7903 169.28C98.9204 169.271 99.3107 168.87 99.2893 168.276C99.1323 168.635 98.7013 168.859 97.8601 168.865Z" fill="black"/>
</g>
<defs>
<clipPath id="clip0">
<rect width="291" height="176" fill="white" transform="translate(0.5 0.386719)"/>
</clipPath>
</defs>
</svg>
