<svg width="108" height="91" viewBox="0 0 108 91" fill="none" xmlns="http://www.w3.org/2000/svg">
<path opacity="0.1" d="M76.7571 90.9988C82.8506 90.9988 87.7903 90.5066 87.7903 89.8994C87.7903 89.2922 82.8506 88.7999 76.7571 88.7999C70.6636 88.7999 65.7239 89.2922 65.7239 89.8994C65.7239 90.5066 70.6636 90.9988 76.7571 90.9988Z" fill="#447ACC"/>
<path opacity="0.1" d="M47.2839 1.33106C52.1432 -0.494852 58.059 1.0755 63.1108 3.36578C78.9776 10.5607 90.5368 24.2186 99.7208 38.1332C103.046 43.1716 106.205 48.4319 107.455 54.0564C110 65.5046 103.361 77.3562 92.0709 81.5093C88.2314 82.9231 84.0133 83.5027 79.7887 83.8257C72.2765 84.401 64.4986 84.1726 57.0466 82.0422C51.7323 80.5197 46.7051 78.0706 41.8835 75.3649C28.4179 67.8046 16.1206 57.9867 7.26586 45.9937C3.38228 40.7334 0.096837 34.8033 0.00216809 28.7339C-0.0925008 22.6646 3.82012 16.5659 10.2576 15.5338C12.9191 15.1075 15.7344 15.5512 18.4809 16.008C22.5248 16.6812 26.6235 17.3891 30.6211 17.0955C34.751 16.7899 40.1224 15.1587 40.8755 11.173C41.6726 6.89364 42.4311 3.1548 47.2839 1.33106Z" fill="#447ACC"/>
<path d="M67.3581 43.7926H59.9169V36.3802H67.3635L67.3581 43.7926ZM67.2505 32.6164H60.0245C60.0245 21.0976 70.8555 21.7707 70.8555 14.4834C70.8555 10.4694 67.6056 7.25366 63.6348 7.25366C59.6641 7.25366 56.4153 10.7206 56.4153 14.5976H49.1946C49.1913 12.6797 49.5626 10.78 50.2872 9.00743C51.0117 7.23489 52.0752 5.62436 53.4168 4.26819C54.7583 2.91203 56.3515 1.83691 58.1049 1.10448C59.8584 0.372055 61.7376 -0.00327325 63.6348 2.15049e-05C71.6107 2.15049e-05 78.0751 6.4326 78.0751 14.4834C78.0751 23.5956 67.2452 24.633 67.2452 32.6164H67.2505Z" fill="#5C9EFF"/>
<path opacity="0.1" d="M30.2446 41.5851H28.3254V39.6689H30.2446V41.5851ZM30.2156 38.7032H28.3545C28.3545 35.7343 31.1461 35.9073 31.1461 34.027C31.1452 33.7809 31.0962 33.5375 31.0022 33.3106C30.9081 33.0838 30.7707 32.8778 30.5979 32.7046C30.425 32.5314 30.2201 32.3943 29.9949 32.3012C29.7696 32.2081 29.5284 32.1608 29.285 32.1619C28.7936 32.1734 28.3256 32.3769 27.9794 32.7297C27.6332 33.0825 27.4356 33.5572 27.4282 34.0542H25.5671C25.5795 33.0668 25.9752 32.1239 26.6689 31.4287C27.3626 30.7335 28.2988 30.3418 29.2756 30.3379C30.2524 30.3341 31.1916 30.7184 31.8906 31.4081C32.5897 32.0978 32.9927 33.0375 33.0126 34.0248C33.0073 36.3738 30.2156 36.6413 30.2156 38.6989V38.7032Z" fill="#447ACC"/>
<path opacity="0.1" d="M44.7762 54.8971H42.857V52.9863H44.7762V54.8971ZM44.7482 52.0163H42.8871C42.8871 49.0463 45.6788 49.2203 45.6788 47.34C45.6778 47.094 45.6289 46.8507 45.5348 46.6238C45.4407 46.397 45.3033 46.1911 45.1304 46.018C44.9576 45.8449 44.7527 45.7079 44.5274 45.6149C44.3022 45.5219 44.061 45.4747 43.8177 45.476C43.3241 45.485 42.8534 45.6877 42.5051 46.0413C42.1567 46.3948 41.9581 46.8715 41.9512 47.3704H40.0901C40.1024 46.3831 40.4981 45.4401 41.1918 44.745C41.8856 44.0498 42.8217 43.6581 43.7985 43.6542C44.7753 43.6504 45.7145 44.0347 46.4136 44.7244C47.1126 45.4141 47.5156 46.3538 47.5356 47.3411C47.5388 49.6901 44.7482 49.9587 44.7482 52.0163Z" fill="#447ACC"/>
<path opacity="0.1" d="M72.6885 66.6002H70.7694V64.6894H72.6885V66.6002ZM72.6606 63.7194H70.7995C70.7995 60.7494 73.5911 60.9234 73.5911 59.0431C73.5901 58.7972 73.5412 58.5538 73.4471 58.327C73.353 58.1001 73.2156 57.8943 73.0428 57.7211C72.8699 57.548 72.665 57.4111 72.4398 57.3181C72.2145 57.2251 71.9733 57.1778 71.73 57.1791C71.2365 57.1881 70.7658 57.3908 70.4174 57.7444C70.0691 58.0979 69.8704 58.5746 69.8635 59.0736H68.0024C68.0148 58.0862 68.4105 57.1433 69.1042 56.4481C69.7979 55.7529 70.7341 55.3612 71.7109 55.3573C72.6877 55.3535 73.6269 55.7378 74.3259 56.4275C75.025 57.1172 75.4279 58.057 75.4479 59.0442C75.4511 61.3932 72.6606 61.6618 72.6606 63.7194Z" fill="#447ACC"/>
<path opacity="0.1" d="M53.6128 31.331H52.2218V29.9488H53.6128V31.331ZM53.5923 29.2419H52.2433C52.2433 27.0908 54.2668 27.2159 54.2668 25.8543C54.266 25.6761 54.2304 25.4998 54.1622 25.3354C54.0939 25.1711 53.9943 25.0219 53.8691 24.8965C53.7438 24.7711 53.5953 24.6718 53.4321 24.6044C53.2689 24.537 53.0941 24.5028 52.9178 24.5036C52.5608 24.5109 52.2206 24.6581 51.9689 24.9142C51.7172 25.1702 51.5737 25.5151 51.5688 25.876H50.2197C50.2169 25.1527 50.4984 24.4578 51.0024 23.9443C51.5064 23.4307 52.1915 23.1406 52.9071 23.1377C53.6226 23.1348 54.31 23.4194 54.818 23.9289C55.326 24.4383 55.613 25.1309 55.6159 25.8543C55.6137 27.5562 53.5923 27.7509 53.5923 29.2419Z" fill="#447ACC"/>
<path opacity="0.1" d="M88.522 53.3723H87.131V51.9901H88.522V53.3723ZM88.5015 51.2833H87.1525C87.1525 49.1322 89.176 49.2572 89.176 47.8957C89.1752 47.7175 89.1396 47.5411 89.0714 47.3768C89.0031 47.2125 88.9035 47.0633 88.7782 46.9379C88.653 46.8125 88.5045 46.7132 88.3413 46.6458C88.1781 46.5784 88.0033 46.5441 87.827 46.545C87.47 46.5523 87.1298 46.6995 86.8781 46.9556C86.6264 47.2116 86.4829 47.5565 86.478 47.9174H85.1289C85.1261 47.1941 85.4076 46.4992 85.9116 45.9856C86.4155 45.4721 87.1007 45.182 87.8162 45.1791C88.5318 45.1762 89.2192 45.4608 89.7272 45.9703C90.2352 46.4797 90.5222 47.1723 90.5251 47.8957C90.5229 49.5976 88.5015 49.7923 88.5015 51.2833Z" fill="#447ACC"/>
<path opacity="0.1" d="M77.3702 33.2819H76.5838V32.4989H77.3702V33.2819ZM77.3583 32.102H76.5913C76.5913 30.8862 77.7349 30.9568 77.7349 30.1869C77.7349 30.0862 77.7151 29.9865 77.6767 29.8936C77.6384 29.8006 77.5821 29.7163 77.5113 29.6455C77.4404 29.5747 77.3564 29.5188 77.264 29.4811C77.1717 29.4433 77.0728 29.4245 76.9732 29.4256C76.7715 29.4298 76.5792 29.513 76.437 29.6577C76.2947 29.8023 76.2135 29.9971 76.2105 30.201H75.4478C75.4567 29.7992 75.6204 29.4167 75.9042 29.1351C76.188 28.8535 76.5693 28.6951 76.9669 28.6935C77.3646 28.6919 77.7471 28.8474 78.033 29.1268C78.3189 29.4061 78.4856 29.7873 78.4976 30.1891C78.5019 31.145 77.3583 31.2592 77.3583 32.102Z" fill="#447ACC"/>
<path opacity="0.1" d="M89.3932 68.8943H88.6068V68.1113H89.3932V68.8943ZM89.3814 67.7144H88.6187C88.6187 66.4975 89.7633 66.5693 89.7633 65.7993C89.7619 65.5962 89.6807 65.4019 89.5377 65.2592C89.3947 65.1164 89.2015 65.0369 89.0006 65.0381C88.7987 65.042 88.6063 65.1251 88.464 65.2698C88.3217 65.4145 88.2406 65.6094 88.2378 65.8135H87.4751C87.484 65.4116 87.6478 65.0291 87.9315 64.7475C88.2153 64.4659 88.5966 64.3075 88.9943 64.3059C89.3919 64.3044 89.7744 64.4598 90.0603 64.7392C90.3462 65.0185 90.5129 65.3997 90.5249 65.8015C90.5292 66.7618 89.3857 66.8716 89.3857 67.7144H89.3814Z" fill="#447ACC"/>
</svg>
