<svg width="109" height="92" viewBox="0 0 109 92" fill="none" xmlns="http://www.w3.org/2000/svg">
<g clip-path="url(#clip0)">
<path opacity="0.1" d="M77.0955 91.4615C83.189 91.4615 88.1287 90.9692 88.1287 90.362C88.1287 89.7548 83.189 89.2626 77.0955 89.2626C71.002 89.2626 66.0623 89.7548 66.0623 90.362C66.0623 90.9692 71.002 91.4615 77.0955 91.4615Z" fill="#447ACC"/>
<path opacity="0.1" d="M47.6225 1.79371C52.4818 -0.0322059 58.3976 1.53815 63.4495 3.82843C79.3162 11.0233 90.8755 24.6813 100.059 38.5959C103.385 43.6343 106.543 48.8945 107.793 54.5191C110.339 65.9672 103.7 77.8188 92.4095 81.972C88.5701 83.3857 84.3519 83.9654 80.1273 84.2883C72.6151 84.8636 64.8372 84.6353 57.3853 82.5049C52.0709 80.9823 47.0438 78.5333 42.2221 75.8276C28.7565 68.2673 16.4592 58.4493 7.60448 46.4563C3.7209 41.1961 0.43546 35.2659 0.340791 29.1966C0.246122 23.1272 4.15875 17.0285 10.5962 15.9965C13.2577 15.5702 16.073 16.0139 18.8195 16.4706C22.8634 17.1438 26.9621 17.8518 30.9597 17.5581C35.0897 17.2526 40.461 15.6213 41.2141 11.6356C42.0112 7.35628 42.7697 3.61745 47.6225 1.79371Z" fill="#447ACC"/>
<path d="M67.6965 44.2553H60.2553V36.8429H67.7019L67.6965 44.2553ZM67.5889 33.079H60.3629C60.3629 21.5602 71.1939 22.2334 71.1939 14.946C71.1939 10.932 67.9439 7.71631 63.9732 7.71631C60.0025 7.71631 56.7536 11.1833 56.7536 15.0602H49.533C49.5297 13.1423 49.901 11.2426 50.6255 9.47008C51.3501 7.69753 52.4136 6.087 53.7552 4.73084C55.0967 3.37468 56.6899 2.29956 58.4433 1.56713C60.1968 0.834701 62.076 0.459373 63.9732 0.462668C71.9491 0.462668 78.4134 6.89524 78.4134 14.946C78.4134 24.0582 67.5835 25.0957 67.5835 33.079H67.5889Z" fill="#FB4F6E"/>
<path opacity="0.1" d="M30.583 42.0478H28.6638V40.1316H30.583V42.0478ZM30.554 39.1659H28.6929C28.6929 36.197 31.4845 36.3699 31.4845 34.4896C31.4835 34.2436 31.4346 34.0002 31.3405 33.7733C31.2465 33.5464 31.1091 33.3405 30.9362 33.1673C30.7634 32.9941 30.5585 32.857 30.3332 32.7639C30.108 32.6707 29.8668 32.6234 29.6234 32.6245C29.1319 32.636 28.664 32.8395 28.3178 33.1924C27.9715 33.5452 27.774 34.0199 27.7666 34.5168H25.9055C25.9179 33.5294 26.3136 32.5865 27.0073 31.8913C27.701 31.1962 28.6372 30.8044 29.614 30.8006C30.5908 30.7967 31.53 31.1811 32.229 31.8707C32.9281 32.5604 33.331 33.5002 33.351 34.4874C33.3456 36.8364 30.554 37.104 30.554 39.1615V39.1659Z" fill="#447ACC"/>
<path opacity="0.1" d="M45.1146 55.3597H43.1954V53.449H45.1146V55.3597ZM45.0866 52.4789H43.2255C43.2255 49.5089 46.0172 49.6829 46.0172 47.8026C46.0162 47.5567 45.9672 47.3133 45.8731 47.0865C45.7791 46.8596 45.6417 46.6538 45.4688 46.4807C45.296 46.3076 45.091 46.1706 44.8658 46.0776C44.6405 45.9846 44.3994 45.9374 44.1561 45.9387C43.6625 45.9476 43.1918 46.1504 42.8434 46.5039C42.4951 46.8575 42.2965 47.3341 42.2896 47.8331H40.4285C40.4408 46.8457 40.8365 45.9028 41.5302 45.2076C42.2239 44.5124 43.1601 44.1207 44.1369 44.1168C45.1137 44.113 46.0529 44.4973 46.752 45.187C47.451 45.8767 47.854 46.8165 47.874 47.8037C47.8772 50.1527 45.0866 50.4213 45.0866 52.4789Z" fill="#447ACC"/>
<path opacity="0.1" d="M73.0269 67.0628H71.1077V65.1521H73.0269V67.0628ZM72.999 64.182H71.1379C71.1379 61.2121 73.9295 61.3861 73.9295 59.5058C73.9285 59.2598 73.8796 59.0164 73.7855 58.7896C73.6914 58.5628 73.554 58.3569 73.3812 58.1838C73.2083 58.0107 73.0034 57.8737 72.7781 57.7807C72.5529 57.6877 72.3117 57.6405 72.0684 57.6418C71.5749 57.6508 71.1041 57.8535 70.7558 58.207C70.4075 58.5606 70.2088 59.0373 70.2019 59.5362H68.3408C68.3532 58.5488 68.7489 57.6059 69.4426 56.9107C70.1363 56.2156 71.0725 55.8238 72.0493 55.82C73.0261 55.8161 73.9652 56.2005 74.6643 56.8902C75.3634 57.5798 75.7663 58.5196 75.7863 59.5068C75.7895 61.8559 72.999 62.1245 72.999 64.182Z" fill="#447ACC"/>
<path opacity="0.1" d="M53.9512 31.7936H52.5602V30.4114H53.9512V31.7936ZM53.9307 29.7045H52.5817C52.5817 27.5534 54.6052 27.6785 54.6052 26.3169C54.6044 26.1387 54.5688 25.9624 54.5006 25.7981C54.4323 25.6337 54.3327 25.4846 54.2074 25.3592C54.0822 25.2337 53.9337 25.1345 53.7705 25.0671C53.6073 24.9997 53.4325 24.9654 53.2562 24.9663C52.8992 24.9736 52.5589 25.1208 52.3073 25.3768C52.0556 25.6329 51.9121 25.9778 51.9072 26.3387H50.5581C50.5553 25.6153 50.8368 24.9204 51.3408 24.4069C51.8447 23.8934 52.5299 23.6032 53.2454 23.6004C53.961 23.5975 54.6484 23.8821 55.1564 24.3915C55.6644 24.901 55.9514 25.5936 55.9543 26.3169C55.9521 28.0189 53.9307 28.2136 53.9307 29.7045Z" fill="#447ACC"/>
<path opacity="0.1" d="M88.8603 53.835H87.4693V52.4528H88.8603V53.835ZM88.8399 51.7459H87.4909C87.4909 49.5948 89.5144 49.7199 89.5144 48.3583C89.5136 48.1801 89.478 48.0038 89.4098 47.8394C89.3415 47.6751 89.2419 47.526 89.1166 47.4005C88.9914 47.2751 88.8429 47.1759 88.6797 47.1085C88.5164 47.041 88.3417 47.0068 88.1654 47.0076C87.8084 47.0149 87.4681 47.1622 87.2164 47.4182C86.9647 47.6743 86.8213 48.0191 86.8163 48.3801H85.4673C85.4645 47.6567 85.746 46.9618 86.25 46.4483C86.7539 45.9348 87.4391 45.6446 88.1546 45.6417C88.8702 45.6389 89.5576 45.9235 90.0656 46.4329C90.5736 46.9424 90.8606 47.635 90.8635 48.3583C90.8613 50.0603 88.8399 50.2549 88.8399 51.7459Z" fill="#447ACC"/>
<path opacity="0.1" d="M77.7086 33.7446H76.9222V32.9616H77.7086V33.7446ZM77.6967 32.5646H76.9297C76.9297 31.3488 78.0733 31.4195 78.0733 30.6495C78.0733 30.5488 78.0535 30.4491 78.0151 30.3562C77.9767 30.2633 77.9205 30.179 77.8497 30.1082C77.7788 30.0374 77.6948 29.9815 77.6024 29.9437C77.5101 29.906 77.4112 29.8871 77.3116 29.8883C77.1099 29.8925 76.9176 29.9757 76.7754 30.1203C76.6331 30.2649 76.5519 30.4597 76.5489 30.6637H75.7861C75.795 30.2618 75.9588 29.8793 76.2426 29.5977C76.5263 29.3162 76.9077 29.1577 77.3053 29.1561C77.7029 29.1546 78.0855 29.31 78.3714 29.5894C78.6573 29.8688 78.824 30.2499 78.836 30.6517C78.8403 31.6076 77.6967 31.7218 77.6967 32.5646Z" fill="#447ACC"/>
<path opacity="0.1" d="M89.7316 69.357H88.9452V68.574H89.7316V69.357ZM89.7198 68.1771H88.957C88.957 66.9601 90.1017 67.0319 90.1017 66.262C90.1002 66.0588 90.0191 65.8645 89.8761 65.7218C89.7331 65.5791 89.5399 65.4996 89.3389 65.5007C89.1371 65.5046 88.9447 65.5877 88.8024 65.7324C88.6601 65.8771 88.579 66.0721 88.5762 66.2761H87.8135C87.8224 65.8742 87.9862 65.4918 88.2699 65.2102C88.5537 64.9286 88.935 64.7701 89.3326 64.7686C89.7303 64.767 90.1128 64.9225 90.3987 65.2018C90.6846 65.4812 90.8513 65.8624 90.8633 66.2641C90.8676 67.2244 89.7241 67.3342 89.7241 68.1771H89.7198Z" fill="#447ACC"/>
</g>
<defs>
<clipPath id="clip0">
<rect width="108" height="91" fill="white" transform="translate(0.338379 0.462646)"/>
</clipPath>
</defs>
</svg>
