<svg width="259" height="238" viewBox="0 0 259 238" fill="none" xmlns="http://www.w3.org/2000/svg">
<path opacity="0.5" d="M50.8633 235.963C32.0292 235.963 11.7742 234.527 11.7742 231.5C11.7742 228.472 26.0458 228.413 44.8799 228.413C63.7141 228.413 102.793 229.351 102.793 232.378C102.793 235.406 69.6974 235.963 50.8633 235.963Z" fill="#5B778D"/>
<g opacity="0.5">
<path opacity="0.5" d="M123.678 57.6658C136.87 57.6658 147.565 46.9349 147.565 33.6976C147.565 20.4603 136.87 9.72942 123.678 9.72942C110.485 9.72942 99.7903 20.4603 99.7903 33.6976C99.7903 46.9349 110.485 57.6658 123.678 57.6658Z" fill="url(#paint0_linear)"/>
</g>
<path d="M123.725 57.0057C136.638 57.0057 147.106 46.5021 147.106 33.5453C147.106 20.5884 136.638 10.0848 123.725 10.0848C110.812 10.0848 100.344 20.5884 100.344 33.5453C100.344 46.5021 110.812 57.0057 123.725 57.0057Z" fill="#F5F5F5"/>
<path d="M136.587 35.8587C136.587 43.6619 130.999 47.5048 123.744 47.5048C116.489 47.5048 110.312 43.6651 110.312 35.8587C110.312 28.0523 116.195 21.7278 123.45 21.7278C130.705 21.7278 136.587 28.0523 136.587 35.8587Z" fill="#333333"/>
<path d="M123.744 57.0978C128.313 57.1053 132.783 55.7633 136.597 53.239C135.734 48.5139 132.457 48.2347 132.457 48.2347H114.376C114.376 48.2347 111.283 48.4885 110.316 52.836C114.246 55.6141 118.937 57.1029 123.744 57.0978Z" fill="#457ACC"/>
<path opacity="0.1" d="M119.864 42.4814H127.096V48.4885C127.096 48.9405 127.007 49.388 126.834 49.8052C126.661 50.2225 126.408 50.6013 126.088 50.9198C125.769 51.2384 125.39 51.4903 124.973 51.6613C124.556 51.8322 124.109 51.9187 123.659 51.9157H123.254C122.352 51.909 121.49 51.545 120.855 50.903C120.22 50.261 119.864 49.3931 119.864 48.4885V42.4814Z" fill="black"/>
<path d="M120.496 42.2053H126.426C126.599 42.2053 126.764 42.2742 126.887 42.3968C127.009 42.5194 127.077 42.6857 127.077 42.859V48.2347C127.077 49.1436 126.718 50.0153 126.077 50.6581C125.436 51.3008 124.568 51.6619 123.662 51.6619H123.257C122.355 51.656 121.492 51.2923 120.856 50.6502C120.22 50.0082 119.863 49.1398 119.863 48.2347V42.8686C119.861 42.6968 119.926 42.5309 120.044 42.4068C120.163 42.2827 120.325 42.2103 120.496 42.2053Z" fill="#FDA57D"/>
<path opacity="0.1" d="M119.87 45.2232C122.201 46.0969 124.767 46.1036 127.103 45.2422V44.3505H119.87V45.2232Z" fill="black"/>
<path d="M123.497 45.7055C129.221 45.7055 133.861 41.0497 133.861 35.3065C133.861 29.5633 129.221 24.9075 123.497 24.9075C117.774 24.9075 113.133 29.5633 113.133 35.3065C113.133 41.0497 117.774 45.7055 123.497 45.7055Z" fill="#FDA57D"/>
<path opacity="0.1" d="M111.552 35.9888C111.552 35.9888 118.007 35.2049 122.896 28.9217C122.896 28.9217 129.351 36.0522 133.849 35.2684C133.849 35.2684 136.458 32.5203 133.849 29.7722C131.239 27.0241 129.219 23.5588 125.765 24.0158C122.311 24.4727 118.07 24.6695 116.245 26.3069C114.421 27.9444 111.552 35.9888 111.552 35.9888Z" fill="black"/>
<path d="M111.552 35.8587C111.552 35.8587 118.007 35.0749 122.896 28.7917C122.896 28.7917 129.351 35.9221 133.849 35.1383C133.849 35.1383 136.458 32.3902 133.849 29.6421C131.239 26.894 129.219 23.4287 125.765 23.8857C122.311 24.3427 118.07 24.5394 116.245 26.1768C114.421 27.8143 111.552 35.8587 111.552 35.8587Z" fill="#333333"/>
<path d="M113.127 37.1121C113.66 37.1121 114.092 36.2995 114.092 35.297C114.092 34.2945 113.66 33.4818 113.127 33.4818C112.594 33.4818 112.163 34.2945 112.163 35.297C112.163 36.2995 112.594 37.1121 113.127 37.1121Z" fill="#FDA57D"/>
<path d="M133.861 37.1121C134.394 37.1121 134.826 36.2995 134.826 35.297C134.826 34.2945 134.394 33.4818 133.861 33.4818C133.329 33.4818 132.897 34.2945 132.897 35.297C132.897 36.2995 133.329 37.1121 133.861 37.1121Z" fill="#FDA57D"/>
<g opacity="0.5">
<path opacity="0.5" d="M224.834 59.3762C238.027 59.3762 248.721 48.6453 248.721 35.408C248.721 22.1708 238.027 11.4398 224.834 11.4398C211.642 11.4398 200.947 22.1708 200.947 35.408C200.947 48.6453 211.642 59.3762 224.834 59.3762Z" fill="url(#paint1_linear)"/>
</g>
<path d="M224.882 58.7162C237.795 58.7162 248.263 48.2126 248.263 35.2557C248.263 22.2989 237.795 11.7952 224.882 11.7952C211.969 11.7952 201.5 22.2989 201.5 35.2557C201.5 48.2126 211.969 58.7162 224.882 58.7162Z" fill="#F5F5F5"/>
<path d="M224.901 58.8082C229.47 58.8157 233.94 57.4736 237.754 54.9494C236.893 50.2243 233.614 49.9546 233.614 49.9546H215.523C215.523 49.9546 212.43 50.2084 211.463 54.5559C215.396 57.3325 220.091 58.818 224.901 58.8082Z" fill="#457ACC"/>
<path d="M224.654 46.0863C230.888 46.0863 235.941 41.0157 235.941 34.7607C235.941 28.5057 230.888 23.4351 224.654 23.4351C218.42 23.4351 213.367 28.5057 213.367 34.7607C213.367 41.0157 218.42 46.0863 224.654 46.0863Z" fill="#72351C"/>
<path opacity="0.1" d="M221.014 44.1918H228.247V50.199C228.247 50.6493 228.159 51.0953 227.987 51.5115C227.816 51.9276 227.564 52.3058 227.247 52.6244C226.93 52.943 226.553 53.1957 226.139 53.3681C225.724 53.5406 225.28 53.6293 224.831 53.6293H224.426C223.52 53.6293 222.651 53.2682 222.011 52.6255C221.37 51.9828 221.01 51.1111 221.01 50.2021V44.1918H221.014Z" fill="black"/>
<path d="M221.665 43.9221H227.595C227.768 43.9221 227.934 43.991 228.056 44.1136C228.178 44.2361 228.247 44.4024 228.247 44.5758V49.9292C228.247 50.3793 228.158 50.8249 227.987 51.2407C227.815 51.6565 227.563 52.0344 227.246 52.3526C226.929 52.6709 226.552 52.9233 226.138 53.0955C225.724 53.2678 225.28 53.3564 224.831 53.3564H224.426C223.978 53.3564 223.533 53.2678 223.119 53.0955C222.705 52.9233 222.328 52.6709 222.011 52.3526C221.694 52.0344 221.442 51.6565 221.27 51.2407C221.099 50.8249 221.01 50.3793 221.01 49.9292V44.5758C221.01 44.4024 221.079 44.2361 221.201 44.1136C221.323 43.991 221.489 43.9221 221.662 43.9221H221.665Z" fill="#FDA57D"/>
<path opacity="0.1" d="M221.026 46.9336C223.357 47.8073 225.923 47.8141 228.259 46.9526V46.0609H221.026V46.9336Z" fill="black"/>
<path d="M224.654 47.4159C230.378 47.4159 235.018 42.7601 235.018 37.0169C235.018 31.2737 230.378 26.6179 224.654 26.6179C218.93 26.6179 214.29 31.2737 214.29 37.0169C214.29 42.7601 218.93 47.4159 224.654 47.4159Z" fill="#FDA57D"/>
<path opacity="0.1" d="M217.272 27.5572C217.272 27.5572 221.64 36.4426 233.965 31.2859L231.096 26.7734L226.011 24.9424L217.272 27.5572Z" fill="black"/>
<path d="M217.272 27.4271C217.272 27.4271 221.64 36.3125 233.965 31.1558L231.096 26.656L226.011 24.825L217.272 27.4271Z" fill="#72351C"/>
<path d="M235.021 37.109H234.746L229.401 41.869C224.249 39.4478 220.47 41.869 220.47 41.869L214.859 37.3057L214.293 37.3756C214.36 40.1113 215.5 42.7102 217.464 44.6087C219.429 46.5071 222.06 47.5521 224.787 47.517C227.514 47.482 230.117 46.3697 232.033 44.4213C233.948 42.4729 235.02 39.8456 235.018 37.109H235.021ZM224.641 43.7159C222.623 43.7159 220.992 43.3065 220.992 42.7988C220.992 42.2911 222.627 41.8817 224.641 41.8817C226.656 41.8817 228.291 42.2911 228.291 42.7988C228.291 43.3065 226.656 43.7159 224.641 43.7159Z" fill="#72351C"/>
<path d="M214.287 38.8225C214.82 38.8225 215.251 38.0099 215.251 37.0074C215.251 36.0049 214.82 35.1922 214.287 35.1922C213.754 35.1922 213.322 36.0049 213.322 37.0074C213.322 38.0099 213.754 38.8225 214.287 38.8225Z" fill="#FDA57D"/>
<path d="M235.018 38.8225C235.551 38.8225 235.982 38.0099 235.982 37.0074C235.982 36.0049 235.551 35.1922 235.018 35.1922C234.485 35.1922 234.053 36.0049 234.053 37.0074C234.053 38.0099 234.485 38.8225 235.018 38.8225Z" fill="#FDA57D"/>
<g opacity="0.5">
<path opacity="0.5" d="M174.261 98.697C187.453 98.697 198.148 87.9661 198.148 74.7289C198.148 61.4916 187.453 50.7607 174.261 50.7607C161.068 50.7607 150.373 61.4916 150.373 74.7289C150.373 87.9661 161.068 98.697 174.261 98.697Z" fill="url(#paint2_linear)"/>
</g>
<path d="M174.261 98.0591C187.174 98.0591 197.642 87.5555 197.642 74.5987C197.642 61.6418 187.174 51.1382 174.261 51.1382C161.347 51.1382 150.879 61.6418 150.879 74.5987C150.879 87.5555 161.347 98.0591 174.261 98.0591Z" fill="#F5F5F5"/>
<path d="M165.133 74.805C165.133 74.805 162.483 87.9109 161.022 87.181C161.022 87.181 174.975 99.2746 187.297 87.181C187.297 87.181 185.127 77.9466 181.993 74.805H165.133Z" fill="#333333"/>
<path d="M174.324 98.129C178.893 98.1365 183.363 96.7945 187.177 94.2702C186.317 89.5451 183.037 89.2754 183.037 89.2754H164.959C164.959 89.2754 161.866 89.5293 160.899 93.8767C164.829 96.6508 169.519 98.1362 174.324 98.129Z" fill="#457ACC"/>
<path d="M174.08 84.4805C179.804 84.4805 184.444 79.8247 184.444 74.0815C184.444 68.3383 179.804 63.6825 174.08 63.6825C168.357 63.6825 163.716 68.3383 163.716 74.0815C163.716 79.8247 168.357 84.4805 174.08 84.4805Z" fill="#333333"/>
<path opacity="0.1" d="M170.437 83.5126H177.67V89.5197C177.67 90.4276 177.311 91.2983 176.672 91.9409C176.033 92.5834 175.166 92.9452 174.261 92.9469H173.85C172.944 92.9469 172.075 92.5858 171.434 91.9431C170.794 91.3004 170.434 90.4287 170.434 89.5197V83.5126H170.437Z" fill="black"/>
<path d="M171.098 83.2428H177.028C177.201 83.2428 177.367 83.3117 177.489 83.4343C177.611 83.5569 177.68 83.7232 177.68 83.8965V89.25C177.675 90.1567 177.313 91.0248 176.672 91.6642C176.032 92.3036 175.164 92.6621 174.261 92.6613H173.85C172.944 92.6613 172.075 92.3002 171.434 91.6575C170.794 91.0148 170.434 90.143 170.434 89.2341V83.8965C170.434 83.7232 170.503 83.5569 170.625 83.4343C170.747 83.3117 170.913 83.2428 171.085 83.2428H171.098Z" fill="#BE7C5E"/>
<path opacity="0.1" d="M170.45 86.2511C172.781 87.1249 175.347 87.1316 177.683 86.2702V85.3785H170.45V86.2511Z" fill="black"/>
<path d="M174.08 86.7367C179.804 86.7367 184.444 82.0809 184.444 76.3377C184.444 70.5945 179.804 65.9387 174.08 65.9387C168.357 65.9387 163.716 70.5945 163.716 76.3377C163.716 82.0809 168.357 86.7367 174.08 86.7367Z" fill="#BE7C5E"/>
<path d="M164.169 72.3869H183.935C183.935 72.3869 182.246 64.3774 174.763 64.8883C167.281 65.3992 164.169 72.3869 164.169 72.3869Z" fill="#333333"/>
<path d="M163.928 77.7086C164.461 77.7086 164.893 76.896 164.893 75.8935C164.893 74.891 164.461 74.0783 163.928 74.0783C163.396 74.0783 162.964 74.891 162.964 75.8935C162.964 76.896 163.396 77.7086 163.928 77.7086Z" fill="#BE7C5E"/>
<path d="M184.175 77.7086C184.708 77.7086 185.14 76.896 185.14 75.8935C185.14 74.891 184.708 74.0783 184.175 74.0783C183.643 74.0783 183.211 74.891 183.211 75.8935C183.211 76.896 183.643 77.7086 184.175 77.7086Z" fill="#BE7C5E"/>
<path opacity="0.1" d="M164.169 72.6693H183.935C183.935 72.6693 182.246 64.6598 174.763 65.1707C167.281 65.6816 164.169 72.6693 164.169 72.6693Z" fill="black"/>
<path d="M174.261 52.8836C178.567 52.8836 182.776 54.1648 186.356 56.5652C189.937 58.9655 192.727 62.3773 194.375 66.369C196.023 70.3607 196.454 74.753 195.614 78.9906C194.774 83.2281 192.7 87.1206 189.656 90.1757C186.611 93.2308 182.731 95.3114 178.508 96.1543C174.285 96.9972 169.907 96.5646 165.929 94.9111C161.951 93.2577 158.551 90.4578 156.158 86.8653C153.766 83.2729 152.489 79.0494 152.489 74.7288C152.489 68.9351 154.783 63.3787 158.866 59.2819C162.949 55.1851 168.487 52.8836 174.261 52.8836ZM174.261 47.4889C168.891 47.4889 163.643 49.0865 159.178 52.0797C154.714 55.0728 151.234 59.3271 149.179 64.3045C147.125 69.282 146.587 74.759 147.634 80.043C148.682 85.327 151.268 90.1807 155.064 93.9903C158.861 97.7999 163.698 100.394 168.964 101.445C174.231 102.496 179.689 101.957 184.65 99.8952C189.61 97.8334 193.85 94.342 196.833 89.8625C199.817 85.3829 201.409 80.1163 201.409 74.7288C201.4 67.5069 198.537 60.5832 193.448 55.4766C188.359 50.3699 181.458 47.4973 174.261 47.4889Z" fill="#CCCCCC"/>
<path d="M224.834 13.5628C229.14 13.5628 233.35 14.844 236.93 17.2444C240.51 19.6448 243.301 23.0566 244.949 27.0482C246.596 31.0399 247.028 35.4323 246.187 39.6698C245.347 43.9074 243.274 47.7999 240.229 50.855C237.184 53.9101 233.305 55.9906 229.082 56.8335C224.858 57.6764 220.481 57.2438 216.503 55.5904C212.524 53.937 209.124 51.137 206.732 47.5446C204.34 43.9522 203.063 39.7286 203.063 35.4081C203.063 29.6143 205.357 24.0579 209.439 19.9612C213.522 15.8644 219.06 13.5628 224.834 13.5628ZM224.834 8.16817C219.465 8.16817 214.216 9.76576 209.752 12.7589C205.287 15.7521 201.808 20.0064 199.753 24.9838C197.698 29.9612 197.16 35.4383 198.208 40.7223C199.255 46.0063 201.841 50.86 205.638 54.6696C209.434 58.4791 214.272 61.0735 219.538 62.1245C224.804 63.1756 230.263 62.6362 235.223 60.5744C240.184 58.5127 244.424 55.0213 247.407 50.5417C250.39 46.0621 251.982 40.7956 251.982 35.4081C251.974 28.1862 249.111 21.2625 244.022 16.1558C238.932 11.0492 232.032 8.17657 224.834 8.16817Z" fill="#CCCCCC"/>
<path d="M123.671 11.881C123.926 11.881 124.183 11.881 124.44 11.881C130.146 12.0763 135.548 14.5133 139.481 18.6668C143.414 22.8203 145.563 28.358 145.466 34.0865C145.369 39.815 143.032 45.2757 138.96 49.2921C134.888 53.3085 129.407 55.5591 123.697 55.5588C123.441 55.5588 123.185 55.5588 122.928 55.5588C117.221 55.3635 111.82 52.9265 107.887 48.773C103.954 44.6194 101.804 39.0818 101.902 33.3533C101.999 27.6248 104.336 22.164 108.408 18.1476C112.48 14.1312 117.961 11.8807 123.671 11.881ZM123.671 6.48634C116.551 6.48629 109.716 9.29272 104.639 14.301C99.5618 19.3092 96.6486 26.1183 96.527 33.2613C96.4055 40.4042 99.0854 47.3092 103.989 52.4884C108.893 57.6676 115.629 60.7065 122.745 60.9503C123.061 60.9503 123.377 60.9661 123.693 60.9661C130.799 60.9454 137.613 58.1303 142.673 53.1249C147.734 48.1196 150.636 41.3232 150.758 34.1945C150.881 27.0659 148.212 20.1733 143.327 14.9965C138.441 9.81959 131.727 6.7711 124.626 6.50537C124.31 6.50537 123.994 6.48951 123.678 6.48951L123.671 6.48634Z" fill="#CCCCCC"/>
<g opacity="0.5">
<path opacity="0.5" d="M21.101 139.332C32.7548 139.332 42.2021 129.852 42.2021 118.159C42.2021 106.466 32.7548 96.9866 21.101 96.9866C9.44726 96.9866 0 106.466 0 118.159C0 129.852 9.44726 139.332 21.101 139.332Z" fill="url(#paint3_linear)"/>
</g>
<path d="M21.1422 138.751C32.5497 138.751 41.7973 129.472 41.7973 118.026C41.7973 106.58 32.5497 97.3008 21.1422 97.3008C9.73466 97.3008 0.487061 106.58 0.487061 118.026C0.487061 129.472 9.73466 138.751 21.1422 138.751Z" fill="#E6E6E6"/>
<path d="M21.158 138.833C25.194 138.84 29.1428 137.655 32.5119 135.425C31.7497 131.252 28.8527 131.014 28.8527 131.014H12.8815C12.8815 131.014 10.149 131.24 9.29504 135.079C12.7681 137.53 16.9122 138.841 21.158 138.833Z" fill="#CCCCCC"/>
<path d="M20.943 127.593C26.4502 127.593 30.9147 123.114 30.9147 117.588C30.9147 112.062 26.4502 107.582 20.943 107.582C15.4357 107.582 10.9712 112.062 10.9712 117.588C10.9712 123.114 15.4357 127.593 20.943 127.593Z" fill="#CCCCCC"/>
<path opacity="0.1" d="M17.7107 125.921H24.0992V131.227C24.0992 132.03 23.7813 132.8 23.2155 133.367C22.6497 133.935 21.8822 134.254 21.0821 134.254H20.7405C20.3432 134.256 19.9495 134.179 19.582 134.027C19.2145 133.876 18.8804 133.653 18.5989 133.372C18.3174 133.091 18.094 132.756 17.9416 132.388C17.7891 132.02 17.7107 131.625 17.7107 131.227V125.921Z" fill="black"/>
<path d="M17.9163 125.683H23.9253C23.9756 125.683 24.0238 125.703 24.0594 125.739C24.095 125.774 24.115 125.823 24.115 125.873V130.989C24.115 131.792 23.7971 132.562 23.2313 133.129C22.6655 133.697 21.8981 134.016 21.0979 134.016H20.7405C20.3432 134.018 19.9495 133.941 19.582 133.789C19.2145 133.638 18.8804 133.415 18.5989 133.134C18.3174 132.853 18.094 132.518 17.9416 132.15C17.7891 131.782 17.7107 131.387 17.7107 130.989V125.873C17.7107 125.823 17.7307 125.774 17.7663 125.739C17.8019 125.703 17.8501 125.683 17.9005 125.683H17.9163Z" fill="#CCCCCC"/>
<path opacity="0.1" d="M17.736 128.339C19.7947 129.111 22.0612 129.118 24.1245 128.358V127.568H17.736V128.339Z" fill="black"/>
<path d="M20.9429 128.768C25.9995 128.768 30.0987 124.654 30.0987 119.581C30.0987 114.507 25.9995 110.394 20.9429 110.394C15.8863 110.394 11.7871 114.507 11.7871 119.581C11.7871 124.654 15.8863 128.768 20.9429 128.768Z" fill="#CCCCCC"/>
<path opacity="0.1" d="M14.4215 111.225C14.4215 111.225 18.2799 119.086 29.1657 114.519L26.6356 110.53L22.1415 108.912L14.4215 111.225Z" fill="black"/>
<path d="M14.4215 111.108C14.4215 111.108 18.2799 118.968 29.1657 114.402L26.6356 110.413L22.1415 108.795L14.4215 111.108Z" fill="#CCCCCC"/>
<path d="M14.3805 110.578C14.6412 109.77 15.0913 109.037 15.693 108.439C17.4957 106.653 20.4369 106.275 21.9613 104.238C22.0438 104.382 22.0953 104.542 22.1124 104.707C22.1295 104.873 22.1119 105.04 22.0606 105.198C22.0094 105.356 21.9256 105.502 21.8148 105.626C21.704 105.749 21.5686 105.848 21.4173 105.916C22.8658 105.916 24.5515 105.78 25.3706 104.58C25.5732 105.054 25.6377 105.576 25.5565 106.085C25.4753 106.594 25.2518 107.069 24.912 107.455C26.1992 107.513 27.5718 108.388 27.654 109.677C27.7109 110.537 27.1733 111.349 26.468 111.841C25.7375 112.296 24.9253 112.603 24.0771 112.745C21.6387 113.288 12.7992 115.554 14.3805 110.578Z" fill="#CCCCCC"/>
<path d="M11.7807 121.177C12.2505 121.177 12.6314 120.459 12.6314 119.574C12.6314 118.689 12.2505 117.972 11.7807 117.972C11.3108 117.972 10.9299 118.689 10.9299 119.574C10.9299 120.459 11.3108 121.177 11.7807 121.177Z" fill="#CCCCCC"/>
<path d="M30.0987 121.177C30.5685 121.177 30.9494 120.459 30.9494 119.574C30.9494 118.689 30.5685 117.972 30.0987 117.972C29.6288 117.972 29.2479 118.689 29.2479 119.574C29.2479 120.459 29.6288 121.177 30.0987 121.177Z" fill="#CCCCCC"/>
<g opacity="0.5">
<path opacity="0.5" d="M24.4502 137.316C36.1039 137.316 45.5512 127.837 45.5512 116.144C45.5512 104.451 36.1039 94.9715 24.4502 94.9715C12.7964 94.9715 3.34912 104.451 3.34912 116.144C3.34912 127.837 12.7964 137.316 24.4502 137.316Z" fill="url(#paint4_linear)"/>
</g>
<path d="M24.4914 136.733C35.8989 136.733 45.1465 127.454 45.1465 116.008C45.1465 104.561 35.8989 95.2825 24.4914 95.2825C13.0839 95.2825 3.8363 104.561 3.8363 116.008C3.8363 127.454 13.0839 136.733 24.4914 136.733Z" fill="#F5F5F5"/>
<path d="M24.5009 136.815C28.5369 136.822 32.4857 135.637 35.8548 133.407C35.0926 129.234 32.1956 128.996 32.1956 128.996H16.2244C16.2244 128.996 13.4918 129.221 12.6379 133.061C16.111 135.512 20.2551 136.823 24.5009 136.815Z" fill="#CCCCCC"/>
<path d="M24.2921 125.575C29.7993 125.575 34.2638 121.095 34.2638 115.57C34.2638 110.044 29.7993 105.564 24.2921 105.564C18.7848 105.564 14.3203 110.044 14.3203 115.57C14.3203 121.095 18.7848 125.575 24.2921 125.575Z" fill="#CCCCCC"/>
<path opacity="0.1" d="M21.0726 123.903H27.4611V129.209C27.4611 130.012 27.1433 130.782 26.5774 131.349C26.0116 131.917 25.2442 132.236 24.444 132.236H24.0898C23.2896 132.236 22.5222 131.917 21.9563 131.349C21.3905 130.782 21.0726 130.012 21.0726 129.209V123.903Z" fill="black"/>
<path d="M21.2655 123.665H27.2744C27.3248 123.665 27.373 123.685 27.4086 123.721C27.4442 123.756 27.4642 123.805 27.4642 123.855V128.971C27.4659 129.369 27.3891 129.764 27.2382 130.133C27.0873 130.502 26.8653 130.837 26.585 131.119C26.3047 131.402 25.9715 131.626 25.6046 131.779C25.2377 131.932 24.8443 132.011 24.4471 132.011H24.0897C23.2895 132.011 22.5221 131.692 21.9562 131.124C21.3904 130.556 21.0725 129.786 21.0725 128.983V123.858C21.0721 123.833 21.0768 123.807 21.0864 123.784C21.0959 123.76 21.1101 123.739 21.1281 123.721C21.1461 123.702 21.1675 123.688 21.1911 123.679C21.2147 123.669 21.24 123.664 21.2655 123.665Z" fill="#CCCCCC"/>
<path opacity="0.1" d="M21.0853 126.324C23.1441 127.096 25.4105 127.103 27.4738 126.343V125.556H21.0853V126.324Z" fill="black"/>
<path d="M24.292 126.752C29.3486 126.752 33.4478 122.639 33.4478 117.566C33.4478 112.492 29.3486 108.379 24.292 108.379C19.2354 108.379 15.1362 112.492 15.1362 117.566C15.1362 122.639 19.2354 126.752 24.292 126.752Z" fill="#CCCCCC"/>
<path opacity="0.1" d="M17.7709 109.207C17.7709 109.207 21.6293 117.067 32.515 112.501L29.9849 108.512L25.4908 106.894L17.7709 109.207Z" fill="black"/>
<path d="M17.7709 109.093C17.7709 109.093 21.6293 116.953 32.515 112.387L29.9849 108.398L25.4908 106.779L17.7709 109.093Z" fill="#CCCCCC"/>
<path d="M17.736 108.563C17.9967 107.755 18.4468 107.021 19.0485 106.424C20.8512 104.638 23.7924 104.26 25.3168 102.223C25.3994 102.367 25.4509 102.527 25.468 102.692C25.4851 102.858 25.4674 103.025 25.4162 103.183C25.3649 103.341 25.2812 103.487 25.1704 103.611C25.0596 103.734 24.9242 103.833 24.7729 103.901C26.2213 103.901 27.907 103.765 28.7261 102.565C28.9288 103.039 28.9932 103.561 28.912 104.07C28.8309 104.578 28.6074 105.054 28.2676 105.44C29.5548 105.497 30.9273 106.373 31.0096 107.662C31.0665 108.522 30.5288 109.334 29.8236 109.826C29.0931 110.281 28.2808 110.588 27.4326 110.73C24.9879 111.273 16.1389 113.539 17.736 108.563Z" fill="#CCCCCC"/>
<path d="M15.13 119.159C15.5999 119.159 15.9808 118.441 15.9808 117.556C15.9808 116.671 15.5999 115.954 15.13 115.954C14.6602 115.954 14.2793 116.671 14.2793 117.556C14.2793 118.441 14.6602 119.159 15.13 119.159Z" fill="#CCCCCC"/>
<path d="M33.4479 119.159C33.9178 119.159 34.2987 118.441 34.2987 117.556C34.2987 116.671 33.9178 115.954 33.4479 115.954C32.9781 115.954 32.5972 116.671 32.5972 117.556C32.5972 118.441 32.9781 119.159 33.4479 119.159Z" fill="#CCCCCC"/>
<path d="M102.934 43.8364V44.8519L100.088 44.598V50.9447L92.6396 61.8959L92.181 61.6261L91.1689 62.8955L100.793 68.9946V66.7066L100.252 66.3893C100.926 63.8665 103.683 53.807 105.258 52.4774C105.258 52.4774 108.105 50.4433 109.642 47.6476C111.179 44.8519 110.407 35.1955 102.934 43.8364Z" fill="url(#paint5_linear)"/>
<path d="M87.864 67.8078C87.864 67.8078 77.5475 65.6214 71.8864 63.3175C69.2447 62.2354 66.433 61.6306 63.5814 61.5309L57.3921 61.3278L54.3086 59.4714L55.2574 56.974C55.3522 56.9328 55.4471 56.8883 55.542 56.8344L55.6305 56.2981C56.1249 56.1756 56.6126 56.0273 57.0917 55.8538C57.0213 56.4587 57.0952 57.0717 57.3075 57.6422C57.5198 58.2128 57.8642 58.7245 58.3125 59.1351C58.6675 59.5313 59.1022 59.8476 59.5879 60.0631C60.0736 60.2786 60.5993 60.3884 61.1304 60.3854C61.6565 60.3872 62.1773 60.2792 62.6596 60.0683C63.142 59.8574 63.5754 59.5482 63.9322 59.1603C64.2891 58.7723 64.5617 58.3142 64.7327 57.8149C64.9037 57.3156 64.9693 56.7861 64.9255 56.26L64.4827 50.6559L64.2582 50.7733L64.2297 50.3989L64.1475 50.4433C65.8603 48.0072 66.8004 45.1092 66.845 42.1282C66.8896 39.1473 66.0365 36.2222 64.3973 33.7357L64.6377 33.5136V27.3414C64.5555 27.2621 64.4701 27.1891 64.3847 27.1161V27.0876C59.2802 22.3276 52.2655 22.702 47.1927 23.9142C45.3124 24.3609 43.6169 25.383 42.341 26.839C41.065 28.2949 40.2715 30.1128 40.0704 32.0411C33.2993 33.8944 35.5605 37.458 35.453 38.8352C34.928 45.5468 37.0817 49.4945 39.4221 51.7793C40.3949 52.7844 41.5319 53.6151 42.784 54.2354L41.3007 57.2088L40.8674 57.193L39.6814 60.7408H39.6245L24.9341 70.7241L14.7852 81.9577C14.3445 82.4458 14.0597 83.0553 13.9677 83.7075C13.8757 84.3597 13.9807 85.0246 14.2691 85.6163C14.5574 86.208 15.016 86.6994 15.5855 87.0269C16.1551 87.3545 16.8094 87.5032 17.464 87.4539L27.8469 86.6669C27.8469 86.6669 35.1905 101.087 32.9071 115.506C32.1417 120.352 32.4612 123.316 33.2233 125.121C33.0116 127.074 32.4772 128.978 31.642 130.754C28.8558 136.599 28.8558 142.698 32.4011 149.813L33.4131 186.662C33.4131 186.662 34.6782 203.944 33.4131 207.501C32.1481 211.058 33.9191 228.086 33.9191 228.086H33.6724V237.492L52.6482 238C52.6482 238 57.0759 235.893 57.8697 234.3L67.4082 237.242C67.4082 237.242 77.9017 235.426 71.7631 232.919C67.1805 231.047 66.0419 228.378 65.7541 227.141L80.7544 183.866C80.7544 183.866 77.9682 147.017 67.8383 134.308L66.8104 126.816H66.9527L69.1065 83.062L69.2836 83.0874L69.233 83.1032C76.39 84.1885 82.1397 83.6142 85.9506 82.843C87.6046 82.547 89.2262 82.0911 90.7926 81.4817L91.0772 81.3674H91.112H91.1373C92.3125 80.8849 93.4203 80.2513 94.4328 79.4825L100.758 69.7752L91.1342 63.1112L87.864 67.8078ZM48.1003 216.637L52.9138 182.838V165.569L61.5257 183.612L52.2592 222.714L51.7721 222.578L49.6342 230.279C48.9358 229.7 48.4059 228.942 48.1003 228.086V216.637Z" fill="url(#paint6_linear)"/>
<path d="M26.8982 73.304C26.8982 73.304 12.6064 76.6773 15.1301 97.342C15.1301 97.342 20.301 95.5078 22.1069 95.2984C23.821 95.0985 29.0014 95.657 29.0014 95.657L31.4588 86.3147L26.8982 73.304Z" fill="#535461"/>
<path d="M98.5063 48.4822V54.5496L91.3051 65.1359L98.5063 69.8356C98.5063 69.8356 101.707 57.4596 103.431 56.003C103.431 56.003 106.141 54.0609 107.618 51.3921C109.095 48.7234 108.358 39.5017 101.214 47.7523V48.7234L98.5063 48.4822Z" fill="#FDA57D"/>
<path d="M41.1774 62.9494L44.0237 57.2374C44.1075 57.0696 44.2343 56.9271 44.391 56.8245C44.5477 56.7219 44.7287 56.6629 44.9156 56.6535L55.7444 56.0982C55.9205 56.089 56.096 56.124 56.255 56.2003C56.4141 56.2765 56.5516 56.3915 56.655 56.5347C56.7585 56.6779 56.8246 56.8448 56.8472 57.0202C56.8699 57.1956 56.8485 57.3739 56.7849 57.5389L53.9923 64.7836C53.9096 64.9979 53.7596 65.1794 53.5651 65.3008C53.3706 65.4221 53.142 65.4767 52.9139 65.4564L42.0281 64.4853C41.8559 64.4704 41.6899 64.4132 41.5448 64.3189C41.3997 64.2245 41.2799 64.0959 41.1959 63.9443C41.1119 63.7926 41.0663 63.6226 41.0631 63.4492C41.0598 63.2757 41.0991 63.1041 41.1774 62.9494Z" fill="#FDA57D"/>
<path d="M41.9807 60.4933L40.1432 65.907L59.0304 65.2279L51.7753 60.8582L41.9807 60.4933Z" fill="#EDEEF9"/>
<path d="M89.9861 65.9546L90.9538 64.7423L99.1735 69.5944V71.7776L89.9861 65.9546Z" fill="#EDEEF9"/>
<path d="M34.4284 119.635C34.4284 119.635 35.8104 125.159 33.1633 130.741C30.5162 136.323 30.5035 142.146 33.8875 148.94L34.8553 184.126C34.8553 184.126 36.0634 200.628 34.8553 204.023C33.6472 207.419 35.3392 223.679 35.3392 223.679H48.8815V212.762L53.4768 180.49V163.988L61.6997 181.216L52.2592 221.013L64.5935 226.11L80.0714 181.461C80.0714 181.461 77.4116 146.275 67.7371 134.143L65.9313 120.904L34.4284 119.635Z" fill="#4D8AF0"/>
<path d="M35.0894 232.662V223.682H48.8752C48.8752 223.682 49.843 227.322 56.1303 228.048C62.4176 228.775 53.227 233.145 53.227 233.145L35.0894 232.662Z" fill="#333333"/>
<path d="M49.9758 227.071L52.3763 218.42L65.6593 222.13C65.6593 222.13 65.6182 225.897 71.4817 228.29C77.3452 230.682 67.3228 232.415 67.3228 232.415L49.9758 227.071Z" fill="#333333"/>
<path opacity="0.1" d="M65.9312 121.643L34.4377 120.374C34.8269 122.258 34.907 124.192 34.6749 126.102C36.1171 129.504 39.207 128.571 39.207 128.571L66.7629 127.72L65.9312 121.643Z" fill="black"/>
<path d="M40.7726 63.8919L26.7463 73.4119L29.5263 88.6439C29.5263 88.6439 36.541 102.413 34.3619 116.182C32.1829 129.951 39.1976 127.831 39.1976 127.831L66.8801 126.984L68.9358 85.2072C68.9358 85.2072 85.6313 87.584 93.1298 81.7641L99.1768 72.498L89.9862 66.1513L86.8425 70.6511C86.8425 70.6511 77.0005 68.544 71.586 66.3544C69.0639 65.3219 66.3797 64.745 63.6573 64.6503L40.7726 63.8919Z" fill="#535461"/>
<path opacity="0.1" d="M41.013 131.109C41.013 131.109 39.321 139.601 48.9923 153.678L41.013 131.109Z" fill="black"/>
<path opacity="0.1" d="M69.0654 85.2452C69.0654 85.2452 80.6723 81.3642 85.7514 81.3642C90.8306 81.3642 89.983 83.5665 89.983 83.5665C89.983 83.5665 81.8835 87.1873 69.0654 85.2452Z" fill="black"/>
<path opacity="0.1" d="M55.9025 56.5774L51.2851 57.12C51.1396 57.1391 51.0068 57.3231 50.9277 57.6087C51.9429 59.4461 53.2143 60.5441 54.5932 60.5441C55.086 60.5379 55.5688 60.4034 55.9943 60.1537L56.3485 58.0086C56.4655 57.3009 56.2315 56.5361 55.9025 56.5774Z" fill="black"/>
<path d="M52.6799 60.068C60.47 60.068 66.7852 53.7315 66.7852 45.915C66.7852 38.0985 60.47 31.7619 52.6799 31.7619C44.8897 31.7619 38.5746 38.0985 38.5746 45.915C38.5746 53.7315 44.8897 60.068 52.6799 60.068Z" fill="#FDA57D"/>
<path opacity="0.1" d="M64.6662 32.0031V37.8991L63.9546 38.5528C63.6521 38.8306 63.4242 39.1804 63.2921 39.5699C63.16 39.9594 63.128 40.376 63.1989 40.7812C63.2698 41.1865 63.4415 41.5672 63.698 41.8882C63.9544 42.2093 64.2874 42.4602 64.6662 42.6179C64.6662 42.6179 63.4897 52.0522 62.0222 55.5905L64.5207 54.264L64.9445 59.6143C64.9842 60.1161 64.92 60.6209 64.7559 61.0966C64.5918 61.5724 64.3313 62.009 63.9909 62.3788C63.6505 62.7487 63.2375 63.0439 62.7778 63.2459C62.3182 63.4478 61.8219 63.5522 61.3201 63.5524C60.697 63.5523 60.0844 63.3915 59.5409 63.0856C58.9975 62.7796 58.5415 62.3387 58.2168 61.8051C57.892 61.2716 57.7093 60.6632 57.6861 60.0384C57.663 59.4136 57.8003 58.7933 58.0848 58.237C58.6825 57.0692 59.742 55.8412 60.2606 54.1117C62.1582 47.765 58.3631 48.9519 57.468 50.1323C56.573 51.3128 57.6135 54.4068 57.6135 54.4068C57.6135 54.4068 60.4061 59.5667 45.7126 58.3862C45.7126 58.3862 36.016 56.3235 37.0438 43.2018C37.1482 41.888 34.9881 38.483 41.4525 36.7155C41.6443 34.8744 42.4017 33.1388 43.6199 31.7487C44.8381 30.3586 46.4569 29.3829 48.2522 28.9567C53.1036 27.8175 59.8021 27.4525 64.6662 32.0031Z" fill="black"/>
<path d="M64.4353 31.7619V37.6579L63.7174 38.3116C63.4149 38.5894 63.187 38.9392 63.0549 39.3287C62.9228 39.7182 62.8908 40.1348 62.9617 40.5401C63.0327 40.9453 63.2043 41.326 63.4608 41.6471C63.7172 41.9681 64.0502 42.219 64.429 42.3767C64.429 42.3767 63.2525 51.811 61.785 55.3493L64.2835 54.0228L64.7073 59.3731C64.747 59.875 64.6828 60.3797 64.5187 60.8554C64.3546 61.3312 64.0941 61.7678 63.7537 62.1376C63.4133 62.5075 63.0003 62.8027 62.5406 63.0047C62.081 63.2066 61.5847 63.311 61.0829 63.3112C60.4598 63.3111 59.8472 63.1504 59.3037 62.8444C58.7603 62.5385 58.3044 62.0975 57.9796 61.564C57.6548 61.0304 57.4721 60.422 57.449 59.7972C57.4258 59.1724 57.5631 58.5521 57.8476 57.9958C58.4453 56.8281 59.5048 55.6 60.0235 53.8705C61.921 47.5238 58.1259 48.7107 57.2309 49.8911C56.3358 51.0716 57.3763 54.1656 57.3763 54.1656C57.3763 54.1656 60.1689 59.3255 45.4754 58.145C45.4754 58.145 35.7788 56.0823 36.8066 42.9606C36.911 41.6468 34.7509 38.2418 41.2153 36.4743C41.4071 34.6332 42.1645 32.8976 43.3827 31.5075C44.601 30.1174 46.2197 29.1417 48.015 28.7155C52.8633 27.5731 59.5617 27.2081 64.4353 31.7619Z" fill="#72351C"/>
<defs>
<linearGradient id="paint0_linear" x1="123.678" y1="57.6658" x2="123.678" y2="9.73259" gradientUnits="userSpaceOnUse">
<stop stop-color="#808080" stop-opacity="0.25"/>
<stop offset="0.54" stop-color="#808080" stop-opacity="0.12"/>
<stop offset="1" stop-color="#808080" stop-opacity="0.1"/>
</linearGradient>
<linearGradient id="paint1_linear" x1="34164.4" y1="8980.34" x2="34164.4" y2="1739.55" gradientUnits="userSpaceOnUse">
<stop stop-color="#808080" stop-opacity="0.25"/>
<stop offset="0.54" stop-color="#808080" stop-opacity="0.12"/>
<stop offset="1" stop-color="#808080" stop-opacity="0.1"/>
</linearGradient>
<linearGradient id="paint2_linear" x1="26474.2" y1="14959.4" x2="26474.2" y2="7718.66" gradientUnits="userSpaceOnUse">
<stop stop-color="#808080" stop-opacity="0.25"/>
<stop offset="0.54" stop-color="#808080" stop-opacity="0.12"/>
<stop offset="1" stop-color="#808080" stop-opacity="0.1"/>
</linearGradient>
<linearGradient id="paint3_linear" x1="2815.72" y1="18689.4" x2="2815.72" y2="13038.9" gradientUnits="userSpaceOnUse">
<stop stop-color="#808080" stop-opacity="0.25"/>
<stop offset="0.54" stop-color="#808080" stop-opacity="0.12"/>
<stop offset="1" stop-color="#808080" stop-opacity="0.1"/>
</linearGradient>
<linearGradient id="paint4_linear" x1="3265.99" y1="18418.5" x2="3265.99" y2="12768" gradientUnits="userSpaceOnUse">
<stop stop-color="#808080" stop-opacity="0.25"/>
<stop offset="0.54" stop-color="#808080" stop-opacity="0.12"/>
<stop offset="1" stop-color="#808080" stop-opacity="0.1"/>
</linearGradient>
<linearGradient id="paint5_linear" x1="9826.84" y1="8425.58" x2="9826.84" y2="5834.27" gradientUnits="userSpaceOnUse">
<stop stop-color="#808080" stop-opacity="0.25"/>
<stop offset="0.54" stop-color="#808080" stop-opacity="0.12"/>
<stop offset="1" stop-color="#808080" stop-opacity="0.1"/>
</linearGradient>
<linearGradient id="paint6_linear" x1="32299.8" y1="177291" x2="32299.8" y2="31795.9" gradientUnits="userSpaceOnUse">
<stop stop-color="#808080" stop-opacity="0.25"/>
<stop offset="0.54" stop-color="#808080" stop-opacity="0.12"/>
<stop offset="1" stop-color="#808080" stop-opacity="0.1"/>
</linearGradient>
</defs>
</svg>
