<svg width="24" height="24" viewBox="0 0 24 24" fill="none" xmlns="http://www.w3.org/2000/svg">
<path d="M12 0C5.376 0 0 5.376 0 12C0 18.624 5.376 24 12 24C18.624 24 24 18.624 24 12C24 5.376 18.624 0 12 0ZM12 21.6C6.708 21.6 2.4 17.292 2.4 12C2.4 6.708 6.708 2.4 12 2.4C17.292 2.4 21.6 6.708 21.6 12C21.6 17.292 17.292 21.6 12 21.6Z" fill="#5C9EFF"/>
<path d="M7.01415 16.8148L4.8042 11.2728V9.09373H9.75256L9.12801 5.85087L10.1049 4.80424L14.4127 9.41973V16.8148H7.01415Z" fill="#5C9EFF"/>
<rect width="2.40212" height="7.20635" transform="matrix(1 0 0 -1 15.6137 16.8148)" fill="#5C9EFF"/>
</svg>
