<svg width="20" height="21" viewBox="0 0 20 21" fill="none" xmlns="http://www.w3.org/2000/svg">
<path d="M7.95789 14.9237L13.9263 10.4474L7.95789 5.97105V14.9237ZM9.94737 0.5C4.45642 0.5 0 4.95642 0 10.4474C0 15.9383 4.45642 20.3947 9.94737 20.3947C15.4383 20.3947 19.8947 15.9383 19.8947 10.4474C19.8947 4.95642 15.4383 0.5 9.94737 0.5ZM9.94737 18.4053C5.56058 18.4053 1.98947 14.8342 1.98947 10.4474C1.98947 6.06058 5.56058 2.48947 9.94737 2.48947C14.3342 2.48947 17.9053 6.06058 17.9053 10.4474C17.9053 14.8342 14.3342 18.4053 9.94737 18.4053Z" fill="#3AD29F"/>
</svg>
