<svg width="24" height="24" viewBox="0 0 24 24" fill="none" xmlns="http://www.w3.org/2000/svg">
<path d="M11.9474 0C5.35242 0 0 5.35242 0 11.9474C0 18.5423 5.35242 23.8947 11.9474 23.8947C18.5423 23.8947 23.8947 18.5423 23.8947 11.9474C23.8947 5.35242 18.5423 0 11.9474 0ZM11.9474 21.5053C6.67858 21.5053 2.38947 17.2162 2.38947 11.9474C2.38947 6.67858 6.67858 2.38947 11.9474 2.38947C17.2162 2.38947 21.5053 6.67858 21.5053 11.9474C21.5053 17.2162 17.2162 21.5053 11.9474 21.5053Z" fill="#A6B4BF"/>
<rect x="7" y="16.1726" width="12.9721" height="1.44134" transform="rotate(-45 7 16.1726)" fill="#A6B4BF"/>
<rect x="8.0191" y="7" width="12.9721" height="1.44134" transform="rotate(45 8.0191 7)" fill="#A6B4BF"/>
</svg>
