<svg width="24" height="24" viewBox="0 0 24 24" fill="none" xmlns="http://www.w3.org/2000/svg">
<path d="M12 0C5.376 0 0 5.376 0 12C0 18.624 5.376 24 12 24C18.624 24 24 18.624 24 12C24 5.376 18.624 0 12 0ZM12 21.6C6.708 21.6 2.4 17.292 2.4 12C2.4 6.708 6.708 2.4 12 2.4C17.292 2.4 21.6 6.708 21.6 12C21.6 17.292 17.292 21.6 12 21.6Z" fill="#FB4F6E"/>
<path d="M7.07 7L5 12.5371V14.7143H9.635L9.05 17.9543L9.965 19L14 14.3886V7H7.07Z" fill="#FB4F6E"/>
<rect x="16" y="7" width="2" height="7" fill="#FB4F6E"/>
</svg>
