<svg width="21" height="21" viewBox="0 0 21 21" fill="none" xmlns="http://www.w3.org/2000/svg">
<path d="M16.6919 16.2302L16.6919 16.2303C15.1572 17.7651 13.1179 18.6098 10.9474 18.6098C8.77685 18.6098 6.73751 17.7651 5.20283 16.2303L5.20281 16.2302C3.66798 14.6955 2.82327 12.6562 2.82327 10.4857C2.82327 8.31518 3.66798 6.27585 5.20281 4.74116L5.20283 4.74114C6.73751 3.20631 8.77685 2.3616 10.9474 2.3616C13.1179 2.3616 15.1572 3.20631 16.6919 4.74114L16.6919 4.74116C18.2267 6.27585 19.0715 8.31518 19.0715 10.4857C19.0715 12.6562 18.2267 14.6955 16.6919 16.2302ZM17.8316 3.60151C15.9931 1.76303 13.5473 0.75 10.9474 0.75C8.34738 0.75 5.90166 1.76303 4.06318 3.60151C2.2247 5.43999 1.21167 7.88572 1.21167 10.4857C1.21167 13.0857 2.2247 15.5314 4.06318 17.3699C5.90166 19.2084 8.34738 20.2214 10.9474 20.2214C13.5473 20.2214 15.9931 19.2084 17.8316 17.3699C19.67 15.5314 20.6831 13.0857 20.6831 10.4857C20.6831 7.88572 19.67 5.43999 17.8316 3.60151Z" fill="#447ACC" stroke="#447ACC" stroke-width="0.5"/>
<path d="M16.1719 9.84707H12.7745C12.6817 9.58016 12.5289 9.32972 12.3159 9.11676C12.1083 8.90884 11.8618 8.7542 11.5927 8.65907V5.23943C11.5927 4.88293 11.3037 4.59399 10.9472 4.59399C10.5907 4.59399 10.3018 4.88293 10.3018 5.23943V8.65856C10.0325 8.75336 9.78578 8.90816 9.57803 9.11608C8.82351 9.87094 8.82368 11.0995 9.57854 11.8545C9.94429 12.2204 10.4304 12.4221 10.9474 12.4221H10.9481C11.4651 12.4221 11.9512 12.2207 12.3166 11.8552C12.5259 11.6459 12.677 11.4 12.7701 11.1379H16.1719C16.5282 11.1379 16.8173 10.849 16.8173 10.4925C16.8173 10.1362 16.5282 9.84707 16.1719 9.84707ZM11.4036 10.9426C11.2819 11.0643 11.1202 11.1312 10.9481 11.1312H10.9479C10.7755 11.1312 10.6134 11.064 10.4914 10.942C10.2396 10.69 10.2394 10.2802 10.4909 10.0286C10.6122 9.90725 10.7734 9.84035 10.945 9.83985H10.9472H10.9486C11.1202 9.84052 11.2815 9.90758 11.4029 10.0293H11.4031C11.6549 10.2812 11.655 10.6908 11.4036 10.9426Z" fill="#447ACC"/>
</svg>
