<svg width="229" height="165" viewBox="0 0 229 165" fill="none" xmlns="http://www.w3.org/2000/svg">
<g clip-path="url(#clip0)">
<path d="M93.9578 163.132C132.895 163.132 164.461 131.349 164.461 92.1426C164.461 52.9364 132.895 21.1534 93.9578 21.1534C55.0202 21.1534 23.4551 52.9364 23.4551 92.1426C23.4551 131.349 55.0202 163.132 93.9578 163.132Z" fill="#F2F2F2"/>
<path d="M188.727 39.8701L181.372 48.6509C180.975 52.4329 180.412 56.659 179.614 61.0925L191.699 48.5042L191.755 48.724C191.068 45.3411 190.028 42.2721 188.66 39.662L188.727 39.8701Z" fill="#447ACC"/>
<path d="M181.44 47.9873L188.565 39.4818C187.01 36.5709 185.04 34.2456 182.687 32.7197C182.565 32.6403 182.441 32.5654 182.318 32.4911C182.32 33.5251 182.29 39.5938 181.44 47.9873Z" fill="#447ACC"/>
<path d="M190.567 75.2086L190.582 75.4633C190.994 73.9025 191.347 72.3398 191.639 70.775L174.114 82.1681L174.103 82.0519C173.771 82.9608 173.431 83.8527 173.081 84.7277L190.567 75.2086Z" fill="#447ACC"/>
<path d="M192.655 61.3652L192.69 61.6066C192.891 57.3705 192.592 53.1254 191.801 48.9601L179.486 61.7882C178.719 65.9401 177.817 69.8918 176.778 73.6431L192.655 61.3652Z" fill="#447ACC"/>
<path d="M161.583 39.9021C159.762 42.3027 158.187 44.8824 156.881 47.6019L177.178 70.9314C178.014 67.6593 178.688 64.4862 179.23 61.527L161.476 40.1332L161.583 39.9021Z" fill="#447ACC"/>
<path d="M155.447 50.8051L155.55 50.5711L176.394 73.8566C176.618 73.0593 176.833 72.2663 177.038 71.4776L156.666 48.0619L156.77 47.8289C156.31 48.7869 155.869 49.7789 155.447 50.8051Z" fill="#447ACC"/>
<path d="M191.67 70.2247L191.694 70.4737C192.214 67.6363 192.542 64.7668 192.678 61.8848L176.587 74.3288C175.881 76.8262 175.115 79.2242 174.291 81.5228L191.67 70.2247Z" fill="#447ACC"/>
<path d="M168.443 94.4286C165.716 99.2075 162.626 103.247 159.204 106.501C162.989 104.963 178.24 98.1908 186.143 85.9775L168.443 94.4286Z" fill="#447ACC"/>
<path d="M152.277 62.6576C151.975 65.4126 151.856 68.1849 151.922 70.9559L152.049 70.7075L168.396 93.7981C169.897 91.1094 171.237 88.3325 172.408 85.4823L152.277 62.6576Z" fill="#447ACC"/>
<path d="M181.139 47.9616C182.056 38.8802 182.007 32.5521 182.006 32.4613L182.162 32.3976C178.481 30.2494 174.414 30.3242 170.453 32.2335L181.139 47.9616Z" fill="#447ACC"/>
<path d="M172.806 85.4031C172.695 85.6736 172.586 85.9458 172.473 86.2129C171.401 88.7768 170.191 91.2799 168.848 93.7112L186.38 85.3403L186.389 85.5904C187.763 83.4285 188.859 81.1001 189.651 78.6608C189.958 77.7009 190.241 76.7375 190.5 75.7706L172.806 85.4031Z" fill="#447ACC"/>
<path d="M179.337 60.9362C180.122 56.5525 180.677 52.376 181.069 48.638L170.138 32.5489L170.253 32.3292C167.277 33.8115 164.365 36.3296 161.728 39.7166L179.337 60.9362Z" fill="#447ACC"/>
<path d="M168.156 94.224L151.928 71.3022C152.319 87.9177 157.954 105.65 158.317 106.778C162.214 103.264 165.457 98.9437 168.156 94.224Z" fill="#447ACC"/>
<path d="M172.596 84.9912L172.613 84.9821C174.011 81.5191 175.222 77.9829 176.243 74.3887L155.348 51.0459C154.783 52.4386 154.259 53.8895 153.775 55.3984C153.1 57.5628 152.623 59.7845 152.35 62.0361L172.596 84.9912Z" fill="#447ACC"/>
<path d="M205.262 108.087L194.034 110.127C191.333 112.785 188.223 115.678 184.8 118.58L202.081 116.646L201.986 116.852C203.599 113.804 204.742 110.773 205.342 107.884L205.262 108.087Z" fill="#447ACC"/>
<path d="M194.508 109.66L205.383 107.685C206.029 104.444 205.985 101.388 205.14 98.7016C205.096 98.5619 205.048 98.425 205 98.2886C204.346 99.086 200.479 103.741 194.508 109.66Z" fill="#447ACC"/>
<path d="M184.294 136.486L184.144 136.692C185.45 135.755 186.712 134.778 187.928 133.76L167.214 131.281L167.279 131.184C166.448 131.671 165.62 132.139 164.796 132.588L184.294 136.486Z" fill="#447ACC"/>
<path d="M194.671 127.166L194.546 127.374C197.383 124.241 199.842 120.779 201.872 117.063L184.261 119.034C181.04 121.74 177.842 124.204 174.666 126.426L194.671 127.166Z" fill="#447ACC"/>
<path d="M184.336 90.6802C181.413 91.3597 178.566 92.3349 175.837 93.5908L176.692 124.594C179.408 122.611 181.937 120.599 184.229 118.669L184.107 90.7895L184.336 90.6802Z" fill="#447ACC"/>
<path d="M172.704 95.1371L172.931 95.0232L174.235 126.343C174.913 125.873 175.58 125.4 176.238 124.925L175.38 93.8068L175.608 93.6946C174.646 94.1365 173.678 94.6173 172.704 95.1371Z" fill="#447ACC"/>
<path d="M188.3 133.357L188.162 133.564C190.359 131.712 192.43 129.713 194.36 127.581L174.084 126.831C171.958 128.301 169.85 129.656 167.759 130.897L188.3 133.357Z" fill="#447ACC"/>
<path d="M155.08 137.082C149.953 139.011 145.014 140.138 140.317 140.446C144.207 141.693 160.242 146.271 174.066 141.94L155.08 137.082Z" fill="#447ACC"/>
<path d="M162.754 102.229C160.776 104.157 158.929 106.216 157.224 108.393L157.479 108.283L155.443 136.566C158.303 135.459 161.093 134.181 163.801 132.737L162.754 102.229Z" fill="#447ACC"/>
<path d="M194.292 109.446C200.751 103.041 204.722 98.1355 204.778 98.0649L204.939 98.1159C203.465 94.0978 200.285 91.5436 196.025 90.4701L194.292 109.446Z" fill="#447ACC"/>
<path d="M164.157 132.932C163.901 133.069 163.644 133.208 163.388 133.342C160.938 134.628 158.42 135.779 155.846 136.789L174.652 141.601L174.5 141.799C176.927 141.016 179.246 139.927 181.402 138.557C182.246 138.015 183.075 137.455 183.887 136.877L164.157 132.932Z" fill="#447ACC"/>
<path d="M184.686 118.282C188.068 115.41 191.141 112.55 193.81 109.923L195.583 90.511L195.811 90.4159C192.579 89.6458 188.742 89.7154 184.565 90.6301L184.686 118.282Z" fill="#447ACC"/>
<path d="M154.989 136.739L157.01 108.664C146.786 121.712 139.893 138.988 139.458 140.09C144.686 139.886 149.92 138.641 154.989 136.739Z" fill="#447ACC"/>
<path d="M164.256 132.48L164.275 132.484C167.545 130.715 170.719 128.769 173.781 126.656L172.474 95.2588C171.157 95.9689 169.834 96.7495 168.506 97.6007C166.615 98.8345 164.841 100.239 163.204 101.798L164.256 132.48Z" fill="#447ACC"/>
<path d="M146.952 70.288L142.653 80.9279C143.436 84.6482 144.198 88.8426 144.801 93.3073L152.429 77.5743L152.55 77.7658C150.858 74.7625 148.927 72.1675 146.824 70.111L146.952 70.288Z" fill="#447ACC"/>
<path d="M142.514 80.2755L146.679 69.9689C144.307 67.6846 141.72 66.0861 139.013 65.3673C138.873 65.3299 138.732 65.2971 138.592 65.2648C138.911 66.2476 140.746 72.0285 142.514 80.2755Z" fill="#447ACC"/>
<path d="M159.55 103.323L159.643 103.561C159.556 101.948 159.411 100.352 159.209 98.7731L146.04 115.062L145.993 114.956C145.957 115.923 145.907 116.877 145.843 117.818L159.55 103.323Z" fill="#447ACC"/>
<path d="M157.287 89.5079L157.394 89.7264C156.285 85.6353 154.698 81.6911 152.666 77.976L144.893 94.0087C145.438 98.1959 145.793 102.235 145.957 106.126L157.287 89.5079Z" fill="#447ACC"/>
<path d="M121.148 78.7661C120.153 81.6159 119.447 84.5595 119.04 87.5522L145.504 103.422C145.295 100.05 144.961 96.8228 144.569 93.8398L121.117 79.0192L121.148 78.7661Z" fill="#447ACC"/>
<path d="M118.659 91.0449L118.686 90.7903L145.656 106.448C145.625 105.62 145.586 104.799 145.538 103.985L118.976 88.0568L119.004 87.8026C118.86 88.8571 118.745 89.9379 118.659 91.0449Z" fill="#447ACC"/>
<path d="M159.069 98.24L159.169 98.4691C158.792 95.609 158.224 92.7777 157.468 89.9946L145.985 106.837C146.08 109.432 146.088 111.951 146.01 114.394L159.069 98.24Z" fill="#447ACC"/>
<path d="M144.411 128.487C143.285 133.881 141.586 138.685 139.33 142.844C142.458 140.204 154.883 129.017 158.65 114.942L144.411 128.487Z" fill="#447ACC"/>
<path d="M119.282 103.304C119.841 106.018 120.579 108.691 121.492 111.306L121.537 111.03L144.172 127.903C144.774 124.878 145.196 121.82 145.434 118.745L119.282 103.304Z" fill="#447ACC"/>
<path d="M142.22 80.3447C140.304 71.4225 138.315 65.4196 138.286 65.3336L138.415 65.2245C134.255 64.3269 130.41 65.6638 127.229 68.7125L142.22 80.3447Z" fill="#447ACC"/>
<path d="M145.788 118.546C145.766 118.838 145.745 119.131 145.721 119.42C145.488 122.192 145.105 124.949 144.575 127.679L158.678 114.262L158.764 114.497C159.406 112.013 159.734 109.458 159.739 106.891C159.736 105.883 159.709 104.879 159.659 103.878L145.788 118.546Z" fill="#447ACC"/>
<path d="M144.489 93.2448C143.891 88.8313 143.136 84.6866 142.361 81.0097L127.027 69.1105L127.069 68.8657C124.693 71.2018 122.697 74.5028 121.229 78.5449L144.489 93.2448Z" fill="#447ACC"/>
<path d="M144.074 128.382L121.604 111.634C127.077 127.314 137.879 142.424 138.571 143.384C141.198 138.829 142.956 133.711 144.074 128.382Z" fill="#447ACC"/>
<path d="M145.463 118.22L145.476 118.206C145.742 114.478 145.809 110.737 145.676 107.002L118.639 91.3051C118.529 92.8053 118.476 94.3483 118.479 95.9341C118.502 98.2023 118.73 100.464 119.161 102.69L145.463 118.22Z" fill="#447ACC"/>
<path d="M114.16 165C177.121 165 228.16 162.026 228.16 158.358C228.16 154.689 177.121 151.715 114.16 151.715C51.1997 151.715 0.160156 154.689 0.160156 158.358C0.160156 162.026 51.1997 165 114.16 165Z" fill="#3F3D56"/>
<path opacity="0.1" d="M153.741 149.896C153.741 162.806 135.87 158.813 113.988 158.813C92.1067 158.813 74.501 162.806 74.501 149.896C74.501 136.986 92.3697 134.179 114.251 134.179C136.133 134.179 153.741 136.986 153.741 149.896Z" fill="black"/>
<path d="M153.741 146.718C153.741 159.627 135.87 155.634 113.988 155.634C92.1067 155.634 74.501 159.627 74.501 146.718C74.501 133.808 92.3697 131 114.251 131C136.133 131 153.741 133.808 153.741 146.718Z" fill="#3F3D56"/>
<path d="M158.064 92.9082C158.064 92.9082 158.064 114.576 159.214 119.373C160.364 124.17 164.471 141.537 164.471 141.537L170.056 140.38C170.056 140.38 169.071 117.388 168.085 114.08C167.099 110.772 169.235 97.2088 172.028 94.2315C174.82 91.2542 170.713 89.4347 170.713 89.4347L158.064 92.9082Z" fill="#2F2E41"/>
<path opacity="0.1" d="M158.064 92.9082C158.064 92.9082 158.064 114.576 159.214 119.373C160.364 124.17 164.471 141.537 164.471 141.537L170.056 140.38C170.056 140.38 169.071 117.388 168.085 114.08C167.099 110.772 169.235 97.2088 172.028 94.2315C174.82 91.2542 170.713 89.4347 170.713 89.4347L158.064 92.9082Z" fill="black"/>
<path d="M171.535 137.402C171.535 137.402 164.142 140.38 163.649 140.38C163.157 140.38 162.828 148.981 162.828 148.981C162.828 148.981 163.321 154.108 155.272 155.762C147.222 157.416 161.678 161.055 164.307 159.236C166.935 157.416 168.085 156.093 168.085 156.093L169.07 154.439L168.742 157.251L169.892 157.416L172.52 152.123C172.52 152.123 173.177 148.154 172.356 147.161C171.535 146.169 171.535 137.402 171.535 137.402Z" fill="#2F2E41"/>
<path d="M134.409 106.306L135.559 112.757L140.98 112.261L139.995 107.629L134.409 106.306Z" fill="#A0616A"/>
<path d="M161.021 79.0142L160.036 80.6682C160.036 80.6682 131.616 76.6985 131.616 87.2845C131.616 97.8704 130.302 104.156 129.974 104.652C129.645 105.148 138.516 110.441 140.487 110.11C140.487 110.11 141.801 108.291 141.637 105.975C141.473 103.66 142.951 95.0585 141.637 94.5623C141.637 94.5623 143.28 93.9007 143.115 92.9083C143.115 92.9083 166.278 96.2164 169.235 95.5547C172.192 94.8931 174.163 92.7428 174.656 91.4196C175.149 90.0964 176.204 84.9346 176.204 84.9346L175.97 76.2023L173.342 73.0596L169.399 72.5634L163.321 76.3677L161.021 79.0142Z" fill="#2F2E41"/>
<path d="M178.598 94.7277C178.598 94.7277 176.299 100.021 178.927 100.021C181.555 100.021 182.541 95.3893 182.541 95.3893L178.598 94.7277Z" fill="#A0616A"/>
<path d="M161.021 51.8876L160.2 50.8952C160.2 50.8952 151.001 30.054 154.615 24.4302C158.229 18.8064 173.999 17.9794 174.492 18.3102C174.985 18.641 176.463 19.7989 176.299 20.1297C176.134 20.4605 172.849 21.2875 173.999 23.2724C173.999 23.2724 172.356 23.7686 172.028 23.107C171.699 22.4454 170.713 22.28 170.385 22.9416C170.056 23.6032 164.8 25.0919 164.8 25.5881C164.8 26.0843 163.978 28.5654 163.157 28.8962C162.336 29.227 163.321 34.1892 164.964 35.5124C166.607 36.8357 167.757 40.4746 167.757 40.4746L166.935 47.9178L161.021 51.8876Z" fill="#D0CDE1"/>
<path d="M165.722 24.0543C164.74 24.558 163.763 25.2013 163.17 26.2149C161.957 28.2894 162.732 31.1275 161.981 33.4609C161.66 34.4559 161.077 35.311 160.595 36.2205C160.113 37.13 159.72 38.1698 159.847 39.2183C159.97 40.2468 160.571 41.1191 160.855 42.1068C161.344 43.8066 160.854 45.6495 160.303 47.3248C160.001 48.2422 159.679 49.1512 159.339 50.0518C159.141 50.5743 158.904 51.1341 158.451 51.3858L162.339 51.707C163.469 51.8003 164.717 51.8553 165.605 51.0657C165.967 50.7184 166.256 50.3022 166.456 49.8414C167.333 47.9962 167.475 45.8203 167.374 43.7319C167.273 41.6434 166.949 39.5681 166.967 37.4767C166.948 36.79 167.04 36.1048 167.239 35.4478C167.447 34.9346 167.691 34.4372 167.969 33.9595C168.856 32.2392 169.222 30.2533 169.575 28.3063C169.817 26.971 170.204 25.0369 169.511 23.7824C168.82 22.5316 166.657 23.5753 165.722 24.0543Z" fill="#2F2E41"/>
<path d="M169.563 38.6552C173.283 38.6552 176.298 35.6189 176.298 31.8736C176.298 28.1282 173.283 25.0919 169.563 25.0919C165.844 25.0919 162.828 28.1282 162.828 31.8736C162.828 35.6189 165.844 38.6552 169.563 38.6552Z" fill="#A0616A"/>
<path d="M166.935 37.6626C166.935 37.6626 168.003 41.8804 167.346 44.0307C166.689 46.181 176.299 41.1361 176.299 41.1361C176.299 41.1361 173.342 37.1664 173.342 35.8431L166.935 37.6626Z" fill="#A0616A"/>
<path d="M179.256 44.1135C179.256 44.1135 177.12 42.4595 177.12 41.6325C177.12 40.8054 175.642 38.986 175.642 38.986C175.642 38.986 168.578 42.6249 168.249 42.6249C167.921 42.6249 167.757 40.4746 167.757 40.4746L160.2 50.8952C160.2 50.8952 157.736 56.8498 158.557 61.4811C159.379 66.1125 160.693 70.9093 160.036 75.2098C159.379 79.5104 160.2 80.999 161.186 80.5028C162.171 80.0066 161.186 78.3525 163.321 78.5179C165.457 78.6833 172.685 76.3676 173.178 75.3752C173.67 74.3828 175.642 77.5255 175.806 79.345C175.97 81.1644 175.477 86.1266 175.806 85.9612C176.134 85.7958 176.627 82.9839 176.792 81.6606C176.956 80.3374 177.449 76.0368 176.792 75.3752C176.134 74.7136 176.627 73.7212 177.12 73.3903C177.613 73.0595 185.662 52.5492 185.662 52.5492C185.662 52.5492 184.841 48.2487 182.048 46.76C179.256 45.2714 179.256 44.1135 179.256 44.1135Z" fill="#D0CDE1"/>
<path d="M183.034 49.7373L185.662 52.5492V67.4357C185.662 67.4357 189.112 85.2995 186.976 86.292C184.841 87.2844 183.855 86.9536 183.855 86.9536C183.855 86.9536 184.348 96.0509 182.869 96.0509C181.391 96.0509 179.091 95.3893 177.777 95.7201C177.777 95.7201 178.105 92.412 179.091 90.9233C180.077 89.4347 180.077 86.7882 180.077 86.7882C180.077 86.7882 178.598 86.7882 178.598 84.6379C178.598 82.4876 178.434 81.1644 178.27 80.6682C178.105 80.172 176.956 71.4055 176.956 71.4055L183.034 49.7373Z" fill="#D0CDE1"/>
<path d="M168.126 23.7115C169.263 22.9839 170.77 23.5347 172.091 23.2665C173.527 22.9749 174.723 21.7143 176.186 21.786C177.403 21.8457 178.364 22.8118 179.151 23.7472C179.888 24.5757 180.522 25.4904 181.041 26.4717C181.581 27.5623 181.874 28.7564 182.164 29.9394L183.135 33.9077C183.465 35.2529 183.798 36.6094 184.396 37.8571C184.994 39.1049 185.885 40.252 187.094 40.9129C185.615 41.3624 184.038 41.3675 182.556 40.9276C183.125 42.4242 184.066 43.7488 185.288 44.775C184.192 45.1116 183.012 44.7723 181.869 44.8454C181.048 44.9071 180.257 45.1776 179.569 45.6316C178.882 46.0855 178.32 46.7081 177.936 47.4407C177.339 48.613 177.247 49.9715 176.891 51.2391C175.827 55.0227 172.122 57.8839 168.217 57.9382C169.312 56.349 170.461 54.5045 170.037 52.6181C169.781 51.4779 168.973 50.5207 168.734 49.3768C168.478 48.1542 168.901 46.907 169.189 45.6915C169.476 44.476 169.595 43.0805 168.847 42.0837C168.054 41.0269 166.461 40.6779 165.95 39.4573C165.794 39.0049 165.725 38.5265 165.748 38.0481L165.716 35.8729C165.686 35.417 165.725 34.9592 165.829 34.5146C165.998 33.9318 166.385 33.4434 166.755 32.964C167.457 32.0531 168.141 31.0842 168.413 29.9641C168.743 28.6039 168.23 27.7601 167.572 26.659C167.003 25.7067 167.138 24.3435 168.126 23.7115Z" fill="#2F2E41"/>
<path d="M175.313 19.4681C175.313 19.4681 182.87 26.0844 180.898 28.4001C178.927 30.7157 175.806 24.0995 175.806 24.0995L172.521 21.6184L175.313 19.4681Z" fill="#A0616A"/>
<path d="M143.773 108.291C143.773 108.291 135.066 110.441 134.081 112.261C134.081 112.261 132.931 117.885 132.931 120.2C132.931 122.516 132.438 126.816 127.838 127.644C123.239 128.471 119.953 129.959 126.196 131.117C132.438 132.275 134.245 132.606 136.052 130.125C137.859 127.644 138.845 126.982 138.845 126.982L140.159 130.29H140.98L144.101 123.508C144.101 123.508 144.43 120.2 143.609 118.215C142.787 116.231 143.773 108.291 143.773 108.291Z" fill="#2F2E41"/>
<path d="M176.216 20.047C176.216 20.047 175.965 22.6935 172.395 23.1897L171.617 20.7086L174.081 18.5583L176.216 20.047Z" fill="#D0CDE1"/>
<path d="M88.4958 121.761C98.2872 121.761 106.225 113.769 106.225 103.91C106.225 94.0509 98.2872 86.0587 88.4958 86.0587C78.7045 86.0587 70.7671 94.0509 70.7671 103.91C70.7671 113.769 78.7045 121.761 88.4958 121.761Z" fill="#F4C82D"/>
<path d="M79.4788 77.3987H79.4788C76.2009 78.5061 72.6308 78.3435 69.4655 76.9427C66.3003 75.542 63.7672 73.0037 62.3608 69.8234L43.1438 26.3677C42.0891 23.9826 41.541 21.4017 41.5347 18.7908C41.5285 16.1798 42.0642 13.5964 43.1075 11.2061C44.1509 8.81581 45.6788 6.67145 47.5934 4.91052C49.5079 3.1496 51.7668 1.81098 54.2252 0.980499L54.2252 0.980484C56.696 0.145815 59.3134 -0.157008 61.9078 0.091626C64.5022 0.34026 67.0159 1.13481 69.2859 2.42381C71.556 3.71282 73.5318 5.46754 75.0856 7.57433C76.6393 9.68113 77.7362 12.093 78.3053 14.6538L88.6214 61.0748C89.372 64.4524 88.8529 67.9903 87.1644 71.0051C85.4759 74.02 82.7377 76.2978 79.4788 77.3987Z" fill="#F4C82D"/>
<path opacity="0.1" d="M88.4958 121.761C98.2872 121.761 106.225 113.769 106.225 103.91C106.225 94.0509 98.2872 86.0587 88.4958 86.0587C78.7045 86.0587 70.7671 94.0509 70.7671 103.91C70.7671 113.769 78.7045 121.761 88.4958 121.761Z" fill="black"/>
<path opacity="0.1" d="M79.4788 77.3987H79.4788C76.2009 78.5061 72.6308 78.3435 69.4655 76.9427C66.3003 75.542 63.7672 73.0037 62.3608 69.8234L43.1438 26.3677C42.0891 23.9826 41.541 21.4017 41.5347 18.7908C41.5285 16.1798 42.0642 13.5964 43.1075 11.2061C44.1509 8.81581 45.6788 6.67145 47.5934 4.91052C49.5079 3.1496 51.7668 1.81098 54.2252 0.980499L54.2252 0.980484C56.696 0.145815 59.3134 -0.157008 61.9078 0.091626C64.5022 0.34026 67.0159 1.13481 69.2859 2.42381C71.556 3.71282 73.5318 5.46754 75.0856 7.57433C76.6393 9.68113 77.7362 12.093 78.3053 14.6538L88.6214 61.0748C89.372 64.4524 88.8529 67.9903 87.1644 71.0051C85.4759 74.02 82.7377 76.2978 79.4788 77.3987Z" fill="black"/>
<path d="M87.84 116.264C95.6958 116.264 102.064 109.852 102.064 101.942C102.064 94.0319 95.6958 87.6195 87.84 87.6195C79.9841 87.6195 73.6157 94.0319 73.6157 101.942C73.6157 109.852 79.9841 116.264 87.84 116.264Z" fill="#F4C82D"/>
<path d="M77.7893 72.2769C74.7818 73.2929 71.5061 73.1437 68.6019 71.8585C65.6977 70.5733 63.3735 68.2443 62.0831 65.3263L44.4511 25.4547C43.4833 23.2662 42.9804 20.8982 42.9747 18.5026C42.9689 16.107 43.4605 13.7366 44.4178 11.5435C45.375 9.35032 46.777 7.38282 48.5336 5.76712C50.2903 4.15143 52.3629 2.92321 54.6185 2.16122C56.8855 1.39539 59.287 1.11753 61.6675 1.34566C64.0479 1.57379 66.3543 2.30281 68.4371 3.4855C70.5199 4.6682 72.3328 6.2782 73.7584 8.21124C75.184 10.1443 76.1904 12.3573 76.7126 14.7069L86.1779 57.2993C86.8666 60.3983 86.3903 63.6445 84.8411 66.4106C83.2918 69.1768 80.7795 71.2668 77.7893 72.2769Z" fill="#F4C82D"/>
</g>
<defs>
<clipPath id="clip0">
<rect width="228" height="165" fill="white" transform="translate(0.160156)"/>
</clipPath>
</defs>
</svg>
