<svg width="241" height="226" viewBox="0 0 241 226" fill="none" xmlns="http://www.w3.org/2000/svg">
<path opacity="0.1" d="M214.82 114.085C214.621 114.924 214.4 115.754 214.16 116.575C214.12 116.715 214.076 116.853 214.036 116.995C213.154 119.883 212.089 122.673 210.847 125.347L210.614 125.846C210.559 125.97 210.503 126.087 210.441 126.208C209.134 128.984 207.675 131.688 206.146 134.333L206.131 134.362L206.014 134.56C204.781 136.693 203.494 138.796 202.153 140.87L202.119 140.917C201.512 141.847 200.898 142.766 200.277 143.674C200.026 144.048 199.766 144.411 199.509 144.778C199.022 145.465 198.532 146.148 198.028 146.822L197.967 146.908L197.859 147.05L197.725 147.233C196.412 148.991 195.043 150.706 193.617 152.377L193.591 152.406C192.594 153.566 191.57 154.698 190.518 155.802L190.375 155.954C188.827 157.568 187.206 159.124 185.519 160.593L185.13 160.93C183.891 161.996 182.615 163.019 181.301 163.999C173.909 169.495 165.458 173.376 156.841 176.639C139.439 183.225 120.938 187.419 102.223 188.056C98.6315 188.179 95.0339 188.168 91.43 188.023C91.4006 188.022 91.3741 188.019 91.3457 188.019C89.1883 187.932 87.0282 187.791 84.8654 187.595C84.2339 187.542 83.6013 187.481 82.9706 187.416C82.1939 187.335 81.417 187.248 80.6398 187.155C79.6145 187.031 78.5812 186.893 77.541 186.743L77.0512 186.668L76.8618 186.638C76.5957 186.596 76.3324 186.553 76.0667 186.509C66.163 184.884 56.3138 181.671 48.6589 174.954C39.8211 167.206 34.8605 153.777 39.6788 143.399C41.3329 139.828 43.9568 136.893 46.7223 134.124L47.0054 133.841C47.4746 133.375 47.9467 132.914 48.416 132.455C50.0618 130.849 51.7195 129.24 53.3258 127.585C54.1633 126.723 54.9828 125.853 55.7827 124.962L56.1087 124.595C58.0429 122.455 59.7991 120.128 61.3618 117.633L61.3761 117.625C61.5433 117.356 61.7047 117.084 61.8599 116.811C61.9618 116.637 62.0638 116.464 62.1608 116.281C63.7522 113.421 65.1618 109.916 65.754 106.366C65.8016 106.081 65.8428 105.796 65.8797 105.513C65.9072 105.293 65.9322 105.072 65.9529 104.853C66.2172 102.103 65.9296 99.3845 64.7871 96.9828C64.4034 96.1757 63.9252 95.4143 63.3668 94.721C62.3085 93.4067 61.2753 92.1192 60.3191 90.8331C58.5246 88.4155 56.9932 85.9975 56.0298 83.3709C55.0468 80.6936 54.6515 77.7986 55.1668 74.472C55.2437 73.9687 55.3421 73.4529 55.4619 72.9248C56.039 70.5124 56.9772 68.2765 58.242 66.2988C58.399 66.0552 58.5573 65.8107 58.7171 65.5655C62.3247 60.2241 68.0607 56.2331 73.8893 53.3178C79.3409 50.6048 85.0762 48.4606 91.0307 46.9093C91.502 46.784 91.9763 46.6639 92.4497 46.5489C97.5554 45.2993 102.779 44.4163 108.091 43.9049C121.873 42.5408 136.15 43.4518 150.159 45.465C150.296 45.4845 150.433 45.504 150.574 45.5236C151.159 45.6067 151.742 45.6924 152.323 45.7806C153.447 45.9501 154.567 46.1274 155.682 46.3127L156.435 46.436C156.806 46.4972 157.176 46.5597 157.544 46.6237L158.68 46.8195C158.731 46.8247 158.782 46.8342 158.834 46.8478L159.8 47.015C160.36 47.1136 160.919 47.2156 161.48 47.3185L162.685 47.5411C162.935 47.589 163.187 47.6344 163.439 47.6841L164.732 47.9423L165.023 48.0037C165.083 48.015 165.143 48.0263 165.204 48.0419L165.239 48.0468C168.75 48.757 172.25 49.5752 175.68 50.6033L176.124 50.7373L176.17 50.7517C176.545 50.8658 176.922 50.9832 177.295 51.1049C181.83 52.5437 186.208 54.3766 190.329 56.8163C209.312 68.1155 219.884 92.8329 214.82 114.085Z" fill="#447ACC"/>
<path d="M177.543 93.3336L169.975 85.7234C169.604 85.344 169.161 85.0419 168.673 84.8344C168.184 84.627 167.66 84.5183 167.129 84.5147C166.598 84.5111 166.072 84.6127 165.581 84.8135C165.09 85.0142 164.643 85.3103 164.267 85.6846L116.742 132.804L96.6478 112.554C95.9017 111.797 94.8855 111.368 93.8227 111.36C92.76 111.353 91.7378 111.767 90.9809 112.513L83.3314 120.081C82.5755 120.836 82.1475 121.858 82.1402 122.927C82.133 123.995 82.547 125.023 83.2926 125.788L113.809 156.543C114.564 157.299 115.586 157.728 116.655 157.735C117.723 157.743 118.751 157.329 119.517 156.584L177.5 99.039C177.88 98.6683 178.182 98.2261 178.39 97.738C178.597 97.2499 178.706 96.7255 178.71 96.1952C178.714 95.6648 178.613 95.1388 178.413 94.6477C178.212 94.1566 177.917 93.71 177.543 93.3336Z" fill="#3AD29F"/>
</svg>
