<svg width="240" height="166" viewBox="0 0 240 166" fill="none" xmlns="http://www.w3.org/2000/svg">
<g clip-path="url(#clip0)">
<path d="M171.044 113.508C171.044 128.53 162.139 133.776 151.154 133.776C140.169 133.776 131.264 128.53 131.264 113.508C131.264 98.4848 151.154 79.3735 151.154 79.3735C151.154 79.3735 171.044 98.4848 171.044 113.508Z" fill="#447ACC"/>
<path d="M150.633 118.905L159.111 103.351L150.665 116.933L150.757 111.28L156.6 100.026L150.781 109.783L150.946 99.6159L157.202 90.6571L150.972 98.0172L151.075 79.3735L150.456 102.997L144.12 93.2713L150.379 104.991L149.786 116.346L149.769 116.045L142.436 105.769L149.746 117.109L149.672 118.529L149.659 118.551L149.665 118.667L148.161 133.821H150.17L150.412 132.596L157.705 121.283L150.43 131.478L150.633 118.905Z" fill="#3F3D56"/>
<path d="M239.16 65.2045C239.16 93.9016 222.149 103.922 201.165 103.922C180.181 103.922 163.17 93.9016 163.17 65.2045C163.17 36.5073 201.165 0 201.165 0C201.165 0 239.16 36.5073 239.16 65.2045Z" fill="#E0E8F1"/>
<path d="M199.781 99.5318L200.17 75.5149L216.365 45.8026L200.231 71.7473L200.406 60.9482L211.567 39.4517L200.452 58.0905V58.0907L200.767 38.6681L212.719 21.5542L200.816 35.614L201.013 0L199.778 47.1465L199.879 45.2016L187.728 26.5484L199.684 48.935L198.552 70.6266L198.518 70.0509L184.51 50.4212L198.476 72.0848L198.334 74.7976L198.309 74.8385L198.321 75.0611L195.448 130.094H199.286L199.746 101.669L213.678 80.0581L199.781 99.5318Z" fill="#3F3D56"/>
<path d="M237.6 125.289C237.6 133.855 182.197 166 117.43 166C52.6639 166 0.160156 149.364 0.160156 140.798C0.160156 132.233 51.3752 142.414 116.142 142.414C180.908 142.414 237.6 116.724 237.6 125.289Z" fill="#3F3D56"/>
<path opacity="0.1" d="M237.6 125.289C237.6 133.855 182.197 166 117.43 166C52.6639 166 0.160156 149.364 0.160156 140.798C0.160156 132.233 51.3752 142.414 116.142 142.414C180.908 142.414 237.6 116.724 237.6 125.289Z" fill="black"/>
<path d="M237.6 125.289C237.6 133.855 182.197 156.307 117.43 156.307C52.6639 156.307 0.160156 149.363 0.160156 140.798C0.160156 132.233 51.3752 132.721 116.142 132.721C180.908 132.721 237.6 116.724 237.6 125.289Z" fill="#3F3D56"/>
<path opacity="0.1" d="M118.743 146.288C146.246 146.288 168.542 144.559 168.542 142.425C168.542 140.292 146.246 138.562 118.743 138.562C91.2392 138.562 68.9434 140.292 68.9434 142.425C68.9434 144.559 91.2392 146.288 118.743 146.288Z" fill="black"/>
<path d="M79.2916 65.0162C79.2916 65.0162 93.8707 65.287 91.1709 67.8592C88.4711 70.4315 78.3467 67.8592 78.3467 67.8592L79.2916 65.0162Z" fill="#A0616A"/>
<path d="M48.9156 33.7731C48.9156 33.7731 54.8019 32.7189 56.8485 37.4845C58.8952 42.2501 63.0986 55.8412 63.0986 55.8412C63.0986 55.8412 74.3472 63.3085 76.3932 63.0631C78.4392 62.8178 81.9368 63.3184 81.2953 65.5569C80.6537 67.7955 80.9385 70.3338 79.4615 70.6449C77.9844 70.956 75.6353 67.9864 73.8375 69.4167C72.0397 70.8471 56.0173 65.6226 54.9886 64.5401C53.96 63.4576 45.4116 40.0172 45.4116 40.0172C45.4116 40.0172 45.7536 33.6968 48.9156 33.7731Z" fill="#447ACC"/>
<path d="M61.5402 134.399L62.2151 140.085L56.5455 141.574L53.3057 140.085V135.076L61.5402 134.399Z" fill="#A0616A"/>
<path d="M46.2863 138.054L46.9612 143.74L41.2916 145.23L38.0518 143.74V138.731L46.2863 138.054Z" fill="#A0616A"/>
<path d="M62.0804 72.2591L64.6453 81.6004L68.425 100.554C68.425 100.554 69.505 105.157 67.3451 110.707C65.1852 116.258 61.2705 134.399 62.0804 135.482C62.8904 136.565 52.901 137.377 53.036 136.294C53.171 135.211 54.5209 120.319 54.5209 120.319C54.5209 120.319 56.4108 107.187 57.3557 105.563C58.3007 103.938 53.036 99.8768 53.036 99.8768C53.036 99.8768 51.6861 115.446 49.6612 116.799C47.6363 118.153 47.9063 139.137 46.9613 139.408C46.0164 139.679 39.1318 140.762 38.3219 139.408C37.5119 138.054 38.3219 115.446 38.3219 115.446C38.3219 115.446 42.9116 98.2522 41.9667 95.8154C41.0217 93.3785 41.5617 82.9542 41.5617 82.9542C41.5617 82.9542 38.0519 74.9667 39.9418 70.7699L62.0804 72.2591Z" fill="#2F2E41"/>
<path d="M61.6753 20.2728C61.6753 20.2728 56.0057 27.3127 56.2757 30.4264C56.5457 33.5402 47.3662 24.7404 47.3662 24.7404C47.3662 24.7404 53.9808 15.8053 53.9808 13.9099C53.9808 12.0146 61.6753 20.2728 61.6753 20.2728Z" fill="#A0616A"/>
<path d="M61.6077 22.9128C66.5283 22.9128 70.5172 18.9124 70.5172 13.9776C70.5172 9.04288 66.5283 5.04248 61.6077 5.04248C56.6871 5.04248 52.6982 9.04288 52.6982 13.9776C52.6982 18.9124 56.6871 22.9128 61.6077 22.9128Z" fill="#A0616A"/>
<path d="M39.1547 67.1945C38.751 68.7027 38.2502 70.4125 38.3218 71.853C38.3677 72.7858 40.8367 73.3977 44.2506 73.7984C47.4162 74.1707 51.3944 74.3603 55.0108 74.4577C58.8081 74.5606 62.2031 74.5606 63.8352 74.5606C68.6949 74.5606 64.7801 71.4469 62.8903 69.9577C61.0004 68.4685 61.4053 47.3491 61.5403 44.6414C61.6753 41.9338 60.3254 34.0817 60.3254 32.5925C60.3254 31.1033 57.1491 27.2165 57.1491 27.2165C57.1491 27.2165 56.4107 29.3434 53.4408 26.5004C50.471 23.6574 46.5563 22.8451 46.5563 22.8451C43.5864 23.9281 38.5918 35.8417 38.3218 37.8724C38.2124 38.6968 38.3029 42.9194 38.4865 47.7403C38.7524 54.7869 39.2168 63.1169 39.5367 64.0009C39.7891 64.6981 39.5097 65.8678 39.1547 67.1945Z" fill="#447ACC"/>
<path d="M53.5759 75.1022L54.5208 78.4867L50.876 82.2774L49.6611 76.9974L53.5759 75.1022Z" fill="#A0616A"/>
<path d="M54.7905 138.596C54.7905 138.596 57.6253 141.845 59.7852 139.679C61.9451 137.513 61.8101 136.159 62.2151 136.159C62.62 136.159 68.6947 141.574 68.6947 141.574C68.6947 141.574 79.089 144.011 73.4194 145.771C67.7497 147.531 51.6857 146.313 51.6857 145.771C51.6857 145.229 51.2807 138.054 52.7656 138.054L54.7905 138.596Z" fill="#2F2E41"/>
<path d="M39.5366 142.251C39.5366 142.251 42.3714 145.5 44.5313 143.334C46.6912 141.168 46.5562 139.814 46.9612 139.814C47.3661 139.814 53.4408 145.23 53.4408 145.23C53.4408 145.23 63.8351 147.666 58.1655 149.426C52.4958 151.186 36.4318 149.968 36.4318 149.426C36.4318 148.885 36.0268 141.71 37.5117 141.71L39.5366 142.251Z" fill="#2F2E41"/>
<path d="M51.6047 21.1101C51.3169 21.2966 50.9422 21.4855 50.6541 21.2996C49.5826 18.6198 48.7818 15.839 48.2635 12.9989C48.0815 12.0013 47.9553 10.8923 48.5079 10.043C48.7258 9.70803 49.0396 9.43411 49.1992 9.06757C49.441 8.51249 49.2818 7.86997 49.3621 7.26962C49.5304 6.0119 50.7159 5.13466 51.908 4.70921C53.1002 4.28377 54.3949 4.15179 55.5313 3.59353C56.6102 3.06344 57.4744 2.18431 58.4749 1.51718C59.4755 0.850047 60.757 0.393907 61.8713 0.844706C62.8569 1.2435 63.4709 2.25112 64.4026 2.76416C65.0348 3.11231 65.7685 3.20919 66.4743 3.35864C68.4357 3.77599 70.2772 4.63403 71.8603 5.86819C72.2455 6.14374 72.5776 6.4871 72.8405 6.88158C74.0361 8.85567 71.8955 11.5395 72.8399 13.6461L70.7982 12.0304C70.2529 11.5521 69.638 11.1601 68.9747 10.8681C68.2984 10.6112 67.4975 10.5802 66.8831 10.9629C66.021 11.4999 65.7872 12.622 65.486 13.594C65.1848 14.566 64.5189 15.6438 63.5043 15.6189C62.1244 15.5851 61.6419 13.6539 60.4036 13.0424C59.5964 12.6438 58.5803 12.9063 57.8921 13.4876C57.204 14.0689 56.791 14.9123 56.4882 15.762C56.2989 16.2929 56.1214 16.8915 55.7852 17.3517C55.4145 17.8593 54.9403 17.9002 54.5443 18.2793C53.5135 19.266 52.8798 20.2839 51.6047 21.1101Z" fill="#2F2E41"/>
<path opacity="0.1" d="M39.1545 67.1945C40.8325 69.6354 42.7237 72.1535 44.2505 73.7984C47.416 74.1707 51.3943 74.3602 55.0107 74.4577C54.3646 73.5792 53.5567 72.8329 52.6308 72.2591C50.8759 71.1761 46.6911 58.3149 46.6911 58.3149C46.6911 58.3149 51.8208 45.0475 53.1707 40.0384C54.5207 35.0293 49.256 32.1863 49.256 32.1863C46.8261 30.1556 42.6414 34.894 42.6414 34.894C42.6414 34.894 40.5058 41.3543 38.4863 47.7403C38.7523 54.7869 39.2166 63.1168 39.5366 64.0009C39.789 64.6981 39.5096 65.8678 39.1545 67.1945Z" fill="black"/>
<path d="M48.8509 31.1033C48.8509 31.1033 54.1156 33.9463 52.7656 38.9554C51.4157 43.9645 46.286 57.2319 46.286 57.2319C46.286 57.2319 50.4708 70.0931 52.2257 71.1761C53.9806 72.2592 56.4104 74.8314 54.5205 76.1852C52.6307 77.539 51.2807 79.7051 49.9308 79.0282C48.5809 78.3513 48.5809 74.5607 46.286 74.5607C43.9912 74.5607 34.6768 60.481 34.5418 58.9918C34.4068 57.5026 42.2363 33.811 42.2363 33.811C42.2363 33.811 46.421 29.0726 48.8509 31.1033Z" fill="#447ACC"/>
<path d="M158.324 68.1069L156.805 66.5838C155.919 65.6955 154.718 65.1964 153.465 65.1964C152.213 65.1964 151.011 65.6955 150.125 66.5838L120.669 96.1254L91.2122 66.5838C90.3264 65.6955 89.125 65.1964 87.8723 65.1964C86.6196 65.1964 85.4182 65.6955 84.5324 66.5838L83.0138 68.1069C82.5752 68.5467 82.2273 69.0689 81.9899 69.6436C81.7525 70.2183 81.6304 70.8343 81.6304 71.4564C81.6304 72.0784 81.7525 72.6944 81.9899 73.2691C82.2273 73.8438 82.5752 74.366 83.0138 74.8059L112.47 104.347L83.0138 133.889C82.5752 134.329 82.2273 134.851 81.9899 135.426C81.7525 136 81.6304 136.616 81.6304 137.238C81.6304 137.861 81.7525 138.477 81.9899 139.051C82.2273 139.626 82.5752 140.148 83.0138 140.588L84.5324 142.111C85.4182 142.999 86.6196 143.498 87.8723 143.498C89.125 143.498 90.3264 142.999 91.2122 142.111L120.669 112.57L150.125 142.111C151.011 142.999 152.213 143.498 153.465 143.498C154.718 143.498 155.919 142.999 156.805 142.111L158.324 140.588C159.21 139.7 159.707 138.495 159.707 137.238C159.707 135.982 159.21 134.777 158.324 133.889L128.867 104.347L158.324 74.8059C159.21 73.9176 159.707 72.7127 159.707 71.4564C159.707 70.2001 159.21 68.9952 158.324 68.1069Z" fill="#FF6584"/>
<path opacity="0.1" d="M81.9624 135.495L110.544 106.831L110.269 106.555L83.0136 133.889C82.5571 134.346 82.1993 134.893 81.9624 135.495Z" fill="black"/>
<path opacity="0.1" d="M82.6063 69.0672C83.4921 68.1788 84.6935 67.6798 85.9462 67.6798C87.1989 67.6798 88.4003 68.1788 89.2861 69.0672L118.743 98.6087L148.199 69.0672C149.085 68.1788 150.286 67.6798 151.539 67.6798C152.792 67.6798 153.993 68.1788 154.879 69.0672L156.398 70.5902C157.049 71.2437 157.496 72.0741 157.683 72.979C157.869 73.884 157.788 74.8239 157.449 75.6831L158.324 74.8059C158.762 74.366 159.11 73.8438 159.347 73.2691C159.585 72.6944 159.707 72.0784 159.707 71.4564C159.707 70.8343 159.585 70.2183 159.347 69.6436C159.11 69.0689 158.762 68.5467 158.324 68.1069L156.805 66.5838C155.919 65.6955 154.718 65.1964 153.465 65.1964C152.212 65.1964 151.011 65.6955 150.125 66.5838L120.669 96.1253L91.2121 66.5838C90.3263 65.6955 89.1249 65.1964 87.8722 65.1964C86.6194 65.1964 85.4181 65.6955 84.5323 66.5838L83.0136 68.1069C82.5571 68.5642 82.1993 69.1109 81.9624 69.713L82.6063 69.0672Z" fill="black"/>
<path opacity="0.1" d="M129.142 104.623L126.941 106.831L156.398 136.372C157.049 137.026 157.496 137.856 157.683 138.761C157.87 139.666 157.788 140.606 157.449 141.465L158.324 140.588C158.763 140.148 159.11 139.626 159.348 139.051C159.585 138.477 159.707 137.861 159.707 137.238C159.707 136.616 159.585 136 159.348 135.426C159.11 134.851 158.763 134.329 158.324 133.889L129.142 104.623Z" fill="black"/>
<path d="M34.4593 124.32C34.4593 136.797 27.0633 141.154 17.9399 141.154C8.81643 141.154 1.42041 136.797 1.42041 124.32C1.42041 111.843 17.9399 95.9708 17.9399 95.9708C17.9399 95.9708 34.4593 111.843 34.4593 124.32Z" fill="#447ACC"/>
<path d="M17.5073 128.803L24.5484 115.885L17.5338 127.165L17.6099 122.47L22.4625 113.124L17.6301 121.227L17.7668 112.783L22.9631 105.342L17.7883 111.455L17.8737 95.9708L17.3597 115.591L12.0977 107.514L17.2959 117.247L16.8038 126.678L16.7892 126.428L10.6987 117.893L16.7706 127.312L16.7091 128.491L16.698 128.509L16.7031 128.606L15.4542 141.191H17.1229L17.3232 140.174L23.3802 130.779L17.3382 139.245L17.5073 128.803Z" fill="#3F3D56"/>
</g>
<defs>
<clipPath id="clip0">
<rect width="239" height="166" fill="white" transform="translate(0.160156)"/>
</clipPath>
</defs>
</svg>
