<svg width="230" height="242" viewBox="0 0 230 242" fill="none" xmlns="http://www.w3.org/2000/svg">
<g clip-path="url(#clip0)">
<path d="M116.215 241.17C163.274 241.17 201.423 234.394 201.423 226.035C201.423 217.676 163.274 210.9 116.215 210.9C69.155 210.9 31.0058 217.676 31.0058 226.035C31.0058 234.394 69.155 241.17 116.215 241.17Z" fill="#3F3D56"/>
<path d="M45.2023 83.474C45.2023 61.4242 77.397 43.5493 117.111 43.5493C156.825 43.5493 189.02 61.4242 189.02 83.474" stroke="#3F3D56" stroke-width="2" stroke-miterlimit="10"/>
<path d="M139.721 58.9216H81.2198C69.6491 39.3379 69.6491 19.7542 81.2198 0.17041H139.721C123.543 19.7542 123.543 39.3379 139.721 58.9216Z" fill="#E6E6E6"/>
<path d="M122.542 7.16455H89.5772V11.3611H122.542V7.16455Z" fill="#447ACC"/>
<path d="M122.542 20.9199H78.8984V22.3188H122.542V20.9199Z" fill="white"/>
<path d="M122.542 28.147H78.8984V29.5458H122.542V28.147Z" fill="white"/>
<path d="M122.542 35.3745H78.8984V36.7734H122.542V35.3745Z" fill="white"/>
<path d="M163.078 188.971C163.078 207.604 174.718 222.681 189.102 222.681L163.078 188.971Z" fill="#3F3D56"/>
<path d="M189.102 222.681C189.102 203.839 202.091 188.592 218.143 188.592L189.102 222.681Z" fill="#447ACC"/>
<path d="M172.507 190.66C172.507 208.359 179.929 222.681 189.102 222.681L172.507 190.66Z" fill="#447ACC"/>
<path d="M189.102 222.681C189.102 198.605 204.115 179.123 222.669 179.123L189.102 222.681Z" fill="#3F3D56"/>
<path d="M183.627 222.919C183.627 222.919 187.318 222.805 188.43 222.009C189.542 221.214 194.107 220.264 194.383 221.54C194.659 222.815 199.929 227.884 195.763 227.918C191.596 227.952 186.081 227.266 184.971 226.587C183.861 225.908 183.627 222.919 183.627 222.919Z" fill="#A8A8A8"/>
<path opacity="0.2" d="M195.837 227.474C191.67 227.508 186.156 226.822 185.046 226.143C184.2 225.626 183.863 223.77 183.75 222.914C183.672 222.917 183.627 222.919 183.627 222.919C183.627 222.919 183.861 225.908 184.971 226.587C186.081 227.266 191.596 227.952 195.763 227.918C196.965 227.908 197.381 227.479 197.358 226.842C197.191 227.227 196.732 227.467 195.837 227.474Z" fill="black"/>
<path d="M103.708 46.0656C104.047 46.2216 104.455 45.989 104.654 45.673C105.415 44.4696 104.015 42.9179 104.318 41.5255C104.561 40.41 105.823 39.7479 106.081 38.6359C106.332 37.5553 105.559 36.3373 106.081 35.3596C106.491 34.5936 107.513 34.392 108.368 34.5262C109.223 34.6604 110.035 35.038 110.899 35.0909C112.05 35.1613 113.147 34.6524 114.273 34.4002C115.399 34.1481 116.772 34.2468 117.434 35.1951C118.284 36.4128 117.422 38.1084 117.718 39.5656C117.953 40.7227 118.917 41.6809 118.938 42.8617C118.946 43.2813 117.847 42.9433 117.905 43.3589C117.964 43.7745 117.444 43.4086 117.86 43.3592C118.029 43.3175 118.181 43.2227 118.293 43.0886C118.406 42.9544 118.472 42.7879 118.484 42.613C118.534 42.2669 119.181 42.1515 119.174 41.8018C119.156 40.9824 120.632 41.5349 120.874 40.7525C121.433 38.9284 121.319 36.9633 120.552 35.2172C120.221 34.4718 119.77 33.7663 119.611 32.9661C119.394 31.8796 119.735 30.7133 119.377 29.665C118.896 28.2523 117.302 27.5321 115.822 27.3858C114.342 27.2396 112.839 27.5014 111.367 27.2857C110.049 27.0925 108.773 26.5188 107.444 26.6019C105.849 26.7017 104.46 27.7339 103.355 28.8928C102.249 30.0518 101.311 31.3848 100.055 32.3777C99.6704 32.6434 99.3157 32.9501 98.9969 33.2924C98.3572 34.0752 98.2924 35.1904 98.4703 36.1871C98.6482 37.1839 99.0354 38.1347 99.1989 39.1339C99.3525 40.0729 99.3052 41.0323 99.3713 41.9817C99.4375 42.931 99.6337 43.9091 100.203 44.6698C100.431 44.9806 100.727 45.235 101.067 45.4137C101.408 45.5924 101.785 45.6908 102.169 45.7012C102.435 45.7073 102.66 45.4671 102.928 45.5298C103.264 45.6081 103.41 45.9283 103.708 46.0656Z" fill="#2F2E41"/>
<path d="M92.3229 115.055L93.3095 121.142L95.2829 118.452L94.1552 114.347L92.3229 115.055Z" fill="#A0616A"/>
<path d="M93.5915 69.0508L92.0378 73.1625C92.0378 73.1625 90.4906 94.1054 90.4906 95.6625C90.4906 97.2196 91.6182 117.178 92.041 118.028C92.041 118.028 93.8734 115.338 96.2695 115.763C98.6657 116.187 97.679 108.685 97.679 108.685L99.9342 90.142L99.5113 80.7996L93.5915 69.0508Z" fill="#575A89"/>
<path opacity="0.1" d="M93.5915 69.0508L92.0378 73.1625C92.0378 73.1625 90.4906 94.1054 90.4906 95.6625C90.4906 97.2196 91.6182 117.178 92.041 118.028C92.041 118.028 93.8734 115.338 96.2695 115.763C98.6657 116.187 97.679 108.685 97.679 108.685L99.9342 90.142L99.5113 80.7996L93.5915 69.0508Z" fill="black"/>
<path d="M103.176 46.4022C103.176 46.4022 107.827 58.2926 105.149 60.5574C102.471 62.8222 120.09 56.7355 120.09 56.7355L119.667 55.1784C119.667 55.1784 113.888 52.9136 116.707 46.4022C119.526 39.8909 103.176 46.4022 103.176 46.4022Z" fill="#A0616A"/>
<path opacity="0.1" d="M103.176 46.4022C103.176 46.4022 107.827 58.2926 105.149 60.5574C102.471 62.8222 120.09 56.7355 120.09 56.7355L119.667 55.1784C119.667 55.1784 113.888 52.9136 116.707 46.4022C119.526 39.8909 103.176 46.4022 103.176 46.4022Z" fill="black"/>
<path d="M95.8467 205.223C95.8467 205.223 93.8734 204.657 92.7458 206.072C91.6182 207.488 87.3897 211.027 87.3897 211.027C87.3897 211.027 79.2146 210.177 78.087 214.282C76.9594 218.387 90.9134 218.387 94.2962 217.397C97.679 216.406 98.3838 217.397 98.3838 217.397C98.3838 217.397 108.814 218.246 108.814 216.547C108.814 214.849 107.827 209.045 107.827 209.045L95.8467 205.223Z" fill="#575A89"/>
<path d="M128.97 214.707L127.138 220.369C127.138 220.369 121.641 228.013 124.741 229.57C127.842 231.127 138.836 232.684 138.836 228.579V220.794C138.836 220.794 137.709 215.273 136.581 214.707C135.454 214.141 128.97 214.707 128.97 214.707Z" fill="#575A89"/>
<path d="M97.8428 112.983C97.8428 112.983 91.9001 118.169 92.041 118.877C92.182 119.584 95.001 165.022 95.001 165.022L96.5514 194.465C96.5514 194.465 94.5781 201.401 95.5648 202.958C96.5514 204.515 94.1553 204.94 94.1553 204.94C94.1553 204.94 104.304 214.141 108.532 210.177L112.479 158.794L123.332 196.164C123.332 196.164 125.164 215.981 127.279 215.981C129.393 215.981 137.991 216.406 137.85 215.273C137.709 214.141 138.273 205.506 137.286 200.41C136.299 195.314 129.675 154.972 129.675 154.972C129.675 154.972 129.105 120.388 130.588 117.155C132.071 113.922 129.816 110.525 129.816 110.525L119.949 106.703L108.109 108.119L97.8428 112.983Z" fill="#2F2E41"/>
<path d="M109.801 51.2151C115.25 51.2151 119.667 46.7789 119.667 41.3066C119.667 35.8342 115.25 31.3979 109.801 31.3979C104.352 31.3979 99.9342 35.8342 99.9342 41.3066C99.9342 46.7789 104.352 51.2151 109.801 51.2151Z" fill="#A0616A"/>
<path d="M133.762 62.6806C133.275 61.2956 132.453 60.0536 131.371 59.0655C130.289 58.0775 128.98 57.3742 127.56 57.0185C124.717 56.3003 121.936 55.3536 119.244 54.1875C119.244 54.1875 109.237 59.0003 107.264 59.0003C105.29 59.0003 105.29 57.7263 105.29 57.7263C105.29 57.7263 100.216 63.1052 97.5381 63.6715C94.86 64.2377 90.9134 70.8906 92.3229 74.5709C93.2802 76.9304 94.6663 79.0904 96.4104 80.9407C96.4104 80.9407 95.8467 100.758 97.679 104.438C97.679 104.438 93.1686 113.073 97.3971 113.639C101.626 114.205 117.835 112.224 120.654 114.205C123.473 116.187 128.688 113.781 129.393 116.47C130.098 119.16 131.648 119.726 131.648 119.726C131.648 119.726 134.044 115.904 132.635 113.639C131.225 111.374 133.762 62.6806 133.762 62.6806Z" fill="#575A89"/>
<path d="M123.332 115.904L121.077 117.32C121.077 117.32 123.473 125.671 124.46 125.954C125.446 126.238 127.769 118.813 127.769 118.813L123.332 115.904Z" fill="#A0616A"/>
<path d="M102.017 45.0748C102.356 45.2308 102.763 44.9983 102.963 44.6823C103.724 43.4789 102.323 41.9272 102.627 40.5348C102.869 39.4193 104.132 38.7572 104.39 37.6451C104.64 36.5646 103.868 35.3466 104.39 34.3689C104.799 33.6029 105.821 33.4013 106.676 33.5355C107.532 33.6697 108.343 34.0472 109.207 34.1001C110.358 34.1706 111.456 33.6617 112.582 33.4095C113.707 33.1573 115.08 33.2561 115.743 34.2044C116.593 35.4221 115.73 37.1176 116.026 38.5749C116.261 39.732 118.94 40.5442 119.183 39.7617C119.742 37.9377 119.627 35.9725 118.86 34.2265C118.529 33.4811 118.079 32.7756 117.919 31.9754C117.702 30.8889 118.043 29.7226 117.686 28.6743C117.204 27.2615 115.61 26.5414 114.131 26.3951C112.651 26.2488 111.147 26.5107 109.676 26.295C108.358 26.1018 107.082 25.5281 105.752 25.6112C104.157 25.7109 102.769 26.7431 101.663 27.9021C100.557 29.0611 99.6194 30.3941 98.3635 31.387C97.979 31.6527 97.6243 31.9593 97.3055 32.3017C96.6658 33.0845 96.601 34.1996 96.7789 35.1964C96.9568 36.1931 97.344 37.1439 97.5075 38.1432C97.6612 39.0822 97.6137 40.0416 97.6799 40.9909C97.7461 41.9402 97.9423 42.9183 98.5116 43.6791C98.7396 43.9898 99.0351 44.2443 99.3758 44.423C99.7164 44.6017 100.093 44.7 100.477 44.7104C100.744 44.7166 100.968 44.4764 101.237 44.539C101.573 44.6173 101.719 44.9376 102.017 45.0748Z" fill="#2F2E41"/>
<path opacity="0.1" d="M128.195 65.1578L132.776 62.6807C132.776 62.6807 143.911 89.2923 141.233 96.653C138.555 104.014 128.265 119.16 128.265 119.16C128.265 119.16 120.09 117.461 120.936 115.762C121.781 114.064 127.278 103.164 127.701 101.749C128.124 100.333 130.943 91.1325 129.675 90.1417C128.406 89.1508 125.939 66.1487 125.939 66.1487L128.195 65.1578Z" fill="black"/>
<path d="M128.124 61.1235L133.762 62.6806C133.762 62.6806 144.897 89.2923 142.219 96.653C139.541 104.014 129.252 119.16 129.252 119.16C129.252 119.16 121.077 117.461 121.922 115.762C122.768 114.064 128.265 103.164 128.688 101.749C129.111 100.333 131.93 91.1325 130.661 90.1416C129.393 89.1507 123.332 64.6623 123.332 64.6623L128.124 61.1235Z" fill="#575A89"/>
<path d="M189.02 83.4741C189.02 106.592 156.825 125.332 117.111 125.332C77.397 125.332 45.2023 106.592 45.2023 83.4741" stroke="#3F3D56" stroke-width="2" stroke-miterlimit="10"/>
<path d="M175.94 125.926C159.866 134.632 138.894 139.9 115.951 139.9C93.9544 139.9 73.768 135.057 57.9745 126.985" stroke="#3F3D56" stroke-width="2" stroke-miterlimit="10"/>
<path d="M153.022 32.7422C183.611 40.8166 205.397 58.5774 207.423 79.4957" stroke="#3F3D56" stroke-width="2" stroke-miterlimit="10"/>
<path d="M28.7401 65.8989C33.8942 56.3854 43.31 48.0131 55.6465 41.5811" stroke="#3F3D56" stroke-width="2" stroke-miterlimit="10"/>
<path d="M91.9785 167.737H150.48C162.051 148.153 162.051 128.57 150.48 108.986H91.9785C108.157 128.57 108.157 148.153 91.9785 167.737Z" fill="#F2F2F2"/>
<path d="M144.301 120.177H111.335V124.373H144.301V120.177Z" fill="#447ACC"/>
<path d="M152.426 132.766H108.782V134.165H152.426V132.766Z" fill="white"/>
<path d="M152.426 139.994H108.782V141.393H152.426V139.994Z" fill="white"/>
<path d="M67.1796 127.86H8.67807C-2.89269 108.276 -2.89269 88.6921 8.67807 69.1084H67.1796C51.001 88.6921 51.001 108.276 67.1796 127.86Z" fill="#F2F2F2"/>
<path d="M48.1434 76.1025H15.1783V80.299H48.1434V76.1025Z" fill="#447ACC"/>
<path d="M51.6257 87.7598H7.98163V89.1586H51.6257V87.7598Z" fill="white"/>
<path d="M51.6257 94.9868H7.98163V96.3857H51.6257V94.9868Z" fill="white"/>
<path d="M51.6257 102.214H7.98163V103.613H51.6257V102.214Z" fill="white"/>
<path d="M51.6257 109.441H7.98163V110.84H51.6257V109.441Z" fill="white"/>
<path d="M162.82 100.797H221.322C232.893 81.2129 232.893 61.6292 221.322 42.0454H162.82C178.999 61.6292 178.999 81.2129 162.82 100.797Z" fill="#F2F2F2"/>
<path d="M214.446 47.874H181.481V52.0705H214.446V47.874Z" fill="#447ACC"/>
<path d="M221.643 59.5308H177.999V60.9296H221.643V59.5308Z" fill="white"/>
</g>
<defs>
<clipPath id="clip0">
<rect width="230" height="241" fill="white" transform="translate(0 0.17041)"/>
</clipPath>
</defs>
</svg>
