<svg width="269" height="173" viewBox="0 0 269 173" fill="none" xmlns="http://www.w3.org/2000/svg">
<path opacity="0.5" d="M48.5001 170.5C67.3342 170.5 90.5001 167.528 90.5001 164.5C90.5001 161.472 71.3342 155 52.5001 155C33.6659 155 2.52557 164.49 2.52557 167.518C2.52557 170.546 29.6659 170.5 48.5001 170.5Z" fill="#5B778D"/>
<path d="M117.748 7H26.8128C23.6025 7 21.0001 9.60734 21.0001 12.8237V62.3701C21.0001 65.5865 23.6025 68.1938 26.8128 68.1938H117.748C120.959 68.1938 123.561 65.5865 123.561 62.3701V12.8237C123.561 9.60734 120.959 7 117.748 7Z" fill="#5C9EFF"/>
<path d="M251.748 56H160.813C157.602 56 155 58.6073 155 61.8237V111.37C155 114.586 157.602 117.194 160.813 117.194H251.748C254.959 117.194 257.561 114.586 257.561 111.37V61.8237C257.561 58.6073 254.959 56 251.748 56Z" fill="#FB4F6E"/>
<path d="M65.1504 69.2255C65.1504 69.2255 65.6594 73.0501 64.387 74.5799C63.1145 76.1098 61.0786 86.3087 61.0786 86.3087V92.4281C61.0786 92.4281 68.9678 80.9543 70.4948 76.3647C72.0218 71.7752 70.4948 68.2056 70.4948 68.2056L65.1504 69.2255Z" fill="#FFC1C7"/>
<path d="M64.3869 50.3574L64.4945 50.4786C65.8087 51.9594 66.8401 53.6695 67.5372 55.5238C69.208 59.9687 72.7992 70.9255 71.5127 72.0302C69.7313 73.5601 64.6414 74.58 64.3869 74.325C64.1324 74.07 59.0425 58.2616 59.0425 58.2616L64.3869 50.3574Z" fill="#3F3D56"/>
<path d="M56.1159 158.721C56.1159 158.721 62.2237 159.996 62.4782 158.721C62.641 157.929 62.8972 157.159 63.2417 156.427C63.2417 156.427 68.7776 156.658 67.3323 161.52C67.1874 161.999 66.871 162.408 66.4438 162.668C65.1254 163.476 62.0198 165.383 60.4423 166.371C59.2565 167.113 57.5528 166.558 56.3367 165.966C55.9008 165.752 55.5481 165.399 55.3335 164.963C55.119 164.526 55.0548 164.031 55.151 163.555L56.1159 158.721Z" fill="#3F3D56"/>
<path d="M38.5558 159.486C38.5558 159.486 32.4479 160.761 32.1935 159.486C32.0307 158.694 31.7744 157.924 31.43 157.192C31.43 157.192 25.9046 157.422 27.3352 162.271C27.4822 162.76 27.8045 163.176 28.24 163.441C29.5652 164.253 32.6566 166.151 34.2294 167.136C35.5279 167.949 37.4476 167.206 38.6678 166.561C39.0068 166.384 39.2794 166.102 39.4449 165.756C39.6103 165.411 39.6597 165.021 39.5856 164.645L38.5558 159.486Z" fill="#3F3D56"/>
<path d="M30.921 72.5402C30.921 72.5402 30.412 76.3648 31.6844 77.8946C32.9569 79.4245 34.9929 85.2889 34.9929 85.2889V91.4082C34.9929 91.4082 27.1036 84.269 25.5766 79.6794C24.0496 75.0899 25.5766 71.5203 25.5766 71.5203L30.921 72.5402Z" fill="#FFC1C7"/>
<path d="M48.7356 41.1783C52.2494 41.1783 55.0979 38.3244 55.0979 34.8039C55.0979 31.2835 52.2494 28.4296 48.7356 28.4296C45.2217 28.4296 42.3732 31.2835 42.3732 34.8039C42.3732 38.3244 45.2217 41.1783 48.7356 41.1783Z" fill="#FFC1C7"/>
<path d="M53.8255 37.3538C53.8255 37.3538 52.044 45.5129 53.8255 46.5328C55.6069 47.5527 43.1367 46.5328 43.1367 46.5328C43.1367 46.5328 45.9362 39.6485 44.6637 37.3538C43.3912 35.059 53.8255 37.3538 53.8255 37.3538Z" fill="#FFC1C7"/>
<path d="M59.9333 91.6633C59.9333 91.6633 62.2237 94.978 61.4602 105.177C60.6968 115.376 59.9333 126.085 59.9333 126.085C59.9333 126.085 65.5322 158.212 63.7507 158.976C61.9692 159.741 56.1159 160.506 55.3524 159.741C54.5889 158.976 51.026 129.144 51.026 129.144L47.7176 104.667L42.6277 132.714C42.6277 132.714 39.8283 159.996 37.7923 161.271C36.3369 162.183 33.4508 161.53 31.9233 161.084C31.6369 161.002 31.3864 160.825 31.2122 160.583C31.0379 160.341 30.9501 160.047 30.9627 159.748C31.1492 155.458 31.9869 138.526 33.9749 128.125C36.2654 116.141 31.6845 92.1732 35.7564 91.6633C39.8283 91.1533 59.9333 91.6633 59.9333 91.6633Z" fill="#2F2E41"/>
<path d="M42.1187 45.5129C42.1187 45.5129 43.1367 40.9234 46.9541 41.4334C50.7715 41.9433 53.3164 41.6883 54.0799 44.2381C54.8434 46.7878 62.9872 48.8276 62.9872 48.8276C62.9872 48.8276 65.0232 49.0826 64.7687 52.3972C64.5142 55.7119 59.4243 67.9507 59.4243 67.9507C59.4243 67.9507 59.6788 78.1496 60.9513 82.7392C62.2237 87.3287 62.2237 92.9381 59.4243 94.213C56.6249 95.4879 39.0648 100.077 34.9929 94.468C34.9929 94.468 32.7024 86.3088 34.2294 82.9941C35.7564 79.6795 33.9749 66.6758 33.9749 66.6758L29.1395 55.9669C29.1395 55.9669 30.6665 50.8674 34.9929 49.3376C37.5533 48.4441 39.9578 47.1535 42.1187 45.5129Z" fill="#3F3D56"/>
<path d="M31.1755 53.6721L29.1395 55.9669C29.1395 55.9669 23.0317 71.0104 24.8132 72.5402C26.5946 74.0701 31.6845 75.09 31.939 74.835C32.1935 74.58 36.5199 61.5763 36.5199 61.5763L31.1755 53.6721Z" fill="#3F3D56"/>
<path d="M56.1159 30.9794C56.1159 30.9794 55.098 31.7443 54.8435 33.5291C54.589 35.314 53.0262 32.5122 52.6624 36.2078C52.2985 39.9035 46.1907 42.4532 43.9002 40.6684C41.6098 38.8836 37.7924 27.6647 43.1368 25.8799C48.4811 24.0951 53.8255 24.3501 54.8435 26.1349C55.8614 27.9197 56.1159 30.9794 56.1159 30.9794Z" fill="#2F2E41"/>
<path opacity="0.1" d="M51.1354 36.2078C51.4992 32.5121 53.062 35.3139 53.3165 33.5291C53.571 31.7443 54.589 30.9794 54.589 30.9794C54.589 30.9794 54.3345 27.9197 53.3165 26.1349C52.8294 25.2809 51.3506 24.7782 49.3565 24.6806C52.1075 24.5543 54.2388 25.0747 54.8435 26.1349C55.8614 27.9197 56.1159 30.9794 56.1159 30.9794C56.1159 30.9794 55.0979 31.7443 54.8435 33.5291C54.589 35.3139 53.0262 32.5121 52.6624 36.2078C52.3539 39.3409 47.9178 41.6491 45.1786 41.1921C47.7891 40.8329 50.8797 38.8045 51.1354 36.2078Z" fill="black"/>
<path d="M72 25C64.824 25 59 30.824 59 38C59 45.176 64.824 51 72 51C79.176 51 85 45.176 85 38C85 30.824 79.176 25 72 25ZM72 48.4C66.267 48.4 61.6 43.733 61.6 38C61.6 32.267 66.267 27.6 72 27.6C77.733 27.6 82.4 32.267 82.4 38C82.4 43.733 77.733 48.4 72 48.4Z" fill="#3D73C3"/>
<path d="M66.5986 43.2161L64.2045 37.2122V34.8516H69.5652L68.8886 31.3385L69.9469 30.2046L74.6136 35.2047V43.2161H66.5986Z" fill="#3D73C3"/>
<rect width="2.60229" height="7.80688" transform="matrix(1 0 0 -1 75.9148 43.2161)" fill="#3D73C3"/>
<path d="M207 74C199.824 74 194 79.824 194 87C194 94.176 199.824 100 207 100C214.176 100 220 94.176 220 87C220 79.824 214.176 74 207 74ZM207 97.4C201.267 97.4 196.6 92.733 196.6 87C196.6 81.267 201.267 76.6 207 76.6C212.733 76.6 217.4 81.267 217.4 87C217.4 92.733 212.733 97.4 207 97.4Z" fill="#BA2A44"/>
<path d="M201.659 81.5836L199.417 87.5822V89.9408H204.438L203.804 93.4508L204.795 94.5836L209.167 89.5879V81.5836H201.659Z" fill="#BA2A44"/>
<rect x="211.333" y="81.5836" width="2.16667" height="7.58333" fill="#BA2A44"/>
</svg>
