<?xml version="1.0" standalone="no"?>
<!DOCTYPE svg PUBLIC "-//W3C//DTD SVG 1.1//EN" "http://www.w3.org/Graphics/SVG/1.1/DTD/svg11.dtd" >
<svg>
<metadata>
Created by FontForge 20090622 at Fri Oct  9 03:59:30 2015
 By deploy user
Digitised data (c) 2004 Monotype Imaging. All Rights Reserved. Neo Sans is designed by Sebastian Lester.
</metadata>
<defs>
<font id="NeoSansPro-Medium" horiz-adv-x="630" >
  <font-face 
    font-family="Neo Sans Pro Medium"
    font-weight="500"
    font-stretch="normal"
    units-per-em="1000"
    panose-1="2 11 7 4 3 5 4 4 2 4"
    ascent="765"
    descent="-235"
    x-height="564"
    cap-height="743"
    bbox="-73 -216 1475 1000"
    underline-thickness="71"
    underline-position="-8"
    unicode-range="U+0020-U+FB04"
  />
<missing-glyph horiz-adv-x="500" 
d="M12 665h475v-665h-475v665zM250 375l161 243h-323zM60 91l7 10l18 27l25.5 39l29.5 45l81 121l-161 242v-484zM278 333l162 -243v485zM250 290l-162 -242h323z" />
    <glyph glyph-name="fi" unicode="fi" horiz-adv-x="657" 
d="M375 690q0 -9 -5 -13t-10 -4h-45q-36 0 -47.5 -11.5t-11.5 -48.5v-49h313q8 0 14 -6t6 -14v-523q0 -8 -6 -14.5t-14 -6.5h-92q-8 0 -14 6.5t-6 14.5v444h-201v-444q0 -8 -6 -14.5t-14 -6.5h-91q-8 0 -14.5 6.5t-6.5 14.5v444l-89 14q-8 2 -14 6.5t-6 12.5v46q0 8 6 14
t14 6h89v49q0 48 12.5 79t35 49t54.5 25t71 7q18 0 32 -2.5t28 -5.5q6 -2 12 -5.5t6 -10.5v-59zM592 659q0 -8 -6 -14t-14 -6h-97q-8 0 -14.5 6t-6.5 14v88q0 8 6.5 14t14.5 6h97q8 0 14 -6t6 -14v-88z" />
    <glyph glyph-name="fl" unicode="fl" horiz-adv-x="659" 
d="M589 21q0 -8 -5.5 -14.5t-13.5 -6.5h-93q-8 0 -14 6.5t-6 14.5v652h-112q-30 0 -47.5 -2.5t-26.5 -9t-12 -18.5t-3 -30v-49h96q8 0 14 -6t6 -14v-60q0 -8 -6 -13.5t-14 -5.5h-96v-444q0 -8 -6 -14.5t-14 -6.5h-91q-8 0 -14.5 6.5t-6.5 14.5v444l-89 14q-8 2 -14 6.5
t-6 12.5v46q0 8 6 14t14 6h89v49q0 48 10.5 79t34 49t62.5 25t96 7q9 0 32.5 -1t49 -2.5t48 -3.5t29.5 -5h84q8 0 13.5 -6t5.5 -14v-720v0z" />
    <glyph glyph-name="f_f" unicode="ff" horiz-adv-x="728" 
d="M708 690q0 -9 -5 -13t-10 -4h-45q-36 0 -47.5 -11.5t-11.5 -48.5v-49h96q8 0 14 -6t6 -14v-60q0 -8 -6 -13.5t-14 -5.5h-96v-444q0 -8 -6 -14.5t-14 -6.5h-91q-8 0 -14.5 6.5t-6.5 14.5v444h-201v-444q0 -8 -6 -14.5t-14 -6.5h-91q-8 0 -14.5 6.5t-6.5 14.5v444l-89 14
q-8 2 -14 6.5t-6 12.5v46q0 8 6 14t14 6h89v49q0 48 12.5 79t35 49t54.5 25t71 7q18 0 32 -2.5t28 -5.5q6 -2 12 -5.5t6 -10.5v-59q0 -9 -5 -13t-10 -4h-45q-36 0 -47.5 -11.5t-11.5 -48.5v-49h201v49q0 48 12.5 79t35 49t54.5 25t71 7q18 0 32 -2.5t28 -5.5q6 -2 12 -5.5
t6 -10.5v-59v0z" />
    <glyph glyph-name="f_f_i" unicode="ffi" horiz-adv-x="1001" 
d="M933 21q0 -8 -6 -14.5t-14 -6.5h-92q-8 0 -14 6.5t-6 14.5v444h-207v-444q0 -8 -6 -14.5t-14 -6.5h-91q-8 0 -14.5 6.5t-6.5 14.5v444h-206v-444q0 -8 -6 -14.5t-14 -6.5h-91q-8 0 -14.5 6.5t-6.5 14.5v444l-89 14q-8 2 -14 6.5t-6 12.5v46q0 8 6 14t14 6h89v49
q0 48 12.5 79t35 49t54.5 25t71 7q18 0 32 -2.5t28 -5.5q6 -2 12 -5.5t6 -10.5v-59q0 -9 -5 -13t-10 -4h-45q-36 0 -47.5 -11.5t-11.5 -48.5v-49h206v49q0 48 12.5 79t35 49t54.5 25t71 7q18 0 32 -2.5t28 -5.5q6 -2 12 -5.5t6 -10.5v-59q0 -9 -5 -13t-10 -4h-45
q-36 0 -47.5 -11.5t-11.5 -48.5v-49h319q8 0 14 -6t6 -14v-523zM936 659q0 -8 -6 -14t-14 -6h-97q-8 0 -14.5 6t-6.5 14v88q0 8 6.5 14t14.5 6h97q8 0 14 -6t6 -14v-88z" />
    <glyph glyph-name="f_f_l" unicode="ffl" horiz-adv-x="997" 
d="M462 613q0 48 10.5 79t34 49t62.5 25t96 7q9 0 32.5 -1t49 -2.5t48 -3.5t29.5 -5h84q8 0 13.5 -6t5.5 -14v-720q0 -8 -5.5 -14.5t-13.5 -6.5h-93q-8 0 -14 6.5t-6 14.5v652h-112q-30 0 -47.5 -2.5t-26.5 -9t-12 -18.5t-3 -30v-49h96q8 0 14 -6t6 -14v-60q0 -8 -6 -13.5
t-14 -5.5h-96v-444q0 -8 -6 -14.5t-14 -6.5h-91q-8 0 -14.5 6.5t-6.5 14.5v444h-206v-444q0 -8 -6 -14.5t-14 -6.5h-91q-8 0 -14.5 6.5t-6.5 14.5v444l-89 14q-8 2 -14 6.5t-6 12.5v46q0 8 6 14t14 6h89v49q0 48 12.5 79t35 49t54.5 25t71 7q18 0 32 -2.5t28 -5.5
q6 -2 12 -5.5t6 -10.5v-59q0 -9 -5 -13t-10 -4h-45q-36 0 -47.5 -11.5t-11.5 -48.5v-49h206v49z" />
    <glyph glyph-name="f_b" unicode="fb" horiz-adv-x="972" 
d="M795 320q0 31 -4.5 57t-16.5 45t-33 30t-53 11q-18 0 -46.5 -2t-49.5 -5v-349q14 -3 41.5 -5t54.5 -2q32 0 53 11t33 30t16.5 45t4.5 57v77zM592 564q28 4 53 5.5t43 1.5q121 0 180 -66.5t59 -184.5v-77q0 -118 -59 -184.5t-180 -66.5q-48 0 -101 7t-100 19
q-17 5 -22 10.5t-5 16.5v628h-115q-30 0 -47.5 -2.5t-26.5 -9t-12 -18.5t-3 -30v-49h96q8 0 14 -6t6 -14v-60q0 -8 -6 -13.5t-14 -5.5h-96v-444q0 -8 -6 -14.5t-14 -6.5h-91q-8 0 -14.5 6.5t-6.5 14.5v444l-89 14q-8 2 -14 6.5t-6 12.5v46q0 8 6 14t14 6h89v49q0 48 10.5 79
t34 49t62.5 25t96 7q9 0 33 -1t50 -2.5t49 -3.5t30 -5h84q8 0 13.5 -6t5.5 -14v-177z" />
    <glyph glyph-name="f_f_b" unicode="ffb" horiz-adv-x="1310" 
d="M1134 320q0 31 -4.5 57t-16.5 45t-33 30t-53 11q-18 0 -46.5 -2t-49.5 -5v-349q14 -3 41.5 -5t54.5 -2q32 0 53 11t33 30t16.5 45t4.5 57v77zM256 465v-444q0 -8 -6 -14.5t-14 -6.5h-91q-8 0 -14.5 6.5t-6.5 14.5v444l-89 14q-8 2 -14 6.5t-6 12.5v46q0 8 6 14t14 6h89
v49q0 48 12 79t34 49t52 25t65 7q20 0 38 -2.5t32 -5.5q11 -3 14.5 -6t3.5 -10v-59q0 -9 -5 -13t-10 -4h-45q-36 0 -47.5 -11.5t-11.5 -48.5v-49h207v49q0 48 10.5 79t34 49t62.5 25t96 7q9 0 33 -1t50 -2.5t49 -3.5t30 -5h84q8 0 13.5 -6t5.5 -14v-177q28 4 53 5.5t43 1.5
q121 0 180 -66.5t59 -184.5v-77q0 -118 -59 -184.5t-180 -66.5q-48 0 -101 7t-100 19q-17 5 -22 10.5t-5 16.5v628h-115q-30 0 -47.5 -2.5t-26.5 -9t-12 -18.5t-3 -30v-49h96q8 0 14 -6t6 -14v-60q0 -8 -6 -13.5t-14 -5.5h-96v-444q0 -8 -6 -14.5t-14 -6.5h-91
q-8 0 -14.5 6.5t-7.5 14.5v444h-206z" />
    <glyph glyph-name="f_f_h" unicode="ffh" horiz-adv-x="1325" 
d="M256 465v-444q0 -8 -6 -14.5t-14 -6.5h-91q-8 0 -14.5 6.5t-6.5 14.5v444l-89 14q-8 2 -14 6.5t-6 12.5v46q0 8 6 14t14 6h89v49q0 48 12 79t34 49t52 25t65 7q20 0 38 -2.5t32 -5.5q11 -3 14.5 -6t3.5 -10v-59q0 -9 -5 -13t-10 -4h-45q-36 0 -47.5 -11.5t-11.5 -48.5
v-49h207v49q0 48 10.5 79t34 49t62.5 25t96 7q9 0 33 -1t50 -2.5t49 -3.5t30 -5h83q8 0 13.5 -6t5.5 -14v-207q29 17 63 27t88 10q52 0 86.5 -17t55 -47t29 -70.5t8.5 -86.5v-329q0 -8 -6 -14.5t-14 -6.5h-92q-8 0 -14 6.5t-6 14.5v329q0 33 -3.5 54t-12.5 33t-25 17t-41 5
q-51 0 -116 -34v-404q0 -8 -6 -14.5t-14 -6.5h-93q-8 0 -13.5 6.5t-5.5 14.5v652h-114q-30 0 -47.5 -2.5t-27 -9t-12.5 -18.5t-3 -30v-49h96q8 0 14 -6t6 -14v-60q0 -8 -6 -13.5t-14 -5.5h-96v-444q0 -8 -6 -14.5t-14 -6.5h-91q-8 0 -14.5 6.5t-6.5 14.5v444h-206z" />
    <glyph glyph-name="f_f_k" unicode="ffk" horiz-adv-x="1282" 
d="M256 465v-444q0 -8 -6 -14.5t-14 -6.5h-91q-8 0 -14.5 6.5t-6.5 14.5v444l-89 14q-8 2 -14 6.5t-6 12.5v46q0 8 6 14t14 6h89v49q0 48 12.5 79t35 49t54.5 25t71 7q18 0 32 -2.5t28 -5.5q6 -2 12 -5.5t6 -10.5v-59q0 -9 -5 -13t-10 -4h-45q-36 0 -47.5 -11.5t-11.5 -48.5
v-49h207v49q0 48 10.5 79t34 49t62.5 25t96 7q9 0 33 -1t50 -2.5t49 -3.5t30 -5h83q8 0 13.5 -6t5.5 -14v-417l171 228q5 7 11.5 9.5t11.5 2.5h112q15 0 15 -11q0 -5 -4 -10l-201 -247l203 -276q3 -5 3 -8q0 -5 -4 -8.5t-10 -3.5h-122q-8 0 -16 6.5t-13 13.5l-157 228v-227
q0 -8 -6 -14.5t-14 -6.5h-92q-8 0 -14 6.5t-6 14.5v652h-114q-30 0 -47.5 -2.5t-27 -9t-12.5 -18.5t-3 -30v-49h96q8 0 14 -6t6 -14v-60q0 -8 -6 -13.5t-14 -5.5h-96v-444q0 -8 -6 -14.5t-14 -6.5h-91q-8 0 -14.5 6.5t-6.5 14.5v444h-206z" />
    <glyph glyph-name="f_h" unicode="fh" horiz-adv-x="987" 
d="M592 534q29 17 63 27t88 10q52 0 86.5 -17t55 -47t29 -70.5t8.5 -86.5v-329q0 -8 -6 -14.5t-14 -6.5h-92q-8 0 -14 6.5t-6 14.5v329q0 33 -3.5 54t-12.5 33t-25 17t-41 5q-51 0 -116 -34v-404q0 -8 -6 -14.5t-14 -6.5h-93q-8 0 -13.5 6.5t-5.5 14.5v652h-114
q-30 0 -47.5 -2.5t-27 -9t-12.5 -18.5t-3 -30v-49h96q8 0 14 -6t6 -14v-60q0 -8 -6 -13.5t-14 -5.5h-96v-444q0 -8 -6 -14.5t-14 -6.5h-91q-8 0 -14.5 6.5t-6.5 14.5v444l-89 14q-8 2 -14 6.5t-6 12.5v46q0 8 6 14t14 6h90v49q0 48 10.5 79t34 49t62.5 25t96 7q9 0 33 -1
t50 -2.5t49 -3.5t30 -5h83q8 0 13.5 -6t5.5 -14v-207z" />
    <glyph glyph-name="f_j" unicode="fj" horiz-adv-x="663" 
d="M595 -42q0 -46 -10 -76.5t-29 -48.5t-46.5 -25.5t-62.5 -7.5q-17 0 -32.5 1.5t-33.5 4.5q-19 3 -19 18v65q0 16 21 16h45q24 0 29.5 11.5t5.5 41.5v507h-207v-444q0 -8 -6 -14.5t-14 -6.5h-91q-8 0 -14.5 6.5t-6.5 14.5v444l-89 14q-8 2 -14 6.5t-6 12.5v46q0 8 6 14
t14 6h89v49q0 48 12.5 79t35 49t54.5 25t71 7q18 0 32 -2.5t28 -5.5q6 -2 12 -5.5t6 -10.5v-59q0 -9 -5 -13t-10 -4h-45q-36 0 -47.5 -11.5t-11.5 -48.5v-49h319q8 0 14 -6t6 -14v-586zM598 659q0 -8 -6.5 -14t-14.5 -6h-96q-8 0 -14 6t-6 14v88q0 8 6 14t14 6h96
q8 0 14.5 -6t6.5 -14v-88z" />
    <glyph glyph-name="f_f_j" unicode="ffj" horiz-adv-x="1001" 
d="M933 -42q0 -46 -10 -76.5t-29 -48.5t-46.5 -25.5t-62.5 -7.5q-17 0 -32.5 1.5t-33.5 4.5q-19 3 -19 18v65q0 16 21 16h45q24 0 29.5 11.5t5.5 41.5v507h-207v-444q0 -8 -6 -14.5t-14 -6.5h-91q-8 0 -14.5 6.5t-6.5 14.5v444h-206v-444q0 -8 -6 -14.5t-14 -6.5h-91
q-8 0 -14.5 6.5t-6.5 14.5v444l-89 14q-8 2 -14 6.5t-6 12.5v46q0 8 6 14t14 6h89v49q0 48 12.5 79t35 49t54.5 25t71 7q18 0 32 -2.5t28 -5.5q6 -2 12 -5.5t6 -10.5v-59q0 -9 -5 -13t-10 -4h-45q-36 0 -47.5 -11.5t-11.5 -48.5v-49h206v49q0 48 12.5 79t35 49t54.5 25t71 7
q18 0 32 -2.5t28 -5.5q6 -2 12 -5.5t6 -10.5v-59q0 -9 -5 -13t-10 -4h-45q-36 0 -47.5 -11.5t-11.5 -48.5v-49h319q8 0 14 -6t6 -14v-586zM936 659q0 -8 -6.5 -14t-14.5 -6h-96q-8 0 -14 6t-6 14v88q0 8 6 14t14 6h96q8 0 14.5 -6t6.5 -14v-88z" />
    <glyph glyph-name="f_k" unicode="fk" horiz-adv-x="944" 
d="M592 324l171 228q5 7 11.5 9.5t11.5 2.5h112q15 0 15 -11q0 -5 -4 -10l-201 -247l203 -276q3 -5 3 -8q0 -5 -4 -8.5t-10 -3.5h-122q-8 0 -16 6.5t-13 13.5l-157 228v-227q0 -8 -6 -14.5t-14 -6.5h-92q-8 0 -14 6.5t-6 14.5v652h-114q-30 0 -47.5 -2.5t-27 -9t-12.5 -18.5
t-3 -30v-49h96q8 0 14 -6t6 -14v-60q0 -8 -6 -13.5t-14 -5.5h-96v-444q0 -8 -6 -14.5t-14 -6.5h-91q-8 0 -14.5 6.5t-6.5 14.5v444l-89 14q-8 2 -14 6.5t-6 12.5v46q0 8 6 14t14 6h90v49q0 48 10.5 79t34 49t62.5 25t96 7q9 0 33 -1t50 -2.5t49 -3.5t30 -5h83q8 0 13.5 -6
t5.5 -14v-417z" />
    <glyph glyph-name=".notdef" horiz-adv-x="500" 
d="M12 665h475v-665h-475v665zM250 375l161 243h-323zM60 91l7 10l18 27l25.5 39l29.5 45l81 121l-161 242v-484zM278 333l162 -243v485zM250 290l-162 -242h323z" />
    <glyph glyph-name=".null" horiz-adv-x="0" 
 />
    <glyph glyph-name="nonmarkingreturn" horiz-adv-x="250" 
 />
    <glyph glyph-name="space" unicode=" " horiz-adv-x="250" 
 />
    <glyph glyph-name="numbersign" unicode="#" horiz-adv-x="684" 
d="M634 524l-5 -45q-1 -8 -6.5 -14t-13.5 -6h-13t-23 -0.5t-27.5 -0.5h-25.5l-16 -177h85q8 0 14 -5t6 -13v-2l-5 -46q-1 -8 -6.5 -14t-13.5 -6h-88l-15 -176q-1 -8 -5.5 -13.5t-12.5 -5.5h-79q-8 0 -12 5t-4 12v2l15 176h-130l-15 -176q-1 -8 -5.5 -13.5t-12.5 -5.5h-80
q-7 0 -11.5 5t-4.5 12v2l15 176h-83q-8 0 -14 5t-6 13v2l5 46q1 8 6.5 14t13.5 6h86l16 177l-81 1q-8 0 -14 5t-6 13v2l5 45q1 8 6.5 14t13.5 6h83l16 180q1 8 6 13.5t13 5.5h80q7 0 11 -5t4 -12v-2l-16 -180h130l16 180q1 8 6 13.5t13 5.5h79q8 0 11.5 -5t3.5 -12v-2
l-16 -180h87q8 0 14 -5t6 -13v-2zM277 458l-16 -177h130l16 177h-130z" />
    <glyph glyph-name="dollar" unicode="$" 
d="M555 201q0 -32 -9 -64t-30 -59.5t-55.5 -48t-84.5 -30.5v-91q0 -8 -6 -14t-14 -6h-91q-8 0 -14 6t-6 14v85q-39 2 -70.5 6.5t-59.5 10.5q-8 2 -13.5 7t-5.5 13v72q0 8 5.5 13.5t13.5 5.5h2q15 -2 39.5 -3.5l50.5 -3t49.5 -2.5t37.5 -1q67 0 91.5 23t24.5 67q0 15 -4 26.5
t-14 22.5t-26 22.5t-41 26.5l-132 79q-35 21 -57.5 42t-36 43.5t-19 47t-5.5 50.5q0 34 9 64.5t29 54.5t52.5 40.5t79.5 24.5v84q0 8 6 14t14 6h91q8 0 14 -6t6 -14v-80q42 -2 81.5 -6.5t59.5 -9.5q8 -2 13 -6.5t5 -12.5v-74q0 -8 -4.5 -13t-12.5 -5h-2q-50 5 -99 7.5
t-98 2.5q-56 0 -80.5 -18.5t-24.5 -52.5q0 -12 3.5 -22.5t13 -21t25.5 -21.5t40 -24l120 -67q41 -23 68 -46.5t42.5 -48.5t22 -52t6.5 -57z" />
    <glyph glyph-name="percent" unicode="%" horiz-adv-x="811" 
d="M772 162q0 -86 -37 -127t-105 -41t-105.5 41t-37.5 127v82q0 86 37.5 127t105.5 41t105 -41t37 -127v-82zM674 735q0 -5 -4 -12l-417 -705q-6 -11 -10.5 -16t-12.5 -5h-84q-10 0 -10 9q0 7 4 12l417 705q7 11 11.5 15.5t12.5 4.5h84q9 0 9 -8zM325 499q0 -86 -37 -127
t-105 -41t-105.5 41t-37.5 127v82q0 86 37.5 126.5t105.5 40.5t105 -40.5t37 -126.5v-82zM687 244q0 53 -15 73t-42 20t-42.5 -20t-15.5 -73v-82q0 -53 15.5 -73t42.5 -20t42 20t15 73v82zM240 581q0 53 -15 73t-42 20t-42.5 -20t-15.5 -73v-82q0 -54 15.5 -74t42.5 -20
t42 20t15 74v82z" />
    <glyph glyph-name="ampersand" unicode="&#x26;" horiz-adv-x="718" 
d="M687 11q0 -11 -11 -11h-112q-5 0 -8.5 1.5t-8.5 6.5l-37 39q-38 -26 -85.5 -40.5t-104.5 -14.5q-54 0 -102 10.5t-84.5 34t-57.5 60t-21 87.5v10q0 31 9 57.5t26.5 49t43 43t58.5 40.5l-7 8q-32 37 -51 64t-28.5 48.5t-12.5 38.5t-3 34v9q0 74 57 119.5t171 45.5
q100 0 157.5 -45t57.5 -120v-9q0 -36 -12.5 -65t-33.5 -53t-47.5 -44t-54.5 -37l-24 -15l150 -160q14 31 20 67t6 76v12q0 8 4.5 14t12.5 6h73q8 0 13 -6t5 -14v-12q0 -64 -15 -120t-45 -101l98 -104q4 -4 4 -10zM414 586q0 34 -24 52.5t-72 18.5q-51 0 -80.5 -18t-29.5 -53
v-9q0 -12 1.5 -23.5t8 -25.5t20.5 -33t40 -44l9 -9l30 18q28 17 46.5 30.5t30 27t16 27.5t4.5 32v9zM266 306q-45 -27 -59.5 -52t-14.5 -60v-10q0 -48 36.5 -71t91.5 -23q38 0 68 8t53 22z" />
    <glyph glyph-name="quoteright" unicode="&#x2019;" horiz-adv-x="215" 
d="M196 750q0 -5 -1 -8l-68 -207q-5 -19 -19 -19h-80q-9 0 -9 10q0 6 1 9l51 207q4 19 20 19h94q11 0 11 -11z" />
    <glyph glyph-name="parenleft" unicode="(" horiz-adv-x="333" 
d="M303 -185q0 -10 -12 -10h-71q-11 0 -19.5 3t-14.5 11q-32 45 -56.5 92.5t-41 101.5t-25 116t-8.5 135v19q0 145 33.5 251t97.5 195q6 8 14.5 11t19.5 3h71q12 0 12 -10q0 -8 -5 -16q-21 -38 -40.5 -83.5t-34.5 -99.5t-24 -116.5t-9 -134.5v-19q0 -72 9 -134.5t24 -116
t34.5 -99t40.5 -83.5q5 -8 5 -16z" />
    <glyph glyph-name="parenright" unicode=")" horiz-adv-x="333" 
d="M278 264q0 -73 -8.5 -135t-25 -116t-41 -101.5t-56.5 -92.5q-6 -8 -14.5 -11t-19.5 -3h-71q-12 0 -12 10q0 8 5 16q21 38 40.5 83.5t34.5 99t24 116t9 134.5v19q0 72 -9 134.5t-24 116.5t-34.5 99.5t-40.5 83.5q-5 8 -5 16q0 10 12 10h71q11 0 19.5 -3t14.5 -11
q64 -89 97.5 -195t33.5 -251v-19v0z" />
    <glyph glyph-name="asterisk" unicode="*" horiz-adv-x="473" 
d="M435 583q0 -11 -15 -16l-119 -36l74 -101q5 -7 5 -14t-6 -11l-41 -30q-5 -3 -9 -3q-8 0 -15 10l-72 102l-72 -102q-7 -10 -15 -10q-5 0 -9 3l-42 30q-6 4 -6 11t5 14l75 101l-118 36q-16 5 -16 16q0 3 1 5l16 49q3 10 13 10q4 0 10 -2l119 -39l-2 125q0 8 3.5 13.5
t11.5 5.5h52q8 0 11.5 -6t3.5 -14l-1 -124l118 39q6 2 10 2q10 0 13 -10l16 -49q1 -2 1 -5z" />
    <glyph glyph-name="plus" unicode="+" 
d="M548 356q0 -8 -6 -12t-14 -4h-162v-161q0 -8 -4 -14t-12 -6h-70q-8 0 -12 6t-4 14v161h-161q-8 0 -14 4t-6 12v70q0 8 6 12t14 4h161v162q0 8 4 14t12 6h70q8 0 12 -6t4 -14v-162h162q8 0 14 -4t6 -12v-70v0z" />
    <glyph glyph-name="comma" unicode="," horiz-adv-x="259" 
d="M203 140q0 -1 -2 -7l-87 -210q-4 -9 -7.5 -14.5t-11.5 -5.5h-69q-15 0 -15 14q0 4 1 6l61 210q6 19 20 19h96q14 0 14 -12z" />
    <glyph glyph-name="hyphen" unicode="-" horiz-adv-x="321" 
d="M278 276q0 -18 -19 -18h-196q-8 0 -14 5t-6 13v63q0 8 6 13.5t14 5.5h196q19 0 19 -19v-63v0z" />
    <glyph glyph-name="period" unicode="." horiz-adv-x="259" 
d="M194 20q0 -8 -6 -14t-14 -6h-89q-8 0 -14 6t-6 14v113q0 8 6 13.5t14 5.5h89q8 0 14 -5.5t6 -13.5v-113v0z" />
    <glyph glyph-name="slash" unicode="/" horiz-adv-x="365" 
d="M234 723q2 8 6.5 14t12.5 6h81q8 0 13 -4.5t2 -15.5l-217 -702q-2 -8 -6.5 -14.5t-12.5 -6.5h-81q-11 0 -14.5 6.5t-1.5 14.5l218 702v0z" />
    <glyph glyph-name="zero" unicode="0" 
d="M576 334q0 -93 -18 -158.5t-52 -106t-82 -59t-109 -18.5t-109.5 18.5t-82 59t-51.5 106t-18 158.5v74q0 93 18 158.5t51.5 106.5t82 59.5t109.5 18.5t109 -18.5t82 -59.5t52 -106.5t18 -158.5v-74zM437 408q0 68 -9.5 112.5t-26 70.5t-38.5 36.5t-48 10.5t-48 -10.5
t-38.5 -36.5t-26 -70.5t-9.5 -112.5v-74q0 -68 9.5 -112t26 -70t38.5 -36.5t48 -10.5t48 10.5t38.5 36.5t26 70t9.5 112v74z" />
    <glyph glyph-name="one" unicode="1" 
d="M129 0q-8 0 -14 6t-6 14v76q0 8 6 13t14 5h134v492l-131 -40q-5 -2 -12 -2q-11 0 -11 12v94q0 8 7 11l177 58q5 2 10 3t13 1h66q19 0 19 -19v-610h134q8 0 14 -5t6 -13v-76q0 -8 -6 -14t-14 -6h-406z" />
    <glyph glyph-name="two" unicode="2" 
d="M553 568q0 -63 -31.5 -107.5t-93.5 -86.5l-90 -60q-71 -47 -106.5 -90.5t-35.5 -105.5v-4h329q8 0 14 -5t6 -13v-76q0 -8 -6 -14t-14 -6h-424q-8 0 -14 6t-6 14v98q0 41 12 79.5t33 72t48.5 61.5t58.5 49l99 66q29 19 47 33t28 26.5t13.5 27t3.5 35.5q0 41 -27 57.5
t-90 16.5q-22 0 -47.5 -1.5t-52 -3.5t-52.5 -4.5t-48 -5.5h-2q-8 0 -13 6t-5 14v60q0 8 5.5 12.5t13.5 6.5q19 5 44 9.5t51.5 8t54 5.5t51.5 2q131 0 188.5 -45t57.5 -138z" />
    <glyph glyph-name="three" unicode="3" 
d="M546 208q0 -56 -19.5 -96.5t-53 -67t-79.5 -39.5t-99 -13q-56 0 -102.5 7t-89.5 18q-8 2 -13.5 6.5t-5.5 12.5v62q0 8 5 13t13 5h2q60 -6 107.5 -10t83.5 -4q61 0 86.5 26.5t25.5 79.5v21q0 20 -3.5 38t-14 32t-28.5 22.5t-46 8.5h-177q-19 0 -19 19v63q0 19 19 19h177
q28 0 46 8t28.5 21.5t14 31t3.5 37.5v16q0 19 -4.5 36.5t-17 30.5t-34.5 21t-56 8q-27 0 -47.5 -1t-41.5 -2.5t-45 -4.5t-57 -6h-2q-8 0 -13 5t-5 13v62q0 8 5.5 12.5t13.5 6.5q43 11 89.5 18t102.5 7q54 0 100 -11t79.5 -35.5t52.5 -63.5t19 -96v-16q0 -53 -22.5 -89.5
t-63.5 -58.5q42 -23 64 -63.5t22 -88.5v-21v0z" />
    <glyph glyph-name="four" unicode="4" 
d="M592 199q0 -8 -6 -14t-14 -6h-74v-159q0 -8 -5 -14t-13 -6h-103q-8 0 -13 6t-5 14v159h-300q-8 0 -14 6t-6 14v81q0 18 11 32l308 413q5 8 11.5 13t17.5 5h91q8 0 14 -6t6 -14v-434h74q8 0 14 -6t6 -14v-70zM360 543q0 6 -3 6t-7 -6l-175 -243q-3 -3 -3 -6q0 -5 8 -5h180
v254z" />
    <glyph glyph-name="five" unicode="5" 
d="M552 237q0 -113 -63 -179t-194 -66q-45 0 -97 7t-95 18q-8 2 -13.5 6.5t-5.5 15.5v59q0 8 5 13t13 5h2q60 -8 107.5 -11t83.5 -3q35 0 58 9.5t36.5 27t18.5 42.5t5 56v5q0 62 -41.5 87t-135.5 25h-135q-5 0 -8 4.5t-3 8.5v2l32 356q1 8 6.5 13t13.5 5h363q8 0 14 -5.5
t6 -13.5v-76q0 -8 -6 -13.5t-14 -5.5h-271l-15 -166h17q57 0 113.5 -7.5t101.5 -31t73 -67t28 -115.5v-5v0z" />
    <glyph glyph-name="six" unicode="6" 
d="M580 240q0 -56 -17 -101.5t-50 -78t-81 -50.5t-110 -18q-56 0 -104 18t-83 55.5t-55 96t-20 139.5v115q0 90 17.5 154t52.5 104t86.5 58.5t120.5 18.5q66 0 113 -7t72 -12q11 -2 17 -6.5t6 -14.5v-62q0 -21 -19 -21h-4q-14 2 -36.5 4.5t-48 4.5t-52 3t-48.5 1
q-38 0 -64.5 -9t-43 -30.5t-24.5 -56.5t-9 -86q24 5 61 8t78 3q49 0 93 -11.5t78 -37t54 -68t20 -103.5v-10zM444 250q0 35 -11 58t-30 36.5t-44 19t-52 5.5q-22 0 -55 -3t-56 -8v-57q0 -63 9.5 -102t26 -61t40 -30t50.5 -8q25 0 47.5 6.5t39 22.5t26 43t9.5 68v10z" />
    <glyph glyph-name="seven" unicode="7" 
d="M554 649q0 -8 -5 -18.5l-13 -27.5l-270 -584q-5 -11 -11 -15t-16 -4h-104q-7 0 -10.5 4.5t-3.5 10.5q0 3 2 9l287 598v2q0 5 -5 5h-308q-8 0 -14 5t-6 13v77q0 8 6 13.5t14 5.5h417q17 0 28.5 -11.5t11.5 -28.5v-54v0z" />
    <glyph glyph-name="eight" unicode="8" 
d="M577 215q0 -59 -21 -101.5t-56.5 -69.5t-82 -39.5t-97.5 -12.5h-10q-51 0 -97.5 12.5t-81.5 39.5t-56 69.5t-21 101.5v9q0 51 25 92.5t66 70.5q-46 30 -66.5 69.5t-20.5 86.5v4q0 56 20 95t54.5 63t80.5 35t97 11h10q51 0 97.5 -11t81 -35t55 -63t20.5 -95v-4
q0 -47 -21 -86.5t-67 -69.5q41 -29 66 -70.5t25 -92.5v-9zM445 543q0 51 -29.5 78.5t-95.5 27.5h-10q-66 0 -94.5 -27.5t-28.5 -78.5v-4q0 -44 25 -73.5t83 -29.5h41q58 0 83.5 29.5t25.5 73.5v4zM442 224q0 18 -5.5 37.5t-18 35.5t-32.5 26.5t-50 10.5h-41q-30 0 -50 -10.5
t-32.5 -26.5t-18 -35.5t-5.5 -37.5v-9q0 -51 30 -85t91 -34h10q61 0 91.5 34t30.5 85v9z" />
    <glyph glyph-name="nine" unicode="9" 
d="M569 327q0 -90 -17.5 -154t-52.5 -104t-86.5 -58.5t-120.5 -18.5q-66 0 -113 7t-72 12q-11 2 -17 6.5t-6 14.5v62q0 21 19 21h4q14 -2 36.5 -4.5t48 -4.5t51.5 -3t49 -1q38 0 64.5 9t43 30.5t24.5 56.5t9 86q-24 -5 -61 -8t-78 -3q-49 0 -93.5 11.5t-78 37t-53.5 67.5
t-20 104v10q0 55 17 101t50 78.5t81 50.5t110 18q56 0 104 -18t83 -55.5t55 -96t20 -139.5v-115zM433 442q0 63 -9.5 102t-26 61t-40 30t-50.5 8q-26 0 -48 -6.5t-38.5 -22.5t-26 -43t-9.5 -68v-10q0 -35 11 -58t30 -36.5t44 -19t52 -5.5q22 0 55 3t56 8v57z" />
    <glyph glyph-name="colon" unicode=":" horiz-adv-x="259" 
d="M194 414q0 -8 -6 -13.5t-14 -5.5h-89q-8 0 -14 5.5t-6 13.5v113q0 8 6 14t14 6h89q8 0 14 -6t6 -14v-113zM194 20q0 -8 -6 -14t-14 -6h-89q-8 0 -14 6t-6 14v113q0 8 6 13.5t14 5.5h89q8 0 14 -5.5t6 -13.5v-113z" />
    <glyph glyph-name="semicolon" unicode=";" horiz-adv-x="259" 
d="M194 414q0 -8 -6 -13.5t-14 -5.5h-89q-8 0 -14 5.5t-6 13.5v113q0 8 6 14t14 6h89q8 0 14 -6t6 -14v-113zM196 140q0 -1 -2 -7l-87 -210q-4 -9 -7.5 -14.5t-11.5 -5.5h-69q-15 0 -15 14q0 4 1 6l61 210q6 19 20 19h96q14 0 14 -12z" />
    <glyph glyph-name="less" unicode="&#x3c;" 
d="M514 153q0 -5 -3.5 -9.5t-8.5 -4.5h-110q-8 0 -12.5 3t-9.5 8l-231 202q-12 11 -17.5 19t-5.5 20t5.5 20t17.5 19l231 202q5 5 9.5 8t12.5 3h110q5 0 8.5 -4.5t3.5 -9.5q0 -8 -6 -12l-260 -226l260 -226q6 -5 6 -12z" />
    <glyph glyph-name="equal" unicode="=" 
d="M538 477q0 -8 -6 -12t-14 -4h-405q-8 0 -14 4t-6 12v70q0 8 6 12t14 4h405q8 0 14 -4t6 -12v-70zM538 235q0 -8 -6 -12t-14 -4h-405q-8 0 -14 4t-6 12v70q0 8 6 12t14 4h405q8 0 14 -4t6 -12v-70z" />
    <glyph glyph-name="greater" unicode="&#x3e;" 
d="M514 391q0 -12 -5.5 -20t-17.5 -19l-231 -202q-5 -5 -9.5 -8t-12.5 -3h-110q-5 0 -8.5 4.5t-3.5 9.5q0 7 6 12l260 226l-260 226q-6 4 -6 12q0 5 3.5 9.5t8.5 4.5h110q8 0 12.5 -3t9.5 -8l231 -202q12 -11 17.5 -19t5.5 -20z" />
    <glyph glyph-name="question" unicode="?" horiz-adv-x="437" 
d="M407 579q0 -14 -1.5 -28.5t-8.5 -32.5t-21.5 -40.5t-39.5 -52.5l-61 -72q-20 -24 -33 -41t-13 -41v-38q0 -8 -6 -13.5t-14 -5.5h-83q-19 0 -19 19v38q0 24 2.5 42t9.5 34.5t18 33t29 37.5l64 74q18 21 23.5 42t5.5 45v16q0 18 -13.5 27.5t-44.5 9.5q-37 0 -77 -3.5
t-73 -7.5h-4q-17 0 -17 22v62q0 12 2.5 18.5t15.5 9.5q32 8 73 13t80 5q48 0 86.5 -7.5t65 -25.5t40.5 -48t14 -75v-16zM233 19q0 -8 -6 -13.5t-14 -5.5h-90q-8 0 -14 5.5t-6 13.5v113q0 8 6 14t14 6h90q8 0 14 -6t6 -14v-113z" />
    <glyph glyph-name="at" unicode="@" horiz-adv-x="772" 
d="M737 362q0 -91 -26.5 -151.5t-75.5 -96.5t-117 -51t-150 -15q-76 0 -123 35.5t-47 107.5q0 5 0.5 9t0.5 9l9 117q7 85 59 125t135 40q10 0 26 -1.5t34.5 -3.5t37.5 -4.5t34 -5.5q23 -3 23 -26v-4l-29 -302q39 6 64.5 24.5t40.5 47t21 65.5t6 81q0 45 -14 87t-43.5 73.5
t-75 50.5t-107.5 19q-132 0 -206 -65t-85 -183l-15 -158q-1 -9 -1.5 -17t-0.5 -16q0 -44 15 -81t46 -64t78 -42t111 -15q35 0 75.5 2t69.5 5h6q7 0 7 -9v-37q0 -12 -13 -13q-23 -3 -60 -6.5t-85 -3.5q-72 0 -132 18t-103 51.5t-67 83t-24 112.5v16t1 16l15 163
q6 70 34 127.5t75 98.5t112.5 63t147.5 22q80 0 139.5 -25t98.5 -66.5t58.5 -95.5t19.5 -111zM446 397q-14 2 -27.5 3.5t-27.5 1.5q-38 0 -55 -18t-22 -62l-11 -112q-1 -5 -1 -9v-8q0 -31 17 -43.5t56 -12.5h20h14.5t13.5 1z" />
    <glyph glyph-name="A" unicode="A" horiz-adv-x="646" 
d="M627 17q0 -8 -5 -12.5t-13 -4.5h-106q-7 0 -12 5t-7 12l-46 190h-230l-46 -190q-2 -7 -7 -12t-12 -5h-106q-8 0 -13 4.5t-5 12.5q0 1 0.5 2t0.5 3l164 627q9 35 26 55t36.5 30.5t40 13.5t36.5 3t36.5 -3t40 -13.5t36.5 -30.5t26 -55l164 -627q0 -2 0.5 -3t0.5 -2z
M339 618q-2 9 -5 12.5t-11 3.5t-11 -3.5t-5 -12.5l-72 -297h176z" />
    <glyph glyph-name="B" unicode="B" horiz-adv-x="650" 
d="M600 208q0 -60 -21.5 -101t-61 -66.5t-95.5 -37t-126 -11.5q-61 0 -105.5 3t-67.5 8q-25 5 -36.5 15.5t-11.5 38.5v630q0 27 10.5 38.5t34.5 15.5q20 3 64 6.5t103 3.5q68 0 124.5 -10.5t97.5 -34.5t63.5 -62.5t22.5 -95.5v-20q0 -50 -23 -90.5t-69 -60.5
q46 -20 71.5 -57.5t25.5 -94.5v-17zM460 540q0 52 -38.5 74t-134.5 22q-18 0 -37.5 -0.5t-35.5 -1.5v-203h127q35 0 58 7.5t36.5 20.5t19 30.5t5.5 36.5v14zM464 223q0 21 -6 40t-20.5 33.5t-38 23.5t-58.5 9h-127v-220q18 0 42 -1t40 -1q48 0 80 6t51.5 19t28 32.5
t8.5 45.5v13z" />
    <glyph glyph-name="C" unicode="C" horiz-adv-x="563" 
d="M518 31q0 -11 -6 -15.5t-16 -7.5q-6 -2 -20.5 -4.5t-35.5 -5t-47 -4.5t-55 -2q-45 0 -95 13t-91.5 47.5t-69 93.5t-27.5 152v147q0 94 27.5 153.5t69 93.5t91.5 46.5t95 12.5q29 0 55 -2t47 -4.5t35.5 -5.5t20.5 -4q10 -3 16 -7.5t6 -15.5v-67q0 -9 -4.5 -15t-15.5 -6h-2
l-31.5 2.5t-39.5 2.5l-43 2t-42 1q-32 0 -58.5 -9.5t-45.5 -31t-30 -57.5t-11 -89v-147q0 -52 11 -88t30 -58t45.5 -31.5t58.5 -9.5q20 0 42 1l43 2t39.5 2.5l31.5 2.5h2q11 0 15.5 -6t4.5 -15v-67v0z" />
    <glyph glyph-name="D" unicode="D" horiz-adv-x="667" 
d="M612 298q0 -149 -81.5 -227.5t-232.5 -78.5q-27 0 -56.5 1t-57 3t-50 4t-33.5 4q-13 2 -19.5 9t-6.5 22v673q0 15 6.5 22t19.5 9q11 2 33.5 4t50 4t57 3t56.5 1q151 0 232.5 -78.5t81.5 -227.5v-147zM474 445q0 56 -13.5 92.5t-37 58t-56 30t-69.5 8.5q-28 0 -48 -1
t-36 -2v-519q16 -1 36 -2t48 -1q37 0 69.5 8.5t56 30t37 58t13.5 92.5v147z" />
    <glyph glyph-name="E" unicode="E" horiz-adv-x="576" 
d="M516 27q0 -11 -4.5 -15t-15.5 -6l-26.5 -4.5t-36 -4.5t-52 -3.5t-75.5 -1.5q-49 0 -91 8t-73 30.5t-49 62.5t-18 104v349q0 64 18 104t49 62.5t73 30.5t91 8q45 0 75.5 -1.5t52 -3.5t36 -4.5l26.5 -4.5q11 -2 15.5 -6t4.5 -15v-64q0 -8 -6 -14t-14 -6h-204
q-44 0 -61.5 -18t-17.5 -68v-108h271q8 0 14 -6t6 -14v-72q0 -8 -6 -14t-14 -6h-271v-129q0 -50 17.5 -68t61.5 -18h204q8 0 14 -6t6 -14v-64v0z" />
    <glyph glyph-name="F" unicode="F" horiz-adv-x="576" 
d="M516 652q0 -8 -6 -14t-14 -6h-204q-44 0 -61.5 -18t-17.5 -68v-108h271q8 0 14 -6t6 -14v-72q0 -8 -6 -14t-14 -6h-271v-306q0 -8 -6 -14t-14 -6h-98q-8 0 -14 6t-6 14v526q0 64 18 104t49 62.5t73 30.5t91 8q45 0 75.5 -1.5t52 -3.5t36 -4.5l26.5 -4.5q11 -2 15.5 -6
t4.5 -15v-64v0z" />
    <glyph glyph-name="G" unicode="G" horiz-adv-x="635" 
d="M560 33q0 -20 -19 -24q-38 -8 -89 -12.5t-129 -4.5q-41 0 -87.5 15t-87 50t-67 94t-26.5 148v144q0 89 25.5 148t65.5 94.5t87.5 50.5t92.5 15q36 0 69.5 -2t61.5 -5t50 -6t34 -5q19 -4 19 -21v-67q0 -11 -4 -16t-16 -5h-3q-35 3 -87 5.5t-124 2.5q-25 0 -48.5 -9.5
t-42 -31.5t-29.5 -58.5t-11 -89.5v-144q0 -53 11.5 -89t30 -58t41.5 -31.5t45 -9.5q28 0 52 0.5t47 2.5v255q0 8 5.5 14t13.5 6h99q8 0 14 -6t6 -14v-336v0z" />
    <glyph glyph-name="H" unicode="H" horiz-adv-x="712" 
d="M637 20q0 -8 -6 -14t-14 -6h-99q-8 0 -14 6t-6 14v306h-284v-306q0 -8 -6 -14t-14 -6h-99q-8 0 -14 6t-6 14v704q0 8 6 13.5t14 5.5h99q8 0 14 -5.5t6 -13.5v-276h284v276q0 8 6 13.5t14 5.5h99q8 0 14 -5.5t6 -13.5v-704v0z" />
    <glyph glyph-name="I" unicode="I" horiz-adv-x="289" 
d="M214 20q0 -8 -6 -14t-14 -6h-99q-8 0 -14 6t-6 14v704q0 8 6 13.5t14 5.5h99q8 0 14 -5.5t6 -13.5v-704v0z" />
    <glyph glyph-name="J" unicode="J" horiz-adv-x="289" 
d="M214 -21q0 -80 -39.5 -113t-120.5 -33q-11 0 -24 1t-24.5 2.5t-20 2.5t-11.5 2q-10 3 -10 14v71q0 8 6 13t14 5h66q14 0 19.5 6.5t5.5 28.5v745q0 8 6 13.5t14 5.5h99q8 0 14 -5.5t6 -13.5v-745v0z" />
    <glyph glyph-name="K" unicode="K" horiz-adv-x="643" 
d="M615 9q0 -9 -15 -9h-134q-16 0 -23 11l-229 341v-332q0 -8 -6 -14t-14 -6h-99q-8 0 -14 6t-6 14v703q0 8 6 13.5t14 5.5h99q8 0 14 -5.5t6 -13.5v-318l245 329q4 5 9.5 6.5t13.5 1.5h114q19 0 19 -12q0 -7 -7 -16l-256 -331l258 -362q5 -8 5 -12z" />
    <glyph glyph-name="L" unicode="L" horiz-adv-x="516" 
d="M496 27q0 -11 -4.5 -15t-15.5 -6q-11 -3 -31.5 -5.5t-44.5 -4.5t-49 -3t-45 -1q-49 0 -91 8t-73 30.5t-49 62.5t-18 104v526q0 8 6 14t14 6h99q8 0 14 -6t6 -14v-526q0 -50 17 -68t61 -18h184q8 0 14 -6t6 -14v-64v0z" />
    <glyph glyph-name="M" unicode="M" horiz-adv-x="792" 
d="M717 15q0 -8 -5 -11.5t-12 -3.5h-101q-7 0 -11.5 6t-4.5 14v465q0 10 -3 10q-1 0 -5 -6l-96 -191q-5 -8 -13.5 -12.5t-18.5 -4.5h-101q-10 0 -18.5 4.5t-13.5 12.5l-97 191q-4 6 -5 6q-3 0 -3 -10v-465q0 -8 -4.5 -14t-11.5 -6h-101q-7 0 -12 3.5t-5 11.5v688
q0 17 11.5 28.5t28.5 11.5h82q12 0 22 -6.5t15 -17.5l151 -306l6 -10.5t5 -3.5t5 3.5l6 10.5l151 306q5 11 15 17.5t22 6.5h82q17 0 28.5 -11.5t11.5 -28.5v-688v0z" />
    <glyph glyph-name="N" unicode="N" horiz-adv-x="712" 
d="M637 40q0 -17 -11.5 -28.5t-28.5 -11.5h-101q-18 0 -33.5 4.5t-27.5 31.5l-222 487q-4 8 -9 8t-5 -8v-503q0 -8 -5.5 -14t-13.5 -6h-85q-8 0 -14 6t-6 14v683q0 17 11.5 28.5t28.5 11.5h108q16 0 25.5 -6t18.5 -26l233 -514q3 -8 8 -8t5 9v526q0 19 19 19h86q19 0 19 -19
v-684v0z" />
    <glyph glyph-name="O" unicode="O" horiz-adv-x="680" 
d="M625 304q0 -83 -21.5 -142t-59.5 -96.5t-90 -55.5t-114 -18t-114 18t-90 55.5t-59.5 96.5t-21.5 142v135q0 82 21.5 141.5t59.5 97t90 55.5t114 18t114 -18t90 -55.5t59.5 -97t21.5 -141.5v-135zM485 439q0 100 -35.5 145.5t-109.5 45.5t-109.5 -45.5t-35.5 -145.5v-135
q0 -100 35.5 -145.5t109.5 -45.5t109.5 45.5t35.5 145.5v135z" />
    <glyph glyph-name="P" unicode="P" horiz-adv-x="626" 
d="M591 511q0 -66 -23.5 -111t-63 -72.5t-91.5 -39t-110 -11.5q-20 0 -46 1.5l-43 2.5v-261q0 -8 -5.5 -14t-13.5 -6h-100q-8 0 -14 6t-6 14v688q0 15 8.5 21.5t23.5 8.5q39 6 90 9.5t106 3.5q58 0 110 -11t91.5 -38t63 -71.5t23.5 -110.5v-9zM453 520q0 63 -37.5 89.5
t-112.5 26.5q-8 0 -20.5 -0.5l-25.5 -1t-24.5 -1t-18.5 -1.5v-238q6 0 18.5 -0.5l26 -1l26 -1t18.5 -0.5q81 0 115.5 30t34.5 90v9z" />
    <glyph glyph-name="Q" unicode="Q" horiz-adv-x="690" 
d="M630 304q0 -71 -16 -124.5t-45 -91t-69 -60t-89 -31.5v-21q0 -20 8.5 -26t21.5 -6h97q11 0 17.5 -4t6.5 -12v-62q0 -15 -22 -21q-15 -4 -45 -7.5t-54 -3.5q-36 0 -65.5 7.5t-51 24.5t-33.5 43.5t-12 64.5v23q-49 9 -89 31.5t-69 60t-45 91t-16 124.5v135q0 82 21.5 141.5
t59.5 97t90 55.5t114 18t114 -18t90 -55.5t59.5 -97t21.5 -141.5v-135zM490 439q0 100 -35.5 145.5t-109.5 45.5t-109.5 -45.5t-35.5 -145.5v-135q0 -100 35.5 -145.5t109.5 -45.5t109.5 45.5t35.5 145.5v135z" />
    <glyph glyph-name="R" unicode="R" horiz-adv-x="653" 
d="M615 12q0 -12 -12 -12h-122q-8 0 -12 6t-8 14l-144 267h-14q-20 0 -46 1.5l-43 2.5v-271q0 -8 -5.5 -14t-13.5 -6h-100q-8 0 -14 6t-6 14v688q0 15 8.5 21.5t23.5 8.5q39 6 90 9.5t106 3.5q58 0 110 -11.5t91.5 -37.5t63 -69.5t23.5 -107.5v-9q0 -80 -36.5 -130
t-98.5 -74l157 -292q2 -3 2 -8zM453 525q0 57 -37.5 82t-112.5 25q-8 0 -20.5 -0.5l-25.5 -1t-24.5 -1t-18.5 -1.5v-225q6 0 18.5 -0.5l26 -1l26 -1t18.5 -0.5q78 0 114 25t36 91v9z" />
    <glyph glyph-name="S" unicode="S" horiz-adv-x="570" 
d="M525 201q0 -38 -13 -75.5t-43.5 -67t-81 -48t-125.5 -18.5q-57 0 -99 5t-78 13q-8 2 -13.5 7t-5.5 13v72q0 8 5.5 13.5t13.5 5.5h2q15 -2 39.5 -3.5l50.5 -3t49.5 -2.5t37.5 -1q67 0 91.5 23t24.5 67q0 15 -4 26.5t-14 22.5t-26 22.5t-41 26.5l-132 79q-35 21 -57.5 42
t-36 43.5t-19 47t-5.5 50.5q0 41 13 76t42.5 60.5t77 39.5t117.5 14q25 0 53 -1.5t55 -4.5t49 -6t35 -6q8 -2 13 -6.5t5 -12.5v-74q0 -8 -4.5 -13t-12.5 -5h-2q-50 5 -99 7.5t-98 2.5q-56 0 -80.5 -18.5t-24.5 -52.5q0 -12 3.5 -22.5t13 -21t25.5 -21.5t40 -24l120 -67
q41 -23 68 -46.5t42.5 -48.5t22 -52t6.5 -57z" />
    <glyph glyph-name="T" unicode="T" horiz-adv-x="579" 
d="M554 645q0 -8 -6 -13t-14 -5h-175v-607q0 -8 -6 -14t-14 -6h-99q-8 0 -14 6t-6 14v607h-175q-8 0 -14 5t-6 13v79q0 8 6 13.5t14 5.5h489q8 0 14 -5.5t6 -13.5v-79v0z" />
    <glyph glyph-name="U" unicode="U" horiz-adv-x="690" 
d="M620 275q0 -80 -20.5 -134t-57 -87t-87 -47.5t-110.5 -14.5t-110.5 14.5t-87 47.5t-57 87t-20.5 134v449q0 8 6 13.5t14 5.5h99q8 0 14 -5.5t6 -13.5v-449q0 -43 6 -74.5t21.5 -52.5t41.5 -31t67 -10q40 0 66.5 10t42 31t21.5 52.5t6 74.5v449q0 8 6 13.5t14 5.5h99
q8 0 14 -5.5t6 -13.5v-449v0z" />
    <glyph glyph-name="V" unicode="V" horiz-adv-x="656" 
d="M632 726q0 -2 -0.5 -2.5t-0.5 -2.5l-164 -627q-9 -35 -26 -55t-36.5 -30.5t-40 -13.5t-36.5 -3t-36.5 3t-40 13.5t-36.5 30.5t-26 55l-164 627q0 2 -0.5 2.5t-0.5 2.5q0 8 5 12.5t13 4.5h106q7 0 12 -5t7 -12l145 -601q2 -9 5 -12.5t11 -3.5t11 3.5t5 12.5l145 601
q2 7 7 12t12 5h106q8 0 13 -4.5t5 -12.5z" />
    <glyph glyph-name="W" unicode="W" horiz-adv-x="862" 
d="M838 726l-94 -653q-7 -47 -29 -64t-61 -17h-54q-34 0 -53 18t-30 62l-79 330q-2 11 -6 11q-5 0 -7 -11l-79 -330q-11 -44 -30 -62t-53 -18h-54q-39 0 -61 17t-29 64l-94 653v3q0 7 5 10.5t12 3.5h106q6 0 11 -5t6 -13l72 -597q1 -7 1.5 -11t3.5 -4t3.5 4t2.5 11l86 351
q5 18 18 31.5t45 13.5h69q32 0 45 -13.5t18 -31.5l86 -351q2 -7 2.5 -11t3.5 -4t3.5 4t1.5 11l72 597q1 8 6 13t11 5h106q7 0 12 -3.5t5 -10.5v-3z" />
    <glyph glyph-name="X" unicode="X" horiz-adv-x="650" 
d="M627 12q0 -5 -4 -8.5t-12 -3.5h-118q-8 0 -14 5.5t-12 14.5l-147 236l-138 -236q-11 -20 -26 -20h-109q-16 0 -16 13q0 3 2 7l213 355l-219 349q-2 4 -2 6q0 13 16 13h118q8 0 14.5 -6t11.5 -13l146 -233l135 233q4 7 11 13t15 6h109q16 0 16 -13q0 -2 -2 -6l-210 -352
l220 -352q2 -3 2 -8z" />
    <glyph glyph-name="Y" unicode="Y" horiz-adv-x="615" 
d="M590 728q0 -2 -2 -8l-152 -347q-14 -33 -29 -49.5t-32 -23.5v-280q0 -8 -5.5 -14t-13.5 -6h-100q-8 0 -13.5 6t-5.5 14v280q-17 7 -32 23.5t-29 49.5l-151 347q-2 6 -2 8q0 6 4 10.5t12 4.5h111q7 0 12 -5t7 -11l120 -298q5 -13 9.5 -16.5t7.5 -3.5q4 0 8.5 3.5t9.5 16.5
l120 298q2 6 7 11t12 5h110q8 0 12.5 -4.5t4.5 -10.5z" />
    <glyph glyph-name="Z" unicode="Z" horiz-adv-x="588" 
d="M548 20q0 -8 -6 -14t-14 -6h-437q-22 0 -36.5 8.5t-14.5 28.5v55q0 9 2.5 18t10.5 20l317 475q3 4 3 9q0 8 -10 8h-278q-19 0 -19 18v84q0 19 19 19h403q22 0 37.5 -9t15.5 -29v-58q0 -11 -4 -21.5t-10 -19.5l-312 -467q-4 -5 -4 -11t9 -6h308q8 0 14 -5t6 -13v-84v0z
" />
    <glyph glyph-name="bracketleft" unicode="[" horiz-adv-x="356" 
d="M328 -178q0 -16 -19 -16h-222q-8 0 -12.5 5.5t-4.5 13.5v899q0 8 4.5 13.5t12.5 5.5h222q19 0 19 -16v-73q0 -17 -19 -17h-105v-725h105q19 0 19 -17v-73v0z" />
    <glyph glyph-name="backslash" unicode="\" horiz-adv-x="385" 
d="M371 8q0 -6 -5 -11t-12 -5h-101q-8 0 -12 6.5t-6 14.5l-219 710q0 2 -0.5 2.5t-0.5 2.5q0 6 5 10.5t12 4.5h100q8 0 13 -6t7 -14l218 -710q0 -2 0.5 -2.5t0.5 -2.5z" />
    <glyph glyph-name="bracketright" unicode="]" horiz-adv-x="356" 
d="M286 -175q0 -8 -4.5 -13.5t-12.5 -5.5h-222q-19 0 -19 16v73q0 17 19 17h105v725h-105q-19 0 -19 16v73q0 17 19 17h222q8 0 12.5 -5.5t4.5 -13.5v-899v0z" />
    <glyph glyph-name="asciicircum" unicode="^" 
d="M548 573q0 -9 -12 -9h-102q-11 0 -16.5 4t-13.5 12l-89 102l-89 -102q-8 -8 -13.5 -12t-16.5 -4h-102q-12 0 -12 9q0 5 5 12l113 148q8 11 14 14.5t18 3.5h166q12 0 18 -3.5t14 -14.5l113 -148q5 -7 5 -12z" />
    <glyph glyph-name="underscore" unicode="_" horiz-adv-x="523" 
d="M554 -98q0 -8 -6 -12t-14 -4h-545q-8 0 -14 4t-6 12v39q0 8 6 12t14 4h545q8 0 14 -4t6 -12v-39v0z" />
    <glyph glyph-name="quoteleft" unicode="&#x2018;" horiz-adv-x="215" 
d="M196 751q0 -6 -1 -9l-51 -207q-4 -19 -20 -19h-94q-11 0 -11 11q0 5 1 8l68 207q5 19 19 19h80q9 0 9 -10z" />
    <glyph glyph-name="a" unicode="a" horiz-adv-x="548" 
d="M483 20q0 -8 -6 -14t-14 -6h-85q-8 0 -14 6t-6 14v16q-35 -21 -70 -32.5t-71 -11.5q-31 0 -62 7t-55.5 26t-40 51t-15.5 83v4q0 43 13.5 75t43 54t76 33t111.5 11h63v44q0 49 -21.5 65t-66.5 16q-48 0 -93 -2.5t-70 -5.5h-5q-8 0 -13 3t-5 14v64q0 17 19 21q30 6 72.5 11
t94.5 5q107 0 163.5 -47t56.5 -144v-360zM351 248h-63q-34 0 -55.5 -5.5t-34 -16t-17 -26.5t-4.5 -37v-4q0 -37 17 -49.5t55 -12.5q27 0 53.5 8t48.5 20v123z" />
    <glyph glyph-name="b" unicode="b" horiz-adv-x="577" 
d="M532 243q0 -118 -59 -184.5t-180 -66.5q-48 0 -101 7t-100 19q-17 5 -22 10.5t-5 16.5v696q0 8 6 14t14 6h92q8 0 14 -6t6 -14v-177q28 4 53 5.5t43 1.5q121 0 180 -66.5t59 -184.5v-77zM400 320q0 31 -4.5 57t-16.5 45t-33 30t-53 11q-18 0 -46.5 -2t-49.5 -5v-349
q14 -3 41.5 -5t54.5 -2q32 0 53 11t33 30t16.5 45t4.5 57v77z" />
    <glyph glyph-name="c" unicode="c" horiz-adv-x="468" 
d="M423 31q0 -12 -4 -17.5t-17 -8.5q-17 -5 -50 -9t-79 -4q-49 0 -90.5 15t-72 45.5t-48 76t-17.5 106.5v93q0 61 17.5 106.5t48 76t72 45.5t90.5 15q46 0 79 -4t50 -9q13 -3 17 -8.5t4 -17.5v-65q0 -8 -5 -11.5t-13 -3.5h-3q-15 2 -28 3.5t-27 2t-32 1t-42 0.5
q-18 0 -35 -6t-30.5 -20.5t-22 -40t-8.5 -64.5v-93q0 -39 8.5 -64.5t22 -40t30.5 -20.5t35 -6q24 0 42 0.5t32 1t27 2t28 3.5h3q8 0 13 -3.5t5 -11.5v-65v0z" />
    <glyph glyph-name="d" unicode="d" horiz-adv-x="577" 
d="M512 45q0 -11 -5 -16.5t-22 -10.5q-47 -12 -100 -19t-101 -7q-121 0 -180 66.5t-59 184.5v77q0 118 59 184.5t180 66.5q18 0 43 -1.5t53 -5.5v177q0 8 6 14t14 6h92q8 0 14 -6t6 -14v-696zM380 456q-21 3 -49.5 5t-46.5 2q-32 0 -53 -11t-33 -30t-16.5 -45t-4.5 -57v-77
q0 -31 4.5 -57t16.5 -45t33 -30t53 -11q27 0 54.5 2t41.5 5v349z" />
    <glyph glyph-name="e" unicode="e" horiz-adv-x="574" 
d="M526 261q0 -25 -20 -25h-326v-3q0 -22 5 -44.5t18.5 -41t37 -30t59.5 -11.5q55 0 103.5 3.5t80.5 6.5h3q8 0 13 -3.5t5 -11.5v-66q0 -12 -3.5 -18t-17.5 -8q-24 -5 -45 -8t-42.5 -5t-47 -3t-59.5 -1q-38 0 -80.5 11.5t-78.5 40t-59.5 77t-23.5 122.5v74q0 58 16 105
t46.5 80t75.5 51t102 18q58 0 102.5 -18.5t74.5 -52.5t45.5 -80.5t15.5 -102.5v-56zM393 334q0 59 -29 91t-76 32t-77 -31.5t-30 -91.5v-4h212v4z" />
    <glyph glyph-name="f" unicode="f" horiz-adv-x="395" 
d="M375 690q0 -9 -5 -13t-10 -4h-45q-36 0 -47.5 -11.5t-11.5 -48.5v-49h96q8 0 14 -6t6 -14v-60q0 -8 -6 -13.5t-14 -5.5h-96v-444q0 -8 -6 -14.5t-14 -6.5h-91q-8 0 -14.5 6.5t-6.5 14.5v444l-89 14q-8 2 -14 6.5t-6 12.5v46q0 8 6 14t14 6h89v49q0 48 12.5 79t35 49
t54.5 25t71 7q18 0 32 -2.5t28 -5.5q6 -2 12 -5.5t6 -10.5v-59v0z" />
    <glyph glyph-name="g" unicode="g" horiz-adv-x="584" 
d="M556 495q0 -11 -3.5 -14.5t-12.5 -7.5l-33 -13q12 -17 18.5 -35.5t6.5 -44.5v-7q0 -94 -61.5 -138t-175.5 -44q-40 0 -67 5.5t-42 11.5q-17 -11 -17 -26t8.5 -22t25.5 -11l118 -28q51 -12 92.5 -23.5t70.5 -28.5t45 -42.5t16 -65.5v-7q0 -77 -58.5 -117t-186.5 -40
q-122 0 -185 43.5t-63 122.5v9q0 31 13.5 59.5t37.5 50.5q-21 16 -33 40.5t-12 51.5v1q0 23 10 45t30 36q-23 23 -32 51t-9 66v7q0 37 13 70.5t41.5 59t73.5 40t110 14.5h234q11 0 19 -8t8 -19v-42zM402 378q0 18 -4.5 33.5t-16.5 27t-33 18t-53 6.5t-53 -6.5t-33 -18
t-17 -27t-5 -33.5v-8q0 -14 4 -28t15.5 -25.5t32.5 -18.5t56 -7q62 0 84.5 20.5t22.5 58.5v8zM413 -39q0 8 -3.5 15t-16 14t-36 14.5t-62.5 16.5l-89 21q-11 -16 -18 -29.5t-7 -40.5v-9q0 -15 5.5 -27.5t19 -21t36.5 -13t58 -4.5q36 0 58 4t34.5 11t16.5 17.5t4 24.5v7z" />
    <glyph glyph-name="h" unicode="h" horiz-adv-x="592" 
d="M527 21q0 -8 -6 -14.5t-14 -6.5h-92q-8 0 -14 6.5t-6 14.5v329q0 33 -3.5 54t-12.5 33t-25 17t-41 5q-51 0 -116 -34v-404q0 -8 -6 -14.5t-14 -6.5h-92q-8 0 -14 6.5t-6 14.5v720q0 8 6 14t14 6h92q8 0 14 -6t6 -14v-207q29 17 63 27t88 10q52 0 86.5 -17t55 -47
t29 -70.5t8.5 -86.5v-329v0z" />
    <glyph glyph-name="i" unicode="i" horiz-adv-x="268" 
d="M203 659q0 -8 -6 -14t-14 -6h-97q-8 0 -14.5 6t-6.5 14v88q0 8 6.5 14t14.5 6h97q8 0 14 -6t6 -14v-88zM200 21q0 -8 -6 -14.5t-14 -6.5h-92q-8 0 -14 6.5t-6 14.5v523q0 8 6 14t14 6h92q8 0 14 -6t6 -14v-523z" />
    <glyph glyph-name="j" unicode="j" horiz-adv-x="268" 
d="M203 659q0 -8 -6.5 -14t-14.5 -6h-96q-8 0 -14 6t-6 14v88q0 8 6 14t14 6h96q8 0 14.5 -6t6.5 -14v-88zM200 -42q0 -46 -10 -76.5t-29 -48.5t-46.5 -25.5t-62.5 -7.5q-17 0 -32.5 1.5t-33.5 4.5q-19 3 -19 18v65q0 16 21 16h45q24 0 29.5 11.5t5.5 41.5v586q0 8 6 14
t14 6h92q8 0 14 -6t6 -14v-586z" />
    <glyph glyph-name="k" unicode="k" horiz-adv-x="549" 
d="M519 12q0 -5 -4 -8.5t-10 -3.5h-122q-8 0 -16 6.5t-13 13.5l-157 228v-227q0 -8 -6 -14.5t-14 -6.5h-92q-8 0 -14 6.5t-6 14.5v720q0 8 6 14t14 6h92q8 0 14 -6t6 -14v-417l171 228q5 7 11.5 9.5t11.5 2.5h112q15 0 15 -11q0 -5 -4 -10l-201 -247l203 -276q3 -5 3 -8z
" />
    <glyph glyph-name="l" unicode="l" horiz-adv-x="272" 
d="M202 21q0 -8 -5.5 -14.5t-13.5 -6.5h-93q-8 0 -14 6.5t-6 14.5v720q0 8 6 14t14 6h93q8 0 13.5 -6t5.5 -14v-720v0z" />
    <glyph glyph-name="m" unicode="m" horiz-adv-x="848" 
d="M783 21q0 -8 -6 -14.5t-14 -6.5h-92q-8 0 -14 6.5t-6 14.5v340q0 29 -3.5 47.5t-11.5 29.5t-22 15.5t-35 4.5q-14 0 -40 -5.5t-53 -19.5q2 -17 3 -35t1 -37v-340q0 -8 -6 -14.5t-14 -6.5h-92q-8 0 -14 6.5t-6 14.5v340q0 29 -3 47.5t-10.5 29.5t-21 15.5t-34.5 4.5
q-31 0 -92 -33v-404q0 -8 -6 -14.5t-14 -6.5h-92q-8 0 -14 6.5t-6 14.5v523q0 8 6 14t14 6h87q8 0 14 -6t6 -14v-21q32 20 65 34t78 14q43 0 71.5 -12t45.5 -33q38 21 75.5 33t89.5 12q51 0 83.5 -16.5t50.5 -45t25 -66.5t7 -82v-340v0z" />
    <glyph glyph-name="n" unicode="n" horiz-adv-x="592" 
d="M527 21q0 -8 -6 -14.5t-14 -6.5h-92q-8 0 -14 6.5t-6 14.5v326q0 33 -2.5 54.5t-11 34t-25.5 18t-46 5.5q-26 0 -53.5 -9.5t-59.5 -26.5v-402q0 -8 -6 -14.5t-14 -6.5h-92q-8 0 -14 6.5t-6 14.5v523q0 8 6 14t14 6h87q8 0 14 -6t6 -14v-21q22 14 40.5 23t37.5 14.5t39 8
t45 2.5q54 0 88 -17t52.5 -47t25.5 -71t7 -89v-326v0z" />
    <glyph glyph-name="o" unicode="o" horiz-adv-x="574" 
d="M526 241q0 -54 -15.5 -99.5t-45.5 -78.5t-74.5 -52t-103.5 -19t-103.5 19t-74.5 52t-45.5 78.5t-15.5 99.5v81q0 54 15.5 99.5t45.5 78.5t74.5 52t103.5 19t103.5 -19t74.5 -52t45.5 -78.5t15.5 -99.5v-81zM394 322q0 62 -27 98.5t-80 36.5t-80 -36.5t-27 -98.5v-81
q0 -62 27 -98.5t80 -36.5t80 36.5t27 98.5v81z" />
    <glyph glyph-name="p" unicode="p" horiz-adv-x="577" 
d="M532 243q0 -118 -59 -184.5t-180 -66.5q-18 0 -43 1.5t-53 5.5v-177q0 -8 -6 -14t-14 -6h-92q-8 0 -14 6t-6 14v696q0 11 5 16.5t22 10.5q47 12 100 19t101 7q121 0 180 -66.5t59 -184.5v-77zM400 320q0 31 -4.5 57t-16.5 45t-33 30t-53 11q-27 0 -54.5 -2t-41.5 -5v-349
q21 -3 49.5 -5t46.5 -2q32 0 53 11t33 30t16.5 45t4.5 57v77z" />
    <glyph glyph-name="q" unicode="q" horiz-adv-x="577" 
d="M512 -178q0 -8 -6 -14t-14 -6h-92q-8 0 -14 6t-6 14v177q-28 -4 -53 -5.5t-43 -1.5q-121 0 -180 66.5t-59 184.5v77q0 118 59 184.5t180 66.5q48 0 101 -7t100 -19q17 -5 22 -10.5t5 -16.5v-696zM380 456q-14 3 -41.5 5t-54.5 2q-32 0 -53 -11t-33 -30t-16.5 -45
t-4.5 -57v-77q0 -31 4.5 -57t16.5 -45t33 -30t53 -11q18 0 46.5 2t49.5 5v349z" />
    <glyph glyph-name="r" unicode="r" horiz-adv-x="375" 
d="M355 479q0 -8 -6 -14t-14 -6q-41 0 -73.5 -9.5t-64.5 -26.5v-402q0 -8 -6 -14.5t-14 -6.5h-92q-8 0 -14 6.5t-6 14.5v523q0 8 6 14t14 6h87q8 0 14 -6t6 -14v-21q37 29 75 38.5t68 9.5q8 0 14 -6t6 -14v-72v0z" />
    <glyph glyph-name="s" unicode="s" horiz-adv-x="489" 
d="M444 148q0 -33 -12 -61.5t-36.5 -49.5t-61.5 -33t-86 -12q-15 0 -36.5 1t-46.5 3.5t-50 6t-46 9.5q-19 5 -19 23v60q0 6 4.5 11t12.5 5h4q18 -2 42.5 -4t48.5 -3.5t45 -2.5t32 -1q23 0 37 3.5t21.5 10t10 15.5t2.5 19q0 14 -10 25t-34 26l-137 84q-37 23 -60.5 58.5
t-23.5 79.5q0 150 190 150q30 0 54.5 -1.5t45.5 -4.5t40 -6.5t38 -7.5q18 -5 18 -23v-58q0 -19 -16 -19h-4q-11 1 -30 3.5t-42 4l-47.5 3t-45.5 1.5q-36 0 -52.5 -9.5t-16.5 -32.5q0 -12 10.5 -21t29.5 -20l131 -80q31 -19 50 -38t29.5 -38t13.5 -38t3 -38z" />
    <glyph glyph-name="t" unicode="t" horiz-adv-x="405" 
d="M380 17q0 -15 -19 -18q-18 -3 -34.5 -5t-33.5 -2q-42 0 -72.5 6t-49.5 23t-28 48.5t-9 81.5v314l-94 14q-8 2 -14 7t-6 13v45q0 8 6 14t14 6h94v82q0 8 6 13t14 7l93 16h4q16 0 16 -15v-103h90q8 0 14 -6t6 -14v-59q0 -8 -6 -14t-14 -6h-90v-314q0 -19 1 -30t5 -17
t11.5 -7.5t21.5 -1.5h53q21 0 21 -15v-63v0z" />
    <glyph glyph-name="u" unicode="u" horiz-adv-x="592" 
d="M527 20q0 -8 -6 -14t-14 -6h-92q-8 0 -14 6t-6 14v23q-39 -26 -74 -38t-83 -12q-38 0 -69.5 10t-53.5 32q-28 28 -39 73.5t-11 108.5v326q0 8 6 14.5t14 6.5h92q8 0 14 -6.5t6 -14.5v-326q0 -38 4.5 -60.5t18.5 -35.5q11 -9 25 -13.5t37 -4.5q14 0 29.5 4t30.5 10
t28.5 13l24.5 13v400q0 8 6 14.5t14 6.5h92q8 0 14 -6.5t6 -14.5v-523v0z" />
    <glyph glyph-name="v" unicode="v" horiz-adv-x="551" 
d="M527 548q0 -5 -1 -7l-126 -455q-8 -28 -21 -46t-30 -28.5t-36 -15t-38 -4.5t-38 4.5t-35.5 15t-30 28.5t-20.5 46l-126 455q-1 2 -1 7q0 16 16 16h100q15 0 20 -20l96 -419q3 -14 8 -19.5t11 -5.5t11 5.5t8 19.5l96 419q5 20 21 20h100q16 0 16 -16z" />
    <glyph glyph-name="w" unicode="w" horiz-adv-x="819" 
d="M793 541l-91 -460q-5 -23 -10.5 -38.5t-15.5 -26t-25 -15t-38 -4.5h-27q-41 0 -63 19.5t-32 58.5l-79 306q-1 5 -3 5t-3 -5l-79 -306q-10 -39 -32 -58.5t-63 -19.5h-27q-23 0 -38 4.5t-25 15t-16 26t-10 38.5l-91 460v3q0 8 6 14t14 6h97q8 0 12.5 -5.5t5.5 -12.5
l63 -423q2 -14 5 -14q4 0 7 14l83 336q8 29 19 36t37 7h70q26 0 37 -7t19 -36l83 -336q3 -14 7 -14q3 0 5 14l63 423q1 7 5.5 12.5t12.5 5.5h97q8 0 14 -6t6 -14v-3z" />
    <glyph glyph-name="x" unicode="x" horiz-adv-x="557" 
d="M537 13q0 -5 -4.5 -9t-10.5 -4h-114q-8 0 -13.5 3.5t-13.5 16.5l-114 176l-108 -176q-8 -13 -13.5 -16.5t-13.5 -3.5h-103q-12 0 -12 11q0 4 3 9l179 271l-169 253q-2 4 -2 6q0 5 4.5 9.5t11.5 4.5h114q8 0 13 -4.5t13 -15.5l101 -156l94 156q8 14 13.5 17t13.5 3h103
q12 0 12 -11q0 -5 -3 -9l-165 -252l182 -272q2 -4 2 -7z" />
    <glyph glyph-name="y" unicode="y" horiz-adv-x="560" 
d="M535 547q0 -4 -1 -6l-167 -584q-12 -41 -26 -70.5t-36.5 -49t-56.5 -28.5t-85 -9q-12 0 -27 1t-29.5 3t-27.5 4t-22 5q-8 2 -14.5 5.5t-6.5 11.5v64q0 8 6 13t14 5h2q10 0 25.5 -1l31 -2l30.5 -2t26 -1q32 0 50 12.5t29 51.5l8 30h-15q-11 0 -23 2.5t-23.5 10.5t-22 24.5
t-18.5 45.5l-131 458q-1 3 -1 7q0 16 19 16h101q7 0 12 -5.5t7 -12.5l101 -407q3 -13 6 -17.5t8 -4.5h1h5h3l108 430q2 7 7 12t13 5h102q8 0 13 -5t5 -12z" />
    <glyph glyph-name="z" unicode="z" horiz-adv-x="490" 
d="M450 20q0 -8 -6 -14t-14 -6h-350q-17 0 -28.5 11.5t-11.5 28.5v43q0 15 13 32l242 333q3 4 3 6q0 3 -6 3h-226q-8 0 -13 4t-5 12v71q0 8 6 14t14 6h340q17 0 28.5 -12t11.5 -29v-57q0 -4 -1.5 -12t-3.5 -11l-233 -319l-2 -3q0 -4 6 -4h218q8 0 13 -4t5 -12v-81v0z" />
    <glyph glyph-name="braceleft" unicode="{" horiz-adv-x="363" 
d="M353 -181q0 -17 -19 -17h-56q-56 0 -91.5 8t-55.5 27.5t-27.5 51.5t-7.5 80v152q0 40 -14 65.5t-45 46.5v80q31 21 44.5 46.5t13.5 65.5v151q0 48 7.5 80t27.5 51.5t55.5 27.5t91.5 8h57q19 0 19 -17v-73q0 -16 -19 -16h-47q-38 0 -48 -13t-10 -48v-151q0 -52 -17.5 -89
t-60.5 -63q43 -26 61 -63t18 -89v-152q0 -35 10 -48t48 -13h46q19 0 19 -16v-73v0z" />
    <glyph glyph-name="bar" unicode="|" horiz-adv-x="274" 
d="M204 -174q0 -8 -5.5 -14t-13.5 -6h-95q-8 0 -14 6t-6 14v897q0 8 6 14t14 6h95q8 0 13.5 -6t5.5 -14v-897v0z" />
    <glyph glyph-name="braceright" unicode="}" horiz-adv-x="363" 
d="M326 233q-31 -21 -45 -46.5t-14 -65.5v-152q0 -48 -7.5 -80t-27.5 -51.5t-55.5 -27.5t-91.5 -8h-56q-19 0 -19 17v73q0 16 19 16h46q38 0 48 13t10 48v152q0 52 18 89t61 63q-43 26 -60.5 63t-17.5 89v151q0 35 -10 48t-48 13h-47q-19 0 -19 16v73q0 17 19 17h57
q56 0 91.5 -8t55.5 -27.5t27.5 -51.5t7.5 -80v-151q0 -40 13.5 -65.5t44.5 -46.5v-80v0z" />
    <glyph glyph-name="asciitilde" unicode="~" 
d="M552 475q0 -76 -32 -107.5t-97 -31.5q-17 0 -38.5 4.5t-36.5 15.5l-88 61q-12 8 -21.5 10.5t-17.5 2.5q-16 0 -26 -9t-10 -33v-26q0 -20 -17 -20h-71q-18 0 -18 20v26q0 75 32.5 107.5t97.5 32.5q17 0 38 -5t36 -16l88 -60q12 -8 22 -10.5t18 -2.5q18 0 26.5 9t8.5 32v26
q0 20 17 20h70q19 0 19 -20v-26v0z" />
    <glyph glyph-name="exclamdown" unicode="&#xa1;" horiz-adv-x="256" 
d="M192 431q0 -19 -19 -19h-90q-19 0 -19 19v113q0 8 5.5 14t13.5 6h90q8 0 13.5 -6t5.5 -14v-113zM196 -181q0 -8 -6.5 -13.5t-14.5 -5.5h-95q-8 0 -14 5.5t-6 13.5l15 508q0 8 6 14t14 6h65q8 0 14.5 -6t6.5 -14z" />
    <glyph glyph-name="cent" unicode="&#xa2;" 
d="M494 31q0 -12 -4 -17.5t-17 -8.5t-34.5 -6.5t-50.5 -5.5v-80q0 -8 -6 -14t-14 -6h-82q-8 0 -14 6t-6 14v90q-67 20 -108.5 77.5t-41.5 154.5v93q0 97 41.5 154.5t108.5 77.5v88q0 8 6 14t14 6h82q8 0 14 -6t6 -14v-78q29 -2 50.5 -5.5t34.5 -6.5t17 -8.5t4 -17.5v-65
q0 -8 -5 -11.5t-13 -3.5h-3q-15 2 -28 3.5t-27 2t-32 1t-42 0.5q-18 0 -35 -6t-30.5 -20.5t-22 -40t-8.5 -64.5v-93q0 -39 8.5 -64.5t22 -40t30.5 -20.5t35 -6q24 0 42 0.5t32 1t27 2t28 3.5h3q8 0 13 -3.5t5 -11.5v-65v0z" />
    <glyph glyph-name="sterling" unicode="&#xa3;" 
d="M562 629q0 -18 -17 -18h-2q-15 1 -34.5 3t-41.5 3.5t-44 2.5t-42 1q-56 0 -81.5 -18t-25.5 -70v-96h185q8 0 14 -5.5t6 -13.5v-75q0 -18 -19 -18h-186v-125q0 -31 -7 -51.5t-17 -37.5h291q8 0 14 -4.5t6 -12.5v-76q0 -8 -6 -13t-14 -5h-427q-12 0 -15 9t-3 17v51
q0 8 2.5 13t5.5 10q11 17 22.5 44t11.5 56v125h-50q-19 0 -19 18v75q0 8 6 13.5t14 5.5h49v96q0 49 12 86.5t40 63t74.5 39t116.5 13.5q19 0 42.5 -1.5t46 -3.5t42.5 -4.5t32 -4.5q14 -2 16 -6.5t2 -12.5v-73v0z" />
    <glyph glyph-name="fraction" unicode="&#x2044;" horiz-adv-x="294" 
d="M463 735q0 -7 -4 -12l-419 -709q-6 -11 -9.5 -14t-11.5 -3h-82q-10 0 -10 9q0 7 4 12l419 708q6 10 10 13.5t12 3.5h81q10 0 10 -8z" />
    <glyph glyph-name="yen" unicode="&#xa5;" 
d="M601 730q0 -4 -3 -10l-114 -227h93q8 0 14 -5t6 -13v-63q0 -18 -19 -18h-143l-50 -99v-12h192q8 0 14 -5t6 -13v-63q0 -18 -19 -18h-193v-164q0 -8 -5.5 -14t-13.5 -6h-103q-8 0 -13 6t-5 14v164h-194q-19 0 -19 18v63q0 8 6 13t14 5h193v12l-50 99h-144q-19 0 -19 18v63
q0 8 6 13t14 5h94l-114 227q-3 6 -3 10q0 13 16 13h114q7 0 11 -5t7 -11l138 -294l138 294q3 6 7.5 11t11.5 5h113q16 0 16 -13z" />
    <glyph glyph-name="florin" unicode="&#x192;" 
d="M587 749l-8 -58q-2 -17 -24 -17h-61q-37 0 -50.5 -12.5t-18.5 -44.5l-24 -173h138q17 0 17 -16v-3l-9 -65q-2 -8 -8.5 -14t-14.5 -6h-137l-48 -337q-6 -45 -23.5 -75.5t-42.5 -49t-57 -26t-68 -7.5q-29 0 -51 2.5t-36 4.5q-11 2 -14.5 5.5t-3.5 9.5v3l8 58q2 17 24 17h61
q37 0 50.5 12.5t18.5 44.5l48 338h-127q-8 0 -13 5t-5 12v3l9 65q2 8 8.5 13.5t14.5 5.5h127l24 173q6 46 23.5 76t42.5 48t57 25.5t68 7.5q29 0 51 -2.5t36 -4.5q11 -2 14.5 -5.5t3.5 -9.5v-3z" />
    <glyph glyph-name="section" unicode="&#xa7;" horiz-adv-x="573" 
d="M529 -3q0 -40 -12.5 -78t-43 -68t-81 -48.5t-125.5 -18.5q-57 0 -102.5 5.5t-81.5 13.5q-8 2 -14 6.5t-6 12.5v78q0 8 6 13t14 5h2q45 -5 88.5 -8.5t88.5 -3.5h7q33 0 54.5 6.5t33.5 18t17 27.5t5 36q0 15 -3.5 26.5t-12.5 22t-24.5 22t-40.5 26.5l-125 74
q-39 23 -64 45.5t-39.5 46t-20 49t-5.5 54.5q0 30 6.5 56t21.5 47q-16 24 -22 49.5t-6 55.5q0 41 12.5 75t42 58t77 37t117.5 13q25 0 54 -1.5t56.5 -4.5t50.5 -6t36 -6q8 -2 13.5 -6.5t5.5 -12.5v-79q0 -8 -5.5 -13t-13.5 -5h-1q-48 3 -96.5 7t-97.5 4h-3
q-56 0 -79.5 -16.5t-23.5 -50.5q0 -12 3.5 -22.5t12.5 -21t24.5 -21.5t39.5 -24l120 -67q41 -23 68 -46t43 -47.5t22.5 -50.5t6.5 -56q0 -28 -6 -55t-20 -52q15 -23 20.5 -47.5t5.5 -53.5zM411 206q0 19 -4.5 34t-16 29t-32 29t-52.5 34l-79 47q-17 10 -30 18.5t-24 18.5
q-19 -22 -19 -60q0 -17 4.5 -30t15 -26t29 -26t46.5 -30l77 -46q48 -29 73 -52q7 13 9.5 28t2.5 32z" />
    <glyph glyph-name="currency" unicode="&#xa4;" 
d="M571 562q0 -8 -7 -15l-85 -84q26 -43 26 -91q0 -52 -27 -95l83 -84q7 -7 7 -15q0 -6 -5 -11l-47 -48q-5 -5 -11 -5q-8 0 -15 7l-86 86q-41 -24 -88 -24q-50 0 -91 25l-85 -84l-7.5 -5.5t-8.5 -2.5t-10 5l-47 48q-5 7 -5 12q0 8 7 15l84 83q-27 44 -27 93q0 47 24 88
l-84 84q-7 7 -7 15q0 7 5 12l48 48q5 5 10 5q8 0 16 -8l82 -82q22 14 46.5 20.5t49.5 6.5q49 0 92 -26l84 84q7 7 15 7q6 0 11 -5l48 -48q5 -5 5 -11zM409 374q0 19 -7 35.5t-19.5 29t-29.5 19.5t-36 7t-36 -7t-29.5 -19.5t-20 -29t-7.5 -35.5t7.5 -36t20 -29.5t29.5 -20
t36 -7.5t36 7.5t29.5 20t19.5 29.5t7 36z" />
    <glyph glyph-name="quotesingle" unicode="'" horiz-adv-x="220" 
d="M207 750q0 -2 -2 -8l-68 -207q-5 -19 -19 -19h-80q-9 0 -9 10q0 6 1 9l51 207q4 19 20 19h94q12 0 12 -11z" />
    <glyph glyph-name="quotedblleft" unicode="&#x201c;" horiz-adv-x="416" 
d="M397 751q0 -6 -1 -9l-51 -207q-4 -19 -20 -19h-94q-11 0 -11 11q0 5 1 8l68 207q5 19 19 19h80q9 0 9 -10zM196 751q0 -6 -1 -9l-51 -207q-4 -19 -20 -19h-94q-11 0 -11 11q0 5 1 8l68 207q5 19 19 19h80q9 0 9 -10z" />
    <glyph glyph-name="guillemotleft" unicode="&#xab;" horiz-adv-x="689" 
d="M652 77q0 -4 -3.5 -7.5t-11.5 -3.5h-95q-13 0 -18 3t-12 10l-162 178q-5 5 -6.5 12.5t-1.5 12.5t1.5 12.5t6.5 12.5l162 178q7 7 12 10t18 3h95q8 0 11.5 -3.5t3.5 -7.5t-3 -7l-181 -198l181 -198q3 -3 3 -7zM365 77q0 -4 -3.5 -7.5t-11.5 -3.5h-95q-13 0 -18 3t-12 10
l-162 178q-5 5 -6.5 12.5t-1.5 12.5t1.5 12.5t6.5 12.5l162 178q7 7 12 10t18 3h95q8 0 11.5 -3.5t3.5 -7.5t-3 -7l-181 -198l181 -198q3 -3 3 -7z" />
    <glyph glyph-name="guilsinglleft" unicode="&#x2039;" horiz-adv-x="402" 
d="M350 77q0 -4 -3.5 -7.5t-11.5 -3.5h-95q-13 0 -18 3t-12 10l-162 178q-5 5 -6.5 12.5t-1.5 12.5t1.5 12.5t6.5 12.5l162 178q7 7 12 10t18 3h95q8 0 11.5 -3.5t3.5 -7.5t-3 -7l-181 -198l181 -198q3 -3 3 -7z" />
    <glyph glyph-name="guilsinglright" unicode="&#x203a;" horiz-adv-x="402" 
d="M362 282q0 -5 -1.5 -12.5t-6.5 -12.5l-162 -178q-7 -7 -12 -10t-18 -3h-95q-8 0 -11.5 3.5t-3.5 7.5t3 7l181 198l-181 198q-3 3 -3 7t3.5 7.5t11.5 3.5h95q13 0 18 -3t12 -10l162 -178q5 -5 6.5 -12.5t1.5 -12.5z" />
    <glyph glyph-name="endash" unicode="&#x2013;" horiz-adv-x="309" 
d="M324 256q0 -18 -19 -18h-301q-19 0 -19 18v63q0 19 19 19h301q19 0 19 -19v-63v0z" />
    <glyph glyph-name="dagger" unicode="&#x2020;" horiz-adv-x="425" 
d="M393 477q0 -16 -19 -16h-99v-447q0 -8 -4 -14t-12 -6h-102q-8 0 -12 6t-4 14v447h-89q-19 0 -19 16v80q0 15 19 15h89v170q0 8 4.5 13.5t12.5 5.5h101q8 0 12 -5.5t4 -13.5v-170h99q19 0 19 -15v-80v0z" />
    <glyph glyph-name="daggerdbl" unicode="&#x2021;" horiz-adv-x="425" 
d="M393 267q0 -16 -19 -16h-99v-237q0 -8 -4 -14t-12 -6h-102q-8 0 -12 6t-4 14v237h-89q-19 0 -19 16v80q0 15 19 15h89v99h-89q-19 0 -19 16v80q0 15 19 15h89v170q0 8 4.5 13.5t12.5 5.5h101q8 0 12 -5.5t4 -13.5v-170h99q19 0 19 -15v-80q0 -16 -19 -16h-99v-99h99
q19 0 19 -15v-80v0z" />
    <glyph glyph-name="periodcentered" unicode="&#xb7;" horiz-adv-x="259" 
d="M194 329q0 -8 -6 -14t-14 -6h-89q-8 0 -14 6t-6 14v113q0 8 6 13.5t14 5.5h89q8 0 14 -5.5t6 -13.5v-113v0z" />
    <glyph glyph-name="paragraph" unicode="&#xb6;" horiz-adv-x="644" 
d="M584 -176q0 -8 -4.5 -13.5t-12.5 -5.5h-35q-8 0 -12.5 5.5t-4.5 13.5v852h-61v-852q0 -8 -4.5 -13.5t-12.5 -5.5h-35q-8 0 -12.5 5.5t-4.5 13.5v426h-99q-52 0 -96 14.5t-76.5 43t-50.5 70t-18 95.5v47q0 54 18 95.5t50.5 70t76.5 43t96 14.5h282q16 0 16 -19v-900v0z
" />
    <glyph glyph-name="bullet" unicode="&#x2022;" horiz-adv-x="418" 
d="M373 367q0 -34 -13 -64t-35 -52t-52 -35t-64 -13t-64 13t-52 35t-35 52t-13 64t13 64t35 52t52 35t64 13t64 -13t52 -35t35 -52t13 -64z" />
    <glyph glyph-name="quotesinglbase" unicode="&#x201a;" horiz-adv-x="215" 
d="M203 140q0 -1 -2 -7l-87 -210q-4 -9 -7.5 -14.5t-11.5 -5.5h-69q-15 0 -15 14q0 4 1 6l61 210q6 19 20 19h96q14 0 14 -12z" />
    <glyph glyph-name="quotedblbase" unicode="&#x201e;" horiz-adv-x="416" 
d="M413 140q0 -1 -2 -7l-87 -210q-4 -9 -7.5 -14.5t-11.5 -5.5h-69q-15 0 -15 14q0 4 1 6l61 210q6 19 20 19h96q14 0 14 -12zM203 140q0 -1 -2 -7l-87 -210q-4 -9 -7.5 -14.5t-11.5 -5.5h-69q-15 0 -15 14q0 4 1 6l61 210q6 19 20 19h96q14 0 14 -12z" />
    <glyph glyph-name="quotedblright" unicode="&#x201d;" horiz-adv-x="416" 
d="M397 750q0 -5 -1 -8l-68 -207q-5 -19 -19 -19h-80q-9 0 -9 10q0 6 1 9l51 207q4 19 20 19h94q11 0 11 -11zM196 750q0 -5 -1 -8l-68 -207q-5 -19 -19 -19h-80q-9 0 -9 10q0 6 1 9l51 207q4 19 20 19h94q11 0 11 -11z" />
    <glyph glyph-name="guillemotright" unicode="&#xbb;" horiz-adv-x="689" 
d="M649 282q0 -5 -1.5 -12.5t-6.5 -12.5l-162 -178q-7 -7 -12 -10t-18 -3h-95q-8 0 -11.5 3.5t-3.5 7.5t3 7l181 198l-181 198q-3 3 -3 7t3.5 7.5t11.5 3.5h95q13 0 18 -3t12 -10l162 -178q5 -5 6.5 -12.5t1.5 -12.5zM362 282q0 -5 -1.5 -12.5t-6.5 -12.5l-162 -178
q-7 -7 -12 -10t-18 -3h-95q-8 0 -11.5 3.5t-3.5 7.5t3 7l181 198l-181 198q-3 3 -3 7t3.5 7.5t11.5 3.5h95q13 0 18 -3t12 -10l162 -178q5 -5 6.5 -12.5t1.5 -12.5z" />
    <glyph glyph-name="ellipsis" unicode="&#x2026;" horiz-adv-x="703" 
d="M650 20q0 -8 -6 -14t-14 -6h-90q-8 0 -14 6t-6 14v113q0 8 6 13.5t14 5.5h90q8 0 14 -5.5t6 -13.5v-113zM417 20q0 -8 -6 -14t-14 -6h-90q-8 0 -14 6t-6 14v113q0 8 6 13.5t14 5.5h90q8 0 14 -5.5t6 -13.5v-113zM184 20q0 -8 -6 -14t-14 -6h-90q-8 0 -14 6t-6 14v113
q0 8 6 13.5t14 5.5h90q8 0 14 -5.5t6 -13.5v-113z" />
    <glyph glyph-name="perthousand" unicode="&#x2030;" horiz-adv-x="1162" 
d="M1122 162q0 -86 -37 -127t-105 -41t-105.5 41t-37.5 127v82q0 86 37.5 127t105.5 41t105 -41t37 -127v-82zM772 162q0 -86 -37 -127t-105 -41t-105.5 41t-37.5 127v82q0 86 37.5 127t105.5 41t105 -41t37 -127v-82zM674 735q0 -5 -4 -12l-417 -705q-6 -11 -10.5 -16
t-12.5 -5h-84q-10 0 -10 9q0 7 4 12l417 705q7 11 11.5 15.5t12.5 4.5h84q9 0 9 -8zM325 499q0 -86 -37 -127t-105 -41t-105.5 41t-37.5 127v82q0 86 37.5 126.5t105.5 40.5t105 -40.5t37 -126.5v-82zM1037 244q0 53 -15 73t-42 20t-42.5 -20t-15.5 -73v-82q0 -53 15.5 -73
t42.5 -20t42 20t15 73v82zM687 244q0 53 -15 73t-42 20t-42.5 -20t-15.5 -73v-82q0 -53 15.5 -73t42.5 -20t42 20t15 73v82zM240 581q0 53 -15 73t-42 20t-42.5 -20t-15.5 -73v-82q0 -54 15.5 -74t42.5 -20t42 20t15 74v82z" />
    <glyph glyph-name="questiondown" unicode="&#xbf;" horiz-adv-x="437" 
d="M334 432q0 -8 -6 -14t-14 -6h-90q-8 0 -14 6t-6 14v113q0 8 6 13.5t14 5.5h90q8 0 14 -5.5t6 -13.5v-113zM407 -144q0 -12 -2.5 -18.5t-15.5 -9.5q-32 -8 -73 -13t-80 -5q-48 0 -86.5 7.5t-65 25.5t-40.5 48t-14 75v16q0 13 1.5 28t8.5 33t21.5 40.5t39.5 52.5l61 72
q20 24 33 41t13 41v38q0 8 6 13.5t14 5.5h83q19 0 19 -19v-38q0 -24 -2.5 -42t-9.5 -34.5t-18 -33t-29 -37.5l-64 -74q-18 -21 -23.5 -42t-5.5 -45v-16q0 -22 13.5 -29.5t44.5 -7.5q37 0 77 3.5t73 7.5h4q17 0 17 -22v-62z" />
    <glyph glyph-name="grave" unicode="`" horiz-adv-x="415" 
d="M273 634q0 -7 -9 -7h-86q-9 0 -13 3t-10 10l-119 124q-4 4 -4 8q0 7 11 7h106q10 0 14.5 -3.5t11.5 -11.5l94 -120q4 -4 4 -10z" />
    <glyph glyph-name="acute" unicode="&#xb4;" horiz-adv-x="415" 
d="M383 772q0 -4 -4 -8l-118 -124q-6 -7 -10.5 -10t-13.5 -3h-86q-9 0 -9 7q0 6 4 10l95 120q7 8 11.5 11.5t14.5 3.5h105q11 0 11 -7z" />
    <glyph glyph-name="circumflex" unicode="&#x2c6;" horiz-adv-x="415" 
d="M394 634q0 -7 -9 -7h-83q-9 0 -13 3t-10 10l-71 81l-71 -81q-6 -7 -10.5 -10t-13.5 -3h-83q-9 0 -9 7q0 6 4 10l92 120q7 8 11.5 11.5t14.5 3.5h130q10 0 14.5 -3.5t11.5 -11.5l91 -120q4 -4 4 -10z" />
    <glyph glyph-name="tilde" unicode="&#x2dc;" horiz-adv-x="496" 
d="M433 739q0 -61 -29.5 -86.5t-81.5 -25.5q-17 0 -36 6t-34 17l-44 33q-13 10 -23 15.5t-19 5.5q-12 0 -20 -7t-8 -27v-21q0 -16 -14 -16h-57q-14 0 -14 16v21q0 60 30 86t82 26q17 0 35.5 -5.5t33.5 -16.5l44 -33q26 -20 42 -20q13 0 20.5 6.5t7.5 26.5v21q0 16 14 16h57
q14 0 14 -16v-22v0z" />
    <glyph glyph-name="macron" unicode="&#xaf;" horiz-adv-x="415" 
d="M383 680q0 -8 -6 -13t-14 -5h-310q-8 0 -14 5t-6 13v57q0 8 6 13t14 5h310q8 0 14 -5t6 -13v-57v0z" />
    <glyph glyph-name="breve" unicode="&#x2d8;" horiz-adv-x="415" 
d="M386 772q0 -1 -0.5 -1.5t-0.5 -2.5q-6 -29 -19.5 -55t-35 -46t-52 -32t-70.5 -12q-41 0 -71 12t-51.5 32t-35 46t-19.5 55q0 2 -0.5 2.5t-0.5 1.5q0 7 10 7h75q10 0 13 -12q9 -35 30.5 -50.5t49.5 -15.5t49.5 15.5t30.5 50.5q3 12 13 12h75q10 0 10 -7z" />
    <glyph glyph-name="dotaccent" unicode="&#x2d9;" horiz-adv-x="415" 
d="M273 655q0 -8 -6 -14t-14 -6h-90q-8 0 -14 6t-6 14v95q0 8 6 13.5t14 5.5h90q8 0 14 -5.5t6 -13.5v-95v0z" />
    <glyph glyph-name="dieresis" unicode="&#xa8;" horiz-adv-x="415" 
d="M365 659q0 -8 -6.5 -14t-14.5 -6h-72q-8 0 -14.5 6t-6.5 14v88q0 8 6.5 14t14.5 6h72q8 0 14.5 -6t6.5 -14v-88zM165 659q0 -8 -6.5 -14t-14.5 -6h-72q-8 0 -14.5 6t-6.5 14v88q0 8 6.5 14t14.5 6h72q8 0 14.5 -6t6.5 -14v-88z" />
    <glyph glyph-name="ring" unicode="&#x2da;" horiz-adv-x="415" 
d="M318 708q0 -23 -8.5 -43t-23.5 -35t-35 -23.5t-43 -8.5t-43 8.5t-35 23.5t-24 35t-9 43t9 43t24 35t35 24t43 9t43 -9t35 -24t23.5 -35t8.5 -43zM256 709q0 20 -14 33.5t-34 13.5t-33 -13.5t-13 -33.5t13 -34t33 -14t34 14t14 34z" />
    <glyph glyph-name="cedilla" unicode="&#xb8;" horiz-adv-x="403" 
d="M296 -41q0 -4 -4 -8l-119 -123q-6 -7 -10 -10.5t-13 -3.5h-86q-9 0 -9 7q0 6 4 10l94 120q7 8 11.5 11.5t14.5 3.5h106q11 0 11 -7z" />
    <glyph glyph-name="hungarumlaut" unicode="&#x2dd;" horiz-adv-x="415" 
d="M457 772q0 -4 -4 -8l-118 -124q-6 -7 -10.5 -10t-13.5 -3h-86q-9 0 -9 7q0 6 4 10l95 120q7 8 11.5 11.5t14.5 3.5h105q11 0 11 -7zM247 772q0 -4 -4 -8l-118 -124q-6 -7 -10.5 -10t-13.5 -3h-86q-9 0 -9 7q0 6 4 10l95 120q7 8 11.5 11.5t14.5 3.5h105q11 0 11 -7z" />
    <glyph glyph-name="ogonek" unicode="&#x2db;" horiz-adv-x="403" 
d="M292 20q10 0 10 -8q0 -5 -4 -8l-51 -34l-30.5 -21t-17.5 -13.5t-7.5 -10.5t-1.5 -11q0 -19 25 -19q29 0 53 4.5t29 4.5q7 0 8.5 -2t1.5 -10v-58q0 -5 -1.5 -8t-9.5 -7q-11 -5 -36 -12.5t-67 -7.5q-24 0 -47 6t-41 17.5t-28.5 28.5t-10.5 40q0 22 5 38t16.5 28.5t30 25
l44.5 29.5q6 4 11.5 6t13.5 2h105z" />
    <glyph glyph-name="caron" unicode="&#x2c7;" horiz-adv-x="415" 
d="M397 772q0 -6 -4 -10l-94 -120q-7 -8 -11.5 -11.5t-14.5 -3.5h-130q-10 0 -14.5 3.5t-11.5 11.5l-95 120q-4 4 -4 10q0 7 9 7h86q9 0 13.5 -3.5t10.5 -10.5l71 -79l71 79q6 7 10 10.5t13 3.5h86q9 0 9 -7z" />
    <glyph glyph-name="emdash" unicode="&#x2014;" horiz-adv-x="599" 
d="M614 256q0 -18 -19 -18h-591q-19 0 -19 18v63q0 19 19 19h591q19 0 19 -19v-63v0z" />
    <glyph glyph-name="AE" unicode="&#xc6;" horiz-adv-x="880" 
d="M820 27q0 -11 -4.5 -15t-15.5 -6q-12 -3 -23.5 -5.5t-28 -4.5t-42.5 -3t-66 -1q-49 0 -91 8t-73 30.5t-49 62.5t-18 104v10h-201l-46 -190q-2 -7 -7 -12t-12 -5h-106q-8 0 -13 4.5t-5 12.5q0 1 0.5 2t0.5 3l164 627q9 35 26 54t36.5 28t40 10.5t36.5 1.5h477q20 0 20 -21
v-70q0 -8 -6 -14t-14 -6h-253v-194h241q8 0 14 -6t6 -14v-72q0 -8 -6 -14t-14 -6h-241v-129q0 -50 17.5 -68t61.5 -18h174q8 0 14 -6t6 -14v-64zM409 634h-86q-8 0 -11 -3.5t-5 -12.5l-72 -297h174v313z" />
    <glyph glyph-name="ordfeminine" unicode="&#xaa;" horiz-adv-x="335" 
d="M298 431q0 -13 -9 -16q-56 -15 -116 -15q-74 0 -107.5 26t-33.5 80v7q0 53 39.5 74.5t112.5 21.5h26v13q0 30 -12 41t-35 11q-29 0 -53 -1.5t-40 -3.5h-1q-5 0 -9.5 3.5t-4.5 10.5v38q0 11 14 15q16 4 41 8t53 4q64 0 99.5 -28.5t35.5 -97.5v-191zM210 557q-2 0 -7.5 0.5
t-11.5 0.5t-7 -1q-37 0 -52.5 -10t-15.5 -34v-7q0 -23 12.5 -32.5t44.5 -9.5q11 0 20.5 1.5t16.5 2.5v89z" />
    <glyph glyph-name="Lslash" unicode="&#x141;" horiz-adv-x="516" 
d="M75 279l-51 -64q-5 -6 -10 -6q-7 0 -7 7v102q0 5 1 9.5t6 10.5l61 77v309q0 19 19 19h100q8 0 14 -6t6 -14v-176l61 73q6 7 11 7q6 0 6 -8v-101q0 -6 -1.5 -11t-6.5 -11l-70 -85v-214q0 -50 17 -68t61 -18h184q8 0 14 -6t6 -14v-64q0 -11 -4.5 -15t-15.5 -6
q-11 -3 -31.5 -5.5t-44.5 -4.5t-49 -3t-45 -1q-49 0 -91 8t-73 30.5t-49 62.5t-18 104v82z" />
    <glyph glyph-name="Oslash" unicode="&#xd8;" horiz-adv-x="680" 
d="M656 737q0 -4 -3 -8l-72 -100q21 -36 32.5 -83t11.5 -107v-135q0 -83 -21.5 -142t-59.5 -96.5t-90 -55.5t-114 -18q-53 0 -98 12.5t-81 39.5l-29 -40q-5 -6 -8.5 -9t-11.5 -3h-76q-11 0 -11 11q0 3 3 8l72 100q-45 74 -45 193v135q0 82 21.5 141.5t59.5 97t90 55.5
t114 18q54 0 100 -13t82 -41l29 41q5 6 8 8t11 2h75q11 0 11 -11zM444 590q-36 40 -104 40q-74 0 -109.5 -45.5t-35.5 -145.5v-135q0 -31 3 -56zM485 439q0 28 -3 52l-244 -340q35 -38 102 -38q74 0 109.5 45.5t35.5 145.5v135z" />
    <glyph glyph-name="OE" unicode="&#x152;" horiz-adv-x="990" 
d="M930 27q0 -11 -4.5 -15t-15.5 -6l-26.5 -4.5t-36 -4.5t-52 -3.5t-75.5 -1.5q-59 0 -107 12t-80 52q-38 -36 -84.5 -50t-103.5 -14q-62 0 -114 18t-90 55.5t-59.5 96.5t-21.5 142v135q0 82 21.5 141.5t59.5 97t90 55.5t114 18q57 0 103.5 -14.5t84.5 -49.5
q27 37 77.5 50.5t109.5 13.5q45 0 75.5 -1.5t52 -3.5t36 -4.5l26.5 -4.5q11 -2 15.5 -6t4.5 -15v-64q0 -8 -6 -14t-14 -6h-204q-44 0 -61.5 -18t-17.5 -68v-108h271q8 0 14 -6t6 -14v-72q0 -8 -6 -14t-14 -6h-271v-129q0 -50 17.5 -68t61.5 -18h204q8 0 14 -6t6 -14v-64z
M489 463q0 87 -37.5 127t-106.5 40q-74 0 -109.5 -45.5t-35.5 -145.5v-135q0 -100 35.5 -145.5t109.5 -45.5q69 0 106.5 40t37.5 127v183z" />
    <glyph glyph-name="ordmasculine" unicode="&#xba;" horiz-adv-x="357" 
d="M325 557q0 -78 -37.5 -117.5t-108.5 -39.5t-108.5 39.5t-37.5 117.5v34q0 78 37.5 117.5t108.5 39.5t108.5 -39.5t37.5 -117.5v-34zM236 591q0 43 -13.5 62.5t-43.5 19.5t-44 -19.5t-14 -62.5v-34q0 -83 58 -83q30 0 43.5 20t13.5 63v34z" />
    <glyph glyph-name="ae" unicode="&#xe6;" horiz-adv-x="870" 
d="M819 268q0 -8 -6.5 -14t-14.5 -6h-314v-41q0 -57 32.5 -80.5t98.5 -23.5q13 0 35 1l46 2t46.5 2.5t37.5 3.5h1h3q17 0 17 -16v-56q0 -11 -4 -16t-15 -8q-20 -6 -44 -10.5t-49 -7.5t-49.5 -4.5t-45.5 -1.5q-49 0 -90.5 13.5t-67.5 40.5q-38 -28 -86 -41t-98 -13
q-43 0 -80.5 10t-65.5 31t-44 54.5t-16 80.5v11q0 86 64.5 121.5t190.5 35.5h51v27q0 56 -23.5 76.5t-68.5 20.5q-23 0 -46.5 -0.5t-44.5 -1.5t-38.5 -2t-27.5 -2h-1h-2q-17 0 -17 17v60q0 18 20 23q27 6 69.5 11.5t87.5 5.5q58 0 100 -17t68 -49q28 31 67 48.5t94 17.5
q61 0 104.5 -18t71.5 -49.5t41 -75t13 -94.5v-66zM691 358q0 22 -5.5 42t-18 35t-32 24t-47.5 9q-27 0 -47 -9t-32.5 -24t-18.5 -35t-6 -42v-34h207v34zM356 261h-55q-68 0 -98 -18.5t-30 -63.5v-11q0 -45 24.5 -59t64.5 -14q24 0 48.5 3t45.5 11v152z" />
    <glyph glyph-name="dotlessi" unicode="&#x131;" horiz-adv-x="268" 
d="M200 21q0 -8 -6 -14.5t-14 -6.5h-92q-8 0 -14 6.5t-6 14.5v523q0 8 6 14t14 6h92q8 0 14 -6t6 -14v-523v0z" />
    <glyph glyph-name="lslash" unicode="&#x142;" horiz-adv-x="272" 
d="M279 491q0 -6 -1 -9t-6 -9l-69 -85v-367q0 -8 -5.5 -14.5t-13.5 -6.5h-95q-8 0 -14 6.5t-6 14.5v240l-61 -70q-6 -6 -10 -6q-5 0 -5 6v115q0 5 0.5 8t5.5 8l70 85v334q0 8 6 14t14 6h95q8 0 13.5 -6t5.5 -14v-207l61 72q5 5 8 5t5 -3.5t2 -6.5v-110v0z" />
    <glyph glyph-name="oslash" unicode="&#xf8;" horiz-adv-x="574" 
d="M545 589q0 -6 -4 -11l-65 -90q25 -32 37.5 -74.5t12.5 -91.5v-81q0 -54 -15.5 -99.5t-45.5 -78.5t-74.5 -52t-103.5 -19q-43 0 -77.5 10t-62.5 28l-40 -55q-5 -7 -8 -8.5t-8 -1.5h-56q-8 0 -8 8q0 6 4 11l66 92q-25 32 -37 74t-12 91v81q0 54 15.5 99.5t45.5 78.5
t74.5 52t103.5 19q42 0 76.5 -10t62.5 -28l39 54q5 7 8 8.5t8 1.5h56q8 0 8 -8zM354 433q-27 24 -67 24q-53 0 -80 -36.5t-27 -98.5v-81q0 -25 4 -44zM394 322q0 12 -1 23.5t-3 22.5l-171 -238q25 -24 68 -24q53 0 80 36.5t27 98.5v81z" />
    <glyph glyph-name="oe" unicode="&#x153;" horiz-adv-x="926" 
d="M876 261q0 -25 -20 -25h-328v-6v-4q1 -22 7 -44.5t19 -40.5t34 -29t52 -11q55 0 108.5 3.5t85.5 6.5h3q8 0 13 -3.5t5 -11.5v-61q0 -12 -3.5 -18t-17.5 -8q-24 -5 -45 -8t-42.5 -5t-47 -3t-59.5 -1q-45 0 -93.5 15.5t-83.5 56.5q-30 -35 -73.5 -53.5t-100.5 -18.5
q-59 0 -103.5 19t-74.5 52t-45.5 78.5t-15.5 99.5v81q0 54 15.5 99.5t45.5 78.5t74.5 52t103.5 19q58 0 102 -19.5t73 -54.5q63 74 174 74q58 0 102.5 -20t74.5 -54.5t45.5 -80.5t15.5 -99v-56zM745 334q0 66 -30 96t-77 30q-22 0 -42 -7t-35 -21.5t-24 -36t-9 -51.5v-6v-8
h217v4zM396 322q0 62 -27 98.5t-80 36.5t-80 -36.5t-27 -98.5v-81q0 -62 27 -98.5t80 -36.5t80 36.5t27 98.5v81z" />
    <glyph glyph-name="germandbls" unicode="&#xdf;" horiz-adv-x="624" 
d="M570 221q0 -60 -19.5 -103t-53 -71t-77 -41.5t-91.5 -13.5q-12 0 -26 1.5t-30 3.5q-8 2 -14 6.5t-6 12.5v74q0 15 17 15q34 0 64 3t52.5 14.5t36 34.5t13.5 64v19q0 45 -30.5 74t-96.5 29h-32q-8 0 -14 5t-6 13v62q0 8 6 13t14 5h32q32 0 54 8t36 21.5t20 31t6 36.5v17
q0 43 -25.5 70.5t-85.5 27.5q-39 0 -62.5 -11.5t-36 -30.5t-17 -44t-4.5 -51v-495q0 -8 -5.5 -14.5t-13.5 -6.5h-95q-8 0 -14 6.5t-6 14.5v494q0 130 66 191.5t188 61.5q52 0 97 -11.5t77 -37t50.5 -66t18.5 -98.5v-17q0 -45 -26 -83.5t-67 -58.5q48 -20 77 -60.5t29 -95.5
v-19v0z" />
    <glyph glyph-name="logicalnot" unicode="&#xac;" 
d="M538 203q0 -8 -6 -14t-14 -6h-62q-8 0 -14 6t-6 14v259h-323q-8 0 -14 4t-6 12v70q0 8 6 12t14 4h407q8 0 13 -4.5t5 -12.5v-344v0z" />
    <glyph glyph-name="mu" unicode="&#xb5;" horiz-adv-x="587" 
d="M527 42q0 -10 -6 -16t-21 -10q-38 -10 -89 -17t-114 -7q-34 0 -59.5 8.5t-43.5 22.5v-195q0 -8 -5 -14t-13 -6h-97q-8 0 -13.5 6t-5.5 14v715q0 8 6 14.5t14 6.5h93q8 0 14 -6.5t6 -14.5v-346q0 -96 104 -96q24 0 50 3t46 8v431q0 8 6 14.5t14 6.5h93q8 0 14.5 -6.5
t6.5 -14.5v-501v0z" />
    <glyph glyph-name="trademark" unicode="&#x2122;" horiz-adv-x="814" 
d="M773 348q0 -10 -10 -10h-64q-10 0 -10 10v245q0 24 -2.5 39t-11 23.5t-25 11t-45.5 2.5v-321q0 -10 -11 -10h-64q-10 0 -10 10v321q-25 0 -46 -1t-38 -3v-317q0 -10 -10 -10h-63q-11 0 -11 10v361q0 15 5 20.5t18 7.5q57 5 100 7.5t87 2.5q55 0 94.5 -4.5t65.5 -20.5
t38.5 -46.5t12.5 -82.5v-245zM319 685q0 -6 -5 -9.5t-10 -3.5h-88v-320q0 -5 -4 -9.5t-10 -4.5h-59q-6 0 -10 4.5t-4 9.5v320h-90q-5 0 -9.5 3.5t-4.5 9.5v44q0 14 14 14h265q6 0 10.5 -4t4.5 -10v-44z" />
    <glyph glyph-name="Eth" unicode="&#xd0;" horiz-adv-x="667" 
d="M612 298q0 -149 -81.5 -227.5t-232.5 -78.5q-27 0 -56.5 1t-57 3t-50 4t-33.5 4q-13 2 -19.5 9t-6.5 22v291h-58q-19 0 -19 19v75q0 18 19 18h58v270q0 15 6.5 22t19.5 9q11 2 33.5 4t50 4t57 3t56.5 1q151 0 232.5 -78.5t81.5 -227.5v-147zM474 445q0 56 -13.5 92.5
t-37 58t-56 30t-69.5 8.5q-28 0 -48 -1t-36 -2v-193h71q19 0 19 -18v-75q0 -19 -19 -19h-71v-214q16 -1 36 -2t48 -1q37 0 69.5 8.5t56 30t37 58t13.5 92.5v147z" />
    <glyph glyph-name="onehalf" unicode="&#xbd;" horiz-adv-x="751" 
d="M120 751q3 2 9.5 2.5t11.5 0.5h36q10 0 13.5 -5t3.5 -12v-380q0 -7 -5 -12t-12 -5h-53q-7 0 -12 5t-5 12v307l-56 -19q-7 -2 -14 -0.5t-7 11.5v53q0 5 2 7t7 4zM600 735q0 -7 -4 -12l-419 -709q-6 -11 -9.5 -14t-11.5 -3h-82q-10 0 -10 9q0 7 4 12l419 708q6 10 10 13.5
t12 3.5h81q10 0 10 -8zM721 313q0 -35 -18.5 -60.5t-52.5 -48.5l-48 -33q-34 -23 -53 -45t-21 -52h172q7 0 12 -4t5 -12v-41q0 -7 -5 -12t-12 -5h-229q-7 0 -12 5t-5 12v53q0 45 25.5 84t59.5 62l54 36q26 17 36 29t10 32q0 19 -13 26.5t-44 7.5q-23 0 -53 -2.5t-55 -5.5
q-8 0 -12.5 5t-4.5 12v32q0 6 4.5 10t10.5 6h-1q21 6 52.5 10t58.5 4q74 0 106.5 -25.5t32.5 -79.5z" />
    <glyph glyph-name="plusminus" unicode="&#xb1;" 
d="M548 356q0 -8 -6 -12t-14 -4h-162v-161q0 -8 -4 -14t-12 -6h-70q-8 0 -12 6t-4 14v161h-161q-8 0 -14 4t-6 12v70q0 8 6 12t14 4h161v162q0 8 4 14t12 6h70q8 0 12 -6t4 -14v-162h162q8 0 14 -4t6 -12v-70zM548 1q0 -8 -6 -12t-14 -4h-425q-8 0 -14 4t-6 12v56q0 8 6 12
t14 4h425q8 0 14 -4t6 -12v-56z" />
    <glyph glyph-name="Thorn" unicode="&#xde;" horiz-adv-x="626" 
d="M591 419q0 -68 -24 -114t-64 -73.5t-93 -39t-111 -11.5q-23 0 -44 1l-42 2v-164q0 -8 -5 -14t-13 -6h-101q-8 0 -13.5 6t-5.5 14v704q0 19 19 19h101q18 0 18 -19v-63q13 1 38.5 1.5t44.5 0.5q59 0 112.5 -11.5t94 -38.5t64.5 -71.5t24 -110.5v-12zM452 431q0 64 -39 89
t-114 25h-20.5t-25 -0.5t-23.5 -1t-17 -0.5v-242q6 0 17.5 -0.5t24.5 -1t25.5 -0.5h18.5q78 0 115.5 28t37.5 92v12z" />
    <glyph glyph-name="onequarter" unicode="&#xbc;" horiz-adv-x="709" 
d="M120 751q3 2 9.5 2.5t11.5 0.5h36q10 0 13.5 -5t3.5 -12v-380q0 -7 -5 -12t-12 -5h-53q-7 0 -12 5t-5 12v307l-56 -19q-7 -2 -14 -0.5t-7 11.5v53q0 5 2 7t7 4zM600 735q0 -7 -4 -12l-419 -709q-6 -11 -9.5 -14t-11.5 -3h-82q-10 0 -10 9q0 7 4 12l419 708q6 10 10 13.5
t12 3.5h81q10 0 10 -8zM679 113q0 -7 -5 -12t-11 -5h-35v-79q0 -7 -4 -12t-12 -5h-56q-7 0 -11 5t-4 12v79h-157q-6 0 -11 5t-5 12v44q0 11 8 22l166 223q4 5 8 8.5t12 3.5h49q7 0 12 -5t5 -12v-229h35q6 0 11 -5t5 -12v-38zM542 288l-87 -120h87v120z" />
    <glyph glyph-name="divide" unicode="&#xf7;" 
d="M380 542q0 -8 -6 -14t-14 -6h-90q-8 0 -14 6t-6 14v103q0 8 6 13.5t14 5.5h90q8 0 14 -5.5t6 -13.5v-103zM538 356q0 -8 -6 -12t-14 -4h-405q-8 0 -14 4t-6 12v70q0 8 6 12t14 4h405q8 0 14 -4t6 -12v-70zM380 127q0 -8 -6 -13.5t-14 -5.5h-90q-8 0 -14 5.5t-6 13.5v103
q0 8 6 14t14 6h90q8 0 14 -6t6 -14v-103z" />
    <glyph glyph-name="brokenbar" unicode="&#xa6;" horiz-adv-x="274" 
d="M204 363q0 -8 -5.5 -14.5t-13.5 -6.5h-95q-8 0 -14 6.5t-6 14.5v345q0 8 6 14t14 6h95q8 0 13.5 -6t5.5 -14v-345zM204 -190q0 -8 -5.5 -14.5t-13.5 -6.5h-95q-8 0 -14 6.5t-6 14.5v345q0 8 6 14t14 6h95q8 0 13.5 -6t5.5 -14v-345z" />
    <glyph glyph-name="degree" unicode="&#xb0;" horiz-adv-x="353" 
d="M326 602q0 -31 -12 -58t-32 -47.5t-47 -32t-58 -11.5t-58 11.5t-47.5 32t-32 47.5t-11.5 58t11.5 58t32 47t47.5 32t58 12t58 -12t47 -32t32 -47t12 -58zM256 602q0 32 -23.5 55.5t-55.5 23.5t-55 -23.5t-23 -55.5t23 -55t55 -23t55.5 23t23.5 55z" />
    <glyph glyph-name="thorn" unicode="&#xfe;" horiz-adv-x="577" 
d="M532 245q0 -117 -58.5 -185t-176.5 -68q-9 0 -22 0.5t-27 1.5t-27.5 2.5t-23.5 3.5v-178q0 -8 -5 -14t-13 -6h-94q-8 0 -14 6t-6 14v919q0 8 5.5 14t13.5 6h95q8 0 13 -6t5 -14v-177q23 3 49.5 5t50.5 2q115 0 175 -66.5t60 -187.5v-72zM400 317q0 44 -8 72t-23.5 44.5
t-37.5 23t-49 6.5q-19 0 -40.5 -2.5t-44.5 -5.5v-347q23 -4 46 -6t42 -2q27 0 48.5 6.5t36.5 23t22.5 44.5t7.5 71v72z" />
    <glyph glyph-name="threequarters" unicode="&#xbe;" horiz-adv-x="770" 
d="M661 735q0 -7 -4 -12l-419 -709q-6 -11 -9.5 -14t-11.5 -3h-82q-10 0 -10 9q0 7 4 12l419 708q6 10 10 13.5t12 3.5h81q10 0 10 -8zM740 113q0 -7 -5 -12t-11 -5h-35v-79q0 -7 -4 -12t-12 -5h-56q-7 0 -11 5t-4 12v79h-157q-6 0 -11 5t-5 12v44q0 11 8 22l166 223
q4 5 8 8.5t12 3.5h49q7 0 12 -5t5 -12v-229h35q6 0 11 -5t5 -12v-38zM603 288l-87 -120h87v120zM292 458q0 -32 -11 -55t-30 -38t-45 -22t-56 -7q-29 0 -55 4t-49 9q-6 2 -11 6.5t-5 10.5v33q0 8 5 12t13 4q32 -4 58 -6t44 -2q30 0 42.5 13t12.5 38v12q0 19 -8.5 34
t-35.5 15h-95q-7 0 -12 4t-5 12v34q0 8 5 12t12 4h95q27 0 35.5 13.5t8.5 33.5v9q0 18 -10.5 32t-44.5 14q-28 0 -51.5 -2.5l-52.5 -5.5q-6 0 -11 4t-5 12v33q0 5 5 9.5t11 6.5q23 6 49 10t55 4q30 0 56 -6.5t45 -20.5t30 -36t11 -54v-9q0 -55 -41 -80q20 -14 30.5 -35.5
t10.5 -46.5v-12z" />
    <glyph glyph-name="registered" unicode="&#xae;" horiz-adv-x="598" 
d="M575 484q0 -57 -22 -107t-59.5 -87.5t-87.5 -59t-107 -21.5t-107 21.5t-87.5 59t-59 87.5t-21.5 107t21.5 107t59 87.5t87.5 59t107 21.5t107 -21.5t87.5 -59t59.5 -87.5t22 -107zM528 484q0 47 -18 89t-49 73t-73 49t-89 18t-88.5 -18t-72.5 -49t-49 -73t-18 -89
t18 -88.5t49 -72.5t72.5 -49t88.5 -18t89 18t73 49t49 72.5t18 88.5zM432 330q0 -4 -2.5 -7.5t-8.5 -3.5h-51q-7 0 -11 8l-70 118q-3 5 -10 5h-20h-11v-118q0 -5 -3.5 -9t-8.5 -4h-46q-5 0 -8.5 4t-3.5 9v297q0 14 5 19.5t17 7.5q6 1 16 1.5t22 1l24.5 1t21.5 0.5
q64 0 100 -23t36 -82v-6q0 -37 -17 -57.5t-45 -30.5l72 -123q2 -4 2 -8zM353 555q0 25 -15 35t-49 10h-31h-12v-96h9t13 -0.5t13 -0.5h8q35 0 49.5 11.5t14.5 34.5v6z" />
    <glyph glyph-name="minus" unicode="&#x2212;" 
d="M548 356q0 -8 -6 -12t-14 -4h-425q-8 0 -14 4t-6 12v70q0 8 6 12t14 4h425q8 0 14 -4t6 -12v-70v0z" />
    <glyph glyph-name="eth" unicode="&#xf0;" horiz-adv-x="574" 
d="M526 253q0 -130 -61 -195.5t-177 -65.5q-63 0 -108 18.5t-74.5 52t-43.5 82t-14 108.5v40q0 129 61.5 194.5t177.5 65.5q17 0 36.5 -2.5t36.5 -11.5q-16 25 -49 50t-76 47l-76 -58q-8 -6 -13 -6t-11 6l-29 32q-3 3 -3 8q0 9 10 16l45 34q-26 9 -51 15q-6 2 -11 5t-5 10
q0 3 1 5l21 58q4 11 14 11q5 0 8 -1l58 -16t54 -19l85 65q5 4 13 4t12 -5l29 -31q4 -4 4 -8q0 -6 -10 -14l-59 -45q55 -31 94 -69.5t64 -88t36 -111.5t11 -140v-40zM393 293q0 75 -24.5 112t-81.5 37t-81.5 -36.5t-24.5 -112.5v-40q0 -75 25 -112t82 -37t81 36.5t24 112.5
v40z" />
    <glyph glyph-name="multiply" unicode="&#xd7;" 
d="M520 531q0 -8 -8 -16l-125 -125l125 -124q7 -7 7 -15q0 -6 -5 -11l-49 -49q-5 -5 -10 -5q-7 0 -15 8l-125 124l-124 -124q-8 -8 -16 -8q-5 0 -10 5l-49 49q-5 5 -5 10q0 8 8 16l124 124l-125 125q-8 8 -8 16q0 5 5 10l49 49q5 5 10 5q8 0 16 -8l125 -125l125 125
q8 8 16 8q5 0 10 -5l49 -49q5 -5 5 -10z" />
    <glyph glyph-name="copyright" unicode="&#xa9;" horiz-adv-x="750" 
d="M705 374q0 -68 -26 -128t-71 -104.5t-105.5 -70.5t-128.5 -26t-128 26t-104.5 70.5t-70.5 104.5t-26 128t26 128.5t70.5 105.5t104.5 71.5t128 26.5t128.5 -26.5t105.5 -71.5t71 -105.5t26 -128.5zM656 374q0 58 -22.5 109.5t-60.5 90t-89.5 61t-109.5 22.5t-109 -22.5
t-89.5 -61t-60.5 -90t-22 -109.5t22 -109t60.5 -89t89.5 -60t109 -22t109.5 22t89.5 60t60.5 89t22.5 109zM477 183q0 -11 -14 -14q-12 -3 -33.5 -6t-52.5 -3q-74 0 -118.5 44.5t-44.5 142.5v60q0 98 44.5 142.5t118.5 44.5q31 0 53 -3t33 -6q6 -2 10 -4t4 -9v-49
q0 -8 -4 -10t-9 -2h-2q-17 2 -36.5 3.5t-48.5 1.5q-15 0 -29 -5t-24.5 -17.5t-16.5 -33.5t-6 -53v-60q0 -33 6 -54t16.5 -33.5t24.5 -17t29 -4.5q26 0 47 1.5t38 3.5h2q5 0 9 -2t4 -10v-48z" />
    <glyph glyph-name="Aacute" unicode="&#xc1;" horiz-adv-x="646" 
d="M627 17q0 -8 -5 -12.5t-13 -4.5h-106q-7 0 -12 5t-7 12l-46 190h-230l-46 -190q-2 -7 -7 -12t-12 -5h-106q-8 0 -13 4.5t-5 12.5q0 1 0.5 2t0.5 3l164 627q9 35 26 55t36.5 30.5t40 13.5t36.5 3t36.5 -3t40 -13.5t36.5 -30.5t26 -55l164 -627q0 -2 0.5 -3t0.5 -2z
M339 618q-2 9 -5 12.5t-11 3.5t-11 -3.5t-5 -12.5l-72 -297h176zM491 939q0 -4 -4 -8l-118 -124q-6 -7 -10.5 -10t-13.5 -3h-86q-9 0 -9 7q0 6 4 10l95 120q7 8 11.5 11.5t14.5 3.5h105q11 0 11 -7z" />
    <glyph glyph-name="Acircumflex" unicode="&#xc2;" horiz-adv-x="646" 
d="M627 17q0 -8 -5 -12.5t-13 -4.5h-106q-7 0 -12 5t-7 12l-46 190h-230l-46 -190q-2 -7 -7 -12t-12 -5h-106q-8 0 -13 4.5t-5 12.5q0 1 0.5 2t0.5 3l164 627q9 35 26 55t36.5 30.5t40 13.5t36.5 3t36.5 -3t40 -13.5t36.5 -30.5t26 -55l164 -627q0 -2 0.5 -3t0.5 -2z
M339 618q-2 9 -5 12.5t-11 3.5t-11 -3.5t-5 -12.5l-72 -297h176zM509 801q0 -7 -9 -7h-83q-9 0 -13 3t-10 10l-71 81l-71 -81q-6 -7 -10.5 -10t-13.5 -3h-83q-9 0 -9 7q0 6 4 10l92 120q7 8 11.5 11.5t14.5 3.5h130q10 0 14.5 -3.5t11.5 -11.5l91 -120q4 -4 4 -10z" />
    <glyph glyph-name="Adieresis" unicode="&#xc4;" horiz-adv-x="646" 
d="M627 17q0 -8 -5 -12.5t-13 -4.5h-106q-7 0 -12 5t-7 12l-46 190h-230l-46 -190q-2 -7 -7 -12t-12 -5h-106q-8 0 -13 4.5t-5 12.5q0 1 0.5 2t0.5 3l164 627q9 35 26 55t36.5 30.5t40 13.5t36.5 3t36.5 -3t40 -13.5t36.5 -30.5t26 -55l164 -627q0 -2 0.5 -3t0.5 -2z
M339 618q-2 9 -5 12.5t-11 3.5t-11 -3.5t-5 -12.5l-72 -297h176zM479 824q0 -8 -6.5 -14t-14.5 -6h-72q-8 0 -14.5 6t-6.5 14v88q0 8 6.5 14t14.5 6h72q8 0 14.5 -6t6.5 -14v-88zM279 824q0 -8 -6.5 -14t-14.5 -6h-72q-8 0 -14.5 6t-6.5 14v88q0 8 6.5 14t14.5 6h72
q8 0 14.5 -6t6.5 -14v-88z" />
    <glyph glyph-name="Agrave" unicode="&#xc0;" horiz-adv-x="646" 
d="M627 17q0 -8 -5 -12.5t-13 -4.5h-106q-7 0 -12 5t-7 12l-46 190h-230l-46 -190q-2 -7 -7 -12t-12 -5h-106q-8 0 -13 4.5t-5 12.5q0 1 0.5 2t0.5 3l164 627q9 35 26 55t36.5 30.5t40 13.5t36.5 3t36.5 -3t40 -13.5t36.5 -30.5t26 -55l164 -627q0 -2 0.5 -3t0.5 -2z
M339 618q-2 9 -5 12.5t-11 3.5t-11 -3.5t-5 -12.5l-72 -297h176zM434 801q0 -7 -9 -7h-86q-9 0 -13 3t-10 10l-119 124q-4 4 -4 8q0 7 11 7h106q10 0 14.5 -3.5t11.5 -11.5l94 -120q4 -4 4 -10z" />
    <glyph glyph-name="Aring" unicode="&#xc5;" horiz-adv-x="646" 
d="M627 17q0 -8 -5 -12.5t-13 -4.5h-106q-7 0 -12 5t-7 12l-46 190h-230l-46 -190q-2 -7 -7 -12t-12 -5h-106q-8 0 -13 4.5t-5 12.5q0 1 0.5 2t0.5 3l164 627q9 35 26 55t36.5 30.5t40 13.5t36.5 3t36.5 -3t40 -13.5t36.5 -30.5t26 -55l164 -627q0 -2 0.5 -3t0.5 -2z
M339 618q-2 9 -5 12.5t-11 3.5t-11 -3.5t-5 -12.5l-72 -297h176zM432 889q0 -23 -8.5 -43t-23.5 -35t-35 -23.5t-43 -8.5t-43 8.5t-35 23.5t-24 35t-9 43t9 43t24 35t35 24t43 9t43 -9t35 -24t23.5 -35t8.5 -43zM370 890q0 20 -14 33.5t-34 13.5t-33 -13.5t-13 -33.5t13 -34
t33 -14t34 14t14 34z" />
    <glyph glyph-name="Atilde" unicode="&#xc3;" horiz-adv-x="646" 
d="M627 17q0 -8 -5 -12.5t-13 -4.5h-106q-7 0 -12 5t-7 12l-46 190h-230l-46 -190q-2 -7 -7 -12t-12 -5h-106q-8 0 -13 4.5t-5 12.5q0 1 0.5 2t0.5 3l164 627q9 35 26 55t36.5 30.5t40 13.5t36.5 3t36.5 -3t40 -13.5t36.5 -30.5t26 -55l164 -627q0 -2 0.5 -3t0.5 -2z
M339 618q-2 9 -5 12.5t-11 3.5t-11 -3.5t-5 -12.5l-72 -297h176zM531 900q0 -61 -29.5 -86.5t-81.5 -25.5q-17 0 -36 6t-34 17l-44 33q-13 10 -23 15.5t-19 5.5q-12 0 -20 -7t-8 -27v-21q0 -16 -14 -16h-57q-14 0 -14 16v21q0 60 30 86t82 26q17 0 35.5 -5.5t33.5 -16.5
l44 -33q26 -20 42 -20q13 0 20.5 6.5t7.5 26.5v21q0 16 14 16h57q14 0 14 -16v-22z" />
    <glyph glyph-name="Ccedilla" unicode="&#xc7;" horiz-adv-x="563" 
d="M518 31q0 -11 -6 -15.5t-16 -7.5q-6 -2 -20.5 -4.5t-35.5 -5t-47 -4.5t-55 -2q-45 0 -95 13t-91.5 47.5t-69 93.5t-27.5 152v147q0 94 27.5 153.5t69 93.5t91.5 46.5t95 12.5q29 0 55 -2t47 -4.5t35.5 -5.5t20.5 -4q10 -3 16 -7.5t6 -15.5v-67q0 -9 -4 -15t-15 -6h-3
l-31.5 2.5t-39.5 2.5l-43 2t-42 1q-32 0 -58.5 -9.5t-45.5 -31t-30 -57.5t-11 -89v-147q0 -52 11 -88t30 -58t45.5 -31.5t58.5 -9.5q20 0 42 1l43 2t39.5 2.5l31.5 2.5h3q11 0 15 -6t4 -15v-67zM420 -41q0 -3 -5 -8l-119 -123q-6 -7 -9.5 -10.5t-13.5 -3.5h-86q-9 0 -9 7
q0 4 4 10l94 120q7 8 11.5 11.5t14.5 3.5h106q12 0 12 -7z" />
    <glyph glyph-name="Eacute" unicode="&#xc9;" horiz-adv-x="576" 
d="M516 27q0 -11 -4.5 -15t-15.5 -6l-26.5 -4.5t-36 -4.5t-52 -3.5t-75.5 -1.5q-49 0 -91 8t-73 30.5t-49 62.5t-18 104v349q0 64 18 104t49 62.5t73 30.5t91 8q45 0 75.5 -1.5t52 -3.5t36 -4.5l26.5 -4.5q11 -2 15.5 -6t4.5 -15v-64q0 -8 -6 -14t-14 -6h-204
q-44 0 -61.5 -18t-17.5 -68v-108h271q8 0 14 -6t6 -14v-72q0 -8 -6 -14t-14 -6h-271v-129q0 -50 17.5 -68t61.5 -18h204q8 0 14 -6t6 -14v-64zM454 939q0 -4 -4 -8l-118 -124q-6 -7 -10.5 -10t-13.5 -3h-86q-9 0 -9 7q0 6 4 10l95 120q7 8 11.5 11.5t14.5 3.5h105
q11 0 11 -7z" />
    <glyph glyph-name="Ecircumflex" unicode="&#xca;" horiz-adv-x="576" 
d="M516 27q0 -11 -4.5 -15t-15.5 -6l-26.5 -4.5t-36 -4.5t-52 -3.5t-75.5 -1.5q-49 0 -91 8t-73 30.5t-49 62.5t-18 104v349q0 64 18 104t49 62.5t73 30.5t91 8q45 0 75.5 -1.5t52 -3.5t36 -4.5l26.5 -4.5q11 -2 15.5 -6t4.5 -15v-64q0 -8 -6 -14t-14 -6h-204
q-44 0 -61.5 -18t-17.5 -68v-108h271q8 0 14 -6t6 -14v-72q0 -8 -6 -14t-14 -6h-271v-129q0 -50 17.5 -68t61.5 -18h204q8 0 14 -6t6 -14v-64zM484 802q0 -7 -9 -7h-83q-9 0 -13 3t-10 10l-71 81l-71 -81q-6 -7 -10.5 -10t-13.5 -3h-83q-9 0 -9 7q0 6 4 10l92 120
q7 8 11.5 11.5t14.5 3.5h130q10 0 14.5 -3.5t11.5 -11.5l91 -120q4 -4 4 -10z" />
    <glyph glyph-name="Edieresis" unicode="&#xcb;" horiz-adv-x="576" 
d="M516 27q0 -11 -4.5 -15t-15.5 -6l-26.5 -4.5t-36 -4.5t-52 -3.5t-75.5 -1.5q-49 0 -91 8t-73 30.5t-49 62.5t-18 104v349q0 64 18 104t49 62.5t73 30.5t91 8q45 0 75.5 -1.5t52 -3.5t36 -4.5l26.5 -4.5q11 -2 15.5 -6t4.5 -15v-64q0 -8 -6 -14t-14 -6h-204
q-44 0 -61.5 -18t-17.5 -68v-108h271q8 0 14 -6t6 -14v-72q0 -8 -6 -14t-14 -6h-271v-129q0 -50 17.5 -68t61.5 -18h204q8 0 14 -6t6 -14v-64zM448 824q0 -8 -6.5 -14t-14.5 -6h-72q-8 0 -14.5 6t-6.5 14v88q0 8 6.5 14t14.5 6h72q8 0 14.5 -6t6.5 -14v-88zM248 824
q0 -8 -6.5 -14t-14.5 -6h-72q-8 0 -14.5 6t-6.5 14v88q0 8 6.5 14t14.5 6h72q8 0 14.5 -6t6.5 -14v-88z" />
    <glyph glyph-name="Egrave" unicode="&#xc8;" horiz-adv-x="576" 
d="M516 27q0 -11 -4.5 -15t-15.5 -6l-26.5 -4.5t-36 -4.5t-52 -3.5t-75.5 -1.5q-49 0 -91 8t-73 30.5t-49 62.5t-18 104v349q0 64 18 104t49 62.5t73 30.5t91 8q45 0 75.5 -1.5t52 -3.5t36 -4.5l26.5 -4.5q11 -2 15.5 -6t4.5 -15v-64q0 -8 -6 -14t-14 -6h-204
q-44 0 -61.5 -18t-17.5 -68v-108h271q8 0 14 -6t6 -14v-72q0 -8 -6 -14t-14 -6h-271v-129q0 -50 17.5 -68t61.5 -18h204q8 0 14 -6t6 -14v-64zM403 801q0 -7 -9 -7h-86q-9 0 -13 3t-10 10l-119 124q-4 4 -4 8q0 7 11 7h106q10 0 14.5 -3.5t11.5 -11.5l94 -120q4 -4 4 -10z
" />
    <glyph glyph-name="Iacute" unicode="&#xcd;" horiz-adv-x="289" 
d="M214 20q0 -8 -6 -14t-14 -6h-99q-8 0 -14 6t-6 14v704q0 8 6 13.5t14 5.5h99q8 0 14 -5.5t6 -13.5v-704zM303 939q0 -4 -4 -8l-118 -124q-6 -7 -10.5 -10t-13.5 -3h-86q-9 0 -9 7q0 6 4 10l95 120q7 8 11.5 11.5t14.5 3.5h105q11 0 11 -7z" />
    <glyph glyph-name="Icircumflex" unicode="&#xce;" horiz-adv-x="289" 
d="M214 20q0 -8 -6 -14t-14 -6h-99q-8 0 -14 6t-6 14v704q0 8 6 13.5t14 5.5h99q8 0 14 -5.5t6 -13.5v-704zM332 801q0 -7 -9 -7h-83q-9 0 -13 3t-10 10l-71 81l-71 -81q-6 -7 -10.5 -10t-13.5 -3h-83q-9 0 -9 7q0 6 4 10l92 120q7 8 11.5 11.5t14.5 3.5h130q10 0 14.5 -3.5
t11.5 -11.5l91 -120q4 -4 4 -10z" />
    <glyph glyph-name="Idieresis" unicode="&#xcf;" horiz-adv-x="289" 
d="M214 20q0 -8 -6 -14t-14 -6h-99q-8 0 -14 6t-6 14v704q0 8 6 13.5t14 5.5h99q8 0 14 -5.5t6 -13.5v-704zM301 824q0 -8 -6.5 -14t-14.5 -6h-72q-8 0 -14.5 6t-6.5 14v88q0 8 6.5 14t14.5 6h72q8 0 14.5 -6t6.5 -14v-88zM101 824q0 -8 -6.5 -14t-14.5 -6h-72q-8 0 -14.5 6
t-6.5 14v88q0 8 6.5 14t14.5 6h72q8 0 14.5 -6t6.5 -14v-88z" />
    <glyph glyph-name="Igrave" unicode="&#xcc;" horiz-adv-x="289" 
d="M214 20q0 -8 -6 -14t-14 -6h-99q-8 0 -14 6t-6 14v704q0 8 6 13.5t14 5.5h99q8 0 14 -5.5t6 -13.5v-704zM231 801q0 -7 -9 -7h-86q-9 0 -13 3t-10 10l-119 124q-4 4 -4 8q0 7 11 7h106q10 0 14.5 -3.5t11.5 -11.5l94 -120q4 -4 4 -10z" />
    <glyph glyph-name="Ntilde" unicode="&#xd1;" horiz-adv-x="712" 
d="M637 40q0 -17 -11.5 -28.5t-28.5 -11.5h-101q-18 0 -33.5 4.5t-27.5 31.5l-222 487q-4 8 -9 8t-5 -8v-503q0 -8 -5.5 -14t-13.5 -6h-85q-8 0 -14 6t-6 14v683q0 17 11.5 28.5t28.5 11.5h108q16 0 25.5 -6t18.5 -26l233 -514q3 -8 8 -8t5 9v526q0 19 19 19h86q19 0 19 -19
v-684zM539 900q0 -61 -29.5 -86.5t-81.5 -25.5q-17 0 -36 6t-34 17l-44 33q-13 10 -23 15.5t-19 5.5q-12 0 -20 -7t-8 -27v-21q0 -16 -14 -16h-57q-14 0 -14 16v21q0 60 30 86t82 26q17 0 35.5 -5.5t33.5 -16.5l44 -33q26 -20 42 -20q13 0 20.5 6.5t7.5 26.5v21q0 16 14 16
h57q14 0 14 -16v-22z" />
    <glyph glyph-name="Oacute" unicode="&#xd3;" horiz-adv-x="680" 
d="M625 304q0 -83 -21.5 -142t-59.5 -96.5t-90 -55.5t-114 -18t-114 18t-90 55.5t-59.5 96.5t-21.5 142v135q0 82 21.5 141.5t59.5 97t90 55.5t114 18t114 -18t90 -55.5t59.5 -97t21.5 -141.5v-135zM485 439q0 100 -35.5 145.5t-109.5 45.5t-109.5 -45.5t-35.5 -145.5v-135
q0 -100 35.5 -145.5t109.5 -45.5t109.5 45.5t35.5 145.5v135zM488 939q0 -4 -4 -8l-118 -124q-6 -7 -10.5 -10t-13.5 -3h-86q-9 0 -9 7q0 6 4 10l95 120q7 8 11.5 11.5t14.5 3.5h105q11 0 11 -7z" />
    <glyph glyph-name="Ocircumflex" unicode="&#xd4;" horiz-adv-x="680" 
d="M625 304q0 -83 -21.5 -142t-59.5 -96.5t-90 -55.5t-114 -18t-114 18t-90 55.5t-59.5 96.5t-21.5 142v135q0 82 21.5 141.5t59.5 97t90 55.5t114 18t114 -18t90 -55.5t59.5 -97t21.5 -141.5v-135zM485 439q0 100 -35.5 145.5t-109.5 45.5t-109.5 -45.5t-35.5 -145.5v-135
q0 -100 35.5 -145.5t109.5 -45.5t109.5 45.5t35.5 145.5v135zM524 802q0 -7 -9 -7h-83q-9 0 -13 3t-10 10l-71 81l-71 -81q-6 -7 -10.5 -10t-13.5 -3h-83q-9 0 -9 7q0 6 4 10l92 120q7 8 11.5 11.5t14.5 3.5h130q10 0 14.5 -3.5t11.5 -11.5l91 -120q4 -4 4 -10z" />
    <glyph glyph-name="Odieresis" unicode="&#xd6;" horiz-adv-x="680" 
d="M625 304q0 -83 -21.5 -142t-59.5 -96.5t-90 -55.5t-114 -18t-114 18t-90 55.5t-59.5 96.5t-21.5 142v135q0 82 21.5 141.5t59.5 97t90 55.5t114 18t114 -18t90 -55.5t59.5 -97t21.5 -141.5v-135zM485 439q0 100 -35.5 145.5t-109.5 45.5t-109.5 -45.5t-35.5 -145.5v-135
q0 -100 35.5 -145.5t109.5 -45.5t109.5 45.5t35.5 145.5v135zM491 824q0 -8 -6.5 -14t-14.5 -6h-72q-8 0 -14.5 6t-6.5 14v88q0 8 6.5 14t14.5 6h72q8 0 14.5 -6t6.5 -14v-88zM291 824q0 -8 -6.5 -14t-14.5 -6h-72q-8 0 -14.5 6t-6.5 14v88q0 8 6.5 14t14.5 6h72
q8 0 14.5 -6t6.5 -14v-88z" />
    <glyph glyph-name="Ograve" unicode="&#xd2;" horiz-adv-x="680" 
d="M625 304q0 -83 -21.5 -142t-59.5 -96.5t-90 -55.5t-114 -18t-114 18t-90 55.5t-59.5 96.5t-21.5 142v135q0 82 21.5 141.5t59.5 97t90 55.5t114 18t114 -18t90 -55.5t59.5 -97t21.5 -141.5v-135zM485 439q0 100 -35.5 145.5t-109.5 45.5t-109.5 -45.5t-35.5 -145.5v-135
q0 -100 35.5 -145.5t109.5 -45.5t109.5 45.5t35.5 145.5v135zM426 801q0 -7 -9 -7h-86q-9 0 -13 3t-10 10l-119 124q-4 4 -4 8q0 7 11 7h106q10 0 14.5 -3.5t11.5 -11.5l94 -120q4 -4 4 -10z" />
    <glyph glyph-name="Otilde" unicode="&#xd5;" horiz-adv-x="680" 
d="M625 304q0 -83 -21.5 -142t-59.5 -96.5t-90 -55.5t-114 -18t-114 18t-90 55.5t-59.5 96.5t-21.5 142v135q0 82 21.5 141.5t59.5 97t90 55.5t114 18t114 -18t90 -55.5t59.5 -97t21.5 -141.5v-135zM485 439q0 100 -35.5 145.5t-109.5 45.5t-109.5 -45.5t-35.5 -145.5v-135
q0 -100 35.5 -145.5t109.5 -45.5t109.5 45.5t35.5 145.5v135zM535 901q0 -61 -29.5 -86.5t-81.5 -25.5q-17 0 -36 6t-34 17l-44 33q-13 10 -23 15.5t-19 5.5q-12 0 -20 -7t-8 -27v-21q0 -16 -14 -16h-57q-14 0 -14 16v21q0 60 30 86t82 26q17 0 35.5 -5.5t33.5 -16.5l44 -33
q26 -20 42 -20q13 0 20.5 6.5t7.5 26.5v21q0 16 14 16h57q14 0 14 -16v-22z" />
    <glyph glyph-name="Scaron" unicode="&#x160;" horiz-adv-x="570" 
d="M525 201q0 -38 -13 -75.5t-43.5 -67t-81 -48t-125.5 -18.5q-57 0 -99 5t-78 13q-8 2 -13.5 7t-5.5 13v72q0 8 5.5 13.5t13.5 5.5h2q15 -2 39.5 -3.5l50.5 -3t49.5 -2.5t37.5 -1q67 0 91.5 23t24.5 67q0 15 -4 26.5t-14 22.5t-26 22.5t-41 26.5l-132 79q-35 21 -57.5 42
t-36 43.5t-19 47t-5.5 50.5q0 41 13 76t42.5 60.5t77 39.5t117.5 14q25 0 53 -1.5t55 -4.5t49 -6t35 -6q8 -2 13 -6.5t5 -12.5v-74q0 -8 -4.5 -13t-12.5 -5h-2q-50 5 -99 7.5t-98 2.5q-56 0 -80.5 -18.5t-24.5 -52.5q0 -12 3.5 -22.5t13 -21t25.5 -21.5t40 -24l120 -67
q41 -23 68 -46.5t42.5 -48.5t22 -52t6.5 -57zM467 940q0 -6 -4 -10l-94 -120q-7 -8 -11.5 -11.5t-14.5 -3.5h-130q-10 0 -14.5 3.5t-11.5 11.5l-95 120q-4 4 -4 10q0 7 9 7h86q9 0 13.5 -3.5t10.5 -10.5l71 -79l71 79q6 7 10 10.5t13 3.5h86q9 0 9 -7z" />
    <glyph glyph-name="Uacute" unicode="&#xda;" horiz-adv-x="690" 
d="M620 275q0 -80 -20.5 -134t-57 -87t-87 -47.5t-110.5 -14.5t-110.5 14.5t-87 47.5t-57 87t-20.5 134v449q0 8 6 13.5t14 5.5h99q8 0 14 -5.5t6 -13.5v-449q0 -43 6 -74.5t21.5 -52.5t41.5 -31t67 -10q40 0 66.5 10t42 31t21.5 52.5t6 74.5v449q0 8 6 13.5t14 5.5h99
q8 0 14 -5.5t6 -13.5v-449zM512 939q0 -4 -4 -8l-118 -124q-6 -7 -10.5 -10t-13.5 -3h-86q-9 0 -9 7q0 6 4 10l95 120q7 8 11.5 11.5t14.5 3.5h105q11 0 11 -7z" />
    <glyph glyph-name="Ucircumflex" unicode="&#xdb;" horiz-adv-x="690" 
d="M620 275q0 -80 -20.5 -134t-57 -87t-87 -47.5t-110.5 -14.5t-110.5 14.5t-87 47.5t-57 87t-20.5 134v449q0 8 6 13.5t14 5.5h99q8 0 14 -5.5t6 -13.5v-449q0 -43 6 -74.5t21.5 -52.5t41.5 -31t67 -10q40 0 66.5 10t42 31t21.5 52.5t6 74.5v449q0 8 6 13.5t14 5.5h99
q8 0 14 -5.5t6 -13.5v-449zM531 801q0 -7 -9 -7h-83q-9 0 -13 3t-10 10l-71 81l-71 -81q-6 -7 -10.5 -10t-13.5 -3h-83q-9 0 -9 7q0 6 4 10l92 120q7 8 11.5 11.5t14.5 3.5h130q10 0 14.5 -3.5t11.5 -11.5l91 -120q4 -4 4 -10z" />
    <glyph glyph-name="Udieresis" unicode="&#xdc;" horiz-adv-x="690" 
d="M620 275q0 -80 -20.5 -134t-57 -87t-87 -47.5t-110.5 -14.5t-110.5 14.5t-87 47.5t-57 87t-20.5 134v449q0 8 6 13.5t14 5.5h99q8 0 14 -5.5t6 -13.5v-449q0 -43 6 -74.5t21.5 -52.5t41.5 -31t67 -10q40 0 66.5 10t42 31t21.5 52.5t6 74.5v449q0 8 6 13.5t14 5.5h99
q8 0 14 -5.5t6 -13.5v-449zM503 824q0 -8 -6.5 -14t-14.5 -6h-72q-8 0 -14.5 6t-6.5 14v88q0 8 6.5 14t14.5 6h72q8 0 14.5 -6t6.5 -14v-88zM303 824q0 -8 -6.5 -14t-14.5 -6h-72q-8 0 -14.5 6t-6.5 14v88q0 8 6.5 14t14.5 6h72q8 0 14.5 -6t6.5 -14v-88z" />
    <glyph glyph-name="Ugrave" unicode="&#xd9;" horiz-adv-x="690" 
d="M620 275q0 -80 -20.5 -134t-57 -87t-87 -47.5t-110.5 -14.5t-110.5 14.5t-87 47.5t-57 87t-20.5 134v449q0 8 6 13.5t14 5.5h99q8 0 14 -5.5t6 -13.5v-449q0 -43 6 -74.5t21.5 -52.5t41.5 -31t67 -10q40 0 66.5 10t42 31t21.5 52.5t6 74.5v449q0 8 6 13.5t14 5.5h99
q8 0 14 -5.5t6 -13.5v-449zM424 801q0 -7 -9 -7h-86q-9 0 -13 3t-10 10l-119 124q-4 4 -4 8q0 7 11 7h106q10 0 14.5 -3.5t11.5 -11.5l94 -120q4 -4 4 -10z" />
    <glyph glyph-name="Yacute" unicode="&#xdd;" horiz-adv-x="615" 
d="M590 728q0 -2 -2 -8l-152 -347q-14 -33 -29 -49.5t-32 -23.5v-280q0 -8 -5.5 -14t-13.5 -6h-100q-8 0 -13.5 6t-5.5 14v280q-17 7 -32 23.5t-29 49.5l-151 347q-2 6 -2 8q0 6 4 10.5t12 4.5h111q7 0 12 -5t7 -11l120 -298q5 -13 9.5 -16.5t7.5 -3.5q4 0 8.5 3.5t9.5 16.5
l120 298q2 6 7 11t12 5h110q8 0 12.5 -4.5t4.5 -10.5zM481 939q0 -4 -4 -8l-118 -124q-6 -7 -10.5 -10t-13.5 -3h-86q-9 0 -9 7q0 6 4 10l95 120q7 8 11.5 11.5t14.5 3.5h105q11 0 11 -7z" />
    <glyph glyph-name="Ydieresis" unicode="&#x178;" horiz-adv-x="615" 
d="M590 728q0 -2 -2 -8l-152 -347q-14 -33 -29 -49.5t-32 -23.5v-280q0 -8 -5.5 -14t-13.5 -6h-100q-8 0 -13.5 6t-5.5 14v280q-17 7 -32 23.5t-29 49.5l-151 347q-2 6 -2 8q0 6 4 10.5t12 4.5h111q7 0 12 -5t7 -11l120 -298q5 -13 9.5 -16.5t7.5 -3.5q4 0 8.5 3.5t9.5 16.5
l120 298q2 6 7 11t12 5h110q8 0 12.5 -4.5t4.5 -10.5zM469 819q0 -8 -6.5 -14t-14.5 -6h-72q-8 0 -14.5 6t-6.5 14v88q0 8 6.5 14t14.5 6h72q8 0 14.5 -6t6.5 -14v-88zM269 819q0 -8 -6.5 -14t-14.5 -6h-72q-8 0 -14.5 6t-6.5 14v88q0 8 6.5 14t14.5 6h72q8 0 14.5 -6
t6.5 -14v-88z" />
    <glyph glyph-name="Zcaron" unicode="&#x17d;" horiz-adv-x="588" 
d="M548 20q0 -8 -6 -14t-14 -6h-437q-22 0 -36.5 8.5t-14.5 28.5v55q0 9 2.5 18t10.5 20l317 475q3 4 3 9q0 8 -10 8h-278q-19 0 -19 18v84q0 19 19 19h403q22 0 37.5 -9t15.5 -29v-58q0 -11 -4 -21.5t-10 -19.5l-312 -467q-4 -5 -4 -11t9 -6h308q8 0 14 -5t6 -13v-84z
M499 939q0 -6 -4 -10l-94 -120q-7 -8 -11.5 -11.5t-14.5 -3.5h-130q-10 0 -14.5 3.5t-11.5 11.5l-95 120q-4 4 -4 10q0 7 9 7h86q9 0 13.5 -3.5t10.5 -10.5l71 -79l71 79q6 7 10 10.5t13 3.5h86q9 0 9 -7z" />
    <glyph glyph-name="aacute" unicode="&#xe1;" horiz-adv-x="548" 
d="M483 20q0 -8 -6 -14t-14 -6h-85q-8 0 -14 6t-6 14v16q-35 -21 -70 -32.5t-71 -11.5q-31 0 -62 7t-55.5 26t-40 51t-15.5 83v4q0 43 13.5 75t43 54t76 33t111.5 11h63v44q0 49 -21.5 65t-66.5 16q-48 0 -93 -2.5t-70 -5.5h-5q-8 0 -13 3t-5 14v64q0 17 19 21q30 6 72.5 11
t94.5 5q107 0 163.5 -47t56.5 -144v-360zM351 248h-63q-34 0 -55.5 -5.5t-34 -16t-17 -26.5t-4.5 -37v-4q0 -37 17 -49.5t55 -12.5q27 0 53.5 8t48.5 20v123zM439 772q0 -4 -4 -8l-118 -124q-6 -7 -10.5 -10t-13.5 -3h-86q-9 0 -9 7q0 6 4 10l95 120q7 8 11.5 11.5t14.5 3.5
h105q11 0 11 -7z" />
    <glyph glyph-name="acircumflex" unicode="&#xe2;" horiz-adv-x="548" 
d="M483 20q0 -8 -6 -14t-14 -6h-85q-8 0 -14 6t-6 14v16q-35 -21 -70 -32.5t-71 -11.5q-31 0 -62 7t-55.5 26t-40 51t-15.5 83v4q0 43 13.5 75t43 54t76 33t111.5 11h63v44q0 49 -21.5 65t-66.5 16q-48 0 -93 -2.5t-70 -5.5h-5q-8 0 -13 3t-5 14v64q0 17 19 21q30 6 72.5 11
t94.5 5q107 0 163.5 -47t56.5 -144v-360zM351 248h-63q-34 0 -55.5 -5.5t-34 -16t-17 -26.5t-4.5 -37v-4q0 -37 17 -49.5t55 -12.5q27 0 53.5 8t48.5 20v123zM463 634q0 -7 -9 -7h-83q-9 0 -13 3t-10 10l-71 81l-71 -81q-6 -7 -10.5 -10t-13.5 -3h-83q-9 0 -9 7q0 6 4 10
l92 120q7 8 11.5 11.5t14.5 3.5h130q10 0 14.5 -3.5t11.5 -11.5l91 -120q4 -4 4 -10z" />
    <glyph glyph-name="adieresis" unicode="&#xe4;" horiz-adv-x="548" 
d="M483 20q0 -8 -6 -14t-14 -6h-85q-8 0 -14 6t-6 14v16q-35 -21 -70 -32.5t-71 -11.5q-31 0 -62 7t-55.5 26t-40 51t-15.5 83v4q0 43 13.5 75t43 54t76 33t111.5 11h63v44q0 49 -21.5 65t-66.5 16q-48 0 -93 -2.5t-70 -5.5h-5q-8 0 -13 3t-5 14v64q0 17 19 21q30 6 72.5 11
t94.5 5q107 0 163.5 -47t56.5 -144v-360zM351 248h-63q-34 0 -55.5 -5.5t-34 -16t-17 -26.5t-4.5 -37v-4q0 -37 17 -49.5t55 -12.5q27 0 53.5 8t48.5 20v123zM433 662q0 -8 -6.5 -14t-14.5 -6h-72q-8 0 -14.5 6t-6.5 14v88q0 8 6.5 14t14.5 6h72q8 0 14.5 -6t6.5 -14v-88z
M233 662q0 -8 -6.5 -14t-14.5 -6h-72q-8 0 -14.5 6t-6.5 14v88q0 8 6.5 14t14.5 6h72q8 0 14.5 -6t6.5 -14v-88z" />
    <glyph glyph-name="agrave" unicode="&#xe0;" horiz-adv-x="548" 
d="M483 20q0 -8 -6 -14t-14 -6h-85q-8 0 -14 6t-6 14v16q-35 -21 -70 -32.5t-71 -11.5q-31 0 -62 7t-55.5 26t-40 51t-15.5 83v4q0 43 13.5 75t43 54t76 33t111.5 11h63v44q0 49 -21.5 65t-66.5 16q-48 0 -93 -2.5t-70 -5.5h-5q-8 0 -13 3t-5 14v64q0 17 19 21q30 6 72.5 11
t94.5 5q107 0 163.5 -47t56.5 -144v-360zM351 248h-63q-34 0 -55.5 -5.5t-34 -16t-17 -26.5t-4.5 -37v-4q0 -37 17 -49.5t55 -12.5q27 0 53.5 8t48.5 20v123zM351 634q0 -7 -9 -7h-86q-9 0 -13 3t-10 10l-119 124q-4 4 -4 8q0 7 11 7h106q10 0 14.5 -3.5t11.5 -11.5l94 -120
q4 -4 4 -10z" />
    <glyph glyph-name="aring" unicode="&#xe5;" horiz-adv-x="548" 
d="M483 20q0 -8 -6 -14t-14 -6h-85q-8 0 -14 6t-6 14v16q-35 -21 -70 -32.5t-71 -11.5q-31 0 -62 7t-55.5 26t-40 51t-15.5 83v4q0 43 13.5 75t43 54t76 33t111.5 11h63v44q0 49 -21.5 65t-66.5 16q-48 0 -93 -2.5t-70 -5.5h-5q-8 0 -13 3t-5 14v64q0 17 19 21q30 6 72.5 11
t94.5 5q107 0 163.5 -47t56.5 -144v-360zM351 248h-63q-34 0 -55.5 -5.5t-34 -16t-17 -26.5t-4.5 -37v-4q0 -37 17 -49.5t55 -12.5q27 0 53.5 8t48.5 20v123zM385 731q0 -23 -8.5 -43t-23.5 -35t-35 -23.5t-43 -8.5t-43 8.5t-35 23.5t-24 35t-9 43t9 43t24 35t35 24t43 9
t43 -9t35 -24t23.5 -35t8.5 -43zM323 732q0 20 -14 33.5t-34 13.5t-33 -13.5t-13 -33.5t13 -34t33 -14t34 14t14 34z" />
    <glyph glyph-name="atilde" unicode="&#xe3;" horiz-adv-x="548" 
d="M483 20q0 -8 -6 -14t-14 -6h-85q-8 0 -14 6t-6 14v16q-35 -21 -70 -32.5t-71 -11.5q-31 0 -62 7t-55.5 26t-40 51t-15.5 83v4q0 43 13.5 75t43 54t76 33t111.5 11h63v44q0 49 -21.5 65t-66.5 16q-48 0 -93 -2.5t-70 -5.5h-5q-8 0 -13 3t-5 14v64q0 17 19 21q30 6 72.5 11
t94.5 5q107 0 163.5 -47t56.5 -144v-360zM351 248h-63q-34 0 -55.5 -5.5t-34 -16t-17 -26.5t-4.5 -37v-4q0 -37 17 -49.5t55 -12.5q27 0 53.5 8t48.5 20v123zM467 739q0 -61 -29.5 -86.5t-81.5 -25.5q-17 0 -36 6t-34 17l-44 33q-13 10 -23 15.5t-19 5.5q-12 0 -20 -7
t-8 -27v-21q0 -16 -14 -16h-57q-14 0 -14 16v21q0 60 30 86t82 26q17 0 35.5 -5.5t33.5 -16.5l44 -33q26 -20 42 -20q13 0 20.5 6.5t7.5 26.5v21q0 16 14 16h57q14 0 14 -16v-22z" />
    <glyph glyph-name="ccedilla" unicode="&#xe7;" horiz-adv-x="468" 
d="M423 31q0 -12 -4 -17.5t-17 -8.5q-17 -5 -50 -9t-79 -4q-49 0 -90.5 15t-72 45.5t-48 76t-17.5 106.5v93q0 61 17.5 106.5t48 76t72 45.5t90.5 15q46 0 79 -4t50 -9q13 -3 17 -8.5t4 -17.5v-65q0 -8 -5 -11.5t-13 -3.5h-3q-15 2 -28 3.5t-27 2t-32 1t-42 0.5
q-18 0 -35 -6t-30.5 -20.5t-22 -40t-8.5 -64.5v-93q0 -39 8.5 -64.5t22 -40t30.5 -20.5t35 -6q24 0 42 0.5t32 1t27 2t28 3.5h3q8 0 13 -3.5t5 -11.5v-65zM336 -41q0 -4 -4 -8l-119 -123q-6 -7 -10 -10.5t-13 -3.5h-86q-9 0 -9 7q0 6 4 10l94 120q7 8 11.5 11.5t14.5 3.5
h106q11 0 11 -7z" />
    <glyph glyph-name="eacute" unicode="&#xe9;" horiz-adv-x="574" 
d="M526 261q0 -25 -20 -25h-326v-3q0 -22 5 -44.5t18.5 -41t37 -30t59.5 -11.5q55 0 103.5 3.5t80.5 6.5h3q8 0 13 -3.5t5 -11.5v-66q0 -12 -3.5 -18t-17.5 -8q-24 -5 -45 -8t-42.5 -5t-47 -3t-59.5 -1q-38 0 -80.5 11.5t-78.5 40t-59.5 77t-23.5 122.5v74q0 58 16 105
t46.5 80t75.5 51t102 18q58 0 102.5 -18.5t74.5 -52.5t45.5 -80.5t15.5 -102.5v-56zM393 334q0 59 -29 91t-76 32t-77 -31.5t-30 -91.5v-4h212v4zM456 772q0 -4 -4 -8l-118 -124q-6 -7 -10.5 -10t-13.5 -3h-86q-9 0 -9 7q0 6 4 10l95 120q7 8 11.5 11.5t14.5 3.5h105
q11 0 11 -7z" />
    <glyph glyph-name="ecircumflex" unicode="&#xea;" horiz-adv-x="574" 
d="M526 261q0 -25 -20 -25h-326v-3q0 -22 5 -44.5t18.5 -41t37 -30t59.5 -11.5q55 0 103.5 3.5t80.5 6.5h3q8 0 13 -3.5t5 -11.5v-66q0 -12 -3.5 -18t-17.5 -8q-24 -5 -45 -8t-42.5 -5t-47 -3t-59.5 -1q-38 0 -80.5 11.5t-78.5 40t-59.5 77t-23.5 122.5v74q0 58 16 105
t46.5 80t75.5 51t102 18q58 0 102.5 -18.5t74.5 -52.5t45.5 -80.5t15.5 -102.5v-56zM393 334q0 59 -29 91t-76 32t-77 -31.5t-30 -91.5v-4h212v4zM473 634q0 -7 -9 -7h-83q-9 0 -13 3t-10 10l-71 81l-71 -81q-6 -7 -10.5 -10t-13.5 -3h-83q-9 0 -9 7q0 6 4 10l92 120
q7 8 11.5 11.5t14.5 3.5h130q10 0 14.5 -3.5t11.5 -11.5l91 -120q4 -4 4 -10z" />
    <glyph glyph-name="edieresis" unicode="&#xeb;" horiz-adv-x="574" 
d="M526 261q0 -25 -20 -25h-326v-3q0 -22 5 -44.5t18.5 -41t37 -30t59.5 -11.5q55 0 103.5 3.5t80.5 6.5h3q8 0 13 -3.5t5 -11.5v-66q0 -12 -3.5 -18t-17.5 -8q-24 -5 -45 -8t-42.5 -5t-47 -3t-59.5 -1q-38 0 -80.5 11.5t-78.5 40t-59.5 77t-23.5 122.5v74q0 58 16 105
t46.5 80t75.5 51t102 18q58 0 102.5 -18.5t74.5 -52.5t45.5 -80.5t15.5 -102.5v-56zM393 334q0 59 -29 91t-76 32t-77 -31.5t-30 -91.5v-4h212v4zM443 659q0 -8 -6.5 -14t-14.5 -6h-72q-8 0 -14.5 6t-6.5 14v88q0 8 6.5 14t14.5 6h72q8 0 14.5 -6t6.5 -14v-88zM243 659
q0 -8 -6.5 -14t-14.5 -6h-72q-8 0 -14.5 6t-6.5 14v88q0 8 6.5 14t14.5 6h72q8 0 14.5 -6t6.5 -14v-88z" />
    <glyph glyph-name="egrave" unicode="&#xe8;" horiz-adv-x="574" 
d="M526 261q0 -25 -20 -25h-326v-3q0 -22 5 -44.5t18.5 -41t37 -30t59.5 -11.5q55 0 103.5 3.5t80.5 6.5h3q8 0 13 -3.5t5 -11.5v-66q0 -12 -3.5 -18t-17.5 -8q-24 -5 -45 -8t-42.5 -5t-47 -3t-59.5 -1q-38 0 -80.5 11.5t-78.5 40t-59.5 77t-23.5 122.5v74q0 58 16 105
t46.5 80t75.5 51t102 18q58 0 102.5 -18.5t74.5 -52.5t45.5 -80.5t15.5 -102.5v-56zM393 334q0 59 -29 91t-76 32t-77 -31.5t-30 -91.5v-4h212v4zM352 634q0 -7 -9 -7h-86q-9 0 -13 3t-10 10l-119 124q-4 4 -4 8q0 7 11 7h106q10 0 14.5 -3.5t11.5 -11.5l94 -120q4 -4 4 -10
z" />
    <glyph glyph-name="iacute" unicode="&#xed;" horiz-adv-x="268" 
d="M302 772q0 -4 -4 -8l-118 -124q-6 -7 -10.5 -10t-13.5 -3h-86q-9 0 -9 7q0 6 4 10l95 120q7 8 11.5 11.5t14.5 3.5h105q11 0 11 -7zM201 21q0 -8 -6 -14.5t-14 -6.5h-92q-8 0 -14.5 6.5t-6.5 14.5v523q0 8 6 14t14 6h92q8 0 14 -6t6 -14v-523h1z" />
    <glyph glyph-name="icircumflex" unicode="&#xee;" horiz-adv-x="268" 
d="M200 21q0 -8 -6 -14.5t-14 -6.5h-92q-8 0 -14 6.5t-6 14.5v523q0 8 6 14t14 6h92q8 0 14 -6t6 -14v-523zM321 634q0 -7 -9 -7h-83q-9 0 -13 3t-10 10l-71 81l-71 -81q-6 -7 -10.5 -10t-13.5 -3h-83q-9 0 -9 7q0 6 4 10l92 120q7 8 11.5 11.5t14.5 3.5h130q10 0 14.5 -3.5
t11.5 -11.5l91 -120q4 -4 4 -10z" />
    <glyph glyph-name="idieresis" unicode="&#xef;" horiz-adv-x="268" 
d="M200 21q0 -8 -6 -14.5t-14 -6.5h-92q-8 0 -14 6.5t-6 14.5v523q0 8 6 14t14 6h92q8 0 14 -6t6 -14v-523zM291 659q0 -8 -6.5 -14t-14.5 -6h-72q-8 0 -14.5 6t-6.5 14v88q0 8 6.5 14t14.5 6h72q8 0 14.5 -6t6.5 -14v-88zM91 659q0 -8 -6.5 -14t-14.5 -6h-72q-8 0 -14.5 6
t-6.5 14v88q0 8 6.5 14t14.5 6h72q8 0 14.5 -6t6.5 -14v-88z" />
    <glyph glyph-name="igrave" unicode="&#xec;" horiz-adv-x="268" 
d="M212 634q0 -7 -9 -7h-86q-9 0 -12.5 3t-10.5 10l-119 124q-4 4 -4 8q0 7 11 7h106q10 0 14.5 -3.5t11.5 -11.5l94 -120q4 -4 4 -10zM200 21q0 -8 -6 -14.5t-14 -6.5h-92q-8 0 -14 6.5t-6 14.5v523q0 8 6 14t14 6h92q8 0 14 -6t6 -14v-523z" />
    <glyph glyph-name="ntilde" unicode="&#xf1;" horiz-adv-x="592" 
d="M527 21q0 -8 -6 -14.5t-14 -6.5h-92q-8 0 -14 6.5t-6 14.5v326q0 33 -2.5 54.5t-11 34t-25.5 18t-46 5.5q-26 0 -53.5 -9.5t-59.5 -26.5v-402q0 -8 -6 -14.5t-14 -6.5h-92q-8 0 -14 6.5t-6 14.5v523q0 8 6 14t14 6h87q8 0 14 -6t6 -14v-21q22 14 40.5 23t37.5 14.5t39 8
t45 2.5q54 0 88 -17t52.5 -47t25.5 -71t7 -89v-326zM482 739q0 -61 -29.5 -86.5t-81.5 -25.5q-17 0 -36 6t-34 17l-44 33q-13 10 -23 15.5t-19 5.5q-12 0 -20 -7t-8 -27v-21q0 -16 -14 -16h-57q-14 0 -14 16v21q0 60 30 86t82 26q17 0 35.5 -5.5t33.5 -16.5l44 -33
q26 -20 42 -20q13 0 20.5 6.5t7.5 26.5v21q0 16 14 16h57q14 0 14 -16v-22z" />
    <glyph glyph-name="oacute" unicode="&#xf3;" horiz-adv-x="574" 
d="M526 241q0 -54 -15.5 -99.5t-45.5 -78.5t-74.5 -52t-103.5 -19t-103.5 19t-74.5 52t-45.5 78.5t-15.5 99.5v81q0 54 15.5 99.5t45.5 78.5t74.5 52t103.5 19t103.5 -19t74.5 -52t45.5 -78.5t15.5 -99.5v-81zM394 322q0 62 -27 98.5t-80 36.5t-80 -36.5t-27 -98.5v-81
q0 -62 27 -98.5t80 -36.5t80 36.5t27 98.5v81zM441 772q0 -4 -4 -8l-118 -124q-6 -7 -10.5 -10t-13.5 -3h-86q-9 0 -9 7q0 6 4 10l95 120q7 8 11.5 11.5t14.5 3.5h105q11 0 11 -7z" />
    <glyph glyph-name="ocircumflex" unicode="&#xf4;" horiz-adv-x="574" 
d="M526 241q0 -54 -15.5 -99.5t-45.5 -78.5t-74.5 -52t-103.5 -19t-103.5 19t-74.5 52t-45.5 78.5t-15.5 99.5v81q0 54 15.5 99.5t45.5 78.5t74.5 52t103.5 19t103.5 -19t74.5 -52t45.5 -78.5t15.5 -99.5v-81zM394 322q0 62 -27 98.5t-80 36.5t-80 -36.5t-27 -98.5v-81
q0 -62 27 -98.5t80 -36.5t80 36.5t27 98.5v81zM472 634q0 -7 -9 -7h-83q-9 0 -13 3t-10 10l-71 81l-71 -81q-6 -7 -10.5 -10t-13.5 -3h-83q-9 0 -9 7q0 6 4 10l92 120q7 8 11.5 11.5t14.5 3.5h130q10 0 14.5 -3.5t11.5 -11.5l91 -120q4 -4 4 -10z" />
    <glyph glyph-name="odieresis" unicode="&#xf6;" horiz-adv-x="574" 
d="M526 241q0 -54 -15.5 -99.5t-45.5 -78.5t-74.5 -52t-103.5 -19t-103.5 19t-74.5 52t-45.5 78.5t-15.5 99.5v81q0 54 15.5 99.5t45.5 78.5t74.5 52t103.5 19t103.5 -19t74.5 -52t45.5 -78.5t15.5 -99.5v-81zM394 322q0 62 -27 98.5t-80 36.5t-80 -36.5t-27 -98.5v-81
q0 -62 27 -98.5t80 -36.5t80 36.5t27 98.5v81zM442 659q0 -8 -6.5 -14t-14.5 -6h-72q-8 0 -14.5 6t-6.5 14v88q0 8 6.5 14t14.5 6h72q8 0 14.5 -6t6.5 -14v-88zM242 659q0 -8 -6.5 -14t-14.5 -6h-72q-8 0 -14.5 6t-6.5 14v88q0 8 6.5 14t14.5 6h72q8 0 14.5 -6t6.5 -14v-88z
" />
    <glyph glyph-name="ograve" unicode="&#xf2;" horiz-adv-x="574" 
d="M526 241q0 -54 -15.5 -99.5t-45.5 -78.5t-74.5 -52t-103.5 -19t-103.5 19t-74.5 52t-45.5 78.5t-15.5 99.5v81q0 54 15.5 99.5t45.5 78.5t74.5 52t103.5 19t103.5 -19t74.5 -52t45.5 -78.5t15.5 -99.5v-81zM394 322q0 62 -27 98.5t-80 36.5t-80 -36.5t-27 -98.5v-81
q0 -62 27 -98.5t80 -36.5t80 36.5t27 98.5v81zM368 634q0 -7 -9 -7h-86q-9 0 -13 3t-10 10l-119 124q-4 4 -4 8q0 7 11 7h106q10 0 14.5 -3.5t11.5 -11.5l94 -120q4 -4 4 -10z" />
    <glyph glyph-name="otilde" unicode="&#xf5;" horiz-adv-x="574" 
d="M526 241q0 -54 -15.5 -99.5t-45.5 -78.5t-74.5 -52t-103.5 -19t-103.5 19t-74.5 52t-45.5 78.5t-15.5 99.5v81q0 54 15.5 99.5t45.5 78.5t74.5 52t103.5 19t103.5 -19t74.5 -52t45.5 -78.5t15.5 -99.5v-81zM394 322q0 62 -27 98.5t-80 36.5t-80 -36.5t-27 -98.5v-81
q0 -62 27 -98.5t80 -36.5t80 36.5t27 98.5v81zM474 739q0 -61 -29.5 -86.5t-81.5 -25.5q-17 0 -36 6t-34 17l-44 33q-13 10 -23 15.5t-19 5.5q-12 0 -20 -7t-8 -27v-21q0 -16 -14 -16h-57q-14 0 -14 16v21q0 60 30 86t82 26q17 0 35.5 -5.5t33.5 -16.5l44 -33q26 -20 42 -20
q13 0 20.5 6.5t7.5 26.5v21q0 16 14 16h57q14 0 14 -16v-22z" />
    <glyph glyph-name="scaron" unicode="&#x161;" horiz-adv-x="489" 
d="M444 148q0 -33 -12 -61.5t-36.5 -49.5t-61.5 -33t-86 -12q-15 0 -36.5 1t-46.5 3.5t-50 6t-46 9.5q-19 5 -19 23v60q0 6 4.5 11t12.5 5h4q18 -2 42.5 -4t48.5 -3.5t45 -2.5t32 -1q23 0 37 3.5t21.5 10t10 15.5t2.5 19q0 14 -10 25t-34 26l-137 84q-37 23 -60.5 58.5
t-23.5 79.5q0 150 190 150q30 0 54.5 -1.5t45.5 -4.5t40 -6.5t38 -7.5q18 -5 18 -23v-58q0 -19 -16 -19h-4q-11 1 -30 3.5t-42 4l-47.5 3t-45.5 1.5q-36 0 -52.5 -9.5t-16.5 -32.5q0 -12 10.5 -21t29.5 -20l131 -80q31 -19 50 -38t29.5 -38t13.5 -38t3 -38zM433 772
q0 -6 -4 -10l-94 -120q-7 -8 -11.5 -11.5t-14.5 -3.5h-130q-10 0 -14.5 3.5t-11.5 11.5l-95 120q-4 4 -4 10q0 7 9 7h86q9 0 13.5 -3.5t10.5 -10.5l71 -79l71 79q6 7 10 10.5t13 3.5h86q9 0 9 -7z" />
    <glyph glyph-name="uacute" unicode="&#xfa;" horiz-adv-x="592" 
d="M527 20q0 -8 -6 -14t-14 -6h-92q-8 0 -14 6t-6 14v23q-39 -26 -74 -38t-83 -12q-38 0 -69.5 10t-53.5 32q-28 28 -39 73.5t-11 108.5v326q0 8 6 14.5t14 6.5h92q8 0 14 -6.5t6 -14.5v-326q0 -38 4.5 -60.5t18.5 -35.5q11 -9 25 -13.5t37 -4.5q14 0 29.5 4t30.5 10
t28.5 13l24.5 13v400q0 8 6 14.5t14 6.5h92q8 0 14 -6.5t6 -14.5v-523zM463 772q0 -4 -4 -8l-118 -124q-6 -7 -10.5 -10t-13.5 -3h-86q-9 0 -9 7q0 6 4 10l95 120q7 8 11.5 11.5t14.5 3.5h105q11 0 11 -7z" />
    <glyph glyph-name="ucircumflex" unicode="&#xfb;" horiz-adv-x="592" 
d="M527 20q0 -8 -6 -14t-14 -6h-92q-8 0 -14 6t-6 14v23q-39 -26 -74 -38t-83 -12q-38 0 -69.5 10t-53.5 32q-28 28 -39 73.5t-11 108.5v326q0 8 6 14.5t14 6.5h92q8 0 14 -6.5t6 -14.5v-326q0 -38 4.5 -60.5t18.5 -35.5q11 -9 25 -13.5t37 -4.5q14 0 29.5 4t30.5 10
t28.5 13l24.5 13v400q0 8 6 14.5t14 6.5h92q8 0 14 -6.5t6 -14.5v-523zM481 634q0 -7 -9 -7h-83q-9 0 -13 3t-10 10l-71 81l-71 -81q-6 -7 -10.5 -10t-13.5 -3h-83q-9 0 -9 7q0 6 4 10l92 120q7 8 11.5 11.5t14.5 3.5h130q10 0 14.5 -3.5t11.5 -11.5l91 -120q4 -4 4 -10z
" />
    <glyph glyph-name="udieresis" unicode="&#xfc;" horiz-adv-x="592" 
d="M527 20q0 -8 -6 -14t-14 -6h-92q-8 0 -14 6t-6 14v23q-39 -26 -74 -38t-83 -12q-38 0 -69.5 10t-53.5 32q-28 28 -39 73.5t-11 108.5v326q0 8 6 14.5t14 6.5h92q8 0 14 -6.5t6 -14.5v-326q0 -38 4.5 -60.5t18.5 -35.5q11 -9 25 -13.5t37 -4.5q14 0 29.5 4t30.5 10
t28.5 13l24.5 13v400q0 8 6 14.5t14 6.5h92q8 0 14 -6.5t6 -14.5v-523zM458 659q0 -8 -6.5 -14t-14.5 -6h-72q-8 0 -14.5 6t-6.5 14v88q0 8 6.5 14t14.5 6h72q8 0 14.5 -6t6.5 -14v-88zM258 659q0 -8 -6.5 -14t-14.5 -6h-72q-8 0 -14.5 6t-6.5 14v88q0 8 6.5 14t14.5 6h72
q8 0 14.5 -6t6.5 -14v-88z" />
    <glyph glyph-name="ugrave" unicode="&#xf9;" horiz-adv-x="592" 
d="M527 20q0 -8 -6 -14t-14 -6h-92q-8 0 -14 6t-6 14v23q-39 -26 -74 -38t-83 -12q-38 0 -69.5 10t-53.5 32q-28 28 -39 73.5t-11 108.5v326q0 8 6 14.5t14 6.5h92q8 0 14 -6.5t6 -14.5v-326q0 -38 4.5 -60.5t18.5 -35.5q11 -9 25 -13.5t37 -4.5q14 0 29.5 4t30.5 10
t28.5 13l24.5 13v400q0 8 6 14.5t14 6.5h92q8 0 14 -6.5t6 -14.5v-523zM380 634q0 -7 -9 -7h-86q-9 0 -13 3t-10 10l-119 124q-4 4 -4 8q0 7 11 7h106q10 0 14.5 -3.5t11.5 -11.5l94 -120q4 -4 4 -10z" />
    <glyph glyph-name="yacute" unicode="&#xfd;" horiz-adv-x="560" 
d="M535 547q0 -4 -1 -6l-167 -584q-12 -41 -26 -70.5t-36.5 -49t-56.5 -28.5t-85 -9q-12 0 -27 1t-29.5 3t-27.5 4t-22 5q-8 2 -14.5 5.5t-6.5 11.5v64q0 8 6 13t14 5h2q10 0 25.5 -1l31 -2l30.5 -2t26 -1q32 0 50 12.5t29 51.5l8 30h-15q-11 0 -23 2.5t-23.5 10.5t-22 24.5
t-18.5 45.5l-131 458q-1 3 -1 7q0 16 19 16h101q7 0 12 -5.5t7 -12.5l101 -407q3 -13 6 -17.5t8 -4.5h1h5h3l108 430q2 7 7 12t13 5h102q8 0 13 -5t5 -12zM471 772q0 -4 -4 -8l-118 -124q-6 -7 -10.5 -10t-13.5 -3h-86q-9 0 -9 7q0 6 4 10l95 120q7 8 11.5 11.5t14.5 3.5
h105q11 0 11 -7z" />
    <glyph glyph-name="ydieresis" unicode="&#xff;" horiz-adv-x="560" 
d="M535 547q0 -4 -1 -6l-167 -584q-12 -41 -26 -70.5t-36.5 -49t-56.5 -28.5t-85 -9q-12 0 -27 1t-29.5 3t-27.5 4t-22 5q-8 2 -14.5 5.5t-6.5 11.5v64q0 8 6 13t14 5h2q10 0 25.5 -1l31 -2l30.5 -2t26 -1q32 0 50 12.5t29 51.5l8 30h-15q-11 0 -23 2.5t-23.5 10.5t-22 24.5
t-18.5 45.5l-131 458q-1 3 -1 7q0 16 19 16h101q7 0 12 -5.5t7 -12.5l101 -407q3 -13 6 -17.5t8 -4.5h1h5h3l108 430q2 7 7 12t13 5h102q8 0 13 -5t5 -12zM443 659q0 -8 -6.5 -14t-14.5 -6h-72q-8 0 -14.5 6t-6.5 14v88q0 8 6.5 14t14.5 6h72q8 0 14.5 -6t6.5 -14v-88z
M243 659q0 -8 -6.5 -14t-14.5 -6h-72q-8 0 -14.5 6t-6.5 14v88q0 8 6.5 14t14.5 6h72q8 0 14.5 -6t6.5 -14v-88z" />
    <glyph glyph-name="zcaron" unicode="&#x17e;" horiz-adv-x="490" 
d="M450 20q0 -8 -6 -14t-14 -6h-350q-17 0 -28.5 11.5t-11.5 28.5v43q0 15 13 32l242 333q3 4 3 6q0 3 -6 3h-226q-8 0 -13 4t-5 12v71q0 8 6 14t14 6h340q17 0 28.5 -12t11.5 -29v-57q0 -4 -1.5 -12t-3.5 -11l-233 -319l-2 -3q0 -4 6 -4h218q8 0 13 -4t5 -12v-81zM449 772
q0 -6 -4 -10l-94 -120q-7 -8 -11.5 -11.5t-14.5 -3.5h-130q-10 0 -14.5 3.5t-11.5 11.5l-95 120q-4 4 -4 10q0 7 9 7h86q9 0 13.5 -3.5t10.5 -10.5l71 -79l71 79q6 7 10 10.5t13 3.5h86q9 0 9 -7z" />
    <glyph glyph-name="oneeighth" unicode="&#x215b;" horiz-adv-x="764" 
d="M120 751q3 2 9.5 2.5t11.5 0.5h36q10 0 13.5 -5t3.5 -12v-380q0 -7 -5 -12t-12 -5h-53q-7 0 -12 5t-5 12v307l-56 -19q-7 -2 -14 -0.5t-7 11.5v53q0 5 2 7t7 4zM600 735q0 -7 -4 -12l-419 -709q-6 -11 -9.5 -14t-11.5 -3h-82q-10 0 -10 9q0 7 4 12l419 708q6 10 10 13.5
t12 3.5h81q10 0 10 -8zM734 122q0 -34 -11.5 -58t-31.5 -39t-46 -22t-55 -7h-5q-29 0 -55 7t-46 22t-31.5 39t-11.5 58v5q0 26 12 49t32 39q-25 17 -34 38t-9 49q0 31 11.5 53.5t31 36t45.5 20t55 6.5h5q29 0 55 -6.5t45.5 -20.5t31 -36.5t11.5 -54.5q0 -26 -10 -47t-34 -38
q45 -33 45 -88v-5zM650 127q0 9 -2.5 18.5t-8.5 17.5t-16 13t-24 5h-23q-14 0 -24 -5t-16 -13t-8.5 -17.5t-2.5 -18.5v-5q0 -26 15 -42t45 -16h5q30 0 45 16t15 42v5zM585 351q-33 0 -47 -14t-14 -40q0 -21 12 -35t40 -14h23q28 0 40.5 14t12.5 35q0 26 -14 40t-47 14h-6z
" />
    <glyph glyph-name="threeeighths" unicode="&#x215c;" horiz-adv-x="829" 
d="M665 735q0 -7 -4 -12l-419 -709q-6 -11 -9.5 -14t-11.5 -3h-82q-10 0 -10 9q0 7 4 12l419 708q6 10 10 13.5t12 3.5h81q10 0 10 -8zM799 122q0 -34 -11.5 -58t-31.5 -39t-46 -22t-55 -7h-5q-29 0 -55 7t-46 22t-31.5 39t-11.5 58v5q0 26 12 49t32 39q-25 17 -34 38t-9 49
q0 31 11.5 53.5t31 36t45.5 20t55 6.5h5q29 0 55 -6.5t45.5 -20.5t31 -36.5t11.5 -54.5q0 -26 -10 -47t-34 -38q45 -33 45 -88v-5zM715 127q0 9 -2.5 18.5t-8.5 17.5t-16 13t-24 5h-23q-14 0 -24 -5t-16 -13t-8.5 -17.5t-2.5 -18.5v-5q0 -26 15 -42t45 -16h5q30 0 45 16
t15 42v5zM650 351q-33 0 -47 -14t-14 -40q0 -21 12 -35t40 -14h23q28 0 40.5 14t12.5 35q0 26 -14 40t-47 14h-6zM292 458q0 -32 -11 -55t-30 -38t-45 -22t-56 -7q-29 0 -55 4t-49 9q-6 2 -11 6.5t-5 10.5v33q0 8 5 12t13 4q32 -4 58 -6t44 -2q30 0 42.5 13t12.5 38v12
q0 19 -8.5 34t-35.5 15h-95q-7 0 -12 4t-5 12v34q0 8 5 12t12 4h95q27 0 35.5 13.5t8.5 33.5v9q0 18 -10.5 32t-44.5 14q-28 0 -51.5 -2.5l-52.5 -5.5q-6 0 -11 4t-5 12v33q0 5 5 9.5t11 6.5q23 6 49 10t55 4q30 0 56 -6.5t45 -20.5t30 -36t11 -54v-9q0 -55 -41 -80
q20 -14 30.5 -35.5t10.5 -46.5v-12z" />
    <glyph glyph-name="fiveeighths" unicode="&#x215d;" horiz-adv-x="833" 
d="M669 735q0 -7 -4 -12l-419 -709q-6 -11 -9.5 -14t-11.5 -3h-82q-10 0 -10 9q0 7 4 12l419 708q6 10 10 13.5t12 3.5h81q10 0 10 -8zM803 122q0 -34 -11.5 -58t-31.5 -39t-46 -22t-55 -7h-5q-29 0 -55 7t-46 22t-31.5 39t-11.5 58v5q0 26 12 49t32 39q-25 17 -34 38t-9 49
q0 31 11.5 53.5t31 36t45.5 20t55 6.5h5q29 0 55 -6.5t45.5 -20.5t31 -36.5t11.5 -54.5q0 -26 -10 -47t-34 -38q45 -33 45 -88v-5zM719 127q0 9 -2.5 18.5t-8.5 17.5t-16 13t-24 5h-23q-14 0 -24 -5t-16 -13t-8.5 -17.5t-2.5 -18.5v-5q0 -26 15 -42t45 -16h5q30 0 45 16
t15 42v5zM654 351q-33 0 -47 -14t-14 -40q0 -21 12 -35t40 -14h23q28 0 40.5 14t12.5 35q0 26 -14 40t-47 14h-6zM296 474q0 -65 -35.5 -101.5t-110.5 -36.5q-24 0 -52.5 3.5t-51.5 9.5q-7 2 -11.5 5t-4.5 13v32q0 8 5 12t13 4q32 -5 58 -6.5t44 -1.5q35 0 46.5 18.5
t11.5 51.5q0 31 -20.5 43t-68.5 12h-73q-6 0 -9 4t-3 9l17 195q2 5 6.5 9.5t10.5 4.5h196q7 0 12 -5t5 -12v-41q0 -8 -5 -12t-12 -4h-141l-7 -77h3q32 0 63.5 -4.5t57 -18t41 -38t15.5 -65.5v-3z" />
    <glyph glyph-name="seveneighths" unicode="&#x215e;" horiz-adv-x="750" 
d="M586 735q0 -7 -4 -12l-419 -709q-6 -11 -9.5 -14t-11.5 -3h-82q-10 0 -10 9q0 7 4 12l419 708q6 10 10 13.5t12 3.5h81q10 0 10 -8zM720 122q0 -34 -11.5 -58t-31.5 -39t-46 -22t-55 -7h-5q-29 0 -55 7t-46 22t-31.5 39t-11.5 58v5q0 26 12 49t32 39q-25 17 -34 38t-9 49
q0 31 11.5 53.5t31 36t45.5 20t55 6.5h5q29 0 55 -6.5t45.5 -20.5t31 -36.5t11.5 -54.5q0 -26 -10 -47t-34 -38q45 -33 45 -88v-5zM636 127q0 9 -2.5 18.5t-8.5 17.5t-16 13t-24 5h-23q-14 0 -24 -5t-16 -13t-8.5 -17.5t-2.5 -18.5v-5q0 -26 15 -42t45 -16h5q30 0 45 16
t15 42v5zM571 351q-33 0 -47 -14t-14 -40q0 -21 12 -35t40 -14h23q28 0 40.5 14t12.5 35q0 26 -14 40t-47 14h-6zM143 354q-8 -14 -19 -14h-56q-9 0 -12.5 6.5t-0.5 13.5l153 320h-161q-7 0 -12 4t-5 12v41q0 7 5 12t12 5h225q18 0 23 -8.5t5 -19.5v-21q0 -11 -2.5 -18
t-7.5 -17z" />
    <glyph glyph-name="onethird" unicode="&#x2153;" horiz-adv-x="748" 
d="M120 751q3 2 9.5 2.5t11.5 0.5h36q10 0 13.5 -5t3.5 -12v-380q0 -7 -5 -12t-12 -5h-53q-7 0 -12 5t-5 12v307l-56 -19q-7 -2 -14 -0.5t-7 11.5v53q0 5 2 7t7 4zM600 735q0 -7 -4 -12l-419 -709q-6 -11 -9.5 -14t-11.5 -3h-82q-10 0 -10 9q0 7 4 12l419 708q6 10 10 13.5
t12 3.5h81q10 0 10 -8zM718 118q0 -32 -11 -55t-30 -38t-45 -22t-56 -7q-29 0 -55 4t-49 9q-6 2 -11 6.5t-5 10.5v33q0 8 5 12t13 4q32 -4 58 -6t44 -2q30 0 42.5 13t12.5 38v12q0 19 -8.5 34t-35.5 15h-95q-7 0 -12 4t-5 12v34q0 8 5 12t12 4h95q27 0 35.5 13.5t8.5 33.5v9
q0 18 -10.5 32t-44.5 14q-28 0 -51.5 -2.5l-52.5 -5.5q-6 0 -11 4t-5 12v33q0 5 5 9.5t11 6.5q23 6 49 10t55 4q30 0 56 -6.5t45 -20.5t30 -36t11 -54v-9q0 -55 -41 -80q20 -14 30.5 -35.5t10.5 -46.5v-12z" />
    <glyph glyph-name="twothirds" unicode="&#x2154;" horiz-adv-x="827" 
d="M679 735q0 -7 -4 -12l-419 -709q-6 -11 -9.5 -14t-11.5 -3h-82q-10 0 -10 9q0 7 4 12l419 708q6 10 10 13.5t12 3.5h81q10 0 10 -8zM797 118q0 -32 -11 -55t-30 -38t-45 -22t-56 -7q-29 0 -55 4t-49 9q-6 2 -11 6.5t-5 10.5v33q0 8 5 12t13 4q32 -4 58 -6t44 -2
q30 0 42.5 13t12.5 38v12q0 19 -8.5 34t-35.5 15h-95q-7 0 -12 4t-5 12v34q0 8 5 12t12 4h95q27 0 35.5 13.5t8.5 33.5v9q0 18 -10.5 32t-44.5 14q-28 0 -51.5 -2.5l-52.5 -5.5q-6 0 -11 4t-5 12v33q0 5 5 9.5t11 6.5q23 6 49 10t55 4q30 0 56 -6.5t45 -20.5t30 -36t11 -54
v-9q0 -55 -41 -80q20 -14 30.5 -35.5t10.5 -46.5v-12zM297 653q0 -35 -18.5 -60.5t-52.5 -48.5l-48 -33q-34 -23 -53 -45t-21 -52h172q7 0 12 -4t5 -12v-41q0 -7 -5 -12t-12 -5h-229q-7 0 -12 5t-5 12v53q0 45 25.5 84t59.5 62l54 36q26 17 36 29t10 32q0 19 -13 26.5
t-44 7.5q-23 0 -53 -2.5t-55 -5.5q-8 0 -12.5 5t-4.5 12v32q0 6 4.5 10t10.5 6h-1q21 6 52.5 10t58.5 4q74 0 106.5 -25.5t32.5 -79.5z" />
    <glyph glyph-name="zero.oldstyle" unicode="&#xf730;" 
d="M576 286q0 -78 -18 -134t-52 -91.5t-82 -52t-109 -16.5t-109.5 16.5t-82 52t-51.5 91.5t-18 134v14q0 78 18 134t51.5 92t82 52.5t109.5 16.5t109 -16.5t82 -52.5t52 -92t18 -134v-14zM437 300q0 53 -9.5 88t-26 56t-38.5 29.5t-48 8.5t-48 -8.5t-38.5 -29.5t-26 -56
t-9.5 -88v-14q0 -53 9.5 -88t26 -55.5t38.5 -29t48 -8.5t48 8.5t38.5 29t26 55.5t9.5 88v14z" />
    <glyph glyph-name="one.oldstyle" unicode="&#xf731;" horiz-adv-x="462" 
d="M330 20q0 -8 -6 -14t-14 -6h-98q-8 0 -14 6t-6 14v420l-118 -40q-5 -2 -12 -2q-11 0 -11 12v97q0 8 7 11l164 58q5 2 10 3t13 1h66q19 0 19 -19v-541v0z" />
    <glyph glyph-name="two.oldstyle" unicode="&#xf732;" 
d="M553 412q0 -38 -16 -67t-42 -51.5t-59.5 -40t-68.5 -32.5l-60 -24.5t-51.5 -23.5t-36 -25.5t-13.5 -29.5v-4h319q8 0 14 -5t6 -13v-76q0 -8 -6 -14t-14 -6h-424q-8 0 -14 6t-6 14v69q0 48 15 81t42 57.5t64 43t82 36.5l52 22t44.5 23.5t31.5 27t12 32.5q0 41 -27 57.5
t-90 16.5q-22 0 -47.5 -1.5t-52 -3.5t-52.5 -4.5t-48 -5.5h-2q-8 0 -13 6t-5 14v60q0 8 5.5 12.5t13.5 6.5q19 5 44 9.5t51.5 8t54 5.5t51.5 2q131 0 188.5 -45t57.5 -138z" />
    <glyph glyph-name="three.oldstyle" unicode="&#xf733;" 
d="M546 52q0 -56 -19.5 -96.5t-53 -67t-79.5 -39.5t-99 -13q-56 0 -102.5 7t-89.5 18q-8 2 -13.5 6.5t-5.5 12.5v62q0 8 5 13t13 5h2q60 -6 107.5 -10t83.5 -4q61 0 86.5 26.5t25.5 79.5v21q0 20 -3.5 38t-14 32t-28.5 22.5t-46 8.5h-177q-19 0 -19 19v63q0 19 19 19h177
q28 0 46 8t28.5 21.5t14 31t3.5 37.5v16q0 19 -4.5 36.5t-17 30.5t-34.5 21t-56 8q-27 0 -47.5 -1t-41.5 -2.5t-45 -4.5t-57 -6h-2q-8 0 -13 5t-5 13v62q0 8 5.5 12.5t13.5 6.5q43 11 89.5 18t102.5 7q54 0 100 -11t79.5 -35.5t52.5 -63.5t19 -96v-16q0 -53 -22.5 -89.5
t-63.5 -58.5q42 -23 64 -63.5t22 -88.5v-21v0z" />
    <glyph glyph-name="four.oldstyle" unicode="&#xf734;" 
d="M592 36q0 -8 -6 -14t-14 -6h-74v-159q0 -8 -5 -14t-13 -6h-103q-8 0 -13 6t-5 14v159h-300q-8 0 -14 6t-6 14v81q0 18 11 32l308 413q5 8 11.5 13t17.5 5h91q8 0 14 -6t6 -14v-434h74q8 0 14 -6t6 -14v-70zM360 380q0 6 -3 6t-7 -6l-175 -243q-3 -3 -3 -6q0 -5 8 -5h180
v254z" />
    <glyph glyph-name="five.oldstyle" unicode="&#xf735;" 
d="M552 74q0 -113 -63 -179t-194 -66q-45 0 -97 7t-95 18q-8 2 -13.5 6.5t-5.5 15.5v59q0 8 5 13t13 5h2q60 -8 107.5 -11t83.5 -3q35 0 58 9.5t36.5 27t18.5 42.5t5 56v5q0 62 -41.5 87t-135.5 25h-135q-5 0 -8 4.5t-3 8.5v2l32 356q1 8 6.5 13t13.5 5h363q8 0 14 -5.5
t6 -13.5v-76q0 -8 -6 -13.5t-14 -5.5h-271l-15 -166h17q57 0 113.5 -7.5t101.5 -31t73 -67t28 -115.5v-5v0z" />
    <glyph glyph-name="six.oldstyle" unicode="&#xf736;" 
d="M580 240q0 -56 -17 -101.5t-50 -78t-81 -50.5t-110 -18q-56 0 -104 18t-83 55.5t-55 96t-20 139.5v115q0 90 17.5 154t52.5 104t86.5 58.5t120.5 18.5q66 0 113 -7t72 -12q11 -2 17 -6.5t6 -14.5v-62q0 -21 -19 -21h-4q-14 2 -36.5 4.5t-48 4.5t-52 3t-48.5 1
q-38 0 -64.5 -9t-43 -30.5t-24.5 -56.5t-9 -86q24 5 61 8t78 3q49 0 93 -11.5t78 -37t54 -68t20 -103.5v-10zM444 250q0 35 -11 58t-30 36.5t-44 19t-52 5.5q-22 0 -55 -3t-56 -8v-57q0 -63 9.5 -102t26 -61t40 -30t50.5 -8q25 0 47.5 6.5t39 22.5t26 43t9.5 68v10z" />
    <glyph glyph-name="seven.oldstyle" unicode="&#xf737;" horiz-adv-x="568" 
d="M528 486q0 -8 -5 -18.5l-13 -27.5l-270 -584q-5 -11 -11 -15t-16 -4h-104q-7 0 -10.5 4.5t-3.5 10.5q0 3 2 9l287 598q3 7 -5 7h-308q-8 0 -14 5t-6 13v77q0 8 6 13.5t14 5.5h417q17 0 28.5 -11.5t11.5 -28.5v-54v0z" />
    <glyph glyph-name="eight.oldstyle" unicode="&#xf738;" 
d="M577 215q0 -59 -21 -101.5t-56.5 -69.5t-82 -39.5t-97.5 -12.5h-10q-51 0 -97.5 12.5t-81.5 39.5t-56 69.5t-21 101.5v9q0 51 25 92.5t66 70.5q-46 30 -66.5 69.5t-20.5 86.5v4q0 56 20 95t54.5 63t80.5 35t97 11h10q51 0 97.5 -11t81 -35t55 -63t20.5 -95v-4
q0 -47 -21 -86.5t-67 -69.5q41 -29 66 -70.5t25 -92.5v-9zM445 543q0 51 -29.5 78.5t-95.5 27.5h-10q-66 0 -94.5 -27.5t-28.5 -78.5v-4q0 -44 25 -73.5t83 -29.5h41q58 0 83.5 29.5t25.5 73.5v4zM442 224q0 18 -5.5 37.5t-18 35.5t-32.5 26.5t-50 10.5h-41q-30 0 -50 -10.5
t-32.5 -26.5t-18 -35.5t-5.5 -37.5v-9q0 -51 30 -85t91 -34h10q61 0 91.5 34t30.5 85v9z" />
    <glyph glyph-name="nine.oldstyle" unicode="&#xf739;" 
d="M569 171q0 -90 -17.5 -154t-52.5 -104t-86.5 -58.5t-120.5 -18.5q-66 0 -113 7t-72 12q-11 2 -17 6.5t-6 14.5v62q0 25 23 21q14 -2 36.5 -4.5t48 -4.5t51.5 -3t49 -1q38 0 64.5 9t43 30.5t24.5 56.5t9 86q-24 -5 -61 -8t-78 -3q-49 0 -93.5 11.5t-78 37t-53.5 67.5
t-20 104v10q0 55 17 101t50 78.5t81 50.5t110 18q56 0 104 -18t83 -55.5t55 -96t20 -139.5v-115zM433 286q0 63 -9.5 102t-26 61t-40 30t-50.5 8q-26 0 -48 -6.5t-38.5 -22.5t-26 -43t-9.5 -68v-10q0 -35 11 -58t30 -36.5t44 -19t52 -5.5q22 0 55 3t56 8v57z" />
    <glyph glyph-name="uni2014.alt" unicode="&#xe068;" horiz-adv-x="599" 
d="M554 256q0 -18 -19 -18h-471q-19 0 -19 18v63q0 19 19 19h471q19 0 19 -19v-63v0z" />
    <glyph glyph-name="a.superior" unicode="&#xf6e9;" horiz-adv-x="312" 
d="M277 335q0 -14 -14 -14h-49q-13 0 -13 14v4q-38 -23 -77 -23q-18 0 -36 4.5t-32.5 15.5t-23.5 30.5t-9 49.5q0 51 33 76t108 25h33v22q0 26 -11.5 34.5t-35.5 8.5q-28 0 -53 -1.5t-42 -3.5q-13 0 -13 13v35q0 14 13 15q17 4 41.5 6.5t53.5 2.5q62 0 94.5 -27t32.5 -83
v-204zM197 461h-33q-38 0 -49 -11.5t-11 -35.5q0 -20 9 -26.5t29 -6.5q14 0 28.5 4.5t26.5 10.5v65z" />
    <glyph glyph-name="b.superior" unicode="&#xf6ea;" horiz-adv-x="329" 
d="M305 462q0 -68 -34 -107t-104 -39q-28 0 -58 4t-57 11q-11 3 -14 7t-3 12v392q0 15 14 15h53q13 0 13 -15v-96q15 2 28.5 2.5t23.5 0.5q70 0 104 -38t34 -107v-42zM225 504q0 34 -11.5 56.5t-46.5 22.5q-10 0 -25 -0.5t-27 -2.5v-193q8 -2 23 -3t29 -1q35 0 46.5 22.5
t11.5 56.5v42z" />
    <glyph glyph-name="d.superior" unicode="&#xf6eb;" horiz-adv-x="329" 
d="M294 350q0 -8 -3 -12t-15 -7q-26 -7 -56 -11t-58 -4q-70 0 -104 39t-34 107v42q0 69 34 107t104 38q10 0 23.5 -0.5t28.5 -2.5v96q0 15 13 15h52q15 0 15 -15v-392zM214 580q-12 2 -27 2.5t-25 0.5q-35 0 -46.5 -22.5t-11.5 -56.5v-42q0 -34 11.5 -56.5t46.5 -22.5
q14 0 29 1t23 3v193z" />
    <glyph glyph-name="e.superior" unicode="&#xf6ec;" horiz-adv-x="327" 
d="M302 472q0 -17 -15 -17l-181 -2q0 -12 3 -23.5t10.5 -21.5t20 -16t31.5 -6q27 0 51 1.5t42 3.5q3 0 6 0.5t7 0.5q13 0 13 -11v-37q0 -8 -2.5 -12t-11.5 -6q-14 -3 -25.5 -4.5l-24 -3t-27 -2t-34.5 -0.5q-22 0 -46.5 7t-45.5 23.5t-34.5 44.5t-13.5 71v41q0 69 36.5 107.5
t102.5 38.5q67 0 102.5 -40t35.5 -106v-31zM164 579q-24 0 -40.5 -17t-17.5 -49h112q0 66 -54 66z" />
    <glyph glyph-name="i.superior" unicode="&#xf6ed;" horiz-adv-x="153" 
d="M117 336q0 -6 -4 -10.5t-10 -4.5h-53q-6 0 -10 4.5t-4 10.5v295q0 14 14 14h53q14 0 14 -14v-295zM119 697q0 -15 -15 -15h-55q-6 0 -10.5 4t-4.5 11v49q0 6 4.5 10t10.5 4h55q15 0 15 -14v-49z" />
    <glyph glyph-name="l.superior" unicode="&#xf6ee;" horiz-adv-x="155" 
d="M118 336q0 -6 -3.5 -10.5t-10.5 -4.5h-53q-6 0 -10 4.5t-4 10.5v406q0 15 14 15h53q14 0 14 -15v-406v0z" />
    <glyph glyph-name="m.superior" unicode="&#xf6ef;" horiz-adv-x="483" 
d="M447 336q0 -6 -4 -10.5t-10 -4.5h-52q-6 0 -10 4.5t-4 10.5v192q0 32 -7.5 42t-30.5 10q-8 0 -21.5 -2.5t-27.5 -10.5q2 -10 2 -19v-20v-192q0 -6 -4 -10.5t-10 -4.5h-53q-6 0 -10 4.5t-4 10.5v192q0 32 -6.5 42t-28.5 10q-16 0 -50 -18v-226q0 -6 -4 -10.5t-10 -4.5h-52
q-6 0 -10 4.5t-4 10.5v295q0 14 14 14h49q14 0 14 -14v-6q16 10 35.5 17t42.5 7q47 0 68 -24q22 12 42 18t50 6q29 0 48 -9.5t29.5 -25.5t14.5 -38.5t4 -47.5v-192v0z" />
    <glyph glyph-name="n.superior" unicode="&#x207f;" horiz-adv-x="337" 
d="M302 336q0 -6 -4 -10.5t-10 -4.5h-52q-7 0 -10.5 4.5t-3.5 10.5v184q0 35 -7 48t-38 13q-14 0 -29 -5t-33 -15v-225q0 -6 -3.5 -10.5t-9.5 -4.5h-53q-6 0 -10 4.5t-4 10.5v295q0 14 14 14h50q13 0 13 -14v-5q23 14 42.5 18.5t47.5 4.5q31 0 51 -10t30.5 -27t14.5 -40.5
t4 -51.5v-184v0z" />
    <glyph glyph-name="o.superior" unicode="&#xf6f0;" horiz-adv-x="327" 
d="M302 460q0 -31 -9 -57t-26.5 -45.5t-43 -30.5t-59.5 -11t-60 11t-43.5 30.5t-26.5 45.5t-9 57v46q0 63 35 103t104 40q68 0 103 -40t35 -103v-46zM221 506q0 33 -14.5 53t-42.5 20q-29 0 -43.5 -20t-14.5 -53v-46q0 -33 14.5 -53.5t43.5 -20.5q28 0 42.5 20.5t14.5 53.5
v46z" />
    <glyph glyph-name="r.superior" unicode="&#xf6f1;" horiz-adv-x="214" 
d="M204 595q0 -14 -14 -14q-21 0 -39 -5t-36 -15v-225q0 -6 -4 -10.5t-10 -4.5h-52q-6 0 -10 4.5t-4 10.5v295q0 14 14 14h49q14 0 14 -14v-6q21 15 41.5 19.5t36.5 4.5q14 0 14 -14v-40v0z" />
    <glyph glyph-name="s.superior" unicode="&#xf6f2;" horiz-adv-x="279" 
d="M255 407q0 -38 -28.5 -64.5t-85.5 -26.5q-8 0 -20.5 0.5t-26.5 2t-28.5 4t-26.5 5.5q-13 5 -13 16v34q0 11 15 11q10 -1 24 -2l27.5 -2t25.5 -1.5t18 -0.5q25 0 31.5 7t6.5 17q0 7 -5.5 12.5t-18.5 13.5l-77 48q-22 13 -35.5 34t-13.5 47q0 87 110 87q35 0 57 -3t44 -8
q13 -5 13 -16v-32q0 -14 -15 -14q-12 2 -40 4.5t-53 2.5q-19 0 -27.5 -4.5t-8.5 -16.5q0 -5 5.5 -9.5t16.5 -10.5l73 -46q35 -22 45.5 -44t10.5 -45z" />
    <glyph glyph-name="t.superior" unicode="&#xf6f3;" horiz-adv-x="231" 
d="M219 334q0 -6 -3.5 -9t-9.5 -5q-2 0 -3 -0.5t-3 -0.5q-17 -3 -33 -3q-25 0 -42.5 3.5t-29 13.5t-17 28.5t-5.5 47.5v175q-11 2 -24.5 4t-24.5 4q-6 2 -10.5 5.5t-4.5 8.5v25q0 6 4.5 10t10.5 4h49v44q0 11 13 15l57 9q12 0 12 -12v-56h47q15 0 15 -14v-33q0 -14 -15 -14
h-47v-175q0 -19 3 -24t15 -5h31q15 0 15 -10v-36v0z" />
    <glyph glyph-name="one.superior" unicode="&#xb9;" horiz-adv-x="254" 
d="M113 751q3 2 9.5 2.5t11.5 0.5h36q10 0 13.5 -5t3.5 -12v-380q0 -7 -5 -12t-12 -5h-53q-7 0 -12 5t-5 12v307l-56 -19q-7 -2 -14 -0.5t-7 11.5v53q0 5 2 7t7 4z" />
    <glyph glyph-name="two.superior" unicode="&#xb2;" horiz-adv-x="347" 
d="M58 744q21 6 52.5 10t58.5 4q74 0 106.5 -25.5t32.5 -79.5q0 -35 -18.5 -60.5t-52.5 -48.5l-48 -33q-20 -14 -34 -25t-22.5 -22t-12.5 -23t-5 -27h172q7 0 12 -3t5 -13v-41q0 -9 -5 -13t-12 -4h-229q-7 0 -12 5t-5 12v53q0 45 20 80.5t65 65.5l54 36q26 17 36 29t10 32
q0 19 -13 26.5t-44 7.5q-23 0 -53 -2.5t-55 -5.5q-11 -2 -14 4t-3 13v32q0 12 14 16z" />
    <glyph glyph-name="three.superior" unicode="&#xb3;" horiz-adv-x="347" 
d="M304 458q0 -32 -11 -55t-30 -38t-45 -22t-56 -7q-29 0 -55 4t-49 9q-6 2 -11 5.5t-5 11.5v33q0 8 3.5 13t14.5 3q32 -4 58 -6t44 -2q30 0 42.5 13t12.5 38v12q0 19 -8.5 34t-35.5 15h-95q-7 0 -12 4t-5 12v34q0 8 5 12t12 4h95q27 0 35.5 13.5t8.5 33.5v9q0 18 -10.5 32
t-44.5 14q-28 0 -51.5 -2.5l-52.5 -5.5q-6 0 -11 4t-5 12v33q0 5 5 9.5t11 6.5q23 6 49 10t55 4q30 0 56 -6.5t45 -20.5t30 -36t11 -54v-9q0 -55 -41 -80q20 -14 30.5 -35.5t10.5 -46.5v-12v0z" />
    <glyph glyph-name="commaaccent" unicode="&#xf6c3;" horiz-adv-x="415" 
d="M286 -63q0 -1 -2 -7l-53 -108q-8 -20 -22 -20h-66q-15 0 -15 12q0 5 1 8l27 108q5 19 20 19h96q14 0 14 -12z" />
    <glyph glyph-name="Abreve" unicode="&#x102;" horiz-adv-x="646" 
d="M627 17q0 -8 -5 -12.5t-13 -4.5h-106q-7 0 -12 5t-7 12l-46 190h-230l-46 -190q-2 -7 -7 -12t-12 -5h-106q-8 0 -13 4.5t-5 12.5q0 1 0.5 2t0.5 3l164 627q9 35 26 55t36.5 30.5t40 13.5t36.5 3t36.5 -3t40 -13.5t36.5 -30.5t26 -55l164 -627q0 -2 0.5 -3t0.5 -2z
M339 618q-2 9 -5 12.5t-11 3.5t-11 -3.5t-5 -12.5l-72 -297h176zM498 939q0 -1 -0.5 -1.5t-0.5 -2.5q-6 -29 -19.5 -55t-35 -46t-52 -32t-70.5 -12q-41 0 -71 12t-51.5 32t-35 46t-19.5 55q0 2 -0.5 2.5t-0.5 1.5q0 7 10 7h75q10 0 13 -12q9 -35 30.5 -50.5t49.5 -15.5
t49.5 15.5t30.5 50.5q3 12 13 12h75q10 0 10 -7z" />
    <glyph glyph-name="Amacron" unicode="&#x100;" horiz-adv-x="646" 
d="M627 17q0 -8 -5 -12.5t-13 -4.5h-106q-7 0 -12 5t-7 12l-46 190h-230l-46 -190q-2 -7 -7 -12t-12 -5h-106q-8 0 -13 4.5t-5 12.5q0 1 0.5 2t0.5 3l164 627q9 35 26 55t36.5 30.5t40 13.5t36.5 3t36.5 -3t40 -13.5t36.5 -30.5t26 -55l164 -627q0 -2 0.5 -3t0.5 -2z
M339 618q-2 9 -5 12.5t-11 3.5t-11 -3.5t-5 -12.5l-72 -297h176zM495 847q0 -8 -6 -13t-14 -5h-310q-8 0 -14 5t-6 13v57q0 8 6 13t14 5h310q8 0 14 -5t6 -13v-57z" />
    <glyph glyph-name="Aogonek" unicode="&#x104;" horiz-adv-x="646" 
d="M339 618q-2 9 -5 12.5t-11 3.5t-11 -3.5t-5 -12.5l-72 -297h176zM438 207h-230l-46 -190q-2 -7 -7 -12t-12 -5h-106q-8 0 -13 4.5t-5 12.5q0 1 0.5 2t0.5 3l164 627q9 35 26 55t36.5 30.5t40 13.5t36.5 3t36.5 -3t40 -13.5t36.5 -30.5t26 -55l164 -627q2 -5 1 -9.5
t-6 -8.5l-51 -34q-17 -11 -28 -19t-17.5 -14t-9 -11.5t-2.5 -11.5q0 -19 34 -19q11 0 22.5 1.5l22 3t18 3t10.5 1.5q7 0 8.5 -2t1.5 -10v-57v-1q0 -5 -1.5 -8t-9.5 -7q-11 -5 -36 -12.5t-67 -7.5q-24 0 -47 6t-41 17.5t-28.5 28.5t-10.5 40q0 22 5 37.5t15.5 28t27.5 24
l40 26.5l8 5z" />
    <glyph glyph-name="AEacute" unicode="&#x1fc;" horiz-adv-x="880" 
d="M820 27q0 -11 -4.5 -15t-15.5 -6q-12 -3 -23.5 -5.5t-28 -4.5t-42.5 -3t-66 -1q-49 0 -91 8t-73 30.5t-49 62.5t-18 104v10h-201l-46 -190q-2 -7 -7 -12t-12 -5h-106q-8 0 -13 4.5t-5 12.5q0 1 0.5 2t0.5 3l164 627q9 35 26 54t36.5 28t40 10.5t36.5 1.5h477q20 0 20 -21
v-70q0 -8 -6 -14t-14 -6h-253v-194h241q8 0 14 -6t6 -14v-72q0 -8 -6 -14t-14 -6h-241v-129q0 -50 17.5 -68t61.5 -18h174q8 0 14 -6t6 -14v-64zM409 634h-86q-8 0 -11 -3.5t-5 -12.5l-72 -297h174v313zM658 939q0 -4 -4 -8l-118 -124q-6 -7 -10.5 -10t-13.5 -3h-86
q-9 0 -9 7q0 6 4 10l95 120q7 8 11.5 11.5t14.5 3.5h105q11 0 11 -7z" />
    <glyph glyph-name="Cacute" unicode="&#x106;" horiz-adv-x="563" 
d="M518 31q0 -11 -6 -15.5t-16 -7.5q-6 -2 -20.5 -4.5t-35.5 -5t-47 -4.5t-55 -2q-45 0 -95 13t-91.5 47.5t-69 93.5t-27.5 152v147q0 94 27.5 153.5t69 93.5t91.5 46.5t95 12.5q29 0 55 -2t47 -4.5t35.5 -5.5t20.5 -4q10 -3 16 -7.5t6 -15.5v-67q0 -9 -4.5 -15t-15.5 -6h-2
l-31.5 2.5t-39.5 2.5l-43 2t-42 1q-32 0 -58.5 -9.5t-45.5 -31t-30 -57.5t-11 -89v-147q0 -52 11 -88t30 -58t45.5 -31.5t58.5 -9.5q20 0 42 1l43 2t39.5 2.5l31.5 2.5h2q11 0 15.5 -6t4.5 -15v-67zM471 939q0 -4 -4 -8l-118 -124q-6 -7 -10.5 -10t-13.5 -3h-86q-9 0 -9 7
q0 6 4 10l95 120q7 8 11.5 11.5t14.5 3.5h105q11 0 11 -7z" />
    <glyph glyph-name="Ccaron" unicode="&#x10c;" horiz-adv-x="563" 
d="M518 31q0 -11 -6 -15.5t-16 -7.5q-6 -2 -20.5 -4.5t-35.5 -5t-47 -4.5t-55 -2q-45 0 -95 13t-91.5 47.5t-69 93.5t-27.5 152v147q0 94 27.5 153.5t69 93.5t91.5 46.5t95 12.5q29 0 55 -2t47 -4.5t35.5 -5.5t20.5 -4q10 -3 16 -7.5t6 -15.5v-67q0 -9 -4.5 -15t-15.5 -6h-2
l-31.5 2.5t-39.5 2.5l-43 2t-42 1q-32 0 -58.5 -9.5t-45.5 -31t-30 -57.5t-11 -89v-147q0 -52 11 -88t30 -58t45.5 -31.5t58.5 -9.5q20 0 42 1l43 2t39.5 2.5l31.5 2.5h2q11 0 15.5 -6t4.5 -15v-67zM505 939q0 -6 -4 -10l-94 -120q-7 -8 -11.5 -11.5t-14.5 -3.5h-130
q-10 0 -14.5 3.5t-11.5 11.5l-95 120q-4 4 -4 10q0 7 9 7h86q9 0 13.5 -3.5t10.5 -10.5l71 -79l71 79q6 7 10 10.5t13 3.5h86q9 0 9 -7z" />
    <glyph glyph-name="Ccircumflex" unicode="&#x108;" horiz-adv-x="563" 
d="M518 31q0 -11 -6 -15.5t-16 -7.5q-6 -2 -20.5 -4.5t-35.5 -5t-47 -4.5t-55 -2q-45 0 -95 13t-91.5 47.5t-69 93.5t-27.5 152v147q0 94 27.5 153.5t69 93.5t91.5 46.5t95 12.5q29 0 55 -2t47 -4.5t35.5 -5.5t20.5 -4q10 -3 16 -7.5t6 -15.5v-67q0 -9 -4.5 -15t-15.5 -6h-2
l-31.5 2.5t-39.5 2.5l-43 2t-42 1q-32 0 -58.5 -9.5t-45.5 -31t-30 -57.5t-11 -89v-147q0 -52 11 -88t30 -58t45.5 -31.5t58.5 -9.5q20 0 42 1l43 2t39.5 2.5l31.5 2.5h2q11 0 15.5 -6t4.5 -15v-67zM489 801q0 -7 -9 -7h-83q-9 0 -13 3t-10 10l-71 81l-71 -81
q-6 -7 -10.5 -10t-13.5 -3h-83q-9 0 -9 7q0 6 4 10l92 120q7 8 11.5 11.5t14.5 3.5h130q10 0 14.5 -3.5t11.5 -11.5l91 -120q4 -4 4 -10z" />
    <glyph glyph-name="Cdotaccent" unicode="&#x10a;" horiz-adv-x="563" 
d="M518 31q0 -11 -6 -15.5t-16 -7.5q-6 -2 -20.5 -4.5t-35.5 -5t-47 -4.5t-55 -2q-45 0 -95 13t-91.5 47.5t-69 93.5t-27.5 152v147q0 94 27.5 153.5t69 93.5t91.5 46.5t95 12.5q29 0 55 -2t47 -4.5t35.5 -5.5t20.5 -4q10 -3 16 -7.5t6 -15.5v-67q0 -9 -4.5 -15t-15.5 -6h-2
l-31.5 2.5t-39.5 2.5l-43 2t-42 1q-32 0 -58.5 -9.5t-45.5 -31t-30 -57.5t-11 -89v-147q0 -52 11 -88t30 -58t45.5 -31.5t58.5 -9.5q20 0 42 1l43 2t39.5 2.5l31.5 2.5h2q11 0 15.5 -6t4.5 -15v-67zM387 848q0 -8 -6 -14t-14 -6h-90q-8 0 -14 6t-6 14v95q0 8 6 13.5t14 5.5
h90q8 0 14 -5.5t6 -13.5v-95z" />
    <glyph glyph-name="Dcaron" unicode="&#x10e;" horiz-adv-x="667" 
d="M612 298q0 -149 -81.5 -227.5t-232.5 -78.5q-27 0 -56.5 1t-57 3t-50 4t-33.5 4q-13 2 -19.5 9t-6.5 22v673q0 15 6.5 22t19.5 9q11 2 33.5 4t50 4t57 3t56.5 1q151 0 232.5 -78.5t81.5 -227.5v-147zM474 445q0 56 -13.5 92.5t-37 58t-56 30t-69.5 8.5q-28 0 -48 -1
t-36 -2v-519q16 -1 36 -2t48 -1q37 0 69.5 8.5t56 30t37 58t13.5 92.5v147zM523 939q0 -6 -4 -10l-94 -120q-7 -8 -11.5 -11.5t-14.5 -3.5h-130q-10 0 -14.5 3.5t-11.5 11.5l-95 120q-4 4 -4 10q0 7 9 7h86q9 0 13.5 -3.5t10.5 -10.5l71 -79l71 79q6 7 10 10.5t13 3.5h86
q9 0 9 -7z" />
    <glyph glyph-name="Dcroat" unicode="&#x110;" horiz-adv-x="667" 
d="M612 298q0 -149 -81.5 -227.5t-232.5 -78.5q-27 0 -56.5 1t-57 3t-50 4t-33.5 4q-13 2 -19.5 9t-6.5 22v291h-58q-19 0 -19 19v75q0 18 19 18h58v270q0 15 6.5 22t19.5 9q11 2 33.5 4t50 4t57 3t56.5 1q151 0 232.5 -78.5t81.5 -227.5v-147zM474 445q0 56 -13.5 92.5
t-37 58t-56 30t-69.5 8.5q-28 0 -48 -1t-36 -2v-193h71q19 0 19 -18v-75q0 -19 -19 -19h-71v-214q16 -1 36 -2t48 -1q37 0 69.5 8.5t56 30t37 58t13.5 92.5v147z" />
    <glyph glyph-name="Ebreve" unicode="&#x114;" horiz-adv-x="576" 
d="M516 27q0 -11 -4.5 -15t-15.5 -6l-26.5 -4.5t-36 -4.5t-52 -3.5t-75.5 -1.5q-49 0 -91 8t-73 30.5t-49 62.5t-18 104v349q0 64 18 104t49 62.5t73 30.5t91 8q45 0 75.5 -1.5t52 -3.5t36 -4.5l26.5 -4.5q11 -2 15.5 -6t4.5 -15v-64q0 -8 -6 -14t-14 -6h-204
q-44 0 -61.5 -18t-17.5 -68v-108h271q8 0 14 -6t6 -14v-72q0 -8 -6 -14t-14 -6h-271v-129q0 -50 17.5 -68t61.5 -18h204q8 0 14 -6t6 -14v-64zM492 944q0 -1 -0.5 -1.5t-0.5 -2.5q-6 -29 -19.5 -55t-35 -46t-52 -32t-70.5 -12q-41 0 -71 12t-51.5 32t-35 46t-19.5 55
q0 2 -0.5 2.5t-0.5 1.5q0 7 10 7h75q10 0 13 -12q9 -35 30.5 -50.5t49.5 -15.5t49.5 15.5t30.5 50.5q3 12 13 12h75q10 0 10 -7z" />
    <glyph glyph-name="Ecaron" unicode="&#x11a;" horiz-adv-x="576" 
d="M516 27q0 -11 -4.5 -15t-15.5 -6l-26.5 -4.5t-36 -4.5t-52 -3.5t-75.5 -1.5q-49 0 -91 8t-73 30.5t-49 62.5t-18 104v349q0 64 18 104t49 62.5t73 30.5t91 8q45 0 75.5 -1.5t52 -3.5t36 -4.5l26.5 -4.5q11 -2 15.5 -6t4.5 -15v-64q0 -8 -6 -14t-14 -6h-204
q-44 0 -61.5 -18t-17.5 -68v-108h271q8 0 14 -6t6 -14v-72q0 -8 -6 -14t-14 -6h-271v-129q0 -50 17.5 -68t61.5 -18h204q8 0 14 -6t6 -14v-64zM478 939q0 -6 -4 -10l-94 -120q-7 -8 -11.5 -11.5t-14.5 -3.5h-130q-10 0 -14.5 3.5t-11.5 11.5l-95 120q-4 4 -4 10q0 7 9 7h86
q9 0 13.5 -3.5t10.5 -10.5l71 -79l71 79q6 7 10 10.5t13 3.5h86q9 0 9 -7z" />
    <glyph glyph-name="Edotaccent" unicode="&#x116;" horiz-adv-x="576" 
d="M516 27q0 -11 -4.5 -15t-15.5 -6l-26.5 -4.5t-36 -4.5t-52 -3.5t-75.5 -1.5q-49 0 -91 8t-73 30.5t-49 62.5t-18 104v349q0 64 18 104t49 62.5t73 30.5t91 8q45 0 75.5 -1.5t52 -3.5t36 -4.5l26.5 -4.5q11 -2 15.5 -6t4.5 -15v-64q0 -8 -6 -14t-14 -6h-204
q-44 0 -61.5 -18t-17.5 -68v-108h271q8 0 14 -6t6 -14v-72q0 -8 -6 -14t-14 -6h-271v-129q0 -50 17.5 -68t61.5 -18h204q8 0 14 -6t6 -14v-64zM353 822q0 -8 -6 -14t-14 -6h-90q-8 0 -14 6t-6 14v95q0 8 6 13.5t14 5.5h90q8 0 14 -5.5t6 -13.5v-95z" />
    <glyph glyph-name="Emacron" unicode="&#x112;" horiz-adv-x="576" 
d="M516 27q0 -11 -4.5 -15t-15.5 -6l-26.5 -4.5t-36 -4.5t-52 -3.5t-75.5 -1.5q-49 0 -91 8t-73 30.5t-49 62.5t-18 104v349q0 64 18 104t49 62.5t73 30.5t91 8q45 0 75.5 -1.5t52 -3.5t36 -4.5l26.5 -4.5q11 -2 15.5 -6t4.5 -15v-64q0 -8 -6 -14t-14 -6h-204
q-44 0 -61.5 -18t-17.5 -68v-108h271q8 0 14 -6t6 -14v-72q0 -8 -6 -14t-14 -6h-271v-129q0 -50 17.5 -68t61.5 -18h204q8 0 14 -6t6 -14v-64zM477 847q0 -8 -6 -13t-14 -5h-310q-8 0 -14 5t-6 13v57q0 8 6 13t14 5h310q8 0 14 -5t6 -13v-57z" />
    <glyph glyph-name="Eng" unicode="&#x14a;" horiz-adv-x="712" 
d="M637 -21q0 -80 -39.5 -113t-120.5 -33q-11 0 -24 1t-24.5 2.5t-20 2.5t-11.5 2q-10 3 -10 14v71q0 8 6 13t14 5h66q14 0 19.5 6.5t5.5 28.5v21h-2q-18 0 -33.5 4.5t-27.5 31.5l-222 487q-4 8 -9 8t-5 -8v-503q0 -8 -5.5 -14t-13.5 -6h-85q-8 0 -14 6t-6 14v683
q0 17 11.5 28.5t28.5 11.5h108q16 0 25.5 -6t18.5 -26l233 -514q3 -8 8 -8t5 9v526q0 19 19 19h86q19 0 19 -19v-745v0z" />
    <glyph glyph-name="Eogonek" unicode="&#x118;" horiz-adv-x="576" 
d="M516 27q0 -11 -4.5 -15t-15.5 -6q-5 -1 -9.5 -1.5t-9.5 -1.5l-49 -33l-30.5 -21t-17.5 -13.5t-7.5 -10.5t-1.5 -11q0 -19 25 -19q29 0 53 4.5t29 4.5q7 0 8.5 -2t1.5 -10v-58q0 -5 -1.5 -8t-9.5 -7q-11 -5 -36 -12.5t-67 -7.5q-24 0 -47 6t-41 17.5t-28.5 28.5t-10.5 40
q0 19 3.5 33t11 25t20 21.5t29.5 21.5h-5q-49 0 -91 8t-73 30.5t-49 62.5t-18 104v349q0 64 18 104t49 62.5t73 30.5t91 8q45 0 75.5 -1.5t52 -3.5t36 -4.5l26.5 -4.5q11 -2 15.5 -6t4.5 -15v-64q0 -8 -6 -14t-14 -6h-204q-44 0 -61.5 -18t-17.5 -68v-108h271q8 0 14 -6
t6 -14v-72q0 -8 -6 -14t-14 -6h-271v-129q0 -50 17.5 -68t61.5 -18h204q8 0 14 -6t6 -14v-64v0z" />
    <glyph glyph-name="Gbreve" unicode="&#x11e;" horiz-adv-x="635" 
d="M560 33q0 -20 -19 -24q-38 -8 -89 -12.5t-129 -4.5q-41 0 -87.5 15t-87 50t-67 94t-26.5 148v144q0 89 25.5 148t65.5 94.5t87.5 50.5t92.5 15q36 0 69.5 -2t61.5 -5t50 -6t34 -5q19 -4 19 -21v-67q0 -11 -4 -16t-16 -5h-3q-35 3 -87 5.5t-124 2.5q-25 0 -48.5 -9.5
t-42 -31.5t-29.5 -58.5t-11 -89.5v-144q0 -53 11.5 -89t30 -58t41.5 -31.5t45 -9.5q28 0 52 0.5t47 2.5v255q0 8 5.5 14t13.5 6h99q8 0 14 -6t6 -14v-336zM496 939q0 -1 -0.5 -1.5t-0.5 -2.5q-6 -29 -19.5 -55t-35 -46t-52 -32t-70.5 -12q-41 0 -71 12t-51.5 32t-35 46
t-19.5 55q0 2 -0.5 2.5t-0.5 1.5q0 7 10 7h75q10 0 13 -12q9 -35 30.5 -50.5t49.5 -15.5t49.5 15.5t30.5 50.5q3 12 13 12h75q10 0 10 -7z" />
    <glyph glyph-name="Gcircumflex" unicode="&#x11c;" horiz-adv-x="635" 
d="M560 33q0 -20 -19 -24q-38 -8 -89 -12.5t-129 -4.5q-41 0 -87.5 15t-87 50t-67 94t-26.5 148v144q0 89 25.5 148t65.5 94.5t87.5 50.5t92.5 15q36 0 69.5 -2t61.5 -5t50 -6t34 -5q19 -4 19 -21v-67q0 -11 -4 -16t-16 -5h-3q-35 3 -87 5.5t-124 2.5q-25 0 -48.5 -9.5
t-42 -31.5t-29.5 -58.5t-11 -89.5v-144q0 -53 11.5 -89t30 -58t41.5 -31.5t45 -9.5q28 0 52 0.5t47 2.5v255q0 8 5.5 14t13.5 6h99q8 0 14 -6t6 -14v-336zM517 801q0 -7 -9 -7h-83q-9 0 -13 3t-10 10l-71 81l-71 -81q-6 -7 -10.5 -10t-13.5 -3h-83q-9 0 -9 7q0 6 4 10
l92 120q7 8 11.5 11.5t14.5 3.5h130q10 0 14.5 -3.5t11.5 -11.5l91 -120q4 -4 4 -10z" />
    <glyph glyph-name="Gcommaaccent" unicode="&#x122;" horiz-adv-x="635" 
d="M560 33q0 -20 -19 -24q-38 -8 -89 -12.5t-129 -4.5q-41 0 -87.5 15t-87 50t-67 94t-26.5 148v144q0 89 25.5 148t65.5 94.5t87.5 50.5t92.5 15q36 0 69.5 -2t61.5 -5t50 -6t34 -5q19 -4 19 -21v-67q0 -11 -4 -16t-16 -5h-3q-35 3 -87 5.5t-124 2.5q-25 0 -48.5 -9.5
t-42 -31.5t-29.5 -58.5t-11 -89.5v-144q0 -53 11.5 -89t30 -58t41.5 -31.5t45 -9.5q28 0 52 0.5t47 2.5v255q0 8 5.5 14t13.5 6h99q8 0 14 -6t6 -14v-336zM420 -65q0 -1 -2 -7l-53 -108q-8 -20 -22 -20h-66q-15 0 -15 12q0 5 1 8l27 108q5 19 20 19h96q14 0 14 -12z" />
    <glyph glyph-name="Gdotaccent" unicode="&#x120;" horiz-adv-x="635" 
d="M560 33q0 -20 -19 -24q-38 -8 -89 -12.5t-129 -4.5q-41 0 -87.5 15t-87 50t-67 94t-26.5 148v144q0 89 25.5 148t65.5 94.5t87.5 50.5t92.5 15q36 0 69.5 -2t61.5 -5t50 -6t34 -5q19 -4 19 -21v-67q0 -11 -4 -16t-16 -5h-3q-35 3 -87 5.5t-124 2.5q-25 0 -48.5 -9.5
t-42 -31.5t-29.5 -58.5t-11 -89.5v-144q0 -53 11.5 -89t30 -58t41.5 -31.5t45 -9.5q28 0 52 0.5t47 2.5v255q0 8 5.5 14t13.5 6h99q8 0 14 -6t6 -14v-336zM394 848q0 -8 -6 -14t-14 -6h-90q-8 0 -14 6t-6 14v95q0 8 6 13.5t14 5.5h90q8 0 14 -5.5t6 -13.5v-95z" />
    <glyph glyph-name="Hbar" unicode="&#x126;" horiz-adv-x="712" 
d="M637 20q0 -8 -6 -14t-14 -6h-99q-8 0 -14 6t-6 14v306h-284v-306q0 -8 -6 -14t-14 -6h-99q-8 0 -14 6t-6 14v529h-55q-8 0 -14 6t-6 14v72q0 8 6 14t14 6h55v63q0 8 6 13.5t14 5.5h99q8 0 14 -5.5t6 -13.5v-63h284v63q0 8 6 13.5t14 5.5h99q8 0 14 -5.5t6 -13.5v-63h55
q8 0 14 -6t6 -14v-72q0 -8 -6 -14t-14 -6h-55v-529zM498 448v101h-284v-101h284z" />
    <glyph glyph-name="Hcircumflex" unicode="&#x124;" horiz-adv-x="712" 
d="M637 20q0 -8 -6 -14t-14 -6h-99q-8 0 -14 6t-6 14v306h-284v-306q0 -8 -6 -14t-14 -6h-99q-8 0 -14 6t-6 14v704q0 8 6 13.5t14 5.5h99q8 0 14 -5.5t6 -13.5v-276h284v276q0 8 6 13.5t14 5.5h99q8 0 14 -5.5t6 -13.5v-704zM542 802q0 -7 -9 -7h-83q-9 0 -13 3t-10 10
l-71 81l-71 -81q-6 -7 -10.5 -10t-13.5 -3h-83q-9 0 -9 7q0 6 4 10l92 120q7 8 11.5 11.5t14.5 3.5h130q10 0 14.5 -3.5t11.5 -11.5l91 -120q4 -4 4 -10z" />
    <glyph glyph-name="Ibreve" unicode="&#x12c;" horiz-adv-x="289" 
d="M214 20q0 -8 -6 -14t-14 -6h-99q-8 0 -14 6t-6 14v704q0 8 6 13.5t14 5.5h99q8 0 14 -5.5t6 -13.5v-704zM322 943q0 -1 -0.5 -1.5t-0.5 -2.5q-6 -29 -19.5 -55t-35 -46t-52 -32t-70.5 -12q-41 0 -71 12t-51.5 32t-35 46t-19.5 55q0 2 -0.5 2.5t-0.5 1.5q0 7 10 7h75
q10 0 13 -12q9 -35 30.5 -50.5t49.5 -15.5t49.5 15.5t30.5 50.5q3 12 13 12h75q10 0 10 -7z" />
    <glyph glyph-name="IJ" unicode="&#x132;" horiz-adv-x="578" 
d="M214 20q0 -8 -6 -14t-14 -6h-99q-8 0 -14 6t-6 14v704q0 8 6 13.5t14 5.5h99q8 0 14 -5.5t6 -13.5v-704zM503 -21q0 -80 -39.5 -113t-120.5 -33q-11 0 -24 1t-24.5 2.5t-20 2.5t-11.5 2q-10 3 -10 14v71q0 8 6 13t14 5h66q14 0 19.5 6.5t5.5 28.5v745q0 8 6 13.5t14 5.5
h99q8 0 14 -5.5t6 -13.5v-745z" />
    <glyph glyph-name="Imacron" unicode="&#x12a;" horiz-adv-x="289" 
d="M214 20q0 -8 -6 -14t-14 -6h-99q-8 0 -14 6t-6 14v704q0 8 6 13.5t14 5.5h99q8 0 14 -5.5t6 -13.5v-704zM319 847q0 -8 -6 -13t-14 -5h-310q-8 0 -14 5t-6 13v57q0 8 6 13t14 5h310q8 0 14 -5t6 -13v-57z" />
    <glyph glyph-name="Iogonek" unicode="&#x12e;" horiz-adv-x="289" 
d="M214 20q0 -13 -4 -16l-47.5 -40.5t-26.5 -23.5t-11 -14.5t-2 -11.5q0 -19 25 -19q29 0 53 4.5t29 4.5q7 0 8.5 -2t1.5 -10v-58q0 -5 -1.5 -8t-9.5 -7q-11 -5 -36 -12.5t-67 -7.5q-24 0 -47 6t-41 17.5t-28.5 28.5t-10.5 40q0 20 4 35t13 27t23.5 23t35.5 24v724
q0 8 6 13.5t14 5.5h99q8 0 14 -5.5t6 -13.5v-704v0z" />
    <glyph glyph-name="Itilde" unicode="&#x128;" horiz-adv-x="289" 
d="M214 20q0 -8 -6 -14t-14 -6h-99q-8 0 -14 6t-6 14v704q0 8 6 13.5t14 5.5h99q8 0 14 -5.5t6 -13.5v-704zM333 900q0 -61 -29.5 -86.5t-81.5 -25.5q-17 0 -36 6t-34 17l-44 33q-13 10 -23 15.5t-19 5.5q-12 0 -20 -7t-8 -27v-21q0 -16 -14 -16h-57q-14 0 -14 16v21
q0 60 30 86t82 26q17 0 35.5 -5.5t33.5 -16.5l44 -33q26 -20 42 -20q13 0 20.5 6.5t7.5 26.5v21q0 16 14 16h57q14 0 14 -16v-22z" />
    <glyph glyph-name="Jcircumflex" unicode="&#x134;" horiz-adv-x="289" 
d="M214 -21q0 -80 -39.5 -113t-120.5 -33q-11 0 -24 1t-24.5 2.5t-20 2.5t-11.5 2q-10 3 -10 14v71q0 8 6 13t14 5h66q14 0 19.5 6.5t5.5 28.5v745q0 8 6 13.5t14 5.5h99q8 0 14 -5.5t6 -13.5v-745zM331 801q0 -7 -9 -7h-83q-9 0 -13 3t-10 10l-71 81l-71 -81
q-6 -7 -10.5 -10t-13.5 -3h-83q-9 0 -9 7q0 6 4 10l92 120q7 8 11.5 11.5t14.5 3.5h130q10 0 14.5 -3.5t11.5 -11.5l91 -120q4 -4 4 -10z" />
    <glyph glyph-name="Kcommaaccent" unicode="&#x136;" horiz-adv-x="643" 
d="M615 9q0 -9 -15 -9h-134q-16 0 -23 11l-229 341v-332q0 -8 -6 -14t-14 -6h-99q-8 0 -14 6t-6 14v703q0 8 6 13.5t14 5.5h99q8 0 14 -5.5t6 -13.5v-318l245 329q4 5 9.5 6.5t13.5 1.5h114q19 0 19 -12q0 -7 -7 -16l-256 -331l258 -362q5 -8 5 -12zM401 -65q0 -1 -2 -7
l-53 -108q-8 -20 -22 -20h-66q-15 0 -15 12q0 5 1 8l27 108q5 19 20 19h96q14 0 14 -12z" />
    <glyph glyph-name="Lacute" unicode="&#x139;" horiz-adv-x="516" 
d="M496 27q0 -11 -4.5 -15t-15.5 -6q-11 -3 -31.5 -5.5t-44.5 -4.5t-49 -3t-45 -1q-49 0 -91 8t-73 30.5t-49 62.5t-18 104v526q0 8 6 14t14 6h99q8 0 14 -6t6 -14v-526q0 -50 17 -68t61 -18h184q8 0 14 -6t6 -14v-64zM413 939q0 -4 -4 -8l-118 -124q-6 -7 -10.5 -10
t-13.5 -3h-86q-9 0 -9 7q0 6 4 10l95 120q7 8 11.5 11.5t14.5 3.5h105q11 0 11 -7z" />
    <glyph glyph-name="Lcaron" unicode="&#x13d;" horiz-adv-x="516" 
d="M496 27q0 -11 -4.5 -15t-15.5 -6q-11 -3 -31.5 -5.5t-44.5 -4.5t-49 -3t-45 -1q-49 0 -91 8t-73 30.5t-49 62.5t-18 104v526q0 8 6 14t14 6h99q8 0 14 -6t6 -14v-526q0 -50 17 -68t61 -18h184q8 0 14 -6t6 -14v-64zM488 750q0 -2 -2 -8l-87 -207q-5 -19 -22 -19h-68
q-9 0 -9 10q0 6 1 9l61 207q5 19 20 19h94q12 0 12 -11z" />
    <glyph glyph-name="Lcommaaccent" unicode="&#x13b;" horiz-adv-x="516" 
d="M496 27q0 -11 -4.5 -15t-15.5 -6q-11 -3 -31.5 -5.5t-44.5 -4.5t-49 -3t-45 -1q-49 0 -91 8t-73 30.5t-49 62.5t-18 104v526q0 8 6 14t14 6h99q8 0 14 -6t6 -14v-526q0 -50 17 -68t61 -18h184q8 0 14 -6t6 -14v-64zM337 -65q0 -1 -2 -7l-53 -108q-8 -20 -22 -20h-66
q-15 0 -15 12q0 5 1 8l27 108q5 19 20 19h96q14 0 14 -12z" />
    <glyph glyph-name="Ldot" unicode="&#x13f;" horiz-adv-x="516" 
d="M496 27q0 -11 -4.5 -15t-15.5 -6q-11 -3 -31.5 -5.5t-44.5 -4.5t-49 -3t-45 -1q-49 0 -91 8t-73 30.5t-49 62.5t-18 104v526q0 8 6 14t14 6h99q8 0 14 -6t6 -14v-526q0 -50 17 -68t61 -18h184q8 0 14 -6t6 -14v-64zM444 340q0 -8 -6 -14t-14 -6h-90q-8 0 -14 6t-6 14v95
q0 8 6 13.5t14 5.5h90q8 0 14 -5.5t6 -13.5v-95z" />
    <glyph glyph-name="Nacute" unicode="&#x143;" horiz-adv-x="712" 
d="M637 40q0 -17 -11.5 -28.5t-28.5 -11.5h-101q-18 0 -33.5 4.5t-27.5 31.5l-222 487q-4 8 -9 8t-5 -8v-503q0 -8 -5.5 -14t-13.5 -6h-85q-8 0 -14 6t-6 14v683q0 17 11.5 28.5t28.5 11.5h108q16 0 25.5 -6t18.5 -26l233 -514q3 -8 8 -8t5 9v526q0 19 19 19h86q19 0 19 -19
v-684zM512 939q0 -4 -4 -8l-118 -124q-6 -7 -10.5 -10t-13.5 -3h-86q-9 0 -9 7q0 6 4 10l95 120q7 8 11.5 11.5t14.5 3.5h105q11 0 11 -7z" />
    <glyph glyph-name="Ncaron" unicode="&#x147;" horiz-adv-x="712" 
d="M637 40q0 -17 -11.5 -28.5t-28.5 -11.5h-101q-18 0 -33.5 4.5t-27.5 31.5l-222 487q-4 8 -9 8t-5 -8v-503q0 -8 -5.5 -14t-13.5 -6h-85q-8 0 -14 6t-6 14v683q0 17 11.5 28.5t28.5 11.5h108q16 0 25.5 -6t18.5 -26l233 -514q3 -8 8 -8t5 9v526q0 19 19 19h86q19 0 19 -19
v-684zM546 939q0 -6 -4 -10l-94 -120q-7 -8 -11.5 -11.5t-14.5 -3.5h-130q-10 0 -14.5 3.5t-11.5 11.5l-95 120q-4 4 -4 10q0 7 9 7h86q9 0 13.5 -3.5t10.5 -10.5l71 -79l71 79q6 7 10 10.5t13 3.5h86q9 0 9 -7z" />
    <glyph glyph-name="Ncommaaccent" unicode="&#x145;" horiz-adv-x="712" 
d="M637 40q0 -17 -11.5 -28.5t-28.5 -11.5h-101q-18 0 -33.5 4.5t-27.5 31.5l-222 487q-4 8 -9 8t-5 -8v-503q0 -8 -5.5 -14t-13.5 -6h-85q-8 0 -14 6t-6 14v683q0 17 11.5 28.5t28.5 11.5h108q16 0 25.5 -6t18.5 -26l233 -514q3 -8 8 -8t5 9v526q0 19 19 19h86q19 0 19 -19
v-684zM427 -65q0 -1 -2 -7l-53 -108q-8 -20 -22 -20h-66q-15 0 -15 12q0 5 1 8l27 108q5 19 20 19h96q14 0 14 -12z" />
    <glyph glyph-name="Obreve" unicode="&#x14e;" horiz-adv-x="680" 
d="M625 304q0 -83 -21.5 -142t-59.5 -96.5t-90 -55.5t-114 -18t-114 18t-90 55.5t-59.5 96.5t-21.5 142v135q0 82 21.5 141.5t59.5 97t90 55.5t114 18t114 -18t90 -55.5t59.5 -97t21.5 -141.5v-135zM485 439q0 100 -35.5 145.5t-109.5 45.5t-109.5 -45.5t-35.5 -145.5v-135
q0 -100 35.5 -145.5t109.5 -45.5t109.5 45.5t35.5 145.5v135zM522 942q0 -1 -0.5 -1.5t-0.5 -2.5q-6 -29 -19.5 -55t-35 -46t-52 -32t-70.5 -12q-41 0 -71 12t-51.5 32t-35 46t-19.5 55q0 2 -0.5 2.5t-0.5 1.5q0 7 10 7h75q10 0 13 -12q9 -35 30.5 -50.5t49.5 -15.5
t49.5 15.5t30.5 50.5q3 12 13 12h75q10 0 10 -7z" />
    <glyph glyph-name="Ohungarumlaut" unicode="&#x150;" horiz-adv-x="680" 
d="M625 304q0 -83 -21.5 -142t-59.5 -96.5t-90 -55.5t-114 -18t-114 18t-90 55.5t-59.5 96.5t-21.5 142v135q0 82 21.5 141.5t59.5 97t90 55.5t114 18t114 -18t90 -55.5t59.5 -97t21.5 -141.5v-135zM485 439q0 100 -35.5 145.5t-109.5 45.5t-109.5 -45.5t-35.5 -145.5v-135
q0 -100 35.5 -145.5t109.5 -45.5t109.5 45.5t35.5 145.5v135zM601 939q0 -4 -4 -8l-118 -124q-6 -7 -10.5 -10t-13.5 -3h-86q-9 0 -9 7q0 6 4 10l95 120q7 8 11.5 11.5t14.5 3.5h105q11 0 11 -7zM391 939q0 -4 -4 -8l-118 -124q-6 -7 -10.5 -10t-13.5 -3h-86q-9 0 -9 7
q0 6 4 10l95 120q7 8 11.5 11.5t14.5 3.5h105q11 0 11 -7z" />
    <glyph glyph-name="Omacron" unicode="&#x14c;" horiz-adv-x="680" 
d="M625 304q0 -83 -21.5 -142t-59.5 -96.5t-90 -55.5t-114 -18t-114 18t-90 55.5t-59.5 96.5t-21.5 142v135q0 82 21.5 141.5t59.5 97t90 55.5t114 18t114 -18t90 -55.5t59.5 -97t21.5 -141.5v-135zM485 439q0 100 -35.5 145.5t-109.5 45.5t-109.5 -45.5t-35.5 -145.5v-135
q0 -100 35.5 -145.5t109.5 -45.5t109.5 45.5t35.5 145.5v135zM515 847q0 -8 -6 -13t-14 -5h-310q-8 0 -14 5t-6 13v57q0 8 6 13t14 5h310q8 0 14 -5t6 -13v-57z" />
    <glyph glyph-name="Oslashacute" unicode="&#x1fe;" horiz-adv-x="680" 
d="M656 737q0 -4 -3 -8l-72 -100q21 -36 32.5 -83t11.5 -107v-135q0 -83 -21.5 -142t-59.5 -96.5t-90 -55.5t-114 -18q-53 0 -98 12.5t-81 39.5l-29 -40q-5 -6 -8.5 -9t-11.5 -3h-76q-11 0 -11 11q0 3 3 8l72 100q-45 74 -45 193v135q0 82 21.5 141.5t59.5 97t90 55.5
t114 18q54 0 100 -13t82 -41l29 41q5 6 8 8t11 2h75q11 0 11 -11zM444 590q-36 40 -104 40q-74 0 -109.5 -45.5t-35.5 -145.5v-135q0 -31 3 -56zM485 439q0 28 -3 52l-244 -340q35 -38 102 -38q74 0 109.5 45.5t35.5 145.5v135zM521 938q0 -4 -4 -8l-118 -124
q-6 -7 -10.5 -10t-13.5 -3h-86q-9 0 -9 7q0 6 4 10l95 120q7 8 11.5 11.5t14.5 3.5h105q11 0 11 -7z" />
    <glyph glyph-name="Racute" unicode="&#x154;" horiz-adv-x="653" 
d="M615 12q0 -12 -12 -12h-122q-8 0 -12 6t-8 14l-144 267h-14q-20 0 -46 1.5l-43 2.5v-271q0 -8 -5.5 -14t-13.5 -6h-100q-8 0 -14 6t-6 14v688q0 15 8.5 21.5t23.5 8.5q39 6 90 9.5t106 3.5q58 0 110 -11.5t91.5 -37.5t63 -69.5t23.5 -107.5v-9q0 -80 -36.5 -130
t-98.5 -74l157 -292q2 -3 2 -8zM453 525q0 57 -37.5 82t-112.5 25q-8 0 -20.5 -0.5l-25.5 -1t-24.5 -1t-18.5 -1.5v-225q6 0 18.5 -0.5l26 -1l26 -1t18.5 -0.5q78 0 114 25t36 91v9zM482 939q0 -4 -4 -8l-118 -124q-6 -7 -10.5 -10t-13.5 -3h-86q-9 0 -9 7q0 6 4 10l95 120
q7 8 11.5 11.5t14.5 3.5h105q11 0 11 -7z" />
    <glyph glyph-name="Rcaron" unicode="&#x158;" horiz-adv-x="653" 
d="M615 12q0 -12 -12 -12h-122q-8 0 -12 6t-8 14l-144 267h-14q-20 0 -46 1.5l-43 2.5v-271q0 -8 -5.5 -14t-13.5 -6h-100q-8 0 -14 6t-6 14v688q0 15 8.5 21.5t23.5 8.5q39 6 90 9.5t106 3.5q58 0 110 -11.5t91.5 -37.5t63 -69.5t23.5 -107.5v-9q0 -80 -36.5 -130
t-98.5 -74l157 -292q2 -3 2 -8zM453 525q0 57 -37.5 82t-112.5 25q-8 0 -20.5 -0.5l-25.5 -1t-24.5 -1t-18.5 -1.5v-225q6 0 18.5 -0.5l26 -1l26 -1t18.5 -0.5q78 0 114 25t36 91v9zM516 939q0 -6 -4 -10l-94 -120q-7 -8 -11.5 -11.5t-14.5 -3.5h-130q-10 0 -14.5 3.5
t-11.5 11.5l-95 120q-4 4 -4 10q0 7 9 7h86q9 0 13.5 -3.5t10.5 -10.5l71 -79l71 79q6 7 10 10.5t13 3.5h86q9 0 9 -7z" />
    <glyph glyph-name="Rcommaaccent" unicode="&#x156;" horiz-adv-x="653" 
d="M615 12q0 -12 -12 -12h-122q-8 0 -12 6t-8 14l-144 267h-14q-20 0 -46 1.5l-43 2.5v-271q0 -8 -5.5 -14t-13.5 -6h-100q-8 0 -14 6t-6 14v688q0 15 8.5 21.5t23.5 8.5q39 6 90 9.5t106 3.5q58 0 110 -11.5t91.5 -37.5t63 -69.5t23.5 -107.5v-9q0 -80 -36.5 -130
t-98.5 -74l157 -292q2 -3 2 -8zM453 525q0 57 -37.5 82t-112.5 25q-8 0 -20.5 -0.5l-25.5 -1t-24.5 -1t-18.5 -1.5v-225q6 0 18.5 -0.5l26 -1l26 -1t18.5 -0.5q78 0 114 25t36 91v9zM406 -65q0 -1 -2 -7l-53 -108q-8 -20 -22 -20h-66q-15 0 -15 12q0 5 1 8l27 108
q5 19 20 19h96q14 0 14 -12z" />
    <glyph glyph-name="Sacute" unicode="&#x15a;" horiz-adv-x="570" 
d="M525 201q0 -38 -13 -75.5t-43.5 -67t-81 -48t-125.5 -18.5q-57 0 -99 5t-78 13q-8 2 -13.5 7t-5.5 13v72q0 8 5.5 13.5t13.5 5.5h2q15 -2 39.5 -3.5l50.5 -3t49.5 -2.5t37.5 -1q67 0 91.5 23t24.5 67q0 15 -4 26.5t-14 22.5t-26 22.5t-41 26.5l-132 79q-35 21 -57.5 42
t-36 43.5t-19 47t-5.5 50.5q0 41 13 76t42.5 60.5t77 39.5t117.5 14q25 0 53 -1.5t55 -4.5t49 -6t35 -6q8 -2 13 -6.5t5 -12.5v-74q0 -8 -4.5 -13t-12.5 -5h-2q-50 5 -99 7.5t-98 2.5q-56 0 -80.5 -18.5t-24.5 -52.5q0 -12 3.5 -22.5t13 -21t25.5 -21.5t40 -24l120 -67
q41 -23 68 -46.5t42.5 -48.5t22 -52t6.5 -57zM441 939q0 -4 -4 -8l-118 -124q-6 -7 -10.5 -10t-13.5 -3h-86q-9 0 -9 7q0 6 4 10l95 120q7 8 11.5 11.5t14.5 3.5h105q11 0 11 -7z" />
    <glyph glyph-name="uni015E" unicode="&#x15e;" horiz-adv-x="570" 
d="M525 201q0 -38 -13 -75.5t-43.5 -67t-81 -48t-125.5 -18.5q-57 0 -99 5t-78 13q-8 2 -13.5 7t-5.5 13v72q0 8 5.5 13.5t13.5 5.5h2q15 -2 39.5 -3.5l50.5 -3t49.5 -2.5t37.5 -1q67 0 91.5 23t24.5 67q0 15 -4 26.5t-14 22.5t-26 22.5t-41 26.5l-132 79q-35 21 -57.5 42
t-36 43.5t-19 47t-5.5 50.5q0 41 13 76t42.5 60.5t77 39.5t117.5 14q25 0 53 -1.5t55 -4.5t49 -6t35 -6q8 -2 13 -6.5t5 -12.5v-74q0 -8 -4.5 -13t-12.5 -5h-2q-50 5 -99 7.5t-98 2.5q-56 0 -80.5 -18.5t-24.5 -52.5q0 -12 3.5 -22.5t13 -21t25.5 -21.5t40 -24l120 -67
q41 -23 68 -46.5t42.5 -48.5t22 -52t6.5 -57zM377 -58q0 -4 -4 -8l-119 -123q-6 -7 -10 -10.5t-13 -3.5h-86q-9 0 -9 7q0 6 4 10l94 120q7 8 11.5 11.5t14.5 3.5h106q11 0 11 -7z" />
    <glyph glyph-name="Scircumflex" unicode="&#x15c;" horiz-adv-x="570" 
d="M525 201q0 -38 -13 -75.5t-43.5 -67t-81 -48t-125.5 -18.5q-57 0 -99 5t-78 13q-8 2 -13.5 7t-5.5 13v72q0 8 5.5 13.5t13.5 5.5h2q15 -2 39.5 -3.5l50.5 -3t49.5 -2.5t37.5 -1q67 0 91.5 23t24.5 67q0 15 -4 26.5t-14 22.5t-26 22.5t-41 26.5l-132 79q-35 21 -57.5 42
t-36 43.5t-19 47t-5.5 50.5q0 41 13 76t42.5 60.5t77 39.5t117.5 14q25 0 53 -1.5t55 -4.5t49 -6t35 -6q8 -2 13 -6.5t5 -12.5v-74q0 -8 -4.5 -13t-12.5 -5h-2q-50 5 -99 7.5t-98 2.5q-56 0 -80.5 -18.5t-24.5 -52.5q0 -12 3.5 -22.5t13 -21t25.5 -21.5t40 -24l120 -67
q41 -23 68 -46.5t42.5 -48.5t22 -52t6.5 -57zM469 801q0 -7 -9 -7h-83q-9 0 -13 3t-10 10l-71 81l-71 -81q-6 -7 -10.5 -10t-13.5 -3h-83q-9 0 -9 7q0 6 4 10l92 120q7 8 11.5 11.5t14.5 3.5h130q10 0 14.5 -3.5t11.5 -11.5l91 -120q4 -4 4 -10z" />
    <glyph glyph-name="uni0218" unicode="&#x218;" horiz-adv-x="570" 
d="M525 201q0 -38 -13 -75.5t-43.5 -67t-81 -48t-125.5 -18.5q-57 0 -99 5t-78 13q-8 2 -13.5 7t-5.5 13v72q0 8 5.5 13.5t13.5 5.5h2q15 -2 39.5 -3.5l50.5 -3t49.5 -2.5t37.5 -1q67 0 91.5 23t24.5 67q0 15 -4 26.5t-14 22.5t-26 22.5t-41 26.5l-132 79q-35 21 -57.5 42
t-36 43.5t-19 47t-5.5 50.5q0 41 13 76t42.5 60.5t77 39.5t117.5 14q25 0 53 -1.5t55 -4.5t49 -6t35 -6q8 -2 13 -6.5t5 -12.5v-74q0 -8 -4.5 -13t-12.5 -5h-2q-50 5 -99 7.5t-98 2.5q-56 0 -80.5 -18.5t-24.5 -52.5q0 -12 3.5 -22.5t13 -21t25.5 -21.5t40 -24l120 -67
q41 -23 68 -46.5t42.5 -48.5t22 -52t6.5 -57zM356 -65q0 -1 -2 -7l-53 -108q-8 -20 -22 -20h-66q-15 0 -15 12q0 5 1 8l27 108q5 19 20 19h96q14 0 14 -12z" />
    <glyph glyph-name="Tbar" unicode="&#x166;" horiz-adv-x="579" 
d="M359 377v-357q0 -8 -6 -14t-14 -6h-99q-8 0 -14 6t-6 14v357h-175q-8 0 -14 5t-6 13v79q0 8 6 13.5t14 5.5h175v134h-175q-8 0 -14 5t-6 13v79q0 8 6 13.5t14 5.5h489q8 0 14 -5.5t6 -13.5v-79q0 -8 -6 -13t-14 -5h-175v-134h175q8 0 14 -5.5t6 -13.5v-79q0 -8 -6 -13
t-14 -5h-175z" />
    <glyph glyph-name="Tcaron" unicode="&#x164;" horiz-adv-x="579" 
d="M554 645q0 -8 -6 -13t-14 -5h-175v-607q0 -8 -6 -14t-14 -6h-99q-8 0 -14 6t-6 14v607h-175q-8 0 -14 5t-6 13v79q0 8 6 13.5t14 5.5h489q8 0 14 -5.5t6 -13.5v-79zM479 939q0 -6 -4 -10l-94 -120q-7 -8 -11.5 -11.5t-14.5 -3.5h-130q-10 0 -14.5 3.5t-11.5 11.5l-95 120
q-4 4 -4 10q0 7 9 7h86q9 0 13.5 -3.5t10.5 -10.5l71 -79l71 79q6 7 10 10.5t13 3.5h86q9 0 9 -7z" />
    <glyph glyph-name="Tcommaaccent" unicode="&#x162;" horiz-adv-x="579" 
d="M554 645q0 -8 -6 -13t-14 -5h-175v-607q0 -8 -6 -14t-14 -6h-99q-8 0 -14 6t-6 14v607h-175q-8 0 -14 5t-6 13v79q0 8 6 13.5t14 5.5h489q8 0 14 -5.5t6 -13.5v-79zM352 -65q0 -1 -2 -7l-53 -108q-8 -20 -22 -20h-66q-15 0 -15 12q0 5 1 8l27 108q5 19 20 19h96
q14 0 14 -12z" />
    <glyph glyph-name="Ubreve" unicode="&#x16c;" horiz-adv-x="690" 
d="M620 275q0 -80 -20.5 -134t-57 -87t-87 -47.5t-110.5 -14.5t-110.5 14.5t-87 47.5t-57 87t-20.5 134v449q0 8 6 13.5t14 5.5h99q8 0 14 -5.5t6 -13.5v-449q0 -43 6 -74.5t21.5 -52.5t41.5 -31t67 -10q40 0 66.5 10t42 31t21.5 52.5t6 74.5v449q0 8 6 13.5t14 5.5h99
q8 0 14 -5.5t6 -13.5v-449zM524 941q0 -1 -0.5 -1.5t-0.5 -2.5q-6 -29 -19.5 -55t-35 -46t-52 -32t-70.5 -12q-41 0 -71 12t-51.5 32t-35 46t-19.5 55q0 2 -0.5 2.5t-0.5 1.5q0 7 10 7h75q10 0 13 -12q9 -35 30.5 -50.5t49.5 -15.5t49.5 15.5t30.5 50.5q3 12 13 12h75
q10 0 10 -7z" />
    <glyph glyph-name="Uhungarumlaut" unicode="&#x170;" horiz-adv-x="690" 
d="M620 275q0 -80 -20.5 -134t-57 -87t-87 -47.5t-110.5 -14.5t-110.5 14.5t-87 47.5t-57 87t-20.5 134v449q0 8 6 13.5t14 5.5h99q8 0 14 -5.5t6 -13.5v-449q0 -43 6 -74.5t21.5 -52.5t41.5 -31t67 -10q40 0 66.5 10t42 31t21.5 52.5t6 74.5v449q0 8 6 13.5t14 5.5h99
q8 0 14 -5.5t6 -13.5v-449zM606 939q0 -4 -4 -8l-118 -124q-6 -7 -10.5 -10t-13.5 -3h-86q-9 0 -9 7q0 6 4 10l95 120q7 8 11.5 11.5t14.5 3.5h105q11 0 11 -7zM396 939q0 -4 -4 -8l-118 -124q-6 -7 -10.5 -10t-13.5 -3h-86q-9 0 -9 7q0 6 4 10l95 120q7 8 11.5 11.5
t14.5 3.5h105q11 0 11 -7z" />
    <glyph glyph-name="Umacron" unicode="&#x16a;" horiz-adv-x="690" 
d="M620 275q0 -80 -20.5 -134t-57 -87t-87 -47.5t-110.5 -14.5t-110.5 14.5t-87 47.5t-57 87t-20.5 134v449q0 8 6 13.5t14 5.5h99q8 0 14 -5.5t6 -13.5v-449q0 -43 6 -74.5t21.5 -52.5t41.5 -31t67 -10q40 0 66.5 10t42 31t21.5 52.5t6 74.5v449q0 8 6 13.5t14 5.5h99
q8 0 14 -5.5t6 -13.5v-449zM520 847q0 -8 -6 -13t-14 -5h-310q-8 0 -14 5t-6 13v57q0 8 6 13t14 5h310q8 0 14 -5t6 -13v-57z" />
    <glyph glyph-name="Uogonek" unicode="&#x172;" horiz-adv-x="690" 
d="M620 275q0 -54 -8 -93.5t-26 -70t-46 -56t-67 -51.5l-51 -34l-30.5 -21t-17.5 -13.5t-7.5 -10.5t-1.5 -11q0 -19 25 -19q29 0 53 4.5t29 4.5q7 0 8.5 -2t1.5 -10v-58q0 -5 -1.5 -8t-9.5 -7q-11 -5 -36 -12.5t-67 -7.5q-24 0 -47 6t-41 17.5t-28.5 28.5t-10.5 40
q0 38 15 58.5t51 43.5q-53 4 -96.5 21t-75 50.5t-48.5 85t-17 125.5v449q0 8 6 13.5t14 5.5h99q8 0 14 -5.5t6 -13.5v-449q0 -43 6 -74.5t21.5 -52.5t41.5 -31t67 -10q40 0 66.5 10t42 31t21.5 52.5t6 74.5v449q0 8 6 13.5t14 5.5h99q8 0 14 -5.5t6 -13.5v-438v-11v0z" />
    <glyph glyph-name="Uring" unicode="&#x16e;" horiz-adv-x="690" 
d="M620 275q0 -80 -20.5 -134t-57 -87t-87 -47.5t-110.5 -14.5t-110.5 14.5t-87 47.5t-57 87t-20.5 134v449q0 8 6 13.5t14 5.5h99q8 0 14 -5.5t6 -13.5v-449q0 -43 6 -74.5t21.5 -52.5t41.5 -31t67 -10q40 0 66.5 10t42 31t21.5 52.5t6 74.5v449q0 8 6 13.5t14 5.5h99
q8 0 14 -5.5t6 -13.5v-449zM456 875q0 -23 -8.5 -43t-23.5 -35t-35 -23.5t-43 -8.5t-43 8.5t-35 23.5t-24 35t-9 43t9 43t24 35t35 24t43 9t43 -9t35 -24t23.5 -35t8.5 -43zM394 876q0 20 -14 33.5t-34 13.5t-33 -13.5t-13 -33.5t13 -34t33 -14t34 14t14 34z" />
    <glyph glyph-name="Utilde" unicode="&#x168;" horiz-adv-x="690" 
d="M620 275q0 -80 -20.5 -134t-57 -87t-87 -47.5t-110.5 -14.5t-110.5 14.5t-87 47.5t-57 87t-20.5 134v449q0 8 6 13.5t14 5.5h99q8 0 14 -5.5t6 -13.5v-449q0 -43 6 -74.5t21.5 -52.5t41.5 -31t67 -10q40 0 66.5 10t42 31t21.5 52.5t6 74.5v449q0 8 6 13.5t14 5.5h99
q8 0 14 -5.5t6 -13.5v-449zM537 900q0 -61 -29.5 -86.5t-81.5 -25.5q-17 0 -36 6t-34 17l-44 33q-13 10 -23 15.5t-19 5.5q-12 0 -20 -7t-8 -27v-21q0 -16 -14 -16h-57q-14 0 -14 16v21q0 60 30 86t82 26q17 0 35.5 -5.5t33.5 -16.5l44 -33q26 -20 42 -20q13 0 20.5 6.5
t7.5 26.5v21q0 16 14 16h57q14 0 14 -16v-22z" />
    <glyph glyph-name="Wacute" unicode="&#x1e82;" horiz-adv-x="862" 
d="M838 726l-94 -653q-7 -47 -29 -64t-61 -17h-54q-34 0 -53 18t-30 62l-79 330q-2 11 -6 11q-5 0 -7 -11l-79 -330q-11 -44 -30 -62t-53 -18h-54q-39 0 -61 17t-29 64l-94 653v3q0 7 5 10.5t12 3.5h106q6 0 11 -5t6 -13l72 -597q1 -7 1.5 -11t3.5 -4t3.5 4t2.5 11l86 351
q5 18 18 31.5t45 13.5h69q32 0 45 -13.5t18 -31.5l86 -351q2 -7 2.5 -11t3.5 -4t3.5 4t1.5 11l72 597q1 8 6 13t11 5h106q7 0 12 -3.5t5 -10.5v-3zM600 939q0 -4 -4 -8l-118 -124q-6 -7 -10.5 -10t-13.5 -3h-86q-9 0 -9 7q0 6 4 10l95 120q7 8 11.5 11.5t14.5 3.5h105
q11 0 11 -7z" />
    <glyph glyph-name="Wcircumflex" unicode="&#x174;" horiz-adv-x="862" 
d="M838 726l-94 -653q-7 -47 -29 -64t-61 -17h-54q-34 0 -53 18t-30 62l-79 330q-2 11 -6 11q-5 0 -7 -11l-79 -330q-11 -44 -30 -62t-53 -18h-54q-39 0 -61 17t-29 64l-94 653v3q0 7 5 10.5t12 3.5h106q6 0 11 -5t6 -13l72 -597q1 -7 1.5 -11t3.5 -4t3.5 4t2.5 11l86 351
q5 18 18 31.5t45 13.5h69q32 0 45 -13.5t18 -31.5l86 -351q2 -7 2.5 -11t3.5 -4t3.5 4t1.5 11l72 597q1 8 6 13t11 5h106q7 0 12 -3.5t5 -10.5v-3zM619 802q0 -7 -9 -7h-83q-9 0 -13 3t-10 10l-71 81l-71 -81q-6 -7 -10.5 -10t-13.5 -3h-83q-9 0 -9 7q0 6 4 10l92 120
q7 8 11.5 11.5t14.5 3.5h130q10 0 14.5 -3.5t11.5 -11.5l91 -120q4 -4 4 -10z" />
    <glyph glyph-name="Wdieresis" unicode="&#x1e84;" horiz-adv-x="862" 
d="M838 726l-94 -653q-7 -47 -29 -64t-61 -17h-54q-34 0 -53 18t-30 62l-79 330q-2 11 -6 11q-5 0 -7 -11l-79 -330q-11 -44 -30 -62t-53 -18h-54q-39 0 -61 17t-29 64l-94 653v3q0 7 5 10.5t12 3.5h106q6 0 11 -5t6 -13l72 -597q1 -7 1.5 -11t3.5 -4t3.5 4t2.5 11l86 351
q5 18 18 31.5t45 13.5h69q32 0 45 -13.5t18 -31.5l86 -351q2 -7 2.5 -11t3.5 -4t3.5 4t1.5 11l72 597q1 8 6 13t11 5h106q7 0 12 -3.5t5 -10.5v-3zM587 789q0 -8 -6.5 -14t-14.5 -6h-72q-8 0 -14.5 6t-6.5 14v88q0 8 6.5 14t14.5 6h72q8 0 14.5 -6t6.5 -14v-88zM387 789
q0 -8 -6.5 -14t-14.5 -6h-72q-8 0 -14.5 6t-6.5 14v88q0 8 6.5 14t14.5 6h72q8 0 14.5 -6t6.5 -14v-88z" />
    <glyph glyph-name="Wgrave" unicode="&#x1e80;" horiz-adv-x="862" 
d="M838 726l-94 -653q-7 -47 -29 -64t-61 -17h-54q-34 0 -53 18t-30 62l-79 330q-2 11 -6 11q-5 0 -7 -11l-79 -330q-11 -44 -30 -62t-53 -18h-54q-39 0 -61 17t-29 64l-94 653v3q0 7 5 10.5t12 3.5h106q6 0 11 -5t6 -13l72 -597q1 -7 1.5 -11t3.5 -4t3.5 4t2.5 11l86 351
q5 18 18 31.5t45 13.5h69q32 0 45 -13.5t18 -31.5l86 -351q2 -7 2.5 -11t3.5 -4t3.5 4t1.5 11l72 597q1 8 6 13t11 5h106q7 0 12 -3.5t5 -10.5v-3zM516 801q0 -7 -9 -7h-86q-9 0 -13 3t-10 10l-119 124q-4 4 -4 8q0 7 11 7h106q10 0 14.5 -3.5t11.5 -11.5l94 -120
q4 -4 4 -10z" />
    <glyph glyph-name="Ycircumflex" unicode="&#x176;" horiz-adv-x="615" 
d="M590 728q0 -2 -2 -8l-152 -347q-14 -33 -29 -49.5t-32 -23.5v-280q0 -8 -5.5 -14t-13.5 -6h-100q-8 0 -13.5 6t-5.5 14v280q-17 7 -32 23.5t-29 49.5l-151 347q-2 6 -2 8q0 6 4 10.5t12 4.5h111q7 0 12 -5t7 -11l120 -298q5 -13 9.5 -16.5t7.5 -3.5q4 0 8.5 3.5t9.5 16.5
l120 298q2 6 7 11t12 5h110q8 0 12.5 -4.5t4.5 -10.5zM495 801q0 -7 -9 -7h-83q-9 0 -13 3t-10 10l-71 81l-71 -81q-6 -7 -10.5 -10t-13.5 -3h-83q-9 0 -9 7q0 6 4 10l92 120q7 8 11.5 11.5t14.5 3.5h130q10 0 14.5 -3.5t11.5 -11.5l91 -120q4 -4 4 -10z" />
    <glyph glyph-name="Ygrave" unicode="&#x1ef2;" horiz-adv-x="615" 
d="M590 728q0 -2 -2 -8l-152 -347q-14 -33 -29 -49.5t-32 -23.5v-280q0 -8 -5.5 -14t-13.5 -6h-100q-8 0 -13.5 6t-5.5 14v280q-17 7 -32 23.5t-29 49.5l-151 347q-2 6 -2 8q0 6 4 10.5t12 4.5h111q7 0 12 -5t7 -11l120 -298q5 -13 9.5 -16.5t7.5 -3.5q4 0 8.5 3.5t9.5 16.5
l120 298q2 6 7 11t12 5h110q8 0 12.5 -4.5t4.5 -10.5zM389 801q0 -7 -9 -7h-86q-9 0 -13 3t-10 10l-119 124q-4 4 -4 8q0 7 11 7h106q10 0 14.5 -3.5t11.5 -11.5l94 -120q4 -4 4 -10z" />
    <glyph glyph-name="Zacute" unicode="&#x179;" horiz-adv-x="588" 
d="M548 20q0 -8 -6 -14t-14 -6h-437q-22 0 -36.5 8.5t-14.5 28.5v55q0 9 2.5 18t10.5 20l317 475q3 4 3 9q0 8 -10 8h-278q-19 0 -19 18v84q0 19 19 19h403q22 0 37.5 -9t15.5 -29v-58q0 -11 -4 -21.5t-10 -19.5l-312 -467q-4 -5 -4 -11t9 -6h308q8 0 14 -5t6 -13v-84z
M450 939q0 -4 -4 -8l-118 -124q-6 -7 -10.5 -10t-13.5 -3h-86q-9 0 -9 7q0 6 4 10l95 120q7 8 11.5 11.5t14.5 3.5h105q11 0 11 -7z" />
    <glyph glyph-name="Zdotaccent" unicode="&#x17b;" horiz-adv-x="588" 
d="M548 20q0 -8 -6 -14t-14 -6h-437q-22 0 -36.5 8.5t-14.5 28.5v55q0 9 2.5 18t10.5 20l317 475q3 4 3 9q0 8 -10 8h-278q-19 0 -19 18v84q0 19 19 19h403q22 0 37.5 -9t15.5 -29v-58q0 -11 -4 -21.5t-10 -19.5l-312 -467q-4 -5 -4 -11t9 -6h308q8 0 14 -5t6 -13v-84z
M359 822q0 -8 -6 -14t-14 -6h-90q-8 0 -14 6t-6 14v95q0 8 6 13.5t14 5.5h90q8 0 14 -5.5t6 -13.5v-95z" />
    <glyph glyph-name="Idotaccent" unicode="&#x130;" horiz-adv-x="289" 
d="M214 20q0 -8 -6 -14t-14 -6h-99q-8 0 -14 6t-6 14v704q0 8 6 13.5t14 5.5h99q8 0 14 -5.5t6 -13.5v-704zM209 822q0 -8 -6 -14t-14 -6h-90q-8 0 -14 6t-6 14v95q0 8 6 13.5t14 5.5h90q8 0 14 -5.5t6 -13.5v-95z" />
    <glyph glyph-name="abreve" unicode="&#x103;" horiz-adv-x="548" 
d="M483 20q0 -8 -6 -14t-14 -6h-85q-8 0 -14 6t-6 14v16q-35 -21 -70 -32.5t-71 -11.5q-31 0 -62 7t-55.5 26t-40 51t-15.5 83v4q0 43 13.5 75t43 54t76 33t111.5 11h63v44q0 49 -21.5 65t-66.5 16q-48 0 -93 -2.5t-70 -5.5h-5q-8 0 -13 3t-5 14v64q0 17 19 21q30 6 72.5 11
t94.5 5q107 0 163.5 -47t56.5 -144v-360zM351 248h-63q-34 0 -55.5 -5.5t-34 -16t-17 -26.5t-4.5 -37v-4q0 -37 17 -49.5t55 -12.5q27 0 53.5 8t48.5 20v123zM452 772q0 -1 -0.5 -1.5t-0.5 -2.5q-6 -29 -19.5 -55t-35 -46t-52 -32t-70.5 -12q-41 0 -71 12t-51.5 32t-35 46
t-19.5 55q0 2 -0.5 2.5t-0.5 1.5q0 7 10 7h75q10 0 13 -12q9 -35 30.5 -50.5t49.5 -15.5t49.5 15.5t30.5 50.5q3 12 13 12h75q10 0 10 -7z" />
    <glyph glyph-name="amacron" unicode="&#x101;" horiz-adv-x="548" 
d="M483 20q0 -8 -6 -14t-14 -6h-85q-8 0 -14 6t-6 14v16q-35 -21 -70 -32.5t-71 -11.5q-31 0 -62 7t-55.5 26t-40 51t-15.5 83v4q0 43 13.5 75t43 54t76 33t111.5 11h63v44q0 49 -21.5 65t-66.5 16q-48 0 -93 -2.5t-70 -5.5h-5q-8 0 -13 3t-5 14v64q0 17 19 21q30 6 72.5 11
t94.5 5q107 0 163.5 -47t56.5 -144v-360zM351 248h-63q-34 0 -55.5 -5.5t-34 -16t-17 -26.5t-4.5 -37v-4q0 -37 17 -49.5t55 -12.5q27 0 53.5 8t48.5 20v123zM449 680q0 -8 -6 -13t-14 -5h-310q-8 0 -14 5t-6 13v57q0 8 6 13t14 5h310q8 0 14 -5t6 -13v-57z" />
    <glyph glyph-name="aogonek" unicode="&#x105;" horiz-adv-x="548" 
d="M483 20q0 -4 -1 -8.5t-6 -7.5l-51 -34l-30.5 -21t-17.5 -13.5t-7.5 -10.5t-1.5 -11q0 -19 25 -19q29 0 53 4.5t29 4.5q7 0 8.5 -2t1.5 -10v-58q0 -5 -1.5 -8t-9.5 -7q-11 -5 -36 -12.5t-67 -7.5q-24 0 -47 3.5t-41 12.5t-28.5 25.5t-10.5 42.5q0 17 3 30.5t11.5 26t24 26
t41.5 30.5l34 23v17q-35 -21 -70 -32.5t-71 -11.5q-31 0 -62 7t-55.5 26t-40 51t-15.5 83v4q0 43 13.5 75t43 54t76 33t111.5 11h63v44q0 49 -21.5 65t-66.5 16q-48 0 -93 -2.5t-70 -5.5h-5q-8 0 -13 3t-5 14v64q0 17 19 21q30 6 72.5 11t94.5 5q107 0 163.5 -47t56.5 -144
v-355v-5zM351 248h-63q-34 0 -55.5 -5.5t-34 -16t-17 -26.5t-4.5 -37v-4q0 -37 17 -49.5t55 -12.5q27 0 53.5 8t48.5 20v123z" />
    <glyph glyph-name="aeacute" unicode="&#x1fd;" horiz-adv-x="870" 
d="M819 268q0 -8 -6.5 -14t-14.5 -6h-314v-41q0 -57 32.5 -80.5t98.5 -23.5q13 0 35 1l46 2t46.5 2.5t37.5 3.5h1h3q17 0 17 -16v-56q0 -11 -4 -16t-15 -8q-20 -6 -44 -10.5t-49 -7.5t-49.5 -4.5t-45.5 -1.5q-49 0 -90.5 13.5t-67.5 40.5q-38 -28 -86 -41t-98 -13
q-43 0 -80.5 10t-65.5 31t-44 54.5t-16 80.5v11q0 86 64.5 121.5t190.5 35.5h51v27q0 56 -23.5 76.5t-68.5 20.5q-23 0 -46.5 -0.5t-44.5 -1.5t-38.5 -2t-27.5 -2h-1h-2q-17 0 -17 17v60q0 18 20 23q27 6 69.5 11.5t87.5 5.5q58 0 100 -17t68 -49q28 31 67 48.5t94 17.5
q61 0 104.5 -18t71.5 -49.5t41 -75t13 -94.5v-66zM691 358q0 22 -5.5 42t-18 35t-32 24t-47.5 9q-27 0 -47 -9t-32.5 -24t-18.5 -35t-6 -42v-34h207v34zM356 261h-55q-68 0 -98 -18.5t-30 -63.5v-11q0 -45 24.5 -59t64.5 -14q24 0 48.5 3t45.5 11v152zM609 772q0 -4 -4 -8
l-118 -124q-6 -7 -10.5 -10t-13.5 -3h-86q-9 0 -9 7q0 6 4 10l95 120q7 8 11.5 11.5t14.5 3.5h105q11 0 11 -7z" />
    <glyph glyph-name="cacute" unicode="&#x107;" horiz-adv-x="468" 
d="M423 31q0 -12 -4 -17.5t-17 -8.5q-17 -5 -50 -9t-79 -4q-49 0 -90.5 15t-72 45.5t-48 76t-17.5 106.5v93q0 61 17.5 106.5t48 76t72 45.5t90.5 15q46 0 79 -4t50 -9q13 -3 17 -8.5t4 -17.5v-65q0 -8 -5 -11.5t-13 -3.5h-3q-15 2 -28 3.5t-27 2t-32 1t-42 0.5
q-18 0 -35 -6t-30.5 -20.5t-22 -40t-8.5 -64.5v-93q0 -39 8.5 -64.5t22 -40t30.5 -20.5t35 -6q24 0 42 0.5t32 1t27 2t28 3.5h3q8 0 13 -3.5t5 -11.5v-65zM411 772q0 -4 -4 -8l-118 -124q-6 -7 -10.5 -10t-13.5 -3h-86q-9 0 -9 7q0 6 4 10l95 120q7 8 11.5 11.5t14.5 3.5
h105q11 0 11 -7z" />
    <glyph glyph-name="ccaron" unicode="&#x10d;" horiz-adv-x="468" 
d="M423 31q0 -12 -4 -17.5t-17 -8.5q-17 -5 -50 -9t-79 -4q-49 0 -90.5 15t-72 45.5t-48 76t-17.5 106.5v93q0 61 17.5 106.5t48 76t72 45.5t90.5 15q46 0 79 -4t50 -9q13 -3 17 -8.5t4 -17.5v-65q0 -8 -5 -11.5t-13 -3.5h-3q-15 2 -28 3.5t-27 2t-32 1t-42 0.5
q-18 0 -35 -6t-30.5 -20.5t-22 -40t-8.5 -64.5v-93q0 -39 8.5 -64.5t22 -40t30.5 -20.5t35 -6q24 0 42 0.5t32 1t27 2t28 3.5h3q8 0 13 -3.5t5 -11.5v-65zM446 772q0 -6 -4 -10l-94 -120q-7 -8 -11.5 -11.5t-14.5 -3.5h-130q-10 0 -14.5 3.5t-11.5 11.5l-95 120q-4 4 -4 10
q0 7 9 7h86q9 0 13.5 -3.5t10.5 -10.5l71 -79l71 79q6 7 10 10.5t13 3.5h86q9 0 9 -7z" />
    <glyph glyph-name="ccircumflex" unicode="&#x109;" horiz-adv-x="468" 
d="M423 31q0 -12 -4 -17.5t-17 -8.5q-17 -5 -50 -9t-79 -4q-49 0 -90.5 15t-72 45.5t-48 76t-17.5 106.5v93q0 61 17.5 106.5t48 76t72 45.5t90.5 15q46 0 79 -4t50 -9q13 -3 17 -8.5t4 -17.5v-65q0 -8 -5 -11.5t-13 -3.5h-3q-15 2 -28 3.5t-27 2t-32 1t-42 0.5
q-18 0 -35 -6t-30.5 -20.5t-22 -40t-8.5 -64.5v-93q0 -39 8.5 -64.5t22 -40t30.5 -20.5t35 -6q24 0 42 0.5t32 1t27 2t28 3.5h3q8 0 13 -3.5t5 -11.5v-65zM434 634q0 -7 -9 -7h-83q-9 0 -13 3t-10 10l-71 81l-71 -81q-6 -7 -10.5 -10t-13.5 -3h-83q-9 0 -9 7q0 6 4 10
l92 120q7 8 11.5 11.5t14.5 3.5h130q10 0 14.5 -3.5t11.5 -11.5l91 -120q4 -4 4 -10z" />
    <glyph glyph-name="cdotaccent" unicode="&#x10b;" horiz-adv-x="468" 
d="M423 31q0 -12 -4 -17.5t-17 -8.5q-17 -5 -50 -9t-79 -4q-49 0 -90.5 15t-72 45.5t-48 76t-17.5 106.5v93q0 61 17.5 106.5t48 76t72 45.5t90.5 15q46 0 79 -4t50 -9q13 -3 17 -8.5t4 -17.5v-65q0 -8 -5 -11.5t-13 -3.5h-3q-15 2 -28 3.5t-27 2t-32 1t-42 0.5
q-18 0 -35 -6t-30.5 -20.5t-22 -40t-8.5 -64.5v-93q0 -39 8.5 -64.5t22 -40t30.5 -20.5t35 -6q24 0 42 0.5t32 1t27 2t28 3.5h3q8 0 13 -3.5t5 -11.5v-65zM328 655q0 -8 -6 -14t-14 -6h-90q-8 0 -14 6t-6 14v95q0 8 6 13.5t14 5.5h90q8 0 14 -5.5t6 -13.5v-95z" />
    <glyph glyph-name="dcaron" unicode="&#x10f;" horiz-adv-x="739" 
d="M512 45q0 -11 -5 -16.5t-22 -10.5q-47 -12 -100 -19t-101 -7q-121 0 -180 66.5t-59 184.5v77q0 118 59 184.5t180 66.5q18 0 43 -1.5t53 -5.5v177q0 8 6 14t14 6h92q8 0 14 -6t6 -14v-696zM380 456q-21 3 -49.5 5t-46.5 2q-32 0 -53 -11t-33 -30t-16.5 -45t-4.5 -57v-77
q0 -31 4.5 -57t16.5 -45t33 -30t53 -11q27 0 54.5 2t41.5 5v349zM764 750q0 -2 -2 -8l-87 -207q-5 -19 -22 -19h-68q-9 0 -9 10q0 6 1 9l61 207q5 19 20 19h94q12 0 12 -11z" />
    <glyph glyph-name="dcroat" unicode="&#x111;" horiz-adv-x="577" 
d="M512 45q0 -11 -5 -16.5t-22 -10.5q-47 -12 -100 -19t-101 -7q-121 0 -180 66.5t-59 184.5v77q0 118 59 184.5t180 66.5q18 0 43 -1.5t53 -5.5v63h-150q-19 0 -19 19v55q0 18 19 18h150v22q0 8 6 14t14 6h92q8 0 14 -6t6 -14v-22h46q19 0 19 -18v-55q0 -19 -19 -19h-46
v-582zM380 456q-21 3 -49.5 5t-46.5 2q-32 0 -53 -11t-33 -30t-16.5 -45t-4.5 -57v-77q0 -31 4.5 -57t16.5 -45t33 -30t53 -11q27 0 54.5 2t41.5 5v349z" />
    <glyph glyph-name="ebreve" unicode="&#x115;" horiz-adv-x="574" 
d="M526 261q0 -25 -20 -25h-326v-3q0 -22 5 -44.5t18.5 -41t37 -30t59.5 -11.5q55 0 103.5 3.5t80.5 6.5h3q8 0 13 -3.5t5 -11.5v-66q0 -12 -3.5 -18t-17.5 -8q-24 -5 -45 -8t-42.5 -5t-47 -3t-59.5 -1q-38 0 -80.5 11.5t-78.5 40t-59.5 77t-23.5 122.5v74q0 58 16 105
t46.5 80t75.5 51t102 18q58 0 102.5 -18.5t74.5 -52.5t45.5 -80.5t15.5 -102.5v-56zM393 334q0 59 -29 91t-76 32t-77 -31.5t-30 -91.5v-4h212v4zM466 772q0 -1 -0.5 -1.5t-0.5 -2.5q-6 -29 -19.5 -55t-35 -46t-52 -32t-70.5 -12q-41 0 -71 12t-51.5 32t-35 46t-19.5 55
q0 2 -0.5 2.5t-0.5 1.5q0 7 10 7h75q10 0 13 -12q9 -35 30.5 -50.5t49.5 -15.5t49.5 15.5t30.5 50.5q3 12 13 12h75q10 0 10 -7z" />
    <glyph glyph-name="ecaron" unicode="&#x11b;" horiz-adv-x="574" 
d="M526 261q0 -25 -20 -25h-326v-3q0 -22 5 -44.5t18.5 -41t37 -30t59.5 -11.5q55 0 103.5 3.5t80.5 6.5h3q8 0 13 -3.5t5 -11.5v-66q0 -12 -3.5 -18t-17.5 -8q-24 -5 -45 -8t-42.5 -5t-47 -3t-59.5 -1q-38 0 -80.5 11.5t-78.5 40t-59.5 77t-23.5 122.5v74q0 58 16 105
t46.5 80t75.5 51t102 18q58 0 102.5 -18.5t74.5 -52.5t45.5 -80.5t15.5 -102.5v-56zM393 334q0 59 -29 91t-76 32t-77 -31.5t-30 -91.5v-4h212v4zM477 772q0 -6 -4 -10l-94 -120q-7 -8 -11.5 -11.5t-14.5 -3.5h-130q-10 0 -14.5 3.5t-11.5 11.5l-95 120q-4 4 -4 10q0 7 9 7
h86q9 0 13.5 -3.5t10.5 -10.5l71 -79l71 79q6 7 10 10.5t13 3.5h86q9 0 9 -7z" />
    <glyph glyph-name="edotaccent" unicode="&#x117;" horiz-adv-x="574" 
d="M526 261q0 -25 -20 -25h-326v-3q0 -22 5 -44.5t18.5 -41t37 -30t59.5 -11.5q55 0 103.5 3.5t80.5 6.5h3q8 0 13 -3.5t5 -11.5v-66q0 -12 -3.5 -18t-17.5 -8q-24 -5 -45 -8t-42.5 -5t-47 -3t-59.5 -1q-38 0 -80.5 11.5t-78.5 40t-59.5 77t-23.5 122.5v74q0 58 16 105
t46.5 80t75.5 51t102 18q58 0 102.5 -18.5t74.5 -52.5t45.5 -80.5t15.5 -102.5v-56zM393 334q0 59 -29 91t-76 32t-77 -31.5t-30 -91.5v-4h212v4zM352 655q0 -8 -6 -14t-14 -6h-90q-8 0 -14 6t-6 14v95q0 8 6 13.5t14 5.5h90q8 0 14 -5.5t6 -13.5v-95z" />
    <glyph glyph-name="emacron" unicode="&#x113;" horiz-adv-x="574" 
d="M526 261q0 -25 -20 -25h-326v-3q0 -22 5 -44.5t18.5 -41t37 -30t59.5 -11.5q55 0 103.5 3.5t80.5 6.5h3q8 0 13 -3.5t5 -11.5v-66q0 -12 -3.5 -18t-17.5 -8q-24 -5 -45 -8t-42.5 -5t-47 -3t-59.5 -1q-38 0 -80.5 11.5t-78.5 40t-59.5 77t-23.5 122.5v74q0 58 16 105
t46.5 80t75.5 51t102 18q58 0 102.5 -18.5t74.5 -52.5t45.5 -80.5t15.5 -102.5v-56zM393 334q0 59 -29 91t-76 32t-77 -31.5t-30 -91.5v-4h212v4zM462 680q0 -8 -6 -13t-14 -5h-310q-8 0 -14 5t-6 13v57q0 8 6 13t14 5h310q8 0 14 -5t6 -13v-57z" />
    <glyph glyph-name="eng" unicode="&#x14b;" horiz-adv-x="592" 
d="M527 -42q0 -46 -10 -76.5t-29 -48.5t-46.5 -25.5t-62.5 -7.5q-17 0 -32.5 1.5t-33.5 4.5q-19 3 -19 18v65q0 16 21 16h45q24 0 29.5 11.5t5.5 41.5v389q0 33 -2.5 54.5t-11 34t-25.5 18t-46 5.5q-26 0 -53.5 -9.5t-59.5 -26.5v-402q0 -8 -6 -14.5t-14 -6.5h-92
q-8 0 -14 6.5t-6 14.5v523q0 8 6 14t14 6h87q8 0 14 -6t6 -14v-21q22 14 40.5 23t37.5 14.5t39 8t45 2.5q54 0 88 -17t52.5 -47t25.5 -71t7 -89v-389v0z" />
    <glyph glyph-name="eogonek" unicode="&#x119;" horiz-adv-x="574" 
d="M526 261q0 -25 -20 -25h-326v-3q0 -22 5 -44.5t18.5 -41t37 -30t59.5 -11.5q55 0 103.5 3.5t80.5 6.5h3q8 0 13 -3.5t5 -11.5v-76q0 -11 -1.5 -15.5t-8.5 -9.5l-45 -30l-30.5 -21t-17.5 -13.5t-7.5 -10.5t-1.5 -11q0 -19 25 -19q29 0 53 4.5t29 4.5q7 0 8.5 -2t1.5 -10
v-58q0 -5 -1.5 -8t-9.5 -7q-11 -5 -36 -12.5t-67 -7.5q-24 0 -47 6t-41 17.5t-28.5 28.5t-10.5 40q0 37 15 58t50 44q-11 -1 -21.5 -1h-22.5q-38 0 -80.5 11.5t-78.5 40t-59.5 77t-23.5 122.5v74q0 58 16 105t46.5 80t75.5 51t102 18q58 0 102.5 -18.5t74.5 -52.5
t45.5 -80.5t15.5 -102.5v-56zM393 334q0 59 -29 91t-76 32t-77 -31.5t-30 -91.5v-4h212v4z" />
    <glyph glyph-name="gbreve" unicode="&#x11f;" horiz-adv-x="584" 
d="M556 495q0 -11 -3.5 -14.5t-12.5 -7.5l-33 -13q12 -17 18.5 -35.5t6.5 -44.5v-7q0 -94 -61.5 -138t-175.5 -44q-40 0 -67 5.5t-42 11.5q-17 -11 -17 -26t8.5 -22t25.5 -11l118 -28q51 -12 92.5 -23.5t70.5 -28.5t45 -42.5t16 -65.5v-7q0 -77 -58.5 -117t-186.5 -40
q-122 0 -185 43.5t-63 122.5v9q0 31 13.5 59.5t37.5 50.5q-21 16 -33 40.5t-12 51.5v1q0 23 10 45t30 36q-23 23 -32 51t-9 66v7q0 37 13 70.5t41.5 59t73.5 40t110 14.5h234q11 0 19 -8t8 -19v-42zM402 378q0 18 -4.5 33.5t-16.5 27t-33 18t-53 6.5t-53 -6.5t-33 -18
t-17 -27t-5 -33.5v-8q0 -14 4 -28t15.5 -25.5t32.5 -18.5t56 -7q62 0 84.5 20.5t22.5 58.5v8zM413 -39q0 8 -3.5 15t-16 14t-36 14.5t-62.5 16.5l-89 21q-11 -16 -18 -29.5t-7 -40.5v-9q0 -15 5.5 -27.5t19 -21t36.5 -13t58 -4.5q36 0 58 4t34.5 11t16.5 17.5t4 24.5v7z
M470 772q0 -1 -0.5 -1.5t-0.5 -2.5q-6 -29 -19.5 -55t-35 -46t-52 -32t-70.5 -12q-41 0 -71 12t-51.5 32t-35 46t-19.5 55q0 2 -0.5 2.5t-0.5 1.5q0 7 10 7h75q10 0 13 -12q9 -35 30.5 -50.5t49.5 -15.5t49.5 15.5t30.5 50.5q3 12 13 12h75q10 0 10 -7z" />
    <glyph glyph-name="gcircumflex" unicode="&#x11d;" horiz-adv-x="584" 
d="M556 495q0 -11 -3.5 -14.5t-12.5 -7.5l-33 -13q12 -17 18.5 -35.5t6.5 -44.5v-7q0 -94 -61.5 -138t-175.5 -44q-40 0 -67 5.5t-42 11.5q-17 -11 -17 -26t8.5 -22t25.5 -11l118 -28q51 -12 92.5 -23.5t70.5 -28.5t45 -42.5t16 -65.5v-7q0 -77 -58.5 -117t-186.5 -40
q-122 0 -185 43.5t-63 122.5v9q0 31 13.5 59.5t37.5 50.5q-21 16 -33 40.5t-12 51.5v1q0 23 10 45t30 36q-23 23 -32 51t-9 66v7q0 37 13 70.5t41.5 59t73.5 40t110 14.5h234q11 0 19 -8t8 -19v-42zM402 378q0 18 -4.5 33.5t-16.5 27t-33 18t-53 6.5t-53 -6.5t-33 -18
t-17 -27t-5 -33.5v-8q0 -14 4 -28t15.5 -25.5t32.5 -18.5t56 -7q62 0 84.5 20.5t22.5 58.5v8zM413 -39q0 8 -3.5 15t-16 14t-36 14.5t-62.5 16.5l-89 21q-11 -16 -18 -29.5t-7 -40.5v-9q0 -15 5.5 -27.5t19 -21t36.5 -13t58 -4.5q36 0 58 4t34.5 11t16.5 17.5t4 24.5v7z
M481 634q0 -7 -9 -7h-83q-9 0 -13 3t-10 10l-71 81l-71 -81q-6 -7 -10.5 -10t-13.5 -3h-83q-9 0 -9 7q0 6 4 10l92 120q7 8 11.5 11.5t14.5 3.5h130q10 0 14.5 -3.5t11.5 -11.5l91 -120q4 -4 4 -10z" />
    <glyph glyph-name="gcommaaccent" unicode="&#x123;" horiz-adv-x="584" 
d="M556 495q0 -11 -3.5 -14.5t-12.5 -7.5l-33 -13q12 -17 18.5 -35.5t6.5 -44.5v-7q0 -94 -61.5 -138t-175.5 -44q-40 0 -67 5.5t-42 11.5q-17 -11 -17 -26t8.5 -22t25.5 -11l118 -28q51 -12 92.5 -23.5t70.5 -28.5t45 -42.5t16 -65.5v-7q0 -77 -58.5 -117t-186.5 -40
q-122 0 -185 43.5t-63 122.5v9q0 31 13.5 59.5t37.5 50.5q-21 16 -33 40.5t-12 51.5v1q0 23 10 45t30 36q-23 23 -32 51t-9 66v7q0 37 13 70.5t41.5 59t73.5 40t110 14.5h234q11 0 19 -8t8 -19v-42zM402 378q0 18 -4.5 33.5t-16.5 27t-33 18t-53 6.5t-53 -6.5t-33 -18
t-17 -27t-5 -33.5v-8q0 -14 4 -28t15.5 -25.5t32.5 -18.5t56 -7q62 0 84.5 20.5t22.5 58.5v8zM413 -39q0 8 -3.5 15t-16 14t-36 14.5t-62.5 16.5l-89 21q-11 -16 -18 -29.5t-7 -40.5v-9q0 -15 5.5 -27.5t19 -21t36.5 -13t58 -4.5q36 0 58 4t34.5 11t16.5 17.5t4 24.5v7z
M243 640q0 1 2 7l53 108q6 12 10.5 16t18.5 4h59q15 0 15 -12q0 -5 -1 -8l-27 -108q-5 -19 -20 -19h-96q-14 0 -14 12z" />
    <glyph glyph-name="gdotaccent" unicode="&#x121;" horiz-adv-x="584" 
d="M556 495q0 -11 -3.5 -14.5t-12.5 -7.5l-33 -13q12 -17 18.5 -35.5t6.5 -44.5v-7q0 -94 -61.5 -138t-175.5 -44q-40 0 -67 5.5t-42 11.5q-17 -11 -17 -26t8.5 -22t25.5 -11l118 -28q51 -12 92.5 -23.5t70.5 -28.5t45 -42.5t16 -65.5v-7q0 -77 -58.5 -117t-186.5 -40
q-122 0 -185 43.5t-63 122.5v9q0 31 13.5 59.5t37.5 50.5q-21 16 -33 40.5t-12 51.5v1q0 23 10 45t30 36q-23 23 -32 51t-9 66v7q0 37 13 70.5t41.5 59t73.5 40t110 14.5h234q11 0 19 -8t8 -19v-42zM402 378q0 18 -4.5 33.5t-16.5 27t-33 18t-53 6.5t-53 -6.5t-33 -18
t-17 -27t-5 -33.5v-8q0 -14 4 -28t15.5 -25.5t32.5 -18.5t56 -7q62 0 84.5 20.5t22.5 58.5v8zM413 -39q0 8 -3.5 15t-16 14t-36 14.5t-62.5 16.5l-89 21q-11 -16 -18 -29.5t-7 -40.5v-9q0 -15 5.5 -27.5t19 -21t36.5 -13t58 -4.5q36 0 58 4t34.5 11t16.5 17.5t4 24.5v7z
M359 655q0 -8 -6 -14t-14 -6h-90q-8 0 -14 6t-6 14v95q0 8 6 13.5t14 5.5h90q8 0 14 -5.5t6 -13.5v-95z" />
    <glyph glyph-name="hbar" unicode="&#x127;" horiz-adv-x="592" 
d="M197 627v-93q29 17 63 27t88 10q52 0 86.5 -17t55 -47t29 -70.5t8.5 -86.5v-329q0 -8 -6 -14.5t-14 -6.5h-92q-8 0 -14 6.5t-6 14.5v329q0 33 -3.5 54t-12.5 33t-25 17t-41 5q-51 0 -116 -34v-404q0 -8 -6 -14.5t-14 -6.5h-92q-8 0 -14 6.5t-6 14.5v606h-46q-19 0 -19 19
v55q0 18 19 18h46v22q0 8 6 14t14 6h92q8 0 14 -6t6 -14v-22h150q19 0 19 -18v-55q0 -19 -19 -19h-150z" />
    <glyph glyph-name="hcircumflex" unicode="&#x125;" horiz-adv-x="592" 
d="M527 21q0 -8 -6 -14.5t-14 -6.5h-92q-8 0 -14 6.5t-6 14.5v329q0 33 -3.5 54t-12.5 33t-25 17t-41 5q-51 0 -116 -34v-404q0 -8 -6 -14.5t-14 -6.5h-92q-8 0 -14 6.5t-6 14.5v720q0 8 6 14t14 6h92q8 0 14 -6t6 -14v-207q29 17 63 27t88 10q52 0 86.5 -17t55 -47
t29 -70.5t8.5 -86.5v-329zM492 801q0 -7 -9 -7h-83q-9 0 -13 3t-10 10l-71 81l-71 -81q-6 -7 -10.5 -10t-13.5 -3h-83q-9 0 -9 7q0 6 4 10l92 120q7 8 11.5 11.5t14.5 3.5h130q10 0 14.5 -3.5t11.5 -11.5l91 -120q4 -4 4 -10z" />
    <glyph glyph-name="ibreve" unicode="&#x12d;" horiz-adv-x="268" 
d="M200 21q0 -8 -6 -14.5t-14 -6.5h-92q-8 0 -14 6.5t-6 14.5v523q0 8 6 14t14 6h92q8 0 14 -6t6 -14v-523zM312 772q0 -1 -0.5 -1.5t-0.5 -2.5q-6 -29 -19.5 -55t-35 -46t-52 -32t-70.5 -12q-41 0 -71 12t-51.5 32t-35 46t-19.5 55q0 2 -0.5 2.5t-0.5 1.5q0 7 10 7h75
q10 0 13 -12q9 -35 30.5 -50.5t49.5 -15.5t49.5 15.5t30.5 50.5q3 12 13 12h75q10 0 10 -7z" />
    <glyph glyph-name="ij" unicode="&#x133;" horiz-adv-x="536" 
d="M203 659q0 -8 -6 -14t-14 -6h-97q-8 0 -14.5 6t-6.5 14v88q0 8 6.5 14t14.5 6h97q8 0 14 -6t6 -14v-88zM200 21q0 -8 -6 -14.5t-14 -6.5h-92q-8 0 -14 6.5t-6 14.5v523q0 8 6 14t14 6h92q8 0 14 -6t6 -14v-523zM471 659q0 -8 -6.5 -14t-14.5 -6h-96q-8 0 -14 6t-6 14v88
q0 8 6 14t14 6h96q8 0 14.5 -6t6.5 -14v-88zM468 -42q0 -46 -10 -76.5t-29 -48.5t-46.5 -25.5t-62.5 -7.5q-17 0 -32.5 1.5t-33.5 4.5q-19 3 -19 18v65q0 16 21 16h45q24 0 29.5 11.5t5.5 41.5v586q0 8 6 14t14 6h92q8 0 14 -6t6 -14v-586z" />
    <glyph glyph-name="imacron" unicode="&#x12b;" horiz-adv-x="268" 
d="M200 21q0 -8 -6 -14.5t-14 -6.5h-92q-8 0 -14 6.5t-6 14.5v523q0 8 6 14t14 6h92q8 0 14 -6t6 -14v-523zM309 680q0 -8 -6 -13t-14 -5h-310q-8 0 -14 5t-6 13v57q0 8 6 13t14 5h310q8 0 14 -5t6 -13v-57z" />
    <glyph glyph-name="iogonek" unicode="&#x12f;" horiz-adv-x="268" 
d="M203 659q0 -8 -6 -14t-14 -6h-97q-8 0 -14.5 6t-6.5 14v88q0 8 6.5 14t14.5 6h97q8 0 14 -6t6 -14v-88zM184 -11q-32 -21 -42.5 -35.5t-10.5 -31.5t8 -22t29 -5q22 0 43.5 4.5t26.5 4.5q7 0 8.5 -2t1.5 -10v-58q0 -5 -1.5 -8t-9.5 -7q-11 -5 -36 -12.5t-67 -7.5
q-24 0 -47 4t-41 15.5t-28.5 31t-10.5 51.5q0 36 13 60t48 49v534q0 8 6 14t14 6h92q8 0 14 -6t6 -14v-529q0 -8 -2.5 -13t-13.5 -13z" />
    <glyph glyph-name="itilde" unicode="&#x129;" horiz-adv-x="268" 
d="M200 21q0 -8 -6 -14.5t-14 -6.5h-92q-8 0 -14 6.5t-6 14.5v523q0 8 6 14t14 6h92q8 0 14 -6t6 -14v-523zM323 739q0 -61 -29.5 -86.5t-81.5 -25.5q-17 0 -36 6t-34 17l-44 33q-13 10 -23 15.5t-19 5.5q-12 0 -20 -7t-8 -27v-21q0 -16 -14 -16h-57q-14 0 -14 16v21
q0 60 30 86t82 26q17 0 35.5 -5.5t33.5 -16.5l44 -33q26 -20 42 -20q13 0 20.5 6.5t7.5 26.5v21q0 16 14 16h57q14 0 14 -16v-22z" />
    <glyph glyph-name="jcircumflex" unicode="&#x135;" horiz-adv-x="268" 
d="M200 -42q0 -46 -10 -76.5t-29 -48.5t-46.5 -25.5t-62.5 -7.5q-17 0 -32.5 1.5t-33.5 4.5q-19 3 -19 18v65q0 16 21 16h45q24 0 29.5 11.5t5.5 41.5v586q0 8 6 14t14 6h92q8 0 14 -6t6 -14v-586zM321 634q0 -7 -9 -7h-83q-9 0 -13 3t-10 10l-71 81l-71 -81
q-6 -7 -10.5 -10t-13.5 -3h-83q-9 0 -9 7q0 6 4 10l92 120q7 8 11.5 11.5t14.5 3.5h130q10 0 14.5 -3.5t11.5 -11.5l91 -120q4 -4 4 -10z" />
    <glyph glyph-name="kcommaaccent" unicode="&#x137;" horiz-adv-x="549" 
d="M519 12q0 -5 -4 -8.5t-10 -3.5h-122q-8 0 -16 6.5t-13 13.5l-157 228v-227q0 -8 -6 -14.5t-14 -6.5h-92q-8 0 -14 6.5t-6 14.5v720q0 8 6 14t14 6h92q8 0 14 -6t6 -14v-417l171 228q5 7 11.5 9.5t11.5 2.5h112q15 0 15 -11q0 -5 -4 -10l-201 -247l203 -276q3 -5 3 -8z
M354 -65q0 -1 -2 -7l-53 -108q-8 -20 -22 -20h-66q-15 0 -15 12q0 5 1 8l27 108q5 19 20 19h96q14 0 14 -12z" />
    <glyph glyph-name="lacute" unicode="&#x13a;" horiz-adv-x="272" 
d="M202 21q0 -8 -5.5 -14.5t-13.5 -6.5h-93q-8 0 -14 6.5t-6 14.5v720q0 8 6 14t14 6h93q8 0 13.5 -6t5.5 -14v-720zM291 939q0 -4 -4 -8l-118 -124q-6 -7 -10.5 -10t-13.5 -3h-86q-9 0 -9 7q0 6 4 10l95 120q7 8 11.5 11.5t14.5 3.5h105q11 0 11 -7z" />
    <glyph glyph-name="lcaron" unicode="&#x13e;" horiz-adv-x="444" 
d="M202 21q0 -8 -5.5 -14.5t-13.5 -6.5h-93q-8 0 -14 6.5t-6 14.5v720q0 8 6 14t14 6h93q8 0 13.5 -6t5.5 -14v-720zM469 750q0 -2 -2 -8l-87 -207q-5 -19 -22 -19h-68q-9 0 -9 10q0 6 1 9l61 207q5 19 20 19h94q12 0 12 -11z" />
    <glyph glyph-name="lcommaaccent" unicode="&#x13c;" horiz-adv-x="272" 
d="M202 21q0 -8 -5.5 -14.5t-13.5 -6.5h-93q-8 0 -14 6.5t-6 14.5v720q0 8 6 14t14 6h93q8 0 13.5 -6t5.5 -14v-720zM210 -65q0 -1 -2 -7l-53 -108q-8 -20 -22 -20h-66q-15 0 -15 12q0 5 1 8l27 108q5 19 20 19h96q14 0 14 -12z" />
    <glyph glyph-name="ldot" unicode="&#x140;" horiz-adv-x="451" 
d="M202 21q0 -8 -5.5 -14.5t-13.5 -6.5h-93q-8 0 -14 6.5t-6 14.5v720q0 8 6 14t14 6h93q8 0 13.5 -6t5.5 -14v-720zM401 341q0 -8 -6 -14t-14 -6h-90q-8 0 -14 6t-6 14v95q0 8 6 13.5t14 5.5h90q8 0 14 -5.5t6 -13.5v-95z" />
    <glyph glyph-name="nacute" unicode="&#x144;" horiz-adv-x="592" 
d="M527 21q0 -8 -6 -14.5t-14 -6.5h-92q-8 0 -14 6.5t-6 14.5v326q0 33 -2.5 54.5t-11 34t-25.5 18t-46 5.5q-26 0 -53.5 -9.5t-59.5 -26.5v-402q0 -8 -6 -14.5t-14 -6.5h-92q-8 0 -14 6.5t-6 14.5v523q0 8 6 14t14 6h87q8 0 14 -6t6 -14v-21q22 14 40.5 23t37.5 14.5t39 8
t45 2.5q54 0 88 -17t52.5 -47t25.5 -71t7 -89v-326zM452 772q0 -4 -4 -8l-118 -124q-6 -7 -10.5 -10t-13.5 -3h-86q-9 0 -9 7q0 6 4 10l95 120q7 8 11.5 11.5t14.5 3.5h105q11 0 11 -7z" />
    <glyph glyph-name="ncaron" unicode="&#x148;" horiz-adv-x="592" 
d="M527 21q0 -8 -6 -14.5t-14 -6.5h-92q-8 0 -14 6.5t-6 14.5v326q0 33 -2.5 54.5t-11 34t-25.5 18t-46 5.5q-26 0 -53.5 -9.5t-59.5 -26.5v-402q0 -8 -6 -14.5t-14 -6.5h-92q-8 0 -14 6.5t-6 14.5v523q0 8 6 14t14 6h87q8 0 14 -6t6 -14v-21q22 14 40.5 23t37.5 14.5t39 8
t45 2.5q54 0 88 -17t52.5 -47t25.5 -71t7 -89v-326zM486 772q0 -6 -4 -10l-94 -120q-7 -8 -11.5 -11.5t-14.5 -3.5h-130q-10 0 -14.5 3.5t-11.5 11.5l-95 120q-4 4 -4 10q0 7 9 7h86q9 0 13.5 -3.5t10.5 -10.5l71 -79l71 79q6 7 10 10.5t13 3.5h86q9 0 9 -7z" />
    <glyph glyph-name="ncommaaccent" unicode="&#x146;" horiz-adv-x="592" 
d="M527 21q0 -8 -6 -14.5t-14 -6.5h-92q-8 0 -14 6.5t-6 14.5v326q0 33 -2.5 54.5t-11 34t-25.5 18t-46 5.5q-26 0 -53.5 -9.5t-59.5 -26.5v-402q0 -8 -6 -14.5t-14 -6.5h-92q-8 0 -14 6.5t-6 14.5v523q0 8 6 14t14 6h87q8 0 14 -6t6 -14v-21q22 14 40.5 23t37.5 14.5t39 8
t45 2.5q54 0 88 -17t52.5 -47t25.5 -71t7 -89v-326zM360 -65q0 -1 -2 -7l-53 -108q-8 -20 -22 -20h-66q-15 0 -15 12q0 5 1 8l27 108q5 19 20 19h96q14 0 14 -12z" />
    <glyph glyph-name="obreve" unicode="&#x14f;" horiz-adv-x="574" 
d="M526 241q0 -54 -15.5 -99.5t-45.5 -78.5t-74.5 -52t-103.5 -19t-103.5 19t-74.5 52t-45.5 78.5t-15.5 99.5v81q0 54 15.5 99.5t45.5 78.5t74.5 52t103.5 19t103.5 -19t74.5 -52t45.5 -78.5t15.5 -99.5v-81zM394 322q0 62 -27 98.5t-80 36.5t-80 -36.5t-27 -98.5v-81
q0 -62 27 -98.5t80 -36.5t80 36.5t27 98.5v81zM466 772q0 -1 -0.5 -1.5t-0.5 -2.5q-6 -29 -19.5 -55t-35 -46t-52 -32t-70.5 -12q-41 0 -71 12t-51.5 32t-35 46t-19.5 55q0 2 -0.5 2.5t-0.5 1.5q0 7 10 7h75q10 0 13 -12q9 -35 30.5 -50.5t49.5 -15.5t49.5 15.5t30.5 50.5
q3 12 13 12h75q10 0 10 -7z" />
    <glyph glyph-name="ohungarumlaut" unicode="&#x151;" horiz-adv-x="574" 
d="M526 241q0 -54 -15.5 -99.5t-45.5 -78.5t-74.5 -52t-103.5 -19t-103.5 19t-74.5 52t-45.5 78.5t-15.5 99.5v81q0 54 15.5 99.5t45.5 78.5t74.5 52t103.5 19t103.5 -19t74.5 -52t45.5 -78.5t15.5 -99.5v-81zM394 322q0 62 -27 98.5t-80 36.5t-80 -36.5t-27 -98.5v-81
q0 -62 27 -98.5t80 -36.5t80 36.5t27 98.5v81zM548 772q0 -4 -4 -8l-118 -124q-6 -7 -10.5 -10t-13.5 -3h-86q-9 0 -9 7q0 6 4 10l95 120q7 8 11.5 11.5t14.5 3.5h105q11 0 11 -7zM338 772q0 -4 -4 -8l-118 -124q-6 -7 -10.5 -10t-13.5 -3h-86q-9 0 -9 7q0 6 4 10l95 120
q7 8 11.5 11.5t14.5 3.5h105q11 0 11 -7z" />
    <glyph glyph-name="omacron" unicode="&#x14d;" horiz-adv-x="574" 
d="M526 241q0 -54 -15.5 -99.5t-45.5 -78.5t-74.5 -52t-103.5 -19t-103.5 19t-74.5 52t-45.5 78.5t-15.5 99.5v81q0 54 15.5 99.5t45.5 78.5t74.5 52t103.5 19t103.5 -19t74.5 -52t45.5 -78.5t15.5 -99.5v-81zM394 322q0 62 -27 98.5t-80 36.5t-80 -36.5t-27 -98.5v-81
q0 -62 27 -98.5t80 -36.5t80 36.5t27 98.5v81zM462 680q0 -8 -6 -13t-14 -5h-310q-8 0 -14 5t-6 13v57q0 8 6 13t14 5h310q8 0 14 -5t6 -13v-57z" />
    <glyph glyph-name="oslashacute" unicode="&#x1ff;" horiz-adv-x="574" 
d="M545 589q0 -6 -4 -11l-65 -90q25 -32 37.5 -74.5t12.5 -91.5v-81q0 -54 -15.5 -99.5t-45.5 -78.5t-74.5 -52t-103.5 -19q-43 0 -77.5 10t-62.5 28l-40 -55q-5 -7 -8 -8.5t-8 -1.5h-56q-8 0 -8 8q0 6 4 11l66 92q-25 32 -37 74t-12 91v81q0 54 15.5 99.5t45.5 78.5
t74.5 52t103.5 19q42 0 76.5 -10t62.5 -28l39 54q5 7 8 8.5t8 1.5h56q8 0 8 -8zM354 433q-27 24 -67 24q-53 0 -80 -36.5t-27 -98.5v-81q0 -25 4 -44zM394 322q0 12 -1 23.5t-3 22.5l-171 -238q25 -24 68 -24q53 0 80 36.5t27 98.5v81zM452 772q0 -4 -4 -8l-118 -124
q-6 -7 -10.5 -10t-13.5 -3h-86q-9 0 -9 7q0 6 4 10l95 120q7 8 11.5 11.5t14.5 3.5h105q11 0 11 -7z" />
    <glyph glyph-name="racute" unicode="&#x155;" horiz-adv-x="375" 
d="M355 479q0 -8 -6 -14t-14 -6q-41 0 -73.5 -9.5t-64.5 -26.5v-402q0 -8 -6 -14.5t-14 -6.5h-92q-8 0 -14 6.5t-6 14.5v523q0 8 6 14t14 6h87q8 0 14 -6t6 -14v-21q37 29 75 38.5t68 9.5q8 0 14 -6t6 -14v-72zM343 772q0 -4 -4 -8l-118 -124q-6 -7 -10.5 -10t-13.5 -3h-86
q-9 0 -9 7q0 6 4 10l95 120q7 8 11.5 11.5t14.5 3.5h105q11 0 11 -7z" />
    <glyph glyph-name="rcaron" unicode="&#x159;" horiz-adv-x="375" 
d="M355 479q0 -8 -6 -14t-14 -6q-41 0 -73.5 -9.5t-64.5 -26.5v-402q0 -8 -6 -14.5t-14 -6.5h-92q-8 0 -14 6.5t-6 14.5v523q0 8 6 14t14 6h87q8 0 14 -6t6 -14v-21q37 29 75 38.5t68 9.5q8 0 14 -6t6 -14v-72zM377 772q0 -6 -4 -10l-94 -120q-7 -8 -11.5 -11.5t-14.5 -3.5
h-130q-10 0 -14.5 3.5t-11.5 11.5l-95 120q-4 4 -4 10q0 7 9 7h86q9 0 13.5 -3.5t10.5 -10.5l71 -79l71 79q6 7 10 10.5t13 3.5h86q9 0 9 -7z" />
    <glyph glyph-name="rcommaaccent" unicode="&#x157;" horiz-adv-x="375" 
d="M355 479q0 -8 -6 -14t-14 -6q-41 0 -73.5 -9.5t-64.5 -26.5v-402q0 -8 -6 -14.5t-14 -6.5h-92q-8 0 -14 6.5t-6 14.5v523q0 8 6 14t14 6h87q8 0 14 -6t6 -14v-21q37 29 75 38.5t68 9.5q8 0 14 -6t6 -14v-72zM266 -64q0 -1 -2 -7l-53 -108q-8 -20 -22 -20h-66
q-15 0 -15 12q0 5 1 8l27 108q5 19 20 19h96q14 0 14 -12z" />
    <glyph glyph-name="sacute" unicode="&#x15b;" horiz-adv-x="489" 
d="M444 148q0 -33 -12 -61.5t-36.5 -49.5t-61.5 -33t-86 -12q-15 0 -36.5 1t-46.5 3.5t-50 6t-46 9.5q-19 5 -19 23v60q0 6 4.5 11t12.5 5h4q18 -2 42.5 -4t48.5 -3.5t45 -2.5t32 -1q23 0 37 3.5t21.5 10t10 15.5t2.5 19q0 14 -10 25t-34 26l-137 84q-37 23 -60.5 58.5
t-23.5 79.5q0 150 190 150q30 0 54.5 -1.5t45.5 -4.5t40 -6.5t38 -7.5q18 -5 18 -23v-58q0 -19 -16 -19h-4q-11 1 -30 3.5t-42 4l-47.5 3t-45.5 1.5q-36 0 -52.5 -9.5t-16.5 -32.5q0 -12 10.5 -21t29.5 -20l131 -80q31 -19 50 -38t29.5 -38t13.5 -38t3 -38zM400 772
q0 -4 -4 -8l-118 -124q-6 -7 -10.5 -10t-13.5 -3h-86q-9 0 -9 7q0 6 4 10l95 120q7 8 11.5 11.5t14.5 3.5h105q11 0 11 -7z" />
    <glyph glyph-name="uni015F" unicode="&#x15f;" horiz-adv-x="489" 
d="M444 148q0 -33 -12 -61.5t-36.5 -49.5t-61.5 -33t-86 -12q-15 0 -36.5 1t-46.5 3.5t-50 6t-46 9.5q-19 5 -19 23v60q0 6 4.5 11t12.5 5h4q18 -2 42.5 -4t48.5 -3.5t45 -2.5t32 -1q23 0 37 3.5t21.5 10t10 15.5t2.5 19q0 14 -10 25t-34 26l-137 84q-37 23 -60.5 58.5
t-23.5 79.5q0 150 190 150q30 0 54.5 -1.5t45.5 -4.5t40 -6.5t38 -7.5q18 -5 18 -23v-58q0 -19 -16 -19h-4q-11 1 -30 3.5t-42 4l-47.5 3t-45.5 1.5q-36 0 -52.5 -9.5t-16.5 -32.5q0 -12 10.5 -21t29.5 -20l131 -80q31 -19 50 -38t29.5 -38t13.5 -38t3 -38zM330 -59
q0 -4 -4 -8l-119 -123q-6 -7 -10 -10.5t-13 -3.5h-86q-9 0 -9 7q0 6 4 10l94 120q7 8 11.5 11.5t14.5 3.5h106q11 0 11 -7z" />
    <glyph glyph-name="scircumflex" unicode="&#x15d;" horiz-adv-x="489" 
d="M444 148q0 -33 -12 -61.5t-36.5 -49.5t-61.5 -33t-86 -12q-15 0 -36.5 1t-46.5 3.5t-50 6t-46 9.5q-19 5 -19 23v60q0 6 4.5 11t12.5 5h4q18 -2 42.5 -4t48.5 -3.5t45 -2.5t32 -1q23 0 37 3.5t21.5 10t10 15.5t2.5 19q0 14 -10 25t-34 26l-137 84q-37 23 -60.5 58.5
t-23.5 79.5q0 150 190 150q30 0 54.5 -1.5t45.5 -4.5t40 -6.5t38 -7.5q18 -5 18 -23v-58q0 -19 -16 -19h-4q-11 1 -30 3.5t-42 4l-47.5 3t-45.5 1.5q-36 0 -52.5 -9.5t-16.5 -32.5q0 -12 10.5 -21t29.5 -20l131 -80q31 -19 50 -38t29.5 -38t13.5 -38t3 -38zM426 634
q0 -7 -9 -7h-83q-9 0 -13 3t-10 10l-71 81l-71 -81q-6 -7 -10.5 -10t-13.5 -3h-83q-9 0 -9 7q0 6 4 10l92 120q7 8 11.5 11.5t14.5 3.5h130q10 0 14.5 -3.5t11.5 -11.5l91 -120q4 -4 4 -10z" />
    <glyph glyph-name="uni0219" unicode="&#x219;" horiz-adv-x="489" 
d="M444 148q0 -33 -12 -61.5t-36.5 -49.5t-61.5 -33t-86 -12q-15 0 -36.5 1t-46.5 3.5t-50 6t-46 9.5q-19 5 -19 23v60q0 6 4.5 11t12.5 5h4q18 -2 42.5 -4t48.5 -3.5t45 -2.5t32 -1q23 0 37 3.5t21.5 10t10 15.5t2.5 19q0 14 -10 25t-34 26l-137 84q-37 23 -60.5 58.5
t-23.5 79.5q0 150 190 150q30 0 54.5 -1.5t45.5 -4.5t40 -6.5t38 -7.5q18 -5 18 -23v-58q0 -19 -16 -19h-4q-11 1 -30 3.5t-42 4l-47.5 3t-45.5 1.5q-36 0 -52.5 -9.5t-16.5 -32.5q0 -12 10.5 -21t29.5 -20l131 -80q31 -19 50 -38t29.5 -38t13.5 -38t3 -38zM317 -65
q0 -1 -2 -7l-53 -108q-8 -20 -22 -20h-66q-15 0 -15 12q0 5 1 8l27 108q5 19 20 19h96q14 0 14 -12z" />
    <glyph glyph-name="tbar" unicode="&#x167;" horiz-adv-x="405" 
d="M380 17q0 -15 -19 -18q-18 -3 -34.5 -5t-33.5 -2q-42 0 -72.5 6t-49.5 23t-28 48.5t-9 81.5v114l-94 14q-8 2 -14 7t-6 13v45q0 8 6 14t14 6h94v101l-94 14q-8 2 -14 7t-6 13v45q0 8 6 14t14 6h94v82q0 8 6 13t14 7l93 16h4q16 0 16 -15v-103h90q8 0 14 -6t6 -14v-59
q0 -8 -6 -14t-14 -6h-90v-101h90q8 0 14 -6t6 -14v-59q0 -8 -6 -14t-14 -6h-90v-114q0 -19 1 -30t5 -17t11.5 -7.5t21.5 -1.5h53q21 0 21 -15v-63v0z" />
    <glyph glyph-name="tcaron" unicode="&#x165;" horiz-adv-x="597" 
d="M380 17q0 -15 -19 -18q-18 -3 -34.5 -5t-33.5 -2q-42 0 -72.5 6t-49.5 23t-28 48.5t-9 81.5v314l-94 14q-8 2 -14 7t-6 13v45q0 8 6 14t14 6h94v82q0 8 6 13t14 7l93 16h4q16 0 16 -15v-103h90q8 0 14 -6t6 -14v-59q0 -8 -6 -14t-14 -6h-90v-314q0 -19 1 -30t5 -17
t11.5 -7.5t21.5 -1.5h53q21 0 21 -15v-63zM622 750q0 -2 -2 -8l-87 -207q-5 -19 -22 -19h-68q-9 0 -9 10q0 6 1 9l61 207q5 19 20 19h94q12 0 12 -11z" />
    <glyph glyph-name="tcommaaccent" unicode="&#x163;" horiz-adv-x="405" 
d="M380 17q0 -15 -19 -18q-18 -3 -34.5 -5t-33.5 -2q-42 0 -72.5 6t-49.5 23t-28 48.5t-9 81.5v314l-94 14q-8 2 -14 7t-6 13v45q0 8 6 14t14 6h94v82q0 8 6 13t14 7l93 16h4q16 0 16 -15v-103h90q8 0 14 -6t6 -14v-59q0 -8 -6 -14t-14 -6h-90v-314q0 -19 1 -30t5 -17
t11.5 -7.5t21.5 -1.5h53q21 0 21 -15v-63zM312 -65q0 -1 -2 -7l-53 -108q-8 -20 -22 -20h-66q-15 0 -15 12q0 5 1 8l27 108q5 19 20 19h96q14 0 14 -12z" />
    <glyph glyph-name="ubreve" unicode="&#x16d;" horiz-adv-x="592" 
d="M527 20q0 -8 -6 -14t-14 -6h-92q-8 0 -14 6t-6 14v23q-39 -26 -74 -38t-83 -12q-38 0 -69.5 10t-53.5 32q-28 28 -39 73.5t-11 108.5v326q0 8 6 14.5t14 6.5h92q8 0 14 -6.5t6 -14.5v-326q0 -38 4.5 -60.5t18.5 -35.5q11 -9 25 -13.5t37 -4.5q14 0 29.5 4t30.5 10
t28.5 13l24.5 13v400q0 8 6 14.5t14 6.5h92q8 0 14 -6.5t6 -14.5v-523zM472 772q0 -1 -0.5 -1.5t-0.5 -2.5q-6 -29 -19.5 -55t-35 -46t-52 -32t-70.5 -12q-41 0 -71 12t-51.5 32t-35 46t-19.5 55q0 2 -0.5 2.5t-0.5 1.5q0 7 10 7h75q10 0 13 -12q9 -35 30.5 -50.5
t49.5 -15.5t49.5 15.5t30.5 50.5q3 12 13 12h75q10 0 10 -7z" />
    <glyph glyph-name="uhungarumlaut" unicode="&#x171;" horiz-adv-x="592" 
d="M527 20q0 -8 -6 -14t-14 -6h-92q-8 0 -14 6t-6 14v23q-39 -26 -74 -38t-83 -12q-38 0 -69.5 10t-53.5 32q-28 28 -39 73.5t-11 108.5v326q0 8 6 14.5t14 6.5h92q8 0 14 -6.5t6 -14.5v-326q0 -38 4.5 -60.5t18.5 -35.5q11 -9 25 -13.5t37 -4.5q14 0 29.5 4t30.5 10
t28.5 13l24.5 13v400q0 8 6 14.5t14 6.5h92q8 0 14 -6.5t6 -14.5v-523zM557 772q0 -4 -4 -8l-118 -124q-6 -7 -10.5 -10t-13.5 -3h-86q-9 0 -9 7q0 6 4 10l95 120q7 8 11.5 11.5t14.5 3.5h105q11 0 11 -7zM347 772q0 -4 -4 -8l-118 -124q-6 -7 -10.5 -10t-13.5 -3h-86
q-9 0 -9 7q0 6 4 10l95 120q7 8 11.5 11.5t14.5 3.5h105q11 0 11 -7z" />
    <glyph glyph-name="umacron" unicode="&#x16b;" horiz-adv-x="592" 
d="M527 20q0 -8 -6 -14t-14 -6h-92q-8 0 -14 6t-6 14v23q-39 -26 -74 -38t-83 -12q-38 0 -69.5 10t-53.5 32q-28 28 -39 73.5t-11 108.5v326q0 8 6 14.5t14 6.5h92q8 0 14 -6.5t6 -14.5v-326q0 -38 4.5 -60.5t18.5 -35.5q11 -9 25 -13.5t37 -4.5q14 0 29.5 4t30.5 10
t28.5 13l24.5 13v400q0 8 6 14.5t14 6.5h92q8 0 14 -6.5t6 -14.5v-523zM471 680q0 -8 -6 -13t-14 -5h-310q-8 0 -14 5t-6 13v57q0 8 6 13t14 5h310q8 0 14 -5t6 -13v-57z" />
    <glyph glyph-name="uogonek" unicode="&#x173;" horiz-adv-x="592" 
d="M401 46q-39 -26 -77 -39.5t-86 -13.5q-38 0 -69.5 10t-53.5 32q-28 28 -39 73.5t-11 108.5v326q0 8 6 14.5t14 6.5h92q8 0 14 -6.5t6 -14.5v-326q0 -38 4.5 -60.5t18.5 -35.5q11 -9 25 -13.5t37 -4.5q14 0 29.5 4t30.5 10t28.5 13l24.5 13v400q0 8 6 14.5t14 6.5h92
q8 0 13.5 -6.5t5.5 -14.5v-518q0 -8 -1 -12.5t-6 -8.5l-51 -34l-30.5 -21t-17.5 -13.5t-7.5 -10.5t-1.5 -11q0 -19 25 -19q29 0 53 4.5t29 4.5q7 0 8.5 -2t1.5 -10v-58q0 -5 -1.5 -8t-9.5 -7q-11 -5 -36 -12.5t-67 -7.5q-24 0 -47 3.5t-41 12.5t-28.5 25.5t-10.5 42.5
q0 17 3 30.5t11.5 26t24 26t41.5 30.5l34 23v27z" />
    <glyph glyph-name="uring" unicode="&#x16f;" horiz-adv-x="592" 
d="M527 20q0 -8 -6 -14t-14 -6h-92q-8 0 -14 6t-6 14v23q-39 -26 -74 -38t-83 -12q-38 0 -69.5 10t-53.5 32q-28 28 -39 73.5t-11 108.5v326q0 8 6 14.5t14 6.5h92q8 0 14 -6.5t6 -14.5v-326q0 -38 4.5 -60.5t18.5 -35.5q11 -9 25 -13.5t37 -4.5q14 0 29.5 4t30.5 10
t28.5 13l24.5 13v400q0 8 6 14.5t14 6.5h92q8 0 14 -6.5t6 -14.5v-523zM407 708q0 -23 -8.5 -43t-23.5 -35t-35 -23.5t-43 -8.5t-43 8.5t-35 23.5t-24 35t-9 43t9 43t24 35t35 24t43 9t43 -9t35 -24t23.5 -35t8.5 -43zM345 709q0 20 -14 33.5t-34 13.5t-33 -13.5t-13 -33.5
t13 -34t33 -14t34 14t14 34z" />
    <glyph glyph-name="utilde" unicode="&#x169;" horiz-adv-x="592" 
d="M527 20q0 -8 -6 -14t-14 -6h-92q-8 0 -14 6t-6 14v23q-39 -26 -74 -38t-83 -12q-38 0 -69.5 10t-53.5 32q-28 28 -39 73.5t-11 108.5v326q0 8 6 14.5t14 6.5h92q8 0 14 -6.5t6 -14.5v-326q0 -38 4.5 -60.5t18.5 -35.5q11 -9 25 -13.5t37 -4.5q14 0 29.5 4t30.5 10
t28.5 13l24.5 13v400q0 8 6 14.5t14 6.5h92q8 0 14 -6.5t6 -14.5v-523zM485 739q0 -61 -29.5 -86.5t-81.5 -25.5q-17 0 -36 6t-34 17l-44 33q-13 10 -23 15.5t-19 5.5q-12 0 -20 -7t-8 -27v-21q0 -16 -14 -16h-57q-14 0 -14 16v21q0 60 30 86t82 26q17 0 35.5 -5.5
t33.5 -16.5l44 -33q26 -20 42 -20q13 0 20.5 6.5t7.5 26.5v21q0 16 14 16h57q14 0 14 -16v-22z" />
    <glyph glyph-name="wacute" unicode="&#x1e83;" horiz-adv-x="819" 
d="M793 541l-91 -460q-5 -23 -10.5 -38.5t-15.5 -26t-25 -15t-38 -4.5h-27q-41 0 -63 19.5t-32 58.5l-79 306q-1 5 -3 5t-3 -5l-79 -306q-10 -39 -32 -58.5t-63 -19.5h-27q-23 0 -38 4.5t-25 15t-16 26t-10 38.5l-91 460v3q0 8 6 14t14 6h97q8 0 12.5 -5.5t5.5 -12.5
l63 -423q2 -14 5 -14q4 0 7 14l83 336q8 29 19 36t37 7h70q26 0 37 -7t19 -36l83 -336q3 -14 7 -14q3 0 5 14l63 423q1 7 5.5 12.5t12.5 5.5h97q8 0 14 -6t6 -14v-3zM586 772q0 -4 -4 -8l-118 -124q-6 -7 -10.5 -10t-13.5 -3h-86q-9 0 -9 7q0 6 4 10l95 120q7 8 11.5 11.5
t14.5 3.5h105q11 0 11 -7z" />
    <glyph glyph-name="wcircumflex" unicode="&#x175;" horiz-adv-x="819" 
d="M793 541l-91 -460q-5 -23 -10.5 -38.5t-15.5 -26t-25 -15t-38 -4.5h-27q-41 0 -63 19.5t-32 58.5l-79 306q-1 5 -3 5t-3 -5l-79 -306q-10 -39 -32 -58.5t-63 -19.5h-27q-23 0 -38 4.5t-25 15t-16 26t-10 38.5l-91 460v3q0 8 6 14t14 6h97q8 0 12.5 -5.5t5.5 -12.5
l63 -423q2 -14 5 -14q4 0 7 14l83 336q8 29 19 36t37 7h70q26 0 37 -7t19 -36l83 -336q3 -14 7 -14q3 0 5 14l63 423q1 7 5.5 12.5t12.5 5.5h97q8 0 14 -6t6 -14v-3zM596 634q0 -7 -9 -7h-83q-9 0 -13 3t-10 10l-71 81l-71 -81q-6 -7 -10.5 -10t-13.5 -3h-83q-9 0 -9 7
q0 6 4 10l92 120q7 8 11.5 11.5t14.5 3.5h130q10 0 14.5 -3.5t11.5 -11.5l91 -120q4 -4 4 -10z" />
    <glyph glyph-name="wdieresis" unicode="&#x1e85;" horiz-adv-x="819" 
d="M793 541l-91 -460q-5 -23 -10.5 -38.5t-15.5 -26t-25 -15t-38 -4.5h-27q-41 0 -63 19.5t-32 58.5l-79 306q-1 5 -3 5t-3 -5l-79 -306q-10 -39 -32 -58.5t-63 -19.5h-27q-23 0 -38 4.5t-25 15t-16 26t-10 38.5l-91 460v3q0 8 6 14t14 6h97q8 0 12.5 -5.5t5.5 -12.5
l63 -423q2 -14 5 -14q4 0 7 14l83 336q8 29 19 36t37 7h70q26 0 37 -7t19 -36l83 -336q3 -14 7 -14q3 0 5 14l63 423q1 7 5.5 12.5t12.5 5.5h97q8 0 14 -6t6 -14v-3zM568 659q0 -8 -6.5 -14t-14.5 -6h-72q-8 0 -14.5 6t-6.5 14v88q0 8 6.5 14t14.5 6h72q8 0 14.5 -6t6.5 -14
v-88zM368 659q0 -8 -6.5 -14t-14.5 -6h-72q-8 0 -14.5 6t-6.5 14v88q0 8 6.5 14t14.5 6h72q8 0 14.5 -6t6.5 -14v-88z" />
    <glyph glyph-name="wgrave" unicode="&#x1e81;" horiz-adv-x="819" 
d="M793 541l-91 -460q-5 -23 -10.5 -38.5t-15.5 -26t-25 -15t-38 -4.5h-27q-41 0 -63 19.5t-32 58.5l-79 306q-1 5 -3 5t-3 -5l-79 -306q-10 -39 -32 -58.5t-63 -19.5h-27q-23 0 -38 4.5t-25 15t-16 26t-10 38.5l-91 460v3q0 8 6 14t14 6h97q8 0 12.5 -5.5t5.5 -12.5
l63 -423q2 -14 5 -14q4 0 7 14l83 336q8 29 19 36t37 7h70q26 0 37 -7t19 -36l83 -336q3 -14 7 -14q3 0 5 14l63 423q1 7 5.5 12.5t12.5 5.5h97q8 0 14 -6t6 -14v-3zM486 634q0 -7 -9 -7h-86q-9 0 -13 3t-10 10l-119 124q-4 4 -4 8q0 7 11 7h106q10 0 14.5 -3.5t11.5 -11.5
l94 -120q4 -4 4 -10z" />
    <glyph glyph-name="ycircumflex" unicode="&#x177;" horiz-adv-x="560" 
d="M535 547q0 -4 -1 -6l-167 -584q-12 -41 -26 -70.5t-36.5 -49t-56.5 -28.5t-85 -9q-12 0 -27 1t-29.5 3t-27.5 4t-22 5q-8 2 -14.5 5.5t-6.5 11.5v64q0 8 6 13t14 5h2q10 0 25.5 -1l31 -2l30.5 -2t26 -1q32 0 50 12.5t29 51.5l8 30h-15q-11 0 -23 2.5t-23.5 10.5t-22 24.5
t-18.5 45.5l-131 458q-1 3 -1 7q0 16 19 16h101q7 0 12 -5.5t7 -12.5l101 -407q3 -13 6 -17.5t8 -4.5h1h5h3l108 430q2 7 7 12t13 5h102q8 0 13 -5t5 -12zM467 634q0 -7 -9 -7h-83q-9 0 -13 3t-10 10l-71 81l-71 -81q-6 -7 -10.5 -10t-13.5 -3h-83q-9 0 -9 7q0 6 4 10
l92 120q7 8 11.5 11.5t14.5 3.5h130q10 0 14.5 -3.5t11.5 -11.5l91 -120q4 -4 4 -10z" />
    <glyph glyph-name="ygrave" unicode="&#x1ef3;" horiz-adv-x="560" 
d="M535 547q0 -4 -1 -6l-167 -584q-12 -41 -26 -70.5t-36.5 -49t-56.5 -28.5t-85 -9q-12 0 -27 1t-29.5 3t-27.5 4t-22 5q-8 2 -14.5 5.5t-6.5 11.5v64q0 8 6 13t14 5h2q10 0 25.5 -1l31 -2l30.5 -2t26 -1q32 0 50 12.5t29 51.5l8 30h-15q-11 0 -23 2.5t-23.5 10.5t-22 24.5
t-18.5 45.5l-131 458q-1 3 -1 7q0 16 19 16h101q7 0 12 -5.5t7 -12.5l101 -407q3 -13 6 -17.5t8 -4.5h1h5h3l108 430q2 7 7 12t13 5h102q8 0 13 -5t5 -12zM361 634q0 -7 -9 -7h-86q-9 0 -13 3t-10 10l-119 124q-4 4 -4 8q0 7 11 7h106q10 0 14.5 -3.5t11.5 -11.5l94 -120
q4 -4 4 -10z" />
    <glyph glyph-name="zacute" unicode="&#x17a;" horiz-adv-x="490" 
d="M450 20q0 -8 -6 -14t-14 -6h-350q-17 0 -28.5 11.5t-11.5 28.5v43q0 15 13 32l242 333q3 4 3 6q0 3 -6 3h-226q-8 0 -13 4t-5 12v71q0 8 6 14t14 6h340q17 0 28.5 -12t11.5 -29v-57q0 -4 -1.5 -12t-3.5 -11l-233 -319l-2 -3q0 -4 6 -4h218q8 0 13 -4t5 -12v-81zM420 772
q0 -4 -4 -8l-118 -124q-6 -7 -10.5 -10t-13.5 -3h-86q-9 0 -9 7q0 6 4 10l95 120q7 8 11.5 11.5t14.5 3.5h105q11 0 11 -7z" />
    <glyph glyph-name="zdotaccent" unicode="&#x17c;" horiz-adv-x="490" 
d="M450 20q0 -8 -6 -14t-14 -6h-350q-17 0 -28.5 11.5t-11.5 28.5v43q0 15 13 32l242 333q3 4 3 6q0 3 -6 3h-226q-8 0 -13 4t-5 12v71q0 8 6 14t14 6h340q17 0 28.5 -12t11.5 -29v-57q0 -4 -1.5 -12t-3.5 -11l-233 -319l-2 -3q0 -4 6 -4h218q8 0 13 -4t5 -12v-81zM310 655
q0 -8 -6 -14t-14 -6h-90q-8 0 -14 6t-6 14v95q0 8 6 13.5t14 5.5h90q8 0 14 -5.5t6 -13.5v-95z" />
    <glyph glyph-name="kgreenlandic" unicode="&#x138;" horiz-adv-x="549" 
d="M519 12q0 -5 -4 -8.5t-10 -3.5h-122q-8 0 -16 6.5t-13 13.5l-157 228v-227q0 -8 -6 -14.5t-14 -6.5h-92q-8 0 -14 6.5t-6 14.5v523q0 8 6 14t14 6h92q8 0 14 -6t6 -14v-220l171 228q5 7 11.5 9.5t11.5 2.5h112q15 0 15 -11q0 -5 -4 -10l-201 -247l203 -276q3 -5 3 -8z
" />
    <glyph glyph-name="napostrophe" unicode="&#x149;" horiz-adv-x="747" 
d="M196 750q0 -5 -1 -8l-68 -207q-5 -19 -19 -19h-80q-9 0 -9 10q0 6 1 9l51 207q4 19 20 19h94q11 0 11 -11zM682 21q0 -8 -6 -14.5t-14 -6.5h-92q-8 0 -14 6.5t-6 14.5v326q0 33 -2.5 54.5t-11 34t-25.5 18t-46 5.5q-26 0 -53.5 -9.5t-59.5 -26.5v-402q0 -8 -6 -14.5
t-14 -6.5h-92q-8 0 -14 6.5t-6 14.5v523q0 8 6 14t14 6h87q8 0 14 -6t6 -14v-21q22 14 40.5 23t37.5 14.5t39 8t45 2.5q54 0 88 -17t52.5 -47t25.5 -71t7 -89v-326z" />
    <glyph glyph-name="Delta" unicode="&#x2206;" horiz-adv-x="646" 
d="M627 17q0 -8 -5 -12.5t-13 -4.5h-572q-8 0 -13 4.5t-5 12.5q0 1 0.5 2t0.5 3l164 627q9 35 26 55t36.5 30.5t40 13.5t36.5 3t36.5 -3t40 -13.5t36.5 -30.5t26 -55l164 -627q0 -2 0.5 -3t0.5 -2zM339 618q-2 9 -5 12.5t-11 3.5t-11 -3.5t-5 -12.5l-122 -504h276z" />
    <glyph glyph-name="Omega" unicode="&#x2126;" horiz-adv-x="678" 
d="M483 461q0 78 -35 122.5t-109 44.5t-109 -44.5t-35 -122.5v-28q0 -41 3.5 -70.5t13.5 -51.5t28.5 -36.5t49.5 -25.5q8 -3 11 -7t3 -18v-203q0 -21 -21 -21h-181q-10 0 -16.5 4.5t-6.5 16.5v84q0 12 6.5 16t16.5 4h121v27q-54 18 -87 48.5t-51 68t-24 80t-6 84.5v28
q0 70 21 125t58.5 92.5t89.5 57t115 19.5t115 -19.5t89.5 -57t58.5 -92.5t21 -125v-28q0 -42 -6 -84.5t-24 -80t-51 -68t-87 -48.5v-27h121q10 0 16.5 -4t6.5 -16v-84q0 -12 -6.5 -16.5t-16.5 -4.5h-181q-21 0 -21 21v203q0 14 3 18t11 7q31 11 49.5 25.5t28.5 36.5
t13.5 51.5t3.5 70.5v28z" />
    <glyph glyph-name="uni03BC" unicode="&#x3bc;" horiz-adv-x="587" 
d="M527 42q0 -10 -6 -16t-21 -10q-38 -10 -89 -17t-114 -7q-34 0 -59.5 8.5t-43.5 22.5v-195q0 -8 -5 -14t-13 -6h-97q-8 0 -13.5 6t-5.5 14v715q0 8 6 14.5t14 6.5h93q8 0 14 -6.5t6 -14.5v-346q0 -96 104 -96q24 0 50 3t46 8v431q0 8 6 14.5t14 6.5h93q8 0 14.5 -6.5
t6.5 -14.5v-501v0z" />
    <glyph glyph-name="pi" unicode="&#x3c0;" horiz-adv-x="672" 
d="M567 454v-320q0 -19 9 -22t41 -3h24q10 0 10 -11v-93q0 -8 -3 -9.5t-8 -3.5q-4 -1 -15.5 -1.5t-25 -1l-26 -1t-18.5 -0.5q-34 0 -57 8t-37 25t-20 45t-6 68v320h-198v-434q0 -7 -2 -13.5t-12 -6.5h-103q-9 0 -12 5.5t-3 14.5v434h-69q-8 0 -11.5 2.5t-3.5 12.5v79
q0 10 3.5 13t11.5 3h600q8 0 11.5 -3t3.5 -13v-79q0 -10 -3.5 -12.5t-11.5 -2.5h-69z" />
    <glyph glyph-name="afii10017" unicode="&#x410;" horiz-adv-x="646" 
d="M627 17q0 -8 -5 -12.5t-13 -4.5h-106q-7 0 -12 5t-7 12l-46 190h-230l-46 -190q-2 -7 -7 -12t-12 -5h-106q-8 0 -13 4.5t-5 12.5q0 1 0.5 2t0.5 3l164 627q9 35 26 55t36.5 30.5t40 13.5t36.5 3t36.5 -3t40 -13.5t36.5 -30.5t26 -55l164 -627q0 -2 0.5 -3t0.5 -2z
M339 618q-2 9 -5 12.5t-11 3.5t-11 -3.5t-5 -12.5l-72 -297h176z" />
    <glyph glyph-name="afii10018" unicode="&#x411;" horiz-adv-x="641" 
d="M214 628v-158q21 2 43.5 2h45.5q58 0 110 -11t91.5 -38t63 -71.5t23.5 -110.5v-18q0 -66 -23.5 -110.5t-63 -71.5t-91.5 -38t-110 -11q-55 0 -106 3.5t-90 9.5q-15 2 -23.5 8.5t-8.5 21.5v689q0 8 6 14t14 6h435q8 0 14 -5.5t6 -13.5v-79q0 -8 -6 -13t-14 -5h-316z
M214 111q7 -1 18.5 -1.5t24.5 -1l25.5 -1t20.5 -0.5q75 0 112.5 26.5t37.5 89.5v18q0 63 -37.5 89.5t-112.5 26.5q-8 0 -20.5 -0.5l-25.5 -1t-24.5 -1t-18.5 -1.5v-242z" />
    <glyph glyph-name="afii10019" unicode="&#x412;" horiz-adv-x="650" 
d="M600 208q0 -60 -21.5 -101t-61 -66.5t-95.5 -37t-126 -11.5q-61 0 -105.5 3t-67.5 8q-25 5 -36.5 15.5t-11.5 38.5v630q0 27 10.5 38.5t34.5 15.5q20 3 64 6.5t103 3.5q68 0 124.5 -10.5t97.5 -34.5t63.5 -62.5t22.5 -95.5v-20q0 -50 -23 -90.5t-69 -60.5
q46 -20 71.5 -57.5t25.5 -94.5v-17zM460 540q0 52 -38.5 74t-134.5 22q-18 0 -37.5 -0.5t-35.5 -1.5v-203h127q35 0 58 7.5t36.5 20.5t19 30.5t5.5 36.5v14zM464 223q0 21 -6 40t-20.5 33.5t-38 23.5t-58.5 9h-127v-220q18 0 42 -1t40 -1q48 0 80 6t51.5 19t28 32.5
t8.5 45.5v13z" />
    <glyph glyph-name="afii10020" unicode="&#x413;" horiz-adv-x="576" 
d="M213 20q0 -8 -6 -14t-14 -6h-98q-8 0 -14 6t-6 14v526q0 64 18 104t49 62.5t73 30.5t91 8q45 0 75.5 -1.5t52 -3.5t36 -4.5l26.5 -4.5q11 -2 15.5 -6t4.5 -15v-64q0 -8 -6 -14t-14 -6h-204q-44 0 -61.5 -18t-17.5 -68v-526z" />
    <glyph glyph-name="afii10050" unicode="&#x490;" horiz-adv-x="576" 
d="M213 20q0 -8 -6 -14t-14 -6h-98q-8 0 -14 6t-6 14v526q0 64 18 104t49 62.5t73 30.5t91 8h38t33 -1v47q0 8 6 13.5t14 5.5h99q8 0 14 -5.5t6 -13.5v-145q0 -8 -6 -14t-14 -6h-204q-44 0 -61.5 -18t-17.5 -68v-526z" />
    <glyph glyph-name="afii10021" unicode="&#x414;" horiz-adv-x="773" 
d="M109 124l137 525q9 35 26 55t36.5 30.5t40 13.5t36.5 3t36.5 -3t40 -13.5t36.5 -30.5t26 -55l136 -525h78q8 0 14 -6t6 -14v-222q0 -8 -6 -14t-14 -6h-99q-8 0 -14 6t-6 14v118h-465v-118q0 -8 -6 -14t-14 -6h-99q-8 0 -14 6t-6 14v222q0 8 6 14t14 6h74zM250 124h269
l-118 494q-2 9 -5 12.5t-11 3.5t-11 -3.5t-5 -12.5z" />
    <glyph glyph-name="afii10022" unicode="&#x415;" horiz-adv-x="576" 
d="M516 27q0 -11 -4.5 -15t-15.5 -6l-26.5 -4.5t-36 -4.5t-52 -3.5t-75.5 -1.5q-49 0 -91 8t-73 30.5t-49 62.5t-18 104v349q0 64 18 104t49 62.5t73 30.5t91 8q45 0 75.5 -1.5t52 -3.5t36 -4.5l26.5 -4.5q11 -2 15.5 -6t4.5 -15v-64q0 -8 -6 -14t-14 -6h-204
q-44 0 -61.5 -18t-17.5 -68v-108h271q8 0 14 -6t6 -14v-72q0 -8 -6 -14t-14 -6h-271v-129q0 -50 17.5 -68t61.5 -18h204q8 0 14 -6t6 -14v-64v0z" />
    <glyph glyph-name="afii10024" unicode="&#x416;" horiz-adv-x="997" 
d="M429 723q0 8 6 13.5t14 5.5h99q8 0 14 -5.5t6 -13.5v-318l245 329q4 5 9.5 6.5t13.5 1.5h114q19 0 19 -12q0 -7 -7 -16l-256 -331l258 -362q5 -8 5 -12q0 -9 -15 -9h-134q-16 0 -23 11l-229 341v-332q0 -8 -6 -14t-14 -6h-99q-8 0 -14 6t-6 14v332l-229 -341
q-7 -11 -23 -11h-134q-15 0 -15 9q0 4 5 12l258 362l-256 331q-7 9 -7 16q0 12 19 12h114q8 0 13.5 -1.5t9.5 -6.5l245 -329v318z" />
    <glyph glyph-name="afii10025" unicode="&#x417;" horiz-adv-x="587" 
d="M522 208q0 -56 -19.5 -96.5t-53 -67t-79.5 -39.5t-99 -13q-56 0 -102.5 7t-89.5 18q-8 2 -13.5 6.5t-5.5 12.5v62q0 8 5 13t13 5h2q60 -6 107.5 -10t83.5 -4q61 0 86.5 26.5t25.5 79.5v21q0 20 -3.5 38t-14 32t-28.5 22.5t-46 8.5h-177q-19 0 -19 19v63q0 19 19 19h177
q28 0 46 8t28.5 21.5t14 31t3.5 37.5v16q0 19 -4.5 36.5t-17 30.5t-34.5 21t-56 8q-27 0 -47.5 -1t-41.5 -2.5t-45 -4.5t-57 -6h-2q-8 0 -13 5t-5 13v62q0 8 5.5 12.5t13.5 6.5q43 11 89.5 18t102.5 7q54 0 100 -11t79.5 -35.5t52.5 -63.5t19 -96v-16q0 -53 -22.5 -89.5
t-63.5 -58.5q42 -23 64 -63.5t22 -88.5v-21v0z" />
    <glyph glyph-name="afii10026" unicode="&#x418;" horiz-adv-x="712" 
d="M75 724q0 19 19 19h86q19 0 19 -19v-526q0 -9 5 -9t8 8l233 514q9 20 18.5 26t25.5 6h108q17 0 28.5 -11.5t11.5 -28.5v-683q0 -8 -6 -14t-14 -6h-85q-8 0 -13.5 6t-5.5 14v503q0 8 -5 8t-9 -8l-222 -487q-12 -27 -27.5 -31.5t-33.5 -4.5h-101q-17 0 -28.5 11.5
t-11.5 28.5v684z" />
    <glyph glyph-name="afii10027" unicode="&#x419;" horiz-adv-x="712" 
d="M540 944q0 -1 -0.5 -1.5t-0.5 -2.5q-6 -29 -19.5 -55t-35 -46t-52 -32t-70.5 -12q-41 0 -71 12t-51.5 32t-35 46t-19.5 55q0 2 -0.5 2.5t-0.5 1.5q0 7 10 7h75q10 0 13 -12q9 -35 30.5 -50.5t49.5 -15.5t49.5 15.5t30.5 50.5q3 12 13 12h75q10 0 10 -7zM75 40v684
q0 19 19 19h86q19 0 19 -19v-526q0 -9 5 -9t8 8l233 514q9 20 18.5 26t25.5 6h108q17 0 28.5 -11.5t11.5 -28.5v-683q0 -8 -6 -14t-14 -6h-85q-8 0 -13.5 6t-5.5 14v503q0 8 -5 8t-9 -8l-222 -487q-12 -27 -27.5 -31.5t-33.5 -4.5h-101q-17 0 -28.5 11.5t-11.5 28.5z" />
    <glyph glyph-name="afii10028" unicode="&#x41a;" horiz-adv-x="643" 
d="M615 9q0 -9 -15 -9h-134q-16 0 -23 11l-229 341v-332q0 -8 -6 -14t-14 -6h-99q-8 0 -14 6t-6 14v703q0 8 6 13.5t14 5.5h99q8 0 14 -5.5t6 -13.5v-318l245 329q4 5 9.5 6.5t13.5 1.5h114q19 0 19 -12q0 -7 -7 -16l-256 -331l258 -362q5 -8 5 -12z" />
    <glyph glyph-name="afii10029" unicode="&#x41b;" horiz-adv-x="646" 
d="M339 618q-2 9 -5 12.5t-11 3.5t-11 -3.5t-5 -12.5l-145 -601q-2 -7 -7 -12t-12 -5h-106q-8 0 -13 4.5t-5 12.5q0 1 0.5 2t0.5 3l164 627q9 35 26 55t36.5 30.5t40 13.5t36.5 3t36.5 -3t40 -13.5t36.5 -30.5t26 -55l164 -627q0 -2 0.5 -3t0.5 -2q0 -8 -5 -12.5t-13 -4.5
h-106q-7 0 -12 5t-7 12z" />
    <glyph glyph-name="afii10030" unicode="&#x41c;" horiz-adv-x="792" 
d="M717 15q0 -8 -5 -11.5t-12 -3.5h-101q-7 0 -11.5 6t-4.5 14v465q0 10 -3 10q-1 0 -5 -6l-96 -191q-5 -8 -13.5 -12.5t-18.5 -4.5h-101q-10 0 -18.5 4.5t-13.5 12.5l-97 191q-4 6 -5 6q-3 0 -3 -10v-465q0 -8 -4.5 -14t-11.5 -6h-101q-7 0 -12 3.5t-5 11.5v688
q0 17 11.5 28.5t28.5 11.5h82q12 0 22 -6.5t15 -17.5l151 -306l6 -10.5t5 -3.5t5 3.5l6 10.5l151 306q5 11 15 17.5t22 6.5h82q17 0 28.5 -11.5t11.5 -28.5v-688v0z" />
    </font>
</defs>
</svg>
